<svg height="512" width="512" xmlns="http://www.w3.org/2000/svg"><linearGradient id="a" gradientUnits="userSpaceOnUse" x1="285.786" x2="215.289" y1="596.679" y2="-45.289"><stop offset=".002" stop-color="#ff9494"/><stop offset=".992" stop-color="#ffe8dc" stop-opacity="0"/></linearGradient><path d="M465.257 164.114c-14.861-17.312-24.645-38.356-29.218-60.708-3.878-18.954-12.095-35.401-24.961-48.267-58.773-58.773-192.264-20.572-298.161 85.325s-144.098 239.387-85.325 298.16c27.937 27.937 72.757 33.955 123.469 21.212 29.453-7.401 60.532-4.287 88.29 8.03 23.202 10.295 48.799 16.173 75.724 16.566 105.676 1.543 193.748-82.552 196.839-188.195 1.479-50.505-16.354-96.822-46.657-132.123z" fill="url(#a)"/><path d="M319.399 74.287a58.214 58.214 0 0 1-41.816 0c-3.65-1.408-7.79-.464-10.556 2.301L46.949 296.667c-2.766 2.766-3.709 6.907-2.301 10.556a58.214 58.214 0 0 1 0 41.816c-1.408 3.65-.464 7.79 2.301 10.556l96.828 96.828c2.766 2.766 6.907 3.709 10.556 2.301a58.214 58.214 0 0 1 41.816 0c3.65 1.408 7.79.464 10.556-2.301l220.078-220.078c2.766-2.766 3.709-6.907 2.301-10.556a58.214 58.214 0 0 1 0-41.816c1.408-3.65.464-7.79-2.301-10.556l-96.828-96.828c-2.766-2.766-6.906-3.71-10.556-2.302z" fill="#00c" opacity=".1"/><path d="M319.399 53.275a58.214 58.214 0 0 1-41.816 0c-3.65-1.408-7.79-.464-10.556 2.301L46.949 275.654c-2.766 2.766-3.709 6.907-2.301 10.556a58.214 58.214 0 0 1 0 41.816c-1.408 3.65-.464 7.79 2.301 10.556l96.828 96.828c2.766 2.766 6.907 3.709 10.556 2.301a58.214 58.214 0 0 1 41.816 0c3.65 1.408 7.79.464 10.556-2.301l220.078-220.078c2.766-2.766 3.709-6.907 2.301-10.556a58.214 58.214 0 0 1 0-41.816c1.408-3.65.464-7.79-2.301-10.556l-96.828-96.828c-2.766-2.765-6.906-3.709-10.556-2.301z" fill="#ff2c2c"/><path d="M191.364 405.294a88.35 88.35 0 0 0-32.245 0c-1.601.297-3.245-.237-4.396-1.389l-76.268-76.268c-1.152-1.152-1.686-2.795-1.389-4.396a88.35 88.35 0 0 0 0-32.245c-.297-1.601.237-3.245 1.389-4.396L277.972 87.082c1.152-1.152 2.795-1.686 4.396-1.389a88.35 88.35 0 0 0 32.245 0c1.601-.297 3.245.237 4.396 1.389l76.268 76.268c1.152 1.152 1.686 2.795 1.389 4.396a88.35 88.35 0 0 0 0 32.245c.297 1.601-.237 3.245-1.389 4.396L195.76 403.906c-1.152 1.152-2.795 1.686-4.396 1.388z" fill="#fff"/><path d="m277.972 87.082-99.759 99.759 117.306 117.306 99.759-99.759c1.152-1.152 1.686-2.795 1.389-4.396a88.35 88.35 0 0 1 0-32.245c.297-1.601-.237-3.245-1.389-4.396L319.01 87.082c-1.152-1.152-2.795-1.686-4.396-1.389a88.35 88.35 0 0 1-32.245 0c-1.602-.297-3.245.237-4.397 1.389z" fill="#ff9d33"/><g fill="#00c"><path d="M230.748 416.37a5 5 0 0 1-3.536-8.535l196.036-196.036c1.397-1.396 1.857-3.446 1.172-5.221a62.98 62.98 0 0 1 0-45.415c.685-1.775.225-3.825-1.172-5.221l-72.787-72.786a5 5 0 1 1 7.071-7.071l72.786 72.786c4.191 4.19 5.538 10.428 3.431 15.891a53 53 0 0 0 0 38.218c2.107 5.462.76 11.7-3.431 15.891L234.283 414.905a4.986 4.986 0 0 1-3.535 1.465zm-31.116 26.99c-1.779 0-3.569-.321-5.282-.982a52.984 52.984 0 0 0-38.218 0c-5.461 2.105-11.7.76-15.891-3.431l-96.828-96.828c-4.191-4.191-5.538-10.428-3.431-15.891a53 53 0 0 0 0-38.218c-2.107-5.462-.76-11.7 3.431-15.891L263.491 52.041c4.19-4.191 10.428-5.54 15.892-3.431a52.99 52.99 0 0 0 38.218 0c5.459-2.107 11.699-.76 15.891 3.431a5 5 0 1 1-7.071 7.071c-1.396-1.396-3.444-1.857-5.221-1.172a62.976 62.976 0 0 1-45.415 0c-1.776-.684-3.826-.225-5.222 1.172L50.484 279.19c-1.397 1.397-1.857 3.446-1.172 5.221a62.984 62.984 0 0 1 0 45.416c-.685 1.775-.225 3.824 1.172 5.221l96.829 96.828c1.397 1.397 3.445 1.859 5.221 1.172a62.986 62.986 0 0 1 45.415 0c1.778.685 3.825.225 5.221-1.172a5.001 5.001 0 0 1 7.071 7.071 15.02 15.02 0 0 1-10.609 4.413z"/><path d="M125.237 319.36h-15.565a5 5 0 0 1-5-5v-15.565a5 5 0 0 1 5-5h15.565a5 5 0 0 1 5 5v15.565a5 5 0 0 1-5 5zm-10.565-10h5.565v-5.565h-5.565zm68.737 10h-15.565a5 5 0 0 1-5-5v-15.565a5 5 0 0 1 5-5h15.565a5 5 0 0 1 5 5v15.565a5 5 0 0 1-5 5zm-10.565-10h5.565v-5.565h-5.565zm-26.303 35.863a5 5 0 0 1-5-5v-67.292a5 5 0 0 1 10 0v67.292a5 5 0 0 1-5 5z"/></g><path d="m163.296 365.822 30.069-30.069a5.002 5.002 0 1 1 7.075 7.075l-30.069 30.069a5.002 5.002 0 1 1-7.075-7.075m13.679 13.679 72.52-72.52a5.002 5.002 0 1 1 7.075 7.075l-72.52 72.52a5.002 5.002 0 1 1-7.075-7.075" fill="#ff9d33"/><circle cx="299.171" cy="183.189" fill="#fff" r="57.305"/><circle cx="237.024" cy="183.189" fill="#ff4d4d" r="21.341"/><path d="M303.222 212.692a5 5 0 0 1-3.536-8.535l14.836-14.836c.963-.962 1.493-2.242 1.493-3.603s-.53-2.641-1.493-3.603a5.1 5.1 0 0 0-7.206 0l-9.22 9.22c-5.886 5.885-15.463 5.886-21.349 0s-5.886-15.463 0-21.349l14.836-14.836a5.001 5.001 0 0 1 7.071 7.071l-14.836 14.836a5.102 5.102 0 0 0 0 7.207 5.104 5.104 0 0 0 7.207 0l9.219-9.22c5.886-5.886 15.463-5.886 21.349 0a15 15 0 0 1 4.421 10.674c0 4.032-1.57 7.823-4.422 10.674l-14.835 14.836a4.983 4.983 0 0 1-3.535 1.464z" fill="#ff7300"/><path d="M318.764 207.783a4.987 4.987 0 0 1-3.536-1.464l-39.187-39.187a5 5 0 1 1 7.071-7.071l39.187 39.187a5 5 0 0 1-3.535 8.535z" fill="#ff7300"/><circle cx="178.428" cy="218.193" fill="#ff4d4d" r="5.593"/><circle cx="190.392" cy="230.157" fill="#ff4d4d" r="5.593"/><circle cx="202.356" cy="242.122" fill="#ff4d4d" r="5.593"/><path d="M156.828 118.159a5 5 0 0 1-3.536-8.535l10.006-10.006a5.001 5.001 0 0 1 7.071 7.071l-10.006 10.006a4.984 4.984 0 0 1-3.535 1.464zM61.976 433.354a5 5 0 0 1-3.536-8.535l10.006-10.006a5.001 5.001 0 0 1 7.071 7.071L65.511 431.89a4.984 4.984 0 0 1-3.535 1.464z" fill="#ff9d33"/><path d="M457.994 179.732a5 5 0 0 1-3.536-8.535l10.006-10.006a5.001 5.001 0 0 1 7.071 7.071l-10.006 10.006a4.983 4.983 0 0 1-3.535 1.464z" fill="#6c6cff"/><path d="M308.758 403.047a5 5 0 0 1-3.536-8.535l10.006-10.006a5.001 5.001 0 0 1 7.071 7.071l-10.006 10.006a4.983 4.983 0 0 1-3.535 1.464z" fill="#ff9d33"/><path d="M377.905 363.946a5 5 0 0 1-3.536-8.535l10.006-10.006a4.998 4.998 0 0 1 7.072 0l10.005 10.006a5 5 0 1 1-7.071 7.071l-6.47-6.47-6.47 6.47a4.987 4.987 0 0 1-3.536 1.464z" fill="#6c6cff"/><path d="M115.839 142.896a4.987 4.987 0 0 1-3.536-1.464l-6.47-6.47-6.47 6.47a5.001 5.001 0 0 1-7.071-7.071l10.005-10.006a4.998 4.998 0 0 1 7.072 0l10.006 10.006a5 5 0 0 1-3.536 8.535z" fill="#ff6c6c"/></svg>