<svg xmlns="http://www.w3.org/2000/svg" width="26" height="26" fill="none"><path fill="#0080FF" d="m17.292 5.078 2.91 10.862-1.087.29-2.91-10.857 1.087-.295zm-9.989 6.175 1.163 4.342-3.26.873a2.255 2.255 0 0 1-2.757-1.59 2.256 2.256 0 0 1 1.589-2.757l3.265-.868zm.914 5.57 1.021 3.804c.081.3-.096.61-.396.686a.557.557 0 0 1-.686-.396l-1.02-3.799 1.081-.294zM9.6 15.469 8.344 10.79l6.84-4.89 2.783 10.38-8.368-.813zm11.496-.523L18.374 4.789a1.13 1.13 0 0 0-1.377-.798l-1.528.412a1.1 1.1 0 0 0-.36.167l-3.291 2.357-.945.67-3.417 2.442-3.57.955a3.471 3.471 0 0 0-2.585 3.87 3.38 3.38 0 0 0 4.194 2.681l.544-.147 1.005 3.747c.087.35.28.66.549.9.421.36.995.492 1.533.344.539-.142.97-.543 1.158-1.066a1.76 1.76 0 0 0 .02-1.051l-.99-3.707 9.247.904c.133.015.27 0 .402-.03l1.533-.412c.29-.076.539-.27.686-.528.223-.356-.087-1.554-.087-1.554zm-.178-5.018a.566.566 0 0 0 .69.396l2.174-.584a.563.563 0 0 0-.294-1.087l-2.174.59a.554.554 0 0 0-.396.685zm-.66-2.753c.147 0 .294-.06.396-.162l1.589-1.59a.566.566 0 0 0 .015-.797.567.567 0 0 0-.797-.015l-.015.015-1.59 1.59a.567.567 0 0 0 0 .797c.107.101.25.162.401.162zm1.203 5.81c-.081.3.097.61.396.69l2.174.584a.564.564 0 0 0 .71-.543.564.564 0 0 0-.416-.543l-2.173-.584a.558.558 0 0 0-.691.396z"/></svg>