<svg xmlns="http://www.w3.org/2000/svg" width="25" height="22" fill="none"><path fill="#98A5B9" fill-rule="evenodd" d="M7 20.05a5.794 5.794 0 0 0 5.8-5.8 5.8 5.8 0 1 0-5.8 5.8zm0 1.2a7 7 0 1 0 0-14 7 7 0 0 0 0 14z" clip-rule="evenodd"/><path fill="#98A5B9" fill-rule="evenodd" d="M18.75 10c0-.664.547-1.25 1.25-1.25.664 0 1.25.586 1.25 1.25 0 .703-.586 1.25-1.25 1.25-.703 0-1.25-.547-1.25-1.25zm3.75-7.5h.625C24.141 2.5 25 3.36 25 4.375V15c0 1.406-1.133 2.5-2.5 2.5H11.805c.261-.386.478-.805.64-1.25H22.5c.664 0 1.25-.547 1.25-1.25V4.375c0-.313-.313-.625-.625-.625H9.375a.616.616 0 0 1-.625-.625c0-.313.273-.625.625-.625H21.25v-.625c0-.313-.313-.625-.625-.625H8.75a2.493 2.493 0 0 0-2.5 2.5v4.748c-.433.056-.852.16-1.25.306V3.75C5 1.68 6.64 0 8.75 0h11.875C21.641 0 22.5.86 22.5 1.875V2.5z" clip-rule="evenodd"/><path fill="#98A5B9" fill-rule="evenodd" d="M7 20.05a5.8 5.8 0 1 0 0-11.6 5.8 5.8 0 0 0 0 11.6zm0 1.2a7 7 0 1 0 0-14 7 7 0 0 0 0 14z" clip-rule="evenodd"/><path fill="#98A5B9" d="M8.45 11.392a.2.2 0 0 1 .283 0l1.125 1.125a.2.2 0 0 1 0 .283l-4.309 4.309a.2.2 0 0 1-.282 0L4.14 15.983a.2.2 0 0 1 0-.283l4.309-4.308z"/><path fill="#98A5B9" d="M9.858 15.7a.2.2 0 0 1 0 .283l-1.125 1.125a.2.2 0 0 1-.283 0L4.142 12.8a.2.2 0 0 1 0-.282l1.125-1.126a.2.2 0 0 1 .283 0l4.308 4.31z"/></svg>