<svg xmlns="http://www.w3.org/2000/svg" width="25" height="22" fill="none"><path fill="#3596B9" fill-rule="evenodd" d="M7 20.05a5.794 5.794 0 0 0 5.8-5.8 5.8 5.8 0 1 0-5.8 5.8zm0 1.2a7 7 0 1 0 0-14 7 7 0 0 0 0 14z" clip-rule="evenodd"/><path fill="#3596B9" fill-rule="evenodd" d="M18.75 10c0-.664.547-1.25 1.25-1.25.664 0 1.25.586 1.25 1.25 0 .703-.586 1.25-1.25 1.25-.703 0-1.25-.547-1.25-1.25zm3.75-7.5h.625C24.141 2.5 25 3.36 25 4.375V15c0 1.406-1.133 2.5-2.5 2.5H11.805c.261-.386.478-.805.64-1.25H22.5c.664 0 1.25-.547 1.25-1.25V4.375c0-.313-.313-.625-.625-.625H9.375a.616.616 0 0 1-.625-.625c0-.313.273-.625.625-.625H21.25v-.625c0-.313-.313-.625-.625-.625H8.75a2.493 2.493 0 0 0-2.5 2.5v4.748c-.433.056-.852.16-1.25.306V3.75C5 1.68 6.64 0 8.75 0h11.875C21.641 0 22.5.86 22.5 1.875V2.5z" clip-rule="evenodd"/><path fill="#3596B9" d="m9.256 11.252.047.973c-.48-.563-1.465-1.032-2.203-1.032h-.012A2.895 2.895 0 0 0 4.24 13.56v.024c0 .082.059.14.14.14h.575a.136.136 0 0 0 .129-.105c.21-.867 1.113-1.57 2.004-1.57.61 0 1.371.398 1.71.902l-1.183-.058h-.011c-.07 0-.141.07-.141.14v.563c0 .07.07.14.14.14H9.96c.07 0 .14-.07.14-.14V11.24a.15.15 0 0 0-.14-.14h-.563c-.07.011-.14.07-.14.14v.012zm-2.168 4.91c-.61 0-1.371-.398-1.711-.902l1.195.058h.012c.07 0 .14-.07.14-.14v-.563a.15.15 0 0 0-.14-.14H4.24c-.082 0-.14.07-.14.14v2.344c0 .082.058.14.14.14h.551c.07 0 .14-.058.14-.14l-.046-.973c.48.563 1.465 1.02 2.203 1.02a2.908 2.908 0 0 0 2.86-2.356v-.035c0-.07-.06-.14-.141-.14h-.575a.198.198 0 0 0-.14.117c-.211.867-1.102 1.57-2.004 1.57z"/><path fill="#3596B9" fill-rule="evenodd" d="M9.156 11.252h.1l.047.973a1.864 1.864 0 0 0-.105-.114c-.51-.51-1.41-.918-2.098-.918h-.012A2.895 2.895 0 0 0 4.24 13.56v.024c0 .082.059.14.14.14h.575a.136.136 0 0 0 .129-.105c.21-.867 1.113-1.57 2.004-1.57.567 0 1.266.345 1.634.799.028.034.053.068.077.103l-1.184-.058h-.011c-.07 0-.141.07-.141.14v.563c0 .07.07.14.14.14H9.96c.07 0 .14-.07.14-.14V11.24a.15.15 0 0 0-.14-.14h-.563c-.07.011-.14.07-.14.14v.012h-.1v-.01c0-.07.035-.128.076-.166a.28.28 0 0 1 .148-.075L9.39 11h.57c.068 0 .127.033.168.073.04.04.073.1.073.168v2.355a.244.244 0 0 1-.073.168c-.04.04-.1.073-.168.073H7.604a.24.24 0 0 1-.167-.073.243.243 0 0 1-.074-.168v-.562a.24.24 0 0 1 .074-.168c.04-.04.1-.073.167-.073h.017l.963.048a2.163 2.163 0 0 0-.586-.441 2.03 2.03 0 0 0-.91-.25c-.844 0-1.705.67-1.906 1.492a.238.238 0 0 1-.227.183h-.574a.235.235 0 0 1-.24-.24v-.033l.001-.009a2.996 2.996 0 0 1 2.946-2.45H7.1c.388 0 .834.123 1.24.315.316.148.615.341.85.558l-.034-.714zM4.932 16.96c0 .082-.07.14-.141.14h-.55a.135.135 0 0 1-.141-.14v-2.344c0-.07.058-.14.14-.14h2.344c.07 0 .14.07.14.14v.563c0 .07-.07.14-.14.14h-.012l-1.195-.058c.024.035.05.07.078.104.368.454 1.066.798 1.633.798.902 0 1.793-.703 2.004-1.57a.198.198 0 0 1 .14-.117h.575c.082 0 .14.07.14.14v.035a2.907 2.907 0 0 1-2.86 2.356c-.687 0-1.588-.396-2.096-.905a1.873 1.873 0 0 1-.106-.115l.047.973zm.066-.713.034.713c0 .143-.12.241-.24.241H4.24a.235.235 0 0 1-.241-.24v-2.344c0-.12.098-.241.24-.241h2.344c.068 0 .127.033.168.073.04.04.073.1.073.168v.562a.24.24 0 0 1-.073.167c-.04.04-.1.074-.168.074h-.016l-.976-.048c.155.169.36.322.586.44.299.158.626.252.91.252.857 0 1.707-.672 1.907-1.494l.002-.007.002-.007a.304.304 0 0 1 .214-.178l.01-.002h.584c.143 0 .24.12.24.24v.045l-.001.01a3.006 3.006 0 0 1-2.958 2.436c-.387 0-.833-.12-1.24-.308a3.393 3.393 0 0 1-.85-.552z" clip-rule="evenodd"/></svg>