<svg xmlns="http://www.w3.org/2000/svg" width="20" height="18" fill="none"><path fill="#FFA400" d="M13.125 0c-1.914 0-3.633.352-4.883.938-.039 0-1.992.82-1.992 2.187v.664C2.969 3.945 0 5.156 0 6.875v7.5C0 16.133 3.047 17.5 6.875 17.5c3.79 0 6.875-1.367 6.875-3.125v-.625c3.477-.156 6.25-1.484 6.25-3.125v-7.5C20 1.68 17.54 0 13.125 0zM12.5 14.375c0 .547-1.992 1.875-5.625 1.875-3.672 0-5.625-1.328-5.625-1.875v-1.953c1.21.82 3.281 1.328 5.625 1.328 2.305 0 4.375-.508 5.625-1.328v1.953zm0-3.75c0 .547-1.992 1.875-5.625 1.875-3.672 0-5.625-1.328-5.625-1.875V8.672C2.46 9.492 4.531 10 6.875 10c2.305 0 4.375-.508 5.625-1.328v1.953zM6.875 8.75c-3.164 0-5.742-.82-5.742-1.875C1.133 5.859 3.71 5 6.875 5s5.703.86 5.703 1.875c0 1.055-2.539 1.875-5.703 1.875zm11.875 1.875c0 .547-1.758 1.719-5 1.875V10c2.031-.117 3.867-.586 5-1.328v1.953zm0-3.75c0 .547-1.797 1.719-5 1.875V6.875c0-.195-.078-.43-.195-.625 2.148-.078 4.023-.547 5.195-1.328v1.953zM13.125 5h-.82c-1.446-.86-3.32-1.133-4.532-1.172-.234-.234-.39-.43-.39-.703 0-1.016 2.578-1.875 5.742-1.875s5.703.86 5.703 1.875C18.828 4.18 16.29 5 13.125 5z"/></svg>