<svg xmlns="http://www.w3.org/2000/svg" width="18" height="18" fill="none"><path fill="#0080FF" d="M16.066.33 14.31 2.088C12.832.963 10.969.26 9 .26 4.324.26.492 3.95.281 8.557c-.035.246.176.422.422.422h.352c.21 0 .386-.141.422-.387A7.528 7.528 0 0 1 9 1.455c1.652 0 3.2.563 4.465 1.477L11.566 4.83c-.703.703-.21 1.899.809 1.899h4.5c.598 0 1.125-.493 1.125-1.125V1.139c0-1.02-1.23-1.512-1.934-.809zm.809 5.274h-4.5l4.5-4.5v4.5zm.387 3.375h-.352c-.21 0-.387.175-.422.421A7.49 7.49 0 0 1 9 16.502a7.633 7.633 0 0 1-4.5-1.441l1.898-1.899c.704-.703.211-1.934-.808-1.934H1.125c-.633 0-1.125.528-1.125 1.126v4.5c0 1.019 1.195 1.511 1.898.808l1.758-1.758A8.803 8.803 0 0 0 9 17.697c4.64 0 8.473-3.656 8.684-8.261.035-.247-.176-.457-.422-.457zM1.125 16.854v-4.5h4.5l-4.5 4.5z"/></svg>