<svg xmlns="http://www.w3.org/2000/svg" width="23" height="24" fill="none"><path fill="#3596B9" d="m9.462 13.546.047.995c-.49-.575-1.497-1.055-2.252-1.055h-.012a2.958 2.958 0 0 0-2.91 2.42v.024c0 .084.06.144.143.144h.587a.14.14 0 0 0 .132-.108c.216-.886 1.138-1.605 2.048-1.605.623 0 1.402.407 1.75.922l-1.21-.06h-.013c-.071 0-.143.072-.143.144v.575c0 .072.072.144.143.144h2.408a.155.155 0 0 0 .144-.144v-2.408c0-.071-.072-.143-.144-.143h-.575c-.072.012-.143.072-.143.143v.012zm-2.217 5.02c-.623 0-1.401-.408-1.749-.923l1.222.06h.012c.072 0 .144-.072.144-.143v-.575a.155.155 0 0 0-.144-.144H4.334a.146.146 0 0 0-.143.143v2.396c0 .084.06.144.143.144h.563c.072 0 .144-.06.144-.144l-.048-.994c.491.575 1.498 1.042 2.252 1.042a2.97 2.97 0 0 0 2.923-2.408v-.035a.146.146 0 0 0-.143-.144h-.587a.207.207 0 0 0-.144.12c-.216.886-1.126 1.605-2.049 1.605z"/><path fill="#3596B9" fill-rule="evenodd" d="M9.36 13.547h.102l.047.994a1.92 1.92 0 0 0-.107-.117c-.52-.521-1.442-.938-2.145-.938h-.012a2.958 2.958 0 0 0-2.91 2.42v.024c0 .084.06.144.143.144h.587a.14.14 0 0 0 .132-.108c.216-.886 1.138-1.605 2.048-1.605.58 0 1.294.353 1.67.817.03.034.055.07.08.105l-1.21-.06h-.013c-.071 0-.143.072-.143.144v.575c0 .072.072.144.143.144h2.408a.155.155 0 0 0 .144-.144v-2.408c0-.071-.072-.143-.144-.143h-.575c-.072.012-.143.072-.143.143v.012H9.36v-.01c0-.072.035-.13.077-.17a.301.301 0 0 1 .152-.076l.008-.001h.584c.069 0 .13.034.17.075a.243.243 0 0 1 .076.17v2.409c0 .069-.034.13-.075.17a.246.246 0 0 1-.171.076H7.773a.245.245 0 0 1-.171-.075.243.243 0 0 1-.075-.171v-.575c0-.07.033-.13.075-.171a.242.242 0 0 1 .17-.075h.018l.985.049a2.208 2.208 0 0 0-.599-.451c-.305-.16-.64-.256-.93-.256-.863 0-1.744.686-1.949 1.525a.243.243 0 0 1-.231.188h-.587a.24.24 0 0 1-.246-.246v-.033l.001-.01a3.061 3.061 0 0 1 3.012-2.503h.012c.396 0 .852.125 1.268.32.323.153.628.35.869.57l-.035-.728zM5.04 19.38a.146.146 0 0 1-.144.144h-.563a.138.138 0 0 1-.143-.144v-2.395c0-.072.06-.144.143-.144H6.73c.072 0 .144.072.144.143v.575a.155.155 0 0 1-.144.144h-.012l-1.222-.06c.025.036.051.072.08.107.376.464 1.09.816 1.67.816.922 0 1.832-.719 2.048-1.605a.207.207 0 0 1 .144-.12h.587c.083 0 .143.072.143.143v.036a2.97 2.97 0 0 1-2.923 2.408c-.703 0-1.623-.405-2.143-.925a1.964 1.964 0 0 1-.109-.117l.048.994zm.068-.729.035.73a.248.248 0 0 1-.246.246h-.563a.24.24 0 0 1-.246-.246v-2.396c0-.123.1-.246.246-.246H6.73c.069 0 .13.034.17.075a.243.243 0 0 1 .076.17v.576c0 .069-.034.13-.075.171a.247.247 0 0 1-.171.075h-.017l-.997-.05c.158.174.367.33.599.452.305.16.639.256.93.256.875 0 1.744-.687 1.949-1.527l.002-.007.002-.007a.309.309 0 0 1 .219-.182l.01-.002h.597c.146 0 .246.123.246.246v.046l-.002.009a3.073 3.073 0 0 1-3.023 2.49c-.396 0-.852-.121-1.268-.314a3.478 3.478 0 0 1-.87-.565z" clip-rule="evenodd"/><path fill="#3596B9" fill-rule="evenodd" d="M7.156 22.54a5.93 5.93 0 1 0 0-11.86 5.93 5.93 0 0 0 0 11.86zm0 1.227a7.155 7.155 0 0 0 0-14.311 7.155 7.155 0 1 0 0 14.31z" clip-rule="evenodd"/><path fill="#3596B9" fill-rule="evenodd" d="M22.68 4.552c.2.36.28.799.28 1.198 0 2.436.04 10.861.04 10.861 0 .719-.599 1.278-1.278 1.278h-8.776c.09-.412.138-.84.138-1.278h8.638s-.04-7.227-.04-10.222h-5.07v2.555c0 .72-.6 1.278-1.279 1.278h-2.555A1.261 1.261 0 0 1 11.5 8.944V6.39H6.389v4.342a5.97 5.97 0 0 0-1.278.313V5.79c0-.44.08-.839.28-1.238L7.347.878C7.547.36 8.026 0 8.585 0h10.901c.56 0 1.038.36 1.238.878l1.957 3.674zm-1.157.56-2.037-3.834h-3.434l.48 3.833h4.99zm-6.19 1.277h-2.555v2.555h2.555V6.39zm-.12-1.278-.479-3.833h-1.397l-.48 3.833h2.357zM12.02 1.278H8.585L6.55 5.11h4.99l.48-3.833z" clip-rule="evenodd"/></svg>