<svg xmlns="http://www.w3.org/2000/svg" width="20" height="21" fill="none"><path fill="#FFB632" d="M1.25 4.375c0-1.719 1.367-3.086 3.125-3.125.586.04 1.445.352 1.953.703.352-.117.938-.312 1.328-.39C6.836.625 5.664 0 4.375 0 1.953.04 0 1.992 0 4.375 0 5.391.352 6.328.938 7.07a9.77 9.77 0 0 1 .664-1.25c-.196-.351-.352-1.015-.352-1.445zM15.625 0c-1.328 0-2.5.625-3.32 1.563.39.078.976.273 1.367.43.469-.391 1.328-.704 1.953-.704 1.719 0 3.086 1.367 3.125 3.125-.04.39-.195 1.055-.39 1.406.234.352.507.899.703 1.25.546-.742.937-1.68.937-2.695C19.96 1.992 18.008.039 15.625 0zM10 2.5c-4.844 0-8.75 3.945-8.75 8.75v.04c0 1.796.938 4.335 2.11 5.702l-2.032 2.031c-.039.079-.117.157-.117.235 0 .078.078.195.117.234l.43.43a.418.418 0 0 0 .234.078c.078 0 .156-.04.196-.078l2.07-2.031C5.625 19.063 8.164 20 10 20c1.797 0 4.336-.938 5.703-2.11l2.07 2.032c.04.039.118.117.196.117.078 0 .195-.078.234-.117l.43-.43a.418.418 0 0 0 .078-.234.303.303 0 0 0-.078-.195l-2.031-2.07c1.171-1.368 2.148-3.907 2.148-5.704v-.039c0-4.805-3.945-8.75-8.75-8.75zm0 16.25c-4.14 0-7.5-3.36-7.5-7.5 0-4.102 3.36-7.5 7.5-7.5 4.102 0 7.5 3.398 7.5 7.5 0 4.14-3.398 7.5-7.5 7.5zm.547-7.148v-5.04c0-.156-.156-.312-.313-.312H9.61a.308.308 0 0 0-.312.313v5.312c0 .195.117.39.234.508l2.89 2.305c.04.039.118.078.196.078.078 0 .195-.079.235-.118l.39-.507a.298.298 0 0 0 .078-.196c0-.078-.078-.195-.117-.234l-2.656-2.11z"/></svg>