<svg xmlns="http://www.w3.org/2000/svg" width="18" height="18" fill="none"><path fill="#39F" d="M17.96 5.786c0-.402-.08-.844-.281-1.206L15.709.884C15.51.362 15.028 0 14.465 0H3.496C2.933 0 2.45.362 2.25.884L.281 4.58C.081 4.982 0 5.384 0 5.826v10.888A1.27 1.27 0 0 0 1.286 18h15.428c.683 0 1.286-.563 1.286-1.286 0 0-.04-8.477-.04-10.928zm-3.496-4.5 2.05 3.857H11.49l-.482-3.857h3.455zm-6.75 5.143h2.572V9H7.714V6.429zm1.969-5.143.482 3.857h-2.37l.482-3.857h1.406zm-6.187 0H6.95l-.482 3.857H1.446l2.05-3.857zm-2.21 15.428V6.43h5.143V9a1.27 1.27 0 0 0 1.285 1.286h2.572c.683 0 1.285-.563 1.285-1.286V6.429h5.103c0 3.013.04 10.285.04 10.285H1.286z"/></svg>