<svg xmlns="http://www.w3.org/2000/svg" width="392" height="100"><defs><linearGradient id="U" x1="99.588%" x2="-26.091%" y1="27.594%" y2="66.146%"><stop offset="55.11%" stop-color="#F5E0CD"/><stop offset="100%" stop-color="#ECC19C"/></linearGradient><linearGradient id="a" x1="4.374%" x2="89.638%" y1="-8.19%" y2="100.576%"><stop offset="0%" stop-color="#FBEDED" stop-opacity="0"/><stop offset="100%" stop-color="#FBEDED"/></linearGradient><linearGradient id="c" x1="19.606%" x2="85.189%" y1="40.19%" y2="65.758%"><stop offset="0%" stop-color="#F5E0CD"/><stop offset="41.48%" stop-color="#DFB28B"/></linearGradient><linearGradient id="d" x1="49.758%" x2="50.377%" y1="-9.785%" y2="123.254%"><stop offset="16.09%" stop-color="#FEA"/><stop offset="72.45%" stop-color="#FECD73"/></linearGradient><linearGradient id="e" x1="38.333%" x2="69.138%" y1="-3.198%" y2="124.43%"><stop offset="28.38%" stop-color="#FEA"/><stop offset="72.45%" stop-color="#FECD73"/></linearGradient><linearGradient id="f" x1="105.074%" x2="19.234%" y1="69.073%" y2="39.475%"><stop offset="43.66%" stop-color="#7D7189"/><stop offset="49.86%" stop-color="#453F4F"/></linearGradient><linearGradient id="g" x1="7.532%" x2="90.627%" y1="49.942%" y2="50.095%"><stop offset="14.55%" stop-color="#453F4F"/><stop offset="75.92%" stop-color="#7D7189"/></linearGradient><linearGradient id="h" x1="79.548%" x2="28.578%" y1="60.912%" y2="42.359%"><stop offset="14.55%" stop-color="#453F4F"/><stop offset="75.92%" stop-color="#7D7189"/></linearGradient><linearGradient id="i" x1="38.34%" x2="64.165%" y1="14.324%" y2="101.77%"><stop offset="49.73%" stop-color="#F5E0CD"/><stop offset="100%" stop-color="#ECC19C"/></linearGradient><linearGradient id="j" x1="-.313%" x2="99.975%" y1="49.861%" y2="49.861%"><stop offset="18.37%" stop-color="#FFF"/><stop offset="98.92%" stop-color="#FFFCDB"/></linearGradient><linearGradient id="k" x1="5.56%" x2="79.076%" y1="69.785%" y2="38.74%"><stop offset="35.2%" stop-color="#DB9F5A"/><stop offset="74.01%" stop-color="#FECD73"/></linearGradient><linearGradient id="l" x1="81.462%" x2="22.882%" y1="18.557%" y2="104.307%"><stop offset="18.37%" stop-color="#FEA"/><stop offset="76.74%" stop-color="#FECD73"/></linearGradient><linearGradient id="m" x1="71.176%" x2="31.312%" y1="-29.427%" y2="127.627%"><stop offset="39.83%" stop-color="#DB9F5A"/><stop offset="63.54%" stop-color="#FECD73"/></linearGradient><linearGradient id="n" x1="87.419%" x2="26.93%" y1="68.511%" y2="41.062%"><stop offset="24.05%" stop-color="#F5E0CD"/><stop offset="77.46%" stop-color="#DFB28B"/></linearGradient><linearGradient id="o" x1="66.222%" x2="38.435%" y1="-1.916%" y2="98.303%"><stop offset="25.1%" stop-color="#FEA"/><stop offset="87.47%" stop-color="#FECD73"/></linearGradient><linearGradient id="p" x1="34.063%" x2="56.268%" y1="119.355%" y2="37.011%"><stop offset="0%" stop-color="#F5E0CD"/><stop offset="62.65%" stop-color="#DFB28B"/></linearGradient><linearGradient id="q" x1="44.088%" x2="72.524%" y1="81.167%" y2="3.388%"><stop offset="35.2%" stop-color="#DB9F5A"/><stop offset="100%" stop-color="#FECD73"/></linearGradient><linearGradient id="r" x1="33.614%" x2="71.05%" y1="88.612%" y2="7.578%"><stop offset="0%"/><stop offset="100%" stop-color="#58595B"/></linearGradient><linearGradient id="s" x1="32.038%" x2="79.458%" y1="76.418%" y2="8.639%"><stop offset="0%"/><stop offset="100%" stop-color="#58595B"/></linearGradient><linearGradient id="t" x1="44.329%" x2="76.318%" y1="30.509%" y2="179.436%"><stop offset="15.66%" stop-color="#F5E0CD"/><stop offset="100%" stop-color="#ECC19C"/></linearGradient><linearGradient id="u" x1="78.591%" x2="32.628%" y1="94.5%" y2="27.896%"><stop offset="0%" stop-color="#F5E0CD"/><stop offset="100%" stop-color="#DFB28B"/></linearGradient><linearGradient id="v" x1="15.689%" x2="67.523%" y1="-3.173%" y2="68.919%"><stop offset="41.93%" stop-color="#F5E0CD"/><stop offset="100%" stop-color="#ECC19C"/></linearGradient><linearGradient id="w" x1="-.614%" x2="99.639%" y1="49.058%" y2="49.058%"><stop offset="18.37%" stop-color="#FFF"/><stop offset="98.92%" stop-color="#FFFCDB"/></linearGradient><linearGradient id="x" x1="15.252%" x2="105.09%" y1="38.613%" y2="65.703%"><stop offset="0%" stop-color="#F5E0CD"/><stop offset="74.46%" stop-color="#DFB28B"/></linearGradient><linearGradient id="y" x1="205.658%" x2="-33.77%" y1="196.343%" y2="-38.107%"><stop offset="0%" stop-color="#F5E0CD"/><stop offset="74.46%" stop-color="#DFB28B"/></linearGradient><linearGradient id="z" x1="4.34%" x2="84.92%" y1="-22.584%" y2="105.424%"><stop offset="0%" stop-color="#FBEDED" stop-opacity="0"/><stop offset="100%" stop-color="#FBEDED"/></linearGradient><linearGradient id="A" x1="32.092%" x2="51.18%" y1="-12.213%" y2="58.453%"><stop offset="30.38%" stop-color="#F5E0CD"/><stop offset="79.23%" stop-color="#ECC39E"/></linearGradient><linearGradient id="B" x1="31.635%" x2="63.386%" y1="8.331%" y2="94.214%"><stop offset="32.05%" stop-color="#D85E63"/><stop offset="57.18%" stop-color="#CC363B"/></linearGradient><linearGradient id="C" x1="81.847%" x2="21.955%" y1="23.732%" y2="77.133%"><stop offset="18.37%" stop-color="#FEA"/><stop offset="72.45%" stop-color="#FECD73"/></linearGradient><linearGradient id="D" x1="43.307%" x2="51.887%" y1="137.947%" y2="13.905%"><stop offset="20.42%" stop-color="#FEA"/><stop offset="48.81%" stop-color="#FECD73"/></linearGradient><linearGradient id="E" x1="-2.596%" x2="116.819%" y1="69.354%" y2="25.418%"><stop offset="40.44%" stop-color="#F5E0CD"/><stop offset="74.83%" stop-color="#DFB28B"/></linearGradient><linearGradient id="F" x1="84.655%" x2="38.911%" y1="100.709%" y2="22.75%"><stop offset="0%" stop-color="#F5E0CD"/><stop offset="63.32%" stop-color="#DFB28B"/></linearGradient><linearGradient id="G" x1="221.151%" x2="-36.276%" y1="88.601%" y2="29.106%"><stop offset="20.42%" stop-color="#FEA"/><stop offset="48.81%" stop-color="#FECD73"/></linearGradient><linearGradient id="H" x1="24.89%" x2="75.748%" y1="6.806%" y2="116.521%"><stop offset="28.8%" stop-color="#CC363B"/><stop offset="81%" stop-color="#A7282D"/></linearGradient><linearGradient id="I" x1="38.815%" x2="60.075%" y1="45.645%" y2="56.656%"><stop offset="33.9%"/><stop offset="100%" stop-color="#58595B"/></linearGradient><linearGradient id="J" x1="38.379%" x2="67.108%" y1="74.74%" y2="10.245%"><stop offset="20.16%"/><stop offset="100%" stop-color="#58595B"/></linearGradient><linearGradient id="K" x1="90.224%" x2="-.062%" y1="9.972%" y2="113.373%"><stop offset="20.42%" stop-color="#FEA"/><stop offset="55.16%" stop-color="#FECD73"/></linearGradient><linearGradient id="L" x1="104.488%" x2="-.944%" y1="63.303%" y2="36.094%"><stop offset="46.51%" stop-color="#F5E0CD"/><stop offset="78.54%" stop-color="#DFB28B"/></linearGradient><linearGradient id="M" x1="66.534%" x2="16.832%" y1="3.018%" y2="155.577%"><stop offset="9.549%" stop-color="#DB9F5A"/><stop offset="84.75%" stop-color="#FECD73"/></linearGradient><linearGradient id="N" x1="47.809%" x2="51.506%" y1="176.21%" y2="-38.155%"><stop offset="0%" stop-color="#F5E0CD"/><stop offset="70.72%" stop-color="#DFB28B"/></linearGradient><linearGradient id="O" x1="-37.064%" x2="144.879%" y1="71.353%" y2="38.241%"><stop offset="50.99%" stop-color="#F5E0CD"/><stop offset="100%" stop-color="#ECC19C"/></linearGradient><linearGradient id="P" x1="48.622%" x2="51.15%" y1="95.69%" y2="18.761%"><stop offset="0%" stop-color="#F5E0CD"/><stop offset="70.72%" stop-color="#DFB28B"/></linearGradient><linearGradient id="Q" x1="48.673%" x2="50.629%" y1="79.319%" y2="30.045%"><stop offset="0%" stop-color="#F5E0CD"/><stop offset="70.72%" stop-color="#DFB28B"/></linearGradient><linearGradient id="R" x1="213.881%" x2="-30.011%" y1="96.141%" y2="28.275%"><stop offset="20.42%" stop-color="#FEA"/><stop offset="71.96%" stop-color="#FECD73"/></linearGradient><linearGradient id="S" x1="75.35%" x2="40.616%" y1="105.529%" y2="29.502%"><stop offset="0%" stop-color="#F5E0CD"/><stop offset="63.32%" stop-color="#DFB28B"/></linearGradient><linearGradient id="T" x1="-.591%" x2="100.136%" y1="49.728%" y2="49.728%"><stop offset="28.4%" stop-color="#885C3C"/><stop offset="94.83%" stop-color="#604026"/></linearGradient><linearGradient id="b" x1="22.02%" x2="97.885%" y1="34.649%" y2="73.069%"><stop offset="0%" stop-color="#F5E0CD"/><stop offset="62.65%" stop-color="#DFB28B"/></linearGradient><linearGradient id="V" x1="49.394%" x2="49.999%" y1="61.118%" y2="44.087%"><stop offset="0%" stop-color="#F5E0CD"/><stop offset="63.46%" stop-color="#DFB28B"/></linearGradient><linearGradient id="W" x1=".336%" x2="99.338%" y1="49.754%" y2="49.754%"><stop offset="28.4%" stop-color="#885C3C"/><stop offset="94.83%" stop-color="#604026"/></linearGradient><linearGradient id="X" x1="-4.574%" x2="111.173%" y1="34.201%" y2="62.719%"><stop offset="25.99%" stop-color="#FCEEEE"/><stop offset="80.98%" stop-color="#EFC3C6"/></linearGradient><linearGradient id="Y" x1=".016%" x2="99.991%" y1="49.854%" y2="49.854%"><stop offset="28.8%" stop-color="#CC363B"/><stop offset="81%" stop-color="#A7282D"/></linearGradient><linearGradient id="Z" x1="43.299%" x2="50.137%" y1="87.711%" y2="44.958%"><stop offset="0%" stop-color="#81D4F7"/><stop offset="72.33%" stop-color="#3DA7DE"/></linearGradient><linearGradient id="aa" x1="-2.59%" x2="102.173%" y1="129.42%" y2="-13.495%"><stop offset="38.36%" stop-color="#ECF8FE"/><stop offset="100%" stop-color="#A5DFF9"/></linearGradient><linearGradient id="ab" x1="51.964%" x2="47.659%" y1="141.173%" y2="-51.427%"><stop offset="38.36%" stop-color="#ECF8FE"/><stop offset="89.2%" stop-color="#A5DFF9"/></linearGradient><linearGradient id="ac" x1="73.01%" x2="13.105%" y1="11.878%" y2="113.506%"><stop offset="32.05%" stop-color="#D85E63"/><stop offset="57.18%" stop-color="#CC363B"/></linearGradient><linearGradient id="ad" x1="53.779%" x2="47.34%" y1="16.082%" y2="66.803%"><stop offset="28.8%" stop-color="#CC363B"/><stop offset="81%" stop-color="#A7282D"/></linearGradient><linearGradient id="ae" x1="37.519%" x2="69.095%" y1="10.204%" y2="109.823%"><stop offset="71.23%" stop-color="#926B44"/><stop offset="97.76%" stop-color="#C49A6C"/></linearGradient><linearGradient id="af" x1="56.747%" x2="35.485%" y1="-72.707%" y2="196.607%"><stop offset="0%" stop-color="#FEA"/><stop offset="72.45%" stop-color="#FECD73"/></linearGradient><linearGradient id="ag" x1=".168%" x2="100.946%" y1="49.644%" y2="49.644%"><stop offset="18.37%" stop-color="#FFF"/><stop offset="98.92%" stop-color="#FFFCDB"/></linearGradient><linearGradient id="ah" x1="67.924%" x2="22.817%" y1="36.906%" y2="74.941%"><stop offset="47.37%" stop-color="#FEA"/><stop offset="100%" stop-color="#FECD73"/></linearGradient><linearGradient id="ai" x1="78.49%" x2="21.648%" y1="11.207%" y2="86.518%"><stop offset="38.38%" stop-color="#FEA"/><stop offset="77.9%" stop-color="#FECD73"/></linearGradient><linearGradient id="aj" x1="82.841%" x2="34.264%" y1="64.346%" y2="42.829%"><stop offset="20.42%" stop-color="#FEA"/><stop offset="71.96%" stop-color="#FECD73"/></linearGradient><linearGradient id="ak" x1="12.989%" x2="158.661%" y1="81.094%" y2="-41.348%"><stop offset="0%" stop-color="#FBEDED" stop-opacity="0"/><stop offset="3.334%" stop-color="#FBEDED" stop-opacity=".033"/><stop offset="100%" stop-color="#FBEDED"/></linearGradient><linearGradient id="al" x1="49.691%" x2="73.174%" y1="53.912%" y2="22.187%"><stop offset="0%"/><stop offset="100%" stop-color="#58595B"/></linearGradient><linearGradient id="am" x1="69.563%" x2="16.085%" y1="-16.8%" y2="188.807%"><stop offset="20.23%" stop-color="#FEA"/><stop offset="54.35%" stop-color="#FECD73"/></linearGradient><linearGradient id="an" x1="-2.219%" x2="90.37%" y1="94.151%" y2="6.069%"><stop offset="0%" stop-color="#DB9F5A"/><stop offset="63.12%" stop-color="#FECD73"/></linearGradient><linearGradient id="ao" x1="46.085%" x2="64.389%" y1="84.025%" y2="9.593%"><stop offset="0%"/><stop offset="100%" stop-color="#58595B"/></linearGradient><linearGradient id="ap" x1="88.116%" x2="-2.062%" y1=".482%" y2="135.938%"><stop offset="31.08%" stop-color="#FEA"/><stop offset="72.45%" stop-color="#FECD73"/></linearGradient><linearGradient id="aq" x1="54.09%" x2="42.688%" y1="19.577%" y2="92.81%"><stop offset="4.693%" stop-color="#FEA"/><stop offset="72.45%" stop-color="#FECD73"/></linearGradient><linearGradient id="ar" x1="130.208%" x2="-81.987%" y1="38.821%" y2="64.327%"><stop offset="32.59%" stop-color="#F5E0CD"/><stop offset="100%" stop-color="#DFB28B"/></linearGradient><linearGradient id="as" x1="29.14%" x2="77.022%" y1="12.82%" y2="89.837%"><stop offset="18.37%" stop-color="#FEA"/><stop offset="65.96%" stop-color="#FECD73"/></linearGradient><linearGradient id="at" x1="59.236%" x2="39.43%" y1="128.687%" y2="26.867%"><stop offset="0%" stop-color="#F5E0CD"/><stop offset="68.12%" stop-color="#DFB28B"/></linearGradient><linearGradient id="au" x1="40.994%" x2="65.27%" y1="3.634%" y2="158.11%"><stop offset="37.41%" stop-color="#F5E0CD"/><stop offset="81.14%" stop-color="#ECC19C"/></linearGradient><linearGradient id="av" x1="88.441%" x2="33.743%" y1="107.764%" y2="28.312%"><stop offset="32.59%" stop-color="#F5E0CD"/><stop offset="65.08%" stop-color="#DFB28B"/></linearGradient><linearGradient id="aw" x1="100.762%" x2="15.696%" y1="-27.572%" y2="107.336%"><stop offset="16.68%" stop-color="#F5E0CD"/><stop offset="61.3%" stop-color="#DFB28B"/></linearGradient><linearGradient id="ax" x1="45.594%" x2="57.667%" y1="30.705%" y2="71.424%"><stop offset="0%" stop-color="#F5E0CD"/><stop offset="90.32%" stop-color="#DFB28B"/></linearGradient><linearGradient id="ay" x1="65.948%" x2="37.81%" y1="86.906%" y2="15.67%"><stop offset="0%" stop-color="#DB9F5A"/><stop offset="100%" stop-color="#FECD73"/></linearGradient><linearGradient id="az" x1="53.186%" x2="47.205%" y1="-7.319%" y2="155.25%"><stop offset="0%" stop-color="#F5E0CD"/><stop offset="100%" stop-color="#BF9A78"/></linearGradient><linearGradient id="aA" x1="51.149%" x2="47.699%" y1="-14.302%" y2="147.97%"><stop offset="18.37%" stop-color="#FEA"/><stop offset="95.55%" stop-color="#FECD73"/></linearGradient><linearGradient id="aB" x1="51.545%" x2="26.844%" y1="34.741%" y2="173.777%"><stop offset="16.77%" stop-color="#F5E0CD"/><stop offset="100%" stop-color="#ECC19C"/></linearGradient><linearGradient id="aC" x1="-.165%" x2="99.609%" y1="50.276%" y2="50.276%"><stop offset="18.37%" stop-color="#FFF"/><stop offset="98.92%" stop-color="#FFFCDB"/></linearGradient><linearGradient id="aD" x1=".77%" x2="76.276%" y1="8.91%" y2="77.699%"><stop offset="57.42%" stop-color="#F5E0CD"/><stop offset="100%" stop-color="#ECC19C"/></linearGradient><linearGradient id="aE" x1="-19.961%" x2="102.621%" y1="17.616%" y2="78.441%"><stop offset="36.55%" stop-color="#FEA"/><stop offset="92.94%" stop-color="#FECD73"/></linearGradient><linearGradient id="aF" x1="-.114%" x2="99.821%" y1="49.105%" y2="49.105%"><stop offset="18.37%" stop-color="#FFF"/><stop offset="98.92%" stop-color="#FFFCDB"/></linearGradient><linearGradient id="aG" x1="76.85%" x2="23.135%" y1="28.81%" y2="81.247%"><stop offset="30.38%" stop-color="#F5E0CD"/><stop offset="79.23%" stop-color="#ECC39E"/></linearGradient><linearGradient id="aH" x1="-.514%" x2="100.265%" y1="50.044%" y2="50.044%"><stop offset="18.37%" stop-color="#FFF"/><stop offset="98.92%" stop-color="#FFFCDB"/></linearGradient><linearGradient id="aI" x1="-.134%" x2="99.984%" y1="50.185%" y2="50.185%"><stop offset="32.05%" stop-color="#D85E63"/><stop offset="57.18%" stop-color="#CC363B"/></linearGradient><linearGradient id="aJ" x1="-81.615%" x2="114.562%" y1="-9.346%" y2="85.727%"><stop offset="71.23%" stop-color="#A97C50"/><stop offset="97.76%" stop-color="#C49A6C"/></linearGradient><linearGradient id="aK" x1="-81.59%" x2="114.587%" y1="-9.363%" y2="85.709%"><stop offset="43.47%" stop-color="#F5E0CD"/><stop offset="100%" stop-color="#ECC19C"/></linearGradient><linearGradient id="aL" x1="19.58%" x2="87.233%" y1="-23.8%" y2="134.88%"><stop offset="71.23%" stop-color="#A97C50"/><stop offset="97.76%" stop-color="#C49A6C"/></linearGradient><linearGradient id="aM" x1="26.394%" x2="76.75%" y1="10.579%" y2="91.244%"><stop offset="43.47%" stop-color="#F5E0CD"/><stop offset="100%" stop-color="#ECC19C"/></linearGradient><linearGradient id="aN" x1="33.975%" x2="73.844%" y1="36.469%" y2="72.422%"><stop offset="28.8%" stop-color="#CC363B"/><stop offset="81%" stop-color="#A7282D"/></linearGradient></defs><g fill="none" fill-rule="evenodd"><g fill-rule="nonzero"><circle cx="43.968" cy="44.674" r="43.35" fill="url(#a)"/><g fill="#CC353B" transform="translate(58.27)"><path d="M22.867 4.856H10.683L9.712 2.03a1.135 1.135 0 0 0-.883-.883L2.03.53C1.5.44.97.97.883 1.59c-.088.617.353 1.147.971 1.235l4.856.442L9.447 14.92h10.948l3.531-10.065h-1.06z"/><circle cx="11.301" cy="18.717" r="1.589"/><circle cx="18.894" cy="18.717" r="1.589"/></g><path fill="url(#b)" d="M62.332 24.897s-9.889-1.324-14.038 12.008a18.699 18.699 0 0 0-.795 3.354l3.796 2.56s9.977-3.619 14.038-11.477l-3.001-6.445z" transform="translate(15.009 7.063)"/><path fill="url(#c)" d="M55.004 30.46s-2.826 1.765-4.062 3.354l1.148.795s1.766-.795 1.854-.883c.088-.088 2.296-1.236 2.296-1.236l.441-1.06-1.677-.97z" transform="translate(15.009 7.063)"/><path fill="url(#d)" d="m47.323 38.405-6.181 5.739 5.563 8.829 4.679-9.359-1.236-3.355z" transform="translate(15.009 7.063)"/><path fill="url(#e)" d="M63.656 46.351s-4.415 5.474-12.625 10.86c-2.208 1.412-4.503 4.061-5.827 6.268-2.12 3.708-.972 9.359 3.708 10.418 5.738 1.325 10.153-5.209 12.448-9.358l8.653-15.274-6.357-2.914z" transform="translate(15.009 7.063)"/><g transform="translate(67.982 24.721)"><path fill="url(#f)" d="m7.77.353 8.475 2.12a1.764 1.764 0 0 1 1.236 2.03l-4.414 17.834a1.766 1.766 0 0 1-2.031 1.236L2.56 21.454a1.766 1.766 0 0 1-1.236-2.03L5.74 1.588C6.004.706 6.886.09 7.769.353z"/><path fill="url(#g)" d="m16.422 4.238-4.415 17.834a1.765 1.765 0 0 1-2.03 1.236h-.089l-7.593-1.854-.882-.265C.53 20.924-.088 20.041.177 19.16l1.059-4.415 3.355-13.42c.177-.883 1.148-1.5 2.03-1.236L7.77.353l7.417 1.854c.97.177 1.5 1.148 1.236 2.03z"/><path fill="url(#h)" d="m6.71.53 7.946 1.942c.883.177 1.324 1.06 1.148 1.942l-4.238 17.128c-.177.883-1.06 1.413-1.943 1.148l-7.946-1.942C.795 20.57.353 19.688.53 18.805l4.238-17.04C5.032.884 5.915.354 6.71.53z"/><path fill="#FFF" d="M1.525 17.526 5.457 1.673l9.769 2.423-3.932 15.852z"/><circle cx="9.182" cy="7.858" r="3.178" fill="#89C97F"/><path fill="#BCBEC0" d="M5.827 19.512c-.353-.089-.618.088-.706.441v.088c-.089.354.088.707.441.795h.353c.177-.088.353-.265.442-.441.088-.442-.177-.795-.53-.883z"/><path fill="#FFF" d="M7.858 9.005 7.15 7.416c-.088-.176 0-.353.177-.441.177-.089.353 0 .441.176l.442.972 2.56-1.237c.177-.088.353 0 .442.177.088.177 0 .353-.177.442l-3.178 1.5z"/></g><path fill="url(#i)" d="M64.097 45.822s-2.737-9.8 3.267-11.831c.177-.971.441-1.942.795-2.914.618-1.942 1.589-4.767 3.708-5.473.53-.177 1.324 0 1.324.706 0 .883-.53 1.766-.971 2.472 0 0-1.413 2.56-1.148 4.944 0-.176.971-.088.971 0 1.148.265 2.12 1.236 2.914 2.03 1.677 1.767 1.589 4.68-.883 5.74 0 0-.177 4.855-5.386 7.327l-4.59-3.001z" transform="translate(15.009 7.063)"/><path fill="url(#j)" d="M61.625 48.559s3.797-.442 7.152 3.09c0 0 2.295-1.59 2.648-4.856 0 0-3.002-3.532-7.68-2.472 0 0-1.413 1.942-2.12 4.238z" transform="translate(15.009 7.063)"/><path fill="url(#k)" d="m51.03 57.21-.794.53v5.828l2.384 3.973c1.766-3.532.441-11.743.441-11.743-.618.442-1.324.971-2.03 1.413z" transform="translate(15.009 7.063)"/><path fill="url(#l)" d="M29.4 33.814s11.213 4.062 12.449 5.298l2.825 25.338s-2.03 12.45-.618 19.954c0 0-8.034-.972-19.247 2.383-12.272 3.708-17.04-2.383-17.04-2.383l2.384-25.25 9.977-17.659 9.27-7.68z" transform="translate(15.009 7.063)"/><path fill="url(#m)" d="m44.497 63.214-5.032 2.56 4.061 10.066c.177-5.827 1.06-11.301 1.06-11.301l-.089-1.325z" transform="translate(15.009 7.063)"/><path fill="url(#n)" d="M33.638 23.838s-.795 8.564.618 16.333l-13.332-1.324-.794-15.01 6.268-6.268 7.24 6.269z" transform="translate(15.009 7.063)"/><path fill="url(#o)" d="M52.532 56.416c-1.06-2.384-1.943-4.856-3.002-7.151-1.413-2.914-3.09-5.827-5.298-8.21-.706-.707-1.412-1.502-2.295-2.032-.265-.176-.971-.353-.971-.353-11.301.177-10.153 17.923-10.153 17.923l2.913 4.061c2.56 1.501 7.593 6.71 9.888 9.182.53.53.883.971 1.148 1.236 1.324 1.324 3.708 3.267 5.739 2.914 4.061-7.152 2.03-17.57 2.03-17.57z" transform="translate(15.009 7.063)"/><path fill="url(#p)" d="m33.638 23.926-7.77-2.737-.794 2.56c2.207 3.532 6.268 5.828 8.387 6.799 0-3.708.177-6.357.177-6.622z" transform="translate(15.009 7.063)"/><path fill="url(#q)" d="M8.123 81.49c21.1 5.297 29.576-8.122 29.576-8.122 5.12-8.211-1.677-16.334-1.677-16.334-4.591-5.739-2.296-9.535-2.296-9.535 4.15-4.767 1.324-11.654 1.324-11.654l-9.093.795-5.827 4.855-9.977 17.658-2.03 22.337z" transform="translate(15.009 7.063)"/><path fill="url(#r)" d="M36.463 1.06s8.21 1.412 1.413 8.828l-5.827 12.626-4.856.706s.265 3.178 3.266 6.092c3.09 2.913 5.74 7.24 4.945 11.654-.265 1.324-.618 2.648-1.236 3.884-.795 1.325-2.208 2.65-2.473 4.238-.176.971.265 2.384.795 3.267s1.413 1.766 2.296 2.384c2.472 2.03 4.237 5.209 4.679 8.387.176 1.501-.088 3.267-.353 4.768-.353 1.412-.971 2.648-1.766 3.796-1.59 2.207-3.62 4.326-5.915 5.827a20.433 20.433 0 0 1-4.15 2.119c-2.825 1.148-5.827 1.678-8.917 1.854-1.942.088-3.796.088-5.65-.353-1.943-.353-4.238-1.148-5.474-2.737-1.148-1.413-1.236-3.267-1.148-5.032.088-1.59.265-3.179.53-4.68.176-1.06.53-2.648-.354-3.531-1.942-1.766-3.884-3.62-4.944-6.004-1.06-2.472-.883-5.209-.088-7.858.883-3.001 2.03-5.915 3.62-8.652 1.412-2.384 3.355-4.59 4.414-7.151 1.325-3.002.883-6.357-.618-9.27-3.09-6.18-2.648-13.067 2.207-18.188 3.179-3.266 7.064-5.739 11.566-6.71 4.503-.883 9.27-1.06 14.038-.265z" transform="translate(15.009 7.063)"/><path fill="url(#s)" d="M28.87 27.458c-1.5-2.208-1.677-4.238-1.677-4.238l1.324-.177-.883-1.854h-3.443c-.265 6.622 4.68 6.269 4.68 6.269z" transform="translate(15.009 7.063)"/><path fill="url(#t)" d="M40.877 19.07c-.264-.265-.53-.441-.794-.706a6.134 6.134 0 0 1-.706-.883c-.354-.618-.707-1.5-.618-2.295.264-2.914-.53-5.563-.53-5.563-.971 1.236-4.415 3.532-4.415 3.532-2.648 1.766-3.266 1.942-3.266 1.942-.618 2.649-1.766 5.916-1.766 5.916-.353-1.06-1.06-3.797-2.472-3.973-1.236-.177-1.854 1.677-2.119 2.56-.441 1.677-.353 3.532.618 5.032.441.707 1.59 1.854 2.472 2.12 2.03.53 2.03-1.148 2.03-1.148.089.176.177.353.266.441 0 0 1.147 2.825 7.592 3.443.618.089 1.148.089 1.678-.176 1.06-.618 1.148-2.914 1.324-3.973.088-.883.177-1.854.177-2.825.265-.53.618-1.148.706-1.766.088-.53.177-1.236-.177-1.678z" transform="translate(15.009 7.063)"/><path fill="url(#u)" d="M38.494 11.213c-.177-.972-.353-1.59-.353-1.59-.972 1.236-4.415 3.532-4.415 3.532-2.649 1.766-3.267 1.942-3.267 1.942-.088.265-.088.53-.176.795 1.942-.442 5.739-1.678 8.21-4.68z" transform="translate(15.009 7.063)"/><path fill="#F1F2F2" d="M77.076 39.023c0 .442-.353.883-.618 1.236-.883.972-2.208 1.59-3.444 1.766h-.353c-.088 0-.265.618-.265.618-.176.353-.353.706-.53.971a13.944 13.944 0 0 1-1.147 1.943c-.088.176-.265.353-.353.53l-.971-.177c-.883-.265-1.501-1.148-1.236-2.03l1.059-4.415c0-.088.353-.177.441-.265l.53-.265c.353-.177.706-.265.971-.353.707-.265 1.413-.353 2.12-.442a10.788 10.788 0 0 1 2.383 0c.353 0 .706.089.971.265.353.089.442.353.442.618z"/><path fill="url(#v)" d="M61.978 30.9c0-.97-1.236-.97-1.854-.97-.706 0-1.412 0-2.03.088-1.678.177-3.267.971-4.68 1.854-4.59 2.737-4.855 7.063-4.855 7.063l2.648 2.56c4.15-.882 6.357-7.416 6.357-7.416l.53-.088c.441-.088.883-.265 1.324-.441a5.014 5.014 0 0 0 1.59-1.06c.352-.353.882-.971.97-1.59z" transform="translate(15.009 7.063)"/><path fill="url(#w)" d="M48.294 36.993s-1.766 1.236-2.472 2.913c0 0 4.59 2.12 5.297 4.503 0 0 1.148-.706 2.207-2.384 0-.088-.265-4.15-5.032-5.032" transform="translate(15.009 7.063)"/><path fill="url(#x)" d="M65.422 36.64c1.324-1.148 1.942-2.649 1.942-2.649l-.53.265c-.618 1.148-1.412 2.384-1.412 2.384z" transform="translate(15.009 7.063)"/><path fill="url(#y)" d="M74.604 40.171c-.177.971-.618 1.236-.618 1.236.176-.088.353-.176.441-.265.265-.706.177-.97.177-.97z" transform="translate(15.009 7.063)"/></g><circle cx="320.398" cy="44.674" r="43.35" fill="url(#z)" fill-rule="nonzero"/><g fill-rule="nonzero" transform="translate(306.36 12.36)"><circle cx="10.33" cy="11.654" r="10.065" fill="#F1F2F2"/><circle cx="10.771" cy="10.683" r="10.065" fill="#94CC7E"/><path fill="#FFF" d="M9.27 14.744a.8.8 0 0 1-.618-.265l-3.09-3.09c-.353-.353-.353-.883 0-1.236s.883-.353 1.236 0l2.472 2.472 5.65-5.65a.855.855 0 0 1 1.237 0 .854.854 0 0 1 0 1.236l-6.269 6.268c-.176.089-.441.265-.618.265z"/></g><path fill="url(#A)" fill-rule="nonzero" d="M306.802 67.187s3.002.089 6.71-1.324c0 0 4.59-1.677 5.562-.177 0 0 .706 1.06-1.501 2.737 0 0 1.324 1.325 3.532 1.59 0 0 4.679.353 1.765 5.385 0 0-2.737 4.15-7.857 2.914 0 0-5.386-1.943-8.918-5.65l.707-5.475z"/><path fill="url(#B)" fill-rule="nonzero" d="M339.645 81.049s6.357 3.266 12.537.706l4.944-5.21-1.677-21.277-6.18-15.538s-9.006 1.765-8.035 12.802l-1.766 28.075s0 .177.177.442z"/><path fill="url(#C)" fill-rule="nonzero" d="M308.568 75.045c0 .353-1.854 1.324-3.444 2.03-1.06.442-1.942.884-2.119.972-4.15 2.03-8.917 3.355-13.42 4.326-3.266.706-7.857 1.413-9.976-2.03-2.119-3.444 2.825-7.152 4.944-8.388 2.56-1.324 5.386-2.03 8.123-2.56 2.472-.442 4.944-.618 7.328-.795 0 0 1.677-.177 3.531-.53 1.678-.265 3.532-.618 4.15-.883l.883 7.858z"/><path fill="url(#D)" fill-rule="nonzero" d="M308.568 75.045c0 .353-1.854 1.324-3.444 2.03l-1.5-8.916c1.677-.265 3.531-.618 4.149-.883l.795 7.769z"/><path fill="#A7282D" fill-rule="nonzero" d="M348.032 43.526s-3.62 12.89-2.825 27.105l8.034 3.884 2.65-18.982-7.859-12.007z"/><path fill="url(#E)" fill-rule="nonzero" d="M359.422 26.928s1.765 8.034 1.06 12.89l1.412 3.09h2.648l4.591-4.414 2.826-3.532v-2.56s-2.208-8.829-1.766-12.36c0 0-3.179-1.59-3.62-1.59-.353 0-8.3 1.59-8.3 1.59l1.149 6.886z"/><path fill="url(#F)" fill-rule="nonzero" d="M361.452 35.58s1.413 3.09 7.328-1.677l2.649 1.324.176 2.914-3.531 3.708-4.591 1.589-3.532-2.649s-.794-3.002-.794-3.178c0-.177.353-2.03.353-2.03h1.942z"/><path fill="url(#G)" fill-rule="nonzero" d="M293.029 69.483s-.883 4.061-2.207 7.504l-1.943.883-.706-4.856 3.002-3.531h1.854z"/><path fill="url(#H)" fill-rule="nonzero" d="M391.294 96.146s-7.681-3.885-23.132 1.413c-16.333 5.562-20.66-1.413-20.66-1.413-.088-2.384 0-7.416 0-10.506v-2.826c.795-16.333.53-40.612.53-40.612-.088-2.207 1.236-2.384 1.236-2.384 6.887-1.5 10.242-4.15 10.242-4.15 5.562 5.65 12.36-3.354 12.36-3.354l11.478 7.416-.353 19.423c0 15.097 8.299 36.993 8.299 36.993z"/><path fill="url(#I)" fill-rule="nonzero" d="M281.64 15.715s9.711-1.236 7.769 5.474c0 0-2.03 7.063-7.77 10.33 0 0 .53 4.238 2.473 8.122 0 0 4.679 7.858-1.148 12.802h-7.77l1.06-6.003-1.06-25.427 1.943-3.179 4.503-2.119z"/><path fill="url(#J)" fill-rule="nonzero" d="M288.085 13.861c1.854 1.854-.265 4.68-1.678 6.357 0 0-4.061 4.944-6.975 6.622l-3.355 26.221-2.825 21.013-3.973 8.476c-.088.176-2.03.176-2.207.264-1.854.177-3.796.265-5.65-.088-3.267-.53-7.24-1.854-9.624-4.238-3.796-3.796-3.62-11.389-1.236-15.803.795-1.501 1.501-3.444.971-5.21-.441-1.5-1.589-2.825-1.942-4.325a7.272 7.272 0 0 1 .265-4.327c1.148-3.001 3.885-4.59 6.357-6.356 2.56-1.854 5.209-4.68 5.209-8.035.088-3.001-.883-5.915-.883-8.917.088-4.06 1.06-8.475 4.679-10.947 3.178-2.208 7.24-3.002 11.124-3.002 3.444 0 8.123.088 11.125 2.03.265-.088.441.089.618.265z"/><path fill="url(#K)" fill-rule="nonzero" d="M293.47 67.805c0 .089 0 .089 0 0-.706 3.62-2.913 7.152-5.385 10.242l-.089 3.002-.618 15.009s-5.12-3.708-15.45 0c-8.74 3.09-17.128 0-17.128 0 3.532-3.444 7.593-7.24 9.712-11.831 4.59-9.8-5.298-19.423-1.766-29.4.883-2.56 3.355-5.12 5.739-6.445 7.504-4.414 17.392 3.443 22.513 9.712 2.472 3.266 3.09 6.533 2.472 9.711z"/><path fill="url(#L)" fill-rule="nonzero" d="M268.396 48.47s5.033-2.03 11.036 3.532c0 0 4.768 4.59 7.328 1.766.089-.177-5.65-5.74-6.18-6.269-.971-1.06-.706-2.649-.706-3.973.088-1.677.265-3.355.441-5.032.177-1.148.265-2.296.442-3.532l-7.858-3.885c-.088 0-.353 9.094-4.503 17.393z"/><path fill="url(#M)" fill-rule="nonzero" d="m288.085 78.135.794-1.06c-1.06.177-2.03.442-3.09.707l-7.151-20.306c-3.09-8.74-9.977-6.004-9.977-6.004-9.182 4.326-1.412 17.658-1.412 17.658 5.738 12.448 9.623 16.598 11.036 17.834 1.942 2.913 6.092 2.649 9.27 2.295l.53-11.124z"/><path fill="url(#N)" fill-rule="nonzero" d="m280.668 35.05-5.385-2.648-2.56.353c-.089 1.148-.354 2.825-.707 4.768 1.854 1.589 3.179.618 3.179.618.97 1.765 3.178 3.09 4.679 3.973.176-1.943.441-4.415.794-7.064z"/><path fill="url(#O)" fill-rule="nonzero" d="M286.672 19.953s-.706 4.944-.706 6.887c0 0 0 2.207 1.766 3.884 0 0 1.147.795-1.06 3.267-.53 1.148-1.06 2.295-1.5 3.443-.53 1.148-.972 2.737-2.296 3.267-1.501.53-3.09-.353-4.238-1.236-1.236-.883-2.737-2.03-3.443-3.443 0 0-.53 1.765-2.384.794 0 0-3.708-2.207-4.503-5.739-.353-1.5-.088-3.443 1.413-4.237 2.119-1.148 2.737.53 3.531 2.03a7.154 7.154 0 0 0 1.854 2.12s-1.5-4.062 1.501-6.093c.177.177 7.328-2.119 10.065-4.944z"/><path fill="url(#P)" fill-rule="nonzero" d="M286.672 19.953c-2.825 2.825-9.977 5.033-9.977 5.033a3.625 3.625 0 0 0-1.412 1.677c5.12-1.06 10.948-3.62 10.948-3.62.264-1.589.441-3.09.441-3.09z"/><path fill="url(#Q)" fill-rule="nonzero" d="M279.344 52.002s4.768 4.59 7.328 1.766l-.53-.53c-2.119 2.384-6.798-1.678-8.564-2.825-.706-.442-1.412-.972-2.207-1.236 1.236.618 2.56 1.5 3.973 2.825z"/><path fill="url(#R)" fill-rule="nonzero" d="M286.407 74.515s-3.796-11.212-8.387-18.982l-1.59 1.325.795 7.592 3.443 8.123 2.914 3.708 1.677-.353 1.148-1.413z"/><path fill="url(#S)" fill-rule="nonzero" d="M370.81 26.663a31.74 31.74 0 0 1-.529-3.885c-1.06.707-3.09 2.031-3.178 2.208-.089.176-4.15 3.266-4.15 3.266l-3.002 1.236c.177 1.148.354 2.472.53 3.973 1.06-.176 6.092-1.147 10.33-6.798z"/><path fill="url(#T)" fill-rule="nonzero" d="m373.724 13.596 2.826 1.148s-.177 3.797-1.501 5.21l-3.355-2.12 2.03-4.238z"/><path fill="url(#U)" fill-rule="nonzero" d="M351.034 9.623c.795 2.826 1.413 5.827 1.678 8.83.088 1.324.088 2.56.088 3.884.088 2.119.706 4.503 2.295 6.092 1.148 1.148 2.473 2.295 3.885 3.002 1.766.883 3.62.176 5.21-.707 0 0 6.003-3.355 7.062-6.533 0 0 .353 1.5 1.943.795 2.472-1.148 3.796-4.327 2.648-6.887-.53-1.06-1.5-1.942-2.737-1.413l.883-3.972-4.68-4.062-7.239-.441h-5.385l-4.68.883-.97.53z"/><path fill="url(#V)" fill-rule="nonzero" d="m371.694 14.92-20.66-5.297s.53 2.031 1.06 4.68l19.953 1.854-.353-1.236z"/><path fill="url(#W)" fill-rule="nonzero" d="M371.076 12.184v9.623s3.001-4.944 3.973-9.358l-1.325-3.002-1.765.971-.883 1.766z"/><path fill="url(#X)" fill-rule="nonzero" d="m376.373 16.245-25.074-6.798s.353-7.063 8.476-8.564c5.474-.971 11.742 1.236 15.274 5.562 1.147 1.413 2.03 3.09 2.295 4.856a10 10 0 0 1 0 2.295c0 .265-.706 2.649-.971 2.649z"/><path fill="url(#Y)" fill-rule="nonzero" d="m376.726 15.715-25.25-7.24a14.519 14.519 0 0 0-3.885-.794c-1.148-.088-3.09.177-3.178 1.59-.177 1.5 1.854 2.03 3.001 2.295 1.325.353 2.826.53 4.238.618 0 0 11.743 1.236 24.721 4.502-.088.089.53 0 .353-.97z"/><path fill="url(#Z)" fill-rule="nonzero" d="m359.157 41.319.794 1.589 3.002-4.944 4.768 4.944 4.414-8.652-8.74 3.178h-.442l-.883.177-2.03.706z"/><path fill="url(#aa)" fill-rule="nonzero" d="M362.953 37.434s2.56 2.384 5.386 5.474c0 0 10.594-5.65 3.178-12.89-.088 0-1.324 4.68-8.564 7.416z"/><path fill="url(#ab)" fill-rule="nonzero" d="M360.393 32.314s.441 3.531 2.56 5.12l-3.531 5.474s-4.768-5.739.97-10.594z"/><path fill="#A7282D" fill-rule="nonzero" d="M376.638 50.06s-.265 3.708-.088 10.594c0 0-.265 11.478-1.855 13.773l6.71 2.384V62.95l-1.942-9.8-2.825-3.09z"/><path fill="url(#ac)" fill-rule="nonzero" d="M383.436 39.818c4.414 2.56 7.858 6.268 8.21 11.477.354 4.856-.087 9.889-.352 14.745 0 0-.177 5.65 0 9.182 0 0 .265 7.592-7.858 6.268l-6.622-8.387s.618-10.507 0-17.217c0-.088-2.383-14.479 6.622-16.068z"/><path fill="url(#ad)" fill-rule="nonzero" d="M376.991 70.63c-.088 1.502-.088 2.384-.088 2.384l2.383 3.09 2.65-.088 5.032-1.148 1.854-2.207c-4.856-3.708-11.831-2.03-11.831-2.03z"/><path fill="#A7282D" fill-rule="nonzero" d="M358.274 73.28s2.03 3.53 0 9.181c7.946 2.296 16.421 3.532 24.72 3.355 6.004-.176 7.505-4.856 6.887-9.8 0 0-3.267-6.357-15.097-3.531.088 0-11.125 1.765-16.51.794zm-10.771 12.36v-2.826l4.502-.441.177 1.942-4.68 1.325z"/><path fill="url(#ae)" fill-rule="nonzero" d="M307.155 81.667c3.708-.795 5.032-2.384 5.032-2.384 4.415.883 8.74.088 8.74.088 5.033-1.324 5.387-6.357 5.387-6.357.088-5.738-4.15-3.796-4.15-3.796-2.03.795-3.885.265-3.885.265 1.148-2.56 0-3.178 0-3.178-1.589-.883-4.767 2.825-4.767 2.825a21.39 21.39 0 0 1-2.914 2.825c-2.119-.088-4.15.883-4.944 1.324l1.501 8.388z"/><path fill="url(#af)" fill-rule="nonzero" d="M293.47 67.894c-.706 3.62-2.913 7.151-5.385 10.241l-.089 3.002-5.738-1.59-1.943-7.68c8.74 2.295 12.89-3.62 13.155-3.973z"/><path fill="url(#ag)" fill-rule="nonzero" d="M303.535 68.335s2.649-1.677 5.386-1.59c0 0 1.942 2.561 1.5 7.24 0 0-1.324 1.678-5.473 2.473 0 0-.177-5.916-1.413-8.123z"/><path fill="url(#ah)" fill-rule="nonzero" d="m307.95 71.69.794 7.77c.088.53-5.12 2.736-5.562 3.001-4.238 2.03-8.917 3.355-13.508 4.326-3.267.707-7.858 1.413-9.977-2.03-2.119-3.443 2.826-7.152 4.944-8.388 2.56-1.412 5.386-2.03 8.123-2.56 2.472-.441 4.944-.618 7.328-.795.088 0 6.445-.706 7.858-1.324z"/><path fill="url(#ai)" fill-rule="nonzero" d="M286.937 75.663s-1.236 8.917-6.18 9.977c0 0-4.503-2.12-13.067-17.305 0 0-8.829-12.625 0-17.746 0 0 6.622-3.266 10.418 5.21l8.829 19.864z"/><path fill="url(#aj)" fill-rule="nonzero" d="m286.937 75.663-.53-1.148s-.088 4.15-2.03 8.476c1.942-3.09 2.56-7.328 2.56-7.328z"/><g fill-rule="nonzero" transform="translate(132.432 .883)"><circle cx="44.144" cy="43.791" r="43.35" fill="url(#ak)"/><path fill="#F1F2F2" d="M59.241 41.407c-2.913 0-5.473.795-7.24 2.12l-4.414-.707 2.826 2.384c-.442.706-.707 1.5-.707 2.295 0 3.355 4.238 6.092 9.535 6.092 5.298 0 9.536-2.737 9.536-6.092 0-3.355-4.238-6.092-9.536-6.092z"/><path fill="url(#al)" d="M26.928 8.652s15.186-8.387 13.067 8.83c0 0-.354 5.208-3.444 8.033 0 0-1.942 4.68 2.208 7.858 0 0 12.272 9.182 4.855 18.805H22.867l4.06-43.526z" transform="translate(3.532 16.775)"/><path fill="url(#am)" d="M43.173 38.052s5.739-.883 8.829 1.943c0 0 2.295 2.472 5.209 10.594 0 0 4.503 11.39 6.268 13.42l-3.708 3.443h-7.328l-11.919-1.147 2.031-24.191.618-4.062z" transform="translate(3.532 16.775)"/><path fill="url(#an)" d="M44.497 43.968c.442.882.971 1.765 1.501 2.648.442.707.971 1.501 1.413 2.207.441.707 1.06 1.236 1.589 1.854a6.247 6.247 0 0 1 1.5 3.179c.354 1.942 0 3.885-.617 5.65 0 0-.53 2.472-.353 3.267 0 0 7.504-4.238 12.89 0l-5.739 4.944-6.357.883-8.299.53s-1.589-8.74-1.412-9.182c.264-.265 3.884-15.98 3.884-15.98z" transform="translate(3.532 16.775)"/><path fill="url(#ao)" d="M35.933 6.886c.177-1.059.177-2.207-.353-3.266-.794-1.766-2.648-2.914-4.59-3.18-2.473-.264-5.122.354-7.505 1.325-4.856 2.03-9.182 5.562-11.478 10.33-1.589 3.266-2.384 6.974-2.648 10.594-.265 3.708 0 7.416-1.06 10.948-.706 2.384-1.766 5.032-3.355 6.975-.706.882-1.589 1.589-2.295 2.56-1.59 2.295-2.384 5.209-2.12 7.946.354 2.825 2.296 5.474 1.325 8.387C1.148 61.626 0 63.214.088 65.598c.089 3.267 2.03 6.269 4.856 7.77 11.92 6.445 31.166-6.71 31.166-6.71l-6.092-42.114 2.384-6.886c.883-2.56 1.589-5.121 2.56-7.681.442-.972.795-2.031.971-3.09z" transform="translate(3.532 16.775)"/><path fill="url(#ap)" d="M49.971 55.004v.441c-.088 1.5-.53 3.09-.971 4.591l-1.06 3.973a65.537 65.537 0 0 0-1.324 5.65c-.088.177.089 2.914.177 2.914 0 0-7.063.706-15.716 2.207-9.535 1.678-13.95-1.5-13.95-1.5l2.914-14.48 5.033-19.07 12.449-2.56s3.178.882 5.915.794c0 0 1.148 4.591 1.412 6.445 0 0 1.148 3.443 3.709 6.18 1.059 1.413 1.412 2.914 1.412 4.415z" transform="translate(3.532 16.775)"/><path fill="url(#aq)" d="M49.883 55.445c-.088 1.5-.53 3.09-.971 4.591l-1.06 3.973-.088.177s-4.503 3.796-11.566 2.472c-4.856-.883-8.299-3.885-8.829-4.503 3.179-.088 7.24-1.324 10.154-2.296 3.09-1.059 6.798-.97 9.623-2.56.971-.53 1.942-1.148 2.737-1.854z" transform="translate(3.532 16.775)"/><path fill="url(#ar)" d="M25.074 42.202c1.854.883 3.708 1.942 5.474 2.913 5.385 2.826 9.8-2.383 11.742-7.063 0 0-9.005-1.06-7.858-10.77l-7.68-1.678-1.678 16.598z" transform="translate(3.532 16.775)"/><path fill="url(#as)" d="M22.16 36.198s-11.3-3.09-13.684 6.357c0 0-1.148 4.59 1.06 12.802 0 0 1.323 5.209 1.235 12.184l5.474 1.059 3.355-1.06 2.56-31.342z" transform="translate(3.532 16.775)"/><path fill="url(#at)" d="m26.663 26.045-.706 7.24c5.827 1.589 8.387.883 9.447.176-.707-1.412-1.148-3.178-.972-5.474l-7.769-1.942z" transform="translate(3.532 16.775)"/><path fill="url(#au)" d="M37.346 15.45c-.883-5.915-1.59-7.15-1.59-7.15-5.208 6.709-12.89 9.181-12.89 9.181-2.207 4.414 0 7.946 0 7.946-2.383-1.324-3.443-5.209-3.443-5.209 0 .618 0 1.236.089 1.766-.442-.442-1.236-.265-1.678.088-.883.883-1.06 2.472-.794 3.532.265.97.883 1.854 1.589 2.472.618.53 1.412.97 2.207 1.324 0 0 1.766.971 2.56-.53.089 0 .089.089.089.089.883.706 1.765 1.324 2.825 1.765 1.324.618 2.737 1.148 4.238 1.236 1.236.177 2.825.177 3.973-.353.618-.265 1.147-1.148 1.5-1.766 1.237-1.765 1.855-3.62 2.208-5.738.441-2.914-.353-5.827-.883-8.653z" transform="translate(3.532 16.775)"/><path fill="url(#av)" d="M36.11 9.535c-.265-.971-.442-1.236-.442-1.236-5.209 6.71-12.89 9.182-12.89 9.182-.088.177-.176.265-.176.442 7.416-.53 11.83-5.916 13.508-8.388z" transform="translate(3.532 16.775)"/><path fill="url(#aw)" d="M29.047 31.695c-.353-1.854-2.737-3.266-2.737-3.266-.883-.442-2.56-1.678-2.56-1.678-.972-.53-1.943-1.765-1.943-1.765-1.236-2.031-2.03-2.914-2.03-2.914l-.354 1.324s.53 1.854.53 1.943c0 .088 1.236 1.854 1.236 1.854s1.766 1.589 1.854 1.677c0 0 .089.089.265.177l.177-.177c.088 0 .088.089.088.089.883.706 1.766 1.324 2.825 1.765.795.353 1.766.707 2.649.971z" transform="translate(3.532 16.775)"/><path fill="url(#ax)" d="M37.523 43.703c-2.65 1.765-5.916 1.236-8.741.53.618.353 1.148.617 1.766.97 5.385 2.826 9.8-2.383 11.742-7.062-1.236 1.942-2.737 4.237-4.767 5.562z" transform="translate(3.532 16.775)"/><path fill="url(#ay)" d="M19.423 35.757s.707 1.854.354 3.62c-.354.353-1.413 1.589-1.236 3.62-1.148 3.266-3.002 8.122-3.885 9.976 0 0-3.002 7.24-2.914 9.27l3.444 5.474 4.326-6.357.794-1.5 1.943-23.75c-.089.088-1.236-.265-2.826-.353z" transform="translate(3.532 16.775)"/><path fill="url(#az)" d="M47.852 64.097c-7.946-.883-9.27 1.678-11.742 0-3.62-2.56-4.856-2.56-8.74-1.942-1.502-6.004 0-16.863 0-16.863s1.059-2.119.794-6.092l-2.737.53-1.324 3.355-4.15 15.803-2.913 14.48s4.414 3.178 13.95 1.5c8.651-1.5 15.715-2.207 15.715-2.207-.089 0-.177-2.737-.177-2.913.353-1.943.883-3.797 1.324-5.65z" opacity=".47" transform="translate(3.532 16.775)"/><path fill="url(#aA)" d="M19.865 40.524s-2.472 8.035-5.297 14.833c0 0-4.238 8.564-3.797 12.184.353 3.001 2.472 5.65 5.65 5.827 4.327.353 7.947-2.56 8.653-6.799 0 0 .971-5.032.883-10.064 0 0 .53-9.889.97-14.745l-7.062-1.236z" transform="translate(3.532 16.775)"/><path fill="url(#aB)" d="M26.751 29.223c-1.236-.794-2.472-1.589-3.62-2.648-.97-.883-1.854-1.766-2.472-2.914-.264-.618-.53-1.5-1.147-1.766-.883-.44-1.236.795-1.501 1.413-.618 1.942-.442 3.797.618 5.562.618 1.06 1.5 1.766 2.295 2.56 0 0 1.236 1.237 1.06 2.208l-1.236 6.18c1.236.265 2.384.441 3.62.706.353.089.794.089 1.147.177.265 0 .707.265.883.265 1.148-.089 1.148-1.943 1.325-2.825.618-3.09 2.472-6.799-.972-8.918z" transform="translate(3.532 16.775)"/><path fill="url(#aC)" d="M21.277 37.61s4.768 1.149 6.446 1.237c0 0 .706 3.002-1.06 5.65 0 0-5.209.442-7.416-2.03 0 0 0-3.797 2.03-4.856z" transform="translate(3.532 16.775)"/><path fill="url(#aD)" d="M41.76 66.57s-3.884-.177-8.652-3.002c0 0-4.767-3.002-7.24 3.001 0 0-2.472 4.856.972 6.534 0 0 1.765.53 4.326-1.06 0 0 1.412 3.09 7.24 0l3.884-.265-.53-5.209z" transform="translate(3.532 16.775)"/><path fill="url(#aE)" d="M63.568 64.097c-1.06-1.5-1.943-1.854-1.943-1.854-2.03-.97-4.326-.883-6.445-.53-1.854.354-3.62 1.325-5.385 1.943-1.766.618-3.62 1.06-5.474 1.412-.707.177-1.413.265-2.207.354l-.795 3.973-.353 1.589-.353 1.236 15.892 1.148c.53.088 1.147.088 1.677.176h.618c2.03.088 3.885-.353 5.032-2.295 1.236-2.12 1.148-5.21-.264-7.152z" transform="translate(3.532 16.775)"/><path fill="url(#aF)" d="M45.645 67.629c-.088-.618-.177-1.413-.441-2.12-.089-.352-.177-.529-.177-.529s-3.796-1.148-6.622.971c0 0 1.148 2.384 0 6.18 0 0 .089.089.265.177.177.088.442.177.795.265 2.295.706 5.12.088 5.12.088 1.237-1.412 1.325-3.355 1.06-5.032z" transform="translate(3.532 16.775)"/><g transform="translate(52.09 8.829)"><circle cx="16.157" cy="16.245" r="15.362" fill="#F1F2F2"/><circle cx="17.128" cy="15.539" r="15.362" fill="#D85E63"/><circle cx="17.128" cy="15.539" r="13.067" fill="#FFF"/><path fill="#D85E63" d="M31.077 15.892h-1.5c-.177 0-.354-.177-.354-.353 0-.177.177-.353.354-.353h1.5c.177 0 .354.176.354.353 0 .176-.177.353-.354.353zM17.128 29.841a.379.379 0 0 1-.353-.353v-1.5c0-.177.176-.354.353-.354s.353.177.353.353v1.501c-.088.177-.176.353-.353.353zM4.591 15.892h-1.5c-.177 0-.354-.177-.354-.353a.38.38 0 0 1 .353-.353h1.501c.177 0 .353.176.353.353a.38.38 0 0 1-.353.353zM17.128 3.355a.38.38 0 0 1-.353-.353V1.5c0-.177.176-.353.353-.353s.353.176.353.353V3c-.088.266-.176.354-.353.354z"/><g fill="#D85E63"><path d="M17.128 15.891h-.176l-6.445-3.09c-.177-.088-.265-.264-.177-.441.088-.177.265-.265.441-.177l6.446 3.09c.176.089.264.265.176.442-.088.088-.176.176-.265.176z"/><path d="M11.036 13.949c-.176 0-.265-.088-.353-.265l-.53-1.5 1.501-.53c.177-.089.353 0 .442.176.088.177 0 .353-.177.442l-.883.353.353.883c.089.176 0 .353-.176.441h-.177z"/></g><g fill="#D85E63"><path d="M17.128 15.892c-.088 0-.176 0-.265-.088-.088-.177-.088-.353 0-.442l7.328-6.092c.177-.088.353-.088.442 0 .088.177.088.354 0 .442l-7.328 6.092c-.089.088-.177.088-.177.088z"/><path d="M24.28 11.036c-.177 0-.354-.176-.354-.353l.089-.971-.972-.088c-.176 0-.353-.177-.264-.354 0-.176.176-.353.353-.264l1.589.176-.177 1.59c.089.176-.088.264-.264.264z"/></g><circle cx="17.128" cy="15.539" r="1.324" fill="#D85E63"/></g><g transform="translate(47.676 40.613)"><ellipse cx="12.36" cy="6.268" fill="#FFF" rx="9.535" ry="6.092"/><circle cx="8.211" cy="6.268" r="1" fill="#F1F2F2"/><circle cx="12.36" cy="6.268" r="1" fill="#F1F2F2"/><circle cx="16.598" cy="6.268" r="1" fill="#F1F2F2"/><path fill="#FFF" d="M4.238 4.591.795 1.589l6.091 1.06z"/></g></g><path fill="#93CC7E" fill-rule="nonzero" d="M122.456 51.825c-2.737 0-6.004-.794-9.624-3.266-8.828-6.269-16.245-1.325-16.333-1.236-.176.088-.441.088-.53-.089-.088-.176-.088-.441.089-.53.088-.088 8.034-5.209 17.216 1.237 8.74 6.18 15.627 1.5 15.892 1.324.176-.088.441-.088.53.088.088.177.088.442-.089.53 0 0-2.825 1.942-7.151 1.942zm106.034-3.266c-3.443 0-4.856-1.678-4.944-1.766-.088-.177-.088-.353.088-.53.177-.088.353-.088.53.088 0 0 2.913 3.355 10.771-.088 7.328-3.267 11.566 1.324 11.654 1.324.177.177.088.354 0 .53-.176.177-.353.088-.53 0-.176-.176-3.973-4.238-10.77-1.148-2.826 1.148-5.033 1.59-6.799 1.59z"/><g fill-rule="nonzero"><path fill="#A8C05D" d="M313.777 66.657c5.297-.177 11.83-4.326 14.126-12.625a23.01 23.01 0 0 1 4.503 8.917c-5.21 8.299-13.862 11.654-20.748 10.594 1.413-2.207 2.03-4.679 2.119-6.886z"/><path fill="#507837" d="M314.13 67.098c5.21-.265 11.478-4.238 13.95-12.007 1.677 2.207 3.001 4.856 3.796 7.858-4.944 7.77-13.067 11.036-19.6 10.33 1.148-2.12 1.766-4.238 1.854-6.18z"/><path fill="#A8C05D" d="M316.249 71.601c.706-.088 1.236.088 1.59.353 3.442-.794 7.062-2.649 10.064-5.65.265-.972.795-1.943 1.324-2.649.53-.706 1.148-1.5 1.59-2.384-.53-1.412-1.06-2.648-1.766-3.884-.353.794-.795 1.589-1.236 2.383-.442.707-.971.971-1.501.971-2.207 3.09-5.12 5.21-8.034 6.269-.354.53-.883.883-1.501 1.06-.795.176-1.501.264-2.296.353a16.361 16.361 0 0 1-.883 3.266c.883 0 1.766 0 2.649-.088z"/><path fill="#507837" d="M320.31 68.687c.089-1.677.795-3.355 1.943-4.237 1.147-.883 2.472-.53 2.825 1.236.353 1.765-.795 4.15-2.296 4.944-1.589.706-2.56-.353-2.472-1.943zm6.18-4.767c-.176-.706.089-1.678.53-2.296.442-.618 1.06-.706 1.324 0 .265.707 0 1.854-.53 2.472-.617.618-1.147.53-1.324-.176zm-9.976 5.739c.088-.618.618-1.148 1.236-1.325.618-.176 1.148.089 1.06.707 0 .618-.619 1.324-1.325 1.412-.618.177-1.06-.176-.971-.794z"/><path fill="#818181" d="M312.452 73.721c6.71-.619 14.038-5.386 17.57-14.039a19.624 19.624 0 0 0-2.649-4.326c-2.56 7.417-8.652 11.125-13.684 11.301-.089 2.207-.707 4.68-2.208 6.975.442 0 .707.088.971.088z" opacity=".5"/><path fill="#A8C05D" d="M311.923 66.481c5.12-1.413 10.418-7.063 10.682-15.627 2.56 1.942 4.767 4.502 6.533 7.593-3.09 9.27-10.683 14.655-17.658 15.273.883-2.56.971-5.032.442-7.24z"/><path fill="#507837" d="M312.365 66.834c4.942-1.501 10.063-6.887 10.681-15.01 2.119 1.767 4.061 4.062 5.562 6.71-3.002 8.741-9.976 13.862-16.51 14.745.618-2.296.707-4.503.265-6.445z"/><path fill="#A8C05D" d="M315.543 70.63c.618-.265 1.236-.265 1.589 0 3.178-1.589 6.18-4.238 8.387-7.857.088-.972.265-2.031.618-2.914s.706-1.766.971-2.649c-.794-1.236-1.677-2.295-2.648-3.354-.177.882-.353 1.765-.618 2.56-.265.794-.707 1.236-1.236 1.236-1.413 3.531-3.708 6.268-6.357 8.034-.177.618-.618 1.148-1.148 1.413-.706.353-1.412.618-2.119.883.088 1.06.088 2.207-.088 3.355.971-.089 1.766-.354 2.649-.707z"/><path fill="#507837" d="M318.809 66.922c-.353-1.589 0-3.443.883-4.59.883-1.149 2.296-1.149 3.002.529.795 1.59.265 4.238-1.06 5.386-1.324.97-2.472.264-2.825-1.325zm4.856-6.092c-.353-.618-.353-1.677-.088-2.383.265-.707.883-.883 1.324-.265.442.618.442 1.765.088 2.56-.441.706-.97.706-1.324.088zm-8.299 7.858c-.088-.618.353-1.236.883-1.59.53-.352 1.06-.176 1.236.442.088.618-.265 1.413-.883 1.766-.706.353-1.148 0-1.236-.618z"/><path fill="#818181" d="M328.08 57.299c-1.501-2.384-3.444-4.415-5.474-6.004-.442 8.3-5.65 13.773-10.683 15.186.441 2.207.441 4.679-.442 7.24 6.887-1.148 14.126-6.975 16.599-16.422z" opacity=".5"/><path fill="#A8C05D" d="M311.128 66.481c4.944-1.943 9.624-8.123 8.917-16.687 2.737 1.59 5.21 3.885 7.328 6.798-2.118 9.535-9.093 15.716-15.892 17.129.53-2.648.353-5.12-.353-7.24z"/><path fill="#507837" d="M311.57 66.746c4.767-2.031 9.27-7.946 9.005-16.069a22.737 22.737 0 0 1 6.268 6.092c-2.03 9.005-8.475 14.832-14.832 16.422.353-2.384.177-4.591-.441-6.445z"/><path fill="#A8C05D" d="M315.101 70.277c.618-.353 1.148-.353 1.59-.177a20.457 20.457 0 0 0 7.504-8.74c0-.971.088-2.03.353-2.914.265-.882.53-1.765.706-2.737a24.027 24.027 0 0 0-3.002-3.001c-.088.883-.176 1.765-.353 2.648-.176.795-.618 1.325-1.06 1.413-1.059 3.708-3 6.622-5.385 8.652a2.978 2.978 0 0 1-.97 1.501c-.619.442-1.325.795-2.032 1.148.265 1.06.354 2.119.354 3.355.706-.442 1.5-.795 2.295-1.148z"/><path fill="#507837" d="M317.926 66.127c-.53-1.589-.441-3.443.354-4.679.794-1.236 2.118-1.412 3.09.177.97 1.5.706 4.238-.53 5.474-1.148 1.236-2.384.618-2.914-.972zm4.239-6.533c-.442-.618-.53-1.589-.354-2.384.177-.794.795-.97 1.236-.441.442.53.618 1.677.353 2.472-.265.795-.883.883-1.236.353zm-7.417 8.741c-.088-.618.177-1.325.706-1.678.53-.353 1.06-.265 1.236.353.177.618-.176 1.413-.706 1.854-.618.265-1.148.089-1.236-.53z"/></g><path fill="url(#aG)" fill-rule="nonzero" d="M308.744 72.22s2.737-1.413 5.297-4.415c0 0 3.179-3.708 4.768-2.825 0 0 1.148.618 0 3.179 0 0 1.854.441 3.885-.265 0 0 4.238-1.943 4.15 3.796 0 0-.354 4.944-5.386 6.357 0 0-5.65.971-10.595-.618l-2.119-5.21z"/><path fill="url(#aH)" fill-rule="nonzero" d="M305.742 72.22s2.649-1.678 5.386-1.59c0 0 1.942 2.561 1.5 7.24 0 0-1.323 1.678-5.473 2.472 0 0-.265-5.915-1.413-8.122z"/><ellipse cx="342.294" cy="75.133" fill="url(#aI)" fill-rule="nonzero" rx="8.652" ry="6.445"/><path fill="url(#aJ)" fill-rule="nonzero" d="M338.939 71.514c.088-.089-9.182-3.532-10.683-1.943-1.236 1.324.176 2.737.706 3.179-1.589 1.147-2.472 2.736-2.472 4.502 0 3.532 3.885 6.445 8.652 6.445 4.768 0 8.653-2.913 8.653-6.445-.089-2.472-2.031-4.679-4.856-5.738z"/><path fill="url(#aK)" fill-rule="nonzero" d="M340.175 70.807s.088 0 0 0c.088-.088-9.182-3.531-10.683-1.942-1.236 1.324.176 2.737.706 3.178-1.589 1.148-2.472 2.737-2.472 4.503 0 3.531 3.885 6.445 8.652 6.445 4.768 0 8.653-2.914 8.653-6.445-.089-2.472-2.031-4.68-4.856-5.739z"/><path fill="#852124" fill-rule="nonzero" d="M350.505 71.249s-5.033.53-10.154-.354c0 0 3.797 4.327 1.854 9.977 7.593 2.296 7.24.53 15.186.353"/><path fill="url(#aL)" fill-rule="nonzero" d="m355.89 80.784-1.677-9.359c-.53-.176-1.148-.441-1.678-.618-.971-.353-1.942-.706-3.002-.971h-.088c-.795-.177-1.854-.353-2.384.441-.794.972.795 2.56 1.325 3.267-.442-.441-3.444-.088-3.973 0-1.325.177-2.56.795-3.179 2.03-1.06 2.208.265 4.945 1.766 6.622 1.324 1.501 3.09 2.208 5.12 2.472l5.916-1.059c1.324-.441 2.119-1.59 1.854-2.825z"/><path fill="url(#aM)" fill-rule="nonzero" d="M351.034 68.865c-.088 0-.088 0 0 0-.883-.177-1.854-.353-2.472.353-.794.971.795 2.56 1.324 3.267-.441-.442-3.443-.089-3.972 0-1.325.176-2.56.794-3.179 2.03-1.06 2.208.265 4.944 1.766 6.622 4.59 5.12 14.832 1.324 19.953-.795v-6.71l-3.708-1.324c-2.207-.794-4.414-1.59-6.71-2.384-1.06-.353-2.03-.794-3.002-1.06z"/><path fill="url(#aN)" fill-rule="nonzero" d="M361.1 72.485s1.941 3.531 0 9.182c7.592 2.295 15.714 3.531 23.66 3.355 5.74-.177 7.152-4.856 6.622-9.8 0 0-3.09-6.357-14.391-3.532-.088 0-10.771 1.678-15.892.795z"/><path fill="#FFF" fill-rule="nonzero" d="M285.26 34.256c0 1.589-.972 2.913-2.12 2.913-1.147 0-2.118-1.324-2.118-2.913m81.048-7.681c0 1.589-.97 2.913-2.119 2.913-1.147 0-2.119-1.324-2.119-2.913"/><path stroke="#E1B792" stroke-linecap="round" stroke-width=".8" d="M170.396 43.614c.177 1.236-.794 2.296-2.119 2.472-1.324.177-2.472-.706-2.648-1.942"/></g></svg>