<svg xmlns="http://www.w3.org/2000/svg" width="28" height="28" fill="none" viewBox="0 0 28 28">
    <g fill="#505F77" clip-path="url(#clip0)">
        <path d="M10.717 11.685c1.012 0 1.832-.82 1.832-1.832s-.82-1.832-1.832-1.832c-1.011 0-1.832.82-1.832 1.832s.82 1.832 1.832 1.832z"/>
        <path d="M25.756 16.596c-.866-.815-1.96-1.349-3.156-1.502V5.781c0-.992-.407-1.883-1.043-2.544-.662-.662-1.552-1.043-2.544-1.043H4.254c-.992 0-1.883.407-2.544 1.043C1.048 3.898.667 4.789.667 5.78v15.191c0 .993.407 1.883 1.043 2.545.661.661 1.552 1.043 2.544 1.043H18.53c.942.763 2.112 1.247 3.41 1.247 1.501 0 2.85-.61 3.817-1.578.966-.967 1.577-2.315 1.577-3.817 0-1.5-.61-2.85-1.577-3.816zM2.016 5.78c0-.61.254-1.17.66-1.577.408-.407.968-.662 1.578-.662h14.759c.61 0 1.17.255 1.577.662.407.407.662.967.662 1.577v7.94L17.486 9.98c-.255-.255-.687-.28-.967 0l-5.674 5.7-3.843-3.868c-.254-.255-.687-.28-.967 0l-4.02 4.071V5.781zm2.213 17.456v-.026c-.61 0-1.17-.254-1.578-.661-.381-.407-.636-.967-.636-1.578v-3.18l4.53-4.53 3.842 3.843c.254.254.687.254.966 0l5.675-5.7 3.715 3.74-.23.077c-.1.025-.203.05-.33.101-.102.026-.203.077-.305.102-.077.026-.128.051-.204.102-.102.05-.178.076-.254.127l-.382.23c-.076.05-.127.075-.204.126-.05.026-.076.051-.127.077-.229.152-.432.33-.61.534-.967.967-1.578 2.316-1.578 3.817 0 .382.05.738.127 1.12.026.101.051.178.076.28.077.254.153.508.255.763v.025c.102.204.203.433.33.61H4.23zm20.534.025c-.738.738-1.73 1.17-2.85 1.17-1.068 0-2.06-.432-2.773-1.119-.102-.102-.204-.229-.306-.33-.076-.077-.152-.179-.229-.255-.101-.127-.178-.28-.254-.433-.05-.101-.102-.178-.153-.28-.05-.127-.102-.28-.127-.432-.025-.102-.076-.23-.102-.33-.05-.255-.076-.535-.076-.815 0-1.12.458-2.112 1.17-2.85.738-.738 1.73-1.17 2.85-1.17s2.112.457 2.85 1.17c.738.712 1.17 1.73 1.17 2.85 0 1.094-.457 2.086-1.17 2.824z"/>
        <path d="M24.128 19.725h-1.552v-1.552c0-.382-.306-.687-.687-.687-.382 0-.687.305-.687.687v1.552h-1.553c-.381 0-.687.306-.687.687 0 .382.306.687.687.687h1.553v1.552c0 .382.305.688.687.688.381 0 .687-.306.687-.688V21.1h1.552c.381 0 .687-.305.687-.687 0-.381-.306-.687-.687-.687z"/>
    </g>
    <defs>
        <clipPath id="clip0">
            <path fill="#fff" d="M0 0H26.667V26.667H0z" transform="translate(.667 .667)"/>
        </clipPath>
    </defs>
</svg>
