<?xml version="1.0" encoding="utf-8"?>
<!-- Generator: Adobe Illustrator 23.0.1, SVG Export Plug-In . SVG Version: 6.00 Build 0)  -->
<svg version="1.1" id="Layer_1" xmlns="http://www.w3.org/2000/svg" xmlns:xlink="http://www.w3.org/1999/xlink" x="0px" y="0px"
	 viewBox="0 0 1200 1200" style="enable-background:new 0 0 1200 1200;" xml:space="preserve">
<style type="text/css">
	.st0{fill:#CC2028;}
	.st1{fill:#F7F8F8;}
	.st2{fill:#F3F3F3;}
</style>
<g>
	<circle id="XMLID_312_" class="st0" cx="460.26" cy="1105.81" r="92.05"/>
	<circle id="XMLID_311_" class="st0" cx="828.06" cy="1105.81" r="92.05"/>
	<path class="st0" d="M671.23,938.64c-47.58,0-95.24-6.3-141.63-18.73c-133.42-35.75-247.37-119.8-320.83-236.68
		c-69.56-110.65-97.22-242.45-77.9-371.12l1.53-10.18l-24.67-6.61l-3.82,1.81c-9.68,4.58-20.41,6.99-31.03,6.99
		c-5.04,0-10.12-0.53-15.09-1.59c-39.31-8.34-64.51-47.1-56.17-86.4c7.1-33.47,37.05-57.77,71.22-57.77c5.07,0,10.18,0.54,15.18,1.6
		c21.86,4.63,40.07,18.72,49.98,38.64l2.32,4.66l62.07,16.63c19.88,5.33,34.85,22.21,35.59,40.15c0.24,5.9,0.07,14.23-0.58,17.23
		c-54.29,249.72,82.17,485.56,317.43,548.6c38.13,10.22,77.28,15.4,116.36,15.4c201.6-0.01,379.46-136.01,432.54-330.73l0.14-0.5
		l0.09-0.51l0.14-0.58c5.7-21.28,25.07-36.14,47.1-36.14c4.25,0,8.51,0.56,12.66,1.67c12.59,3.37,23.11,11.45,29.63,22.74
		c6.52,11.29,8.25,24.44,4.87,37.03c-0.35,1.3-0.75,2.58-1.2,3.82l-0.25,0.8c-65.46,235.38-281.6,399.77-525.61,399.77H671.23z"/>
	<path class="st0" d="M1063.24,391.88c0,215.25-174.49,389.73-389.74,389.73c-215.24,0-389.73-174.49-389.73-389.73
		c0-215.25,174.49-389.74,389.73-389.74C888.75,2.14,1063.24,176.63,1063.24,391.88z"/>
	<path class="st1" d="M1055.56,314.92c-0.91-4.57-2.22-8.99-3.3-13.51c-1.06,0.77-2.31,1.66-2.87,2.16
		c-2.01,1.82-10.41,7.26-12.86,8.95c-1.88,1.32-2.87,4.66-2.28,6.02c-0.29-0.02-0.52-0.03-0.79-0.03c-1.5,0-1.68,5.95-0.07,6.98
		c1.54,1.01,5.37-4.65,7.36-6c1.99-1.35,5.98-2.18,6.57-1.74c0.63,0.43,4.12-0.63,7.81-2.33
		C1055.27,315.37,1055.43,315.03,1055.56,314.92z"/>
	<path class="st1" d="M1038.95,451.86c4.53,3.18,14.62,1.71,14.94-4.4C1049.45,444.53,1038.57,445.03,1038.95,451.86z"/>
	<path class="st1" d="M1056.04,456.61c-1.16,0.61-6.9,1.29-7.65,0.16c-0.77-1.13-1.9,2.32-3.12,2.88c-1.22,0.55-0.56,3.56,1.25,2.62
		c1.13-0.54,5.39,1.74,9.41,4.16c0.68-3.54,1.04-7.18,1.63-10.75C1057.08,456.01,1056.33,456.46,1056.04,456.61z"/>
	<g>
		<path class="st2" d="M397.19,382.53c0,1.06,5.68,0.39,7.04,0.43c1.4,0.03,1.34-0.9-0.11-2.05
			C402.69,379.76,397.19,381.45,397.19,382.53z"/>
		<path class="st2" d="M705.24,590.55c5-2.94,13.49-15.51,16.27-18.14c2.81-2.66,4.84-12.15,5.43-14.23c0.56-2.08,4.8-5.44,6.4-5.89
			c1.56-0.45,6.65-21.51,11.09-26.1c4.42-4.6,9.66-26.85,9.1-34.88c-0.56-7.98,2.87-23.24,3.91-26.91
			c1.07-3.66,6.63-10.18,8.38-11.52c1.7-1.36,12.43-17.24,15.91-22.92c3.42-5.7,6.74-18.21,6.07-21.13
			c-0.64-2.94-8.13-4.97-9.53-3.54c-1.38,1.46-8.42,2.64-10.68,2.64c-2.24,0-7.4-12.05-10.61-14.54
			c-3.19-2.46-6.07-16.27-7.92-18.89c-1.85-2.61-6.99-9.23-8.62-10.74c-1.61-1.5-1.88-8.84-2.26-10.85
			c-0.34-1.99,3.12,1.33,3.71,4.22c0.63,2.92,8.89,14.69,11.43,18.64c2.58,3.97,9.32,16.57,11.04,20.53
			c1.72,3.92,16.75,1.94,21.6-0.35c4.89-2.32,10.95-6.21,11.18-7.56c0.21-1.37,7.99-4.93,10.14-6.65c2.15-1.73,4.07-10.76,5.48-12.2
			c1.4-1.48-1.15-10.08-2.76-12.64c-1.61-2.56-9.41-4.61-10.96-3.61c-1.59,1.01-4.93-5.77-6.14-8.26c-1.18-2.5-7.15-5.55-7.81-7.25
			c-0.61-1.74,1.65-4.41,2.58-4.99c0.93-0.6,11.91,7.11,15.08,10.94c3.14,3.83,6.75,10.87,7.36,12.11
			c0.56,1.21,9.24,1.85,11.18,0.43c1.92-1.43,4.16-1.05,4.91,0.79c0,0,0,0,2.72-0.48c9.51-1.47,9.51-1.47,9.51-1.47
			c4.51,4.87,5.8,9.09,5.7,10.07c-0.09,0.93,2.76,4.9,4.6,5.32c1.85,0.43,3.21,6.65,3.76,8.19c0.54,1.54,5.97,10.85,7.08,14.78
			c1.11,3.91,5.73,11.55,6.86,13.61c1.07,2.05,2.01,7.98,2.01,9.6c0,1.62,3.46,4.82,5.63,4.66c2.15-0.13,6.52-13.77,7.56-18.84
			c0.99-5.07,4.5-9.25,5.48-9.25c1,0,1.79-2.85,1.79-3.94c0-1.06,5.5-0.95,6.02-2.34c0.47-1.39,2.1-10.39,4.05-11.76
			c1.99-1.37,8.96-5.94,11.41-6.8c2.44-0.84,8.69,4.55,10.1,7.07c1.38,2.51,2.65,8.92,2.11,9.96c-0.52,1.05,3.28,6.58,6.65,6.48
			c3.3-0.1,4.35,4.23,4.44,5.78c0.16,1.56,4.53,6.02,5.41,8.02c0.84,2,0.61,7.43,0.02,8.67c-0.61,1.24-0.2,8.36,0.45,10.37
			c0.63,1.98,10.89,12.37,14.71,15.53c3.85,3.14,5.66-6.41,3.67-9.39c-1.93-2.97-8.63-9.91-10.21-11.97
			c-1.58-2.08-1.83-10.39-1.24-12.69c0.56-2.34,5.84,1.27,8.03,2.95c2.19,1.69,5.07,5.42,5.14,6.68
			c0.07,1.23,13.81-6.46,14.26-14.81c0.52-8.33,5.07-17.74,5.52-19.93c0.47-2.21-1.36-5.23-2.51-5.31
			c-1.16-0.12,2.04-6.37,5.88-6.27c3.87,0.13,13.13-10.21,15.32-14.29c2.19-4.1,6.61-7.47,7.11-7.99c0.52-0.48,3.6-10.17,4.14-14.18
			c0.52-4-2.26-10.26-2.58-12.34c-0.34-2.06-3.65-6.83-4.53-8.33c-0.82-1.49-1.65-7.1-1.11-8.16c0.48-1.03,3.98-2.15,4.32-3.07
			c0.39-0.96,4.35-5.19,4.07-7.05c-0.29-1.88,2.47,2.41,4.3,3.95c1.81,1.55,3.78,11.5,6.05,12.6c2.2,1.09,11.32-10.55,10.19-18.07
			c-1.11-7.53,2.65-17.14,4.85-18.01c1.36-0.53,4.42-4.73,7.13-8.64c-20.24-59.27-54.21-112.06-98.35-154.58
			c-0.66-0.15-0.91-0.2-0.91-0.2c-4.94-1.05-7.52-5.43-7.56-7.51c-4.41-4.01-8.63-8.21-13.22-12.02c-1.34,0-2.92,0-3.8-0.04
			c-3.35-0.12-10.64-2.51-11.93-3.81c-1.33-1.29-5.71,1.15-5.95,3.57c-0.3,2.43-7.95,3.55-8.65,5.4c-0.77,1.83-4.69,1.97-5.46,0.92
			c-0.75-1.03-7.85,2.5-11.38,3.03c-3.53,0.49-10.09,3.36-11.66,4.06c-1.59,0.69-5.32,4.35-5.93,5.86
			c-0.59,1.52-5.12,4.06-6.57,4.64c-1.47,0.57-1.18,7.16,0.72,8.1c1.86,0.91-3.51-0.8-5.86-2.02c-2.4-1.17-5,2.82-5.73,4.2
			c-0.75,1.37-2.9-0.84-2.83-2.78c0.09-2-5.84-3.57-6.61-2c-0.81,1.57-4.89-0.52-6.59-1.41c-1.72-0.91-9.05,6.76-11.77,9.53
			c-2.72,2.74-15.76,4.87-18.2,3.84c-2.44-1.02-4.84,5.76-2.76,6.23c2.06,0.4-5.3-0.35-9.33,0.03c-4.05,0.4-15.82,5.11-18.61,7.21
			c-2.85,2.1-5.11-0.46-5.11-2.08c0-1.61-4.48-3.1-5.82-3.55c-1.31-0.45-3.94,8.81-6.25,10.59c-2.35,1.81-5.14-7.23-10.64-8.71
			c-5.5-1.48-14.08-6.79-16.53-7.42c-2.42-0.65-7.33-5.78-8.71-7.26c-1.38-1.49-8.4-2.71-10.66-2.71s-9.53,4.17-11.47,5.8
			c-2.01,1.65-4.91,1.32-5.88,1.92c-0.97,0.58-9.23,8.65-12.38,11.17c-3.21,2.52-8.78,13.38-10.57,15.97
			c-1.86,2.58-4.46,3.06-5.52,3.14c-1.07,0.05-1.95,2.95-1.95,4c0,1.08-9.46,5.99-10.44,10.28c-0.99,4.28,0.93,14.08,0.93,17.57
			c0,3.48,3.51,10.39,6.13,10.5c2.6,0.13,1.25,5.91,0.56,7.54c-0.68,1.64,1.65,3.41,1.58,4.79c-0.05,1.39-6.63,3.33-8.65,4.11
			c-2.04,0.75-5.3,5.33-5.75,7.02c-0.36,1.5-6.65,2.56-8.74,4.56c0.52-1.44,1.22-3.44,1.79-4.56c1.2-2.28-0.47-6.28-1.45-7.1
			c-0.99-0.83-1.45-12.19-3.05-14.61c-1.59-2.46-5.57-6.58-6.56-7.38c-0.97-0.78,0.7-3.78,1.25-5.05c0.59-1.26-5.28-1.99-6.9-1.04
			c-1.61,0.91-2.47,12.17-3.14,15.24c-0.66,3.07,2.9,7.81,3.87,8.02c0.95,0.24,0.7,5.77-1.36,5.94c-2.06,0.21-3.94,8.29-2.88,10.13
			c1.06,1.85-1.47,5.47-2.69,6.3c-1.22,0.82,7.88,0.36,12.06,0.24c4.16-0.11,7.42,1.76,6.99,2.09c-0.45,0.35-7.97,1.47-9.32,3.25
			c-1.34,1.78-6.45,5.22-7.45,6.6c-0.97,1.36,1.68,4.4,3.87,4.26c2.15-0.13,4.6,7.48,6.31,8.88c1.68,1.43,1.06,5.36,0.34,6.45
			c-0.79,1.06-10.95-0.73-14.8,0.22c-3.89,0.95-8.76,9.13-9.08,12.2c-0.36,3.1,0.61,11.96,1.15,14.41
			c0.47,2.43,8.56,3.98,10.19,5.17c1.67,1.18,9.41,0.03,11.04,0.78c1.56,0.77,6.81-7.85,7.85-11.84
			c0.99-4.01,9.26-11.33,10.98-14.06c1.7-2.71,10.61-2.39,12.79-3.83c2.19-1.39,0.97,6.76,2.02,11.23c1.04,4.5,9.57,3.94,8.31-0.29
			c-1.25-4.19,0.84-6.03,1.18-4.49c0.38,1.49,8.53,4.84,10.09,7.21c1.54,2.37,1.11,7.4-0.72,7.34c-1.81-0.08-1.88,5.51,0.05,6.11
			c1.9,0.61,4.48-6.28,6.56-7.28c2.04-1.04,3.71-5.32,2.74-5.66c-0.91-0.33,1.76-4.17,2.94-2.9c1.16,1.26-4.37-8.35-7.86-11.86
			c-3.48-3.5-1.02-1.94,5.48,3.46c0,0,0,0,4.5,6.3c0.88,1.13,2.02,4.57,2.79,5.83c1.06,1.86,1.06,1.86,1.06,1.86
			c0.88,2.2,1.65,8.23,1.65,9.87c0,1.6,3.53,4.82,5.66,4.67c2.13-0.15,3.76,1.01,3.31,1.1c-0.45,0.07,1.42,4.25,3.55,4.34
			c2.11,0.09,3.03-5.39,0.9-5.52c-2.13-0.12-1.81-8.06-2.1-11.48c-0.23-3.46,1.56-6.29,2.29-6.29c0.73,0-0.09,7.09-0.02,8.73
			c0.02,1.62,0.91,4.84,1.93,7.15c0,0,0,0,2.19,1.67c4.94,3.8,4.94,3.8,4.94,3.8c7.06-2.09,16.55-0.49,16.18,0.97
			c-0.38,1.45,5.23,1.79,5.57-0.56c0.32-2.31,0.59,0.07,0.59,1.7c0,1.59-4.64,7.9-5.39,10.83c-0.79,2.89-17.11,0.92-24.13,0.39
			c-7.02-0.52-17.38,1.86-18.18,3.96c-0.77,2.11-11.73-4.82-16.77-6.92c-5.03-2.14-8.98-9.8-10-10.79
			c-1.04-1.01,0.86-3.48,0.38-4.98c-0.48-1.54-11.97-1.85-15.28-0.6c-3.35,1.22-20.55,3.04-24.63,4.83
			c-4.05,1.83-10.19-0.11-12.09-0.45c-1.9-0.33-6.47,5.28-8.74,6.3c-2.36,1.01-5.28,8.97-6.54,17.72c0,0,0,0-3.14,6.09
			c-2.02,3.89-2.02,3.89-2.02,3.89c-5.68,4.32-11.97,18.73-13.81,21.63c-1.83,2.89-3.31,23.65-3.31,30.64
			c0,6.98,6.09,21.76,7.81,25.84c1.74,4.09,12.27,13.11,15.78,15.28c3.53,2.11,14.98,2.4,18.72,2.39c3.73-0.02,8.03-3.58,9.46-7.92
			c0,0,0,0,5.5,0.55c2.53,0.26,2.53,0.26,2.53,0.26c0.13,3.07,8.24,5.53,10.23,6.61c1.99,1.09,7.34,0.28,8.92-0.2
			c1.61-0.45,3.39,13.88,2.22,18.04c-1.15,4.14,2.83,18.68,3.98,23.06c1.18,4.38,6.16,16.34,6.66,20.64
			c0.47,4.3-2.92,18.59-3.49,23.58c-0.54,5.03,6.23,19.01,8.06,23.82c1.76,4.81,3.21,15.16,3.21,17.56c0,2.4,7.45,16.88,9.12,22.83
			C681.59,592.03,700.24,593.49,705.24,590.55z"/>
		<path class="st2" d="M422.89,363.71c-1.36,0.13-3.89-3.96-5.36-4.55c-1.49-0.59-2.69,2.46-2.69,3.8c0,1.33,0.82,2.25,1.85,1.98
			c1-0.25,2.67,3.54,4.98,2.48C423.97,366.3,424.25,363.54,422.89,363.71z"/>
		<path class="st2" d="M411.02,378.68c0.68,1.57,7.11,2.82,8.42,3.89c1.27,1.05,4.6-1.98,7.2-1.65c2.56,0.33-0.86-8.93-5.2-8.67
			c-4.32,0.29-7.74-3.93-8.76-4.45c-1.06-0.46-6.04-3.51-7.49-4.65c-1.42-1.16-12.45-2.14-16.19-2.14c-3.74,0-7.86,3.82-8.44,5.07
			c-0.61,1.27,5.95,2.11,7.77,1.12c1.88-0.98,10.62,1.11,12.4,3.21c1.81,2.08,5.52,3.39,8.22,2.87
			C411.66,372.76,410.41,377.12,411.02,378.68z"/>
		<path class="st2" d="M413.11,354.21c-0.52-1.1-2.94-1.98-3.65-1.98c-0.73,0-1.27,1.89-1.15,4.17
			C408.44,358.68,413.6,355.28,413.11,354.21z"/>
		<path class="st2" d="M434,382.53c0,1.06,5.63,0.91,6.54-0.82c0.9-1.72,0.43-3.13-1.09-3.13C437.96,378.59,434,381.45,434,382.53z"
			/>
		<path class="st2" d="M412.72,517.72c2.69,2.47,8.44,14.17,9.62,18.02c1.15,3.85,0.47,10.14,0.09,11.62
			c-0.36,1.48,1.31,4.73,1.59,6.08c0.23,1.35-2.4,12.84-1.4,17.46c1.02,4.61-5.39,19.04-5.27,26.18c0.18,7.17,3.4,16.5,4.71,15.8
			c1.29-0.69,1.76,6.52-0.43,7.38c-2.19,0.88-4.73,6.56-3.51,6.87c1.24,0.3-0.09,5.91,0.27,8.17c0.32,2.26,2.22,17.12,2.62,20.81
			c0.43,3.7,5.71,12.73,6.84,15.79c1.09,3.08,2.22,8.87,2.65,9.75c0.45,0.9,0.99,1.81,1.04,1.85c0.11,0.02,4.35,1.61,5.57,2.54
			c1.27,0.92,9.62,0.35,12.36-0.22c2.74-0.56,0.21-3.05-1-4.4c-1.24-1.37-2.31-7.96-3.74-8.65c-1.42-0.64-2.01-9.06-0.77-10.91
			c1.25-1.87,6.25-4.83,6.79-6.4c0.52-1.56,0.68-8.88-0.64-9.9c-1.36-1,0.39-9.89-0.63-14.3c-1-4.4,7.67-8.42,8.19-11.92
			c0.48-3.5,9.87-7.26,12.02-9c2.11-1.76,3.96-11.77,2.94-13.95c-1.02-2.14,3.49-3.89,5.5-3.89c1.97,0,4.23-1.43,5-1.43
			c0.75-0.02,3.14-4.45,4.42-5.47c1.29-1.03,3.94-11.61,6.27-13.34c2.33-1.75,4.25-8.13,4.25-10.02c0-1.86,3.56-7.45,4.75-9.12
			c1.16-1.68,9.92-5.69,11.5-6.32c1.56-0.65,3.94-14.73,4.55-19.79c0.61-5.05,3.24-11.81,3.44-13.46c0.16-1.68,2.97-3.09,3.49-3.62
			c0.54-0.52,2.62-6.98,3.96-8.46c1.34-1.48,6.2-7.61,6.31-9c0.11-1.37,0.84-4.88,1.67-7.82c0,0,0,0-0.04-3.43
			c0.04-5.49,0.04-5.49,0.04-5.49c-1.54-4.24-6.23-9.56-7.43-8.38c-1.2,1.16-6.63-3.76-9.39-4.8c-2.78-1.01-9.67-1.88-11.43-1.88
			c-1.74,0-7.77-4.94-10.5-5.81c-2.69-0.83-9.57-2.15-10.86-2.96c-1.25-0.81-2.94-11.07-8.51-14.41
			c-5.55-3.37-15.28-11.19-16.37-14.08c-1.06-2.86-11.72-8.9-15.07-10.7c-3.26-1.82-8.26-2.26-8.87-1.59
			c-0.66,0.61-4.77-5.58-6.86-7.34c-2.15-1.72-8.53-3.18-8.83-1.62c-0.29,1.58-4.53,0.75-5.54-0.59c-0.99-1.32-4.28,0.54-5.84,1.06
			c-1.52,0.48-6.84,8.59-9.26,10.55c-2.47,1.92-5.37-1.8-6.99-2.52c-1.59-0.68-7.72,1.22-9.41,2.41c-1.67,1.17-5.52-8.59-4.6-13.09
			c0.88-4.5-4.03-13.44-7.86-13.67c-3.76-0.21-4.96-9.63-4.21-13.08c0.77-3.46-6.86-5.63-8.76-5.86c-1.95-0.27-6.68,4.63-7.49,6.96
			c-0.82,2.34-18.09-3.18-16.03-13.55c1.99-10.35,10.19-21.08,12.24-22.35c2.02-1.24,13.13-1.88,15.59-0.49
			c2.47,1.43,4.69-0.02,5.11-0.64c0.39-0.64,9.46,0.11,12.18,1.21c2.69,1.09,6.57,11.55,9.37,12.83c2.83,1.31,3.83-6.75,4.28-8.7
			c0.47-1.96-1.38-6.94-2.04-8.33c-0.7-1.4,4.5-14.09,8.76-16.24c4.19-2.18,8.67-9.23,8.35-10.48c-0.39-1.24,3.35-2.22,4.35-2.76
			c1.02-0.5-0.13-10.77,1.52-13c1.68-2.21,9.62-6.91,12.15-7.97c2.51-1.07,4.41-7.55,3.51-8.66c-0.93-1.16,6.48-7.47,10.34-8.7
			c3.85-1.18,7.18,2.22,6.23,2.75c0.75-0.43,6.07-3.19,8.33-4.67c2.65-1.75,0.05-6.55-1.67-7.98c-1.68-1.38-0.66-6.95,1.38-7.47
			c2.04-0.5,3.85-5.31,3.3-6.35c-0.56-1.07,8.49,0.83,11.91-1.73c3.39-2.55,0.99,6.12-1.54,9.61c-2.49,3.49,1.85,6.79,3.46,6.14
			c1.61-0.69,3.33,1.84,3.67,2.83c0.32,0.97,3.8-1.02,6.06-0.03c2.29,1,3.62-3.12,3.82-5c0.16-1.9-5.45-5.82-6.32-8.09
			c-0.86-2.27-1.24-15.51-1.34-18.23c-0.14-2.71-3.76-7.11-4.94-6.32c-1.16,0.74-3.56-7.04-5.43-8.74
			c-1.92-1.69-2.33-5.43-2.28-6.68c0.11-1.27-6.4-8.04-7.95-11.18c-1.54-3.14-3.73-2.5-3.87-1.07c-0.18,1.44-4.68,1.64-6.52,1.47
			c-1.86-0.17-3.39-7.33-3.39-10.04c0-2.7-8.35-3.16-9.73-5.36c-1.38-2.16-6.83-1.14-7.7-2.65c-0.9-1.5-5.71-2.89-6.63-2.34
			c-1,0.57-0.52,19.99-1.45,25.23c-0.91,5.25-5.36,9.85-6.99,9.72c-1.59-0.11-0.64,3.74,0.47,3.39c1.15-0.34-3.14,5.73-3.71,9.7
			c-0.56,3.97-4.59-0.17-5.25-3.78c-0.66-3.61-4.6-8.5-5.36-7.25c-0.75,1.22-3.46-1.47-4.66-0.71c-1.16,0.78-8.63-4.33-11.64-5.98
			c-2.99-1.59-4.69-10.85-6.41-11.65c-1.74-0.83-0.27-1.93-0.34-3.34c-0.05-1.39,5.82-6.78,7.61-8.89
			c1.77-2.16,8.22-10.55,10.78-12.35c2.58-1.82,4.57-6.62,4.14-7.53c-0.45-0.85,10.95-4.42,14.04-5.49
			c3.06-1.06,5.77-9.67,6.18-12.14c0.41-2.49-1.95-7.16-3.37-7.78c-1.45-0.61,4.3-0.83,6.2,0.13c1.92,0.93,7.79-1.75,10.14-0.51
			c2.29,1.22,7,4.01,10.39,6.16c0,0,0,0-0.72,6.33c-1.4,10.71-1.4,10.71-1.4,10.71c-8.99,3.73-11.57,10.16-8.44,10.03
			c3.15-0.16,17.5,6.21,21.57,9.12c4.05,2.9,5.32-4.21,6.52-6.59c1.2-2.32,0.81-9.21-0.16-10.57c-0.97-1.37,4.69-0.88,6.29,0.64
			c1.59,1.52,3.46-1.57,4.69-2.11c1.22-0.56,1.81-6.44,2.49-7.62c0.63-1.21-2.69-2.41-2.79-3.87c-0.11-1.5-6.56-4.29-8.65-5.3
			c-2.11-1.01-2.58-5.45-1.56-6.21c1.02-0.78-0.72-6.44-1.76-8.31c-1-1.88-7.76-3.39-10.01-3.39c-2.24,0-4.55-5.21-5.86-5.98
			c-1.29-0.73-9.94-1.69-12.06-1.06c-2.15,0.62-6.07-6.13-9.67-4.07c-3.62,2.06-7.33-2.42-8.96-3.32
			c-1.65-0.88-10.09,8.19-10.03,14.55c0.11,6.41,3.31,12.57,4.62,12.75c1.33,0.18-0.3,5.95-1.77,7.6c-1.47,1.63-5.02-1.74-3.67-3.19
			c1.31-1.44-3.67-8.12-5.39-10.83c-1.16-1.84-5.03-3.45-7.97-4.62c-1.9,2.04-3.76,4.1-5.61,6.17c0.61,2.21,1.2,4.85,0.52,6.93
			c-1.24,3.89-4.5,4.49-4.69,2.8c-0.09-0.69-1.56-1.21-3.31-1.48c-7.95,9.46-15.46,19.31-22.5,29.51c-1.63,2.38-3.22,4.79-4.8,7.21
			c-4.57,6.92-8.81,14.05-12.93,21.27c-1.83,3.23-3.78,6.39-5.52,9.68c-4.69,8.82-9.01,17.86-13.04,27.07
			c-2.54,5.91-4.8,11.98-7.06,18.04c-1.43,3.78-2.87,7.56-4.17,11.39c-2.4,7.06-4.66,14.2-6.66,21.44
			c-0.56,2.01-1.02,4.05-1.56,6.07c-4.41,17.04-7.83,34.48-9.91,52.33c1.88,2.16,4.01,4.7,4.57,6.53c1.09,3.42,7.06,5.69,8.19,6.38
			c1.07,0.68,1.49-6.56,0.68-8.46c-0.77-1.88,1.45-3.01,1.4-1.62c-0.05,1.4,5.63,7.76,7.47,10.08c1.86,2.29,3.8,17.2,5.57,20.39
			c1.77,3.19,18.97,9.83,24.52,10.99c5.52,1.17,12.49,7.36,13.6,9.15c1.06,1.79,8.4,2.69,9.98,3.39c1.61,0.75,5.36,5.72,6.93,6.75
			c1.56,1.05,2.79,4,2.79,4.8c0,0.79,9.71,4.46,12.06,7.05c2.36,2.6,6.25,1.89,6.99,0.8c0.73-1.1,2.65,5.16,3.65,7.31
			c0.99,2.17,1.24,7.48,0.47,8.33c-0.75,0.82-2.15,10.6-3.82,12.55c-1.65,1.96-5.09,16.15-4.34,18.94c0.75,2.83,5.28,8.6,7.27,9.47
			c1.95,0.86,1.11,3.89-0.41,4.1c-1.58,0.19-0.84,13.75,2.81,15.76c3.65,1.99,6.72,7.99,6.18,9.04
			C403.03,508.13,409.99,515.3,412.72,517.72z"/>
		<path class="st2" d="M422.84,104.54c4.68-0.77,12.43-2.07,12.99-3.39c0.38-1.08,0.43-4.29-0.45-5.41
			c0.75,0.05,1.61,0.07,2.26,0.07c1.77,0,4.75-9.72,6.59-11.99c1.88-2.28,12.58-5.62,15.12-7.15c2.54-1.56,8.12-6.91,10.25-7.54
			c2.15-0.65,5.27-5.63,4.78-6.65c-0.45-0.98,7.24-5.67,10.19-6.9c2.9-1.24,4.42-4.67,3.31-4.81c-0.45-0.06-8.08,3.84-17.41,8.89
			c-9.73,5.96-19.17,12.31-28.3,19.08c-8.62,6.46-17.13,13.07-25.17,20.21c-2.69,2.35-5.3,4.77-7.92,7.19
			C413.72,105.76,420.01,105.02,422.84,104.54z"/>
		<path class="st2" d="M400.98,168.27c-1.34,1.27-0.16,7.6,2.44,7.78c2.58,0.18,6.7-9.55,9.87-7.6c3.15,1.95,5.28,2.72,4.77,1.68
			c-0.52-1.02-9.53-4.96-10.64-5.71C406.29,163.76,402.38,167.06,400.98,168.27z"/>
		<path class="st2" d="M601.1,82.97c1.07-0.98,2.45-7.23,1.85-8.42c-0.66-1.22,4.46-2.57,5.34-3.99c0.91-1.41,6.75-4.21,8.83-4.67
			c2.06-0.48,3.17-5.95,0.95-5.71c-2.26,0.28-8.08-0.9-9.08-1.97c-0.99-1.06-9.73-2-12.24-0.95c-2.53,1.06-0.81-6.14,2.71-6.91
			c3.49-0.8,0.52-5.75-3.19-5.75c-3.76-0.03-12.95-1.38-15.1-0.9c-2.19,0.47-6.41-1.51-7.94-1.74c-1.56-0.22-12.61,3.31-17.82,3.04
			c-5.27-0.22-18.09,0.3-20.87,1.08c-2.83,0.73-4.84,6.18-4.44,8.1c0.43,1.95-12.41,1.9-16.45,1.96
			c-4.05,0.06-25.58,4.64-31.19,7.74c-5.63,3.08-10.01,10.98-8.17,11.14c1.86,0.15-3.12,4.63-6.14,5.69
			c-3.01,1.03-10.21,1.49-11.93,3.19c-1.68,1.69,1.81,2.86,2.49,4.01c0.64,1.11,2.67-1,4.59,0.1c1.88,1.07,8.17,1.58,9.82,2.22
			c1.68,0.66-5.32,1.99-8.6,2.23c-3.3,0.22-2.54,6.68,0.13,7.57c2.69,0.91,9.58,1.86,10.28,0.74c0.72-1.12,8.2,1.21,11.59,1.62
			c3.35,0.35,5.97,8.82,6.97,10.66c1.04,1.83,1.27,8.27,1,10.14c-0.23,1.85,5.97,5.25,7.09,4.07c1.09-1.18,0.77,2.92-1.7,2.7
			c-2.47-0.22-0.86,6.94,2.22,7.98c3.05,1.02,0.95,5.42-0.81,6.77c-1.77,1.31-0.81,5.53-2.63,7.04c-1.79,1.5,6.43,15.73,6.38,23.07
			c-0.05,7.31,4.51,13.29,6.27,13.29c1.74,0,7.76,1.46,8.56,3.04c0.79,1.56,3.69-1.09,4.85-2.29c1.11-1.19,3.58-4.72,5.43-7.82
			c1.85-3.11,5.97-17.79,6.52-19.37c0.57-1.58,7.45-0.59,9.03-1.4c1.56-0.81,6.09-4.36,7.36-5.42c1.29-1.06,11.12-5.22,13.83-7.16
			c2.65-1.91,7.15-10.26,9.23-12.03c2.1-1.8-1.07-1.27-3.71-2.98c-2.58-1.71-1.45-3.81-0.68-4.61c0.73-0.82,8.67,1.32,11.41,2.37
			c2.74,1.08,7.95-2.68,5.97-4.15c-2.04-1.44-0.97-1.4,0-0.79c0.95,0.59,1.99-4.81,0.95-5.83c-1.07-1.05,8.01-7.67,6.41-13.92
			c-1.59-6.25,2.47-12.67,4.91-12.75c2.44-0.07,1.72-7.06-1.2-7.72C597.27,84.62,600.01,83.97,601.1,82.97z"/>
		<path class="st2" d="M401.2,353.29c-1.47-0.58-2.67,1.74-2.67,2.84c0,1.09,0.82,1.99,1.81,1.99
			C401.36,358.13,402.67,353.89,401.2,353.29z"/>
		<path class="st2" d="M880.84,417.51c-1.4,2.88,7.49,8.98,8.17,7.58c0.73-1.4-1.13-8.44-2.72-10.01
			C884.72,413.55,882.27,414.64,880.84,417.51z"/>
		<path class="st2" d="M1027.14,413.27c0.5,1.07,5.18-2.66,7.99-3.09c2.83-0.44,4.6-8,2.4-8.52c-2.24-0.62-5.02-6.4-6.59-7.11
			c-1.59-0.71-4.69,2.49-4.55,4.78c0.11,2.3-5.14,3.22-6.13,5.14c-0.99,1.9-0.91,3.28,0.16,3.08
			C1021.48,407.36,1026.68,412.23,1027.14,413.27z"/>
		<path class="st2" d="M961.45,458.59c-1.63-3.71-7.04-9.94-12.02-13.89c0,0,0,0-1.88-3.1c-2.06-3.41-2.06-3.41-2.06-3.41
			c-1.86-3.76-7.45-6.64-7.94-7.75c-0.48-1.1-2.28,3.25-4.17,1.99c1,0.69,3.08,2.17,6.02,4.27c5.25,3.76,15.37,29.19,17.66,30.97
			C959.34,469.44,963.08,462.3,961.45,458.59z"/>
		<path class="st2" d="M1048.32,497.08c-5.14,0.12-11.84,2.54-11.95,4.29c-0.09,1.77-7.17,4.94-9.51,5.89
			c-2.35,0.95-6.9,8.2-7.9,10.57c-0.99,2.39-6.77,1.67-8.92,2.65c-2.11,0.94-6.54,4.49-6.57,6.64c0,2.11-1.2,1.89-2.63-0.55
			c0,0,0,0-2.83,2.97c-3.31,3.7-3.31,3.7-3.31,3.7c-1.93,6.01-8.26,13.57-10.46,14.22c-2.19,0.6-2.56,11.15-2.56,15.38
			c0,4.27,1.65,9.5,3.67,11.65c0,0,0,0,0.45,3.37c0.72,6.72,0.72,6.72,0.72,6.72c-1.16,5.17,2.78,9.81,3.94,10.73
			c1.13,0.88,10.78-1.74,14.47-2.64c0.84-0.19,1.88-0.74,2.87-1.16c17.5-29.24,31.28-60.86,40.68-94.42
			C1048.43,497.09,1048.37,497.07,1048.32,497.08z"/>
		<path class="st2" d="M762.85,553.36c0.36,3.03,6.48,5.41,8.24,4.92c1.85-0.49,6.77-9.63,7.45-12.26c0.72-2.65,1.27-8.3,1.27-9.65
			c0-1.32,0.82-4.36,1.5-4.75c0.66-0.34,1.81-3.47,2.49-6.87c0.68-3.48-3.69-19.51-3.82-22.31c-0.11-2.84-3.28,1.45-4.08,4.3
			c-0.88,2.84-8.83,8.65-10.62,11.08c-1.76,2.41-3.71,10.61-3.01,12.03c0.64,1.41-0.7,6.99-1.52,8.54
			C760,539.95,762.55,550.32,762.85,553.36z"/>
		<path class="st2" d="M1018.31,445.68c-2.94-0.6-11,9.83-9.49,15.84c1.56,5.98,3.26,5.62,4.08,4.35c0.84-1.26,5.66,0.81,7.08,1.3
			c1.42,0.45,1.42-0.99,0-3.19c-1.42-2.23,0.02-9.19,1.42-9.7C1022.79,453.77,1021.21,446.31,1018.31,445.68z"/>
		<path class="st2" d="M1019.31,381.45c1-2.35-1.25-4.96-5.03-5.76c-3.78-0.77-3.22,10.59-1.56,12.04
			C1014.35,389.14,1018.28,383.83,1019.31,381.45z"/>
		<path class="st2" d="M1005.41,447.01c0.32-2.66,0.84-11,1.31-12.65c0.43-1.66-4.53-6.44-7-7.3c-2.44-0.85-10.32,16.22-15.94,19.26
			c-5.7,3.04-7.72,13.42-6.23,15.83c1.49,2.4,13.29,3.68,15.35,5.49c2.06,1.8,4.35-0.29,5.57-0.6c1.25-0.3,0.86-1.1,0.39-1.41
			c-0.48-0.28,4.1-5.13,4.78-8.22C1004.27,454.37,1005.05,449.66,1005.41,447.01z"/>
		<path class="st2" d="M1005.13,352.82c-1.67,2.06-0.43,7.37,0.09,9.26c0.52,1.83,2.17,1.71,3.56-0.26
			C1010.2,359.9,1006.83,350.75,1005.13,352.82z"/>
		<path class="st2" d="M963.31,478.08c-0.45,1.71,17.04,4.48,22.84,6.06c5.75,1.58,9.37,2.08,8.06,1.1
			c-1.33-0.98-16.46-8.13-20.89-9.81C968.9,473.78,963.73,476.39,963.31,478.08z"/>
	</g>
</g>
</svg>
