<svg xmlns="http://www.w3.org/2000/svg" width="45" height="40" viewBox="0 0 45 40">
    <g>
        <path d="M42.012 0H2.603C1.168 0 0 1.165 0 2.598v24.37c0 1.432 1.168 2.597 2.603 2.597h18.35c.778 3.285 2.538 5.61 4.075 7.101C27.272 38.841 29.844 40 30.838 40c.995 0 3.567-1.158 5.811-3.334 1.537-1.49 3.297-3.816 4.074-7.1h1.29c1.435 0 2.602-1.166 2.602-2.598V2.598C44.615 1.165 43.448 0 42.012 0zm-2.625 26.002c0 4.581-2.12 7.62-3.897 9.363-2.11 2.067-4.273 2.871-4.652 2.896-.378-.025-2.542-.829-4.65-2.896-1.779-1.743-3.898-4.782-3.898-9.363v-4.283c3-.865 5.807-2.05 8.549-3.608 2.68 1.518 5.612 2.756 8.548 3.608v4.283zm3.486.966c0 .473-.387.858-.86.858h-.987c.067-.583.104-1.19.104-1.824V21.06c0-.392-.264-.736-.643-.84-3.164-.857-6.349-2.193-9.208-3.863-.272-.159-.609-.159-.88 0-2.942 1.718-5.954 2.982-9.209 3.864-.38.103-.643.447-.643.839v4.942c0 .634.037 1.241.104 1.824H2.603c-.474 0-.86-.385-.86-.858V12.174h41.13v14.794zm0-16.533H1.743V6.957h41.13v3.478zm0-5.218H1.743v-2.62c0-.473.386-.858.86-.858h39.41c.473 0 .86.385.86.859v2.62z"/>
        <path d="M10.482 18.462c-.52 0-1.032.104-1.507.302-.464-.195-.974-.302-1.508-.302-2.138 0-3.877 1.725-3.877 3.846 0 2.12 1.739 3.846 3.877 3.846.534 0 1.044-.108 1.508-.303.475.199.987.303 1.507.303 2.138 0 3.877-1.726 3.877-3.846 0-2.121-1.74-3.846-3.877-3.846zm-3.015 5.982c-1.188 0-2.154-.958-2.154-2.136 0-1.179.966-2.137 2.154-2.137 1.187 0 2.154.958 2.154 2.137 0 1.178-.967 2.136-2.154 2.136zm3.228-.01c.41-.61.649-1.34.649-2.126 0-.786-.24-1.517-.649-2.126 1.088.106 1.94 1.02 1.94 2.126 0 1.106-.852 2.02-1.94 2.126zM8.882 14.359h-4.43c-.477 0-.862.344-.862.77 0 .424.385.768.861.768h4.431c.476 0 .862-.344.862-.769 0-.425-.386-.769-.862-.769zM11.556 14.359h-.035c-.415 0-.752.344-.752.77 0 .424.337.768.752.768h.035c.415 0 .752-.344.752-.769 0-.425-.337-.769-.752-.769zM35.638 24.85c-.346-.347-.908-.347-1.254 0l-4.743 4.767-2.486-2.498c-.346-.348-.908-.348-1.254 0-.347.348-.347.913 0 1.26l3.112 3.13c.174.173.4.26.628.26.227 0 .454-.087.627-.26l5.37-5.398c.346-.348.346-.912 0-1.26z"/>
    </g>
</svg>
