<?xml version="1.0" encoding="utf-8"?>
<!-- Generator: Adobe Illustrator 25.0.0, SVG Export Plug-In . SVG Version: 6.00 Build 0)  -->
<svg version="1.1" id="Layer_1" xmlns="http://www.w3.org/2000/svg" xmlns:xlink="http://www.w3.org/1999/xlink" x="0px" y="0px"
	 viewBox="0 0 28 28" style="enable-background:new 0 0 28 28;" xml:space="preserve">
<style type="text/css">
	.st0{fill-rule:evenodd;clip-rule:evenodd;}
	.st1{fill:#FFFFFF;}
</style>
<g>
	<path class="st0" d="M14,0L14,0c7.7,0,14,6.3,14,14l0,0c0,7.7-6.3,14-14,14l0,0C6.3,28,0,21.7,0,14l0,0C0,6.3,6.3,0,14,0z"/>
	<path class="st1" d="M19.2,12.2C19.1,12.1,19,12,18.9,12h-4.4l0.7-5.6c0-0.2-0.1-0.3-0.2-0.4c-0.1-0.1-0.3,0-0.4,0.1l-5.3,9.3
		c-0.1,0.1-0.1,0.2,0,0.3C9.4,15.9,9.5,16,9.6,16h4.3l-0.6,5.6c0,0.2,0.1,0.3,0.2,0.3c0.1,0,0.3,0,0.4-0.1l5.2-9.3
		C19.3,12.4,19.3,12.3,19.2,12.2L19.2,12.2z"/>
</g>
</svg>
