<svg xmlns="http://www.w3.org/2000/svg" width="16" height="16" viewBox="0 0 16 16">
    <path fill="#98A5B9" fill-rule="evenodd" d="M8 .25c4.281 0 7.75 3.469 7.75 7.75 0 4.281-3.469 7.75-7.75 7.75C3.719 15.75.25 12.281.25 8 .25 3.719 3.719.25 8 .25zM5.834 5.037c-.147-.146-.384-.146-.53 0l-.267.266c-.146.147-.146.384 0 .531L7.203 8l-2.166 2.166c-.146.146-.146.384 0 .53l.266.267c.147.146.384.146.531 0L8 8.796l2.166 2.165c.146.147.384.147.53 0l.267-.265c.146-.147.146-.384 0-.531L8.796 8l2.165-2.166c.144-.147.144-.384 0-.53l-.265-.267c-.147-.146-.384-.146-.531 0L8 7.203z"/>
</svg>
