<svg xmlns="http://www.w3.org/2000/svg" width="58" height="40" viewBox="0 0 58 40">
    <g fill="none" fill-rule="evenodd">
        <g fill="#505F77" fill-rule="nonzero">
            <g>
                <g>
                    <g>
                        <path d="M45.048 0c2.538.003 4.594 2.084 4.597 4.651v16.932c4.625.955 7.783 5.299 7.308 10.05-.475 4.752-4.43 8.368-9.15 8.366-4.72-.001-8.672-3.62-9.144-8.371H4.597C2.059 31.625.003 29.544 0 26.977V4.65C.003 2.084 2.06.003 4.597 0zm2.758 23.256c-4.062 0-7.354 3.332-7.354 7.442s3.292 7.442 7.354 7.442c4.06-.005 7.35-3.334 7.355-7.442 0-4.11-3.293-7.442-7.355-7.442zm3.074 4.88c.247-.218.591-.287.902-.179.31.108.54.376.604.702.063.326-.05.661-.298.88l-5.405 4.764c-.364.32-.912.302-1.254-.044l-1.947-1.97c-.232-.235-.323-.577-.238-.899.085-.32.333-.571.65-.657.318-.086.656.006.888.24l1.34 1.356zm-3.074-16.043H1.84v14.884c.001 1.54 1.235 2.789 2.758 2.79h34.062c.478-4.75 4.428-8.366 9.147-8.372v-9.302zM9.194 24.186c.507 0 .919.417.919.93 0 .514-.412.93-.92.93H4.598c-.508 0-.92-.416-.92-.93 0-.513.412-.93.92-.93zm3.677 0c.508 0 .92.417.92.93 0 .514-.412.93-.92.93h-.92c-.507 0-.919-.416-.919-.93 0-.513.412-.93.92-.93zm1.839-2.79c.507 0 .919.416.919.93 0 .513-.412.93-.92.93H4.598c-.508 0-.92-.417-.92-.93 0-.514.412-.93.92-.93zm0-7.443c.507 0 .919.417.919.93v4.652c0 .514-.412.93-.92.93H4.598c-.508 0-.92-.416-.92-.93v-4.651c0-.514.412-.93.92-.93zm-.92 1.861H5.516v2.79h8.274v-2.79zm34.016-9.302H1.84v3.72h45.967v-3.72zM45.048 1.86H4.597c-1.523.002-2.757 1.25-2.758 2.791h45.967c-.001-1.54-1.235-2.789-2.758-2.79z" transform="translate(-71 -3017) translate(0 2932) translate(16 73) translate(55.933 12)"/>
                    </g>
                </g>
            </g>
        </g>
    </g>
</svg>
