<svg xmlns="http://www.w3.org/2000/svg" width="40" height="40" viewBox="0 0 40 40">
    <g fill="#444">
        <path d="M15 0H0v15h15V0zm-2.5 12.5h-10v-10h10v10z"/>
        <path d="M5 5L10 5 10 10 5 10zM0 40h15V25H0v15zm2.5-12.5h10v10h-10v-10z"/>
        <path d="M5 30L10 30 10 35 5 35zM25 0v15h15V0H25zm12.5 12.5h-10v-10h10v10z"/>
        <path d="M30 5L35 5 35 10 30 10zM5 17.5L0 17.5 0 22.5 7.5 22.5 7.5 20 5 20zM17.5 22.5L22.5 22.5 22.5 27.5 17.5 27.5zM7.5 17.5L12.5 17.5 12.5 20 7.5 20zM22.5 30L17.5 30 17.5 32.5 20 32.5 20 35 22.5 35 22.5 32.5zM15 17.5L15 20 12.5 20 12.5 22.5 17.5 22.5 17.5 17.5zM20 10L22.5 10 22.5 15 20 15zM22.5 20L22.5 22.5 27.5 22.5 27.5 17.5 20 17.5 20 20zM17.5 15L20 15 20 17.5 17.5 17.5zM22.5 35L27.5 35 27.5 40 22.5 40zM17.5 35L20 35 20 40 17.5 40zM22.5 27.5L25 27.5 25 30 22.5 30zM22.5 7.5L22.5 2.5 20 2.5 20 0 17.5 0 17.5 10 20 10 20 7.5zM30 35L32.5 35 32.5 40 30 40zM30 30L35 30 35 32.5 30 32.5zM27.5 32.5L30 32.5 30 35 27.5 35zM25 30L27.5 30 27.5 32.5 25 32.5zM35 25L35 27.5 37.5 27.5 37.5 30 40 30 40 25 37.5 25zM37.5 32.5L35 32.5 35 40 40 40 40 35 37.5 35zM25 25L25 27.5 32.5 27.5 32.5 22.5 27.5 22.5 27.5 25zM30 17.5L30 20 35 20 35 22.5 40 22.5 40 17.5 35 17.5z"/>
    </g>
</svg>
