<svg xmlns="http://www.w3.org/2000/svg" xmlns:xlink="http://www.w3.org/1999/xlink" width="58" height="58" viewBox="0 0 58 58">
    <defs>
        <path id="v6x33l8mya" d="M0 0H58V58H0z"/>
    </defs>
    <g fill="none" fill-rule="evenodd">
        <g>
            <g>
                <g>
                    <g>
                        <g transform="translate(-620 -498) translate(112 252) translate(508) translate(0 198) translate(0 48)">
                            <mask id="rpmvokabsb" fill="#fff">
                                <use xlink:href="#v6x33l8mya"/>
                            </mask>
                            <path fill="#D7E9FF" fill-rule="nonzero" d="M33.35 2.356L26.1 11.419 33.35 20.481 56.006 20.481 56.006 2.356z" mask="url(#rpmvokabsb)"/>
                            <path fill="#94C1FF" fill-rule="nonzero" d="M53.285 2.356L56.006 2.356 56.006 20.481 53.285 20.481z" mask="url(#rpmvokabsb)"/>
                            <path fill="#CCE6FF" fill-rule="nonzero" d="M37.881 41.325L52.381 41.325 52.381 58.544 37.881 58.544z" mask="url(#rpmvokabsb)"/>
                            <path fill="#B7B7B7" fill-rule="nonzero" d="M-0.544 41.325L37.881 41.325 37.881 58.544 -0.544 58.544z" mask="url(#rpmvokabsb)"/>
                            <path fill="#52A9FF" fill-rule="nonzero" d="M37.881 42.231H-.544c-.501 0-.906-.405-.906-.906s.405-.906.906-.906h38.425c.502 0 .907.405.907.906s-.405.906-.907.906z" mask="url(#rpmvokabsb)"/>
                            <path fill="#52A9FF" fill-rule="nonzero" d="M37.881 59.45c-.501 0-.906-.405-.906-.906V41.325c0-.501.405-.906.906-.906.502 0 .907.405.907.906v17.219c0 .501-.405.906-.907.906zM52.381 59.45c-.501 0-.906-.405-.906-.906V41.325c0-.501.405-.906.906-.906.502 0 .907.405.907.906v17.219c0 .501-.405.906-.907.906z" mask="url(#rpmvokabsb)"/>
                            <path fill="#52A9FF" fill-rule="nonzero" d="M52.381 42.231h-14.5c-.501 0-.906-.405-.906-.906s.405-.906.906-.906h14.5c.502 0 .907.405.907.906s-.405.906-.907.906z" mask="url(#rpmvokabsb)"/>
                            <path fill="#52A9FF" fill-rule="nonzero" d="M45.131 59.45c-.501 0-.906-.405-.906-.906V41.325c0-.501.405-.906.906-.906.502 0 .907.405.907.906v17.219c0 .501-.405.906-.907.906zM7.069 48.575c-.502 0-.907-.405-.907-.906V34.075c0-.501.405-.906.907-.906.501 0 .906.405.906.906v13.594c0 .501-.405.906-.906.906zM27.006 48.575c-.501 0-.906-.405-.906-.906V34.075c0-.501.405-.906.906-.906.502 0 .907.405.907.906v13.594c0 .501-.405.906-.907.906z" mask="url(#rpmvokabsb)"/>
                            <path fill="#52A9FF" fill-rule="nonzero" d="M27.006 34.981c-.501 0-.906-.405-.906-.906 0-4.997-4.065-9.063-9.063-9.063-4.997 0-9.062 4.066-9.062 9.063 0 .501-.405.906-.906.906-.502 0-.907-.405-.907-.906 0-5.997 4.879-10.875 10.876-10.875 5.996 0 10.875 4.878 10.875 10.875 0 .501-.405.906-.907.906z" mask="url(#rpmvokabsb)"/>
                            <path fill="#52A9FF" fill-rule="nonzero" d="M19.756 42.231c-.501 0-.906-.405-.906-.906v-7.25c0-.501.405-.906.906-.906.502 0 .907.405.907.906v7.25c0 .501-.405.906-.907.906zM39.694 42.231c-.502 0-.907-.405-.907-.906v-7.25c0-.501.405-.906.907-.906.501 0 .906.405.906.906v7.25c0 .501-.405.906-.906.906z" mask="url(#rpmvokabsb)"/>
                            <path fill="#52A9FF" fill-rule="nonzero" d="M39.694 34.981c-.502 0-.907-.405-.907-.906 0-4.997-4.065-9.063-9.062-9.063-4.997 0-9.063 4.066-9.063 9.063 0 .501-.404.906-.906.906-.501 0-.906-.405-.906-.906 0-5.997 4.878-10.875 10.875-10.875S40.6 28.078 40.6 34.075c0 .501-.405.906-.906.906zM56.006 21.387H33.35c-.276 0-.535-.125-.708-.34l-7.25-9.063c-.265-.33-.265-.802 0-1.133l7.25-9.061c.173-.215.432-.34.708-.34h22.656c.502 0 .907.405.907.906v18.125c0 .502-.405.906-.907.906zm-22.221-1.812H55.1V3.262H33.785l-6.525 8.156 6.525 8.157z" mask="url(#rpmvokabsb)"/>
                            <path fill="#52A9FF" fill-rule="nonzero" d="M26.825 25.375c-.501 0-.906-.405-.906-.906V10.875c0-.501.405-.906.906-.906s.906.405.906.906v13.594c0 .501-.405.906-.906.906zM40.147 10.512c-1.25 0-2.266-1.015-2.266-2.265 0-1.25 1.016-2.266 2.266-2.266s2.266 1.016 2.266 2.266-1.016 2.265-2.266 2.265zm0-2.718c-.25 0-.453.204-.453.453 0 .249.204.453.453.453.249 0 .453-.204.453-.453 0-.25-.204-.453-.453-.453zM46.49 16.856c-1.249 0-2.265-1.016-2.265-2.265 0-1.25 1.016-2.266 2.266-2.266s2.265 1.016 2.265 2.266-1.016 2.265-2.265 2.265zm0-2.719c-.249 0-.453.204-.453.454 0 .249.204.453.454.453.249 0 .453-.204.453-.453 0-.25-.204-.454-.453-.454zM38.788 16.856c-.232 0-.465-.089-.641-.265-.355-.355-.355-.927 0-1.282l9.062-9.062c.355-.355.927-.355 1.282 0 .354.354.354.927 0 1.281l-9.063 9.063c-.176.176-.409.265-.64.265z" mask="url(#rpmvokabsb)"/>
                            <path fill="#FFBA36" fill-rule="nonzero" stroke="#D29624" stroke-width=".25" d="M56.006 1.45c.502 0 .907.405.907.906v18.125c0 .502-.405.906-.907.906H33.35c-.276 0-.535-.125-.708-.34l-4.911-6.139v8.475c.647-.12 1.313-.183 1.994-.183 5.9 0 10.717 4.722 10.871 10.586l.004.289h0v6.343h11.781c.502 0 .907.406.907.907v17.219c0 .501-.405.906-.907.906-.501 0-.906-.405-.906-.906h-5.438c0 .501-.404.906-.906.906-.501 0-.906-.405-.906-.906h-5.438c0 .501-.404.906-.906.906-.501 0-.906-.405-.906-.906H-.544V42.23c-.501 0-.906-.405-.906-.906s.405-.906.906-.906l6.706-.001v-6.343c0-5.997 4.879-10.875 10.876-10.875 2.365 0 4.557.76 6.344 2.047.775-.56 1.627-1.019 2.536-1.36V12.643l-.526-.658c-.265-.33-.265-.802 0-1.133l7.25-9.061c.173-.215.432-.34.708-.34h22.656zM29.725 25.013c-1.813 0-3.504.535-4.922 1.456 1.86 1.898 3.031 4.473 3.106 7.317l.004.289h0l-.001 6.343h10.875v-6.343c0-4.997-4.065-9.063-9.062-9.063zm-12.688 0c-4.907 0-8.917 3.92-9.058 8.795l-.004.267h0v6.343H18.85v-6.343c0-2.958 1.187-5.643 3.11-7.606-1.418-.921-3.109-1.457-4.922-1.457zm6.345 2.597l-.062.06c-1.583 1.582-2.584 3.745-2.654 6.138l-.003.267h0l-.001 6.343H26.1v-6.343c0-2.53-1.041-4.82-2.718-6.465z" style="mix-blend-mode:color" mask="url(#rpmvokabsb)"/>
                        </g>
                    </g>
                </g>
            </g>
        </g>
    </g>
</svg>
