<?xml version="1.0" encoding="utf-8"?>
<!-- Generator: Adobe Illustrator 25.0.0, SVG Export Plug-In . SVG Version: 6.00 Build 0)  -->
<svg version="1.1" id="Layer_1" xmlns="http://www.w3.org/2000/svg" xmlns:xlink="http://www.w3.org/1999/xlink" x="0px" y="0px"
	 viewBox="0 0 28 28" style="enable-background:new 0 0 28 28;" xml:space="preserve">
<style type="text/css">
	.st0{fill-rule:evenodd;clip-rule:evenodd;}
	.st1{fill:#FFFFFF;}
</style>
<g>
	<path class="st0" d="M14,0L14,0c7.7,0,14,6.3,14,14l0,0c0,7.7-6.3,14-14,14l0,0C6.3,28,0,21.7,0,14l0,0C0,6.3,6.3,0,14,0z"/>
	<g>
		<path class="st1" d="M18.8,8.2H9.2c-0.9,0-1.6,0.7-1.6,1.6v3.4c0,1.1,0.9,1.9,1.9,1.9c0.6,0,1.1-0.3,1.4-0.7
			c0.4,0.4,0.9,0.7,1.5,0.7c0.6,0,1.2-0.3,1.5-0.7c0.4,0.4,0.9,0.7,1.5,0.7c0.6,0,1.1-0.3,1.5-0.7c0.4,0.4,0.9,0.7,1.4,0.7
			c1.1,0,1.9-0.9,1.9-1.9V9.8C20.4,8.9,19.7,8.2,18.8,8.2z M10.4,13v0.1c0,0.5-0.4,0.9-0.9,0.9c-0.5,0-0.9-0.4-0.9-0.9v-1.8h1.7
			C10.4,11.4,10.4,13,10.4,13z M13.5,13c0,0.6-0.4,1-1,1c-0.6,0-1-0.4-1-1v-1.7h2V13z M16.5,13c0,0.6-0.4,1-1,1s-1-0.4-1-1v-1.7h2
			V13z M19.3,13.2c0,0.5-0.4,0.9-0.9,0.9c-0.5,0-0.9-0.4-0.9-0.9v-1.8h1.7V13.2L19.3,13.2z M19.3,16.3v2.3c0,0.3-0.2,0.5-0.5,0.5
			H9.2c-0.3,0-0.5-0.2-0.5-0.5v-2.3c-0.4-0.1-0.8-0.3-1.1-0.6v2.8c0,0.9,0.7,1.6,1.6,1.6h9.6c0.9,0,1.6-0.7,1.6-1.6v-2.8
			C20.1,16,19.7,16.2,19.3,16.3L19.3,16.3z"/>
	</g>
</g>
</svg>
