<svg xmlns="http://www.w3.org/2000/svg" width="58" height="40" viewBox="0 0 58 40">
    <g fill="none" fill-rule="evenodd">
        <g fill-rule="nonzero">
            <g>
                <g>
                    <g transform="translate(-71 -2648) translate(0 2563) translate(16 73) translate(55.933 12)">
                        <path fill="#39F" d="M4.597 14.884L14.71 14.884 14.71 19.535 4.597 19.535zM.919 5.581L48.726 5.581 48.726 11.163.919 11.163z"/>
                        <ellipse cx="47.806" cy="30.698" fill="#39F" rx="8.274" ry="8.372"/>
                        <g fill="#06C">
                            <path d="M49.645 21.583V4.65C49.642 2.084 47.585.003 45.048 0H4.597C2.059.003.003 2.084 0 4.651v22.326c.003 2.567 2.06 4.648 4.597 4.65h34.062c.472 4.753 4.424 8.37 9.145 8.372 4.72.002 8.674-3.614 9.15-8.366.474-4.751-2.684-9.095-7.309-10.05zM4.597 1.86h40.451c1.523.002 2.757 1.25 2.758 2.791H1.84c.001-1.54 1.235-2.789 2.758-2.79zM1.839 6.512h45.967v3.72H1.84v-3.72zm2.758 23.255c-1.523-.001-2.757-1.25-2.758-2.79V12.093h45.967v9.302c-4.719.006-8.67 3.622-9.147 8.372H4.597zm43.21 8.373c-4.063 0-7.355-3.332-7.355-7.442s3.292-7.442 7.354-7.442 7.355 3.332 7.355 7.442c-.004 4.108-3.294 7.437-7.355 7.442z"/>
                            <path d="M14.71 13.953H4.597c-.508 0-.92.417-.92.93v4.652c0 .514.412.93.92.93H14.71c.507 0 .919-.416.919-.93v-4.651c0-.514-.412-.93-.92-.93zm-.92 4.652H5.516v-2.791h8.274v2.79zM14.71 21.395H4.597c-.508 0-.92.417-.92.93 0 .514.412.93.92.93H14.71c.507 0 .919-.416.919-.93 0-.513-.412-.93-.92-.93zM9.194 24.186H4.597c-.508 0-.92.417-.92.93 0 .514.412.93.92.93h4.597c.507 0 .919-.416.919-.93 0-.513-.412-.93-.92-.93zM12.871 24.186h-.92c-.507 0-.919.417-.919.93 0 .514.412.93.92.93h.919c.508 0 .92-.416.92-.93 0-.513-.412-.93-.92-.93zM50.88 28.136l-4.758 4.193-1.34-1.355c-.232-.235-.57-.327-.888-.241-.317.086-.565.336-.65.657-.085.322.006.664.238.9l1.947 1.969c.342.346.89.365 1.254.044l5.405-4.764c.247-.219.36-.554.298-.88-.063-.326-.293-.594-.604-.702-.31-.108-.655-.04-.902.179z"/>
                        </g>
                    </g>
                </g>
            </g>
        </g>
    </g>
</svg>
