<?xml version="1.0" encoding="UTF-8"?>
<svg width="45px" height="40px" viewBox="0 0 45 40" version="1.1" xmlns="http://www.w3.org/2000/svg" xmlns:xlink="http://www.w3.org/1999/xlink">
    <!-- Generator: Sketch 64 (93537) - https://sketch.com -->
    <title>icon-payment-gateway-active</title>
    <desc>Created with Sketch.</desc>
    <g id="Page-1" stroke="none" stroke-width="1" fill="none" fill-rule="evenodd">
        <g id="icon-payment-gateway-active" fill="#0080FF" fill-rule="nonzero">
            <g id="Group" transform="translate(0.869565, 0.869565)">
                <path d="M33.4477391,24.1326087 C33.7874783,23.7931304 34.338,23.7933043 34.6773913,24.1326957 C35.0169565,24.4724348 35.0169565,25.0230435 34.6773043,25.3625217 L34.6773043,25.3625217 L29.4123478,30.6271304 C29.2426957,30.7969565 29.020087,30.881913 28.7975652,30.881913 C28.5750435,30.881913 28.3525217,30.7969565 28.1826957,30.6271304 L28.1826957,30.6271304 L25.1309565,27.5753043 C24.7913043,27.2357391 24.7913913,26.6851304 25.1309565,26.3454783 C25.4705217,26.006 26.0211304,26.0061739 26.3607826,26.3454783 L26.3607826,26.3454783 L28.7975652,28.7824348 L33.4477391,24.1326087 Z" id="Combined-Shape"></path>
                <path d="M20.5041739,25.132087 L20.5041739,20.1905217 C23.845913,19.2828696 26.9430435,17.9712174 29.9043478,16.237913 C32.8555652,17.9653043 36.1527826,19.3346957 39.3045217,20.1905217 L39.3045217,25.132087 C39.3045217,26.0870435 39.2186957,26.9846957 39.062087,27.8261739 L41.0545217,27.8261739 C42.0051304,27.8261739 42.7827826,27.0483478 42.7827826,26.098087 L42.7827826,10.4346957 L0,10.4346957 L0,26.098087 C0,27.0483478 0.77773913,27.8261739 1.72826087,27.8261739 L20.7466957,27.8261739 C20.589913,26.9846957 20.5041739,26.0870435 20.5041739,25.132087 L20.5041739,25.132087 Z M8.0433913,18.6684348 C8.49086957,18.4093913 9.01078261,18.2611304 9.56495652,18.2611304 C11.2461739,18.2611304 12.6086087,19.6237391 12.6086087,21.3044348 C12.6086087,22.9853043 11.2461739,24.347913 9.56495652,24.347913 C9.01078261,24.347913 8.49086957,24.1996522 8.0433913,23.9406087 C7.59573913,24.1995652 7.07617391,24.347913 6.52173913,24.347913 C4.84069565,24.347913 3.47817391,22.9853043 3.47817391,21.3044348 C3.47817391,19.6237391 4.84069565,18.2611304 6.52173913,18.2611304 C7.07617391,18.2611304 7.59573913,18.4093913 8.0433913,18.6684348 Z" id="Shape" opacity="0.602562314"></path>
                <path d="M0,5.21756522 L42.7826957,5.21756522 L42.7826957,1.72834783 C42.7826957,0.777565217 42.0050435,8.69565217e-05 41.0544348,8.69565217e-05 L1.72826087,8.69565217e-05 C0.77773913,8.69565217e-05 0,0.777652174 0,1.72834783 L0,5.21756522 Z" id="Path" opacity="0.6"></path>
            </g>
            <path d="M41.924,8.69565217e-05 L2.59782609,8.69565217e-05 C1.16530435,8.69565217e-05 0,1.16556522 0,2.59791304 L0,26.9676522 C0,28.399913 1.16530435,29.5653043 2.59782609,29.5653043 L20.9096522,29.5653043 C21.685913,32.8496522 23.4413043,35.1757391 24.9754783,36.666 C27.2147826,38.8414783 29.7817391,40 30.7738261,40 C31.7658261,40 34.3327826,38.8415652 36.5721739,36.666087 C38.1063478,35.1757391 39.8618261,32.8496522 40.638,29.5653913 L41.924,29.5653913 C43.3564348,29.5653913 44.5218261,28.4 44.5218261,26.9677391 L44.5218261,2.59791304 C44.5218261,1.16556522 43.3564348,8.69565217e-05 41.924,8.69565217e-05 Z M1.73913043,6.95669565 L42.7826957,6.95669565 L42.7826957,10.4347826 L1.73913043,10.4347826 L1.73913043,6.95669565 Z M2.59782609,1.73921739 L41.924,1.73921739 C42.3973913,1.73921739 42.7826957,2.12443478 42.7826957,2.59791304 L42.7826957,5.21747826 L1.73913043,5.21747826 L1.73913043,2.59791304 C1.73913043,2.12443478 2.12434783,1.73921739 2.59782609,1.73921739 Z M35.4153043,35.3649565 C33.3106957,37.4321739 31.1518261,38.2362609 30.7738261,38.2606957 C30.3957391,38.2362609 28.2367826,37.4322609 26.1321739,35.3649565 C24.358087,33.6222609 22.2432174,30.5832174 22.2432174,26.0016522 L22.2432174,21.7193913 C25.2371304,20.8535652 28.0385217,19.6686087 30.774087,18.1113913 C33.448,19.6290435 36.3749565,20.8666957 39.3043478,21.7188696 L39.3043478,26.0016522 C39.3043478,30.5832174 37.1895652,33.6222609 35.4153043,35.3649565 Z M41.924,27.8261739 L40.9404348,27.8261739 C41.0070435,27.2434783 41.0435652,26.6358261 41.0435652,26.0016522 L41.0435652,21.060087 C41.0435652,20.6675652 40.7806087,20.3238261 40.401913,20.2209565 C37.2442609,19.3634783 34.0667826,18.0273043 31.2130435,16.3569565 C30.9417391,16.1981739 30.605913,16.1983478 30.3344348,16.3571304 C27.3998261,18.0748696 24.3941739,19.3386087 21.1457391,20.2209565 C20.7670435,20.323913 20.504087,20.6676522 20.504087,21.060087 L20.504087,26.0016522 C20.504087,26.6358261 20.5405217,27.2434783 20.6072174,27.8261739 L2.59782609,27.8261739 C2.12434783,27.8261739 1.73913043,27.4409565 1.73913043,26.9676522 L1.73913043,12.1738261 L42.7826957,12.1738261 L42.7826957,26.9676522 C42.7826957,27.4410435 42.3973913,27.8261739 41.924,27.8261739 Z" id="Shape"></path>
            <path d="M10.4345217,18.2611304 C9.91026087,18.2611304 9.3926087,18.3671304 8.91347826,18.5692174 C8.4453913,18.3708696 7.93095652,18.2611304 7.39147826,18.2611304 C5.23382609,18.2611304 3.47834783,20.0164348 3.47834783,22.174 C3.47834783,24.3315652 5.23373913,26.0870435 7.39147826,26.0870435 C7.93095652,26.0870435 8.4453913,25.9773043 8.9133913,25.7789565 C9.3926087,25.9810435 9.91026087,26.0870435 10.4345217,26.0870435 C12.5922609,26.0870435 14.3477391,24.3315652 14.3477391,22.174 C14.3477391,20.0164348 12.5922609,18.2611304 10.4345217,18.2611304 Z M5.21747826,22.174 C5.21747826,20.9753043 6.19269565,20.0002609 7.39147826,20.0002609 C8.59008696,20.0002609 9.56530435,20.9753043 9.56530435,22.174 C9.56530435,23.3726957 8.59008696,24.347913 7.39147826,24.347913 C6.19269565,24.347913 5.21747826,23.3727826 5.21747826,22.174 Z M10.650087,24.3373043 C11.0631304,23.7172174 11.3044348,22.9733043 11.3044348,22.174087 C11.3044348,21.3748696 11.0631304,20.6311304 10.6501739,20.0110435 C11.748,20.1195652 12.6085217,21.0482609 12.6085217,22.174087 C12.6085217,23.299913 11.748,24.2286957 10.650087,24.3373043 Z" id="Shape"></path>
            <path d="M4.34773913,16.0870435 L8.82052174,16.0870435 C9.30078261,16.0870435 9.69008696,15.6975652 9.69008696,15.2174783 C9.69008696,14.7372174 9.30078261,14.347913 8.82052174,14.347913 L4.34773913,14.347913 C3.86747826,14.347913 3.47817391,14.7372174 3.47817391,15.2174783 C3.47817391,15.6976522 3.86747826,16.0870435 4.34773913,16.0870435 Z" id="Path"></path>
            <path d="M11.3497391,16.0870435 L11.3909565,16.0870435 C11.8711304,16.0870435 12.2605217,15.6975652 12.2605217,15.2174783 C12.2605217,14.7372174 11.8711304,14.347913 11.3909565,14.347913 L11.3497391,14.347913 C10.8694783,14.347913 10.4801739,14.7372174 10.4801739,15.2174783 C10.4801739,15.6976522 10.8694783,16.0870435 11.3497391,16.0870435 Z" id="Path"></path>
        </g>
    </g>
</svg>