<svg width="42" height="41" viewBox="0 0 42 41" fill="none" xmlns="http://www.w3.org/2000/svg">
<rect x="0.871094" width="40.4355" height="40.4355" rx="20.2178" fill="white"/>
<path d="M21.0904 16.4249C18.9143 16.4249 17.1589 18.1806 17.1589 20.3573C17.1589 22.534 18.9143 24.2897 21.0904 24.2897C23.2666 24.2897 25.0219 22.534 25.0219 20.3573C25.0219 18.1806 23.2666 16.4249 21.0904 16.4249ZM21.0904 22.9138C19.6841 22.9138 18.5345 21.7673 18.5345 20.3573C18.5345 18.9472 19.6807 17.8007 21.0904 17.8007C22.5002 17.8007 23.6464 18.9472 23.6464 20.3573C23.6464 21.7673 22.4967 22.9138 21.0904 22.9138ZM26.0998 16.2641C26.0998 16.774 25.6892 17.1813 25.1828 17.1813C24.6729 17.1813 24.2658 16.7706 24.2658 16.2641C24.2658 15.7575 24.6764 15.3468 25.1828 15.3468C25.6892 15.3468 26.0998 15.7575 26.0998 16.2641ZM28.7037 17.195C28.6455 15.9663 28.3649 14.878 27.465 13.9813C26.5685 13.0846 25.4804 12.804 24.2521 12.7424C22.986 12.6705 19.1914 12.6705 17.9254 12.7424C16.7004 12.8006 15.6124 13.0812 14.7125 13.9779C13.8126 14.8746 13.5354 15.9629 13.4738 17.1915C13.402 18.4578 13.402 22.2533 13.4738 23.5196C13.532 24.7483 13.8126 25.8366 14.7125 26.7333C15.6124 27.63 16.697 27.9106 17.9254 27.9722C19.1914 28.0441 22.986 28.0441 24.2521 27.9722C25.4804 27.914 26.5685 27.6334 27.465 26.7333C28.3615 25.8366 28.6421 24.7483 28.7037 23.5196C28.7755 22.2533 28.7755 18.4613 28.7037 17.195ZM27.0681 24.8783C26.8012 25.5491 26.2845 26.0659 25.6105 26.3363C24.6011 26.7367 22.2059 26.6443 21.0904 26.6443C19.975 26.6443 17.5764 26.7333 16.5704 26.3363C15.8998 26.0693 15.3831 25.5525 15.1128 24.8783C14.7125 23.8687 14.8048 21.473 14.8048 20.3573C14.8048 19.2416 14.7159 16.8425 15.1128 15.8363C15.3797 15.1655 15.8964 14.6487 16.5704 14.3783C17.5798 13.9779 19.975 14.0703 21.0904 14.0703C22.2059 14.0703 24.6045 13.9813 25.6105 14.3783C26.2811 14.6453 26.7978 15.162 27.0681 15.8363C27.4684 16.8459 27.376 19.2416 27.376 20.3573C27.376 21.473 27.4684 23.8721 27.0681 24.8783Z" fill="#231F20"/>
</svg>
