<svg width="82" height="82" viewBox="0 0 82 82" fill="none" xmlns="http://www.w3.org/2000/svg">
<path fill-rule="evenodd" clip-rule="evenodd" d="M41 0C63.6443 0 82 18.3557 82 41C82 63.6443 63.6443 82 41 82C18.3557 82 0 63.6443 0 41C0 18.3557 18.3557 0 41 0Z" fill="black"/>
<path d="M55.76 53.8125L61.3196 38.3719C61.5082 38.4047 61.7091 38.4375 61.91 38.4375C63.9477 38.4375 65.6 36.7155 65.6 34.5917C65.6 32.472 63.9477 30.75 61.91 30.75C59.8723 30.75 58.22 32.472 58.22 34.5917C58.22 35.1657 58.343 35.6905 58.5603 36.1784L52.9925 39.6552C51.8076 40.3932 50.2783 39.975 49.5936 38.7245L43.3288 27.306C44.1488 26.6008 44.69 25.543 44.69 24.3417C44.69 22.222 43.0377 20.5 41 20.5C38.9623 20.5 37.31 22.222 37.31 24.3417C37.31 25.543 37.8471 26.6008 38.6712 27.306L32.4064 38.7245C31.7217 39.975 30.1842 40.3932 29.0075 39.6552L23.4479 36.1784C23.657 35.6987 23.7882 35.1616 23.7882 34.5917C23.7882 32.472 22.1359 30.75 20.0982 30.75C18.0605 30.75 16.4 32.472 16.4 34.5917C16.4 36.7155 18.0523 38.4375 20.09 38.4375C20.2909 38.4375 20.4918 38.4047 20.6804 38.3719L26.24 53.8125H55.76V53.8125ZM56.99 61.5C57.6665 61.5 58.22 60.926 58.22 60.2167V57.6542C58.22 56.9531 57.6665 56.375 56.99 56.375H25.01C24.3335 56.375 23.78 56.949 23.78 57.6542V60.2167C23.78 60.9219 24.3335 61.5 25.01 61.5H56.99V61.5Z" fill="white"/>
</svg>
