<svg xmlns="http://www.w3.org/2000/svg" width="58" height="20" viewBox="0 0 58 20">
    <defs>
        <linearGradient id="qgxco8y7ba" x1="0%" x2="84.931%" y1="50%" y2="50%">
            <stop offset="0%" stop-color="#FFCA00"/>
            <stop offset="100%" stop-color="#FF7F00"/>
        </linearGradient>
    </defs>
    <g fill="none" fill-rule="evenodd">
        <g>
            <g>
                <path fill="url(#qgxco8y7ba)" d="M10 0h38c5.523 0 10 4.477 10 10s-4.477 10-10 10H10C4.477 20 0 15.523 0 10S4.477 0 10 0z" transform="translate(-545 -283) translate(545 283)"/>
                <path fill="#FFF" fill-rule="nonzero" d="M26.94 14.09c.493 0 .947-.073 1.36-.22.413-.147.767-.37 1.06-.67.293-.3.522-.682.685-1.145.163-.463.245-1.015.245-1.655h-3.47v1.13h1.95c-.007.033-.012.063-.015.09-.003.027-.012.053-.025.08-.093.36-.302.642-.625.845-.323.203-.712.305-1.165.305-.3 0-.58-.062-.84-.185s-.485-.29-.675-.5c-.19-.21-.34-.453-.45-.73-.11-.277-.165-.568-.165-.875 0-.307.055-.597.165-.87.11-.273.26-.512.45-.715.19-.203.415-.365.675-.485.26-.12.54-.18.84-.18.3 0 .583.06.85.18s.497.287.69.5l1.01-.87c-.3-.34-.67-.608-1.11-.805-.44-.197-.92-.295-1.44-.295-.493 0-.955.092-1.385.275-.43.183-.803.435-1.12.755-.317.32-.565.695-.745 1.125-.18.43-.27.892-.27 1.385 0 .487.09.945.27 1.375.18.43.428.805.745 1.125.317.32.69.572 1.12.755.43.183.892.275 1.385.275zm7.53 0c.487 0 .943-.092 1.37-.275.427-.183.798-.435 1.115-.755.317-.32.567-.695.75-1.125.183-.43.275-.888.275-1.375 0-.493-.092-.955-.275-1.385-.183-.43-.433-.805-.75-1.125-.317-.32-.688-.572-1.115-.755-.427-.183-.883-.275-1.37-.275-.487 0-.943.092-1.37.275-.427.183-.798.435-1.115.755-.317.32-.565.695-.745 1.125-.18.43-.27.892-.27 1.385 0 .487.09.945.27 1.375.18.43.428.805.745 1.125.317.32.688.572 1.115.755.427.183.883.275 1.37.275zm0-1.3c-.307 0-.59-.058-.85-.175-.26-.117-.483-.275-.67-.475-.187-.2-.332-.437-.435-.71-.103-.273-.155-.563-.155-.87 0-.313.052-.605.155-.875.103-.27.248-.505.435-.705.187-.2.41-.358.67-.475.26-.117.543-.175.85-.175.307 0 .59.058.85.175.26.117.483.275.67.475.187.2.332.435.435.705.103.27.155.562.155.875 0 .307-.052.597-.155.87-.103.273-.248.51-.435.71-.187.2-.41.358-.67.475-.26.117-.543.175-.85.175zM43.24 14v-1.23h-2.61V7.11h-1.39V14h4zm3.74 0c.493 0 .935-.087 1.325-.26.39-.173.718-.413.985-.72s.47-.67.61-1.09c.14-.42.21-.873.21-1.36 0-.493-.07-.95-.21-1.37-.14-.42-.343-.785-.61-1.095-.267-.31-.595-.553-.985-.73-.39-.177-.832-.265-1.325-.265h-2.7V14h2.7zm0-1.23h-1.31V8.34h1.31c.287 0 .538.06.755.18.217.12.398.283.545.49.147.207.257.445.33.715.073.27.11.552.11.845 0 .293-.037.573-.11.84-.073.267-.183.5-.33.7-.147.2-.328.36-.545.48-.217.12-.468.18-.755.18zM13 4L8 6.182v3.273c0 3.027 2.133 5.858 5 6.545 2.867-.687 5-3.518 5-6.545V6.182L13 4m0 2.182c.92 0 1.667.732 1.667 1.636 0 .904-.747 1.637-1.667 1.637s-1.667-.733-1.667-1.637S12.08 6.182 13 6.182m2.85 6.545c-.672 1.01-1.678 1.768-2.85 2.138-1.172-.37-2.178-1.129-2.85-2.138-.189-.272-.35-.545-.483-.834 0-.9 1.505-1.637 3.333-1.637 1.828 0 3.333.72 3.333 1.637-.133.289-.294.562-.483.834z" transform="translate(-545 -283) translate(545 283)"/>
            </g>
        </g>
    </g>
</svg>
