<svg xmlns="http://www.w3.org/2000/svg" xmlns:xlink="http://www.w3.org/1999/xlink" width="82" height="20" viewBox="0 0 82 20">
    <defs>
        <linearGradient id="ewq7tbr8bb" x1="84.907%" x2="0%" y1="50%" y2="50%">
            <stop offset="0%" stop-color="indigo"/>
            <stop offset="100%" stop-color="indigo" stop-opacity="0"/>
        </linearGradient>
        <path id="ysxgxpwf2a" d="M10 0h62c5.523 0 10 4.477 10 10s-4.477 10-10 10H10C4.477 20 0 15.523 0 10S4.477 0 10 0z"/>
    </defs>
    <g fill="none" fill-rule="evenodd">
        <g>
            <g>
                <g transform="translate(-545 -371) translate(545 371)">
                    <use fill="#CC353B" xlink:href="#ysxgxpwf2a"/>
                    <use fill="url(#ewq7tbr8bb)" xlink:href="#ysxgxpwf2a"/>
                </g>
                <path fill="#FFF" fill-rule="nonzero" d="M26.23 14v-2.41h1.42c.393 0 .73-.063 1.01-.19s.513-.293.7-.5c.187-.207.323-.445.41-.715.087-.27.13-.545.13-.825 0-.28-.043-.555-.13-.825-.087-.27-.223-.51-.41-.72-.187-.21-.42-.38-.7-.51-.28-.13-.617-.195-1.01-.195h-2.81V14h1.39zm1.35-3.63h-1.35V8.34h1.37c.16 0 .298.03.415.09.117.06.21.138.28.235.07.097.122.205.155.325.033.12.05.243.05.37 0 .12-.017.242-.05.365s-.087.232-.16.325c-.073.093-.168.17-.285.23-.117.06-.258.09-.425.09zM35.353 14v-1.23h-2.61V7.11h-1.39V14h4zm1.964 0l.55-1.65h2.58l.56 1.65h1.46l-2.56-6.89h-1.5L35.837 14h1.48zm2.71-2.86h-1.75l.87-2.59.88 2.59zM45.67 14V8.34h1.9V7.11h-5.19v1.23h1.9V14h1.39zm4.663 0V7.11h-1.39V14h1.39zm3.404 0V9.68l2.5 4.32h1.25V7.11h-1.39v4.27l-2.46-4.27h-1.29V14h1.39zm8.323.09c.353 0 .69-.058 1.01-.175.32-.117.6-.285.84-.505.24-.22.432-.487.575-.8.143-.313.215-.67.215-1.07V7.11h-1.39v4.35c0 .233-.035.433-.105.6-.07.167-.162.302-.275.405-.113.103-.247.18-.4.23-.153.05-.31.075-.47.075-.16 0-.315-.025-.465-.075-.15-.05-.282-.127-.395-.23-.113-.103-.205-.238-.275-.405-.07-.167-.105-.367-.105-.6V7.11h-1.39v4.43c0 .4.072.757.215 1.07.143.313.335.58.575.8.24.22.52.388.84.505.32.117.653.175 1 .175zm5.623-.09l.5-4.27 1.7 3.49h1.09l1.68-3.49.5 4.27h1.42l-.84-6.89h-1.2l-2.11 4.52-2.13-4.52h-1.18l-.85 6.89h1.42zM20 9.125L18.115 6h-1.663l1.442 3.125H20zm-3.11 0L15.448 6h-2.896L11.11 9.125h5.78zm-6.784 0L11.548 6H9.885L8 9.125h2.106zm2.554 5.541L10.098 9.75H8l4.556 4.98c.048.051.136-.003.104-.064zm1.398 1.299l2.854-6.215h-5.824l2.856 6.215c.02.047.093.047.114 0zm1.386-1.236L20 9.75h-2.098l-2.562 4.916c-.032.06.056.115.104.063z" transform="translate(-545 -371) translate(545 371)"/>
            </g>
        </g>
    </g>
</svg>
