<svg xmlns="http://www.w3.org/2000/svg" width="20" height="20" viewBox="0 0 20 20">
    <g fill="none" fill-rule="evenodd">
        <path fill="#98A5B9" d="M10 0c5.523 0 10 4.477 10 10s-4.477 10-10 10S0 15.523 0 10 4.477 0 10 0z"/>
        <path fill="#FFF" fill-rule="nonzero" d="M10 15c2.762 0 5-2.238 5-5s-2.238-5-5-5-5 2.238-5 5 2.238 5 5 5zm0-4.516c-.98 0-1.774-.794-1.774-1.774S9.02 6.935 10 6.935s1.774.795 1.774 1.775c0 .98-.794 1.774-1.774 1.774zm0 3.387c-1.183 0-2.244-.536-2.954-1.375.38-.714 1.121-1.206 1.986-1.206.049 0 .097.008.143.022.262.085.537.14.825.14.288 0 .565-.055.825-.14.046-.014.094-.022.143-.022.865 0 1.607.492 1.986 1.206-.71.839-1.77 1.375-2.954 1.375z"/>
    </g>
</svg>
