<svg width="82" height="82" viewBox="0 0 82 82" fill="none" xmlns="http://www.w3.org/2000/svg">
<path fill-rule="evenodd" clip-rule="evenodd" d="M41 0C63.6443 0 82 18.3557 82 41C82 63.6443 63.6443 82 41 82C18.3557 82 0 63.6443 0 41C0 18.3557 18.3557 0 41 0Z" fill="black"/>
<path d="M41 16.3999L20.5 25.3461V38.7654C20.5 51.1761 29.2453 62.7832 41 65.5999C52.7547 62.7832 61.5 51.1761 61.5 38.7654V25.3461L41 16.3999ZM41 25.3461C44.772 25.3461 47.8347 28.3473 47.8347 32.0537C47.8347 35.7601 44.772 38.7654 41 38.7654C37.228 38.7654 34.1653 35.7601 34.1653 32.0537C34.1653 28.3473 37.228 25.3461 41 25.3461ZM52.685 52.1806C49.9298 56.3216 45.8052 59.4294 41 60.9464C36.1948 59.4294 32.0702 56.3175 29.315 52.1806C28.5401 51.0654 27.88 49.9461 27.3347 48.7612C27.3347 45.0712 33.5052 42.0495 41 42.0495C48.4948 42.0495 54.6653 45.0015 54.6653 48.7612C54.12 49.9461 53.4599 51.0654 52.685 52.1806Z" fill="white"/>
</svg>
