<svg width="82" height="82" viewBox="0 0 82 82" fill="none" xmlns="http://www.w3.org/2000/svg">
<path fill-rule="evenodd" clip-rule="evenodd" d="M41 0C63.6443 0 82 18.3557 82 41C82 63.6443 63.6443 82 41 82C18.3557 82 0 63.6443 0 41C0 18.3557 18.3557 0 41 0Z" fill="black"/>
<path d="M41 61.5C52.3242 61.5 61.5 52.3242 61.5 41C61.5 29.6758 52.3242 20.5 41 20.5C29.6758 20.5 20.5 29.6758 20.5 41C20.5 52.3242 29.6758 61.5 41 61.5ZM41 42.9844C36.982 42.9844 33.7266 39.729 33.7266 35.711C33.7266 31.693 36.982 28.4335 41 28.4335C45.018 28.4335 48.2734 31.693 48.2734 35.711C48.2734 39.729 45.018 42.9844 41 42.9844V42.9844ZM41 56.8711C36.1497 56.8711 31.7996 54.6735 28.8886 51.2336C30.4466 48.3062 33.4847 46.289 37.0312 46.289C37.2321 46.289 37.4289 46.3218 37.6175 46.3792C38.6917 46.7277 39.8192 46.9532 41 46.9532C42.1808 46.9532 43.3165 46.7277 44.3825 46.3792C44.5711 46.3218 44.7679 46.289 44.9688 46.289C48.5153 46.289 51.5575 48.3062 53.1114 51.2336C50.2004 54.6735 45.8544 56.8711 41 56.8711Z" fill="white"/>
</svg>
