<svg width="82" height="82" viewBox="0 0 82 82" fill="none" xmlns="http://www.w3.org/2000/svg">
<path fill-rule="evenodd" clip-rule="evenodd" d="M41 0C63.6443 0 82 18.3557 82 41C82 63.6443 63.6443 82 41 82C18.3557 82 0 63.6443 0 41C0 18.3557 18.3557 0 41 0Z" fill="black"/>
<path d="M29.6432 35.2436C32.0212 33.0214 35.051 31.4962 38.4171 30.9714L32.8822 21.7464C32.4722 21.0576 31.4882 20.5 30.6846 20.5H21.7876C20.7462 20.5 20.1394 21.6685 20.7339 22.5172L29.6432 35.2436ZM52.3571 35.2436L61.2664 22.5172C61.8609 21.6685 61.2541 20.5 60.2168 20.5H51.3157C50.4137 20.5 49.5814 20.9715 49.1181 21.7464L43.5831 30.9714C46.9451 31.4962 49.9791 33.0214 52.3571 35.2436V35.2436ZM41.0001 61.5C48.7819 61.5 55.0919 55.186 55.0919 47.4042C55.0919 39.6224 48.7819 33.3125 41.0001 33.3125C33.2184 33.3125 26.9044 39.6224 26.9044 47.4042C26.9044 55.1901 33.2184 61.5 41.0001 61.5ZM44.7558 54.0134L41.0001 52.0413L37.2445 54.0134C36.5721 54.3701 35.7849 53.7961 35.912 53.0458L36.6295 48.8638L33.5956 45.9036C33.0462 45.3706 33.3496 44.444 34.0999 44.3374L38.2982 43.7224L40.176 39.9217C40.3441 39.5773 40.668 39.4092 40.996 39.4092C41.324 39.4092 41.6561 39.5773 41.8242 39.9217L43.7021 43.7265L47.9004 44.3374C48.6548 44.444 48.9541 45.3747 48.4088 45.9036L45.3749 48.8638L46.0882 53.0458C46.2194 53.7961 45.4282 54.3701 44.7558 54.0134Z" fill="white"/>
</svg>
