<svg width="336" height="82" viewBox="0 0 336 82" fill="none" xmlns="http://www.w3.org/2000/svg">
<path d="M40.9756 0H295.024C317.655 0 336 18.3557 336 41C336 63.6443 317.655 82 295.024 82H40.9756C18.3448 82 0 63.6443 0 41C0 18.3557 18.3448 0 40.9756 0Z" fill="black"/>
<path d="M40.9756 0H295.024C317.655 0 336 18.3557 336 41C336 63.6443 317.655 82 295.024 82H40.9756C18.3448 82 0 63.6443 0 41C0 18.3557 18.3448 0 40.9756 0Z" fill="black"/>
<path d="M107.479 57.4001V47.5191H113.298C114.908 47.5191 116.289 47.2608 117.436 46.7401C118.583 46.2194 119.538 45.5388 120.304 44.6901C121.071 43.8414 121.628 42.8656 121.984 41.7586C122.341 40.6516 122.517 39.5241 122.517 38.3761C122.517 37.2281 122.341 36.1006 121.984 34.9936C121.628 33.8866 121.071 32.9026 120.304 32.0416C119.538 31.1806 118.583 30.4836 117.436 29.9506C116.289 29.4176 114.908 29.1511 113.298 29.1511H101.783V57.4001H107.479ZM113.011 42.5171H107.479V34.1941H113.093C113.748 34.1941 114.314 34.3171 114.793 34.5631C115.273 34.8091 115.654 35.1289 115.941 35.5266C116.227 35.9243 116.44 36.3671 116.576 36.8591C116.711 37.3511 116.781 37.8554 116.781 38.3761C116.781 38.8681 116.711 39.3683 116.576 39.8726C116.44 40.3769 116.219 40.8238 115.92 41.2051C115.621 41.5864 115.232 41.9021 114.752 42.1481C114.273 42.3941 113.695 42.5171 113.011 42.5171V42.5171ZM144.861 57.4001V52.3571H134.166V29.1511H128.471V57.4001H144.861ZM152.909 57.4001L155.162 50.6351H165.734L168.029 57.4001H174.011L163.521 29.1511H157.375L146.844 57.4001H152.909ZM164.013 45.6741H156.842L160.407 35.0551L164.013 45.6741ZM187.136 57.4001V34.1941H194.921V29.1511H173.655V34.1941H181.44V57.4001H187.136ZM206.243 57.4001V29.1511H200.547V57.4001H206.243ZM220.191 57.4001V39.6881L230.435 57.4001H235.557V29.1511H229.861V46.6581L219.781 29.1511H214.495V57.4001H220.191ZM254.295 57.7691C255.741 57.7691 257.122 57.5313 258.433 57.0516C259.744 56.5719 260.892 55.8831 261.875 54.9811C262.859 54.0791 263.645 52.9844 264.231 51.7011C264.817 50.4178 265.112 48.9541 265.112 47.3141V29.1511H259.417V46.9861C259.417 47.9414 259.273 48.7614 258.986 49.4461C258.7 50.1308 258.323 50.6843 257.86 51.1066C257.397 51.5289 256.847 51.8446 256.221 52.0496C255.594 52.2546 254.95 52.3571 254.295 52.3571C253.639 52.3571 253.004 52.2546 252.389 52.0496C251.775 51.8446 251.234 51.5289 250.771 51.1066C250.308 50.6843 249.931 50.1308 249.644 49.4461C249.357 48.7614 249.214 47.9414 249.214 46.9861V29.1511H243.518V47.3141C243.518 48.9541 243.813 50.4178 244.399 51.7011C244.985 52.9844 245.772 54.0791 246.755 54.9811C247.739 55.8831 248.886 56.5719 250.197 57.0516C251.508 57.5313 252.873 57.7691 254.295 57.7691V57.7691ZM277.335 57.4001L279.384 39.8931L286.35 54.2021H290.816L297.7 39.8931L299.749 57.4001H305.567L302.125 29.1511H297.208L288.563 47.6831L279.835 29.1511H275L271.517 57.4001H277.335V57.4001ZM81.9512 37.4126L74.2273 24.6001H67.4131L73.3218 37.4126H81.9512ZM69.2078 37.4126L63.2992 24.6001H51.4326L45.5239 37.4126H69.2078ZM41.41 37.4126L47.3187 24.6001H40.5044L32.7805 37.4126H41.41V37.4126ZM51.8752 60.1307L41.3772 39.9751H32.7805L51.449 60.3931C51.6457 60.6022 52.0063 60.3808 51.8752 60.1307V60.1307ZM57.6035 65.4566L69.298 39.9751H45.4338L57.1364 65.4566C57.2184 65.6493 57.5175 65.6493 57.6035 65.4566V65.4566ZM63.2828 60.389L81.9512 39.9751H73.3546L62.8566 60.1307C62.7255 60.3767 63.0861 60.6022 63.2828 60.389V60.389Z" fill="white"/>
</svg>
