<svg xmlns="http://www.w3.org/2000/svg" width="60" height="20" viewBox="0 0 60 20">
    <defs>
        <linearGradient id="2d1v4uk8da" x1="0%" x2="83.525%" y1="50%" y2="50%">
            <stop offset="0%" stop-color="#98A5B9"/>
            <stop offset="100%" stop-color="#505F77"/>
        </linearGradient>
    </defs>
    <g fill="none" fill-rule="evenodd">
        <g>
            <g>
                <path fill="url(#2d1v4uk8da)" d="M10 0h40c5.523 0 10 4.477 10 10s-4.477 10-10 10H10C4.477 20 0 15.523 0 10S4.477 0 10 0z" transform="translate(-545 -327) translate(545 327)"/>
                <path fill="#FFF" fill-rule="nonzero" d="M23.93 14.09c.327 0 .638-.045.935-.135.297-.09.558-.222.785-.395.227-.173.408-.392.545-.655.137-.263.205-.565.205-.905 0-.293-.053-.55-.16-.77-.107-.22-.248-.41-.425-.57-.177-.16-.383-.293-.62-.4-.237-.107-.485-.197-.745-.27l-.77-.22c-.18-.053-.322-.112-.425-.175-.103-.063-.18-.13-.23-.2-.05-.07-.082-.137-.095-.2-.013-.063-.02-.115-.02-.155 0-.233.09-.423.27-.57.18-.147.407-.22.68-.22.3 0 .532.083.695.25.163.167.245.373.245.62h1.39c0-.327-.058-.62-.175-.88-.117-.26-.278-.48-.485-.66-.207-.18-.45-.318-.73-.415-.28-.097-.583-.145-.91-.145-.327 0-.635.048-.925.145-.29.097-.543.235-.76.415-.217.18-.387.397-.51.65s-.185.533-.185.84c0 .153.022.322.065.505.043.183.13.363.26.54.13.177.31.343.54.5.23.157.535.285.915.385l.84.24c.58.18.87.457.87.83 0 .247-.093.443-.28.59-.187.147-.437.22-.75.22-.32 0-.587-.088-.8-.265-.213-.177-.323-.392-.33-.645h-1.39c0 .307.06.588.18.845s.29.48.51.67c.22.19.482.338.785.445.303.107.638.16 1.005.16zm5.12-.09V7.11h-1.39V14h1.39zm5.68 0v-1.23h-2.61V7.11h-1.39V14h4zm3.06 0l2.09-6.89h-1.45l-1.27 4.65-1.27-4.65h-1.44L36.54 14h1.25zm7.52 0v-1.23h-3.02v-1.54h2.57V9.98h-2.57V8.34h2.93V7.11H40.9V14h4.41zm2.72 0v-2.47h.47L50.14 14h1.63l-1.79-2.54c.293-.06.545-.157.755-.29.21-.133.382-.293.515-.48s.233-.393.3-.62c.067-.227.1-.463.1-.71 0-.28-.043-.555-.13-.825-.087-.27-.222-.51-.405-.72-.183-.21-.418-.38-.705-.51s-.627-.195-1.02-.195h-2.75V14h1.39zm1.11-3.59h-1.11V8.34h1.22c.16 0 .303.028.43.085.127.057.232.133.315.23.083.097.147.208.19.335.043.127.065.26.065.4 0 .273-.087.512-.26.715-.173.203-.457.305-.85.305zM10.23 8.846c.58-.542 1.319-.914 2.14-1.042l-1.35-2.25c-.1-.168-.34-.304-.536-.304h-2.17c-.254 0-.402.285-.257.492l2.173 3.104zm5.54 0l2.173-3.104c.145-.207-.003-.492-.256-.492h-2.171c-.22 0-.423.115-.536.304l-1.35 2.25c.821.128 1.56.5 2.14 1.042zM13 15.25c1.898 0 3.437-1.54 3.437-3.437 0-1.899-1.539-3.438-3.437-3.438s-3.438 1.54-3.438 3.438c0 1.898 1.54 3.437 3.438 3.437zm.916-1.826L13 12.943l-.916.481c-.164.087-.356-.053-.325-.236l.175-1.02-.74-.722c-.134-.13-.06-.356.123-.382l1.024-.15.458-.927c.041-.084.12-.125.2-.125.08 0 .161.042.202.125l.458.928 1.024.149c.184.026.257.253.124.382l-.74.722.174 1.02c.032.183-.16.323-.325.236z" transform="translate(-545 -327) translate(545 327)"/>
            </g>
        </g>
    </g>
</svg>
