<svg width="336" height="82" viewBox="0 0 336 82" fill="none" xmlns="http://www.w3.org/2000/svg">
<path fill-rule="evenodd" clip-rule="evenodd" d="M40.9756 0H295.024C317.655 0 336 18.3557 336 41C336 63.6443 317.655 82 295.024 82H40.9756C18.3448 82 0 63.6443 0 41C0 18.3557 18.3448 0 40.9756 0Z" fill="black"/>
<path d="M115.223 58.015C116.916 58.015 118.411 57.7567 119.71 57.236C121.009 56.7153 122.099 56.0388 122.988 55.2065C123.877 54.3742 124.554 53.4148 125.017 52.3365C125.48 51.2582 125.713 50.1553 125.713 49.036C125.713 48.0233 125.537 47.0557 125.181 46.125C124.824 45.1943 124.308 44.3538 123.623 43.6035C122.939 42.8532 122.095 42.2013 121.083 41.656C120.071 41.1107 118.911 40.713 117.6 40.467L113.543 39.688C112.478 39.4707 111.687 39.0648 111.167 38.4785C110.646 37.8922 110.388 37.1993 110.388 36.408C110.388 35.916 110.499 35.4527 110.716 35.014C110.933 34.5753 111.241 34.1858 111.638 33.8455C112.036 33.5052 112.511 33.2305 113.072 33.0255C113.634 32.8205 114.252 32.718 114.937 32.718C115.867 32.718 116.649 32.8533 117.293 33.128C117.936 33.4027 118.461 33.743 118.87 34.153C119.28 34.563 119.587 35.0058 119.792 35.4855C119.997 35.9652 120.141 36.408 120.222 36.818L125.303 35.26C125.14 34.44 124.832 33.5872 124.381 32.6975C123.931 31.8078 123.296 30.996 122.476 30.258C121.657 29.52 120.624 28.9132 119.382 28.4335C118.141 27.9538 116.645 27.716 114.896 27.716C113.531 27.716 112.232 27.9497 111.003 28.413C109.774 28.8763 108.696 29.52 107.766 30.34C106.836 31.16 106.106 32.1235 105.574 33.2305C105.041 34.3375 104.775 35.5347 104.775 36.818C104.775 39.032 105.463 40.8565 106.844 42.2915C108.225 43.7265 110.073 44.6777 112.396 45.141L116.453 45.961C117.6 46.1783 118.473 46.5965 119.075 47.2115C119.677 47.8265 119.977 48.5563 119.977 49.405C119.977 50.4423 119.575 51.2992 118.768 51.9675C117.961 52.6358 116.793 52.972 115.264 52.972C114.228 52.972 113.326 52.8203 112.56 52.521C111.794 52.2217 111.155 51.8158 110.634 51.3115C110.114 50.8072 109.712 50.225 109.425 49.569C109.139 48.913 108.966 48.2283 108.913 47.519L103.668 48.913C103.779 49.9503 104.078 51.0122 104.57 52.0905C105.061 53.1688 105.779 54.1487 106.721 55.022C107.663 55.8953 108.831 56.6128 110.224 57.1745C111.618 57.7362 113.285 58.015 115.223 58.015V58.015ZM141.366 58.056C142.923 58.056 144.386 57.8223 145.75 57.359C147.115 56.8957 148.299 56.1987 149.295 55.268C150.29 54.3373 151.085 53.1893 151.671 51.824C152.257 50.4587 152.552 48.8843 152.552 47.109V28.331H146.898V46.699C146.898 48.6137 146.406 50.061 145.422 51.045C144.439 52.029 143.087 52.521 141.366 52.521C139.674 52.521 138.334 52.029 137.35 51.045C136.367 50.061 135.875 48.6137 135.875 46.699V28.331H130.221V47.109C130.221 48.8843 130.516 50.4587 131.101 51.824C131.687 53.1893 132.482 54.3373 133.478 55.268C134.474 56.1987 135.65 56.8957 137.002 57.359C138.354 57.8223 139.809 58.056 141.366 58.056ZM164.558 57.4V46.453H169.762C171.184 46.453 172.479 46.2275 173.655 45.7765C174.831 45.3255 175.839 44.7023 176.687 43.911C177.535 43.1197 178.182 42.1603 178.633 41.041C179.084 39.9217 179.309 38.704 179.309 37.392C179.309 36.08 179.084 34.8705 178.633 33.7635C178.182 32.6565 177.535 31.7012 176.687 30.8935C175.839 30.0858 174.831 29.4585 173.655 29.0075C172.479 28.5565 171.184 28.331 169.762 28.331H158.903V57.4H164.558V57.4ZM169.065 41.574H164.599V33.251H169.065C170.487 33.251 171.598 33.62 172.405 34.358C173.212 35.096 173.614 36.121 173.614 37.433C173.614 38.6917 173.212 39.6962 172.405 40.4465C171.598 41.1968 170.487 41.574 169.065 41.574V41.574ZM201.928 57.4V52.07H189.389V45.346H200.74V40.303H189.389V33.661H201.928V28.331H183.735V57.4H201.928ZM213.278 57.4V46.207H216.228L221.924 57.4H228.234L222.006 45.51C223.919 44.9647 225.427 43.9643 226.534 42.517C227.64 41.0697 228.193 39.319 228.193 37.269C228.193 36.0103 227.976 34.8377 227.538 33.743C227.099 32.6483 226.48 31.7053 225.673 30.914C224.866 30.1227 223.899 29.4913 222.764 29.028C221.629 28.5647 220.355 28.331 218.933 28.331H207.582V57.4H213.278V57.4ZM217.867 41.328H213.278V33.251H217.867C219.314 33.251 220.437 33.62 221.227 34.358C222.018 35.096 222.416 36.08 222.416 37.31C222.416 38.5113 222.018 39.483 221.227 40.221C220.437 40.959 219.314 41.328 217.867 41.328V41.328ZM256.958 57.4L267.735 28.331H261.752L254.172 49.938L246.591 28.331H240.404L251.14 57.4H256.958ZM277.2 57.4V28.331H271.463V57.4H277.2ZM289.493 57.4V46.453H294.697C296.118 46.453 297.413 46.2275 298.589 45.7765C299.765 45.3255 300.773 44.7023 301.621 43.911C302.47 43.1197 303.117 42.1603 303.568 41.041C304.019 39.9217 304.244 38.704 304.244 37.392C304.244 36.08 304.019 34.8705 303.568 33.7635C303.117 32.6565 302.47 31.7012 301.621 30.8935C300.773 30.0858 299.765 29.4585 298.589 29.0075C297.413 28.5565 296.118 28.331 294.697 28.331H283.838V57.4H289.493V57.4ZM294 41.574H289.534V33.251H294C295.422 33.251 296.532 33.62 297.34 34.358C298.147 35.096 298.548 36.121 298.548 37.433C298.548 38.6917 298.147 39.6962 297.34 40.4465C296.532 41.1968 295.422 41.574 294 41.574V41.574ZM72.1171 53.8125L77.6734 38.3719C77.8619 38.4047 78.0627 38.4375 78.2634 38.4375C80.2999 38.4375 81.9512 36.7155 81.9512 34.5917C81.9512 32.472 80.2999 30.75 78.2634 30.75C76.227 30.75 74.5756 32.472 74.5756 34.5917C74.5756 35.1657 74.6986 35.6905 74.9157 36.1784L69.3512 39.6552C68.1671 40.3932 66.6387 39.975 65.9544 38.7245L59.6933 27.306C60.5128 26.6008 61.0537 25.543 61.0537 24.3417C61.0537 22.222 59.4024 20.5 57.3659 20.5C55.3294 20.5 53.6781 22.222 53.6781 24.3417C53.6781 25.543 54.2149 26.6008 55.0385 27.306L48.7774 38.7245C48.0931 39.975 46.5565 40.3932 45.3805 39.6552L39.8242 36.1784C40.0332 35.6987 40.1643 35.1616 40.1643 34.5917C40.1643 32.472 38.513 30.75 36.4765 30.75C34.44 30.75 32.7805 32.472 32.7805 34.5917C32.7805 36.7155 34.4318 38.4375 36.4683 38.4375C36.6691 38.4375 36.8699 38.4047 37.0584 38.3719L42.6147 53.8125H72.1171ZM73.3464 61.5C74.0225 61.5 74.5756 60.926 74.5756 60.2167V57.6542C74.5756 56.9531 74.0225 56.375 73.3464 56.375H41.3854C40.7093 56.375 40.1561 56.949 40.1561 57.6542V60.2167C40.1561 60.9219 40.7093 61.5 41.3854 61.5H73.3464Z" fill="white"/>
</svg>
