<svg width="238" height="82" viewBox="0 0 238 82" fill="none" xmlns="http://www.w3.org/2000/svg">
<path fill-rule="evenodd" clip-rule="evenodd" d="M41.0345 0H196.966C219.628 0 238 18.3563 238 41C238 63.6437 219.628 82 196.966 82H41.0345C18.3718 82 0 63.6437 0 41C0 18.3563 18.3718 0 41.0345 0Z" fill="black"/>
<path d="M101.683 57.4002C103.243 57.4002 104.583 57.1611 105.705 56.6827C106.826 56.2044 107.75 55.5826 108.474 54.8172C109.199 54.0519 109.733 53.1909 110.075 52.2342C110.417 51.2776 110.588 50.3072 110.588 49.3232C110.588 48.5306 110.478 47.7447 110.259 46.9657C110.041 46.1867 109.706 45.4829 109.254 44.8542C108.803 44.2256 108.242 43.6857 107.572 43.2347C106.901 42.7837 106.115 42.4762 105.212 42.3122C105.978 42.0662 106.614 41.7246 107.12 41.2872C107.626 40.8499 108.023 40.3579 108.31 39.8112C108.598 39.2646 108.803 38.6974 108.926 38.1097C109.049 37.5221 109.111 36.9686 109.111 36.4492C109.111 35.3832 108.912 34.4061 108.516 33.5177C108.119 32.6294 107.565 31.8572 106.854 31.2012C106.142 30.5452 105.274 30.0396 104.248 29.6842C103.222 29.3289 102.08 29.1512 100.822 29.1512H89.6191V57.4002H101.683ZM100.493 40.3852H95.3229V34.1942H100.493C101.505 34.1942 102.244 34.4881 102.709 35.0757C103.174 35.6634 103.407 36.3946 103.407 37.2692C103.407 38.2259 103.147 38.9844 102.627 39.5447C102.107 40.1051 101.396 40.3852 100.493 40.3852ZM100.863 52.3572H95.3229V45.1412H100.945C101.629 45.1412 102.217 45.2437 102.709 45.4487C103.202 45.6537 103.605 45.9271 103.92 46.2687C104.234 46.6104 104.467 46.9999 104.617 47.4372C104.768 47.8746 104.843 48.3119 104.843 48.7492C104.843 49.7059 104.515 50.5464 103.858 51.2707C103.202 51.9951 102.203 52.3572 100.863 52.3572ZM118.22 57.4002L120.477 50.6352H131.064L133.362 57.4002H139.353L128.848 29.1512H122.693L112.147 57.4002H118.22ZM129.341 45.6742H122.159L125.729 35.0552L129.341 45.6742ZM150.761 57.7692C152.101 57.7692 153.38 57.5847 154.597 57.2157C155.815 56.8467 156.888 56.3069 157.818 55.5962C158.749 54.8856 159.494 53.9904 160.055 52.9107C160.616 51.8311 160.896 50.5942 160.896 49.2002C160.896 47.9976 160.677 46.9452 160.239 46.0432C159.802 45.1412 159.22 44.3622 158.496 43.7062C157.771 43.0502 156.923 42.5036 155.951 42.0662C154.98 41.6289 153.961 41.2599 152.894 40.9592L149.735 40.0572C148.996 39.8386 148.415 39.5994 147.991 39.3397C147.567 39.0801 147.252 38.8067 147.047 38.5197C146.842 38.2327 146.712 37.9594 146.657 37.6997C146.602 37.4401 146.575 37.2282 146.575 37.0642C146.575 36.1076 146.944 35.3286 147.683 34.7272C148.422 34.1259 149.352 33.8252 150.473 33.8252C151.704 33.8252 152.655 34.1669 153.325 34.8502C153.995 35.5336 154.331 36.3809 154.331 37.3922H160.034C160.034 36.0529 159.795 34.8502 159.316 33.7842C158.837 32.7182 158.174 31.8162 157.326 31.0782C156.478 30.3402 155.479 29.7731 154.331 29.3767C153.182 28.9804 151.937 28.7822 150.596 28.7822C149.256 28.7822 147.991 28.9804 146.801 29.3767C145.611 29.7731 144.571 30.3402 143.682 31.0782C142.793 31.8162 142.095 32.7046 141.589 33.7432C141.083 34.7819 140.83 35.9299 140.83 37.1872C140.83 37.8159 140.919 38.5061 141.097 39.2577C141.275 40.0094 141.63 40.7474 142.164 41.4717C142.697 42.1961 143.436 42.8794 144.38 43.5217C145.323 44.1641 146.575 44.6902 148.134 45.1002L151.581 46.0842C153.961 46.8222 155.151 47.9566 155.151 49.4872C155.151 50.4986 154.768 51.3049 154.002 51.9062C153.236 52.5076 152.21 52.8082 150.925 52.8082C149.612 52.8082 148.517 52.4461 147.642 51.7217C146.766 50.9974 146.315 50.1159 146.288 49.0772H140.584C140.584 50.3346 140.83 51.4894 141.323 52.5417C141.815 53.5941 142.513 54.5097 143.415 55.2887C144.318 56.0677 145.392 56.6759 146.637 57.1132C147.881 57.5506 149.256 57.7692 150.761 57.7692ZM171.77 57.4002V29.1512H166.066V57.4002H171.77ZM191.303 57.7692C193.71 57.7692 195.912 57.2362 197.909 56.1702C199.906 55.1042 201.548 53.6829 202.833 51.9062L198.484 48.7082C197.69 49.8562 196.705 50.7582 195.529 51.4142C194.353 52.0702 192.999 52.3982 191.467 52.3982C190.181 52.3982 188.998 52.1591 187.917 51.6807C186.837 51.2024 185.907 50.5464 185.127 49.7127C184.347 48.8791 183.739 47.9087 183.301 46.8017C182.863 45.6947 182.644 44.5126 182.644 43.2552C182.644 41.9979 182.863 40.8157 183.301 39.7087C183.739 38.6017 184.354 37.6382 185.147 36.8182C185.941 35.9982 186.878 35.3559 187.958 34.8912C189.039 34.4266 190.222 34.1942 191.508 34.1942C193.012 34.1942 194.353 34.5154 195.529 35.1577C196.705 35.8001 197.69 36.6952 198.484 37.8432L202.833 34.6862C201.548 32.8822 199.906 31.4541 197.909 30.4017C195.912 29.3494 193.71 28.8232 191.303 28.8232C189.306 28.8232 187.432 29.1991 185.681 29.9507C183.93 30.7024 182.412 31.7342 181.126 33.0462C179.84 34.3582 178.821 35.8889 178.069 37.6382C177.317 39.3876 176.941 41.2599 176.941 43.2552C176.941 45.2506 177.317 47.1297 178.069 48.8927C178.821 50.6557 179.84 52.1932 181.126 53.5052C182.412 54.8172 183.93 55.8559 185.681 56.6212C187.432 57.3866 189.306 57.7692 191.303 57.7692Z" fill="white"/>
<path d="M52.7037 61.8842C63.6836 61.8842 72.5797 52.9955 72.5797 42.0249C72.5797 31.0542 63.6836 22.1655 52.7037 22.1655C41.7238 22.1655 32.8276 31.0542 32.8276 42.0249C32.8276 52.9955 41.7238 61.8842 52.7037 61.8842ZM52.7037 43.9467C48.8086 43.9467 45.6509 40.7916 45.6509 36.8999C45.6509 33.0081 48.8086 29.853 52.7037 29.853C56.5987 29.853 59.7565 33.0081 59.7565 36.8999C59.7565 40.7916 56.5987 43.9467 52.7037 43.9467ZM52.7037 57.3998C47.9991 57.3998 43.7835 55.2698 40.9624 51.9385C42.4691 49.1038 45.4184 47.1498 48.8567 47.1498C49.0491 47.1498 49.2414 47.1819 49.4257 47.2379C50.4676 47.5742 51.5576 47.7905 52.7037 47.7905C53.8497 47.7905 54.9477 47.5742 55.9816 47.2379C56.166 47.1819 56.3583 47.1498 56.5506 47.1498C59.9889 47.1498 62.9382 49.1038 64.4449 51.9385C61.6238 55.2698 57.4082 57.3998 52.7037 57.3998Z" fill="white"/>
</svg>
