<svg width="82" height="82" viewBox="0 0 82 82" fill="none" xmlns="http://www.w3.org/2000/svg">
<path d="M41 0C63.6443 0 82 18.3557 82 41C82 63.6443 63.6443 82 41 82C18.3557 82 0 63.6443 0 41C0 18.3557 18.3557 0 41 0Z" fill="black"/>
<path d="M41 0C63.6443 0 82 18.3557 82 41C82 63.6443 63.6443 82 41 82C18.3557 82 0 63.6443 0 41C0 18.3557 18.3557 0 41 0Z" fill="black"/>
<path d="M65.5999 37.4126L57.8714 24.6001H51.0531L56.9653 37.4126H65.5999ZM52.8489 37.4126L46.9367 24.6001H35.0631L29.1509 37.4126H52.8489ZM25.0345 37.4126L30.9467 24.6001H24.1284L16.3999 37.4126H25.0345V37.4126ZM35.5059 60.1307L25.0017 39.9751H16.3999L35.0795 60.3931C35.2763 60.6022 35.6371 60.3808 35.5059 60.1307ZM41.2377 65.4566L52.9391 39.9751H29.0607L40.7703 65.4566C40.8523 65.6493 41.1516 65.6493 41.2377 65.4566ZM46.9203 60.389L65.5999 39.9751H56.9981L46.4939 60.1307C46.3627 60.3767 46.7235 60.6022 46.9203 60.389V60.389Z" fill="white"/>
</svg>
