<?xml version="1.0" encoding="UTF-8"?>
<svg width="58px" height="20px" viewBox="0 0 58 20" version="1.1" xmlns="http://www.w3.org/2000/svg" xmlns:xlink="http://www.w3.org/1999/xlink">
    <!-- Generator: Sketch 64 (93537) - https://sketch.com -->
    <title>member-basic</title>
    <desc>Created with Sketch.</desc>
    <g id="Symbols" stroke="none" stroke-width="1" fill="none" fill-rule="evenodd">
        <g id="Member-Level/member-basic">
            <g id="member-basic">
                <path d="M10,0 L48,0 C53.5228475,-1.01453063e-15 58,4.4771525 58,10 C58,15.5228475 53.5228475,20 48,20 L10,20 C4.4771525,20 6.76353751e-16,15.5228475 0,10 C-6.76353751e-16,4.4771525 4.4771525,1.01453063e-15 10,0 Z" id="Rectangle-🌈ease-out;lrgb;15" fill="#98A5B9"></path>
                <path d="M24.78,14 C25.16,14 25.4866667,13.9416667 25.76,13.825 C26.0333333,13.7083333 26.2583333,13.5566667 26.435,13.37 C26.6116667,13.1833333 26.7416667,12.9733333 26.825,12.74 C26.9083333,12.5066667 26.95,12.27 26.95,12.03 C26.95,11.8366667 26.9233333,11.645 26.87,11.455 C26.8166667,11.265 26.735,11.0933333 26.625,10.94 C26.515,10.7866667 26.3783333,10.655 26.215,10.545 C26.0516667,10.435 25.86,10.36 25.64,10.32 C25.8266667,10.26 25.9816667,10.1766667 26.105,10.07 C26.2283333,9.96333333 26.325,9.84333333 26.395,9.71 C26.465,9.57666667 26.515,9.43833333 26.545,9.295 C26.575,9.15166667 26.59,9.01666667 26.59,8.89 C26.59,8.63 26.5416667,8.39166667 26.445,8.175 C26.3483333,7.95833333 26.2133333,7.77 26.04,7.61 C25.8666667,7.45 25.655,7.32666667 25.405,7.24 C25.155,7.15333333 24.8766667,7.11 24.57,7.11 L24.57,7.11 L21.84,7.11 L21.84,14 L24.78,14 Z M24.49,9.85 L23.23,9.85 L23.23,8.34 L24.49,8.34 C24.7366667,8.34 24.9166667,8.41166667 25.03,8.555 C25.1433333,8.69833333 25.2,8.87666667 25.2,9.09 C25.2,9.32333333 25.1366667,9.50833333 25.01,9.645 C24.8833333,9.78166667 24.71,9.85 24.49,9.85 L24.49,9.85 Z M24.58,12.77 L23.23,12.77 L23.23,11.01 L24.6,11.01 C24.7666667,11.01 24.91,11.035 25.03,11.085 C25.15,11.135 25.2483333,11.2016667 25.325,11.285 C25.4016667,11.3683333 25.4583333,11.4633333 25.495,11.57 C25.5316667,11.6766667 25.55,11.7833333 25.55,11.89 C25.55,12.1233333 25.47,12.3283333 25.31,12.505 C25.15,12.6816667 24.9066667,12.77 24.58,12.77 L24.58,12.77 Z M28.81,14 L29.36,12.35 L31.94,12.35 L32.5,14 L33.96,14 L31.4,7.11 L29.9,7.11 L27.33,14 L28.81,14 Z M31.52,11.14 L29.77,11.14 L30.64,8.55 L31.52,11.14 Z M36.74,14.09 C37.0666667,14.09 37.3783333,14.045 37.675,13.955 C37.9716667,13.865 38.2333333,13.7333333 38.46,13.56 C38.6866667,13.3866667 38.8683333,13.1683333 39.005,12.905 C39.1416667,12.6416667 39.21,12.34 39.21,12 C39.21,11.7066667 39.1566667,11.45 39.05,11.23 C38.9433333,11.01 38.8016667,10.82 38.625,10.66 C38.4483333,10.5 38.2416667,10.3666667 38.005,10.26 C37.7683333,10.1533333 37.52,10.0633333 37.26,9.99 L37.26,9.99 L36.49,9.77 C36.31,9.71666667 36.1683333,9.65833333 36.065,9.595 C35.9616667,9.53166667 35.885,9.465 35.835,9.395 C35.785,9.325 35.7533333,9.25833333 35.74,9.195 C35.7266667,9.13166667 35.72,9.08 35.72,9.04 C35.72,8.80666667 35.81,8.61666667 35.99,8.47 C36.17,8.32333333 36.3966667,8.25 36.67,8.25 C36.97,8.25 37.2016667,8.33333333 37.365,8.5 C37.5283333,8.66666667 37.61,8.87333333 37.61,9.12 L37.61,9.12 L39,9.12 C39,8.79333333 38.9416667,8.5 38.825,8.24 C38.7083333,7.98 38.5466667,7.76 38.34,7.58 C38.1333333,7.4 37.89,7.26166667 37.61,7.165 C37.33,7.06833333 37.0266667,7.02 36.7,7.02 C36.3733333,7.02 36.065,7.06833333 35.775,7.165 C35.485,7.26166667 35.2316667,7.4 35.015,7.58 C34.7983333,7.76 34.6283333,7.97666667 34.505,8.23 C34.3816667,8.48333333 34.32,8.76333333 34.32,9.07 C34.32,9.22333333 34.3416667,9.39166667 34.385,9.575 C34.4283333,9.75833333 34.515,9.93833333 34.645,10.115 C34.775,10.2916667 34.955,10.4583333 35.185,10.615 C35.415,10.7716667 35.72,10.9 36.1,11 L36.1,11 L36.94,11.24 C37.52,11.42 37.81,11.6966667 37.81,12.07 C37.81,12.3166667 37.7166667,12.5133333 37.53,12.66 C37.3433333,12.8066667 37.0933333,12.88 36.78,12.88 C36.46,12.88 36.1933333,12.7916667 35.98,12.615 C35.7666667,12.4383333 35.6566667,12.2233333 35.65,11.97 L35.65,11.97 L34.26,11.97 C34.26,12.2766667 34.32,12.5583333 34.44,12.815 C34.56,13.0716667 34.73,13.295 34.95,13.485 C35.17,13.675 35.4316667,13.8233333 35.735,13.93 C36.0383333,14.0366667 36.3733333,14.09 36.74,14.09 Z M41.86,14 L41.86,7.11 L40.47,7.11 L40.47,14 L41.86,14 Z M46.62,14.09 C47.2066667,14.09 47.7433333,13.96 48.23,13.7 C48.7166667,13.44 49.1166667,13.0933333 49.43,12.66 L49.43,12.66 L48.37,11.88 C48.1766667,12.16 47.9366667,12.38 47.65,12.54 C47.3633333,12.7 47.0333333,12.78 46.66,12.78 C46.3466667,12.78 46.0583333,12.7216667 45.795,12.605 C45.5316667,12.4883333 45.305,12.3283333 45.115,12.125 C44.925,11.9216667 44.7766667,11.685 44.67,11.415 C44.5633333,11.145 44.51,10.8566667 44.51,10.55 C44.51,10.2433333 44.5633333,9.955 44.67,9.685 C44.7766667,9.415 44.9266667,9.18 45.12,8.98 C45.3133333,8.78 45.5416667,8.62333333 45.805,8.51 C46.0683333,8.39666667 46.3566667,8.34 46.67,8.34 C47.0366667,8.34 47.3633333,8.41833333 47.65,8.575 C47.9366667,8.73166667 48.1766667,8.95 48.37,9.23 L48.37,9.23 L49.43,8.46 C49.1166667,8.02 48.7166667,7.67166667 48.23,7.415 C47.7433333,7.15833333 47.2066667,7.03 46.62,7.03 C46.1333333,7.03 45.6766667,7.12166667 45.25,7.305 C44.8233333,7.48833333 44.4533333,7.74 44.14,8.06 C43.8266667,8.38 43.5783333,8.75333333 43.395,9.18 C43.2116667,9.60666667 43.12,10.0633333 43.12,10.55 C43.12,11.0366667 43.2116667,11.495 43.395,11.925 C43.5783333,12.355 43.8266667,12.73 44.14,13.05 C44.4533333,13.37 44.8233333,13.6233333 45.25,13.81 C45.6766667,13.9966667 46.1333333,14.09 46.62,14.09 Z" id="BASIC" fill="#FFFFFF" fill-rule="nonzero"></path>
                <path d="M12.8437385,15.0937474 C15.5195133,15.0937474 17.6874769,12.9257838 17.6874769,10.2500089 C17.6874769,7.57423407 15.5195133,5.40627049 12.8437385,5.40627049 C10.1679636,5.40627049 8,7.57423407 8,10.2500089 C8,12.9257838 10.1679636,15.0937474 12.8437385,15.0937474 Z M12.8437385,10.7187578 C11.8945296,10.7187578 11.1249925,9.94922078 11.1249925,9.00001192 C11.1249925,8.05080306 11.8945296,7.28126602 12.8437385,7.28126602 C13.7929473,7.28126602 14.5624844,8.05080306 14.5624844,9.00001192 C14.5624844,9.94922078 13.7929473,10.7187578 12.8437385,10.7187578 Z M12.8437385,14.000006 C11.697253,14.000006 10.6699193,13.4804776 9.98241715,12.6679681 C10.3496,11.976575 11.0683444,11.500006 11.9062407,11.500006 C11.9531232,11.500006 11.9999866,11.5078261 12.0449046,11.5214827 C12.2988102,11.6035175 12.5644461,11.6562556 12.8437385,11.6562556 C13.1230308,11.6562556 13.3906121,11.6035175 13.6425723,11.5214827 C13.6874903,11.5078261 13.7343537,11.500006 13.7812362,11.500006 C14.6191325,11.500006 15.3378769,11.976575 15.7050598,12.6679681 C15.0175576,13.4804776 13.9902239,14.000006 12.8437385,14.000006 Z" id="" fill="#FFFFFF" fill-rule="nonzero"></path>
            </g>
        </g>
    </g>
</svg>