<svg width="238" height="82" viewBox="0 0 238 82" fill="none" xmlns="http://www.w3.org/2000/svg">
<path fill-rule="evenodd" clip-rule="evenodd" d="M41.0345 0H196.966C219.629 0 238 18.3557 238 41C238 63.6443 219.629 82 196.966 82H41.0345C18.3711 82 0 63.6443 0 41C0 18.3557 18.3711 0 41.0345 0Z" fill="black"/>
<path d="M110.547 57.7689C112.57 57.7689 114.433 57.4696 116.128 56.8669C117.822 56.2642 119.275 55.3499 120.477 54.1199C121.68 52.8899 122.619 51.3237 123.288 49.4254C123.957 47.5271 124.293 45.2639 124.293 42.6399H110.055V47.2729H118.056C118.028 47.4082 118.007 47.5312 117.995 47.6419C117.982 47.7526 117.945 47.8592 117.892 47.9699C117.51 49.4459 116.653 50.6021 115.327 51.4344C114.002 52.2667 112.406 52.6849 110.547 52.6849C109.316 52.6849 108.167 52.4307 107.1 51.9264C106.033 51.4221 105.11 50.7374 104.33 49.8764C103.551 49.0154 102.935 48.0191 102.484 46.8834C102.032 45.7477 101.807 44.5546 101.807 43.2959C101.807 42.0372 102.032 40.8482 102.484 39.7289C102.935 38.6096 103.551 37.6297 104.33 36.7974C105.11 35.9651 106.033 35.3009 107.1 34.8089C108.167 34.3169 109.316 34.0709 110.547 34.0709C111.778 34.0709 112.939 34.3169 114.035 34.8089C115.13 35.3009 116.074 35.9856 116.866 36.8589L121.011 33.2919C119.78 31.8979 118.261 30.7991 116.456 29.9914C114.65 29.1837 112.681 28.7819 110.547 28.7819C108.524 28.7819 106.628 29.1591 104.864 29.9094C103.099 30.6597 101.569 31.6929 100.268 33.0049C98.967 34.3169 97.9494 35.8544 97.2107 37.6174C96.4721 39.3804 96.1028 41.2746 96.1028 43.2959C96.1028 45.2926 96.4721 47.1704 97.2107 48.9334C97.9494 50.6964 98.967 52.2339 100.268 53.5459C101.569 54.8579 103.099 55.8911 104.864 56.6414C106.628 57.3917 108.524 57.7689 110.547 57.7689V57.7689ZM141.446 57.7689C143.444 57.7689 145.315 57.3917 147.068 56.6414C148.82 55.8911 150.342 54.8579 151.643 53.5459C152.944 52.2339 153.97 50.6964 154.721 48.9334C155.471 47.1704 155.849 45.2926 155.849 43.2959C155.849 41.2746 155.471 39.3804 154.721 37.6174C153.97 35.8544 152.944 34.3169 151.643 33.0049C150.342 31.6929 148.82 30.6597 147.068 29.9094C145.315 29.1591 143.444 28.7819 141.446 28.7819C139.448 28.7819 137.576 29.1591 135.824 29.9094C134.072 30.6597 132.55 31.6929 131.249 33.0049C129.948 34.3169 128.93 35.8544 128.192 37.6174C127.453 39.3804 127.084 41.2746 127.084 43.2959C127.084 45.2926 127.453 47.1704 128.192 48.9334C128.93 50.6964 129.948 52.2339 131.249 53.5459C132.55 54.8579 134.072 55.8911 135.824 56.6414C137.576 57.3917 139.448 57.7689 141.446 57.7689ZM141.446 52.4389C140.186 52.4389 139.025 52.2011 137.958 51.7214C136.891 51.2417 135.976 50.5939 135.209 49.7739C134.441 48.9539 133.846 47.9822 133.424 46.8629C133.001 45.7436 132.788 44.5546 132.788 43.2959C132.788 42.0126 133.001 40.8154 133.424 39.7084C133.846 38.6014 134.441 37.6379 135.209 36.8179C135.976 35.9979 136.891 35.3501 137.958 34.8704C139.025 34.3907 140.186 34.1529 141.446 34.1529C142.706 34.1529 143.867 34.3907 144.934 34.8704C146.001 35.3501 146.916 35.9979 147.683 36.8179C148.45 37.6379 149.045 38.6014 149.468 39.7084C149.891 40.8154 150.104 42.0126 150.104 43.2959C150.104 44.5546 149.891 45.7436 149.468 46.8629C149.045 47.9822 148.45 48.9539 147.683 49.7739C146.916 50.5939 146.001 51.2417 144.934 51.7214C143.867 52.2011 142.706 52.4389 141.446 52.4389V52.4389ZM177.433 57.3999V52.3569H166.723V29.1509H161.019V57.3999H177.433ZM192.78 57.3999C194.803 57.3999 196.617 57.0432 198.217 56.3339C199.817 55.6246 201.163 54.6406 202.259 53.3819C203.355 52.1232 204.188 50.6349 204.762 48.9129C205.337 47.1909 205.624 45.3336 205.624 43.3369C205.624 41.3156 205.337 39.4419 204.762 37.7199C204.188 35.9979 203.355 34.5014 202.259 33.2304C201.163 31.9594 199.817 30.9631 198.217 30.2374C196.617 29.5117 194.803 29.1509 192.78 29.1509H181.701V57.3999H192.78ZM192.78 52.3569H187.405V34.1939H192.78C193.958 34.1939 194.988 34.4399 195.878 34.9319C196.769 35.4239 197.511 36.0922 198.115 36.9409C198.718 37.7896 199.169 38.7654 199.469 39.8724C199.768 40.9794 199.92 42.1356 199.92 43.3369C199.92 44.5382 199.768 45.6862 199.469 46.7809C199.169 47.8756 198.718 48.8309 198.115 49.6509C197.511 50.4709 196.769 51.1269 195.878 51.6189C194.988 52.1109 193.958 52.3569 192.78 52.3569ZM53.3449 16.3999L32.8276 25.3461V38.7654C32.8276 51.1761 41.5803 62.7832 53.3449 65.5999C65.1095 62.7832 73.8621 51.1761 73.8621 38.7654V25.3461L53.3449 16.3999ZM53.3449 25.3461C57.12 25.3461 60.1853 28.3473 60.1853 32.0537C60.1853 35.7601 57.12 38.7654 53.3449 38.7654C49.5697 38.7654 46.5044 35.7601 46.5044 32.0537C46.5044 28.3473 49.5697 25.3461 53.3449 25.3461ZM65.0397 52.1806C62.2822 56.3216 58.1541 59.4294 53.3449 60.9464C48.5356 59.4294 44.4076 56.3175 41.65 52.1806C40.8745 51.0654 40.2138 49.9461 39.6681 48.7612C39.6681 45.0712 45.8438 42.0495 53.3449 42.0495C60.846 42.0495 67.0217 45.0015 67.0217 48.7612C66.4759 49.9461 65.8153 51.0654 65.0397 52.1806V52.1806Z" fill="white"/>
</svg>
