<svg xmlns="http://www.w3.org/2000/svg" width="82" height="20" viewBox="0 0 82 20">
    <defs>
        <linearGradient id="442cpu9zxa" x1="1.571%" x2="100%" y1="47.026%" y2="52.974%">
            <stop offset="0%" stop-color="#F68720"/>
            <stop offset="100%" stop-color="#EF2015"/>
        </linearGradient>
    </defs>
    <g fill="none" fill-rule="evenodd">
        <g>
            <g>
                <path fill="url(#442cpu9zxa)" d="M10 0h62c5.523 0 10 4.477 10 10s-4.477 10-10 10H10C4.477 20 0 15.523 0 10S4.477 0 10 0z" transform="translate(-545 -415) translate(545 415)"/>
                <path fill="#FFF" fill-rule="nonzero" d="M28.12 14.15c.413 0 .778-.063 1.095-.19.317-.127.583-.292.8-.495.217-.203.382-.437.495-.7.113-.263.17-.532.17-.805 0-.247-.043-.483-.13-.71-.087-.227-.213-.432-.38-.615s-.373-.342-.62-.475c-.247-.133-.53-.23-.85-.29l-.99-.19c-.26-.053-.453-.152-.58-.295-.127-.143-.19-.312-.19-.505 0-.12.027-.233.08-.34.053-.107.128-.202.225-.285.097-.083.213-.15.35-.2.137-.05.288-.075.455-.075.227 0 .418.033.575.1.157.067.285.15.385.25.1.1.175.208.225.325.05.117.085.225.105.325l1.24-.38c-.04-.2-.115-.408-.225-.625-.11-.217-.265-.415-.465-.595s-.452-.328-.755-.445c-.303-.117-.668-.175-1.095-.175-.333 0-.65.057-.95.17-.3.113-.563.27-.79.47-.227.2-.405.435-.535.705-.13.27-.195.562-.195.875 0 .54.168.985.505 1.335.337.35.788.582 1.355.695l.99.2c.28.053.493.155.64.305.147.15.22.328.22.535 0 .253-.098.462-.295.625-.197.163-.482.245-.855.245-.253 0-.473-.037-.66-.11-.187-.073-.343-.172-.47-.295-.127-.123-.225-.265-.295-.425-.07-.16-.112-.327-.125-.5l-1.28.34c.027.253.1.512.22.775s.295.502.525.715c.23.213.515.388.855.525.34.137.747.205 1.22.205zm6.38.01c.38 0 .737-.057 1.07-.17.333-.113.622-.283.865-.51.243-.227.437-.507.58-.84.143-.333.215-.717.215-1.15V6.91h-1.38v4.48c0 .467-.12.82-.36 1.06-.24.24-.57.36-.99.36-.413 0-.74-.12-.98-.36s-.36-.593-.36-1.06V6.91h-1.38v4.58c0 .433.072.817.215 1.15.143.333.337.613.58.84.243.227.53.397.86.51.33.113.685.17 1.065.17zm5.66-.16v-2.67h1.27c.347 0 .663-.055.95-.165.287-.11.533-.262.74-.455.207-.193.365-.427.475-.7.11-.273.165-.57.165-.89 0-.32-.055-.615-.165-.885-.11-.27-.268-.503-.475-.7-.207-.197-.453-.35-.74-.46-.287-.11-.603-.165-.95-.165h-2.65V14h1.38zm1.1-3.86h-1.09V8.11h1.09c.347 0 .618.09.815.27.197.18.295.43.295.75 0 .307-.098.552-.295.735-.197.183-.468.275-.815.275zM49.28 14v-1.3h-3.06v-1.64h2.77V9.83h-2.77V8.21h3.06v-1.3h-4.44V14h4.44zm2.77 0v-2.73h.72L54.16 14h1.54l-1.52-2.9c.467-.133.835-.377 1.105-.73s.405-.78.405-1.28c0-.307-.053-.593-.16-.86-.107-.267-.258-.497-.455-.69-.197-.193-.433-.347-.71-.46-.277-.113-.588-.17-.935-.17h-2.77V14h1.39zm1.12-3.92h-1.12V8.11h1.12c.353 0 .627.09.82.27.193.18.29.42.29.72 0 .293-.097.53-.29.71-.193.18-.467.27-.82.27zM62.71 14l2.63-7.09h-1.46l-1.85 5.27-1.85-5.27h-1.51L61.29 14h1.42zm4.94 0V6.91h-1.4V14h1.4zm3 0v-2.67h1.27c.347 0 .663-.055.95-.165.287-.11.533-.262.74-.455.207-.193.365-.427.475-.7.11-.273.165-.57.165-.89 0-.32-.055-.615-.165-.885-.11-.27-.268-.503-.475-.7-.207-.197-.453-.35-.74-.46-.287-.11-.603-.165-.95-.165h-2.65V14h1.38zm1.1-3.86h-1.09V8.11h1.09c.347 0 .618.09.815.27.197.18.295.43.295.75 0 .307-.098.552-.295.735-.197.183-.468.275-.815.275zM17.6 13.125l1.356-3.766c.046.008.095.016.144.016.497 0 .9-.42.9-.938 0-.517-.403-.937-.9-.937s-.9.42-.9.937c0 .14.03.268.083.387l-1.358.848c-.289.18-.662.078-.829-.227L14.568 6.66c.2-.172.332-.43.332-.723C14.9 5.42 14.497 5 14 5s-.9.42-.9.937c0 .293.131.551.332.723l-1.528 2.785c-.167.305-.542.407-.829.227l-1.356-.848c.051-.117.083-.248.083-.387 0-.517-.403-.937-.9-.937S8 7.92 8 8.437c0 .518.403.938.9.938.049 0 .098-.008.144-.016l1.356 3.766h7.2zM17.9 15c.165 0 .3-.14.3-.313v-.625c0-.171-.135-.312-.3-.312h-7.8c-.165 0-.3.14-.3.312v.625c0 .172.135.313.3.313h7.8z" transform="translate(-545 -415) translate(545 415)"/>
            </g>
        </g>
    </g>
</svg>
