<svg width="246" height="82" viewBox="0 0 246 82" fill="none" xmlns="http://www.w3.org/2000/svg">
<path fill-rule="evenodd" clip-rule="evenodd" d="M41 0H205C227.644 0 246 18.3557 246 41C246 63.6443 227.644 82 205 82H41C18.3557 82 0 63.6443 0 41C0 18.3557 18.3557 0 41 0Z" fill="black"/>
<path d="M98.1131 57.7689C99.4538 57.7689 100.729 57.5844 101.947 57.2154C103.164 56.8464 104.234 56.3052 105.165 55.5959C106.096 54.8866 106.838 53.9887 107.4 52.9104C107.961 51.8321 108.24 50.5939 108.24 49.1999C108.24 47.9986 108.023 46.9449 107.584 46.0429C107.145 45.1409 106.567 44.3619 105.842 43.7059C105.116 43.0499 104.271 42.5046 103.3 42.0659C102.328 41.6272 101.311 41.2582 100.245 40.9589L97.0881 40.0569C96.3501 39.8396 95.7679 39.5977 95.3456 39.3394C94.9233 39.0811 94.6076 38.8064 94.4026 38.5194C94.1976 38.2324 94.0664 37.9577 94.0131 37.6994C93.9598 37.4411 93.9311 37.2279 93.9311 37.0639C93.9311 36.1086 94.3001 35.3296 95.0381 34.7269C95.7761 34.1242 96.7068 33.8249 97.8261 33.8249C99.0561 33.8249 100.007 34.1652 100.676 34.8499C101.344 35.5346 101.68 36.3792 101.68 37.3919H107.379C107.379 36.0512 107.141 34.8499 106.662 33.7839C106.182 32.7179 105.522 31.8159 104.673 31.0779C103.824 30.3399 102.828 29.7741 101.68 29.3764C100.532 28.9787 99.2898 28.7819 97.9491 28.7819C96.6084 28.7819 95.3456 28.9787 94.1566 29.3764C92.9676 29.7741 91.9303 30.3399 91.0406 31.0779C90.1509 31.8159 89.4539 32.7056 88.9496 33.7429C88.4453 34.7802 88.1911 35.9282 88.1911 37.1869C88.1911 37.8142 88.2813 38.5071 88.4576 39.2574C88.6339 40.0077 88.9906 40.7457 89.5236 41.4714C90.0566 42.1971 90.7946 42.8777 91.7376 43.5214C92.6806 44.1651 93.9311 44.6899 95.4891 45.0999L98.9331 46.0839C101.311 46.8219 102.5 47.9576 102.5 49.4869C102.5 50.4996 102.119 51.3032 101.352 51.9059C100.585 52.5086 99.5604 52.8079 98.2771 52.8079C96.9651 52.8079 95.8704 52.4471 94.9971 51.7214C94.1238 50.9957 93.6728 50.1142 93.6441 49.0769H87.9451C87.9451 50.3356 88.1911 51.4877 88.6831 52.5414C89.1751 53.5951 89.8721 54.5094 90.7741 55.2884C91.6761 56.0674 92.7503 56.6742 93.9926 57.1129C95.2349 57.5516 96.6084 57.7689 98.1131 57.7689V57.7689ZM119.105 57.3999V29.1509H113.406V57.3999H119.105ZM142.393 57.3999V52.3569H131.692V29.1509H125.993V57.3999H142.393ZM154.939 57.3999L163.508 29.1509H157.563L152.356 48.2159L147.149 29.1509H141.245L149.814 57.3999H154.939V57.3999ZM185.771 57.3999V52.3569H173.389V46.0429H183.926V40.9179H173.389V34.1939H185.402V29.1509H167.69V57.3999H185.771ZM196.923 57.3999V47.2729H198.85L205.574 57.3999H212.257L204.918 46.9859C206.119 46.7399 207.153 46.3422 208.014 45.7969C208.875 45.2516 209.58 44.5956 210.125 43.8289C210.67 43.0622 211.08 42.2176 211.355 41.2869C211.63 40.3562 211.765 39.3886 211.765 38.3759C211.765 37.2279 211.589 36.1004 211.232 34.9934C210.875 33.8864 210.322 32.9024 209.572 32.0414C208.821 31.1804 207.858 30.4834 206.681 29.9504C205.504 29.4174 204.11 29.1509 202.499 29.1509H191.224V57.3999H196.923ZM201.474 42.6809H196.923V34.1939H201.925C202.581 34.1939 203.167 34.3087 203.688 34.5424C204.209 34.7761 204.639 35.0877 204.98 35.4854C205.32 35.8831 205.582 36.3382 205.759 36.8589C205.935 37.3796 206.025 37.9249 206.025 38.4989C206.025 39.6182 205.668 40.5981 204.959 41.4304C204.25 42.2627 203.085 42.6809 201.474 42.6809V42.6809ZM41.9431 36.2685C44.3211 34.0463 47.351 32.5211 50.7171 31.9963L45.1821 22.7713C44.7721 22.0825 43.7881 21.5249 42.9845 21.5249H34.0875C33.0461 21.5249 32.4393 22.6934 33.0338 23.5421L41.9431 36.2685V36.2685ZM64.6571 36.2685L73.5664 23.5421C74.1609 22.6934 73.5541 21.5249 72.5168 21.5249H63.6157C62.7137 21.5249 61.8814 21.9964 61.4181 22.7713L55.8831 31.9963C59.2492 32.5211 62.2791 34.0463 64.6571 36.2685ZM53.3001 62.5249C61.0819 62.5249 67.3918 56.2109 67.3918 48.4332C67.3918 40.6473 61.0819 34.3374 53.3001 34.3374C45.5183 34.3374 39.2043 40.6514 39.2043 48.4332C39.2043 56.215 45.5183 62.5249 53.3001 62.5249V62.5249ZM57.0557 55.0383L53.3001 53.0662L49.5445 55.0383C48.8721 55.395 48.0849 54.821 48.212 54.0707L48.9295 49.8887L45.8955 46.9285C45.3461 46.3955 45.6495 45.4689 46.3998 45.3623L50.5982 44.7473L52.476 40.9466C52.6441 40.6022 52.968 40.4341 53.296 40.4341C53.624 40.4341 53.9561 40.6063 54.1242 40.9466L56.002 44.7514L60.2004 45.3623C60.9548 45.4689 61.2541 46.3996 60.7088 46.9285L57.6748 49.8887L58.3882 54.0707C58.5194 54.821 57.7322 55.395 57.0557 55.0383Z" fill="white"/>
</svg>
