<svg xmlns="http://www.w3.org/2000/svg" width="48" height="46" viewBox="0 0 48 46">
    <g fill="none" fill-rule="nonzero">
        <path fill="#59A5E0" d="M.191 20.78L6.66 2.352A3.502 3.502 0 0 1 8.465.35a3.622 3.622 0 0 1 2.723-.158l31.479 10.59a3.53 3.53 0 0 1 2.047 1.759 3.41 3.41 0 0 1 .173 2.66L38.479 33.63a3.502 3.502 0 0 1-1.829 2.027 3.622 3.622 0 0 1-2.76.131L2.412 25.198A3.53 3.53 0 0 1 .365 23.44a3.41 3.41 0 0 1-.174-2.66z"/>
        <path fill="#3E4347" d="M.955 18.12l1.654-4.76L40.61 26.266l-1.654 4.76z"/>
        <path fill="#FFF" d="M26.336 14.672l.411-1.183 11.744 3.99-.41 1.182zM27.323 11.858l.411-1.183 11.744 3.989-.41 1.183z"/>
        <path fill="#E9EFF4" d="M17.987 7.764l-1.299 3.673a.823.823 0 0 1-.426.479.859.859 0 0 1-.65.038l-5.029-1.674a.831.831 0 0 1-.483-.418.797.797 0 0 1-.033-.63l1.299-3.672a.858.858 0 0 1 1.075-.517l5.015 1.673a.825.825 0 0 1 .531 1.048z"/>
        <path fill="#DEE4E9" d="M17.984 7.874l-1.3 3.577a.81.81 0 0 1-.426.467.88.88 0 0 1-.65.037l-5.033-1.63a.79.79 0 0 1-.545-.887c3.523.927 6.822.092 7.576-1.974.058-.15.095-.306.112-.464.277.208.384.56.266.874z"/>
        <path fill="#BBC7D1" d="M17.865 8.54l.166-.54-2.495-.855a1.167 1.167 0 0 0-.56-1.14l.288-.825-.423-.18-.287.825a1.181 1.181 0 0 0-1.225.675l-2.465-.915-.166.495 2.434.825-.499 1.5-2.45-.885-.166.48 2.495.855c-.055.456.164.902.56 1.14l-.288.825.545.18.287-.825c.455.049.896-.168 1.134-.555l2.495.855.166-.495-2.434-.825.499-1.5 2.389.885zm-3.523.69a.682.682 0 0 1-.862.42.674.674 0 0 1-.423-.855l.68-1.95a.69.69 0 0 1 1.165-.232.677.677 0 0 1 .135.667l-.695 1.95z"/>
        <path fill="#FFF" d="M15.91 6.077c-.56 1.811-3.167 2.453-5.893 1.449l.87-2.848c.16-.521.666-.8 1.134-.626l4.007 1.515a2.147 2.147 0 0 1-.118.51z" opacity=".2"/>
        <path fill="#65B1EF" d="M47.082 22.55v19.9c0 .944-.373 1.849-1.037 2.515a3.507 3.507 0 0 1-2.5 1.035H10.549a3.507 3.507 0 0 1-2.5-1.035 3.566 3.566 0 0 1-1.036-2.516V22.551c0-.945.373-1.85 1.037-2.516a3.507 3.507 0 0 1 2.5-1.035h32.997a3.507 3.507 0 0 1 2.5 1.035 3.566 3.566 0 0 1 1.036 2.516z"/>
        <path fill="#E24B4B" d="M42.073 38.515A3.503 3.503 0 0 1 38.557 42a3.503 3.503 0 0 1-3.496-3.505A3.503 3.503 0 0 1 38.567 35c.932 0 1.827.37 2.485 1.03a3.497 3.497 0 0 1 1.021 2.485z"/>
        <path fill="#59A5E0" d="M47.082 22.882v19.617c0 .931-.374 1.824-1.038 2.48A3.54 3.54 0 0 1 43.54 46H10.497a3.57 3.57 0 0 1-2.483-1.006c18.19-.438 34.85-10.881 38.524-23.994.356.564.544 1.216.544 1.882z"/>
        <path fill="#FFF" d="M12.02 36h12.022v1.478H12.02V36zm0 3.522h12.022V41H12.02v-1.478z"/>
        <path fill="#5A5F63" d="M7.012 25h40.07v5H7.012z"/>
        <path fill="#3E4347" d="M44.678 25a26.875 26.875 0 0 1-3.607 5h6.01v-5h-2.403z"/>
    </g>
</svg>
