<svg xmlns="http://www.w3.org/2000/svg" width="48" height="36" viewBox="0 0 48 36">
    <g fill="none" fill-rule="nonzero">
        <path fill="#FFE1B2" d="M3 6.612h42v28.653H3z"/>
        <path fill="#FFB980" d="M3 30.857h42v4.408H3zM3 5.143h42v5.143H3z"/>
        <path fill="#7E5C62" d="M18 11.755H7.5a.742.742 0 0 0-.75.735v22.04h12V12.49a.742.742 0 0 0-.75-.735z"/>
        <path fill="#5C546A" d="M47.25 36H.75a.742.742 0 0 1-.75-.735c0-.406.335-.734.75-.734h46.5c.415 0 .75.328.75.734a.742.742 0 0 1-.75.735zM16.5 25.714a.742.742 0 0 1-.75-.734v-1.47c0-.406.335-.734.75-.734s.75.328.75.734v1.47a.742.742 0 0 1-.75.734z"/>
        <path fill="#FF4F19" d="M3.75 8.816c-1.243 0-2.25-.986-2.25-2.204V1.47C1.5.658 2.172 0 3 0h3v6.612C6 7.83 4.993 8.816 3.75 8.816z"/>
        <path fill="#E9001E" d="M8.25 8.816C7.007 8.816 6 7.83 6 6.612V0h4.5v6.612c0 1.218-1.007 2.204-2.25 2.204z"/>
        <path fill="#FF4F19" d="M12.75 8.816c-1.243 0-2.25-.986-2.25-2.204V0H15v6.612c0 1.218-1.007 2.204-2.25 2.204z"/>
        <path fill="#E9001E" d="M17.25 8.816c-1.243 0-2.25-.986-2.25-2.204V0h4.5v6.612c0 1.218-1.007 2.204-2.25 2.204z"/>
        <path fill="#FF4F19" d="M21.75 8.816c-1.243 0-2.25-.986-2.25-2.204V0H24v6.612c0 1.218-1.007 2.204-2.25 2.204z"/>
        <path fill="#E9001E" d="M26.25 8.816c-1.243 0-2.25-.986-2.25-2.204V0h4.5v6.612c0 1.218-1.007 2.204-2.25 2.204z"/>
        <path fill="#FF4F19" d="M30.75 8.816c-1.243 0-2.25-.986-2.25-2.204V0H33v6.612c0 1.218-1.007 2.204-2.25 2.204z"/>
        <path fill="#E9001E" d="M35.25 8.816c-1.243 0-2.25-.986-2.25-2.204V0h4.5v6.612c0 1.218-1.007 2.204-2.25 2.204z"/>
        <path fill="#FF4F19" d="M39.75 8.816c-1.243 0-2.25-.986-2.25-2.204V0H42v6.612c0 1.218-1.007 2.204-2.25 2.204z"/>
        <path fill="#E9001E" d="M44.25 8.816c-1.243 0-2.25-.986-2.25-2.204V0h3c.828 0 1.5.658 1.5 1.47v5.142c0 1.218-1.007 2.204-2.25 2.204z"/>
        <path fill="#53DCFF" d="M41.25 12.49H22.5a.742.742 0 0 0-.75.734v14.694c0 .406.336.735.75.735h18.75c.414 0 .75-.329.75-.735V13.224a.742.742 0 0 0-.75-.734z"/>
        <path fill="#B3F4FF" d="M37.274 28.653h3.976c.414 0 .75-.329.75-.735v-.87L27.138 12.49H21.75a.74.74 0 0 0-.621.347l16.145 15.816z"/>
        <path fill="#FFF" d="M31.318 12.49L42 22.954v-3.117l-7.5-7.347z"/>
        <path fill="#7E5C62" d="M41.25 29.388H22.5c-.827 0-1.5-.66-1.5-1.47V13.224c0-.81.673-1.469 1.5-1.469h18.75c.827 0 1.5.66 1.5 1.47v14.693c0 .81-.673 1.47-1.5 1.47zM22.5 13.224v14.694h18.752l-.002-14.694H22.5z"/>
        <path fill="#53DCFF" d="M16.5 21.306H9a.742.742 0 0 1-.75-.735V13.96c0-.406.336-.735.75-.735h7.5c.414 0 .75.33.75.735v6.612a.742.742 0 0 1-.75.735z"/>
        <path fill="#B3F4FF" d="M12.76 13.224H9a.742.742 0 0 0-.75.735v1.082l6.395 6.265H16.5c.414 0 .75-.329.75-.735v-2.947l-4.49-4.4z"/>
    </g>
</svg>
