<?xml version="1.0" encoding="UTF-8"?>
<svg width="50px" height="46px" viewBox="0 0 50 46" version="1.1" xmlns="http://www.w3.org/2000/svg" xmlns:xlink="http://www.w3.org/1999/xlink">
    <!-- Generator: Sketch 58 (84663) - https://sketch.com -->
    <title>payment-transfer</title>
    <desc>Created with Sketch.</desc>
    <g id="Layouts" stroke="none" stroke-width="1" fill="none" fill-rule="evenodd">
        <g id="Fado-WA-Payment-choose-payment-method" transform="translate(-34.000000, -336.000000)" fill-rule="nonzero">
            <g id="pmethod-card-1" transform="translate(16.000000, 320.000000)">
                <g id="top-content">
                    <g id="payment-transfer" transform="translate(18.364017, 16.000000)">
                        <rect id="Rectangle" fill="#415E72" x="10.2262427" y="13.7324435" width="29.6329498" height="24.7522343"></rect>
                        <rect id="Rectangle" fill="#FCD577" x="7.23046862" y="16.52141" width="5.46177824" height="19.7552678"></rect>
                        <polygon id="Path" fill="#EAC36E" points="12.6921506 16.52141 9.41277406 16.52141 7.23046862 16.52141 7.23046862 19.0779707 7.23046862 36.2766778 9.41277406 36.2766778 9.41277406 19.0779707 12.6921506 19.0779707"></polygon>
                        <rect id="Rectangle" fill="#FCD577" x="17.0139372" y="16.52141" width="5.46177824" height="19.7552678"></rect>
                        <polygon id="Path" fill="#EAC36E" points="22.4753305 16.52141 19.195954 16.52141 17.0135523 16.52141 17.0135523 19.0779707 17.0135523 36.2766778 19.195954 36.2766778 19.195954 19.0779707 22.4753305 19.0779707"></polygon>
                        <rect id="Rectangle" fill="#FCD577" x="26.796251" y="16.52141" width="5.46177824" height="19.7552678"></rect>
                        <polygon id="Path" fill="#EAC36E" points="32.2584142 16.52141 28.9791339 16.52141 26.796636 16.52141 26.796636 19.0779707 26.796636 36.2766778 28.9791339 36.2766778 28.9791339 19.0779707 32.2584142 19.0779707"></polygon>
                        <rect id="Rectangle" fill="#FCD577" x="36.5798159" y="16.52141" width="5.46177824" height="19.7552678"></rect>
                        <polygon id="Path" fill="#EAC36E" points="42.0414979 16.52141 38.7623138 16.52141 36.5798159 16.52141 36.5798159 19.0779707 36.5798159 36.2766778 38.7623138 36.2766778 38.7623138 19.0779707 42.0414979 19.0779707"></polygon>
                        <polygon id="Path" fill="#FCD577" points="24.6359833 0.0780460251 0 16.6957866 49.2719665 16.6957866"></polygon>
                        <circle id="Oval" fill="#415E72" cx="24.6359833" cy="9.49091632" r="3.31190377"></circle>
                        <path d="M24.6359833,13.3837866 C22.4893808,13.3837866 20.7430167,11.6374226 20.7430167,9.49082008 C20.7430167,7.34421757 22.4893808,5.59794979 24.6359833,5.59794979 C26.7825858,5.59794979 28.5289498,7.34431381 28.5289498,9.49091632 C28.5289498,11.6375188 26.7825858,13.3837866 24.6359833,13.3837866 Z M24.6359833,6.75997908 C23.130205,6.75997908 21.9051423,7.98504184 21.9051423,9.49082008 C21.9051423,10.9965983 23.130205,12.2217573 24.6359833,12.2217573 C26.1417615,12.2217573 27.3668243,10.9966946 27.3668243,9.49091632 C27.3668243,7.98513808 26.1417615,6.75997908 24.6359833,6.75997908 Z" id="Shape" fill="#EAC36E"></path>
                        <rect id="Rectangle" fill="#FCD577" x="4.7349205" y="36.160523" width="39.8022218" height="6.38408787"></rect>
                        <rect id="Rectangle" fill="#EAC36E" x="4.7349205" y="39.736205" width="39.8022218" height="5.83016318"></rect>
                        <rect id="Rectangle" fill="#FCD577" x="1.62693724" y="41.0412385" width="46.0181883" height="4.88071548"></rect>
                        <path d="M24.6359833,0.0780460251 L49.2719665,16.6957866 L42.041,16.695046 L42.041,36.160046 L44.5371423,36.160523 L44.537,41.041046 L47.6451255,41.0412385 L47.6451255,45.921954 L1.62693724,45.921954 L1.62693724,41.0412385 L4.734,41.041046 L4.7349205,36.160523 L7.23,36.160046 L7.23,16.695046 L6.50146603e-13,16.6957866 L24.6359833,0.0780460251 Z" id="Combined-Shape" fill="#303846" opacity="0.6" style="mix-blend-mode: overlay;"></path>
                    </g>
                </g>
            </g>
        </g>
    </g>
</svg>