<?xml version="1.0" encoding="UTF-8"?>
<svg width="44px" height="48px" viewBox="0 0 44 48" version="1.1" xmlns="http://www.w3.org/2000/svg" xmlns:xlink="http://www.w3.org/1999/xlink">
    <!-- Generator: Sketch 58 (84663) - https://sketch.com -->
    <title>icon-payment-athome</title>
    <desc>Created with Sketch.</desc>
    <g id="Layouts" stroke="none" stroke-width="1" fill="none" fill-rule="evenodd">
        <g id="Fado-WA-Payment-choose-payment-method" transform="translate(-34.000000, -2068.000000)" fill-rule="nonzero">
            <g id="pmethod-card-1" transform="translate(16.000000, 2052.000000)">
                <g id="icon-payment-athome" transform="translate(18.250000, 16.000000)">
                    <path d="M38.2514063,47.999625 L5.27821875,47.999625 C4.450125,47.999625 3.7794375,47.3289375 3.7794375,46.5008437 L3.7794375,21.0215625 L21.7648125,3.78553125 L39.7501875,21.0215625 L39.7501875,46.5008438 C39.7501875,47.3281875 39.07875,47.999625 38.2514063,47.999625 Z" id="Path" fill="#FFCB5B"></path>
                    <g id="Group" transform="translate(3.750000, 3.750000)" fill="#F6B545">
                        <path d="M18.0148125,0.03553125 L0.0294297321,17.2715625 C0.0264375,18.3432188 0.89278125,19.2147187 1.96509375,19.2177187 C2.48146875,19.2192187 2.97675,19.0146562 3.34171875,18.6504375 L12.9339375,9.170625 C15.7516875,6.385125 20.2854375,6.385125 23.1031875,9.170625 L31.4214375,17.4139688 C32.9089687,18.88575 33.7475625,20.8896562 33.7520625,22.9819688 L33.7520625,40.5027187 C33.7520625,41.3308125 33.081375,42.0015 32.2532812,42.0015 L32.2532812,42.0015 C31.0115625,42.0015 30.0051562,43.0079063 30.0051562,44.2497187 L34.5015,44.2497187 C35.3295938,44.2497187 36.0002813,43.5790312 36.0002813,42.7509375 L36.0002813,17.2715625 L18.0148125,0.03553125 Z" id="Path"></path>
                        <rect id="Rectangle" x="10.5239062" y="24.7639688" width="14.9878125" height="19.4841563"></rect>
                    </g>
                    <rect id="Rectangle" fill="#92582B" x="15.7726875" y="30.01275" width="11.99025" height="17.985375"></rect>
                    <circle id="Oval" fill="#50BEE8" cx="21.7678125" cy="18.7718438" r="2.9975625"></circle>
                    <path d="M21.7648125,23.2696875 C19.281375,23.2696875 17.2684688,21.2567812 17.2684688,18.7733438 C17.2684688,16.2899063 19.281375,14.277 21.7648125,14.277 C24.24825,14.277 26.2611563,16.2899063 26.2611563,18.7733438 C26.2611563,21.2567813 24.24825,23.2696875 21.7648125,23.2696875 Z M21.7648125,15.7757812 C20.109375,15.7757812 18.76725,17.1179063 18.76725,18.7733437 C18.76725,20.4287812 20.109375,21.7709062 21.7648125,21.7709062 C23.42025,21.7709062 24.762375,20.4287812 24.762375,18.7733437 C24.762375,17.1179063 23.42025,15.7757812 21.7648125,15.7757812 Z" id="Shape" fill="#92582B"></path>
                    <path d="M21.7648125,5.65153125 L3.61453125,23.592 C3.0315,24.1630313 2.09925,24.1630313 1.51621875,23.592 L0.4670625,22.5203438 C-0.08971875,21.9403125 -0.08971875,21.0245625 0.4670625,20.4445313 L20.7006562,0.42825 C21.2836875,-0.14278125 22.2159375,-0.14278125 22.7989687,0.42825 L43.0325625,20.4445313 C43.5893438,21.0245625 43.5893438,21.9403125 43.0325625,22.5203438 L41.9984062,23.592 C41.415375,24.1630313 40.483125,24.1630313 39.9000937,23.592 L21.7648125,5.65153125" id="Path" fill="#DE333F"></path>
                    <circle id="Oval" fill="#CAD1D8" cx="25.5147188" cy="39.7547813" r="1"></circle>
                </g>
            </g>
        </g>
    </g>
</svg>