<svg xmlns="http://www.w3.org/2000/svg" viewBox="0 0 400.2 409.8"><defs><style>.cls-1{fill:#118acb;}.cls-2{fill:#33b44a;}.cls-3{fill:#39b54a;}</style></defs><title>zaloplay-icon</title><g id="Layer_2" data-name="Layer 2"><g id="Layer_1-2" data-name="Layer 1"><path class="cls-1" d="M233.2,66.2a15.9,15.9,0,0,0-11.9-4.8c-7.1,0-12.2,3.4-15.5,10.2-6.9-8.1-16.4-12.2-28.4-12.2C163,59.4,150.9,65,141,76.1s-14.7,24.7-14.7,40.7,4.9,29.6,14.7,40.7,22,16.7,36.4,16.7c12,0,21.5-4.1,28.4-12.2,3.2,6.8,8.4,10.2,15.5,10.2a15.9,15.9,0,0,0,11.9-4.8,16.23,16.23,0,0,0,4.7-11.7V78A16.71,16.71,0,0,0,233.2,66.2ZM198.7,136c-4,5.2-9.6,7.8-16.6,7.8s-12.6-2.6-16.6-7.8-6-11.6-6-19.3,2-14.1,6-19.3,9.6-7.8,16.6-7.8,12.6,2.6,16.6,7.8,6,11.6,6,19.3S202.8,130.8,198.7,136Z"/><path class="cls-1" d="M275.3,167.3a17.15,17.15,0,0,1-23.8,0,16.23,16.23,0,0,1-4.7-11.7V16.5a16.23,16.23,0,0,1,4.7-11.7,17.15,17.15,0,0,1,23.8,0A16.23,16.23,0,0,1,280,16.5V155.6a16.23,16.23,0,0,1-4.7,11.7Z"/><path class="cls-1" d="M384.9,76.1C374.3,65,360.8,59.4,344.4,59.4s-29.8,5.5-40.2,16.5-15.6,24.6-15.6,40.9,5.2,29.9,15.6,40.9,23.8,16.5,40.2,16.5,29.9-5.6,40.5-16.7c10.2-10.9,15.3-24.4,15.3-40.7S395,86.9,384.9,76.1ZM361,136c-4,5.2-9.6,7.8-16.6,7.8s-12.6-2.6-16.6-7.8-6-11.6-6-19.3,2-14.1,6-19.3,9.6-7.8,16.6-7.8S357,92.2,361,97.4s6,11.6,6,19.3S365,130.8,361,136Z"/><path class="cls-1" d="M108,63.2c11.7-15.1,17.5-25.2,17.5-30.5,0-12.1-7.6-18.1-22.8-18.1H22.4c-6.3,0-11.2,1.5-14.6,4.5A14.58,14.58,0,0,0,2.6,30.7,14.44,14.44,0,0,0,7.8,42.3c3.5,3,8.3,4.5,14.6,4.5H77.5L7,138Q.1,147,.1,153.9c0,13.3,8.8,19.9,26.3,19.9h82.8c13.2,0,19.8-5.6,19.8-16.7s-6.6-16.7-19.8-16.7H48.3L108,63.2Z"/><path class="cls-2" d="M68.5,259.7H47.9v42.8H68.5c6.2,0,11.2-2,15.1-6.1A21.63,21.63,0,0,0,89.4,281c0-6.2-1.9-11.3-5.8-15.4C79.7,261.7,74.7,259.7,68.5,259.7Z"/><path class="cls-2" d="M171.4,300c-6.5,0-11.7,2.4-15.4,7.2s-5.6,10.8-5.6,17.8,1.9,13,5.6,17.8,8.9,7.2,15.4,7.2,11.7-2.4,15.4-7.2,5.6-10.8,5.6-17.8-1.9-13-5.6-17.8S177.9,300,171.4,300Z"/><path class="cls-3" d="M317,198.5H18.1A18.1,18.1,0,0,0,0,216.6V391.7a18.1,18.1,0,0,0,18.1,18.1H254a11,11,0,0,1-3.7-8.3,22.21,22.21,0,0,1,1.7-8.1l11.1-24.7-30.7-77a18.86,18.86,0,0,1-1.4-7.2,10.38,10.38,0,0,1,4.3-8.5,14,14,0,0,1,8.9-3.5c6.8,0,11.5,3.3,13.9,9.9l19.2,52.4,20.5-52.4c2.6-6.6,7.2-9.9,13.9-9.9a14,14,0,0,1,8.9,3.5,10.8,10.8,0,0,1,4.3,8.5,18.86,18.86,0,0,1-1.4,7.2L278,402.4a22.22,22.22,0,0,1-4.5,7.3H317a18.1,18.1,0,0,0,18.1-18.1V216.5A18,18,0,0,0,317,198.5ZM105.9,316.3c-9.4,8.6-21.3,12.9-35.6,12.9H47.9v33.1c0,5-1.4,8.9-4.2,11.6S37.2,378,32.8,378a15.19,15.19,0,0,1-10.9-4.1c-2.8-2.8-4.2-6.6-4.2-11.6V248.8c0-10.5,5.3-15.8,15.8-15.8H69.3c15,0,27.3,4.5,37.1,13.4s14.7,20.6,14.7,34.9C120.9,295.7,115.9,307.4,105.9,316.3ZM223,361a14.62,14.62,0,0,1-4.3,10.8,14.47,14.47,0,0,1-11,4.4c-6.5,0-11.3-3.1-14.3-9.4-6.4,7.5-15.2,11.3-26.3,11.3-13.3,0-24.6-5.1-33.7-15.4s-13.6-22.9-13.6-37.7,4.5-27.4,13.6-37.7,20.3-15.4,33.7-15.4c11.1,0,19.9,3.8,26.3,11.3,3-6.3,7.8-9.4,14.3-9.4A14.87,14.87,0,0,1,223,289Z"/></g></g></svg>