<?xml version="1.0" encoding="iso-8859-1"?>
<!-- Generator: Adobe Illustrator 21.0.0, SVG Export Plug-In . SVG Version: 6.00 Build 0)  -->
<svg version="1.1" id="Capa_1" xmlns="http://www.w3.org/2000/svg" xmlns:xlink="http://www.w3.org/1999/xlink" x="0px" y="0px"
	 viewBox="-49 141 512 512" style="enable-background:new -49 141 512 512;" xml:space="preserve">
<g>
	<path style="fill:#FDBD40;" d="M262.807,272.347c-4.748,35.715-37.549,60.825-73.264,56.077
		c-35.715-4.748-60.825-37.549-56.077-73.264s37.549-60.825,73.264-56.077c22.182,2.95,41.297,17.057,50.662,37.375"/>
	<path style="fill:#FFF69A;" d="M218.236,245.415v-13.592h-13.592v-13.592h-13.592v13.592h-13.592v40.775h27.183v13.592h-27.183
		v13.592h13.592v13.592h13.592v-13.592h13.592v-40.775h-27.183v-13.592H218.236z"/>
</g>
<g>
	<rect x="-48.667" y="587.954" style="fill:#0052B4;" width="117.482" height="65.046"/>
	<rect x="-48.667" y="522.908" style="fill:#006DF0;" width="117.482" height="65.046"/>
	<path style="fill:#FFD6A0;" d="M325.999,559.256c-5.957-9.892-18.806-13.081-28.698-7.124l-67.495,34.488
		c3.87-3.794,6.27-9.08,6.27-14.928c0-11.547-9.361-20.908-20.908-20.908h-63.38c-26.289,0-38.68-18.585-82.973-18.585v92.923
		c0,0,12.078,8.362,27.877,18.585c14.098,9.12,20.712,9.292,31.443,9.292l69.225-0.027c8.671,0,17.346-3.689,26.946-8.335
		c9.601-4.646,94.57-56.684,94.57-56.684C328.767,581.997,331.957,569.151,325.999,559.256L325.999,559.256z M325.999,559.256"/>
	<path style="fill:#FFC170;" d="M68.815,532.201v92.923c0,0,12.078,8.362,27.877,18.585c14.098,9.12,20.712,9.292,31.443,9.292
		l47.542-0.019L68.815,532.201z M68.815,532.201"/>
</g>
<line style="fill:#0052B4;" x1="509" y1="796" x2="509" y2="740"/>
<line style="fill:#006DF0;" x1="509" y1="740" x2="509" y2="684"/>
<path style="fill:#D3B585;" d="M115.922,364.422h162.744v162.744H115.922V364.422z"/>
<path style="fill:#B4833F;" d="M278.667,527.167H115.922l4.504-0.627c83.558-11.604,148.662-78.303,158.24-162.118V527.167z"/>
<g>
	<path style="fill:#B4833F;" d="M172.883,445.794h48.823c4.494,0,8.137,3.643,8.137,8.137l0,0c0,4.494-3.643,8.137-8.137,8.137
		h-48.823c-4.494,0-8.137-3.643-8.137-8.137l0,0C164.746,449.438,168.389,445.794,172.883,445.794z"/>
	<path style="fill:#B4833F;" d="M115.922,392.902h162.744v12.206H115.922V392.902z"/>
</g>
<path style="fill:#FFD884;" d="M123.814,356.285v65.098l20.343-20.343l20.343,20.343l20.343-20.343v-44.755H123.814z"/>
<polygon style="fill:#FFC170;" points="229.949,209.941 281.779,184.026 318.023,198.524 373.172,234.587 334.674,239.176 
	293.609,229.999 258.314,237.059 255.965,272.347 293.609,272.347 371.244,279.407 411.671,321.755 463,321.755 463,220.271 
	397.76,169.529 274.53,140.533 194.792,198.524 "/>
<polygon style="fill:#FFD6A0;" points="236.87,205.773 280.363,184.026 316.607,198.524 371.756,234.587 333.258,239.176 
	292.193,229.999 256.898,237.059 254.55,272.347 292.193,272.347 369.828,279.407 410.255,321.755 461.584,321.755 461.584,220.271 
	396.344,169.529 273.114,140.533 "/>
</svg>
