<svg xmlns="http://www.w3.org/2000/svg" width="48" height="52" viewBox="0 0 48 52">
    <g fill="none" fill-rule="nonzero">
        <path fill="#FFF" d="M47.888 26.09a2.533 2.533 0 0 1-1.792 3.105L9.563 38.987a2.533 2.533 0 0 1-3.104-1.792L.112 13.515a2.533 2.533 0 0 1 1.792-3.104L38.437.619a2.533 2.533 0 0 1 3.11 1.797l6.346 23.675h-.005z"/>
        <path fill="#F7A01D" d="M12.523 23.056l-2.224-4.39a1.2 1.2 0 0 0-1.488-.533l-4.459 1.195v.224c3.717-.096 6.56 1.317 8.17 3.504z"/>
        <path fill="#3262AE" d="M21.403 14.853l-2.88.774 1.029 11.045 2.875-.773-1.024-11.046zm-5.75 12.848l1.707-11.733-3.05.816-.891 7.936-.619-1.008A11.67 11.67 0 0 0 7.637 20.4l4.939 8.117 3.077-.816zm15.878-7.968c-.31-1.2-1.328-1.909-3.2-2.224-1.142-.218-1.84-.378-1.968-.874-.128-.496.277-1.067 1.402-1.35a5.504 5.504 0 0 1 2.262-.17l.293.048-.208-2.363a7.728 7.728 0 0 0-2.699.25c-2.842.763-4.464 2.731-3.93 4.8.389 1.526 2.064 1.98 3.29 2.193 1.227.213 1.723.442 1.84.912.182.709-.618 1.269-1.445 1.493a6.256 6.256 0 0 1-2.859.17l-.416-.069.23 2.475a9.408 9.408 0 0 0 3.354-.299c3.03-.826 4.619-2.762 4.054-4.992zm3.92.976l3.69-.976c.187.347.774 1.488.774 1.488l2.666-.714-5.152-9.936-2.229.592a1.483 1.483 0 0 0-1.275 1.28l-1.68 10.826 3.024-.81s.15-1.43.182-1.75zm.602-5.642c0 .032.075-.678.112-1.11l.438.859 1.482 2.875-2.389.64c.08-.672.357-3.264.357-3.264zM38.437.619L1.904 10.41a2.533 2.533 0 0 0-1.792 3.104l.683 2.544L42.224 4.955l-.677-2.539a2.533 2.533 0 0 0-3.11-1.797z"/>
        <path fill="#F7A01D" d="M46.096 29.195L9.563 38.987a2.533 2.533 0 0 1-3.104-1.792l-.683-2.528 41.435-11.12.682 2.544a2.533 2.533 0 0 1-1.797 3.104z"/>
        <path fill="#3262AE" d="M42.923 49.2a2.533 2.533 0 0 1-2.539 2.533H2.56A2.534 2.534 0 0 1 0 49.2V24.667a2.533 2.533 0 0 1 2.56-2.518h37.824c1.4 0 2.533 1.135 2.533 2.534v24.533l.006-.016z"/>
        <path fill="#FFCE04" d="M24.315 36.944a7.419 7.419 0 0 1-2.843 5.84 7.43 7.43 0 1 0 0-11.68 7.43 7.43 0 0 1 2.843 5.867v-.027z"/>
        <path fill="#F0542C" d="M24.315 36.944a7.467 7.467 0 1 0-2.843 5.84 7.419 7.419 0 0 0 2.843-5.84z"/>
    </g>
</svg>
