<svg xmlns="http://www.w3.org/2000/svg" width="48" height="48" viewBox="0 0 48 48">
    <g fill="none" fill-rule="nonzero">
        <path fill="#DA8C36" d="M5.454 45.818v-4.364c0-.656-.436-1.09-1.09-1.09-.656 0-1.092.435-1.092 1.09v4.364h2.182zm39.273 0v-4.364c0-.656-.436-1.09-1.091-1.09s-1.091.435-1.091 1.09v4.364h2.182z"/>
        <path fill="#C97629" d="M42.546 40.364v2.182h1.09v3.272h1.091v-5.454h-2.181zm-39.273 0v2.182h1.091v3.272h1.09v-5.454H3.273z"/>
        <path fill="#B0C4D9" d="M24 6.546c-.656 0-1.091-.436-1.091-1.092V1.091C22.909.436 23.344 0 24 0c.656 0 1.091.436 1.091 1.091v4.363c0 .655-.435 1.092-1.091 1.092z"/>
        <path fill="#D5E3EF" d="M10.909 45.818v-34.91c0-.655.436-1.09 1.091-1.09h5.454c.657 0 1.092-.436 1.092-1.092v-2.18c0-.657.436-1.092 1.09-1.092h8.728c.656 0 1.091.436 1.091 1.092v2.181c0 .656.436 1.091 1.092 1.091H36c.656 0 1.091.436 1.091 1.092v34.908H10.91z"/>
        <path fill="#4C9CD6" d="M32.727 17.454H15.273c-.656 0-1.091-.436-1.091-1.09v-2.182c0-.657.435-1.092 1.09-1.092h17.455c.656 0 1.091.436 1.091 1.092v2.181c0 .655-.436 1.091-1.09 1.091z"/>
        <path fill="#70B7E5" d="M22.909 17.454h-2.182L24 13.091h2.182l-3.273 4.363zm5.455 0H24l3.273-4.363h4.363l-3.272 4.363z"/>
        <path fill="#4C9CD6" d="M32.727 24H15.273c-.656 0-1.091-.436-1.091-1.091v-2.182c0-.656.435-1.091 1.09-1.091h17.455c.656 0 1.091.436 1.091 1.091v2.182c0 .655-.436 1.091-1.09 1.091z"/>
        <path fill="#70B7E5" d="M22.909 24h-2.182L24 19.637h2.182L22.909 24zm5.455 0H24l3.273-4.363h4.363L28.364 24z"/>
        <path fill="#4C9CD6" d="M32.727 30.546H15.273c-.656 0-1.091-.436-1.091-1.092v-2.181c0-.656.435-1.091 1.09-1.091h17.455c.656 0 1.091.436 1.091 1.09v2.182c0 .655-.436 1.092-1.09 1.092z"/>
        <path fill="#70B7E5" d="M22.909 30.546h-2.182L24 26.182h2.182l-3.273 4.364zm5.455 0H24l3.273-4.364h4.363l-3.272 4.364z"/>
        <path fill="#4C9CD6" d="M32.727 37.091H15.273c-.656 0-1.091-.436-1.091-1.091v-2.182c0-.656.435-1.09 1.09-1.09h17.455c.656 0 1.091.435 1.091 1.09V36c0 .656-.436 1.091-1.09 1.091z"/>
        <path fill="#70B7E5" d="M22.909 37.091h-2.182L24 32.727h2.182l-3.273 4.364zm5.455 0H24l3.273-4.364h4.363l-3.272 4.364z"/>
        <path fill="#595A66" d="M46.909 48H1.09C.436 48 0 47.564 0 46.909c0-.656.436-1.091 1.091-1.091H46.91c.656 0 1.091.435 1.091 1.09 0 .656-.436 1.092-1.091 1.092z"/>
        <path fill="#89C763" d="M46.909 38.182c0 1.854-1.419 3.272-3.273 3.272s-3.273-1.418-3.273-3.272c0-1.855 3.273-5.455 3.273-5.455s3.273 3.6 3.273 5.455z"/>
        <path fill="#71B956" d="M45.273 34.688c.327.764.545 1.418.545 1.964 0 2.072-1.418 3.708-3.272 3.708-.657 0-1.2-.218-1.746-.545a3.255 3.255 0 0 0 2.836 1.636c1.854 0 3.273-1.419 3.273-3.273 0-.865-.873-2.287-1.636-3.49z"/>
        <path fill="#89C763" d="M7.636 38.182c0 1.854-1.418 3.272-3.273 3.272-1.854 0-3.273-1.418-3.273-3.272 0-1.855 3.273-5.455 3.273-5.455s3.273 3.6 3.273 5.455z"/>
        <path fill="#4C9CD6" d="M20.727 39.273h6.546v6.545h-6.546v-6.545zm12 4.363h-2.181c-.657 0-1.092-.436-1.092-1.091v-2.18c0-.657.436-1.092 1.092-1.092h2.181c.656 0 1.091.436 1.091 1.091v2.182c0 .654-.436 1.09-1.09 1.09zm-15.273 0h-2.181c-.656 0-1.091-.436-1.091-1.091v-2.18c0-.657.435-1.092 1.09-1.092h2.182c.657 0 1.092.436 1.092 1.091v2.182c0 .654-.437 1.09-1.092 1.09z"/>
        <path fill="#71B956" d="M6 34.688c.327.764.546 1.418.546 1.964 0 2.072-1.419 3.708-3.273 3.708-.656 0-1.2-.218-1.746-.545a3.255 3.255 0 0 0 2.836 1.636c1.854 0 3.273-1.419 3.273-3.273 0-.865-.872-2.287-1.636-3.49z"/>
        <path fill="#C9D5E3" d="M28.364 5.454h-8.728c-.656 0-1.091.436-1.091 1.092v2.181c0 .656-.436 1.091-1.092 1.091h13.093c-.657 0-1.092-.435-1.092-1.09V6.545c0-.655-.436-1.092-1.09-1.092z"/>
        <path fill="#B0C4D9" d="M29.454 8.727V6.546c0-.657-.436-1.092-1.09-1.092H25.09c.656 0 1.091.436 1.091 1.092v2.181c0 .656.436 1.091 1.092 1.091h3.273c-.656 0-1.093-.436-1.093-1.09z"/>
        <path fill="#3689C9" d="M33.818 14.182H14.182c0-.657.435-1.092 1.09-1.092h17.455c.656 0 1.091.436 1.091 1.092z"/>
        <path fill="#4C9CD6" d="M25.309 14.182l.873-1.09H24l-.873 1.09h2.182zm5.454 0l.873-1.09h-4.363l-.873 1.09h4.363z"/>
        <path fill="#3689C9" d="M33.818 20.727H14.182c0-.656.435-1.091 1.09-1.091h17.455c.656 0 1.091.436 1.091 1.091z"/>
        <path fill="#4C9CD6" d="M25.309 20.727l.873-1.09H24l-.873 1.09h2.182zm5.454 0l.873-1.09h-4.363l-.873 1.09h4.363z"/>
        <path fill="#3689C9" d="M33.818 27.273H14.182c0-.656.435-1.091 1.09-1.091h17.455c.656 0 1.091.436 1.091 1.09z"/>
        <path fill="#4C9CD6" d="M25.309 27.273l.873-1.091H24l-.873 1.09h2.182zm5.454 0l.873-1.091h-4.363l-.873 1.09h4.363z"/>
        <path fill="#3689C9" d="M33.818 33.818H14.182c0-.656.435-1.09 1.09-1.09h17.455c.656 0 1.091.435 1.091 1.09zm0 6.546h-4.364c0-.656.436-1.091 1.092-1.091h2.181c.656 0 1.091.436 1.091 1.091zm-15.272 0h-4.364c0-.656.435-1.091 1.09-1.091h2.182c.657 0 1.092.436 1.092 1.091z"/>
        <path fill="#4C9CD6" d="M25.309 33.818l.873-1.09H24l-.873 1.09h2.182zm5.454 0l.873-1.09h-4.363l-.873 1.09h4.363z"/>
        <path fill="#70B7E5" d="M24 39.273L20.727 43.2v2.618l5.455-6.545H24zm3.273 0l-5.455 6.545h4.364l1.09-1.31v-5.235z"/>
        <circle cx="24.546" cy="43.091" r="1" fill="#1470B8"/>
        <circle cx="23.454" cy="43.091" r="1" fill="#1470B8"/>
    </g>
</svg>
