<svg width="41" height="41" viewBox="0 0 41 41" fill="none" xmlns="http://www.w3.org/2000/svg">
<rect width="40.4355" height="40.4355" rx="20.2178" fill="white"/>
<path d="M28.9165 16.0463C28.716 15.2734 28.1254 14.6647 27.3756 14.4581C26.0164 14.0828 20.5661 14.0828 20.5661 14.0828C20.5661 14.0828 15.1159 14.0828 13.7567 14.4581C13.0068 14.6647 12.4162 15.2734 12.2158 16.0463C11.8516 17.4471 11.8516 20.3699 11.8516 20.3699C11.8516 20.3699 11.8516 23.2927 12.2158 24.6936C12.4162 25.4665 13.0068 26.0498 13.7567 26.2564C15.1159 26.6317 20.5661 26.6317 20.5661 26.6317C20.5661 26.6317 26.0163 26.6317 27.3756 26.2564C28.1254 26.0498 28.716 25.4665 28.9165 24.6936C29.2807 23.2927 29.2807 20.3699 29.2807 20.3699C29.2807 20.3699 29.2807 17.4471 28.9165 16.0463ZM18.7836 23.0236V17.7162L23.3389 20.37L18.7836 23.0236Z" fill="#231F20"/>
</svg>
