<svg xmlns="http://www.w3.org/2000/svg" width="49" height="56" viewBox="0 0 49 56">
    <g fill="#A36900">
        <path d="M18.577 24.029c3.528 0 6.708-2.125 8.058-5.384 1.35-3.26.604-7.011-1.89-9.506-2.495-2.494-6.247-3.24-9.506-1.89-3.26 1.35-5.384 4.53-5.384 8.058.005 4.815 3.907 8.717 8.722 8.722zm0-16.09c2.98 0 5.666 1.795 6.807 4.548 1.14 2.753.51 5.922-1.597 8.03-2.107 2.106-5.276 2.737-8.03 1.596-2.752-1.14-4.547-3.826-4.547-6.806.004-4.067 3.3-7.363 7.367-7.368z"/>
        <path d="M18.577 19.062c-.776 0-1.405-.63-1.406-1.406 0-.374-.303-.677-.677-.677-.375 0-.678.303-.678.677.002 1.284.886 2.397 2.136 2.69V21c0 .374.303.677.677.677.374 0 .677-.303.677-.677v-.681c1.334-.365 2.192-1.66 2.007-3.03-.184-1.37-1.353-2.393-2.736-2.393-.777 0-1.406-.63-1.406-1.406 0-.777.63-1.406 1.406-1.406.776 0 1.406.63 1.406 1.406 0 .374.303.677.677.677.375 0 .678-.303.678-.677-.002-1.33-.95-2.47-2.257-2.714v-.502c0-.374-.304-.677-.678-.677-.374 0-.677.303-.677.677v.59c-1.293.418-2.088 1.715-1.876 3.057.212 1.342 1.369 2.33 2.727 2.33.505-.005.974.262 1.228.699.254.437.254.976 0 1.413-.254.437-.723.704-1.228.7zM5.304 29.58h26.758c.374 0 .678-.303.678-.677 0-.374-.304-.677-.678-.677H5.304c-.374 0-.677.303-.677.677 0 .374.303.678.677.678z"/>
        <path d="M37.258 32.416V12.081h9.27c.375-.01.672-.32.666-.695V5.691C47.194 2.58 44.669 0 41.562 0h-35.8C2.778 0 .349 2.43.349 5.38L.11 49.155c-.002.183.07.358.197.489.126.128.3.202.48.203l25.571.004c2.735 4.964 8.62 7.275 14.001 5.497 5.382-1.777 8.733-7.138 7.973-12.754-.76-5.617-5.414-9.894-11.075-10.178zm4.295-31.061h.008c2.362 0 4.278 1.976 4.278 4.337v5.034h-8.58V5.707c0-2.365 1.913-4.24 4.277-4.352h.017zM1.47 48.495l.233-43.11c.017-2.231 1.83-4.03 4.06-4.03h32.12c-1.214 1.129-1.979 2.635-1.979 4.353v26.719c-1.1.078-2.184.313-3.22.695-.11-.24-.356-.39-.621-.38H5.304c-.374 0-.677.303-.677.677 0 .374.303.678.677.678h25.372c-1.386.779-2.578 1.86-3.49 3.161H5.303c-.374 0-.677.303-.677.677 0 .375.303.678.677.678h21.018c-.533.903-.93 2.032-1.17 3.161H5.305c-.374 0-.677.303-.677.678 0 .374.303.677.677.677h19.643c-.034.339-.052.7-.052 1.07-.001 1.476.278 2.94.824 4.312-9.172 0-21.277-.015-24.25-.015zm35.198 6.094c-3.869.002-7.419-2.141-9.22-5.565-1.8-3.423-1.555-7.563.638-10.749l.016-.023c2.814-4.07 8.103-5.599 12.654-3.657 4.552 1.942 7.108 6.818 6.117 11.666-.992 4.848-5.257 8.329-10.205 8.328z"/>
        <path d="M36.488 45.511l-4.264-.016c-.373 0-.675.302-.677.674-.002.373.297.677.67.681l4.938.012c.18-.002.35-.075.474-.204.13-.125.204-.295.207-.473l-.014-6.003c0-.242-.128-.466-.338-.587-.21-.121-.469-.12-.678.002-.209.122-.337.346-.335.589l.017 5.325z"/>
    </g>
</svg>
