<svg width="24" height="15" viewBox="0 0 24 15" fill="none" xmlns="http://www.w3.org/2000/svg">
<path d="M21.5588 10.3125V10.8125H22.0588H22.6393C22.676 10.8125 22.7031 10.8213 22.7198 10.8297V11.6703C22.7031 11.6787 22.676 11.6875 22.6393 11.6875H20.8978H20.3978V12.1875C20.3978 13.3695 19.1668 14.5 17.4149 14.5C15.663 14.5 14.4319 13.3695 14.4319 12.1875V11.6875H13.9319H9.28793H8.78793V12.1875C8.78793 13.3695 7.55685 14.5 5.80495 14.5C4.05306 14.5 2.82198 13.3695 2.82198 12.1875V11.6875H2.32198H1.74149C0.951036 11.6875 0.5 11.1869 0.5 10.7812V1.40625C0.5 1.00057 0.951036 0.5 1.74149 0.5H13.3514C14.1418 0.5 14.5929 1.00057 14.5929 1.40625V2.8125V3.3125H15.0929H16.6929C17.0503 3.3125 17.3793 3.42936 17.6087 3.61459L21.2331 6.54135C21.4602 6.72467 21.5588 6.9463 21.5588 7.14551V10.3125ZM20.3173 8H20.8173V7.5V7.14551V6.9066L20.6315 6.7565L17.007 3.82974L16.8695 3.71875H16.6929H15.0929H14.5929V4.21875V7.5V8H15.0929H20.3173ZM3.56347 12.1875C3.56347 13.3346 4.67251 14.0938 5.80495 14.0938C6.93739 14.0938 8.04644 13.3346 8.04644 12.1875C8.04644 11.0404 6.93739 10.2812 5.80495 10.2812C4.67251 10.2812 3.56347 11.0404 3.56347 12.1875ZM15.1734 12.1875C15.1734 13.3346 16.2824 14.0938 17.4149 14.0938C18.5473 14.0938 19.6563 13.3346 19.6563 12.1875C19.6563 11.0404 18.5473 10.2812 17.4149 10.2812C16.2824 10.2812 15.1734 11.0404 15.1734 12.1875Z" stroke="white"/>
</svg>
