<svg width="1543" height="492" viewBox="0 0 1543 492" fill="none" xmlns="http://www.w3.org/2000/svg">
<path d="M1.08845 417.2V490H9.09645V468.472H30.7285C48.5125 468.472 58.4965 456.72 58.4965 442.784C58.4965 428.848 48.5125 417.2 30.7285 417.2H1.08845ZM9.09645 424.688H29.4805C43.1045 424.688 50.2805 432.696 50.2805 442.888C50.2805 453.08 43.1045 460.984 29.4805 460.984H9.09645V424.688ZM80.0399 490V468.056C80.0399 457.136 90.6479 447.672 101.88 446.32V437.376C90.8559 438.312 83.3679 446.216 80.0399 454.016V438.416H72.2399V490H80.0399ZM108.412 464.104C108.412 478.248 118.292 491.144 136.18 491.144C143.148 491.144 151.572 489.168 158.02 482.616L153.444 476.792C147.62 482.408 141.172 483.864 136.284 483.864C124.636 483.864 117.668 476.272 116.524 466.912H159.788C160.1 465.144 160.308 463.688 160.308 462.128C160.308 450.272 150.844 437.376 134.724 437.376C119.54 437.376 108.412 449.024 108.412 464.104ZM134.724 444.552C144.916 444.552 150.948 452.04 152.092 459.84H116.732C118.396 451 125.364 444.552 134.724 444.552ZM173.582 490H181.382V462.024C181.382 452.768 187.622 444.656 197.19 444.656C204.366 444.656 210.086 449.128 210.086 459.112V490H217.886V462.024C217.886 452.768 224.022 444.656 233.59 444.656C240.662 444.656 246.382 449.128 246.382 459.112V490H254.182V458.28C254.182 444.136 246.174 437.376 234.838 437.376C226.102 437.376 219.55 441.432 215.806 447.568C212.79 440.704 206.55 437.376 198.75 437.376C190.846 437.376 184.918 440.808 181.382 446.112V438.416H173.582V490ZM271.099 438.416V490H278.899V438.416H271.099ZM269.747 423.544C269.747 426.456 272.139 428.744 275.155 428.744C277.963 428.744 280.459 426.456 280.459 423.544C280.459 420.632 277.963 418.344 275.155 418.344C272.139 418.344 269.747 420.632 269.747 423.544ZM296.364 438.416V468.68C296.364 483.864 304.892 491.04 316.748 491.04C325.484 491.04 332.036 487.192 336.092 481.264V490H343.892V438.416H336.092V464.416C336.092 474.504 329.124 483.76 318.204 483.76C310.3 483.76 304.164 478.976 304.164 467.744V438.416H296.364ZM361.168 490H368.968V462.024C368.968 452.768 375.208 444.656 384.776 444.656C391.952 444.656 397.672 449.128 397.672 459.112V490H405.472V462.024C405.472 452.768 411.608 444.656 421.176 444.656C428.248 444.656 433.968 449.128 433.968 459.112V490H441.768V458.28C441.768 444.136 433.76 437.376 422.424 437.376C413.688 437.376 407.136 441.432 403.392 447.568C400.376 440.704 394.136 437.376 386.336 437.376C378.432 437.376 372.504 440.808 368.968 446.112V438.416H361.168V490ZM485.824 453.704C485.824 474.712 502.256 491.04 523.992 491.04C545.104 491.04 560.912 475.752 560.912 455.68C560.912 454.952 560.912 453.288 560.704 451.728H518.688V459.216H552.696C551.032 473.256 539.176 483.344 524.096 483.344C506.832 483.344 494.04 470.344 494.04 453.704C494.04 436.648 507.352 423.856 524.096 423.856C535.536 423.856 545.312 429.888 550.304 439.144L557.48 435.088C551.136 423.544 538.656 416.16 524.2 416.16C502.88 416.16 485.824 432.28 485.824 453.704ZM575.685 490H583.589V417.2H575.685V490ZM625.806 491.144C641.406 491.144 653.158 479.496 653.158 464.312C653.158 449.024 641.406 437.376 625.806 437.376C610.102 437.376 598.35 449.024 598.35 464.312C598.35 479.496 610.102 491.144 625.806 491.144ZM625.806 444.656C636.934 444.656 645.15 452.976 645.15 464.312C645.15 475.544 636.934 483.864 625.806 483.864C614.574 483.864 606.358 475.544 606.358 464.312C606.358 452.976 614.574 444.656 625.806 444.656ZM667.49 490H675.29V482.512C679.658 487.92 686.21 491.144 694.322 491.144C709.714 491.144 720.946 479.288 720.946 464.208C720.946 449.128 709.714 437.376 694.322 437.376C686.21 437.376 679.658 440.6 675.29 446.008V417.2H667.49V490ZM674.978 464.312C674.978 453.184 683.09 444.656 694.01 444.656C705.034 444.656 712.938 453.184 712.938 464.208C712.938 475.232 705.034 483.864 694.01 483.864C683.09 483.864 674.978 475.232 674.978 464.312ZM758.12 491.144C766.232 491.144 772.784 487.816 777.152 482.408V490H784.952V438.416H777.152V446.008C772.784 440.6 766.336 437.376 758.224 437.376C742.728 437.376 731.496 449.128 731.496 464.208C731.496 479.288 742.728 491.144 758.12 491.144ZM758.328 444.656C769.352 444.656 777.464 453.184 777.464 464.208C777.464 475.232 769.352 483.864 758.328 483.864C747.408 483.864 739.504 475.232 739.504 464.208C739.504 453.184 747.408 444.656 758.328 444.656ZM803.084 490H810.988V417.2H803.084V490ZM914.247 490V482.512H869.839V457.136H906.239V449.752H869.839V424.688H914.247V417.2H861.831V490H914.247ZM956.511 455.888H926.455V463.272H956.511V455.888ZM1008.13 491.248C1024.25 491.248 1037.56 481.576 1042.86 468.056L1035.27 465.352C1030.8 476.064 1020.61 483.552 1008.13 483.552C991.592 483.552 978.696 470.552 978.696 453.6C978.696 436.648 991.696 423.648 1008.02 423.648C1020.5 423.648 1030.8 431.24 1035.27 441.848L1042.86 439.04C1037.56 425.624 1024.25 415.952 1008.13 415.952C987.016 415.952 970.48 432.28 970.48 453.6C970.48 474.92 987.016 491.248 1008.13 491.248ZM1079.99 491.144C1095.59 491.144 1107.35 479.496 1107.35 464.312C1107.35 449.024 1095.59 437.376 1079.99 437.376C1064.29 437.376 1052.54 449.024 1052.54 464.312C1052.54 479.496 1064.29 491.144 1079.99 491.144ZM1079.99 444.656C1091.12 444.656 1099.34 452.976 1099.34 464.312C1099.34 475.544 1091.12 483.864 1079.99 483.864C1068.76 483.864 1060.55 475.544 1060.55 464.312C1060.55 452.976 1068.76 444.656 1079.99 444.656ZM1121.26 490H1129.06V462.024C1129.06 452.768 1135.3 444.656 1144.87 444.656C1152.05 444.656 1157.77 449.128 1157.77 459.112V490H1165.57V462.024C1165.57 452.768 1171.7 444.656 1181.27 444.656C1188.34 444.656 1194.06 449.128 1194.06 459.112V490H1201.86V458.28C1201.86 444.136 1193.85 437.376 1182.52 437.376C1173.78 437.376 1167.23 441.432 1163.49 447.568C1160.47 440.704 1154.23 437.376 1146.43 437.376C1138.53 437.376 1132.6 440.808 1129.06 446.112V438.416H1121.26V490ZM1218.05 490H1225.85V462.024C1225.85 452.768 1232.09 444.656 1241.66 444.656C1248.83 444.656 1254.55 449.128 1254.55 459.112V490H1262.35V462.024C1262.35 452.768 1268.49 444.656 1278.06 444.656C1285.13 444.656 1290.85 449.128 1290.85 459.112V490H1298.65V458.28C1298.65 444.136 1290.64 437.376 1279.31 437.376C1270.57 437.376 1264.02 441.432 1260.27 447.568C1257.26 440.704 1251.02 437.376 1243.22 437.376C1235.31 437.376 1229.39 440.808 1225.85 446.112V438.416H1218.05V490ZM1311.93 464.104C1311.93 478.248 1321.81 491.144 1339.7 491.144C1346.66 491.144 1355.09 489.168 1361.54 482.616L1356.96 476.792C1351.14 482.408 1344.69 483.864 1339.8 483.864C1328.15 483.864 1321.18 476.272 1320.04 466.912H1363.3C1363.62 465.144 1363.82 463.688 1363.82 462.128C1363.82 450.272 1354.36 437.376 1338.24 437.376C1323.06 437.376 1311.93 449.024 1311.93 464.104ZM1338.24 444.552C1348.43 444.552 1354.46 452.04 1355.61 459.84H1320.25C1321.91 451 1328.88 444.552 1338.24 444.552ZM1385.63 490V468.056C1385.63 457.136 1396.23 447.672 1407.47 446.32V437.376C1396.44 438.312 1388.95 446.216 1385.63 454.016V438.416H1377.83V490H1385.63ZM1414 464.312C1414 479.392 1425.54 491.144 1441.14 491.144C1453 491.144 1462.05 484.28 1466 474.504L1458.3 472.112C1455.49 478.768 1449.25 483.864 1440.83 483.864C1430.01 483.864 1422.01 475.44 1422.01 464.312C1422.01 453.08 1430.01 444.656 1440.83 444.656C1449.25 444.656 1455.49 449.648 1458.3 456.512L1466 454.016C1462.05 444.24 1453 437.376 1441.14 437.376C1425.54 437.376 1414 449.128 1414 464.312ZM1475.65 464.104C1475.65 478.248 1485.53 491.144 1503.41 491.144C1510.38 491.144 1518.81 489.168 1525.25 482.616L1520.68 476.792C1514.85 482.408 1508.41 483.864 1503.52 483.864C1491.87 483.864 1484.9 476.272 1483.76 466.912H1527.02C1527.33 465.144 1527.54 463.688 1527.54 462.128C1527.54 450.272 1518.08 437.376 1501.96 437.376C1486.77 437.376 1475.65 449.024 1475.65 464.104ZM1501.96 444.552C1512.15 444.552 1518.18 452.04 1519.33 459.84H1483.97C1485.63 451 1492.6 444.552 1501.96 444.552Z" fill="white"/>
<path d="M0.5625 5.0023H242.784V41.0605H39.0964V178.269H224.267V214.328H39.0964V355.559H0.5625V5.0023ZM451.992 5.0023H495.525L654.159 355.559H611.126L577.092 278.941H369.904L335.89 355.559H292.837L451.992 5.0023ZM561.074 242.882L473.592 47.0633L386.505 242.987L561.074 242.882ZM902.401 5.0023C1009 5.0023 1070.05 79.1197 1070.05 180.291C1070.05 281.463 1008.5 355.559 902.401 355.559H762.346V5.0023H902.401ZM800.817 319.501H900.401C985.467 319.501 1030.52 260.912 1030.52 180.291C1030.52 99.6708 985.967 41.0605 900.401 41.0605H800.817V319.501ZM1176.16 180.291C1176.16 78.1609 1255.73 0 1359.83 0C1462.91 0 1543 78.1192 1543 180.291C1543 282.463 1462.91 360.582 1359.83 360.582C1256.22 360.582 1176.16 282.442 1176.16 180.291V180.291ZM1215.73 180.291C1215.73 261.412 1278.8 323.503 1359.87 323.503C1440.44 323.503 1503.49 261.912 1503.49 180.291C1503.49 99.1497 1440.44 37.0587 1359.87 37.0587C1278.76 37.0587 1215.69 99.1497 1215.69 180.291H1215.73Z" fill="white"/>
</svg>
