<svg width="190" height="72" xmlns="http://www.w3.org/2000/svg"><g fill-rule="nonzero" fill="none"><path d="M53.691 40.851c-3.184 3.184-6.978 4.78-11.383 4.786-4.391 0-8.158-1.56-11.259-4.661-3.1-3.1-4.661-6.868-4.661-11.259 0-4.39 1.56-8.157 4.661-11.258 3.101-3.1 6.868-4.662 11.259-4.662 4.39 0 8.157 1.561 11.258 4.662 3.101 3.1 4.662 6.867 4.662 11.258V43.37a2.268 2.268 0 0 1-4.537 0v-2.518ZM42.31 18.313a11.369 11.369 0 0 0-11.384 11.384A11.369 11.369 0 0 0 42.31 41.08 11.369 11.369 0 0 0 53.69 29.697 11.369 11.369 0 0 0 42.31 18.313ZM89.654 2.268a2.2 2.2 0 0 1 .664-1.602 2.26 2.26 0 0 1 3.204 0c.433.42.673 1 .667 1.602v27.366c0 4.391-1.561 8.158-4.662 11.259-3.1 3.1-6.868 4.661-11.259 4.661-4.39 0-8.157-1.56-11.258-4.661-3.1-3.101-4.662-6.868-4.662-11.259 0-4.39 1.561-8.158 4.662-11.258 3.1-3.101 6.867-4.662 11.258-4.662 4.391 0 8.158 1.56 11.259 4.662l.104.104.02-16.212h.003Zm0 27.387a11.39 11.39 0 0 0-19.437-8.054 10.967 10.967 0 0 0-3.33 8.054 11.39 11.39 0 0 0 19.437 8.054 10.967 10.967 0 0 0 3.33-8.054ZM35.484 5.869c0-.021-.02-.021-.02-.042a.02.02 0 0 0-.022-.02 12.55 12.55 0 0 0-1.02-1.104C31.323 1.582 27.556.042 23.165.042c-4.39 0-8.158 1.56-11.258 4.661-3.101 3.1-4.683 6.888-4.683 11.28v.499H2.416A2.14 2.14 0 0 0 .44 17.564a2.177 2.177 0 0 0 .79 2.976c.388.216.828.317 1.27.291h4.724V43.37a2.266 2.266 0 0 0 3.871 1.603 2.2 2.2 0 0 0 .666-1.603V27.158l.042.041v-6.347h10.134a2.18 2.18 0 0 0 1.27-4.058 2.362 2.362 0 0 0-1.166-.291H11.802c0-.167-.021-.333-.021-.5 0-.291.02-.603.041-.895v-.041a10.93 10.93 0 0 1 3.289-7.117 10.967 10.967 0 0 1 8.053-3.33 10.967 10.967 0 0 1 8.054 3.33c.291.291.54.582.79.874.38.375.883.597 1.416.624a2.29 2.29 0 0 0 2.06-3.58Z" fill="#CC2028"/><circle fill="#CC2028" cx="114.918" cy="52.11" r="3.496"/><circle fill="#CC2028" cx="128.923" cy="52.11" r="3.496"/><path d="M122.95 45.742a21.53 21.53 0 0 1-5.39-.708c-10.208-2.73-16.738-12.69-15.172-23.141l.062-.396-.936-.25-.146.063a2.913 2.913 0 0 1-1.186.27 2.778 2.778 0 1 1 .562-5.493 2.68 2.68 0 0 1 1.893 1.477l.084.187 2.372.625c.75.208 1.332.853 1.353 1.519.005.222-.002.444-.021.666-2.06 9.51 3.122 18.48 12.09 20.873 1.446.39 2.937.586 4.434.582a17.104 17.104 0 0 0 16.46-12.59v-.062a1.848 1.848 0 0 1 2.269-1.311c.478.126.883.442 1.124.874.247.428.314.937.187 1.415-.02.041-.02.104-.042.145v.021a20.823 20.823 0 0 1-19.998 15.234h.002Z" fill="#CC2028"/><path d="M137.872 24.931c0 8.195-6.643 14.838-14.838 14.838s-14.838-6.643-14.838-14.838 6.643-14.838 14.838-14.838a14.832 14.832 0 0 1 14.838 14.838Z" fill="#CC2028"/><path d="M137.58 21.997a19.633 19.633 0 0 1-.124-.52.454.454 0 0 0-.105.083c-.083.062-.395.27-.499.333a.266.266 0 0 0-.083.229h-.021c-.062 0-.062.228 0 .27.062.042.208-.187.27-.229.063-.041.23-.083.25-.062.021.02.146-.021.312-.104-.022.02 0 .02 0 0ZM136.956 27.22c.167.125.562.063.562-.166-.169-.125-.585-.104-.562.166ZM137.601 27.387c-.041.02-.27.041-.291 0-.021-.042-.063.083-.125.104-.062.02-.02.145.042.104.062-.042.208.062.353.166.021-.125.042-.27.063-.416 0 .02-.042.042-.042.042ZM112.525 24.577c0 .042.208.021.27.021.063 0 .042-.042 0-.083-.042-.042-.27.02-.27.062ZM124.239 32.485c.187-.104.52-.582.624-.687.102-.166.172-.35.208-.54a.529.529 0 0 1 .25-.23c.062-.02.25-.811.416-.998.167-.188.375-1.02.354-1.332.005-.345.054-.688.146-1.02.07-.167.177-.316.312-.437.219-.279.42-.57.603-.874.133-.251.211-.528.23-.812-.022-.104-.313-.187-.355-.125a.88.88 0 0 1-.416.105c-.083 0-.291-.458-.395-.562-.104-.104-.23-.625-.292-.729a3.64 3.64 0 0 0-.333-.416c-.062-.062-.062-.333-.083-.416-.02-.083.125.041.146.166.124.249.27.485.437.708.159.252.298.517.416.79.063.146.645.084.833-.02.187-.104.416-.23.416-.291 0-.063.312-.188.395-.25.083-.063.146-.416.208-.458.063-.042-.041-.375-.104-.479a.57.57 0 0 0-.416-.145c-.062.041-.187-.23-.229-.313-.042-.083-.27-.208-.291-.27-.021-.062.062-.167.104-.187.218.1.416.242.582.416.107.142.198.296.271.458.133.05.279.056.416.02.083-.062.167-.041.188.021l.104-.02.353-.063c.167.187.23.354.208.375.03.086.089.16.167.208.062.02.125.25.146.312.02.062.229.416.27.562.069.184.16.358.27.52.046.12.074.246.084.375.03.095.11.167.208.187.083 0 .25-.52.291-.708.042-.187.167-.353.208-.353.042 0 .063-.104.063-.146 0-.042.208-.042.229-.083.03-.158.078-.312.146-.458.133-.103.28-.187.437-.25.083-.041.332.167.374.27a.72.72 0 0 1 .083.375c-.02.042.125.25.25.25s.167.166.167.229c0 .062.166.229.208.312a.6.6 0 0 1 0 .333c-.013.132-.006.265.02.395.16.22.349.416.562.583.146.125.208-.25.146-.354-.062-.104-.333-.374-.395-.457a.943.943 0 0 1-.042-.48c.02-.082.229.043.312.105a.595.595 0 0 1 .187.25c0 .041.52-.25.542-.562.038-.258.108-.51.208-.75.02-.083-.042-.208-.104-.208-.063 0 .083-.25.229-.228.145.02.499-.396.582-.541.076-.116.167-.221.27-.313.074-.174.13-.355.167-.54a1.484 1.484 0 0 0-.104-.48c-.02-.083-.145-.25-.166-.312a.568.568 0 0 1-.042-.312c.02-.041.146-.083.167-.125.02-.041.166-.187.145-.27-.02-.083.104.083.167.146.062.062.145.437.229.478.083.042.437-.395.395-.687a.901.901 0 0 1 .187-.686c.103-.1.193-.212.27-.333a14.867 14.867 0 0 0-3.745-5.89h-.042a.37.37 0 0 1-.291-.291c-.166-.146-.333-.312-.5-.458h-.145c-.16-.02-.316-.07-.458-.145-.042-.042-.208.041-.229.145-.02.104-.312.125-.333.208-.02.084-.187.084-.208.042-.02-.042-.291.104-.437.125-.149.039-.295.088-.437.145a.606.606 0 0 0-.229.23c-.02.062-.187.145-.25.166-.062.02-.041.27.021.312.063.042-.125-.02-.229-.083-.104-.063-.187.104-.208.166-.02.063-.104-.041-.104-.104 0-.062-.229-.145-.25-.083-.02.062-.187-.02-.25-.062-.062-.042-.353.25-.457.353-.21.116-.449.166-.687.146-.083-.042-.187.229-.104.229s-.208-.02-.354 0a2.626 2.626 0 0 0-.707.27.112.112 0 0 1-.188-.083c0-.062-.166-.125-.229-.125-.062 0-.145.333-.228.396-.084.062-.188-.27-.396-.333a4.578 4.578 0 0 1-.624-.292c-.083-.02-.27-.228-.333-.27a.862.862 0 0 0-.396-.104 1.475 1.475 0 0 0-.437.229c-.083.062-.187.041-.228.083a5.716 5.716 0 0 1-.48.416 3.33 3.33 0 0 0-.394.604.254.254 0 0 1-.209.125c-.041 0-.083.104-.083.145 0 .042-.354.23-.395.396-.008.222.005.446.041.666 0 .124.125.395.23.395.103 0 .04.229.02.291-.02.063.063.125.063.188 0 .062-.25.124-.333.166a.695.695 0 0 0-.23.27c-.02.063-.25.105-.332.167.017-.057.038-.112.062-.166a.3.3 0 0 0-.062-.27c-.042-.043-.063-.459-.125-.563a1.65 1.65 0 0 0-.25-.27c-.042-.021.02-.146.042-.188.02-.041-.208-.083-.27-.041-.063.041-.105.458-.126.582 0 .121.053.236.146.313.042 0 .02.229-.042.229s-.145.312-.104.395c.042.083-.062.208-.104.25.152.023.306.023.458 0 .167 0 .291.062.27.083-.02.02-.312.062-.353.125-.092.089-.19.172-.291.25-.042.041.062.166.145.166.083 0 .167.291.25.333a.27.27 0 0 1 .02.25c-.02.041-.415-.021-.561 0-.146.02-.333.353-.354.458a2.2 2.2 0 0 0 .042.54c.02.084.333.146.395.188.063.042.354 0 .416.02.063.022.25-.29.292-.457.041-.167.353-.437.416-.541.062-.104.395-.083.478-.146.084-.062.042.25.084.437.041.187.354.146.312-.02-.042-.167.042-.23.042-.167 0 .062.332.187.374.27.042.084.042.292-.02.27-.063-.02-.063.209 0 .23.062.02.166-.23.249-.27.083-.042.146-.209.104-.209-.042 0 .062-.166.104-.104a2.181 2.181 0 0 0-.291-.458c-.125-.125-.042-.083.208.125l.166.25a.77.77 0 0 1 .104.229l.042.062c.04.121.06.248.062.375.03.096.11.167.209.187.083 0 .145.042.124.042-.02 0 .063.166.125.166.063 0 .125-.208.042-.208-.083 0-.063-.312-.083-.437a.296.296 0 0 1 .083-.229c.01.11.01.222 0 .333.011.095.04.186.083.27l.083.063.188.146c.27-.083.624-.021.624.041 0 .063.208.063.208-.02 0-.084.02 0 .02.062s-.166.291-.207.416c-.042.125-.645.042-.916.021-.27-.02-.666.062-.687.146-.02.083-.437-.188-.645-.27-.208-.084-.333-.375-.374-.417-.042-.042.041-.125.02-.187-.02-.063-.457-.063-.582-.021-.125.042-.791.125-.937.187a.81.81 0 0 1-.457-.02c-.063-.021-.25.207-.333.25-.084.04-.209.332-.25.665l-.125.229-.083.146c-.208.166-.458.707-.52.832a5.694 5.694 0 0 0-.125 1.165c.05.339.148.668.29.979.165.23.37.427.604.582.125.083.562.083.708.083a.416.416 0 0 0 .354-.29l.208.02h.104c0 .125.312.208.395.25a.601.601 0 0 0 .333 0c.063-.021.125.52.084.686-.042.167.104.708.145.874.042.167.23.625.25.791a7.1 7.1 0 0 1-.125.895c-.02.187.229.728.312.916.063.217.105.44.125.666 0 .083.291.645.354.874.106.229.814.291.999.166ZM113.503 23.87c-.042 0-.146-.146-.208-.167-.063-.02-.105.104-.105.146.003.038.027.07.063.083.042 0 .104.125.187.104.104-.083.104-.187.063-.166ZM113.045 24.432c.02.062.27.104.312.145.042.042.166-.083.27-.062.105.02-.041-.333-.208-.333-.166 0-.291-.146-.333-.167a1.665 1.665 0 0 1-.29-.187 2.518 2.518 0 0 0-.625-.083.447.447 0 0 0-.312.187c-.021.042.229.083.29.042a.724.724 0 0 1 .48.125c.08.085.197.124.312.104.104-.021.083.166.104.229ZM113.128 23.495a.208.208 0 0 0-.146-.083c-.02 0-.041.062-.041.166 0 .104.208-.041.187-.083ZM113.919 24.577c0 .042.208.042.25-.02.041-.063.02-.125-.042-.125s-.208.104-.208.145Z" fill="#F7F8F8"/><path d="M113.107 29.717c.15.215.275.445.375.687a.999.999 0 0 1 0 .437c-.021.063.041.187.062.23-.038.22-.059.442-.062.665.041.167-.208.728-.208.999 0 .27.125.624.187.603.062-.02.062.25-.02.271-.084.02-.188.25-.126.27.063.021 0 .23 0 .313 0 .083.084.645.104.79.07.21.16.413.27.604.043.125.084.333.105.375.01.022.025.043.042.062.073.026.143.06.208.104.158.032.32.032.478 0 .104-.02 0-.125-.041-.166-.042-.042-.084-.313-.146-.333-.062-.021-.083-.354-.02-.417.062-.062.228-.187.249-.25a.75.75 0 0 0-.02-.374c-.042-.042.02-.375-.022-.541-.041-.166.292-.312.313-.458.02-.146.374-.27.457-.333a.832.832 0 0 0 .104-.54c-.041-.084.125-.147.208-.147a.624.624 0 0 0 .188-.062c.02 0 .125-.166.166-.208.042-.042.146-.437.23-.5a.747.747 0 0 0 .166-.374c.046-.126.109-.245.187-.354a2.98 2.98 0 0 1 .437-.25c.062-.02.146-.562.166-.749.021-.187.125-.458.125-.52 0-.063.104-.125.125-.146.021-.02.104-.27.146-.312a3.47 3.47 0 0 0 .25-.333c.015-.098.035-.195.062-.291v-.333c-.062-.167-.229-.354-.291-.312-.063.041-.25-.146-.354-.188a1.833 1.833 0 0 0-.437-.062c-.063 0-.291-.187-.396-.229-.104-.042-.353-.083-.416-.104-.062-.02-.104-.416-.333-.541-.229-.125-.582-.416-.624-.541-.042-.125-.437-.333-.583-.416a.583.583 0 0 0-.333-.063c-.02.021-.187-.208-.27-.27-.083-.063-.333-.125-.333-.063 0 .063-.167.021-.208-.02-.042-.042-.167.02-.23.041-.062.02-.27.333-.353.395-.083.063-.208-.062-.27-.104a.735.735 0 0 0-.354.084c-.063.041-.208-.333-.167-.5.042-.166-.145-.52-.291-.52s-.187-.375-.167-.5c.021-.124-.27-.208-.333-.228-.062-.021-.25.166-.29.27-.043.104-.688-.125-.604-.52a2 2 0 0 1 .457-.853c.198-.05.403-.057.604-.021.104.062.187 0 .187-.021.154-.014.31 0 .458.042.104.041.25.437.354.478.104.042.145-.25.166-.333a.689.689 0 0 0-.083-.312c-.02-.062.167-.541.333-.624a.689.689 0 0 0 .312-.396c-.02-.041.125-.083.167-.104.041-.02 0-.416.062-.5.14-.122.293-.227.458-.311a.33.33 0 0 0 .125-.333c-.042-.042.25-.292.395-.333.146-.042.27.083.23.104.02-.021.228-.125.311-.187.084-.063 0-.25-.062-.313-.063-.062-.021-.27.062-.291.084-.02.146-.208.125-.25-.02-.041.333.042.458-.062.125-.104.042.229-.062.374-.105.146.062.25.124.23.063-.021.125.062.146.103.02.042.146-.041.229 0 .083.042.146-.124.146-.187 0-.062-.208-.229-.25-.312a3.692 3.692 0 0 1-.042-.687c0-.104-.145-.27-.187-.25-.042.021-.146-.27-.208-.332-.063-.063-.083-.209-.083-.25 0-.042-.25-.312-.312-.416-.063-.104-.146-.104-.146-.042 0 .062-.187.062-.25.062-.062 0-.125-.27-.125-.374 0-.104-.312-.125-.374-.208-.063-.084-.25-.042-.292-.104a.306.306 0 0 0-.25-.084c-.041.021-.02.77-.062.958-.041.187-.208.374-.27.374-.063 0-.021.146.02.125.042-.02-.124.208-.145.375-.021.166-.167 0-.208-.146-.042-.146-.167-.333-.208-.27-.042.062-.125-.063-.188-.021-.062.041-.333-.167-.437-.23-.104-.062-.187-.415-.25-.436-.062-.021 0-.083-.02-.125-.021-.042.229-.25.291-.333.127-.17.266-.33.416-.479a.472.472 0 0 0 .167-.291c-.021-.042.416-.167.54-.208.126-.042.23-.375.23-.458a.383.383 0 0 0-.125-.291c-.063-.021.166-.042.229 0 .062.041.291-.063.395-.021.136.07.268.146.396.229l-.021.25-.063.416c-.333.145-.437.395-.312.374.29.068.565.188.812.354.145.104.208-.166.25-.25a.832.832 0 0 0 0-.395c-.042-.062.187-.042.228.02.042.063.125-.062.188-.082.062-.021.062-.25.104-.292.041-.041-.104-.083-.104-.145 0-.063-.25-.167-.333-.209-.083-.041-.104-.208-.063-.229.042-.02-.02-.25-.062-.312a.73.73 0 0 0-.375-.125c-.083 0-.166-.208-.229-.228a1.56 1.56 0 0 0-.457-.042c-.084.02-.23-.229-.375-.146-.146.083-.27-.083-.333-.125-.062-.041-.375.313-.375.562-.01.176.05.348.167.479.042 0-.02.229-.063.291-.041.063-.187-.062-.145-.125.041-.062-.146-.312-.208-.416a.722.722 0 0 0-.312-.166c-.063.083-.146.145-.209.229a.6.6 0 0 1 .021.27c-.041.146-.166.167-.187.104 0-.02-.063-.041-.125-.062a11.39 11.39 0 0 0-.853 1.124c-.063.083-.125.187-.187.27l-.5.812c-.062.125-.146.25-.208.374-.187.333-.333.687-.5 1.02a9.382 9.382 0 0 0-.27.687c-.062.145-.104.291-.166.437-.084.27-.188.54-.25.811-.021.084-.042.146-.063.23a15.4 15.4 0 0 0-.374 1.997c.065.077.12.16.166.25.042.125.27.208.312.25.042.041.063-.25.021-.313-.041-.062.063-.104.063-.062 0 .042.208.291.291.375.083.083.146.645.208.77.063.124.728.374.937.416.205.061.387.185.52.354.041.062.312.104.374.124.063.021.209.209.271.25a.287.287 0 0 1 .104.187c0 .021.375.167.458.271a.208.208 0 0 0 .27.02c.021-.04.104.188.146.271.037.1.044.209.02.312a3.815 3.815 0 0 1-.145.48 2.185 2.185 0 0 0-.166.727.803.803 0 0 0 .27.354c.083.042.042.146-.02.167-.063.02-.042.52.103.603a.504.504 0 0 1 .23.354c.162.12.315.252.457.395ZM113.503 14.005c.172-.01.342-.052.5-.124a.246.246 0 0 0-.022-.208h.084c.062 0 .187-.375.25-.458.062-.084.478-.208.582-.27.125-.106.257-.204.395-.292.084-.021.208-.208.188-.25-.021-.042.27-.208.395-.27.125-.063.167-.188.125-.188-.042 0-.312.146-.666.333-.375.23-.728.479-1.082.729-.354.25-.645.499-.957.77a3.72 3.72 0 0 0-.292.27c.146 0 .396-.042.5-.042Z" fill="#F7F8F8"/><path d="M112.67 16.42c-.041.041 0 .29.083.29.084 0 .25-.353.375-.29.125.062.208.104.187.062a2.372 2.372 0 0 0-.395-.208c-.042-.021-.208.104-.25.145ZM120.285 13.173a.562.562 0 0 0 .062-.312c-.02-.042.167-.104.208-.146a.868.868 0 0 1 .333-.187c.084-.02.125-.229.042-.208a.637.637 0 0 1-.354-.083.832.832 0 0 0-.458-.042c-.104.042-.02-.229.104-.27.125-.042.021-.23-.125-.23-.145 0-.499-.062-.582-.041-.083.02-.25-.063-.312-.063a6.09 6.09 0 0 1-.687.125c-.264.001-.528.015-.79.042-.105.02-.188.229-.167.312.02.083-.479.063-.625.083a4.68 4.68 0 0 0-1.186.292c-.208.125-.375.416-.312.416.062 0-.125.166-.229.208-.104.042-.395.062-.458.125-.062.062.063.104.104.146.042.041.104-.042.167 0 .122.037.247.065.374.083.063.02-.208.083-.333.083-.125 0-.104.25 0 .291.104.042.375.063.396.021.02-.041.312.042.437.063.125.02.229.333.27.395.036.129.05.262.042.395 0 .063.229.209.27.146.042-.062.021.104-.062.104s-.042.27.083.312c.125.042.042.208-.02.25-.063.042-.021.208-.105.27-.083.063.25.604.25.875 0 .27.167.5.229.5.12.01.236.052.333.124.02.062.146-.042.187-.083.078-.092.147-.189.208-.292.063-.125.23-.686.25-.728.02-.042.291-.02.354-.062.099-.058.19-.128.27-.209.042-.041.417-.208.52-.27.105-.063.271-.396.354-.458.084-.062-.041-.042-.145-.104-.104-.062-.063-.146-.021-.166.15.004.297.032.437.083.104.041.312-.104.229-.167-.083-.062-.042-.062 0-.02.042.041.083-.188.042-.23-.042-.041.312-.29.25-.52-.063-.229.103-.478.187-.478.083 0 .062-.27-.042-.292-.104-.02-.019-.041.02-.083ZM112.67 23.474c-.062-.02-.104.063-.104.104.002.038.027.071.063.084.041-.021.104-.167.041-.188ZM130.921 25.91c-.062.103.291.332.312.29a.643.643 0 0 0-.104-.374c-.062-.063-.146-.021-.208.083ZM136.498 25.743c.021.041.188-.104.312-.125.125-.021.167-.312.084-.333-.084-.021-.188-.25-.25-.27-.063-.022-.187.103-.167.187.021.083-.187.124-.228.187-.042.062-.042.125 0 .125.097.059.182.137.25.229ZM134.001 27.47a1.713 1.713 0 0 0-.458-.52l-.062-.125-.084-.125c-.062-.146-.29-.25-.312-.291-.02-.042-.083.124-.166.083.08.05.157.105.229.166.208.146.582 1.103.666 1.186.104.042.25-.228.187-.374ZM137.31 28.927c-.187 0-.458.104-.458.166 0 .063-.27.187-.354.229a1.086 1.086 0 0 0-.291.395c-.042.084-.25.063-.333.104-.083.042-.25.167-.25.25 0 .083-.041.063-.104-.02l-.104.103-.125.146a1.2 1.2 0 0 1-.395.541c-.083.021-.104.416-.104.583a.687.687 0 0 0 .145.437l.021.125.021.25a.518.518 0 0 0 .146.416c.041.041.416-.063.54-.104.042 0 .063-.021.105-.042a13.783 13.783 0 0 0 1.54-3.58ZM126.447 31.07c.02.125.25.208.312.187.118-.138.216-.292.291-.457.022-.124.036-.25.042-.375a.497.497 0 0 1 .062-.187.995.995 0 0 0 .104-.27c.021-.126-.145-.75-.145-.854 0-.104-.125.062-.146.166-.02.104-.333.333-.395.417-.078.14-.12.297-.125.457a.624.624 0 0 1-.063.333c-.064.084.042.479.063.583ZM136.165 26.991c-.104-.02-.416.375-.353.604.062.229.124.208.145.166.021-.041.208.021.27.042.063.02.063-.042 0-.125a.383.383 0 0 1 .063-.375c.042-.02-.02-.291-.125-.312ZM136.207 24.536c.042-.084-.042-.188-.187-.23-.146-.04-.125.396-.063.459.063.062.208-.146.25-.23ZM135.666 27.033c.022-.159.036-.319.041-.479.021-.062-.166-.25-.27-.27-.104-.021-.395.624-.604.728a.624.624 0 0 0-.229.604c.063.083.5.145.583.208.083.062.167-.021.208-.021.042 0 .042-.042.021-.063-.02-.02.167-.187.187-.312.03-.13.05-.262.063-.395ZM135.666 23.453c-.063.084-.021.271 0 .354.02.083.083.063.146 0 .062-.062-.084-.437-.146-.354ZM134.063 28.22c-.02.061.646.166.874.228.23.062.354.083.313.042a7.284 7.284 0 0 0-.791-.375.356.356 0 0 0-.396.104Z" fill="#F7F8F8"/><path d="m161.013 40.372 4.89-11.175a1.586 1.586 0 0 1 1.561-1.02c1.103 0 1.644.562 1.644 1.686 0 .243-.05.484-.145.708l-6.452 14.213c-.312.645-.79.978-1.477.978a1.525 1.525 0 0 1-1.478-.978l-6.451-14.213a1.794 1.794 0 0 1-.146-.708c0-1.124.541-1.686 1.644-1.686a1.559 1.559 0 0 1 1.561 1.02l4.849 11.175ZM189.357 43.91c0 1.228-.604 1.832-1.831 1.832-1.228 0-1.832-.604-1.832-1.832v-7.804c0-3.184-1.477-4.765-4.432-4.765-1.415 0-2.56.457-3.392 1.394-.791.895-1.207 2.019-1.207 3.413v7.762c0 1.228-.625 1.832-1.853 1.832-1.227 0-1.83-.604-1.83-1.832V30.05c0-1.248.603-1.873 1.83-1.873 1.228 0 1.853.625 1.853 1.873V31.3c1.123-2.185 2.996-3.288 5.598-3.288 2.205 0 3.954.75 5.223 2.227 1.228 1.436 1.852 3.33 1.852 5.68l.021 7.992Z" fill="#CC2028"/><circle fill="#CC2028" cx="147.132" cy="43.66" r="2.081"/><path d="M3.298 69.613a5.23 5.23 0 0 1-1.556-.208 3.733 3.733 0 0 1-1.326-.77.957.957 0 0 1-.245-.308.708.708 0 0 1 .12-.847.678.678 0 0 1 .514-.208c.152 0 .3.052.417.148.282.236.597.432.934.58.364.143.752.21 1.142.198.284.003.566-.045.833-.141a1.63 1.63 0 0 0 .624-.383.76.76 0 0 0 .24-.558.928.928 0 0 0-.223-.624 1.681 1.681 0 0 0-.68-.442 5.217 5.217 0 0 0-1.164-.278 5.13 5.13 0 0 1-1.174-.302 2.768 2.768 0 0 1-.847-.52 2.044 2.044 0 0 1-.512-.741 2.51 2.51 0 0 1-.174-.96c-.013-.49.133-.97.416-1.371a2.6 2.6 0 0 1 1.12-.866 3.975 3.975 0 0 1 1.556-.295 4.422 4.422 0 0 1 1.49.241c.408.133.788.34 1.12.612.215.15.348.391.358.653a.705.705 0 0 1-.208.496.662.662 0 0 1-.5.21.551.551 0 0 1-.333-.11 2.202 2.202 0 0 0-.53-.33 4.976 4.976 0 0 0-.706-.26 2.705 2.705 0 0 0-1.588.032c-.212.075-.4.206-.543.379a.864.864 0 0 0-.185.545.882.882 0 0 0 .208.612c.173.177.387.309.624.383.32.107.645.192.976.253.442.077.878.184 1.305.32.336.105.652.267.934.477.245.192.436.442.556.729.132.34.195.704.185 1.07a2.2 2.2 0 0 1-.441 1.383 2.82 2.82 0 0 1-1.167.891c-.497.21-1.03.315-1.57.31ZM14.128 66.188a3.482 3.482 0 0 1-.451 1.785c-.29.5-.709.914-1.212 1.199a3.557 3.557 0 0 1-3.4 0 3.257 3.257 0 0 1-1.211-1.207 3.746 3.746 0 0 1 0-3.571c.29-.504.707-.922 1.211-1.211a3.51 3.51 0 0 1 3.4 0c.504.29.922.707 1.212 1.21.309.547.465 1.167.451 1.795Zm-1.484 0c.01-.38-.078-.757-.253-1.095a1.892 1.892 0 0 0-.679-.722 1.85 1.85 0 0 0-1.892 0 1.873 1.873 0 0 0-.68.722 2.256 2.256 0 0 0-.254 1.095c-.008.376.08.748.254 1.082.158.297.393.547.68.722a1.85 1.85 0 0 0 1.892 0c.286-.176.52-.425.679-.722.174-.334.262-.706.253-1.082Zm-1.694-5.203-.95.793c-.109.09-.196.162-.267.208a.562.562 0 0 1-.34.081.393.393 0 0 1-.266-.091.28.28 0 0 1-.104-.208.624.624 0 0 1 .023-.181.71.71 0 0 1 .125-.209l.61-.753a.914.914 0 0 1 .753-.358h.446a.832.832 0 0 1 .389.075.785.785 0 0 1 .285.283l.543.766a.71.71 0 0 1 .125.208c.015.06.023.12.023.181a.287.287 0 0 1-.098.208.39.39 0 0 1-.273.092.53.53 0 0 1-.333-.081c-.066-.052-.156-.125-.272-.209l-1.04-.915.621.11Zm1.51.1a.493.493 0 0 1-.255-.106.316.316 0 0 1-.141-.302.472.472 0 0 1 .073-.235l.718-1.26c.073-.13.17-.247.285-.345a.58.58 0 0 1 .395-.147.643.643 0 0 1 .506.179c.108.12.162.278.15.439a.993.993 0 0 1-.069.258 1.13 1.13 0 0 1-.166.272l-.941 1.041a.539.539 0 0 1-.27.173 1.18 1.18 0 0 1-.286.043v-.01ZM18.9 62.752c.61 0 1.072.127 1.39.383.32.262.55.619.656 1.02.123.46.184.937.179 1.415v3.165a.71.71 0 0 1-.74.745.701.701 0 0 1-.532-.208.74.74 0 0 1-.208-.537V65.57a2.437 2.437 0 0 0-.104-.735 1.04 1.04 0 0 0-.379-.526 1.315 1.315 0 0 0-.778-.198c-.29-.009-.577.06-.832.198a1.353 1.353 0 0 0-.519.526 1.488 1.488 0 0 0-.179.735v3.165a.71.71 0 0 1-.74.745.701.701 0 0 1-.531-.208.733.733 0 0 1-.208-.537V63.63a.71.71 0 0 1 .739-.747.716.716 0 0 1 .532.208.75.75 0 0 1 .208.54v.53l-.185-.038c.09-.162.197-.313.32-.451.147-.168.312-.319.492-.45.196-.144.412-.259.64-.341a2.31 2.31 0 0 1 .78-.13ZM25.414 62.752c.324-.004.646.05.95.16.27.1.523.24.75.416.188.143.354.312.493.502.1.118.162.263.18.416l-.321.16v-.903a.71.71 0 0 1 .739-.745.728.728 0 0 1 .532.208.735.735 0 0 1 .208.543v5.496c.031.61-.131 1.214-.464 1.726a2.635 2.635 0 0 1-1.22.938 4.472 4.472 0 0 1-1.618.29 4.322 4.322 0 0 1-.643-.063 8.33 8.33 0 0 1-.754-.148 4.341 4.341 0 0 1-.545-.16 1.053 1.053 0 0 1-.512-.402.604.604 0 0 1-.056-.514.776.776 0 0 1 .358-.487.624.624 0 0 1 .52-.03c.081.024.208.074.416.147.205.08.413.15.625.208.194.058.396.09.599.094.624 0 1.076-.125 1.371-.37.3-.255.465-.634.446-1.027v-1.076l.148.11a.695.695 0 0 1-.167.39c-.13.172-.284.324-.458.451a2.79 2.79 0 0 1-.684.377 2.277 2.277 0 0 1-.833.156 2.945 2.945 0 0 1-1.584-.439 3.11 3.11 0 0 1-1.11-1.211 4.09 4.09 0 0 1 0-3.56 3.122 3.122 0 0 1 1.098-1.212 2.824 2.824 0 0 1 1.536-.441Zm.235 1.359a1.756 1.756 0 0 0-.976.272 1.842 1.842 0 0 0-.656.741c-.16.331-.242.696-.235 1.064-.004.36.076.717.235 1.04.147.303.374.56.656.741.291.186.63.28.976.273a1.767 1.767 0 0 0 1.644-1.014c.158-.324.239-.68.235-1.04a2.356 2.356 0 0 0-.235-1.064 1.842 1.842 0 0 0-.656-.738 1.783 1.783 0 0 0-.988-.275ZM39.37 60.342a.72.72 0 0 1 .532.208.735.735 0 0 1 .208.543v7.642a.71.71 0 0 1-.74.745.701.701 0 0 1-.531-.208.733.733 0 0 1-.208-.537v-.604l.27.11a.683.683 0 0 1-.173.39 2.268 2.268 0 0 1-.468.451c-.214.158-.45.285-.7.377a2.387 2.387 0 0 1-.871.156 2.83 2.83 0 0 1-1.544-.439 3.1 3.1 0 0 1-1.095-1.211 4.148 4.148 0 0 1 0-3.56c.247-.493.62-.911 1.082-1.212a2.705 2.705 0 0 1 1.507-.439c.333-.003.664.05.978.16.277.1.537.24.772.416.194.141.365.31.508.502a.8.8 0 0 1 .179.416l-.445.16v-3.313a.733.733 0 0 1 .208-.537.701.701 0 0 1 .53-.216Zm-2.498 7.908c.338.008.67-.087.953-.273.275-.185.495-.44.637-.74.154-.325.232-.681.229-1.04a2.41 2.41 0 0 0-.229-1.064 1.873 1.873 0 0 0-.637-.741 1.68 1.68 0 0 0-.953-.273c-.333-.005-.66.09-.938.273a1.83 1.83 0 0 0-.637.74 2.41 2.41 0 0 0-.23 1.064c-.003.36.076.716.23 1.04.14.301.36.557.637.741.277.185.605.281.938.275v-.002Zm1.261-5.698a.782.782 0 0 1-.537-.191.637.637 0 0 1-.208-.502.601.601 0 0 1 .208-.474c.148-.13.34-.2.537-.194h2.152a.774.774 0 0 1 .537.194c.137.119.213.293.208.474a.643.643 0 0 1-.208.502.782.782 0 0 1-.537.191h-2.152ZM46.626 62.875a.71.71 0 0 1 .739.747v3.138c0 .874-.243 1.568-.729 2.081-.485.513-1.186.77-2.101.772-.916 0-1.615-.256-2.096-.768-.482-.512-.722-1.205-.722-2.08V63.63a.71.71 0 0 1 .739-.747.716.716 0 0 1 .532.208.75.75 0 0 1 .208.54v3.137c0 .504.111.877.333 1.12.266.26.63.393 1.001.364.375.03.744-.102 1.014-.364.222-.243.333-.616.335-1.12V63.63a.747.747 0 0 1 .208-.539.716.716 0 0 1 .539-.216Zm-2.014-.417a.479.479 0 0 1-.254-.104.316.316 0 0 1-.142-.303.458.458 0 0 1 .073-.236l.718-1.259c.073-.131.169-.249.283-.347a.6.6 0 0 1 .395-.148.656.656 0 0 1 .508.18c.107.12.16.278.148.438a.999.999 0 0 1-.067.26c-.042.098-.099.19-.168.27l-.939 1.041a.53.53 0 0 1-.272.173 1.15 1.15 0 0 1-.283.031v.004ZM52.51 62.752c.61 0 1.073.128 1.39.383.321.26.551.618.655 1.02.124.46.185.937.179 1.415v3.165a.733.733 0 0 1-.208.537.76.76 0 0 1-1.062 0 .733.733 0 0 1-.208-.537V65.57a2.372 2.372 0 0 0-.106-.735 1.028 1.028 0 0 0-.377-.526 1.315 1.315 0 0 0-.778-.198 1.64 1.64 0 0 0-.832.198 1.373 1.373 0 0 0-.52.526 1.51 1.51 0 0 0-.18.735v3.165a.733.733 0 0 1-.208.537.701.701 0 0 1-.53.208.71.71 0 0 1-.741-.745V63.63a.75.75 0 0 1 .208-.539.716.716 0 0 1 .533-.208.71.71 0 0 1 .738.747v.53l-.185-.037c.09-.162.199-.313.323-.451.147-.168.313-.319.493-.45.197-.144.413-.26.643-.341.248-.087.51-.13.772-.13ZM59.025 62.752c.324-.003.646.05.95.16a2.782 2.782 0 0 1 1.243.918.8.8 0 0 1 .18.416l-.321.16v-.903a.71.71 0 0 1 .739-.745.72.72 0 0 1 .53.208.728.728 0 0 1 .208.543v5.496c.03.61-.13 1.213-.462 1.726a2.645 2.645 0 0 1-1.217.94 4.474 4.474 0 0 1-1.621.29 4.274 4.274 0 0 1-.641-.063 8.523 8.523 0 0 1-.756-.148 4.185 4.185 0 0 1-.543-.16 1.07 1.07 0 0 1-.514-.402.61.61 0 0 1-.054-.514.77.77 0 0 1 .358-.486.61.61 0 0 1 .518-.032c.083.025.208.075.416.148.205.08.413.15.625.208.195.058.396.09.6.094.623 0 1.075-.125 1.373-.37.299-.255.463-.634.445-1.027v-1.078l.148.11a.71.71 0 0 1-.167.39c-.13.172-.284.324-.458.451-.21.158-.44.285-.686.377a2.268 2.268 0 0 1-.833.156 2.943 2.943 0 0 1-1.581-.439 3.122 3.122 0 0 1-1.114-1.211 4.09 4.09 0 0 1 0-3.56 3.122 3.122 0 0 1 1.101-1.212 2.82 2.82 0 0 1 1.534-.441Zm.233 1.359a1.76 1.76 0 0 0-.976.272c-.282.184-.508.44-.656.741-.16.332-.24.696-.235 1.064-.003.36.077.716.235 1.04.147.302.374.558.656.741.291.186.63.28.976.273.35.009.695-.086.99-.273a1.84 1.84 0 0 0 .654-.74c.16-.324.24-.68.235-1.041a2.329 2.329 0 0 0-.235-1.064 1.852 1.852 0 0 0-.653-.74 1.786 1.786 0 0 0-.991-.273ZM72.98 60.342a.712.712 0 0 1 .74.751v7.642a.733.733 0 0 1-.209.537.701.701 0 0 1-.53.208.71.71 0 0 1-.741-.745v-.604l.272.11a.697.697 0 0 1-.173.39 2.337 2.337 0 0 1-.47.451 2.88 2.88 0 0 1-.697.377 2.395 2.395 0 0 1-.872.156 2.843 2.843 0 0 1-1.546-.439 3.097 3.097 0 0 1-1.093-1.211 4.148 4.148 0 0 1 0-3.56c.246-.493.62-.911 1.08-1.212a2.72 2.72 0 0 1 1.51-.439c.331-.003.661.05.975.16.277.1.538.24.774.416.193.141.364.31.506.502.1.118.162.263.179.416l-.445.16v-3.313a.74.74 0 0 1 .208-.537.71.71 0 0 1 .532-.216Zm-2.497 7.908c.337.008.67-.087.951-.273.276-.184.496-.44.637-.74.154-.325.232-.681.229-1.04a2.41 2.41 0 0 0-.229-1.064 1.83 1.83 0 0 0-.637-.741 1.665 1.665 0 0 0-.95-.273c-.334-.006-.661.09-.94.273a1.83 1.83 0 0 0-.636.74 2.383 2.383 0 0 0-.23 1.064c-.004.36.075.716.23 1.04.14.301.36.557.637.741.277.186.605.281.938.275v-.002Zm1.261-5.698a.79.79 0 0 1-.539-.191.643.643 0 0 1-.208-.502.608.608 0 0 1 .208-.474c.149-.13.342-.2.54-.194h2.149a.782.782 0 0 1 .539.194c.137.119.213.293.208.474a.643.643 0 0 1-.208.502.79.79 0 0 1-.539.191h-2.15ZM75.97 62.071a.995.995 0 0 1-.592-.135.587.587 0 0 1-.173-.483v-.235a.55.55 0 0 1 .191-.487c.179-.1.383-.146.587-.13a.997.997 0 0 1 .606.136c.13.125.194.303.173.481v.235a.558.558 0 0 1-.186.49 1.09 1.09 0 0 1-.605.128Zm.756 6.66a.71.71 0 0 1-.74.745.701.701 0 0 1-.531-.208.733.733 0 0 1-.208-.537v-5.1a.71.71 0 0 1 .739-.747.716.716 0 0 1 .532.207.75.75 0 0 1 .208.54v5.1ZM81.298 69.613a3.648 3.648 0 0 1-1.823-.441c-.5-.279-.91-.693-1.186-1.195a3.467 3.467 0 0 1-.416-1.704 3.746 3.746 0 0 1 .452-1.898c.277-.5.685-.917 1.18-1.205a3.043 3.043 0 0 1 1.546-.416c.412-.002.819.086 1.192.26.373.172.71.413.995.71.289.303.521.656.687 1.04.169.4.254.828.251 1.261a.624.624 0 0 1-.235.483.787.787 0 0 1-.518.185h-4.72l-.37-1.236h4.537l-.273.248v-.335a1.132 1.132 0 0 0-.254-.643 1.665 1.665 0 0 0-1.29-.618 2.325 2.325 0 0 0-.693.1c-.21.063-.4.178-.556.333-.17.177-.298.39-.372.624a3.161 3.161 0 0 0-.136 1c-.012.397.085.788.28 1.133a1.9 1.9 0 0 0 1.65.945c.245.006.49-.019.728-.075a1.56 1.56 0 0 0 .439-.18c.112-.068.208-.128.304-.178a.953.953 0 0 1 .416-.11c.345 0 .624.28.624.624a.77.77 0 0 1-.345.606c-.27.21-.575.372-.901.476a3.63 3.63 0 0 1-1.193.206Zm-.025-8.617-.944.792c-.107.09-.196.163-.267.208a.556.556 0 0 1-.339.082.397.397 0 0 1-.266-.092.287.287 0 0 1-.104-.208c-.001-.061.007-.122.025-.181a.693.693 0 0 1 .122-.208l.606-.766a.914.914 0 0 1 .753-.358h.446a.832.832 0 0 1 .389.075.785.785 0 0 1 .279.283l.543.766a.71.71 0 0 1 .125.208c.017.059.025.12.025.181a.29.29 0 0 1-.1.208.387.387 0 0 1-.27.092.535.535 0 0 1-.336-.082c-.066-.052-.156-.124-.272-.208l-1.041-.915.626.123Zm-.27 10.465a.945.945 0 0 1-.58-.137.576.576 0 0 1-.176-.481v-.235a.55.55 0 0 1 .194-.49.993.993 0 0 1 .562-.128c.216-.02.433.025.624.129a.583.583 0 0 1 .173.489v.235a.558.558 0 0 1-.185.487 1.11 1.11 0 0 1-.612.131ZM90.318 62.875a.716.716 0 0 1 .532.208.75.75 0 0 1 .208.539v3.138c0 .874-.243 1.568-.73 2.081-.487.513-1.184.77-2.091.772-.916 0-1.615-.256-2.096-.768-.481-.512-.723-1.205-.724-2.08V63.63a.75.75 0 0 1 .208-.539.716.716 0 0 1 .533-.208.71.71 0 0 1 .738.747v3.138c0 .504.111.877.333 1.12.267.26.632.393 1.003.364.375.03.744-.103 1.014-.364.223-.243.334-.616.333-1.12V63.63a.75.75 0 0 1 .208-.539.71.71 0 0 1 .53-.216ZM94.55 69.39c-.009.173-.049.342-.118.5-.083.212-.19.413-.32.6a2.162 2.162 0 0 1-.465.495.887.887 0 0 1-.543.208.753.753 0 0 1-.416-.113.416.416 0 0 1-.173-.383c0-.189.058-.303.18-.345l.3-.11a.8.8 0 0 0 .255-.208.458.458 0 0 0 .093-.292.306.306 0 0 0-.13-.241.529.529 0 0 0-.34-.104.945.945 0 0 0-.173.018.441.441 0 0 0-.172.067.782.782 0 0 1-.208-.154.416.416 0 0 1-.094-.304.708.708 0 0 1 .173-.476c.128-.144.287-.259.464-.335.165-.077.344-.12.526-.123.317-.015.624.106.845.333.225.27.339.616.316.967ZM104.885 60.342a.712.712 0 0 1 .739.751v7.642a.74.74 0 0 1-.208.537.701.701 0 0 1-.531.208.71.71 0 0 1-.74-.745v-.604l.272.11a.697.697 0 0 1-.173.39 2.337 2.337 0 0 1-.47.451c-.215.158-.45.285-.7.377a2.377 2.377 0 0 1-.87.156 2.836 2.836 0 0 1-1.546-.439 3.1 3.1 0 0 1-1.094-1.211 4.148 4.148 0 0 1 0-3.56c.247-.493.62-.911 1.082-1.212a2.72 2.72 0 0 1 1.509-.439c.332-.003.662.05.976.16.276.1.537.24.772.416.194.14.365.31.508.502a.8.8 0 0 1 .178.416l-.445.16v-3.313a.74.74 0 0 1 .208-.537.71.71 0 0 1 .533-.216Zm-2.497 7.908c.337.008.669-.087.95-.273.277-.184.497-.44.638-.74.154-.325.232-.681.228-1.04a2.41 2.41 0 0 0-.228-1.064 1.83 1.83 0 0 0-.637-.741 1.677 1.677 0 0 0-.951-.273 1.665 1.665 0 0 0-.94.273 1.873 1.873 0 0 0-.638.74 2.41 2.41 0 0 0-.227 1.064c-.004.36.074.715.227 1.04.142.3.362.556.637.741.278.186.607.281.94.275v-.002ZM112.337 62.875a.716.716 0 0 1 .533.208.75.75 0 0 1 .208.539v3.138c0 .874-.243 1.568-.73 2.081-.487.513-1.187.77-2.1.768-.916 0-1.614-.256-2.096-.768-.481-.512-.723-1.206-.724-2.081v-3.13a.75.75 0 0 1 .208-.539.762.762 0 0 1 1.064 0 .75.75 0 0 1 .208.54v3.137c0 .504.11.877.333 1.12.266.26.631.393 1.003.364.374.03.743-.103 1.013-.364.22-.244.333-.624.333-1.12V63.63a.75.75 0 0 1 .208-.539.71.71 0 0 1 .54-.216Zm-2.04-.433a.666.666 0 0 1-.283-.073l-1.235-.656a.966.966 0 0 1-.342-.297.637.637 0 0 1-.116-.358.516.516 0 0 1 .222-.445.745.745 0 0 1 .433-.16.69.69 0 0 1 .327.08c.101.051.195.116.279.192l1.063.939a.466.466 0 0 1 .173.335.404.404 0 0 1-.144.32.547.547 0 0 1-.378.123h.002ZM118.222 62.752c.61 0 1.072.127 1.39.383.321.262.55.619.656 1.02.124.46.184.937.18 1.415v3.165a.74.74 0 0 1-.209.537.762.762 0 0 1-1.063 0 .74.74 0 0 1-.209-.537V65.57a2.437 2.437 0 0 0-.104-.735 1.02 1.02 0 0 0-.378-.526 1.311 1.311 0 0 0-.779-.198c-.29-.009-.577.06-.832.198a1.353 1.353 0 0 0-.518.526 1.488 1.488 0 0 0-.18.735v3.165a.71.71 0 0 1-.74.745.701.701 0 0 1-.53-.208.733.733 0 0 1-.209-.537V63.63a.71.71 0 0 1 .739-.747.716.716 0 0 1 .533.208.75.75 0 0 1 .208.54v.53l-.185-.038c.09-.162.197-.313.32-.451.148-.168.314-.319.495-.45.196-.144.412-.259.641-.341.25-.087.51-.13.774-.13ZM124.736 62.752c.324-.004.646.05.951.16.27.1.523.24.75.416.187.143.353.312.493.502.1.118.162.263.18.416l-.322.16v-.903a.71.71 0 0 1 .74-.745.722.722 0 0 1 .532.208.735.735 0 0 1 .208.543v5.496c.03.61-.132 1.214-.464 1.726a2.624 2.624 0 0 1-1.214.938 4.472 4.472 0 0 1-1.619.29 4.322 4.322 0 0 1-.643-.063 8.33 8.33 0 0 1-.753-.148 4.341 4.341 0 0 1-.545-.16 1.063 1.063 0 0 1-.512-.402.604.604 0 0 1-.056-.514.776.776 0 0 1 .357-.487.624.624 0 0 1 .52-.03c.082.024.22.074.417.147.204.08.413.15.624.208.195.058.397.09.6.094.624 0 1.076-.125 1.371-.37.3-.255.465-.634.445-1.027v-1.076l.148.11a.695.695 0 0 1-.166.39c-.13.172-.284.324-.458.451a2.79 2.79 0 0 1-.685.377 2.277 2.277 0 0 1-.832.156 2.949 2.949 0 0 1-1.605-.443 3.122 3.122 0 0 1-1.111-1.211 4.09 4.09 0 0 1 0-3.56 3.122 3.122 0 0 1 1.1-1.212c.463-.293 1.002-.445 1.55-.437Zm.235 1.359a1.756 1.756 0 0 0-.976.272 1.842 1.842 0 0 0-.655.741c-.16.332-.241.696-.235 1.064-.004.36.077.716.235 1.04.146.303.373.56.655.741.291.186.631.28.976.273a1.767 1.767 0 0 0 1.644-1.014c.158-.324.239-.68.235-1.04a2.356 2.356 0 0 0-.235-1.064 1.842 1.842 0 0 0-.655-.74 1.783 1.783 0 0 0-.989-.273ZM136.812 62.752c.596 0 1.041.127 1.355.383.314.265.537.621.637 1.02.12.462.178.937.173 1.415v3.165a.74.74 0 0 1-.208.537.762.762 0 0 1-1.064 0 .74.74 0 0 1-.208-.537V65.57a2.583 2.583 0 0 0-.098-.735 1.024 1.024 0 0 0-.36-.526 1.207 1.207 0 0 0-.74-.198c-.281-.008-.559.06-.804.198a1.296 1.296 0 0 0-.501.526c-.113.228-.17.48-.167.735v3.165a.74.74 0 0 1-.208.537.701.701 0 0 1-.53.208.71.71 0 0 1-.741-.745v-7.64a.71.71 0 0 1 .74-.745.701.701 0 0 1 .531.208.74.74 0 0 1 .208.537v3.066l-.185-.038a2.718 2.718 0 0 1 .79-.901c.192-.142.402-.257.625-.341a2.16 2.16 0 0 1 .755-.13ZM145.936 62.752a.728.728 0 0 1 .533.208.735.735 0 0 1 .208.543v5.232a.71.71 0 0 1-.74.745.701.701 0 0 1-.532-.208.733.733 0 0 1-.208-.537v-.604l.27.11a.683.683 0 0 1-.172.39 2.268 2.268 0 0 1-.468.451c-.215.158-.45.285-.7.377a2.387 2.387 0 0 1-.872.156 2.83 2.83 0 0 1-1.535-.443 3.1 3.1 0 0 1-1.095-1.211 4.148 4.148 0 0 1 0-3.56c.247-.493.62-.911 1.082-1.212a2.705 2.705 0 0 1 1.507-.44c.333-.003.664.052.978.161.276.1.537.24.772.416.193.14.364.31.506.502.1.118.162.263.18.416l-.445.16v-.903a.733.733 0 0 1 .208-.537.71.71 0 0 1 .523-.212Zm-2.385-.31a.57.57 0 0 1-.137-.019.751.751 0 0 1-.148-.054l-1.236-.656a.957.957 0 0 1-.34-.297.624.624 0 0 1-.118-.358.522.522 0 0 1 .223-.445.753.753 0 0 1 .432-.16.7.7 0 0 1 .33.08c.1.051.193.116.276.192l1.063.939a.466.466 0 0 1 .173.335.416.416 0 0 1-.141.32.551.551 0 0 1-.377.123Zm-.112 5.81c.338.008.67-.087.953-.272.275-.186.495-.442.636-.741.154-.326.231-.681.227-1.04a2.41 2.41 0 0 0-.227-1.064 1.873 1.873 0 0 0-.636-.741 1.686 1.686 0 0 0-.953-.273c-.334-.006-.66.09-.939.273a1.83 1.83 0 0 0-.637.74 2.41 2.41 0 0 0-.229 1.064c-.003.36.075.716.23 1.04.14.301.36.557.636.742.278.184.605.279.939.272ZM151.821 62.752c.61 0 1.072.127 1.39.383.32.262.55.619.656 1.02.123.46.184.937.179 1.415v3.165a.71.71 0 0 1-.74.745.701.701 0 0 1-.532-.208.74.74 0 0 1-.208-.537V65.57a2.372 2.372 0 0 0-.106-.735 1.018 1.018 0 0 0-.377-.526 1.315 1.315 0 0 0-.778-.198c-.29-.009-.577.06-.832.198a1.353 1.353 0 0 0-.519.526 1.49 1.49 0 0 0-.18.735v3.165a.733.733 0 0 1-.209.537.76.76 0 0 1-1.061 0 .733.733 0 0 1-.208-.537V63.63a.74.74 0 0 1 .208-.539.76.76 0 0 1 1.061 0 .74.74 0 0 1 .208.54v.53l-.185-.038c.09-.162.199-.313.323-.451.147-.168.312-.319.493-.45.196-.144.413-.26.643-.341.249-.087.51-.13.774-.13ZM158.335 62.752c.324-.004.646.05.95.16.27.1.523.24.75.416.188.143.354.312.493.502.1.118.162.263.18.416l-.321.16v-.903a.71.71 0 0 1 .739-.745.728.728 0 0 1 .532.208.735.735 0 0 1 .208.543v5.496c.03.61-.132 1.213-.464 1.726a2.645 2.645 0 0 1-1.217.94 4.474 4.474 0 0 1-1.609.29 4.308 4.308 0 0 1-.643-.063 8.523 8.523 0 0 1-.755-.148 4.397 4.397 0 0 1-.543-.16 1.053 1.053 0 0 1-.512-.402.604.604 0 0 1-.057-.514.77.77 0 0 1 .358-.486.624.624 0 0 1 .52-.032c.082.025.209.075.417.148.204.08.412.15.624.208.195.058.396.09.6.094.624 0 1.073-.125 1.37-.37.3-.255.465-.634.446-1.027v-1.078l.148.11a.71.71 0 0 1-.167.39c-.13.172-.283.324-.457.451a2.79 2.79 0 0 1-.685.377 2.277 2.277 0 0 1-.832.156 2.945 2.945 0 0 1-1.584-.439 3.11 3.11 0 0 1-1.111-1.211 4.09 4.09 0 0 1 0-3.56 3.122 3.122 0 0 1 1.098-1.212c.456-.29.984-.443 1.524-.441Zm.235 1.359a1.763 1.763 0 0 0-.978.272c-.281.184-.507.44-.654.741-.161.331-.242.696-.235 1.064-.004.36.076.717.235 1.04.147.302.372.558.654.741.292.186.632.28.978.273.35.009.693-.086.988-.273.282-.183.508-.44.656-.74.158-.325.238-.68.235-1.041a2.356 2.356 0 0 0-.235-1.064 1.873 1.873 0 0 0-.656-.74 1.783 1.783 0 0 0-.982-.273h-.006ZM170.411 62.752c.592 0 1.044.128 1.355.383.31.266.528.622.624 1.02.121.461.18.937.175 1.415v3.165a.71.71 0 0 1-.74.745.701.701 0 0 1-.532-.208.733.733 0 0 1-.208-.537V65.57a2.51 2.51 0 0 0-.1-.735 1.01 1.01 0 0 0-.358-.526 1.207 1.207 0 0 0-.74-.198c-.281-.008-.559.06-.804.198a1.282 1.282 0 0 0-.501.526c-.113.228-.17.48-.167.735v3.165a.71.71 0 0 1-.74.745.701.701 0 0 1-.531-.208.74.74 0 0 1-.208-.537v-7.64a.74.74 0 0 1 .208-.537.701.701 0 0 1 .53-.208.71.71 0 0 1 .741.745v3.066l-.185-.038c.088-.16.191-.311.308-.451.142-.17.304-.32.483-.45.191-.142.401-.257.624-.341.246-.09.505-.133.766-.13ZM174.825 62.071a.986.986 0 0 1-.593-.135.58.58 0 0 1-.175-.483v-.235a.545.545 0 0 1 .194-.487c.178-.1.382-.146.586-.13.212-.02.424.028.606.136a.579.579 0 0 1 .173.481v.235a.562.562 0 0 1-.185.49 1.1 1.1 0 0 1-.606.128Zm.753 6.66a.74.74 0 0 1-.208.537.701.701 0 0 1-.53.208.71.71 0 0 1-.741-.745v-5.1a.75.75 0 0 1 .208-.54.716.716 0 0 1 .533-.208.71.71 0 0 1 .738.747v5.1ZM180.152 69.613a3.638 3.638 0 0 1-1.823-.439 3.036 3.036 0 0 1-1.188-1.194 3.49 3.49 0 0 1-.416-1.705 3.763 3.763 0 0 1 .452-1.898c.278-.5.687-.916 1.182-1.205a3.035 3.035 0 0 1 1.544-.416c.412-.002.819.086 1.192.26.374.172.711.413.995.71.29.302.523.655.687 1.04.17.4.256.828.254 1.261a.641.641 0 0 1-.236.483.787.787 0 0 1-.518.186h-4.722l-.37-1.237h4.537l-.271.248v-.335a1.132 1.132 0 0 0-.254-.643 1.702 1.702 0 0 0-.568-.452 1.636 1.636 0 0 0-.724-.166 2.325 2.325 0 0 0-.693.1c-.21.063-.4.178-.556.333-.17.177-.296.39-.37.624-.1.324-.145.662-.136 1.001-.012.396.083.787.277 1.132.343.586.972.946 1.65.945a2.86 2.86 0 0 0 .731-.075c.154-.037.303-.098.44-.179.11-.069.207-.129.3-.179a.96.96 0 0 1 .417-.11.6.6 0 0 1 .452.185c.115.114.18.27.179.433a.774.774 0 0 1-.346.605c-.27.211-.576.373-.903.477a3.609 3.609 0 0 1-1.195.21Zm-.025-8.617-.948.792c-.109.09-.209.163-.267.208a.564.564 0 0 1-.341.082.39.39 0 0 1-.264-.092.283.283 0 0 1-.107-.208c0-.061.008-.122.025-.181a.71.71 0 0 1 .125-.208l.606-.766a.91.91 0 0 1 .753-.358h.446a.845.845 0 0 1 .389.075c.115.07.21.167.279.283l.543.766a.693.693 0 0 1 .122.208c.018.059.026.12.026.181a.296.296 0 0 1-.098.208.393.393 0 0 1-.273.092.527.527 0 0 1-.333-.082l-.273-.208-1.04-.915.63.123Zm-.272 10.465a.953.953 0 0 1-.58-.137.58.58 0 0 1-.173-.481v-.235a.554.554 0 0 1 .191-.49.993.993 0 0 1 .562-.128c.216-.02.433.025.624.129a.576.576 0 0 1 .173.489v.235a.554.554 0 0 1-.185.487c-.187.102-.4.148-.612.131ZM189.168 62.875a.71.71 0 0 1 .738.747v3.138c0 .874-.242 1.568-.728 2.081-.486.513-1.183.77-2.091.772-.915 0-1.613-.256-2.096-.768-.483-.512-.724-1.205-.722-2.08V63.63a.71.71 0 0 1 .739-.747.716.716 0 0 1 .532.208.75.75 0 0 1 .208.54v3.137c0 .504.111.877.333 1.12.266.26.63.393 1.001.364.375.03.744-.102 1.014-.364.223-.243.335-.616.335-1.12V63.63a.74.74 0 0 1 .208-.539.71.71 0 0 1 .529-.216Z" fill="#313947"/></g></svg>