<svg width="108" height="32" xmlns="http://www.w3.org/2000/svg"><g fill-rule="nonzero" fill="none"><path d="M30.536 23.301c-1.808 1.812-3.96 2.724-6.465 2.724-2.494 0-4.634-.888-6.395-2.652-1.761-1.765-2.648-3.908-2.648-6.406 0-2.498.887-4.641 2.648-6.405 1.761-1.765 3.9-2.653 6.395-2.653 2.494 0 4.633.888 6.394 2.653 1.762 1.776 2.648 3.907 2.648 6.405v7.767c0 .355-.13.663-.378.912a1.249 1.249 0 0 1-.91.379c-.355 0-.662-.13-.91-.38a1.253 1.253 0 0 1-.379-.91V23.3ZM24.071 10.48c-1.785 0-3.31.627-4.575 1.894-1.264 1.267-1.89 2.794-1.89 4.582 0 1.788.626 3.315 1.89 4.582 1.265 1.267 2.79 1.895 4.575 1.895 1.785 0 3.31-.628 4.574-1.895 1.265-1.267 1.891-2.794 1.891-4.582 0-1.788-.626-3.315-1.89-4.582-1.266-1.255-2.79-1.894-4.575-1.894ZM51.168 1.296c0-.357.13-.666.379-.916.248-.25.555-.38.91-.38.354 0 .662.13.91.38s.378.56.378.916V16.93c0 2.508-.886 4.66-2.647 6.432-1.773 1.783-3.901 2.663-6.395 2.663-2.494 0-4.634-.892-6.395-2.663-1.761-1.772-2.648-3.924-2.648-6.432 0-2.509.887-4.66 2.648-6.432 1.761-1.772 3.9-2.663 6.395-2.663 2.494 0 4.633.891 6.395 2.663l.059.06V1.295h.011Zm0 15.646c0-1.796-.626-3.33-1.89-4.601-1.266-1.272-2.79-1.903-4.575-1.903-1.785 0-3.31.63-4.575 1.903-1.264 1.272-1.89 2.805-1.89 4.6 0 1.796.626 3.33 1.89 4.602 1.265 1.272 2.79 1.902 4.575 1.902 1.785 0 3.31-.63 4.574-1.902 1.265-1.273 1.891-2.806 1.891-4.601ZM20.148 3.326c0-.012-.012-.012-.012-.024 0 0 0-.012-.012-.012a7.16 7.16 0 0 0-.581-.63C17.775.88 15.628 0 13.124 0c-2.503 0-4.65.89-6.419 2.66-1.78 1.782-2.67 3.932-2.67 6.439v.285h-2.74A1.22 1.22 0 0 0 .168 10a1.243 1.243 0 0 0 .45 1.699c.226.13.487.178.724.166h2.694V24.73c0 .356.13.665.38.915.249.249.557.38.913.38s.664-.131.914-.38c.249-.25.38-.559.38-.915v-9.253l.023.024v-3.623h5.778a1.243 1.243 0 0 0 .724-2.316 1.346 1.346 0 0 0-.665-.167H6.646c0-.095-.012-.19-.012-.285 0-.166.012-.344.024-.51v-.024c.118-1.568.735-2.922 1.874-4.062 1.27-1.271 2.8-1.9 4.592-1.9 1.792 0 3.322.629 4.592 1.9.166.166.308.332.45.499.214.213.487.332.807.356.356.024.677-.071.95-.309.272-.238.427-.534.45-.89.024-.322-.059-.595-.225-.844Z" fill="#CB2026"/><ellipse fill="#CB2026" cx="65.462" cy="29.852" rx="2.038" ry="2.041"/><ellipse fill="#CB2026" cx="73.358" cy="29.852" rx="2.038" ry="2.041"/><path d="M70.07 26.025c-1.031 0-2.061-.142-3.068-.401a11.783 11.783 0 0 1-6.952-5.106 11.687 11.687 0 0 1-1.681-8.007l.035-.224-.533-.142-.083.035a1.66 1.66 0 0 1-.675.154c-.106 0-.225-.012-.331-.036a1.574 1.574 0 0 1-1.22-1.863c.154-.72.805-1.25 1.54-1.25.106 0 .224.012.331.036.474.094.865.4 1.078.837l.047.106 1.35.354c.427.118.758.483.77.86 0 .13 0 .307-.012.378-1.172 5.389 1.777 10.472 6.88 11.828a9.62 9.62 0 0 0 2.523.33c4.37 0 8.22-2.936 9.368-7.135v-.035a1.051 1.051 0 0 1 1.29-.743c.273.07.498.248.64.495.142.248.178.531.107.802-.012.024-.012.06-.024.083v.012c-1.41 5.082-6.099 8.632-11.38 8.632Z" fill="#CB2026"/><path d="M78.453 14.288c0 4.653-3.76 8.42-8.406 8.42-4.645 0-8.405-3.767-8.405-8.42 0-4.653 3.76-8.42 8.405-8.42s8.406 3.767 8.406 8.42Z" fill="#CB2026"/><path d="M64.437 8.166c.037.024.11.117.194.07.085-.046.17.093.218.082a.943.943 0 0 1 .266.023c.036.012.085.128.133.128.049 0 .194.035.218.07.024.034.06.162.036.174-.024.012-.012.105.037.128.048.023.193.081.193.116s.073.058.06.082c-.023.023-.035.15-.06.162-.036.012-.072.082-.109.047-.024-.035-.157-.047-.133-.012a.452.452 0 0 1 0 .221c-.024.047-.06.198-.145.14-.085-.07-.4-.198-.472-.198-.073.012-.012-.128.182-.21l.036-.232.012-.14a2.676 2.676 0 0 0-.23-.127c-.06-.024-.181.035-.23.011-.036-.023-.17-.011-.133 0 .024.012.085.105.073.163 0 .047-.06.233-.134.256-.072.023-.326.093-.314.116 0 .023-.037.128-.097.163-.06.046-.206.22-.242.267-.036.047-.17.152-.17.186.013.024-.024.047.013.07.036.012.084.21.145.244.06.035.23.14.254.128.036-.023.097.035.109.012.024-.035.109.07.12.151.025.081.11.163.122.081.012-.093.109-.22.085-.209-.025.012-.049-.07-.012-.07.036 0 .133-.093.157-.209.024-.105.012-.523.036-.535.024-.011.121.012.145.047.025.035.134.011.17.058.036.046.218.058.218.116s.036.21.072.21c.037 0 .146 0 .146-.035s.048-.047.084.023c.037.058.182.21.182.232 0 .024 0 .105.048.14.037.035.097.198.121.186.025-.012.11.081.11.14 0 .058 0 .337.023.383.025.047.146.14.146.175 0 .034-.037.127-.085.104-.048-.023-.121.023-.133 0-.012-.023-.049-.07-.085-.058-.036.012-.133-.058-.073-.128.061-.081.11-.267.037-.21-.073.059-.279.012-.266.036.012.023-.025.128-.073.14-.049.01-.073.127-.036.162.036.035.096.14.036.174-.049.035-.17.093-.182.105.025-.012-.048-.081-.133-.058-.084.023-.254.163-.23.186.024.023-.012.163-.072.186-.049.023-.23.128-.267.174-.036.047-.012.268-.036.28-.024.011-.109.034-.097.058.012.023-.084.174-.181.22-.097.047-.206.314-.194.35.012.023.06.127.048.174-.012.046-.036.209-.096.186-.06-.024-.146-.244-.206-.268-.06-.023-.254-.035-.266-.023 0 .012-.049.047-.11.012a.885.885 0 0 0-.35.011 1.107 1.107 0 0 0-.267.477c-.048.22.327.337.351.29.025-.057.121-.15.17-.15.036.011.206.058.194.127-.013.07.012.28.096.28.085 0 .194.197.17.29-.024.093.06.302.097.28a.442.442 0 0 1 .205-.047c.037.023.097.104.158.058.048-.035.17-.21.205-.221.037-.012.11-.047.134-.023.024.023.109.046.12.011 0-.035.146 0 .194.035.049.035.146.163.158.151.012-.011.12 0 .193.035.085.047.315.175.34.233.023.07.241.232.362.302.133.07.17.29.194.302.036.012.181.035.242.059.06.023.194.127.23.127.036 0 .194.012.254.035.048.019.136.09.181.105h.025c.036-.023.133.081.17.174v.186c-.013.058-.037.128-.037.163-.012.023-.121.151-.145.186-.024.023-.073.163-.085.175-.012.011-.073.046-.073.081s-.06.186-.072.29c-.012.105-.06.408-.097.42-.036.022-.23.104-.254.139-.024.035-.11.163-.11.197 0 .035-.048.175-.096.21s-.109.255-.133.279c-.024.023-.085.116-.097.116-.012 0-.06.035-.109.035-.048 0-.145.035-.12.081.023.047-.013.268-.061.303-.049.034-.255.116-.267.186-.012.081-.205.162-.181.255.024.093-.012.28.012.303.024.023.024.174.012.209s-.121.105-.145.14c-.037.034-.024.22.012.232.036.012.06.151.085.186.024.023.084.081.024.093-.06.012-.254.023-.279 0a.557.557 0 0 0-.12-.058l-.013-.016a.179.179 0 0 1-.012-.019c-.012-.023-.036-.14-.06-.21-.037-.069-.146-.255-.158-.336-.012-.082-.048-.396-.06-.442 0-.047.024-.163 0-.175-.037-.011.024-.128.072-.15.049-.012.037-.164.013-.152-.037.012-.11-.186-.11-.337 0-.151.146-.465.122-.558-.012-.105.036-.349.036-.372-.012-.024-.048-.093-.036-.128a.537.537 0 0 0 0-.244c-.037-.082-.158-.326-.218-.384-.06-.047-.206-.198-.267-.22.013-.024-.048-.152-.133-.199-.084-.046-.096-.337-.06-.337.036-.011.06-.07.012-.093a.451.451 0 0 1-.157-.197 1.18 1.18 0 0 1 .096-.407c.037-.047.073-.256.085-.268.012-.011.012-.128-.012-.174-.024-.047-.073-.175-.085-.151-.024.023-.109.046-.157-.012-.048-.058-.266-.14-.266-.151a.159.159 0 0 0-.06-.105c-.037-.023-.122-.128-.158-.14-.036-.01-.194-.034-.218-.07a.603.603 0 0 0-.303-.197c-.12-.023-.508-.163-.544-.232-.037-.07-.085-.384-.121-.43-.049-.047-.17-.175-.17-.21 0-.023-.048 0-.036.035.024.035.012.186-.012.175-.024-.024-.157-.07-.182-.14-.012-.035-.06-.093-.096-.14.048-.383.12-.755.217-1.116.012-.046.025-.081.037-.128.036-.15.097-.302.145-.453.036-.081.06-.163.097-.244.048-.128.097-.256.157-.384.097-.186.182-.384.29-.57.037-.07.085-.14.122-.209l.29-.453c.036-.047.073-.105.109-.152.157-.22.315-.43.496-.627.037.011.073.023.073.034.012.035.085.024.109-.058a.322.322 0 0 0-.012-.15c.036-.047.084-.082.12-.129.073.024.158.058.182.093.037.058.145.198.121.233-.024.035.049.104.085.07.024-.035.06-.163.036-.163s-.097-.128-.097-.268.182-.337.218-.314Zm14.016 8.418a7.164 7.164 0 0 1-.935 1.957c-.025.011-.038.022-.063.022-.076.023-.303.08-.328.057-.026-.023-.114-.125-.089-.227l-.012-.137-.013-.068c-.05-.045-.088-.148-.088-.239 0-.09.012-.307.063-.318.05-.012.19-.17.24-.296l.075-.08.064-.056c.037.045.063.056.063.01 0-.045.1-.113.151-.136.05-.022.177-.01.202-.056a.602.602 0 0 1 .177-.217c.05-.022.215-.09.215-.125 0-.028.114-.072.218-.086l.06-.005Zm-3.265-8.668a.788.788 0 0 0 .266.08h.085l.29.256c0 .046.06.14.17.162h.023a8.256 8.256 0 0 1 2.176 3.284 1.08 1.08 0 0 1-.157.186c-.048.023-.133.22-.109.383.024.162-.181.406-.23.383-.048-.024-.096-.232-.132-.267-.037-.035-.11-.116-.097-.082.012.047-.073.128-.085.151-.012.024-.084.047-.096.07-.013.023 0 .14.024.174.012.035.084.128.096.174.013.046.073.186.06.267a1.54 1.54 0 0 1-.096.302c-.012.011-.109.092-.157.174-.048.08-.254.301-.338.301-.085-.011-.158.128-.133.128.036 0 .072.07.06.116-.012.046-.109.244-.12.418-.013.174-.315.336-.315.313 0-.023-.06-.104-.109-.14-.048-.034-.17-.104-.181-.057-.012.046-.012.22.024.267.036.046.181.197.23.255.033.053.005.235-.066.208a.672.672 0 0 1 .137.197c.03.077-.039.22-.087.198-.036-.041-.186-.475-.285-.603a.391.391 0 0 1-.047-.045l.008.007-.03-.027a.484.484 0 0 0-.061-.048c.01.006.02.004.028-.001a.036.036 0 0 1-.008-.014.71.71 0 0 1-.012-.22c.012-.023.024-.14 0-.186-.025-.046-.121-.14-.121-.174 0-.035-.024-.128-.097-.128-.072 0-.157-.116-.145-.139.012-.023-.012-.15-.048-.209-.025-.058-.17-.174-.218-.15-.06.011-.205.104-.254.139-.036.035-.072.22-.084.255-.012.023-.133.023-.133.046 0 .024-.012.082-.037.082-.024 0-.096.092-.12.197-.025.104-.121.394-.17.394-.048 0-.12-.07-.12-.104a.733.733 0 0 0-.049-.209 1.334 1.334 0 0 1-.157-.29c-.024-.081-.145-.278-.157-.313-.012-.035-.049-.163-.085-.174-.036-.012-.096-.093-.096-.116.012-.012-.025-.105-.121-.21l-.206.036-.06.011c-.012-.035-.06-.046-.11-.011-.035.023-.229.011-.24-.012-.013-.023-.085-.174-.158-.255-.072-.081-.314-.244-.338-.232-.025.011-.073.07-.06.104.011.035.144.093.168.15.025.047.097.198.133.175.037-.012.206.023.242.081.036.058.097.232.06.267-.036.023-.072.22-.12.255-.049.035-.23.105-.23.14 0 .034-.133.116-.242.162-.109.058-.447.093-.483.012a3.153 3.153 0 0 0-.242-.441c-.06-.082-.242-.337-.254-.395-.012-.07-.096-.139-.084-.093.012.047.012.198.048.232.036.035.157.174.193.233.037.058.097.348.17.406.06.058.18.313.23.313.06 0 .205-.023.241-.058.024-.035.193.011.205.07.013.07-.06.336-.133.452-.072.116-.314.464-.35.487a.696.696 0 0 0-.181.244c-.025.081-.097.394-.085.569.012.174-.109.65-.205.742-.097.105-.206.545-.242.557-.036.012-.133.081-.145.128-.012.046-.06.243-.121.301-.06.058-.254.325-.363.383-.109.07-.52.035-.58-.093-.036-.127-.205-.44-.205-.487 0-.046-.037-.267-.073-.371-.048-.105-.193-.406-.181-.51.012-.105.084-.407.072-.5-.012-.092-.12-.348-.145-.44-.024-.093-.109-.395-.084-.488.024-.093-.012-.394-.049-.383-.036.012-.145.023-.193 0-.048-.023-.23-.07-.23-.139h-.06l-.121-.012c-.024.082-.121.163-.206.163-.084 0-.338 0-.41-.047-.085-.046-.315-.243-.351-.324-.036-.082-.17-.395-.17-.546 0-.15.037-.592.073-.65.037-.07.182-.37.302-.464l.049-.08.072-.129c.024-.185.097-.348.145-.37.049-.024.157-.152.194-.14.036.012.181.046.266.012.084-.035.471-.082.544-.105.072-.023.326-.023.338.012.012.035-.036.08-.012.104.024.023.109.186.218.232.12.047.362.197.374.151.012-.046.242-.093.4-.081.156.011.519.046.53-.012.025-.07.122-.197.122-.232s0-.081-.012-.035c0 .047-.133.047-.121.012 0-.035-.206-.07-.363-.023l-.109-.081-.048-.035a.43.43 0 0 1-.048-.151c0-.035.012-.186 0-.186s-.049.058-.049.128c.012.07 0 .244.049.244.048 0 .024.116-.024.116-.037 0-.085-.093-.073-.093.012 0-.024-.023-.072-.023-.049 0-.121-.07-.121-.105a.688.688 0 0 0-.037-.209l-.024-.035c-.012-.034-.036-.104-.06-.127l-.097-.14c-.145-.115-.193-.139-.12-.069.072.081.193.278.168.255-.024-.035-.084.047-.06.058.024 0-.012.093-.06.116-.049.023-.11.163-.145.151-.037-.011-.037-.128 0-.128.036.012.048-.104.012-.15-.025-.047-.206-.116-.218-.151 0-.035-.048 0-.024.093.024.092-.157.104-.181.011-.025-.104 0-.278-.049-.243-.048.034-.242.023-.278.08-.036.059-.217.221-.242.302-.024.093-.133.267-.169.256-.036-.012-.205.011-.242-.012-.036-.023-.217-.058-.23-.104a1.178 1.178 0 0 1-.023-.302c.012-.058.12-.232.205-.255.085-.012.314.023.326 0 .013-.023.025-.105-.012-.14-.048-.023-.096-.185-.145-.185-.048 0-.108-.07-.084-.093.024-.023.145-.104.169-.14.024-.034.193-.057.205-.069.013-.011-.06-.046-.157-.046-.096.011-.29.011-.266 0 .025-.023.085-.105.06-.14-.023-.046.013-.22.061-.22.037 0 .049-.128.024-.128-.024-.011-.096-.104-.084-.174.012-.07.036-.301.072-.324.037-.024.17 0 .157.023-.012.023-.048.093-.024.104a.936.936 0 0 1 .145.151c.037.058.049.29.073.313.024.023.06.105.036.151-.012.023-.024.058-.036.093.048-.035.181-.058.193-.093.012-.035.085-.14.133-.15.049-.024.194-.059.194-.094 0-.034-.049-.07-.037-.104.012-.035.049-.162-.012-.162-.06 0-.133-.151-.133-.22 0-.07-.048-.28-.024-.372.024-.093.23-.197.23-.22 0-.024.024-.082.048-.082a.149.149 0 0 0 .121-.07c.036-.057.157-.278.23-.336.072-.046.254-.22.278-.232.024-.023.084-.012.133-.046.048-.035.205-.128.253-.128.049 0 .194.023.23.058.036.023.145.14.194.15.048.024.241.128.362.163s.181.22.23.186c.048-.035.109-.232.133-.22.036 0 .133.034.133.07 0 .034.048.092.109.045.06-.046.326-.139.41-.15.085-.012.254.011.206 0-.048 0 .012-.151.06-.128.049.023.339-.023.4-.081.06-.058.229-.22.265-.197.036.023.133.07.145.034.012-.034.145 0 .145.047 0 .035.049.093.06.058.013-.035.073-.116.122-.093.06.035.169.07.133.046-.037-.023-.049-.162-.013-.174.037-.011.133-.058.146-.093a.344.344 0 0 1 .132-.127c.037-.012.182-.07.254-.081.085-.012.242-.093.254-.07.012.023.109.012.121-.023.012-.047.181-.07.193-.116.013-.058.11-.105.133-.081Zm-2.678 8.688c0 .06.095.426.083.499a.592.592 0 0 1-.059.158.297.297 0 0 0-.035.11c0 .037-.012.158-.024.22-.024.048-.13.255-.166.267-.035.012-.166-.036-.177-.11-.012-.06-.071-.292-.036-.34a.38.38 0 0 0 .036-.195.606.606 0 0 1 .07-.268c.036-.049.202-.183.226-.244.011-.06.082-.158.082-.097Zm4.158-.51c.107.036.48.19.506.213.027.024-.053.012-.2-.023-.146-.036-.572-.095-.559-.13.014-.036.134-.095.253-.06Zm1.785-.53c-.011.09-.022.178-.033.255-.078-.064-.166-.115-.188-.102-.033.025-.044-.051-.022-.064.033-.013.055-.09.066-.064.011.026.133.013.155 0 0 0 .022-.012.022-.025Zm-1.204-.51c.07.01.198.102.184.133 0 .03-.014.183-.028.234 0 .05-.029.132-.043.193-.014.061-.141.143-.127.153.014.01.014.02-.014.03-.028 0-.085.041-.142.01-.056-.03-.353-.06-.395-.101-.043-.04.014-.234.155-.295.141-.051.354-.377.41-.357Zm.37.255c.052.013.084.182.063.195-.032.013-.064.182-.032.234.032.052.032.091 0 .078-.032-.013-.116-.052-.138-.026-.01.026-.042.04-.074-.104-.032-.143.127-.39.18-.377Zm.834.062c0 .192-.18.245-.255.14-.009-.228.18-.246.255-.14Zm-3.663-.544a.36.36 0 0 1 .06.212c-.012.024-.215-.106-.179-.165.036-.06.083-.083.12-.047Zm3.203-.537c.044.014.118.172.178.187.059.014.014.216-.06.23-.089.014-.207.115-.222.086-.015-.029-.148-.158-.178-.158s-.03-.043 0-.086c.03-.044.163-.072.163-.13-.015-.057.074-.144.119-.13Zm-.457-.257c.084.023.131.08.107.125-.023.045-.107.158-.143.124-.035-.034-.047-.26.036-.249Zm-12.414.078c.035 0 .047.035.024.07-.024.036-.144.036-.144.013 0-.024.084-.083.12-.083Zm-.74.028c.024.024.036.047 0 .047s-.155.012-.155-.011c0-.024.12-.06.155-.036Zm-.526-.616c.082 0 .317.025.353.05a.94.94 0 0 0 .164.114c.023.012.094.113.188.1.094 0 .176.215.117.203-.058-.013-.129.063-.152.038-.024-.026-.165-.05-.177-.089-.011-.038 0-.151-.058-.139-.059.013-.141-.012-.176-.063-.047-.05-.235-.1-.27-.075-.036.025-.177 0-.165-.026.012-.025.094-.113.176-.113Zm13.754.218c-.036.035-.071.035-.083 0-.012-.047-.036-.154 0-.2.035-.048.107.153.083.2Zm-13.077-.185c.036.012.096.094.12.094.024-.012.024.047-.036.095-.048.011-.084-.06-.107-.06-.012 0-.036-.023-.036-.047 0-.023.024-.094.06-.082Zm-.247-.216.025.006a.034.034 0 0 1 .027-.003c.011.003.015.013.015.026a.059.059 0 0 1 .016.018c.005.01-.011.027-.032.04a.09.09 0 0 1-.023.022l-.01-.005c-.022.01-.042.01-.042-.01 0-.059.012-.094.024-.094Zm14.094-1.093c.025.104.049.196.073.288a.602.602 0 0 1-.167.06l-.014-.002c-.012-.012-.096.011-.145.035-.036.023-.12.15-.156.126-.037-.023-.037-.15 0-.15h.012c-.012-.023.012-.103.048-.126.06-.035.241-.15.29-.185.011-.011.035-.035.06-.046ZM68.016 6.889c.035 0 .13.045.178.034.048-.012.25.022.333.022.083 0 .143.112.071.123-.071.023-.119.169-.06.146a.499.499 0 0 1 .262.023.382.382 0 0 0 .202.045c.048-.012.024.1-.023.112a.504.504 0 0 0-.19.1c-.024.023-.131.057-.12.08.012.022-.011.145-.035.167-.024.023-.083.034-.012.045.06.012.071.157.024.157-.048 0-.143.135-.107.258.035.124-.167.258-.143.28.024.023 0 .135-.024.124-.023-.022-.047-.022 0 .011.048.034-.07.113-.13.09-.06-.022-.238-.056-.25-.045-.024.012-.048.056.012.09.06.034.13.022.083.056s-.143.202-.202.247c-.06.034-.273.123-.297.146a.76.76 0 0 1-.155.112c-.035.022-.19 0-.202.034-.012.022-.107.325-.142.392a1.176 1.176 0 0 1-.12.157c-.023.023-.094.079-.106.045-.024-.034-.155-.067-.19-.067-.036 0-.131-.124-.131-.27 0-.145-.178-.437-.143-.47.048-.034.024-.124.06-.146.035-.023.083-.113.012-.135-.072-.022-.107-.168-.048-.168.048 0 .06-.079.036-.056-.024.033-.155-.045-.155-.079 0-.045 0-.18-.024-.213-.023-.034-.083-.202-.154-.213-.071-.011-.238-.056-.25-.034-.012.023-.166.011-.226-.011s-.071-.157 0-.157c.072 0 .226-.034.19-.045-.035-.011-.178-.022-.213-.045-.036-.022-.084.023-.095 0-.024-.022-.096-.045-.06-.078.036-.034.19-.045.262-.068.059-.022.166-.112.13-.112-.035 0 .06-.157.179-.224.118-.067.594-.157.677-.157.083-.011.369 0 .357-.045-.012-.045.035-.157.095-.168.06-.012.333-.023.452-.023.118 0 .356-.067.392-.067ZM64.29 9.445c.016.012.143.094.151.118.008.023-.024.011-.072-.036-.047-.035-.103.165-.143.165-.032 0-.048-.141-.032-.165.016-.023.08-.094.096-.082Zm1.928-2.556c.024 0-.013.088-.074.114-.074.037-.247.139-.235.164.013.025-.061.139-.11.151-.05.013-.173.14-.235.177-.061.038-.308.114-.345.164-.037.05-.11.278-.148.278h-.05c.025.026.025.101.013.127-.012.025-.185.063-.296.075-.061 0-.21.026-.296.026.05-.05.111-.114.173-.165.185-.164.37-.315.567-.467.21-.152.42-.303.641-.442.21-.114.382-.202.395-.202Z" fill="#F8F8F8"/><path d="m91.686 22.975 2.777-6.324c.166-.377.461-.577.886-.577.627 0 .934.318.934.954 0 .13-.024.259-.083.4l-3.663 8.043c-.177.365-.449.554-.839.554-.39 0-.673-.189-.839-.554l-3.663-8.043a1.013 1.013 0 0 1-.083-.4c0-.636.307-.954.934-.954.425 0 .72.188.886.577l2.753 6.324ZM108 24.97c0 .707-.347 1.055-1.054 1.055-.706 0-1.054-.348-1.054-1.054v-4.492c0-1.833-.85-2.743-2.55-2.743-.815 0-1.473.263-1.952.802-.455.515-.695 1.162-.695 1.965v4.468c0 .706-.36 1.054-1.066 1.054-.706 0-1.054-.348-1.054-1.054v-7.978c0-.719.348-1.078 1.054-1.078.707 0 1.066.36 1.066 1.078v.719c.647-1.258 1.725-1.893 3.221-1.893 1.27 0 2.276.431 3.006 1.282.707.826 1.066 1.916 1.066 3.27v4.6H108Z" fill="#CB2026"/><ellipse fill="#CB2026" cx="83.929" cy="24.877" rx="1.146" ry="1.148"/></g></svg>