<svg xmlns="http://www.w3.org/2000/svg" viewBox="0 0 37.86 15.4"><g data-name="Layer 2"><path d="M16.55 9.33v2.34h2.38V9.33h1.19v5.94h-1.19V12.8h-2.38v2.47h-1.18V9.33ZM21.29 14.3a2.5 2.5 0 0 1 0-2.3 2.06 2.06 0 0 1 .81-.82 2.36 2.36 0 0 1 1.17-.29 2.42 2.42 0 0 1 1.17.29 2.1 2.1 0 0 1 .8.82 2.43 2.43 0 0 1 0 2.3 2.14 2.14 0 0 1-.8.81 2.42 2.42 0 0 1-1.17.29 2.36 2.36 0 0 1-1.17-.29 2.1 2.1 0 0 1-.81-.81Zm2.93-.52a1.29 1.29 0 0 0 .15-.64 1.26 1.26 0 0 0-.15-.62 1.05 1.05 0 0 0-.4-.41 1.15 1.15 0 0 0-1.1 0 1.15 1.15 0 0 0-.41.41 1.38 1.38 0 0 0 0 1.25 1.1 1.1 0 0 0 .41.42 1.15 1.15 0 0 0 1.1 0 1.05 1.05 0 0 0 .4-.41ZM27.36 11v.52a1.51 1.51 0 0 1 .53-.47 1.61 1.61 0 0 1 .76-.18 1.48 1.48 0 0 1 .79.21 1.23 1.23 0 0 1 .45.47 1.45 1.45 0 0 1 .53-.47 1.71 1.71 0 0 1 .86-.21 1.36 1.36 0 0 1 1.11.45 1.78 1.78 0 0 1 .39 1.21v2.72h-1.15v-2.51a.81.81 0 0 0-.17-.57A.57.57 0 0 0 31 12a.74.74 0 0 0-.64.32 1.35 1.35 0 0 0-.24.84v2.14H29v-2.56a.81.81 0 0 0-.18-.57.63.63 0 0 0-.51-.2.71.71 0 0 0-.61.32 1.42 1.42 0 0 0-.23.84v2.14h-1.2V11ZM33.86 14.31a2.37 2.37 0 0 1-.28-1.16 2.34 2.34 0 0 1 .28-1.15 2.24 2.24 0 0 1 .79-.83 2.1 2.1 0 0 1 1.11-.3 2.13 2.13 0 0 1 1.13.28 1.89 1.89 0 0 1 .73.78 2.45 2.45 0 0 1 .24 1.07 2.91 2.91 0 0 1 0 .4h-3.15a1.08 1.08 0 0 0 .38.68 1.1 1.1 0 0 0 .73.25 1.17 1.17 0 0 0 .61-.15 1.43 1.43 0 0 0 .43-.45l.94.46a2.17 2.17 0 0 1-2 1.17 2.2 2.2 0 0 1-1.14-.29 2.05 2.05 0 0 1-.8-.76Zm2.75-2a1 1 0 0 0-.33-.3 1 1 0 0 0-.51-.13 1 1 0 0 0-.63.22 1.12 1.12 0 0 0-.37.54h2a.81.81 0 0 0-.16-.37ZM16.55 2.58v2.51l2.15-2.51h1.39v.12L18 5.11l2.13 3.28v.13H18.9l-1.73-2.47-.62.72v1.75h-1.18V2.58ZM21.29 7.54A2.33 2.33 0 0 1 21 6.39a2.36 2.36 0 0 1 .28-1.15 2 2 0 0 1 .81-.81 2.43 2.43 0 0 1 2.34 0 2 2 0 0 1 .81.81 2.36 2.36 0 0 1 .28 1.15 2.33 2.33 0 0 1-.28 1.15 2 2 0 0 1-.81.81 2.43 2.43 0 0 1-2.34 0 2 2 0 0 1-.8-.81ZM24.23 7a1.25 1.25 0 0 0 .15-.63 1.28 1.28 0 0 0-.15-.63 1.21 1.21 0 0 0-.4-.41 1.17 1.17 0 0 0-1.11 0 1.21 1.21 0 0 0-.4.41 1.18 1.18 0 0 0-.16.63 1.18 1.18 0 0 0 .16.63 1.09 1.09 0 0 0 .95.56 1.07 1.07 0 0 0 .56-.15 1.05 1.05 0 0 0 .4-.41ZM28.41 5.25h-2.06v-1h3.51v.95l-2.13 2.33h2.19v1h-3.64v-.95ZM30.81 4.26h1.31l1.08 2.6 1-2.6h1.28l-2.62 6h-1.18l.91-2Z"/><path style="fill:#fdda29" d="M6.01 0v3.42L2.49 6.33l-.02 6.4h8.12V9.36L6.01 3.42V0l7.05 8.52v6.69L0 15.24V5.11"/></g></svg>