<svg width="40" height="40" xmlns="http://www.w3.org/2000/svg"><path d="M21.954 0v4.046c8.802 1.082 15.037 9.074 13.955 17.867-.923 7.29-6.657 13.08-13.955 13.94v4.007C32.982 38.758 41.001 28.983 39.9 17.967 38.996 8.453 31.438.941 21.954 0m-4.01.06c-3.91.38-7.639 1.883-10.686 4.407l2.867 2.964a16.038 16.038 0 0 1 7.82-3.365V.06M4.43 7.29C1.905 10.337.401 14.042 0 17.968h4.01a16.05 16.05 0 0 1 3.288-7.812L4.431 7.291m22.536 5.668-9.785 9.775-4.25-4.246-2.125 2.123 6.375 6.37 11.91-11.898-2.125-2.124M.02 21.973a20.099 20.099 0 0 0 4.431 10.676l2.847-2.864a16.02 16.02 0 0 1-3.268-7.812H.02m10.105 10.756-2.867 2.744A20.048 20.048 0 0 0 17.944 40v-4.006a16.053 16.053 0 0 1-7.819-3.265Z" fill="#0080FF"/></svg>