<svg xmlns="http://www.w3.org/2000/svg" xmlns:xlink="http://www.w3.org/1999/xlink" width="280" height="88" viewBox="0 0 280 88">
    <defs>
        <path id="a" d="M0 0h280v87H0z"/>
        <filter id="b" width="100.4%" height="102.3%" x="-.2%" y="-.6%" filterUnits="objectBoundingBox">
            <feOffset dy="1" in="SourceAlpha" result="shadowOffsetOuter1"/>
            <feColorMatrix in="shadowOffsetOuter1" values="0 0 0 0 0 0 0 0 0 0 0 0 0 0 0 0 0 0 0.1 0"/>
        </filter>
        <linearGradient id="d" x1="19.674%" x2="212.539%" y1="49.994%" y2="49.994%">
            <stop offset="0%" stop-color="#5BB1F7"/>
            <stop offset="100%" stop-color="#30CFC2"/>
        </linearGradient>
        <linearGradient id="e" x1="0%" x2="99.987%" y1="49.945%" y2="49.945%">
            <stop offset="0%" stop-color="#FF9340"/>
            <stop offset="100%" stop-color="#FFD255"/>
        </linearGradient>
        <linearGradient id="f" x1="0%" x2="99.987%" y1="50.11%" y2="50.11%">
            <stop offset="0%" stop-color="#F58631"/>
            <stop offset="100%" stop-color="#F2C23F"/>
        </linearGradient>
        <linearGradient id="g" x1=".781%" x2="99.24%" y1="48.082%" y2="51.919%">
            <stop offset="0%" stop-color="#FF9F55"/>
            <stop offset="100%" stop-color="#FFD255"/>
        </linearGradient>
        <linearGradient id="h" x1="6.885%" x2="93.064%" y1="47.049%" y2="52.991%">
            <stop offset="0%" stop-color="#FF9F55"/>
            <stop offset="100%" stop-color="#FFD255"/>
        </linearGradient>
    </defs>
    <g fill="none" fill-rule="evenodd">
        <mask id="c" fill="#fff">
            <use xlink:href="#a"/>
        </mask>
        <use fill="#000" filter="url(#b)" xlink:href="#a"/>
        <use fill="#FFE4B3" xlink:href="#a"/>
        <g fill="#FFF" fill-rule="nonzero" mask="url(#c)">
            <path d="M-14.818 61.936c3.002-26.388-4.888-30.872-7.98-45.425-2.816-13.24-2.499-33.578 17.91-42.711C26.817-40.404 52.935-10.18 52.935-10.18s42.802 42.614 51.247 46.46c8.444 3.847 26.096 24.414 57.86 13.92 31.764-10.492 54.452-2.83 58.256 12.443 3.804 15.272-23.19 49.215-29.23 56.042-6.04 6.828-6.745 33.033-3 44.595 3.746 11.561 15.7 47.493-27.257 34.927-42.957-12.566-173.015-45.831-173.015-45.831s-46.313-13.344-25.905-56.563c17.038-36.082 22.125-23.633 23.291-33.878z"/>
        </g>
        <g fill-rule="nonzero" mask="url(#c)">
            <g transform="translate(161 5.105)">
                <path fill="#6B7ADB" d="M117 40.895h20v31h-20z"/>
                <path fill="#252E3B" d="M107.5 40.895c-2.479 0-4.5-2.693-4.5-6 0-3.308 2.017-6 4.5-6s4.5 2.692 4.5 6c0 3.307-2.002 6-4.5 6zm0-11.523c-2.25 0-4.08 2.477-4.08 5.523 0 3.045 1.849 5.522 4.08 5.522s4.08-2.477 4.08-5.522c0-3.046-1.83-5.523-4.08-5.523zM81 48.895c-3.307 0-6-3.367-6-7.5 0-4.134 2.693-7.5 6-7.5s6 3.366 6 7.5c0 4.133-2.697 7.5-6 7.5zm0-14.526c-3.062 0-5.538 3.15-5.538 7.021 0 3.87 2.492 7.026 5.554 7.026 3.062 0 5.554-3.15 5.554-7.026 0-3.875-2.508-7.021-5.57-7.021z"/>
                <path fill="#FF5358" d="M68 41.895h27v31H68z"/>
                <path fill="url(#d)" d="M95 33.895h24v38H95z"/>
                <path fill="url(#e)" d="M15 77.895h30v4H15z"/>
                <path fill="url(#f)" d="M18 81.895h30v4H18z"/>
                <path fill="url(#g)" d="M.432 74.66l29.734-.61-.075 3.966-29.733.61z" transform="rotate(-11.36 15.262 76.338)"/>
                <path fill="#EEA987" d="M69 8.348s-.91.816-1.257.454A10.663 10.663 0 0 1 67 7.895l2 .453z"/>
                <path fill="#EEA987" d="M69.98 1.086l-.936 4.31c.279-.35.762-.907.916-.737.22.24-.537 1.412-.666 1.917-.12.551-.28 1.091-.479 1.617l-.341.702L67 8.24s.104-3.077.167-3.77C67.25 3.344 69.365.925 69.569.899c.362-.035.412.188.412.188z"/>
                <path fill="#4A529C" d="M40.364 75.895a7.773 7.773 0 0 1-.738 1.498c-.335.425-1.602 1.172-1.626 2.447-.023 1.377 2.118 1.024 2.952.988.835-.036.91-.774 1.268-1.552.359-.778.714-.64.78-1.27a9.16 9.16 0 0 0-.25-2.044l-2.386-.067zM59.804 82.2s1.109 1.619 2.262 1.971c1.154.352 1.934.791 1.934 1.71 0 .92-3.298 1.47-4.599.51-1.938-1.413-2.137-1.02-2.348-1.694-.212-.674.282-2.553.271-2.752-.011-.2 2.48.255 2.48.255z"/>
                <path fill="#EDDAD3" d="M56.975 42.881s1.136 10.023 1.588 13.412c.552 3.957.718 7.232.861 9.28.179 2.576.433 16.12.572 16.872.139.751-3.259.334-3.259.334s-2.274-17.584-2.865-20.336c-.552-2.563-2.025-13.104-2.56-12.414-.536.69-6.851 8.295-7.264 10.304-.413 2.009-.695 15.54-.695 15.54s-2.42 1.279-3.127.637c0 0-1.469-11.869-1.191-15.65.111-1.437 3.97-13.508 6.216-19.843 1.222-3.35 11.724 1.864 11.724 1.864z"/>
                <path fill="#3F4685" d="M53.957 19.064s3.433.79 3.835 1.177c.403.388 1.175 4.358 1.208 5.478a44.641 44.641 0 0 1-.942 7.408c-.465 1.709-.465 10.66-.282 12.072 0 0-6.92 1.329-13.722.313 0 0 1.266-7.757 1.021-10.11C44.76 32.386 44 25.44 44 25.44s.963-4.659 1.577-5.19c.614-.532 4.84-1.355 4.84-1.355l3.54.17z"/>
                <path fill="#EEA886" d="M53.303 8.081s3.983-1.522 3.68 4.126c-.302 5.648-1.246 6.207-3.85 5.384-2.606-.823-2.789-4.39-3.104-6.113-.314-1.722 1.972-3.167 3.274-3.397z"/>
                <path fill="#EEA886" d="M55 20.313s-2.285 1.889-4.43-1.14a16.75 16.75 0 0 0-.515-4.714c-.642-2.281 4.526 3.089 4.526 3.089s-.07.265-.04.584c.03.317.083.631.158.94.179.762.14.625.301 1.24z"/>
                <path fill="#163342" d="M49.98 13.895s0-1.592.543-1.731c.545-.14.793.773.793.773h.435s-.365-1.619.146-1.983c.512-.364 3.58 0 3.971-.53s-.135-3.772-.971-4.1c-.837-.329-3.113-1.003-4.582.566 0 0-1.3 0-1.315 1.91.004 1.241.552 4.195.98 5.095z"/>
                <path fill="#A77860" d="M55 18.895c-3.493-.71-3.995-2.965-4-3 1.359 1.998 3.837 1.947 3.837 1.947.031.355.086.707.163 1.053z"/>
                <path fill="#EEA886" d="M51.54 11.285c-.246-.602-1.668-.54-1.53.412.136.951 1.284 2.433 1.764 2.166.48-.268.097-1.744-.234-2.578zM50 19.352s1.768 4.873 4.438 4.525c2.67-.349 1.163-3.756.907-4.3.02 0-1.585-1.373-5.345-.225z"/>
                <path fill="#3F4685" d="M66.505 16.272C67.28 14.67 69 8.466 69 8.466l-2.324-.571s-1.282 3.114-1.898 5.275c-.212.768-.471 1.52-.775 2.25-.09.166-4.118 3.438-4.552 3.677-.434.239-2.115.852-2.924 1.739-.484.572-.65 1.386-.434 2.13 1.67 2.42 4.834-.656 4.834-.656s4.498-3.793 5.578-6.038z"/>
                <path fill="#3F4685" d="M63 20.895s-4.077 4.939-4.216 6.788C58.67 29.005 58 23.702 58 23.702l5-2.807z"/>
                <ellipse cx="49.632" cy="48.009" fill="#F8BB66" rx="16.909" ry="18.042" transform="rotate(-25.05 49.632 48.009)"/>
                <path fill="#F8BB66" d="M57.232 63.89L43 31.15c8.275-3.492 17.65.532 21.413 9.19 3.764 8.659.62 18.97-7.18 23.555v-.005zM35.583 55.499c-3.263-7.483-1.364-16.385 4.608-21.604L54 65.567c-7.566 1.564-15.155-2.585-18.417-10.068z"/>
                <ellipse cx="49.632" cy="48.009" fill="#F89829" rx="12.85" ry="13.711" transform="rotate(-25.05 49.632 48.009)"/>
                <path fill="#F8C681" d="M47.43 54.217c.197.085.402.143.611.17.283.045.568.064.854.06.331-.007.662-.043.988-.109.348-.068.69-.174 1.02-.318l-1.62-3.92-.349.095c-.614.145-1.236.25-1.861.314a4.555 4.555 0 0 1-1.537-.09 2.808 2.808 0 0 1-1.222-.659c-.397-.38-.71-.86-.917-1.4A4.597 4.597 0 0 1 43 46.478a4.06 4.06 0 0 1 .397-1.645 4.86 4.86 0 0 1 1.012-1.4 7.014 7.014 0 0 1 1.497-1.102l-.822-1.987.873-.448.838 2.026a8.448 8.448 0 0 1 2.52-.672 7.052 7.052 0 0 1 2.509.188l-.103 2.27a2.973 2.973 0 0 0-.739-.212 5.986 5.986 0 0 0-1.032-.076c-.405.003-.81.039-1.21.108-.433.073-.86.19-1.274.35l1.623 3.919.238-.045c.08 0 .159-.036.238-.045.59-.125 1.185-.212 1.783-.26.467-.043.938 0 1.393.13a2.63 2.63 0 0 1 1.068.628c.34.342.61.763.793 1.233.244.56.379 1.171.397 1.794.01.572-.09 1.14-.293 1.664a4.833 4.833 0 0 1-.878 1.457c-.41.464-.874.86-1.38 1.18l.793 1.914-.873.449-.794-1.915a6.435 6.435 0 0 1-2.215.57 7.134 7.134 0 0 1-2.04-.144l.11-2.189zm5.327-3.412c-.167-.482-.54-.833-.989-.933a4.683 4.683 0 0 0-1.79.09l1.544 3.73a2.839 2.839 0 0 0 1.286-1.345 2.004 2.004 0 0 0-.055-1.542h.004zm-7.447-3.731c.189.52.613.885 1.108.95a6.18 6.18 0 0 0 1.96-.098l-1.552-3.749a3.491 3.491 0 0 0-1.46 1.345c-.258.47-.28 1.06-.056 1.552z"/>
                <path fill="#EFAA88" d="M42.125 48.354a1.938 1.938 0 0 1-.125-.562s.05-.347.07-.602c.004-.065.004-.13 0-.196a3.548 3.548 0 0 1 .03-1.061c.1-.446.616-2.038.616-2.038l1.335.231 1.16-.151s.833 2.72.787 3.157c.002.042.002.084 0 .125a4.36 4.36 0 0 1-.333.794c-.02.067-.287.736-.482.798a.626.626 0 0 1-.637-.102 1.483 1.483 0 0 1-.87-.027.935.935 0 0 1-.831-.187s-.562.093-.72-.179z"/>
                <path fill="#3F4685" d="M47.363 20.093c.425.194.865 1.389.503 3.71a10.934 10.934 0 0 1-1.41 4.117c-.294.577-2.117 4.44-2.117 5.017 0 1.497-.07 5.451-.031 5.753.066.519.294 6.479.294 6.479l-2.75.726s-.487-6.704-.71-8.751a24.676 24.676 0 0 1 0-5.28c.259-2.146 1.665-6.875 1.85-7.25.184-.373 1.56-5.815 4.371-4.521z"/>
                <path fill="#FCCCA2" d="M86 11.631s4.265-2.894 9.009 2.79c2.518 3.033 8.382 2.483 8.926 1.63.313-.49-.505 2.135-2.514 3.795-1.767 1.464-4.195 3.085-9.135 1.187-4.939-1.898-6.266-.264-6.266-.264L86 11.63z"/>
                <path fill="#DB9B7B" d="M81.11 63.173c.417 1.021 6.278 10.24 6.636 11.283.358 1.044 2.778 5.439 2.778 5.439L92 78.692s-1.865-6.044-3.406-10.315c-.15-.416-.297-.814-.44-1.185-.55-1.45-1.025-2.542-1.306-2.86-1.106-1.248-2.724-2.968-1.834-4.374.89-1.406 4.582-9.063 4.72-9.855.139-.791 5.368-11.566-5.73-7.15 0 0-1.926 6.717-2.188 11.678-.262 4.96-1.118 7.525-.706 8.542z"/>
                <path fill="#DE9673" d="M90.421 79.835c.057.566.017 1.14-.118 1.687-.22.62-.663 3.364-1.318 3.714-.655.351-1.985.61-1.985.736 0 .572.382.898 1.757.922 1.376.024 2.702-2.061 3.63-3.532.927-1.47 2.131-2.167 1.374-3.162-.756-.994-1.847-2.09-1.977-2.292-.13-.202-1.363 1.927-1.363 1.927z"/>
                <path fill="#EEA886" d="M95.033 43.398s2.022 4.436.61 7.32c-1.414 2.882-6.615 9.192-7.13 10.206-.515 1.014-1.549 2.383-.717 2.674 1.116.393 2.492.688 4.564 2.113 1.367.941 3.628 1.373 5.115 2.083.589.282.762 1.737.103 2.083-.49.257-12.286-2.438-14.028-3.619-.758-.513-.762-1.71.173-5.005.412-1.484 2.277-6.33 2.846-8.127.568-1.797 1.61-4.394 1.61-4.394s-.918-10.694 6.854-5.334z"/>
                <path fill="#EEA886" d="M97.291 70.618a9.2 9.2 0 0 1 1.518.064c.486.1 2.4.205 2.93.38.532.174.881.998 1.177.803.296-.195-.243-1.192-.846-1.781a42.95 42.95 0 0 1-3.204-3.263c-.858-1.078-1.328-1.258-1.78-.315-.452.943-.862 2.43-1.066 2.83-.205.399 1.271 1.282 1.271 1.282z"/>
                <path fill="#DB9C7C" d="M76 4.377c-.171-.309-.94-.704-.995-.331-.055.372.365 1.526.319 1.816-.047.291.676-1.485.676-1.485z"/>
                <path fill="#EEA987" d="M75.445.952s1.596 3.358 1.554 4.366c-.042 1.008.024 3.49-.716 3.562-.74.072-1.204-.095-1.279-1.189-.075-1.094.839-2.96.745-3.616-.094-.655-1.157-3.629-.304-3.123z"/>
                <path fill="#EEA987" d="M76.456 6.895s.535 2.942 1.392 4.097c.857 1.155-2.19.872-2.19.872L75 7.823l1.456-.928z"/>
                <path fill="#6B7ADB" d="M86.873 27.858s.401-1.64-.224-2.867c-.626-1.229-1.965-2.21-2.374-2.603-.409-.393-3.942-4.976-4.01-5.188a43.321 43.321 0 0 0-1.712-5.108c-.802-1.82-1.656-4.197-1.656-4.197L75 9.057s1.464 7.383 2.53 9.027c1.135 1.78 6.845 9.973 6.845 9.973s1.131 2.01 2.498-.199z"/>
                <path fill="#363636" d="M82.038 59.576s-1.063 1.319 8.082 1.319c0 0 9.203-9.907 6.321-16.122-1.518-3.29-11.267-1.258-11.267-1.258s-1.344 2.014-3.136 16.061z"/>
                <path fill="#EDDAD3" d="M87.831 22.984c-.623.338-1.266.627-1.924.865-.5.113-2.436 2.942-2.775 3.971-.338 1.03 0 2.596.7 4.4.701 1.804.04 2.423.359 4.244.336 2.205.516 4.437.538 6.675-.061 1.008 8.082 1.203 9.933-.64 0 0-1.866-3.141-2.105-3.59-.239-.45-.039-2.895.18-3.522.22-.628 1.729-5.624 1.729-5.624s1.154-4.434.069-5.377c-.939-.818-3.494-1.112-3.956-1.298a6.994 6.994 0 0 0-2.748-.104z"/>
                <path fill="#EEA886" d="M89.82 12.163c-.845-.317-3.946-1.098-4.676 3.145s1.46 7.262 3.473 6.456c2.013-.805 3.257-3.734 3.375-5.972.118-2.237-1.088-3.226-2.172-3.629z"/>
                <path fill="#FCCCA2" d="M85.001 14.963s-.146-3.923 3.1-4.064c3.246-.14 4.121 3.08 3.854 5.42-.154 1.388-.727 2.66-1.61 3.576 0 0 .117-1.896-.513-2.385-.63-.488-3.155-1.473-4.256-3.756a3.723 3.723 0 0 0-.575 1.21z"/>
                <path fill="#EEA886" d="M87 21.267a42.61 42.61 0 0 1 .266 4.212s1.748 1.804 3.734-2.106a5.515 5.515 0 0 1-.207-3.808C91.423 17.37 87 21.267 87 21.267z"/>
                <path fill="#6B7ADB" d="M86.915 45.387c.657 3.667 9.085-.51 9.085-.51s-4.48-3.92-3.249-8.745c.139-.544.904-2.97 1.027-3.484.1-.397.194-.78.284-1.15.8-3.27 1.602-4.511 1.602-4.511s-.851-2.152-2.528-2.587c-1.307-.34-2.532-.505-2.532-.505s-4.514 7.029-4.592 8.553c-.079 1.524.246 9.29.903 12.94z"/>
                <path fill="#EEA886" d="M89.494 16.192c.095-.135.277-.236.499-.277.221-.042.46-.019.652.063.358.174.576.692 0 1.361-.575.67-2.556 1.155-1.151-1.147z"/>
                <path fill="#A77860" d="M87 22.262l.058.622s1.274.276 2.942-1.99c-.751.956-1.862 1.462-3 1.368z"/>
                <path fill="#EDDAD3" d="M90.628 22.895a5.768 5.768 0 0 1-3.48.303l-.148.934v3.763s3.13-2.652 3.125-2.778c.262-.487.554-.955.875-1.4l-.372-.822z"/>
                <path fill="#363636" d="M87.008 85.992s-.077-.672 1.801-.695c1.075 0 3.147-2.763 3.35-3.1.201-.335.734-2.26 1.07-2.302.335-.041 1.365 1.29.303 2.52-1.063 1.229-2.655 4.484-4.78 4.48-1.652-.028-1.793-.553-1.744-.903zM96 67.08s.427-2.024 1.778-.782a45.98 45.98 0 0 0 4.008 3.56c1.474 1.072 1.363 1.731.927 1.992-.436.26-1.397-.692-1.974-1.067-.577-.374-1.586-2.096-4.739-3.703z"/>
                <path fill="#6B7ADB" d="M86.788 23.895s-2.044 4.87-.96 8.084L87 44.94a.342.342 0 0 1 0 .052s-.274 1.173-2.16.843h-.071c-1.814-.348-2.155-1.355-2.155-1.355s.96-3.723.993-5.005c.034-1.281-.24-6.146-.24-6.146-1.766-3.215-1.314-4.666-1.314-4.666.629-1.68 1.738-3.178 3.215-4.344l1.52-.425z"/>
                <path fill="#4D589E" d="M92 28.895l1.662 3c.119-.386.231-.758.338-1.116 0 0-1.533-1.75-2-1.884z"/>
                <path fill="#A77860" d="M87.472 67.504s-3.59-1.168-4.472-1.61c.826.488 4.631 2.72 5 3-.154-.482-.336-.95-.528-1.39z"/>
                <path fill="#252E3B" d="M102.664 52.891c-1.379.079-2.569-1.199-2.659-2.85-.09-1.653.957-3.064 2.331-3.143 1.374-.079 2.569 1.199 2.659 2.85.09 1.653-.957 3.064-2.331 3.143zm-.319-5.803c-1.275.074-2.245 1.388-2.156 2.938.09 1.55 1.19 2.745 2.466 2.67 1.275-.073 2.245-1.388 2.156-2.938-.09-1.55-1.19-2.744-2.466-2.67z"/>
                <path fill="url(#h)" d="M98.48 50.522l10.368-.062-.062 11.465-10.367.062z" transform="rotate(-3.23 103.633 56.224)"/>
                <path fill="#EEA886" d="M103.983 49.128a1.38 1.38 0 0 0 0-.426s-.08-.243-.125-.426a1.336 1.336 0 0 1-.032-.136 2.513 2.513 0 0 0-.15-.746c-.311-.52-.65-1.02-1.017-1.5l-.743.324-.74.2s-.246 2.067-.157 2.37c0 .03 0 .06.029.085.096.183.21.356.339.515.024.047.299.482.448.499a.47.47 0 0 0 .444-.162c.217.016.434-.033.626-.14a.704.704 0 0 0 .59-.252s.396.004.488-.205z"/>
                <path fill="#6B7ADB" d="M91.39 23.266a3.156 3.156 0 0 0-.127 2.782c.69 1.396 2.164 2.503 2.61 2.967.447.463 4.336 5.667 4.384 5.906.048.238 1.43 4.262 2.104 6.441.674 2.179 1.44 5.533 1.44 5.533l2.199-.833s-1.762-10.354-3.045-12.154c-1.283-1.8-4.3-8.252-4.3-8.252s-2.308-3.97-5.265-2.39z"/>
            </g>
        </g>
    </g>
</svg>
