<svg xmlns="http://www.w3.org/2000/svg" width="80" height="80" viewBox="0 0 80 80">
    <g fill="none">
        <path fill="#39F" d="M34.938 52c-1.267-.005-2.478-.5-3.37-1.376L24.4 43.626c-1.867-1.822-1.867-4.78 0-6.602 1.866-1.822 4.896-1.822 6.762 0l4.038 3.942 13.358-11.173c2.191-1.437 5.161-.866 6.63 1.273 1.222 1.778 1.05 4.136-.417 5.725L38.044 50.787c-.853.756-1.955 1.187-3.106 1.213z"/>
        <path fill="#06C" d="M40 80C17.908 80 0 62.092 0 40S17.908 0 40 0s40 17.908 40 40-17.908 40-40 40zm0-70.588C23.106 9.412 9.412 23.106 9.412 40S23.106 70.588 40 70.588 70.588 56.894 70.588 40 56.894 9.412 40 9.412z"/>
    </g>
</svg>
