<svg xmlns="http://www.w3.org/2000/svg" xmlns:xlink="http://www.w3.org/1999/xlink" viewBox="0 0 242 484"><defs><style>.cls-1,.cls-33{fill:none;}.cls-2{isolation:isolate;}.cls-3,.cls-57,.cls-7,.cls-8{opacity:0.5;}.cls-3,.cls-46,.cls-48,.cls-52,.cls-54,.cls-57{mix-blend-mode:multiply;}.cls-3{fill:url(#linear-gradient);}.cls-4,.cls-7,.cls-73{fill:#fff;}.cls-5{fill:#5462a5;}.cls-6{fill:#3265a0;opacity:0.6;}.cls-53,.cls-6{mix-blend-mode:screen;}.cls-9{fill:url(#linear-gradient-2);}.cls-10{fill:url(#linear-gradient-3);}.cls-11{fill:url(#linear-gradient-4);}.cls-12{fill:#3b1c55;}.cls-13{fill:#9760a3;}.cls-14{fill:#f3d9e9;}.cls-15{fill:#64306c;}.cls-16{fill:#2f213d;}.cls-17{fill:#e88db4;}.cls-18{fill:#c2aecc;}.cls-19{fill:url(#linear-gradient-5);}.cls-20{fill:url(#linear-gradient-6);}.cls-21{fill:url(#linear-gradient-7);}.cls-22{fill:url(#linear-gradient-8);}.cls-23{fill:url(#linear-gradient-9);}.cls-24{fill:url(#linear-gradient-10);}.cls-25{fill:url(#linear-gradient-11);}.cls-26{fill:url(#linear-gradient-12);}.cls-27{fill:url(#linear-gradient-13);}.cls-28{fill:#fbffff;}.cls-29{fill:url(#New_Gradient_Swatch_copy_8);}.cls-30{fill:url(#New_Gradient_Swatch_copy_8-2);}.cls-31{fill:url(#linear-gradient-14);}.cls-32{fill:url(#linear-gradient-15);}.cls-33{stroke:#848484;}.cls-33,.cls-65{stroke-miterlimit:10;}.cls-34{fill:url(#linear-gradient-16);}.cls-35{fill:url(#linear-gradient-17);}.cls-36{fill:#0f34aa;}.cls-37{fill:url(#New_Gradient_Swatch_copy);}.cls-38{fill:url(#New_Gradient_Swatch_copy-2);}.cls-39{fill:url(#linear-gradient-18);}.cls-40{fill:url(#linear-gradient-19);}.cls-41{fill:url(#linear-gradient-20);}.cls-42{fill:url(#linear-gradient-21);}.cls-43,.cls-54{fill:#f9c1cf;}.cls-44,.cls-46{fill:#a53878;}.cls-45{fill:#ffa77b;}.cls-47{fill:url(#linear-gradient-22);}.cls-48{fill:url(#linear-gradient-23);}.cls-49{fill:#4d3587;}.cls-50{fill:#9084be;}.cls-51,.cls-52{fill:#f8d9e4;}.cls-53{opacity:0.3;fill:url(#linear-gradient-24);}.cls-55{fill:url(#linear-gradient-25);}.cls-56{fill:url(#linear-gradient-26);}.cls-57{fill:url(#linear-gradient-27);}.cls-58,.cls-62,.cls-66,.cls-74,.cls-75,.cls-81{fill-rule:evenodd;}.cls-58{fill:url(#linear-gradient-28);}.cls-59,.cls-74{fill:#b14347;}.cls-60{fill:#f0f0f2;}.cls-61{fill:#b24448;}.cls-62{fill:url(#linear-gradient-29);}.cls-63,.cls-66{fill:#f5f1eb;}.cls-64,.cls-78,.cls-81{fill:#231f20;}.cls-64,.cls-77{opacity:0.05;}.cls-65,.cls-77,.cls-80{fill:#c9464a;}.cls-65{stroke:#c9464a;stroke-width:1.29px;opacity:0.2;}.cls-67,.cls-75{fill:#246397;}.cls-68{fill:url(#linear-gradient-30);}.cls-69{fill:url(#linear-gradient-31);}.cls-70{fill:url(#linear-gradient-32);}.cls-71{fill:#c19168;}.cls-72{fill:#cea074;}.cls-73{opacity:0.7;}.cls-76{clip-path:url(#clip-path);}.cls-79{fill:#ece3dd;}</style><linearGradient id="linear-gradient" x1="121.33" y1="146.65" x2="121.33" y2="308.2" gradientTransform="matrix(0.99, 0.1, -0.1, 1.03, 23.52, 38.27)" gradientUnits="userSpaceOnUse"><stop offset="0" stop-color="#eda0c3"/><stop offset="1" stop-color="#fff"/></linearGradient><linearGradient id="linear-gradient-2" x1="89.89" y1="292.17" x2="100.48" y2="292.17" gradientUnits="userSpaceOnUse"><stop offset="0" stop-color="#1e2f97"/><stop offset="1" stop-color="#4adfde"/></linearGradient><linearGradient id="linear-gradient-3" x1="89.89" y1="319.78" x2="100.48" y2="319.78" xlink:href="#linear-gradient-2"/><linearGradient id="linear-gradient-4" x1="89.89" y1="264.62" x2="100.48" y2="264.62" xlink:href="#linear-gradient-2"/><linearGradient id="linear-gradient-5" x1="104.64" y1="431.36" x2="139.16" y2="431.36" gradientTransform="translate(243.8 862.72) rotate(180)" gradientUnits="userSpaceOnUse"><stop offset="0" stop-color="#ffc06c"/><stop offset="1" stop-color="#f2a040"/></linearGradient><linearGradient id="linear-gradient-6" x1="102.96" y1="426.37" x2="137.48" y2="426.37" gradientTransform="translate(240.44 852.74) rotate(-180)" xlink:href="#linear-gradient-5"/><linearGradient id="linear-gradient-7" x1="98.84" y1="421.31" x2="133.36" y2="421.31" gradientTransform="translate(232.2 842.62) rotate(-180)" xlink:href="#linear-gradient-5"/><linearGradient id="linear-gradient-8" x1="110.36" y1="416.25" x2="136.12" y2="416.25" gradientTransform="translate(246.39 832.5) rotate(-180)" xlink:href="#linear-gradient-5"/><linearGradient id="linear-gradient-9" x1="102.55" y1="410.86" x2="125.27" y2="411.37" gradientTransform="matrix(1, 0, 0, 1, 0, 0)" xlink:href="#linear-gradient-5"/><linearGradient id="linear-gradient-10" x1="94.54" y1="406.14" x2="129.05" y2="406.14" gradientTransform="translate(223.59 812.28) rotate(180)" xlink:href="#linear-gradient-5"/><linearGradient id="linear-gradient-11" x1="103.97" y1="401.08" x2="138.48" y2="401.08" gradientTransform="translate(242.45 802.16) rotate(-180)" xlink:href="#linear-gradient-5"/><linearGradient id="linear-gradient-12" x1="102.33" y1="381.37" x2="136.93" y2="381.37" gradientTransform="matrix(1, 0, 0, 1, 0, 0)" xlink:href="#linear-gradient-5"/><linearGradient id="linear-gradient-13" x1="106.53" y1="381.37" x2="132.73" y2="381.37" gradientTransform="translate(104.4 -18.03) rotate(15.23)" xlink:href="#linear-gradient-5"/><linearGradient id="New_Gradient_Swatch_copy_8" x1="-1771.89" y1="433.64" x2="-1761.29" y2="433.64" gradientTransform="matrix(-1, 0, 0, 1, -1574.18, 0)" gradientUnits="userSpaceOnUse"><stop offset="0" stop-color="#ffd571"/><stop offset="0.25" stop-color="#ffbd60"/><stop offset="0.78" stop-color="#ff8035"/><stop offset="1" stop-color="#ff6421"/></linearGradient><linearGradient id="New_Gradient_Swatch_copy_8-2" x1="-1793" y1="433.64" x2="-1782.4" y2="433.64" xlink:href="#New_Gradient_Swatch_copy_8"/><linearGradient id="linear-gradient-14" x1="-1780.62" y1="307.95" x2="-1776.3" y2="307.95" gradientTransform="matrix(-1, 0, 0, 1, -1574.18, 0)" gradientUnits="userSpaceOnUse"><stop offset="0" stop-color="#ffecdc"/><stop offset="0.24" stop-color="#f6dac4"/><stop offset="0.74" stop-color="#e0ad87"/><stop offset="1" stop-color="#d39364"/></linearGradient><linearGradient id="linear-gradient-15" x1="-1790.43" y1="304.28" x2="-1773.59" y2="304.28" gradientTransform="matrix(-1, 0, 0, 1, -1574.18, 0)" gradientUnits="userSpaceOnUse"><stop offset="0" stop-color="gray"/><stop offset="0.64" stop-color="#52524d"/><stop offset="1" stop-color="#3c3c35"/></linearGradient><linearGradient id="linear-gradient-16" x1="-1784.49" y1="313.6" x2="-1778.46" y2="313.6" xlink:href="#linear-gradient-14"/><linearGradient id="linear-gradient-17" x1="-1785.52" y1="316.74" x2="-1777.49" y2="316.74" gradientTransform="matrix(-1, 0, 0, 1, -1574.18, 0)" gradientUnits="userSpaceOnUse"><stop offset="0" stop-color="#fff"/><stop offset="0.37" stop-color="#f2f2ff"/><stop offset="1" stop-color="#d2d2ff"/></linearGradient><linearGradient id="New_Gradient_Swatch_copy" x1="-1792.85" y1="395.05" x2="-1766.12" y2="395.05" xlink:href="#linear-gradient-15"/><linearGradient id="New_Gradient_Swatch_copy-2" x1="-1793.03" y1="395.05" x2="-1780.34" y2="395.05" xlink:href="#linear-gradient-15"/><linearGradient id="linear-gradient-18" x1="-1765.03" y1="332.8" x2="-1768.83" y2="341.3" xlink:href="#linear-gradient-17"/><linearGradient id="linear-gradient-19" x1="-1754.92" y1="339.34" x2="-1757.2" y2="346.17" xlink:href="#linear-gradient-14"/><linearGradient id="linear-gradient-20" x1="-1780.34" y1="378.5" x2="-1780.33" y2="378.5" xlink:href="#linear-gradient-17"/><linearGradient id="linear-gradient-21" x1="-1745.2" y1="344.44" x2="-1740.4" y2="344.44" xlink:href="#linear-gradient-14"/><linearGradient id="linear-gradient-22" x1="4682.12" y1="320.82" x2="4682.12" y2="300.99" gradientTransform="translate(-4613.24)" gradientUnits="userSpaceOnUse"><stop offset="0" stop-color="#3b1c55"/><stop offset="1" stop-color="#872571"/></linearGradient><linearGradient id="linear-gradient-23" x1="4689.03" y1="346.73" x2="4689.03" y2="320.09" gradientTransform="translate(-4613.24)" gradientUnits="userSpaceOnUse"><stop offset="0" stop-color="#fff"/><stop offset="1" stop-color="#807b80"/></linearGradient><linearGradient id="linear-gradient-24" x1="4690.11" y1="322.28" x2="4683.56" y2="307.64" gradientTransform="translate(-4613.24)" gradientUnits="userSpaceOnUse"><stop offset="0" stop-color="#c265a1"/><stop offset="1" stop-color="#807b80"/></linearGradient><linearGradient id="linear-gradient-25" x1="4677.91" y1="320.82" x2="4677.91" y2="300.99" xlink:href="#linear-gradient-22"/><linearGradient id="linear-gradient-26" x1="4560.23" y1="87.66" x2="4560.23" y2="67.82" gradientTransform="matrix(0.99, 0.11, -0.11, 0.99, -4458.35, -264.98)" xlink:href="#linear-gradient-22"/><linearGradient id="linear-gradient-27" x1="75.98" y1="352.54" x2="75.98" y2="411.01" gradientTransform="matrix(1, 0, 0, 1, 0, 0)" xlink:href="#linear-gradient"/><linearGradient id="linear-gradient-28" x1="-226.25" y1="-74.24" x2="-226.17" y2="-64.41" gradientTransform="matrix(-0.88, 0.47, 0.47, 0.88, -20.04, 510.1)" gradientUnits="userSpaceOnUse"><stop offset="0" stop-color="#b14347"/><stop offset="0.98" stop-color="#924949"/></linearGradient><linearGradient id="linear-gradient-29" x1="-35.96" y1="328.27" x2="-23.82" y2="349.12" gradientTransform="matrix(-1, 0, 0, 1, 109.67, 0)" xlink:href="#linear-gradient-28"/><linearGradient id="linear-gradient-30" x1="324.81" y1="368.31" x2="351.93" y2="367.84" gradientTransform="matrix(1, 0.07, -0.05, 0.73, -149.14, 34.4)" gradientUnits="userSpaceOnUse"><stop offset="0.14" stop-color="#e1bc97"/><stop offset="0.66" stop-color="#dbb48f"/><stop offset="0.81" stop-color="#d8af8b"/><stop offset="0.98" stop-color="#cda27e"/><stop offset="1" stop-color="#cca07c"/></linearGradient><linearGradient id="linear-gradient-31" x1="329.62" y1="373.23" x2="328.73" y2="400.81" gradientTransform="matrix(1, 0.07, -0.05, 0.73, -149.14, 34.4)" gradientUnits="userSpaceOnUse"><stop offset="0.19" stop-color="#dbb48f"/><stop offset="0.42" stop-color="#d8af8b"/><stop offset="0.68" stop-color="#cea27e"/><stop offset="0.72" stop-color="#cca07c"/></linearGradient><linearGradient id="linear-gradient-32" x1="333.07" y1="369.21" x2="351.73" y2="395.53" gradientTransform="matrix(1, 0.07, -0.05, 0.73, -149.14, 34.4)" gradientUnits="userSpaceOnUse"><stop offset="0.15" stop-color="#cda27c"/><stop offset="0.46" stop-color="#c79c74"/><stop offset="0.92" stop-color="#b58a5f"/><stop offset="1" stop-color="#b1865b"/></linearGradient><clipPath id="clip-path"><ellipse class="cls-1" cx="154.99" cy="305.31" rx="19.03" ry="21.52" transform="translate(-158.93 442.01) rotate(-86.62)"/></clipPath></defs><title>banner-fado-affiliate</title><g class="cls-2"><g id="Layer_1" data-name="Layer 1"><path class="cls-3" d="M221.7,272.7c5.33-8,11.52-15.57,13.85-25.35,3.9-16.31.57-32.59-11.79-45.35a36.42,36.42,0,0,0-21.12-10.61c-8.13-1.13-18.2,0-26.12,9-15.9,18.12-24.74,29.06-50.44,19.21h0c-14.74-5.65-31.21,1.66-37.46,16.59-2.58,6.16-8.17,14.26-19.87,15.08-16.85,1.19-39-2.22-51.61,10.86-11,11.51-8.75,29.19-3.27,42.58,6.47,15.84,21.51,25.73,36.4,34,17.26,9.6,35.31,18.62,54.49,24.24A150.62,150.62,0,0,0,139,369c16.49.84,36.12-.25,51.83-5.23,0,0,28.32-9,24-42.3-1.41-10.83-3.72-23.74-.42-34.43A55.75,55.75,0,0,1,221.7,272.7Z"/><rect class="cls-4" x="71.95" y="230.08" width="95.22" height="168.37" rx="9.47"/><rect class="cls-5" x="74.84" y="232.97" width="89.45" height="162.6" rx="6.58"/><circle class="cls-6" cx="119.51" cy="378.39" r="7.03" transform="translate(-276.14 408.72) rotate(-76.86)"/><rect class="cls-7" x="115.7" y="377.48" width="7.63" height="1.82"/><circle class="cls-6" cx="93.75" cy="378.62" r="7.26"/><g class="cls-8"><rect class="cls-4" x="92.84" y="374.81" width="1.82" height="7.63"/><rect class="cls-4" x="89.93" y="377.72" width="7.63" height="1.82"/></g><circle class="cls-6" cx="145.28" cy="378.62" r="7.26"/><g class="cls-8"><rect class="cls-4" x="141.46" y="374.81" width="7.63" height="1.82"/><rect class="cls-4" x="141.46" y="380.62" width="7.63" height="1.82"/><rect class="cls-4" x="141.46" y="377.72" width="7.63" height="1.82"/></g><path class="cls-4" d="M139.54,240.11a8.15,8.15,0,0,1-8.14,8.14H107.73a8.15,8.15,0,0,1-8.14-8.14v-7.4h39.95Z"/><path class="cls-5" d="M134.11,237.78a1.11,1.11,0,0,1-1.11,1.1H106.13a1.11,1.11,0,1,1,0-2.21H133A1.11,1.11,0,0,1,134.11,237.78Z"/><circle class="cls-5" cx="119.57" cy="242.52" r="1.97"/><path class="cls-4" d="M167.51,256.2h-.36v15.48h.36a1,1,0,0,0,1-1V257.18A1,1,0,0,0,167.51,256.2Z"/><path class="cls-4" d="M167.51,242.37h-.36v9.16h.36a1,1,0,0,0,1-1v-7.21A1,1,0,0,0,167.51,242.37Z"/><rect class="cls-4" x="88.11" y="285.77" width="14.14" height="12.94" rx="1.24"/><rect class="cls-4" x="110.61" y="285.77" width="20.14" height="4.85" rx="0.47"/><rect class="cls-4" x="110.61" y="293.27" width="44.35" height="4.85" rx="0.47"/><rect class="cls-4" x="110.61" y="300.77" width="44.35" height="4.85" rx="0.47"/><path class="cls-9" d="M94.11,296.92a1.34,1.34,0,0,1-1-.41l-2.89-3a1.33,1.33,0,0,1,1.92-1.85L94,293.52l4.1-5.56a1.33,1.33,0,1,1,2.15,1.58l-5,6.84a1.35,1.35,0,0,1-1,.54Z"/><rect class="cls-4" x="88.11" y="313.39" width="14.14" height="12.94" rx="1.24"/><rect class="cls-4" x="110.61" y="313.39" width="20.14" height="4.85" rx="0.47"/><rect class="cls-4" x="110.61" y="320.89" width="44.35" height="4.85" rx="0.47"/><rect class="cls-4" x="110.61" y="328.39" width="44.35" height="4.85" rx="0.47"/><path class="cls-10" d="M94.11,324.53a1.3,1.3,0,0,1-1-.41l-2.89-3a1.33,1.33,0,1,1,1.92-1.85L94,321.14l4.1-5.57a1.33,1.33,0,0,1,2.15,1.58l-5,6.84a1.29,1.29,0,0,1-1,.54Z"/><rect class="cls-4" x="88.11" y="258.16" width="14.14" height="12.94" rx="1.24"/><rect class="cls-4" x="110.61" y="258.16" width="20.14" height="4.85" rx="0.47"/><rect class="cls-4" x="110.61" y="265.66" width="44.35" height="4.85" rx="0.47"/><rect class="cls-4" x="110.61" y="273.15" width="44.35" height="4.85" rx="0.47"/><path class="cls-11" d="M94.11,269.38a1.34,1.34,0,0,1-1-.41l-2.89-3a1.33,1.33,0,1,1,1.92-1.85L94,266l4.1-5.57a1.34,1.34,0,0,1,2.15,1.59l-5,6.83a1.29,1.29,0,0,1-1,.54Z"/><path class="cls-12" d="M50.33,362.67a.82.82,0,0,1-.46.1c-.24,0-.62-.06-.86-.1-6.63-.87-11.77-5.06-15-10.73a15.47,15.47,0,0,1-1.58-10.53c.54-3.46,2-6.85,1.53-10.4-.33-2.6-1.64-5-2.06-7.57l0-.11s14.24,3.41,21.24,16.07a22.25,22.25,0,0,1,2.6,13.66C55.21,356.73,53.85,360.81,50.33,362.67Z"/><path class="cls-12" d="M53.74,437.34H51.93a27.71,27.71,0,0,0-.35-5.6,7,7,0,0,0-3.8-5.24A53,53,0,0,0,42.24,424c-3.59-1.26-3.16-6.65-6.75-9.28s-3.87-4.49-3.41-5.56a1.64,1.64,0,0,1,2-.93,24.78,24.78,0,0,1,16.56,15.53C52.17,427.16,53.93,432.23,53.74,437.34Z"/><path class="cls-12" d="M71.77,388.59s12.45-10.12,24.68-7.17c4.7,1.13,10.35,5.36,10.39,10.6s-5,4.25-8.42,2.79c-4.28-1.84-7.75-5.09-12.29-6.33a24.28,24.28,0,0,0-6.68-.78C77.71,387.72,73.15,387.47,71.77,388.59Z"/><path class="cls-12" d="M108.05,363.07c0,12-9.45,13.87-15.87,14.26a16.61,16.61,0,0,0-8.77,3.15l-1.2.87c-2.73,2-5.51,3.95-8.22,6-.35.26-.66.53-1,.8s-.64.52-.92.83l-.85.91c-.28.3-.51.65-.78,1l-.38.5c-.12.16-.22.34-.34.51l-.68,1.05L68.46,394c-.2.36-.39.72-.56,1.1a46.45,46.45,0,0,0-3.21,9.21A94.91,94.91,0,0,0,62.49,419c-.07.89-.13,1.75-.18,2.6-.3,5.09-.28,9.36-.22,12.33,0,1.5.09,2.67.13,3.46H61c0-.8-.08-2-.1-3.44-.05-3-.05-7.29.29-12.42A105.86,105.86,0,0,1,63,406.8c.18-.91.39-1.81.62-2.73A46.63,46.63,0,0,1,67,394.68a8.76,8.76,0,0,1,.59-1.14l.63-1.13.71-1.08c.13-.18.24-.37.37-.54l.4-.52c.28-.33.53-.69.82-1l.91-1a11.8,11.8,0,0,1,1-.88c.33-.29.67-.57,1-.82,2.74-2.06,5.55-4,8.28-6s5.41-3.89,7.9-5.88a74,74,0,0,0,6.87-6.1,45.85,45.85,0,0,0,5.23-6.31c3.24-4.86,4.6-10.16,6.26-15.69Z"/><path class="cls-12" d="M67.5,414.86s-4.59-12.35,4.75-18.52a27.18,27.18,0,0,1,10.28-4.58S88.54,410.58,67.5,414.86Z"/><path class="cls-12" d="M68.67,411.92s-.12.42-.29,1.14c-.09.36-.21.8-.31,1.31s-.24,1.08-.38,1.7-.26,1.31-.41,2-.31,1.48-.43,2.27-.27,1.61-.41,2.43-.25,1.67-.37,2.52-.23,1.68-.35,2.51-.17,1.66-.26,2.45a2.28,2.28,0,0,0,0,.26c-.08.7-.14,1.38-.21,2,0,.29,0,.58-.08.86s-.05.81-.07,1.19c-.07,1.09-.12,2-.16,2.73H63.05l.32-2.89c.06-.64.13-1.34.25-2.07s.22-1.5.35-2.3.23-1.63.38-2.45.31-1.69.47-2.53.3-1.69.49-2.52.37-1.64.54-2.43.37-1.53.54-2.25.34-1.4.51-2,.33-1.19.46-1.69.28-.94.38-1.31c.22-.72.36-1.13.36-1.13Z"/><path class="cls-12" d="M64.25,433.83s1.81-8.34,8.57-10.26a.84.84,0,0,1,.84.21.85.85,0,0,1,.23.83C73.36,426.67,71.4,430.73,64.25,433.83Z"/><path class="cls-12" d="M96.67,340.29s-37.9,3.88-30.31,33.12a9,9,0,0,1-.18,5.15,77.5,77.5,0,0,0-3,13.43c.84-7.07-3.39-24.92-4.34-28.8a.78.78,0,0,0-.94-.56h0a.79.79,0,0,0-.56,1c1.65,5.36,5.28,26.34,3.09,39.08-1.45,8.44-1.47,22.91-1.28,32.56,0,.71,0,1.4,0,2h3.35v-.86c-.13-6.49-.12-12.31,0-17.53.11-4.48.3-8.52.55-12.15,1-15,3.06-23.12,4.52-27.21a3.16,3.16,0,0,1,3.07-2.1C78.35,377.71,97.85,374.86,96.67,340.29ZM63.13,392.18a.28.28,0,0,1,0-.09A.62.62,0,0,0,63.13,392.18Z"/><path class="cls-12" d="M53.84,373.4a25,25,0,0,1,7.51,18.91c0-1.57-1.81-4.17-2.66-5.35-5.78-7.89-13.66-6.31-22-4.48Z"/><path class="cls-12" d="M47.62,409.55a.75.75,0,0,1,.22-.63.74.74,0,0,1,.63-.22c2.66.31,10.13,2.16,12.55,13C61,421.71,49.66,424.75,47.62,409.55Z"/><path class="cls-12" d="M52.29,395.93s8.23,3.37,8.23,11.39C60.52,407.32,54.19,409.22,52.29,395.93Z"/><path class="cls-12" d="M24.31,386.9S45.93,382.35,49,401c0,0-7.72,3.68-15.19,0S24.31,386.9,24.31,386.9Z"/><path class="cls-12" d="M44.49,397.18l.2.11.57.31a22.55,22.55,0,0,1,1.87,1.27c.37.3.77.6,1.17,1s.83.73,1.25,1.14.82.86,1.25,1.3.81.94,1.21,1.42.76,1,1.12,1.5.69,1,1,1.5l.87,1.45c.27.47.49.92.72,1.34s.42.79.57,1.15.3.65.41.9l.36.78-1.59.62-.3-.77c-.09-.25-.21-.54-.34-.89s-.3-.72-.49-1.13-.38-.86-.61-1.32-.5-.94-.76-1.44l-.89-1.5c-.32-.5-.67-1-1-1.49s-.72-1-1.09-1.44-.74-.91-1.14-1.32-.76-.81-1.13-1.17-.75-.68-1.08-1a19.54,19.54,0,0,0-1.74-1.33l-.51-.32-.19-.11Z"/><path class="cls-12" d="M8.91,378.68s16.46-27,44.93-5.28C53.84,373.4,34,392.39,8.91,378.68Z"/><path class="cls-12" d="M59.89,437.34h-5c3.86-40.52-6.33-79-6.33-79l1.09-.76c5.8,23.23,7.44,51.69,7.89,68a38.39,38.39,0,0,0,.59,5.76,33.07,33.07,0,0,0,.93,4A13.55,13.55,0,0,0,59.89,437.34Z"/><path class="cls-13" d="M66.92,408.68c-2.64.49-5.22,1.18-7.86,1.53,2.39-1.3,4.94-2.6,7.47-3.77-.15-.77-.31-1.54-.49-2.33a81.77,81.77,0,0,1-11,3.74c3.38-2.46,6.64-5.05,10-7.48-.65-2.27-1.43-4.58-2.32-6.9a22.15,22.15,0,0,1-3.13.4c.9-.56,1.76-1.11,2.62-1.66-.25-.62-.51-1.25-.78-1.87a37.9,37.9,0,0,1-6.28,2.42,28.23,28.23,0,0,0,4.87-5.52,82.81,82.81,0,0,0-6.69-11.49v-.3l-.11.15-.1-.15v.3c-1.21,1.73-2.34,3.51-3.41,5.32.82,1.65,1.65,3.3,2.54,4.9-1.12-1.11-2.23-2.3-3.4-3.39q-1.68,3-3.09,6.11a35.71,35.71,0,0,0,3.3,5.18c-1.47-1-2.76-2.23-4.17-3.24-.26.63-.53,1.25-.78,1.88C46.37,395,49,397.18,51,399.82A86.17,86.17,0,0,0,43.21,395a76.3,76.3,0,0,0-3,10.28c2.21,2.27,4.64,4.31,6.79,6.64-2.5-1.07-4.91-2.35-7.39-3.4-.14.91-.26,1.79-.35,2.66A130.53,130.53,0,0,1,51,418.52L39,415a25.38,25.38,0,0,0,.94,7.77c3.23,1.59,6.22,3.7,9.54,5-2.82-.46-5.51-1.38-8.24-2.06a10.88,10.88,0,0,0,.68.95,14,14,0,0,0,10,5.54v5.11h2.87v-5.13a14.1,14.1,0,0,0,9.75-5.52,13.65,13.65,0,0,0,2.56-6.39,40.09,40.09,0,0,1-9.3,2.37c3.31-1.94,6.41-4.16,9.65-6.13A45,45,0,0,0,66.92,408.68Z"/><path class="cls-14" d="M49.36,403.81a42.27,42.27,0,0,1-.2,7.64c-.51,3-1.06,3.73-.66,7.7s2,13.18,2.11,13.53.81-14.94.81-14.94a7.66,7.66,0,0,1-.5-3C50.92,412.76,51.07,407,49.36,403.81Z"/><path class="cls-15" d="M49.31,437.34h-3.5a6.53,6.53,0,0,1-1.33-3.1,7.88,7.88,0,0,0-.61-2.32l-.8-2.27,0-.14a11.67,11.67,0,0,1-.85-4.53c0-4.29-1-5.71-1.1-5.87a11.21,11.21,0,0,1,2.6,5.72A17.45,17.45,0,0,0,44.78,428l.89,1.83Z"/><path class="cls-16" d="M46.93,437.34H44.74a4.28,4.28,0,0,1-.61-2.8c0-1.81-.61-1.66-1.06-2.21s-.65-.16-.85-1.51a5.41,5.41,0,0,0-1.91-2.67,5.45,5.45,0,0,1,2.76,1.5C45.38,431.85,46.54,435.75,46.93,437.34Z"/><path class="cls-14" d="M45.58,424.57s-.76-13.32-1-15.87a55.92,55.92,0,0,1,2.63,15.72Z"/><path class="cls-17" d="M46.94,428.18a29.6,29.6,0,0,1,0-8.75l-.35-3.2s0-3.62.25-7a30.29,30.29,0,0,0,0-5.68s1.46,2.26,1.66,7.09.05,5.23.61,7.44a40.09,40.09,0,0,1,1.45,9.41l.61,3.22s1.1,3.92.55,6.58Z"/><path class="cls-18" d="M52.23,437.34H48.1c-1-1.77-2.35-4.65-2.41-7.08,0-.14,0-.29,0-.43a11,11,0,0,0-1.13-4.61,6.64,6.64,0,0,1-.7-2.11,8.27,8.27,0,0,1-.06-2.25c.22-2,0-6.34-.61-7.62-.45-.95,1,1,2,4.43l0,.1a19.3,19.3,0,0,1,.63,4.22,3.71,3.71,0,0,0,.61,1.89c.06.09.14.22.22.37l.11.21c.54,1.05,1.36,2.94,1.86,4.14a15.76,15.76,0,0,0,1,1.93c.14.25.31.54.49.88s.32.59.49.93l.09.2a22,22,0,0,1,1,2.36c.1.3.19.59.28.89A8.29,8.29,0,0,1,52.23,437.34Z"/><path class="cls-16" d="M66.05,430.72s-3-.66-3.57.55-1,.3-1.61,3c-.44,2-.42,2.34-1,3.1H57.2L60,430.72a4.5,4.5,0,0,1,.84-.8,4.74,4.74,0,0,1,.54-.31,1.92,1.92,0,0,1,1.45-.05Z"/><path class="cls-15" d="M62.23,424.23c.05,1.36.05,3.47-.7,4.42a5.75,5.75,0,0,0-.67,1.27,20,20,0,0,0-.69,2.2,26.7,26.7,0,0,1-1.56,5.22H56.1l1.61-6.93a6.36,6.36,0,0,0,.9-.79,6.87,6.87,0,0,0,1.86-4.13c.5-4.66,2.75-6.44,2.82-6.49A11.16,11.16,0,0,0,62.23,424.23Z"/><path class="cls-17" d="M54.09,420.43c.31,3.88-.52,13.14-.89,16.91H50.06V426.92c0-1.23.09-2.43.21-3.59a58.33,58.33,0,0,1,1-6.06c.35-1.62.68-3,.87-3.93.51-2.51-.25-3,.05-6.89a14.49,14.49,0,0,1,1.56-5.93,8.87,8.87,0,0,0,0,4.77c.71,2.82.07,4.28.45,6.44.35,1.95-.39,3.56-.16,7.8C54,419.82,54.06,420.12,54.09,420.43Z"/><path class="cls-15" d="M56.8,423.93c-1,1.81-.75,2.56-.75,2.56,0,.38,0,.76.05,1.14s0,1,0,1.53a50.56,50.56,0,0,1-.68,8.18H51.33c0-.21.08-.43.11-.66.09-.54.15-1.13.21-1.78,0-.49.07-1,.1-1.56.09-1.56.14-3.4.22-5.59.2-5.51,1.17-4.91,2.05-8.22a1.55,1.55,0,0,0,.07-.23,29.79,29.79,0,0,0,.9-6.54,18.74,18.74,0,0,1,1.41-9.2,20.71,20.71,0,0,0,.15,6.28,33.75,33.75,0,0,1,.35,5.34l-.17,2.33a8.48,8.48,0,0,0,.21,2.46l0,.1C57.34,421.58,57.55,422.5,56.8,423.93Z"/><path class="cls-16" d="M59,415.63A13.07,13.07,0,0,0,56.6,422l-1.06,5.13.51,2.16,2.11-2.62S57.86,417.94,59,415.63Z"/><path class="cls-18" d="M60.7,419.38a16.5,16.5,0,0,1-.58,5.2c-.4,1.36-1.16,1.11-1.51,5h0c-.35,3.91-1,4.77-1,4.77l-1.26,2.95H54.47l.57-3.71c.36-2.26.51-3.81.82-5.15.07-.29.15-.57.24-.85a9.6,9.6,0,0,1,1.1-2.3,9.42,9.42,0,0,0,.92-1.61c.36-.9.19-1.54.64-4.52a26.59,26.59,0,0,1,3.32-7.62A44.77,44.77,0,0,0,60.7,419.38Z"/><path class="cls-12" d="M50.34,358.65s7.44-1.57,8.49,4.86a6.53,6.53,0,0,1-5.22,0C51.06,362.25,50.34,358.65,50.34,358.65Z"/><path class="cls-12" d="M58.35,354.54s4.79,5.15.2,9a6.05,6.05,0,0,1-2.5-4.14C55.84,356.83,58.35,354.54,58.35,354.54Z"/><rect class="cls-19" x="104.64" y="428.83" width="34.52" height="5.06" rx="2.39" transform="translate(243.8 862.72) rotate(-180)"/><rect class="cls-20" x="102.96" y="423.84" width="34.52" height="5.06" rx="2.39" transform="translate(240.44 852.74) rotate(180)"/><rect class="cls-21" x="98.84" y="418.78" width="34.52" height="5.06" rx="2.39" transform="translate(232.2 842.62) rotate(180)"/><rect class="cls-22" x="105.94" y="413.72" width="34.52" height="5.06" rx="2.39" transform="translate(246.39 832.5) rotate(180)"/><rect class="cls-23" x="100.38" y="408.67" width="34.52" height="5.06" rx="2.39"/><rect class="cls-24" x="94.54" y="403.61" width="34.52" height="5.06" rx="2.39" transform="translate(223.59 812.28) rotate(-180)"/><rect class="cls-25" x="103.97" y="398.55" width="34.52" height="5.06" rx="2.39" transform="translate(242.45 802.16) rotate(180)"/><circle class="cls-26" cx="119.63" cy="381.37" r="17.3"/><circle class="cls-27" cx="119.63" cy="381.37" r="13.1" transform="matrix(0.96, -0.26, 0.26, 0.96, -96, 44.83)"/><path class="cls-4" d="M119.63,396a14.6,14.6,0,1,1,14.6-14.6A14.62,14.62,0,0,1,119.63,396Zm0-27.7a13.1,13.1,0,1,0,13.1,13.1A13.12,13.12,0,0,0,119.63,368.27Z"/><path class="cls-28" d="M125,382.08a4.38,4.38,0,0,0-1.83-1.25,23.76,23.76,0,0,0-2.73-.8,12.7,12.7,0,0,1-2.4-.72,1.19,1.19,0,0,1-.78-1.12,1.38,1.38,0,0,1,.68-1.21,3.76,3.76,0,0,1,2.1-.46,8.17,8.17,0,0,1,4.06,1.15l1-2.57a8.27,8.27,0,0,0-2.34-1,12.25,12.25,0,0,0-1.91-.3V370.9h-2.42v3a7,7,0,0,0-1.81.5,4.59,4.59,0,0,0-2.08,1.64,4.07,4.07,0,0,0-.69,2.31,3.43,3.43,0,0,0,.76,2.34,4.48,4.48,0,0,0,1.83,1.28,24.23,24.23,0,0,0,2.74.79c.73.17,1.3.32,1.73.46a3.11,3.11,0,0,1,1,.56,1.09,1.09,0,0,1,.41.86,1.28,1.28,0,0,1-.69,1.14,4.09,4.09,0,0,1-2.13.43,8.42,8.42,0,0,1-2.6-.42,7.49,7.49,0,0,1-2.23-1.1l-1.15,2.55a7.77,7.77,0,0,0,2.6,1.22,10.94,10.94,0,0,0,2.27.42v2.67h2.42v-2.69a7.82,7.82,0,0,0,2.08-.53,4.8,4.8,0,0,0,2.1-1.65,4,4,0,0,0,.7-2.29A3.37,3.37,0,0,0,125,382.08Z"/><path class="cls-29" d="M187.11,434.46c0,1,.56,1.26,1.67,1.26s4.19.26,4.75,0,1.95-1.07,1.95-.5c0,.76,1.12.76,1.68.5s.55-4.31.55-4.31h-4.18s-1.4.25-1.68,1.27S187.11,433.44,187.11,434.46Z"/><path class="cls-30" d="M208.22,434.46c0,1,.56,1.26,1.67,1.26s4.19.26,4.75,0,2-1.07,2-.5c0,.76,1.12.76,1.68.5s.55-4.31.55-4.31h-4.18s-1.4.25-1.68,1.27S208.22,433.44,208.22,434.46Z"/><path class="cls-31" d="M203.33,314.36a1.14,1.14,0,0,0,.95-.49c.63-.82.71-2.43,1-3a3.47,3.47,0,0,0,.22-1.42,1.5,1.5,0,0,1,.17-.52c.38-.78,1.55-3.88,0-3.88s-.39,4.26-1.17,3.88-.38-5-.77-6.59-1.55-.78-1.55,1.55c0,0,0,.42,0,1.1C202.09,307.69,202.09,314.36,203.33,314.36Z"/><path class="cls-32" d="M200.15,301.54c1.06,1.57,1.27,2,.49,2.74s1.19,1.07,1.49,1.22c0-.68,0-1.6,0-1.6,0-2.33,1.16-3.1,1.55-1.55s0,6.2.77,6.59-.38-3.88,1.17-3.88.38,3.1,0,3.88a1.5,1.5,0,0,0-.17.52s.94,3,1.33,4.9h3.49s7-9.69,5.81-13.56-4-6.58-9.69-6.59c-8,0-7,4.17-7,5.19A4.29,4.29,0,0,0,200.15,301.54Z"/><path class="cls-33" d="M209.6,316.09a.17.17,0,0,1,0,.07"/><path class="cls-34" d="M204.36,317.74a11.45,11.45,0,0,1,5.93-.76c-.36-2.24,0-2.62,0-2.62h-3.49c-.39-1.93-1.33-4.9-1.33-4.9a3.47,3.47,0,0,1-.22,1.42c-.28.56-.36,2.17-1,3A9.75,9.75,0,0,1,204.36,317.74Z"/><path class="cls-35" d="M203.31,317.47a32.33,32.33,0,0,1,8-.59,13.22,13.22,0,0,0-1.39-.72l-.36-.07a8.21,8.21,0,0,0-4.27.55,9.21,9.21,0,0,0-.91.43S204,317.22,203.31,317.47Z"/><path class="cls-36" d="M195.45,339.16c2.5-2.7,4.9-5.4,5-5.52-.07.3-2.68,11-5,25.05h23.21c-.35-11-1.28-35.07-2.87-37.64a13,13,0,0,0-4.45-4.17h0a32.33,32.33,0,0,0-8,.59h0a11.16,11.16,0,0,0-3.83,2.17c-.67.81-4.94,7.31-8,12.06C191.49,331.87,193.21,336.81,195.45,339.16Z"/><path class="cls-37" d="M191.94,395.79l1.49,35.62h4.28s1.11-32.6,3-39.35a73.52,73.52,0,0,1,5.48-13.53,142.24,142.24,0,0,1,12.5-19.84H195.46C193.57,370.15,191.88,383.82,191.94,395.79Z"/><path class="cls-38" d="M206.17,378.53l4.47,22.88,3.92,30h4.26c.25-5.11-1.11-30-1.11-30,1.11-13,1.11-37.34,1.11-37.34s0-2.1-.15-5.38A142.24,142.24,0,0,0,206.17,378.53Z"/><path class="cls-39" d="M190,333.87h0a13.23,13.23,0,0,0,3.69,7.15c.56-.59,1.15-1.23,1.73-1.86-2.24-2.35-4-7.29-4-7.45Z"/><path class="cls-40" d="M170.74,346.28a.49.49,0,0,0,.28.08c1.22,0,19.78-2.37,19.78-2.37.71-.66,1.76-1.74,2.92-3a13.23,13.23,0,0,1-3.69-7.15l-1.89,2.89L171,343.43S170,345.82,170.74,346.28Z"/><line class="cls-41" x1="206.15" y1="378.48" x2="206.17" y2="378.53"/><path class="cls-33" d="M191.43,331.71h0"/><path class="cls-33" d="M203.31,317.47h0"/><path class="cls-33" d="M211.35,316.88h0"/><path class="cls-42" d="M166.26,345.29l.05.09a2.55,2.55,0,0,0,.41.42,2.62,2.62,0,0,0,1.16.48,8.23,8.23,0,0,0,1.61.09c.68,0,1.25-.09,1.25-.09-.71-.46.28-2.85.28-2.85s-1.15-1.05-1.68-.91a.39.39,0,0,0-.2.15,1.56,1.56,0,0,1,.36.69c.33,1.47-.61.44-1.07.55a1.58,1.58,0,0,1-.83.84C166.76,345,166.05,344.79,166.26,345.29Z"/><path class="cls-43" d="M96.09,357.76a1.39,1.39,0,0,0-.26-.7l-2.78-3.7h0l-6.35-14.52-3.46-1.25-.58,3.84,8.9,12.39h0s0,4.52.93,6a.28.28,0,0,0,.33.13.29.29,0,0,0,.21-.28,7.44,7.44,0,0,1,0-2.31.16.16,0,0,1,.11-.13.16.16,0,0,1,.16,0l1.6,1.28a.35.35,0,0,1,.14.24l.22,2.05a2.7,2.7,0,0,0-1.41.17.13.13,0,0,0,0,.13.12.12,0,0,0,.11.1l1.35.24s-1.14,1.09-1,1.44a.08.08,0,0,0,.1,0,5.22,5.22,0,0,0,1.5-1.26l.27.05a.25.25,0,0,0,.21-.06.27.27,0,0,0,.09-.2Z"/><path class="cls-44" d="M62.32,316.28s-5.41,2.27-8.22,5.6c-1,1.12-3.51,2.36-4.7,3.23l-4.27,3.17-.68-.94A6.15,6.15,0,0,1,41,329.79l1.1,2.36a3.8,3.8,0,0,0,5,1.87L50,332.75l6.2-2.77,1.63-2,9.89-11.8A7.32,7.32,0,0,0,62.32,316.28Z"/><path class="cls-43" d="M63.37,404.62v26a3.52,3.52,0,0,1-.57,1,12.86,12.86,0,0,1-3.63,2.64l-.7,1.72h1.91l6.11-3.88s3.3-22.69,3.87-26.33Z"/><path class="cls-45" d="M66.49,432.13A9.74,9.74,0,0,1,68,437.34H53.62a.69.69,0,0,1-.67-.52.71.71,0,0,1,.34-.78,3.17,3.17,0,0,1,2.21-.22,1.52,1.52,0,0,0,.94-.13l2.73-1.4.54.87Z"/><path class="cls-43" d="M71,403.44l14.25,23.94a3.28,3.28,0,0,1,0,1.17,12.93,12.93,0,0,1-1.76,4.12l.29,1.83,1.63-1,3.26-6.46S77.6,400.34,76.22,396.92Z"/><path class="cls-4" d="M75.12,379.52c-1.45,6.94,1.28,15.08,1.74,16.46,0,.11,1,3.48,1,3.48,1.59,4.83-1.26,9.23-5.42,11.56-3.41,1.92-7.71,2.44-11.18.66-1-.49-.73-6.49-.8-7.54-.23-3.43-.46-6.85-.63-10.28a158.52,158.52,0,0,1,.1-20.33c.22-2.78,3.85-31.07,2.86-31.29L74,346l5.09-.79,3.44,6.44C84.9,357.27,81.25,365,81.25,365Z"/><path class="cls-46" d="M58,320.45,57.8,328l-1.63,2L50,332.75a29.4,29.4,0,0,0,3.41-2.92C54,323,58,320.45,58,320.45Z"/><path class="cls-47" d="M80.54,321.57a14.21,14.21,0,0,1-2.11,2.57c-5.13,4.87-11,1.41-14.57-1.77a21.13,21.13,0,0,1-4.58-5.8,16.54,16.54,0,0,1-2.47-9.06,38.42,38.42,0,0,1,.41-5.14,7.49,7.49,0,0,1,2.64-4.59l.31-.24a6.22,6.22,0,0,1,3.19-1.31c2.9-.42,5.73.29,7.44,2.76,1.9,2.73.88,5.52,1.71,8.53.61,2.25,2.59,4.1,4.27,5.57C82.8,318.35,80.54,321.57,80.54,321.57Z"/><path class="cls-44" d="M61.92,316.68s-3.29.37-4,3.05l-1.76,5.33s-2.59,4.66-.35,8.52l1.71,2.29a32.8,32.8,0,0,1,.09,4.32,29.89,29.89,0,0,1-.38,4c-.34,2.06-1.67,5,1.6,5a2.47,2.47,0,0,0,1.53-.48,8.41,8.41,0,0,0,3.18-4.57Z"/><path class="cls-4" d="M61.92,316.68a38.11,38.11,0,0,0-3.38,13.37,21.61,21.61,0,0,0,1.39,8.86l1.43,3.78a7,7,0,0,1,.45,2.48V347s.33,3.84,15.07,0l-4-23-3-8.92Z"/><path class="cls-44" d="M79.82,346.69a4,4,0,0,1-.88.7,3.82,3.82,0,0,1-1.73.57c-6.48.5-6.44-1.84-9.52-7.8-3.18-6.15,2.18-25.08,2.18-25.08a24.38,24.38,0,0,1,5,1.6l1.83,9.82.17.92c-.37,2.87-3,9.6,1.72,14.18C81.15,344.07,80.74,345.71,79.82,346.69Z"/><path class="cls-48" d="M79.83,346.62c.21-1.45,1-2-2.7-5s-3.31-8.7-3.31-8.7l-1.45-3c-3-5.91.1-9.54.1-9.54l4.24,6.11.17.92c-.37,2.87-3,9.6,1.72,14.18,2.55,2.47,2.14,4.11,1.22,5.09Z"/><path class="cls-4" d="M47.31,310.74a2.74,2.74,0,0,0,2.69.33A6.66,6.66,0,0,0,54.2,306a2.78,2.78,0,0,0-.86-2.58l-1.06-.87-6,7.37Z"/><path class="cls-49" d="M41.55,309.86a4.53,4.53,0,0,0,4.37.54,10.81,10.81,0,0,0,6.81-8.32,4.51,4.51,0,0,0-1.38-4.18l-1.74-1.42-9.8,12Z"/><path class="cls-50" d="M39.81,308.44a4.5,4.5,0,0,1-1.38-4.18A10.82,10.82,0,0,1,45.24,296,4.12,4.12,0,0,1,51,300.66,10.8,10.8,0,0,1,44.18,309,4.54,4.54,0,0,1,39.81,308.44Z"/><path class="cls-4" d="M50.22,300.55a4.16,4.16,0,0,0-1.28-3.86L46.39,294a32.62,32.62,0,0,1-4.69-6.28l-4.38-7.62-1.94,2.37-.55-.58L22.23,297.2l.74.44-2,2.45,8.86,2.73a32.4,32.4,0,0,1,7,3.1l3.07,1.82a4.12,4.12,0,0,0,4,.49,9.94,9.94,0,0,0,6.3-7.68Z"/><path class="cls-4" d="M19.41,299.17c-1.87-1.54-2.71-4.07-2.36-7.13A17.25,17.25,0,0,1,21,283.4a17.27,17.27,0,0,1,7.71-5.55c2.93-1,5.58-.63,7.45.91s2.72,4.07,2.36,7.13a17.22,17.22,0,0,1-3.91,8.65,17.17,17.17,0,0,1-7.71,5.54C23.94,301,21.29,300.71,19.41,299.17Z"/><ellipse class="cls-51" cx="27.77" cy="288.97" rx="12.26" ry="7.86" transform="translate(-213.38 127.35) rotate(-50.68)"/><path class="cls-52" d="M33.85,293.94a18.34,18.34,0,0,1-2.68,2.68c-3,2.42-6.34,3.5-9,2.89-1.46-3.23-.31-8.27,3.16-12.51s8.19-6.37,11.65-5.57c1.11,2.45.71,6-1.07,9.36A18,18,0,0,1,33.85,293.94Z"/><path class="cls-49" d="M33.85,293.94a18.34,18.34,0,0,1-2.68,2.68l-3.58-3.68L31.64,288,36,290.79A18,18,0,0,1,33.85,293.94Z"/><path class="cls-49" d="M31.2,291.77c-1.12,1.36-2.74,1.89-3.61,1.17s-.68-2.4.44-3.76,2.73-1.89,3.61-1.18S32.31,290.4,31.2,291.77Z"/><path class="cls-50" d="M27.83,292.65c-.7-.57-.48-2.06.49-3.24s2.38-1.69,3.08-1.12.48,2.06-.49,3.24S28.53,293.23,27.83,292.65Z"/><path class="cls-43" d="M36.9,316.76c0-.37,0-.73,0-.78.08-.43.39-1.26.48-1.76a3.43,3.43,0,0,1,.37-.9,1.39,1.39,0,0,0-.1-.75,10.34,10.34,0,0,0-1.47-1.07c-.32-.23-.53,0-.77.37A10.81,10.81,0,0,1,34.2,313s.44.49.88.25a1.38,1.38,0,0,0,.56-.5l.35.19a7.24,7.24,0,0,0-.72.5,1.69,1.69,0,0,0-.55.85,5,5,0,0,0-2.17-.09,14,14,0,0,0,1.13,1.63c.31.35,1.12,1.05,1.61,1.48L41,329.79a6.15,6.15,0,0,0,3.42-2.45Z"/><path class="cls-49" d="M41.28,307.3a.44.44,0,0,1-.05.48L31.4,319.36a.81.81,0,0,1-1.23,0h0a.69.69,0,0,1-.07-.82l8-12.88a.43.43,0,0,1,.35-.2A3.38,3.38,0,0,1,41.28,307.3Z"/><path class="cls-43" d="M32.3,313.67c0,.27.35.72.6,1.09s1-.06.92-.38a2.61,2.61,0,0,0-.66-1.11A.58.58,0,0,0,32.3,313.67Z"/><path class="cls-43" d="M33.24,312.31a.6.6,0,0,0-.24.91c.2.33.54.93.92,1s.64-.06.61-.53S33.89,312.17,33.24,312.31Z"/><path class="cls-43" d="M33.52,311.51c-.16.2,0,.58.19,1.09s.59,1.06.94,1.07.72-.33.31-1a6.82,6.82,0,0,1-.64-1.42A.8.8,0,0,0,33.52,311.51Z"/><path class="cls-43" d="M34.27,310.78c-.21.21-.07.64.15,1.15S35,313,35.36,313s.8-.07.6-.82a3.54,3.54,0,0,0-.77-1.41A.59.59,0,0,0,34.27,310.78Z"/><path class="cls-43" d="M37.35,314.22l1.39-3.06s-.33-.49-1,.15a.58.58,0,0,0-.1.12l-1.08,1.62s-1.81.42-1.51,2l.33.94Z"/><path class="cls-53" d="M80.54,321.57a14.21,14.21,0,0,1-2.11,2.57,21.39,21.39,0,0,1-5.59-3.47,6.36,6.36,0,0,0,.49-9.37c-1.14-1.16-3.22-3.94-3.45-9-.27-6-7.63-5.14-9.71-4.78a6.22,6.22,0,0,1,3.19-1.31c2.9-.42,5.73.29,7.44,2.76,1.9,2.73.88,5.52,1.71,8.53.61,2.25,2.59,4.1,4.27,5.57C82.8,318.35,80.54,321.57,80.54,321.57Z"/><path class="cls-43" d="M61.81,312.93s2.8,2.25.11,3.75a4.83,4.83,0,0,0,.49,2.32,2.32,2.32,0,0,0,3,1,8.26,8.26,0,0,0,4.42-4.9s-2-1.61-2.26-3.54V307l-5.82,5.84Z"/><path class="cls-44" d="M74.88,316.68a6.84,6.84,0,0,0-.59.52c-2.93,2.83-3,7.12-1,10.69,3,5.46,9.09,12.75,9.32,13.55a3.68,3.68,0,0,1,4-2.59s-2.2-5.56-4.2-10.43S78.61,317.91,74.88,316.68Z"/><path class="cls-54" d="M67,308.52l-.7-.19-4.51,4.53,0,.07s2.8,2.25.11,3.75a4.83,4.83,0,0,0,.49,2.32,2.31,2.31,0,0,0,2,1.2,2.09,2.09,0,0,1-1-1.4,4,4,0,0,1,.15-1.12,14.87,14.87,0,0,1,2.3-5.25A7.83,7.83,0,0,0,67,308.52Z"/><path class="cls-43" d="M67.37,308.8a11.85,11.85,0,0,1-4.44,4.72c-5.12,2.49-6.09-8-4.83-11.49,0,0,.64-3,5.26-.64,0,0,3.33,1.72,3.76,4.08Z"/><path class="cls-4" d="M59.94,307.29c0,1.2-.61,2.18-1.37,2.18s-1.36-1-1.36-2.18.61-2.17,1.36-2.17S59.94,306.09,59.94,307.29Z"/><path class="cls-4" d="M63.37,307.29c0,1.2-.61,2.18-1.36,2.18s-1.37-1-1.37-2.18.61-2.17,1.37-2.17S63.37,306.09,63.37,307.29Z"/><path class="cls-43" d="M66.8,305.9s1.78-1.4,2.07-.22c0,0,.84,2.15-1.79,3.22Z"/><path class="cls-55" d="M62.65,301a3.88,3.88,0,0,1,1.56,2.33c.46,1.71,2.48.93,2.48.93l-.39-2.64-3-1.09Z"/><rect class="cls-4" x="58.42" y="307.14" width="3.79" height="0.31"/><path class="cls-4" d="M63,307.34a.18.18,0,0,1-.15-.1A.16.16,0,0,1,63,307l3.75-1.45a.16.16,0,0,1,.11.29l-3.75,1.45Z"/><path class="cls-56" d="M66.31,300.92s-1.1,5.21.93,7.26v-4.7Z"/><path class="cls-57" d="M81.25,365s3.65-7.74,1.29-13.32l-2.69-5,0,0a4,4,0,0,1-.88.7,3.82,3.82,0,0,1-1.73.57,18.65,18.65,0,0,1-2.06.05c1.69,3.33,4.31,10.42.95,17.92C71.67,375.83,64,391,72.43,411c4.16-2.33,7-6.73,5.42-11.56,0,0-.95-3.37-1-3.48-.46-1.38-3.19-9.52-1.74-16.46Z"/><path class="cls-45" d="M88,425.43a9.62,9.62,0,0,1,4.55,3l-10.9,9.39a.7.7,0,0,1-1.1-.78,3.17,3.17,0,0,1,1.53-1.61,1.43,1.43,0,0,0,.62-.71l1.17-2.84,1,.31Z"/><path class="cls-58" d="M151.19,318.78s5.91,12.49,2.86,19.1-11.75,7.29-11.75,7.29a16.84,16.84,0,0,1-5.64,4.59,1.48,1.48,0,0,1-1.22,0,9,9,0,0,1-3-2.9.93.93,0,0,1,0-1.11c.56-.68,1.22-2.15-.58-4.31-2.58-3.09-3.17-6.93,3.73-19.56C146.35,316.62,151.19,318.78,151.19,318.78Z"/><path class="cls-59" d="M132.43,345.74a2.58,2.58,0,0,0,.59-1.84,11.61,11.61,0,0,0,7.52,3.17,14.32,14.32,0,0,1-3.88,2.69,1.48,1.48,0,0,1-1.22,0,9,9,0,0,1-3-2.9A.93.93,0,0,1,132.43,345.74Z"/><path class="cls-60" d="M135.27,326.17c.09-.13.95-1.45-1.1-2.41s-2.2-4.19-2.4-4.92-4.94.87-.41,4.76c-2.31-.17-2,1.7-1,2.27a4.24,4.24,0,0,0,2.29.42s-1.71,1.15-.58,2S134.43,327.44,135.27,326.17Z"/><path class="cls-61" d="M131.94,328.43a1,1,0,0,1-.46-.83,1.74,1.74,0,0,1,.63-1.12,3.88,3.88,0,0,1-1.86-.46,1.6,1.6,0,0,1-.77-1.73c.1-.32.41-.82,1.42-.87-1.77-1.65-1.82-2.84-1.53-3.56a2.36,2.36,0,0,1,2.09-1.37c.35,0,.45.2.48.3a4.92,4.92,0,0,1,.11.59c.2,1.21.57,3.46,2.19,4.22a2.33,2.33,0,0,1,1.4,1.38,1.63,1.63,0,0,1-.22,1.29h0c-.74,1.1-1.62,2.25-2.53,2.41l-.21,0A1.19,1.19,0,0,1,131.94,328.43Zm3.19-2.36a1.25,1.25,0,0,0,.18-1,2,2,0,0,0-1.22-1.15c-1.78-.84-2.19-3.3-2.38-4.49a4.35,4.35,0,0,0-.11-.55s-.12-.07-.36,0a2,2,0,0,0-1.6,1.27c-.27.93.36,2.08,1.83,3.35l.4.34-.52,0c-.85-.07-1.4.15-1.54.61a1.26,1.26,0,0,0,.61,1.33,4.14,4.14,0,0,0,2.18.4l.7-.08-.59.4c-.24.16-.87.69-.88,1.17a.64.64,0,0,0,.32.54.83.83,0,0,0,.68.19c.79-.14,1.6-1.22,2.3-2.27Z"/><path class="cls-62" d="M156.71,325.32s-.67,13.81-6.47,18.2-13.8.89-13.8.89a16.67,16.67,0,0,1-7.14,1.39,1.51,1.51,0,0,1-1.07-.59,9,9,0,0,1-1.31-4,.93.93,0,0,1,.54-1c.82-.34,2.1-1.32,1.53-4.07-.82-3.94.46-7.61,12.51-15.49C153.47,321.14,156.71,325.32,156.71,325.32Z"/><path class="cls-63" d="M141.81,336.24c3.93-2.63,5.72-10.92,5.72-10.92l7.95-1.06a6.36,6.36,0,0,1,1.23,1.06s-.59,12.19-5.48,17.31C144,349.12,137.89,338.88,141.81,336.24Z"/><path class="cls-64" d="M141.81,336.24c3.93-2.63,5.72-10.92,5.72-10.92l7.95-1.06.13.09-7.27,1s-1.78,8.29-5.71,10.92c-2.92,2-.29,8.13,4.23,8.49C141.85,345.11,138.72,338.32,141.81,336.24Z"/><path class="cls-65" d="M152.92,339.47a13.19,13.19,0,0,1-7.78-3.23c-2.16,3.34-1.18,6.88,1.31,7.41S151.06,343.23,152.92,339.47Z"/><polygon class="cls-66" points="144.26 338.35 144.42 338.4 144.35 338.68 144.18 338.64 144.26 338.35"/><rect class="cls-63" x="144.31" y="337.93" width="0.29" height="0.17" transform="translate(-222.65 356.78) rotate(-69.79)"/><path class="cls-66" d="M144.62,337.35l.16.07c0,.09-.09.18-.12.27l-.16-.07C144.53,337.53,144.58,337.44,144.62,337.35Z"/><polygon class="cls-66" points="144.02 339.93 144.19 339.94 144.2 340.22 144.03 340.23 144.02 339.93"/><polygon class="cls-66" points="144.05 339.4 144.22 339.42 144.2 339.71 144.03 339.7 144.05 339.4"/><polygon class="cls-66" points="144.13 338.87 144.3 338.91 144.25 339.19 144.08 339.17 144.13 338.87"/><polygon class="cls-66" points="144.27 341.52 144.43 341.46 144.54 341.72 144.38 341.79 144.27 341.52"/><polygon class="cls-66" points="144.12 341 144.29 340.96 144.37 341.24 144.2 341.29 144.12 341"/><polygon class="cls-66" points="144.04 340.47 144.21 340.45 144.26 340.74 144.09 340.77 144.04 340.47"/><path class="cls-66" d="M145.13,342.87l.12-.13a1,1,0,0,0,.21.19l-.11.14A2.09,2.09,0,0,1,145.13,342.87Z"/><polygon class="cls-66" points="144.77 342.47 144.91 342.36 145.08 342.59 144.95 342.7 144.77 342.47"/><polygon class="cls-66" points="144.49 342.01 144.64 341.93 144.78 342.18 144.63 342.27 144.49 342.01"/><polygon class="cls-66" points="146.54 343.61 146.58 343.44 146.87 343.49 146.84 343.66 146.54 343.61"/><path class="cls-66" d="M146,343.46l.06-.16.27.08-.05.17Z"/><path class="cls-66" d="M145.55,343.21l.09-.15a1.57,1.57,0,0,0,.25.14l-.08.15A1.3,1.3,0,0,1,145.55,343.21Z"/><path class="cls-66" d="M148.14,343.7v-.17a1.35,1.35,0,0,0,.28,0l0,.17A1.54,1.54,0,0,1,148.14,343.7Z"/><path class="cls-66" d="M147.61,343.73v-.18h.29v.17C147.81,343.74,147.71,343.72,147.61,343.73Z"/><polygon class="cls-66" points="147.08 343.69 147.1 343.52 147.38 343.55 147.37 343.72 147.08 343.69"/><path class="cls-66" d="M149.68,343.25l-.08-.16.25-.13.09.14C149.86,343.16,149.76,343.2,149.68,343.25Z"/><polygon class="cls-66" points="149.19 343.47 149.13 343.3 149.39 343.2 149.47 343.35 149.19 343.47"/><polygon class="cls-66" points="148.68 343.62 148.64 343.45 148.91 343.37 148.96 343.54 148.68 343.62"/><path class="cls-66" d="M151,342.29l-.12-.12.2-.21.12.11A2.09,2.09,0,0,1,151,342.29Z"/><path class="cls-66" d="M150.57,342.65l-.12-.13.22-.19.12.12Z"/><path class="cls-66" d="M150.14,343l-.1-.14.24-.17.1.14A2.07,2.07,0,0,1,150.14,343Z"/><polygon class="cls-66" points="151.96 341.05 151.82 340.95 151.98 340.71 152.13 340.8 151.96 341.05"/><path class="cls-66" d="M151.65,341.48l-.13-.11c0-.07.12-.15.17-.23l.14.1C151.78,341.32,151.71,341.4,151.65,341.48Z"/><path class="cls-66" d="M151.32,341.89l-.13-.11a2,2,0,0,0,.19-.22l.13.1A1.45,1.45,0,0,1,151.32,341.89Z"/><path class="cls-66" d="M150.39,339l0,.17-.27-.08,0-.16Z"/><path class="cls-66" d="M150.87,339.15l0,.16a2.3,2.3,0,0,1-.28-.06l.05-.17Z"/><path class="cls-66" d="M151.35,339.24l0,.17-.27-.05,0-.17Z"/><polygon class="cls-66" points="148.99 338.58 148.92 338.74 148.67 338.64 148.73 338.48 148.99 338.58"/><polygon class="cls-66" points="149.45 338.75 149.39 338.91 149.13 338.82 149.19 338.66 149.45 338.75"/><rect class="cls-63" x="149.67" y="338.8" width="0.17" height="0.28" transform="translate(-217.84 385.59) rotate(-73.39)"/><polygon class="cls-66" points="147.64 337.98 147.56 338.13 147.31 338 147.4 337.85 147.64 337.98"/><rect class="cls-63" x="147.83" y="338.08" width="0.17" height="0.28" transform="translate(-221.08 327.72) rotate(-64.75)"/><path class="cls-66" d="M148.53,338.4l-.07.16-.26-.12.07-.15Z"/><polygon class="cls-66" points="146.38 337.21 146.28 337.35 146.05 337.18 146.16 337.04 146.38 337.21"/><polygon class="cls-66" points="146.79 337.48 146.69 337.63 146.46 337.48 146.56 337.33 146.79 337.48"/><path class="cls-66" d="M147.2,337.74l-.08.15a1.94,1.94,0,0,1-.24-.15l.09-.14Z"/><polygon class="cls-66" points="152.29 340.54 152.14 340.45 152.37 340.07 152.52 340.16 152.29 340.54"/><polygon class="cls-66" points="152.9 339.44 152.69 339.84 152.53 339.76 152.62 339.6 152.6 339.59 152.58 339.59 152.53 339.58 152.44 339.58 152.46 339.4 152.9 339.44"/><polygon class="cls-66" points="152.1 339.36 152.08 339.54 151.64 339.47 151.66 339.3 152.1 339.36"/><polygon class="cls-66" points="145.96 336.88 145.85 337.02 145.78 336.97 145.72 336.91 145.59 336.8 145.7 336.66 145.83 336.78 145.89 336.83 145.96 336.88"/><polygon class="cls-66" points="145.23 336.25 145.29 336.31 145.36 336.37 145.49 336.48 145.37 336.61 145.27 336.52 145.2 336.64 145.05 336.55 145.14 336.4 145.18 336.32 145.21 336.29 145.22 336.27 145.22 336.26 145.22 336.26 145.23 336.25"/><polygon class="cls-66" points="144.91 336.79 145.06 336.87 144.97 337.02 144.9 337.18 144.74 337.1 144.82 336.94 144.91 336.79"/><ellipse class="cls-63" cx="151.5" cy="340.22" rx="0.71" ry="0.48" transform="translate(-218.89 301.31) rotate(-60)"/><ellipse class="cls-63" cx="145.41" cy="337.82" rx="0.71" ry="0.48" transform="translate(-219.85 294.84) rotate(-60)"/><path class="cls-59" d="M155,329.29a1.6,1.6,0,0,1,.85-1.73c3.21-1.6,12.65-6,16.15-4.08,4.25,2.34,3.64,6.22.32,6.27-2.63,0-11.72.91-15.39,1.27a1.71,1.71,0,0,1-1.86-1.39Z"/><path class="cls-64" d="M172,323.48c-3.52-1.93-13,2.53-16.2,4.11a1.5,1.5,0,0,0-.81,1.64l0,.15c4.26-1.89,15.78-6.76,18.25-2.1a2.62,2.62,0,0,1,.26,2.24C175.66,328.65,175.61,325.5,172,323.48Z"/><path class="cls-67" d="M174.72,328.13c-.34.25-.65.5-1,.7a.82.82,0,0,1-.43.17s0,0,0,0,0,0,0,0v0l0,0-.06-.09a.73.73,0,0,0-.14-.16,2.22,2.22,0,0,0-1.27-.36h-.62a1.41,1.41,0,0,1-.58-.07c0,.1.16.14.25.19l.3.1.6.14a2.72,2.72,0,0,1,1,.36s.06,0,.07.07l0,0v0l0,.05a.53.53,0,0,0,.43.27.78.78,0,0,0,.22,0l.17-.08a1.35,1.35,0,0,0,.27-.2A3.19,3.19,0,0,0,174.72,328.13Z"/><path class="cls-67" d="M155.72,327s-1.32,2.47-7.42,1.66-12.73-4.15-13.19-6.42S155.72,327,155.72,327Z"/><path class="cls-67" d="M151,330.46a2.68,2.68,0,1,0,2.68-2.62A2.65,2.65,0,0,0,151,330.46Z"/><path class="cls-63" d="M151,329.94a.29.29,0,0,0,0-.09h0l.09.06,0,0h0s0,0,0,.05,0,0,0,0h0l-.06,0Z"/><path class="cls-63" d="M155.53,330.4h-.05s0,0,0,0Z"/><path class="cls-63" d="M153.41,331.8s-.1-.11-.12-.13,0-.08,0-.09a.09.09,0,0,0,0,0s0-.15-.07-.18a.56.56,0,0,1-.07-.23.74.74,0,0,0,0-.18.28.28,0,0,0-.06-.08l-.11-.15a.34.34,0,0,1,0-.15s0,0,.06,0l.08,0s.05-.08.07-.1a.69.69,0,0,0,0-.13l.06-.07a.19.19,0,0,0,0-.07s0,0,0,0a.66.66,0,0,1-.08.13s-.06.11-.07.14-.12,0-.15,0l-.08-.05-.07-.05a.26.26,0,0,1,0-.08s0-.07,0-.09.07,0,.08,0,0,0,0-.06,0,0,.06-.05l0,0-.11.07,0,.09h-.07s0,0,0,0h-.08a.13.13,0,0,0,0,.07,0,0,0,0,1,0,0s0,.05,0,.06,0,.07,0,.1a.36.36,0,0,1-.05.09s0,.05,0,.07a0,0,0,0,1,0,0,.59.59,0,0,1-.05-.13s0-.06,0-.06v0h0a.26.26,0,0,0,0-.08l-.08-.05a.15.15,0,0,0-.07.05s0,.06,0,.07,0,0,0,0,0,0,0,0l0,.05v.06a.09.09,0,0,1,0,.07l-.1.1s0,0,0-.06l.07-.08s0-.07,0-.08,0,0-.05,0,0,0,0,0-.09,0-.1-.1a.49.49,0,0,0,0-.13s0,0,0,0,0,0,0,0-.09-.07-.1-.1l0,0s0-.07,0-.1a.19.19,0,0,1,0-.08.17.17,0,0,1,0-.06v-.05l0,0,0-.05,0,0,0,.08s-.08-.07-.07-.12a.17.17,0,0,0,0-.12s0,0,0-.06a2.69,2.69,0,0,1,.68-1h0a.08.08,0,0,0,0-.05l.09-.08h0l.08,0s0,0,0,0,.06,0,.06,0,0,0,0,0l.08,0,.08,0,0,0,0,0s0,0,0,0h0s0,0,0,0,0,0,0,0,0,0,0,0,0,0,.05,0l.08.07a.2.2,0,0,0,.13,0s0,0,0,.05h.07l.13,0s0,0,0,0,0,0,0,0,0,.06,0,.07,0,0,.07-.06l.11,0s.05,0,.06-.05l.08,0,.08,0h0s.06.06.08.08a.67.67,0,0,1,.07.11l0,0s0,0,0,0a.32.32,0,0,1,.07.06.45.45,0,0,1,0,.12s0,.07,0,.07,0,0,0,.05,0,0,0,0l.06,0a.09.09,0,0,1,0,.05l.06,0a0,0,0,0,0,0,0s0,0,0-.05,0-.08,0-.09,0-.05,0-.05,0,0,0,0h.05s0,.09,0,.11,0,0,0,0,0,0,0,0,0,.06,0,.07,0,0,0,0H154a.08.08,0,0,0,0,0l.06,0,0,0s0,0,0,0,0,0-.05.06,0,0,0,0h.1s.06.06.07.08,0,.08,0,.1l-.07,0H154s0-.06,0-.08-.07-.08-.08-.1-.07,0-.09,0,0,0,0,.07-.07,0-.06,0,0,0,0,0-.05,0-.06.05,0,.05,0,.05,0,0,0,0,0,0-.05-.05,0,0,0,0l0,0,.05-.08,0,0,0,0,0,0h0s0,.06,0,.07a0,0,0,0,1,0,0h0s0,0,0,0,0,0,0,0,0-.06,0-.08,0,0,0,0,0,.05,0,.06v0l0,0,0,0c-.05,0-.12,0-.11,0s0,0,0,0,0,0,0,0l0,.07s.12,0,.17,0,.12,0,.12,0,.08,0,.12,0,.06-.06.07-.07v0s.09,0,.11,0l.17,0s.07,0,.08,0,.05,0,.06,0a.19.19,0,0,1,.05.12l0,0v0a.76.76,0,0,1,.1.14,1.15,1.15,0,0,1,0,.21.78.78,0,0,1-.05.18,1.09,1.09,0,0,1-.11.1H154a.08.08,0,0,1-.07-.05h-.05s-.06,0-.07,0h-.06a.2.2,0,0,0,0,.12.45.45,0,0,1,0,.16s0,.11,0,.13a.88.88,0,0,0,0,.16s0,.13-.05.16a.41.41,0,0,0,0,.12s0,.12-.06.16S153.44,331.82,153.41,331.8Z"/><path class="cls-63" d="M155.35,330.27l0,0s0,0,0,0v0s0,0,0,0S155.34,330.27,155.35,330.27Z"/><path class="cls-63" d="M155.44,330.37l-.06,0,0,0s0-.06,0-.05a.1.1,0,0,0,.06,0l.06,0,.11,0,.06,0s-.05,0-.06,0l-.08,0s0,0-.06,0S155.44,330.36,155.44,330.37Z"/><path class="cls-63" d="M155.42,330.21l0,0s0,0,0,0S155.42,330.21,155.42,330.21Z"/><path class="cls-63" d="M155.28,330.4h-.05s0,0,0,0Z"/><path class="cls-63" d="M155.42,331.31a.67.67,0,0,0-.06.12.11.11,0,0,0,0,.08v0s0,.08,0,.11,0,.13,0,.18,0,.11,0,.11,0,0,0,.05,0,0,0,0,0,0,0,.06,0,.11,0,.14l-.05.1a.25.25,0,0,0,0,.07h0l0,0h-.09s0,0,0,0,0-.06,0-.06,0-.06,0-.07l-.05,0s0-.06,0-.06,0-.07,0-.1,0-.06-.06-.08-.06-.05-.08-.06,0-.08,0-.09,0,0,0,0h0s0,0,0,0,0-.08,0-.09a.14.14,0,0,1,0-.06s0-.05,0-.07l-.08,0s0-.1,0-.13a.41.41,0,0,0,0-.09l0,0a.17.17,0,0,0,0-.05l-.05-.06a.15.15,0,0,0,0-.06V331s0-.06.05,0l.07,0h.08l.07,0,.07,0s0-.07.06-.09a.69.69,0,0,0,.12-.1s.08-.06.1-.07h.06l0,0h.06s0,0,0,0h0s0,.06.06.07,0,0,0,0,.05,0,.06,0,0-.06,0-.09,0-.09.05-.09,0-.06,0-.09.05,0,.06,0,.05,0,.05,0,.13,0,.11-.09a.33.33,0,0,0-.08-.15.21.21,0,0,0-.11,0s0,0,0,0h-.08s0,.08-.06.09,0-.05,0-.06,0-.05,0-.06,0-.09-.06-.11a.13.13,0,0,1-.06-.07s0,0,0,0a.25.25,0,0,0,0-.08.24.24,0,0,0-.08-.06s0-.05,0-.06,0-.05-.07-.06l0,0-.06,0s0,0,0-.05,0-.05,0-.05a.11.11,0,0,1,0-.05s-.06,0-.08,0,0,0,0,.07,0,0,0,0,0,0,0,0h0s0,0,0,0l0,0a.49.49,0,0,1,0-.12s0-.05,0-.05,0,0,0-.05a.11.11,0,0,0,0-.05l.06-.07s0,0,0,0h0s0-.05,0-.07.06,0,.07,0h.05l.05,0s0,.14,0,.17a.08.08,0,0,0,0,.07s0,0,0,0a.16.16,0,0,1,0,.06s0,0,0,0,0-.06,0-.05h0l.08,0s0-.08,0-.08,0,0,0,0,0,0,0-.06l-.08-.08s0,0,0,0-.08,0-.1,0,0-.06,0-.08a0,0,0,0,1,0-.05h-.11a.13.13,0,0,0-.07,0v.11c.06,0,.08.07.06.07l-.15.06s0,0,0,0,0-.06,0-.07,0,0,0,0,0,0,0,0,0,0,0,0,0,0,0,0l.06,0s0,0,0,0v-.05s.06,0,.07,0,0,0,0,0h.09s0-.05.06,0,0,0,.07,0,.07.05.06.09,0,.09,0,.09,0,0,0,.05,0,0,0,0,0-.06,0-.07a.1.1,0,0,1,.05,0l0,.05s0,0,0,0,0,0,0,0h0l.16.2,0,0,.09.14,0,.07.09.18,0,.12,0,.08c0,.05,0,.09,0,.14v0a2.29,2.29,0,0,1,.07.36l0,0a.11.11,0,0,1-.06,0s0,0,0-.05,0,0,0,0l-.05.07s0,.12,0,.14a.38.38,0,0,1-.17.07s-.09.05-.09.07l-.07,0-.05,0,0,0-.08,0s-.05,0-.05,0,0,0,0,0,0,.05,0,.05,0,.08,0,.09a.5.5,0,0,1,0,.13l0,.06s0,0,0,0,0,.09,0,.1-.05.06,0,.06Z"/><path class="cls-63" d="M155.35,328.52l-.09,0s0,0,0,0h0s0-.07,0-.09l-.11,0s0,0-.07,0l0-.05-.07-.05s0,0,0,0l.12.06.19.13.17.14.06.05Z"/><path class="cls-63" d="M155.5,329a0,0,0,0,1,0,.06s-.05-.07-.07-.06l0,0s.06,0,.07,0S155.5,329,155.5,329Z"/><path class="cls-63" d="M154.12,328.38v-.06s0,0,0,0l-.07,0s0,0,0,0l.06,0h.08s0,0,0,0,0,0,0,0h.1s.05,0,.06,0a.33.33,0,0,0,.12,0h.14s0,0,0,.06h.12a.91.91,0,0,1,.21.05s.07.07.06.08,0,0,0,0,.07,0,.08,0,0,0,0,0h0l-.07,0h.06s0,.05,0,.05-.07,0-.08,0h-.08s0,.06,0,.07,0,.06,0,.07,0,0-.05,0,0,0,0,0,0,0,0,.05,0,0,0,0,0,0,0,0,0,.11,0,.16,0,.09,0,.09l-.06,0,0,0,0,0a.93.93,0,0,1,0-.13s0,0-.06,0l0,0-.1-.05a.24.24,0,0,1-.06-.08s0,0,0,0,0,0,0,0l-.08,0s-.06,0,0,0,0,0,0,0,0,0,0,0,0-.06,0-.1,0-.08,0-.08,0-.05,0-.06S154.13,328.39,154.12,328.38Z"/><path class="cls-63" d="M155.5,330.2a0,0,0,0,1,0,0h0S155.49,330.2,155.5,330.2Z"/><path class="cls-63" d="M151.11,330.86s-.11,0-.11,0S151.11,330.82,151.11,330.86Z"/><path class="cls-63" d="M152.2,330.63s-.06.06-.06.05,0-.05,0-.07S152.19,330.61,152.2,330.63Z"/><path class="cls-63" d="M151.19,330.6s0,0-.06,0,0-.05,0-.06,0,0,0,0,0,0,0,0,0,0,0,0,0,0,0,0Z"/><path class="cls-63" d="M151.64,330.91a.35.35,0,0,1,.08-.1l0,0v0l.05,0s0,0,0,0l0,0s-.1.2-.12.21S151.63,330.93,151.64,330.91Z"/><path class="cls-63" d="M151,331.17s.08,0,.08,0l.07,0a.13.13,0,0,1,.05.07h.06s0,0,0,.05h0l0,0,0,0a.29.29,0,0,0,.07.1s0,.07,0,.1a.11.11,0,0,1,0,.08v.07a.11.11,0,0,1,0,.07l-.1,0h0a2.38,2.38,0,0,1-.28-.63Z"/><path class="cls-63" d="M151,330.89h0s0,0,0,0,0,0,0,0l-.06,0a.17.17,0,0,1,0-.07Z"/><path class="cls-63" d="M153,331.55s0,0-.06,0,0-.07,0-.08,0-.06,0-.07,0,0,0,0l0,0s0-.13,0-.15,0,0,0,0l.07.08s0,.07,0,.08,0,0,0,.06S153,331.53,153,331.55Z"/><path class="cls-63" d="M151.25,330.82a.12.12,0,0,1,.06.11s0,0,0,0h0s0,0,0,0,0-.06,0-.06S151.23,330.83,151.25,330.82Z"/><path class="cls-63" d="M151.24,330.39s0,0,0,0,0,.07,0,.08S151.25,330.4,151.24,330.39Z"/><path class="cls-63" d="M151.34,330.83a.28.28,0,0,1,0-.09s0,0,0,0,.07.1.11.13a.1.1,0,0,1,0,.1s-.09,0-.11,0,0,0,0,0h0s0,0,0-.06A.17.17,0,0,1,151.34,330.83Z"/><path class="cls-63" d="M151.34,330.2s0,.05,0,.06h0S151.33,330.18,151.34,330.2Z"/><path class="cls-63" d="M151.63,331l-.16,0h-.06l.15-.07A.07.07,0,0,1,151.63,331Z"/><path class="cls-64" d="M153.65,333a2.51,2.51,0,1,0-.58-5,2.62,2.62,0,0,0-.68.18,2.82,2.82,0,0,1,.92-.28,2.61,2.61,0,1,1,.61,5.19,2.73,2.73,0,0,1-1.56-.27A2.55,2.55,0,0,0,153.65,333Z"/><polygon class="cls-68" points="177.11 327.23 167.62 324.68 155.14 327.74 163.01 330.96 177.11 327.23"/><polygon class="cls-69" points="163.1 332.22 163.01 330.96 155.14 327.74 155.14 327.79 155.35 342.36 163.17 345.7 163.1 332.22"/><polygon class="cls-70" points="177.11 327.28 177.11 327.23 163.01 330.96 163.1 332.22 163.17 345.7 177.19 341.54 177.11 327.28"/><polygon class="cls-71" points="158.93 329.29 158.92 329.29 158.92 329.29 157.91 328.87 157.91 328.92 158.03 330.66 158.05 330.64 158.14 330.85 158.22 330.73 158.28 330.91 158.39 330.81 158.46 331.23 158.6 330.99 158.7 331.18 158.81 331.08 158.9 331.25 159 331.07 159.08 331.31 158.93 329.34 158.93 329.29"/><polygon class="cls-72" points="171.15 325.63 157.91 328.87 157.91 328.87 157.91 328.87 157.9 328.87 157.91 328.87 158.92 329.29 158.92 329.29 172.43 325.97 171.15 325.63"/><path class="cls-73" d="M155.14,327.74,163,331S158.22,328.77,155.14,327.74Z"/><path class="cls-73" d="M163.25,330.9,177,327.27S167.06,329.67,163.25,330.9Z"/><path class="cls-73" d="M163.1,345.57l0-14.19S162.87,341.57,163.1,345.57Z"/><path class="cls-59" d="M141.39,328.55a1.6,1.6,0,0,0,.22,1.91c2.48,2.58,9.9,9.89,13.85,9.26,4.78-.78,5.51-4.64,2.4-5.8-2.46-.92-10.73-4.79-14.08-6.36a1.72,1.72,0,0,0-2.21.68Z"/><path class="cls-64" d="M155.46,339.72c-4,.64-11.45-6.76-13.89-9.3a1.51,1.51,0,0,1-.21-1.82l.08-.13c3.38,3.21,12.6,11.66,16.49,8.09a2.55,2.55,0,0,0,1-2C160.69,336.09,159.58,339.05,155.46,339.72Z"/><path class="cls-67" d="M159.62,336.27a3.24,3.24,0,0,0-.38-1.2,2.34,2.34,0,0,0-.2-.27.53.53,0,0,0-.13-.13.72.72,0,0,0-.19-.11.52.52,0,0,0-.5.1l0,0h0l0,0s-.06,0-.09,0a2.78,2.78,0,0,1-1.08,0,6,6,0,0,0-.61-.07,1.61,1.61,0,0,0-.31,0,.48.48,0,0,0-.31.1,1.1,1.1,0,0,1,.58.13l.58.2a2.15,2.15,0,0,0,1.32.08.76.76,0,0,0,.18-.09l.08-.07,0,0h0s0,0,0,0h0c.08,0,.23.17.35.31C159.18,335.58,159.39,335.92,159.62,336.27Z"/><path class="cls-74" d="M136.86,263.35c7.31-5.46,21.52,17.92,16.31,21.82S129.56,268.81,136.86,263.35Z"/><path class="cls-75" d="M139.47,266.91c4.67-3.49,15.61,14.54,12.28,17S134.81,270.39,139.47,266.91Z"/><path class="cls-74" d="M120.25,277.73c-1.06,2.69-.17,5.58.68,6.12,6.89,4.44,19.2,6.29,20.78,2.24,1.66-4.23-9.74-11.66-17.92-12.68C122.09,273.2,121.3,275,120.25,277.73Z"/><path class="cls-75" d="M120.48,277.73c-2.12,5.42,18.15,11.19,19.67,7.32S122.61,272.31,120.48,277.73Z"/><path class="cls-74" d="M120.44,283.62c1.69,3.71,5.64,8.78,8.52,7.2,5.79-3.17,2-15.69-4.93-17.36C120.22,272.54,118.76,279.91,120.44,283.62Z"/><path class="cls-74" d="M120.44,283.62c1.69,3.71,5.64,8.78,8.52,7.2,5.79-3.17,2-15.69-4.93-17.36C120.22,272.54,118.76,279.91,120.44,283.62Z"/><path class="cls-60" d="M135,325.33c0-.15.21-1.72-2.05-1.69s-3.8-2.8-4.31-3.38-4.06,2.94,1.71,4.47c-2.15.85-1.06,2.4.07,2.49a4.28,4.28,0,0,0,2.24-.62s-1,1.78.36,2S134.78,326.84,135,325.33Z"/><path class="cls-61" d="M133,328.82a1,1,0,0,1-.77-.55,1.77,1.77,0,0,1,.08-1.28,4,4,0,0,1-1.88.4,1.59,1.59,0,0,1-1.45-1.22c0-.33,0-.92.9-1.4-2.32-.72-2.88-1.76-2.93-2.54a2.34,2.34,0,0,1,1.28-2.14c.32-.14.49,0,.56.06s.21.27.36.48c.7,1,2,2.84,3.78,2.84h0a2.37,2.37,0,0,1,1.87.62,1.63,1.63,0,0,1,.36,1.26h0c-.18,1.32-.47,2.74-1.22,3.28a1.23,1.23,0,0,1-.69.22Zm-.07-5c-2,0-3.38-2-4.06-3-.15-.2-.26-.36-.34-.45s-.14,0-.34.12a2,2,0,0,0-.88,1.85c.16.95,1.23,1.72,3.11,2.21l.51.14-.49.19c-.79.31-1.19.75-1.12,1.22a1.25,1.25,0,0,0,1.14.93,4,4,0,0,0,2.13-.59l.6-.38-.36.62a2,2,0,0,0-.28,1.44.65.65,0,0,0,.52.35.85.85,0,0,0,.7-.14c.64-.46.9-1.79,1.07-3h0a1.25,1.25,0,0,0-.27-1,2,2,0,0,0-1.53-.5Z"/><path class="cls-59" d="M127.46,340.26a2.54,2.54,0,0,0,1.39-1.34,11.7,11.7,0,0,0,5.14,6.34,14.41,14.41,0,0,1-4.69.54,1.51,1.51,0,0,1-1.07-.59,9,9,0,0,1-1.31-4A.93.93,0,0,1,127.46,340.26Z"/><ellipse class="cls-59" cx="150.14" cy="305.73" rx="21.45" ry="27.33" transform="translate(-165.65 433.34) rotate(-85.85)"/><ellipse class="cls-63" cx="154.99" cy="305.31" rx="19.03" ry="21.52" transform="translate(-158.93 442.01) rotate(-86.62)"/><path class="cls-64" d="M133.52,303.78c.52-6.94,5.19-12.71,11.73-15.57a17.52,17.52,0,0,0-9.35,13.9c-.74,9.95,7.78,18.66,19,19.46,10.73.76,20.06-5.95,21.54-15.2a3.46,3.46,0,0,1,0,.46c-.78,10.48-11,18.3-22.87,17.46S132.75,314.27,133.52,303.78Z"/><g class="cls-76"><ellipse class="cls-77" cx="176.47" cy="302.39" rx="4.77" ry="1.77" transform="translate(-69.01 52.75) rotate(-14.25)"/><ellipse class="cls-77" cx="151.58" cy="307.91" rx="4.78" ry="1.77" transform="translate(-42.71 25.01) rotate(-8.27)"/></g><ellipse class="cls-64" cx="169" cy="296.37" rx="2.48" ry="3.76" transform="translate(-92.14 76.82) rotate(-20.25)"/><ellipse class="cls-78" cx="168.8" cy="296.21" rx="2.34" ry="3.55" transform="translate(-92.1 76.74) rotate(-20.25)"/><circle class="cls-4" cx="168.11" cy="293.95" r="0.55"/><ellipse class="cls-64" cx="154.96" cy="300.07" rx="2.89" ry="4.39" transform="translate(-104.21 83.54) rotate(-22.81)"/><ellipse class="cls-78" cx="155.01" cy="299.77" rx="2.72" ry="4.14" transform="translate(-104.09 83.54) rotate(-22.81)"/><circle class="cls-4" cx="153.79" cy="297.3" r="0.64"/><path class="cls-79" d="M168.25,308.22a4.14,4.14,0,0,1-4.32.55c.85,4.24,1.88,6,2.88,5.89S168.5,311.75,168.25,308.22Z"/><path class="cls-80" d="M163.76,308.81a.17.17,0,0,1,.06-.18.19.19,0,0,1,.19,0,4,4,0,0,0,4.13-.54.17.17,0,0,1,.18,0,.18.18,0,0,1,.11.14c.22,3.17-.19,6.45-1.6,6.63h-.13C165.55,314.84,164.56,312.81,163.76,308.81Zm.41.27c1.05,5,2.17,5.46,2.62,5.4.94-.12,1.5-2.65,1.31-5.94A4.3,4.3,0,0,1,164.17,309.08Z"/><path class="cls-81" d="M165.19,290.18s2.9-.52,4.26,1.58A12.52,12.52,0,0,0,165.19,290.18Z"/><path class="cls-81" d="M149.93,293.11a4.08,4.08,0,0,0-3.57,3A11.51,11.51,0,0,1,149.93,293.11Z"/><path class="cls-5" d="M16.47,279.4a1.21,1.21,0,0,1-.86-.36L8.5,271.93a1.23,1.23,0,0,1,1.73-1.74l7.11,7.11a1.23,1.23,0,0,1,0,1.74A1.22,1.22,0,0,1,16.47,279.4Z"/><path class="cls-5" d="M19.57,275.78a1.23,1.23,0,0,1-.43-.84l-.79-10a1.23,1.23,0,0,1,1.13-1.32,1.22,1.22,0,0,1,1.32,1.12l.78,10a1.22,1.22,0,0,1-1.12,1.32A1.2,1.2,0,0,1,19.57,275.78Z"/><path class="cls-5" d="M14.66,281.88a1.27,1.27,0,0,0-.92-.21l-9.92,1.66a1.23,1.23,0,0,0-1,1.42,1.21,1.21,0,0,0,1.41,1l9.92-1.66a1.23,1.23,0,0,0,.51-2.21Z"/><rect class="cls-59" x="45.42" y="50.07" width="151.16" height="25.14" rx="12.57"/><path class="cls-4" d="M62.52,58.71v1.45H60.45v6.23H58.93V60.16H56.87V58.71Z"/><path class="cls-4" d="M67.58,66.39,66,63.73H64.88v2.66H63.37V58.71h3.07a2.5,2.5,0,0,1,1.07,4.79l1.7,2.89Zm-2.7-6.26V62.4h1.56a1.1,1.1,0,0,0,1-1.14,1.09,1.09,0,0,0-1-1.13Z"/><path class="cls-4" d="M73.74,66.55a3.94,3.94,0,0,1-4-4,4,4,0,0,1,4-4,4.75,4.75,0,0,1,1.14.15h.79c.4,0,.47-.17.47-.59v-.18h1.14v.18c0,.86-.22,1.32-.83,1.49a.43.43,0,0,0,.12.11,3.81,3.81,0,0,1,1.16,2.83,3.87,3.87,0,0,1-1.16,2.85A3.93,3.93,0,0,1,73.74,66.55Zm0-1.48a2.36,2.36,0,0,0,1.76-.71,2.42,2.42,0,0,0,.72-1.81,2.45,2.45,0,0,0-.72-1.81,2.55,2.55,0,0,0-3.53,0,2.48,2.48,0,0,0-.71,1.81A2.45,2.45,0,0,0,72,64.36,2.37,2.37,0,0,0,73.74,65.07Zm-.21-7c0-.62.1-.73.38-.88l.1-.06a.27.27,0,0,0,.13-.23c0-.07,0-.14-.17-.14a.41.41,0,0,0-.43.32l-.82-.3A1.27,1.27,0,0,1,74,56c.62,0,1.1.33,1.1.91a.89.89,0,0,1-.44.82c-.15.06-.22.13-.19.39Z"/><path class="cls-4" d="M86.62,58.71v1.45H84.55v6.23H83V60.16H81V58.71Z"/><path class="cls-4" d="M91.83,58.71h1.51v7.68H91.83V63.21H89v3.18H87.47V58.71H89v3h2.85Z"/><path class="cls-4" d="M99.7,66.39,99.24,65H96.18l-.46,1.38H94.08l2.69-7.68h1.88l2.7,7.68ZM98.61,58H97.25L96,56.52h1.7Zm-2,5.58h2.11l-1.06-3.14Z"/><path class="cls-4" d="M106.54,58.71h1.51v7.68H106.9l-3.29-4.69v4.69h-1.52V58.71h1.16l3.29,4.69Z"/><path class="cls-4" d="M113.85,58.71h1.5v7.68h-1.5V63.21H111v3.18h-1.51V58.71H111v3h2.86Z"/><path class="cls-4" d="M123,58.71a3.51,3.51,0,0,1,2.63,1.11,4.06,4.06,0,0,1,0,5.47,3.5,3.5,0,0,1-2.63,1.1h-3v-3.1h-.65V62h.65V58.71ZM123,65a2.14,2.14,0,0,0,1.62-.66,2.43,2.43,0,0,0,.62-1.74,2.38,2.38,0,0,0-.62-1.72,2.11,2.11,0,0,0-1.62-.67h-1.54V62H123v1.26h-1.56V65Z"/><path class="cls-4" d="M132.39,66.39,131.93,65h-3.06l-.46,1.38h-1.63l2.68-7.68h1.88l2.7,7.68Zm-3-2.79h2.11l-1.05-3.14Zm.18,4.45a.87.87,0,1,1,.87.85A.88.88,0,0,1,129.53,68.05Z"/><path class="cls-4" d="M134.79,58.71h1.51v7.68h-1.51Z"/><path class="cls-4" d="M140.08,64.65l1.29-.76a1.74,1.74,0,0,0,1.77,1.18c.84,0,1.23-.34,1.23-.82a.67.67,0,0,0-.37-.62,5.27,5.27,0,0,0-1.29-.49,5,5,0,0,1-1.59-.72,1.86,1.86,0,0,1-.72-1.58,2,2,0,0,1,.73-1.65,2.68,2.68,0,0,1,1.79-.63,2.94,2.94,0,0,1,2.74,1.72l-1.27.74a1.54,1.54,0,0,0-1.47-1c-.63,0-1,.32-1,.77a.72.72,0,0,0,.29.59,4.71,4.71,0,0,0,1.17.48l.52.18a3.39,3.39,0,0,1,.5.19,1.79,1.79,0,0,1,.48.23,2.24,2.24,0,0,1,.73.68,2.1,2.1,0,0,1,.28,1.08,2,2,0,0,1-.78,1.69,3.06,3.06,0,0,1-2,.63A3,3,0,0,1,140.08,64.65Z"/><path class="cls-4" d="M147.63,65.82a2.45,2.45,0,0,1-.83-1.94V58.71h1.51v5c0,.8.45,1.31,1.42,1.31s1.43-.51,1.43-1.31v-5h1c.37,0,.42-.19.42-.59v-.18h1.14v.18c0,.93-.25,1.39-1,1.53v4.23a2.45,2.45,0,0,1-.82,1.94,3.41,3.41,0,0,1-4.22,0Zm2.35-9.3h1.7L150.46,58H149.1Z"/><path class="cls-4" d="M161.36,60.16h-3.07V62h3v1.45h-3v3h-1.51V58.71h4.58Z"/><path class="cls-4" d="M167.07,66.39,166.61,65h-3.06l-.46,1.38h-1.64l2.69-7.68H166l2.7,7.68Zm-3-2.79h2.11l-1-3.14Z"/><path class="cls-4" d="M172.52,58.71a3.51,3.51,0,0,1,2.63,1.11,4.06,4.06,0,0,1,0,5.47,3.5,3.5,0,0,1-2.63,1.1h-3.05V58.71Zm0,6.24a2.13,2.13,0,0,0,1.62-.66,2.43,2.43,0,0,0,.62-1.74,2.38,2.38,0,0,0-.62-1.72,2.1,2.1,0,0,0-1.62-.67H171V65Z"/><path class="cls-4" d="M180.92,66.55a3.93,3.93,0,0,1-4-4,4,4,0,1,1,8,0,4,4,0,0,1-4,4Zm0-1.48a2.38,2.38,0,0,0,1.77-.71,2.45,2.45,0,0,0,.71-1.81,2.48,2.48,0,0,0-.71-1.81,2.55,2.55,0,0,0-3.53,0,2.45,2.45,0,0,0-.72,1.81,2.42,2.42,0,0,0,.72,1.81A2.36,2.36,0,0,0,180.92,65.07Z"/><path class="cls-36" d="M43.76,97.78a.8.8,0,0,1,.22-.57.77.77,0,0,1,.58-.23h3a.81.81,0,0,1,.57.23.77.77,0,0,1,.23.57v9.07l8.47-9.54a.93.93,0,0,1,.25-.23.65.65,0,0,1,.38-.1h3.36a.69.69,0,0,1,.67.42.66.66,0,0,1-.13.79l-8.76,9.87L62,119.31a.73.73,0,0,1-.61,1.17H57.69a.83.83,0,0,1-.4-.08,1.45,1.45,0,0,1-.2-.15l-8.77-10.82v10.25a.77.77,0,0,1-.23.57.81.81,0,0,1-.57.23h-3a.77.77,0,0,1-.58-.23.8.8,0,0,1-.22-.57Z"/><path class="cls-36" d="M65.32,97.62a.65.65,0,0,1,.18-.46A.61.61,0,0,1,66,97h3.12a.63.63,0,0,1,.46.18.65.65,0,0,1,.18.46v22.22a.65.65,0,0,1-.18.46.63.63,0,0,1-.46.18H66a.61.61,0,0,1-.45-.18.65.65,0,0,1-.18-.46Z"/><path class="cls-36" d="M75.42,97.62a.62.62,0,0,1,.19-.46.61.61,0,0,1,.45-.18H89.72a.62.62,0,0,1,.64.64v2.75a.61.61,0,0,1-.18.45.62.62,0,0,1-.46.19H79.79v5.5h8.29a.62.62,0,0,1,.45.19.58.58,0,0,1,.19.45v2.79a.65.65,0,0,1-.64.64H79.79v5.87h9.93a.62.62,0,0,1,.46.19.61.61,0,0,1,.18.45v2.75a.62.62,0,0,1-.64.64H76.06a.61.61,0,0,1-.45-.18.62.62,0,0,1-.19-.46ZM78.74,94a.5.5,0,0,1-.08-.53.7.7,0,0,1,.32-.37l3.46-2.69a.66.66,0,0,1,.91,0l3.45,2.72a.66.66,0,0,1,.32.37A.5.5,0,0,1,87,94l-.71,1a.78.78,0,0,1-.42.28.77.77,0,0,1-.55-.12l-2.45-1.57-2.49,1.57a.76.76,0,0,1-.55.12.78.78,0,0,1-.42-.28Zm1.45-4.43-.47-1a.58.58,0,0,1,0-.51.78.78,0,0,1,.3-.37l4.36-2.58a.87.87,0,0,1,.59-.19.65.65,0,0,1,.52.36l.77,1.37a.88.88,0,0,1,.07.66.73.73,0,0,1-.37.42L81.1,89.93C80.71,90.15,80.41,90,80.19,89.59Z"/><path class="cls-36" d="M97.48,97.15a.58.58,0,0,1,.19-.36.56.56,0,0,1,.41-.15h.54a.58.58,0,0,1,.57.34l7.39,15.85h.1L114.07,97a.58.58,0,0,1,.57-.34h.54a.6.6,0,0,1,.42.15.62.62,0,0,1,.18.36l4,22.56a.65.65,0,0,1-.1.57.63.63,0,0,1-.5.2h-3.06a.52.52,0,0,1-.4-.17,1.15,1.15,0,0,1-.24-.33l-2-12.73h-.1l-5.87,13.2a.55.55,0,0,1-.57.37h-.61a.59.59,0,0,1-.57-.37l-5.94-13.2h-.1l-2,12.73a.65.65,0,0,1-.2.33.52.52,0,0,1-.4.17h-3c-.49,0-.7-.26-.63-.77Z"/><path class="cls-36" d="M135.05,101h-5.14a.6.6,0,0,1-.45-.19.61.61,0,0,1-.18-.45V97.62a.65.65,0,0,1,.18-.46.63.63,0,0,1,.45-.18h14.68a.61.61,0,0,1,.45.18.66.66,0,0,1,.19.46v2.75a.62.62,0,0,1-.19.45.58.58,0,0,1-.45.19h-5.14v18.83a.62.62,0,0,1-.64.64h-3.12a.61.61,0,0,1-.45-.18.62.62,0,0,1-.19-.46Z"/><path class="cls-36" d="M149,97.62a.62.62,0,0,1,.19-.46.61.61,0,0,1,.45-.18h3.12a.62.62,0,0,1,.64.64v22.22a.62.62,0,0,1-.64.64h-3.12a.61.61,0,0,1-.45-.18.62.62,0,0,1-.19-.46Z"/><path class="cls-36" d="M159.06,97.62a.62.62,0,0,1,.64-.64h13.66a.62.62,0,0,1,.64.64v2.75a.61.61,0,0,1-.18.45.62.62,0,0,1-.46.19h-9.94v5.5h8.3a.65.65,0,0,1,.64.64v2.79a.62.62,0,0,1-.19.45.58.58,0,0,1-.45.19h-8.3v5.87h9.94a.62.62,0,0,1,.46.19.61.61,0,0,1,.18.45v2.75a.62.62,0,0,1-.64.64H159.7a.62.62,0,0,1-.64-.64Zm3.32-3.6a.5.5,0,0,1-.08-.53.66.66,0,0,1,.32-.37l3.46-2.69a.65.65,0,0,1,.9,0l3.46,2.72a.66.66,0,0,1,.32.37.5.5,0,0,1-.08.53L170,95a.78.78,0,0,1-.42.28.77.77,0,0,1-.55-.12l-2.45-1.57-2.49,1.57a.77.77,0,0,1-.55.12.78.78,0,0,1-.42-.28Zm1.85-6.24a.73.73,0,0,1-.37-.42.88.88,0,0,1,.07-.66l.77-1.37a.57.57,0,0,1,.49-.36.93.93,0,0,1,.58.16l4.37,2.61a.52.52,0,0,1,.34.34.68.68,0,0,1,0,.54l-.5.94c-.18.4-.52.5-1,.3Z"/><path class="cls-36" d="M178.4,97.25a.57.57,0,0,1,.18-.44.69.69,0,0,1,.46-.17h.5a.78.78,0,0,1,.57.24l13.7,14.6h.07V97.62a.62.62,0,0,1,.64-.64h3.08a.62.62,0,0,1,.64.64v22.59a.57.57,0,0,1-.18.44.69.69,0,0,1-.46.17h-.47a.78.78,0,0,1-.57-.24L182.8,105.41h-.07v14.43a.62.62,0,0,1-.64.64H179a.62.62,0,0,1-.64-.64Z"/><path class="cls-59" d="M24.44,149.93a11.81,11.81,0,0,1,.95-4.74,12.14,12.14,0,0,1,6.43-6.43,12.61,12.61,0,0,1,9.22-.17,12.53,12.53,0,0,1,3.64,2.34.58.58,0,0,1,0,.94l-2,2.11a.51.51,0,0,1-.84,0,8.27,8.27,0,0,0-2.42-1.46,7.71,7.71,0,0,0-2.75-.52,7.2,7.2,0,0,0-5.36,2.32,8.15,8.15,0,0,0-2.13,5.5,7.88,7.88,0,0,0,.57,3,7.74,7.74,0,0,0,1.58,2.47,7.32,7.32,0,0,0,5.37,2.3,7.26,7.26,0,0,0,2.79-.52,9.46,9.46,0,0,0,2.35-1.39.67.67,0,0,1,.43-.17.57.57,0,0,1,.41.17l2.08,2.15a.49.49,0,0,1,.17.45.78.78,0,0,1-.2.45,11,11,0,0,1-3.82,2.47,12.37,12.37,0,0,1-9.08-.15A11.88,11.88,0,0,1,28,158.47a12.16,12.16,0,0,1-2.59-3.83A11.63,11.63,0,0,1,24.44,149.93Z"/><path class="cls-59" d="M48.68,138.78a.62.62,0,0,1,.64-.64H52.5a.62.62,0,0,1,.64.64v14A4.59,4.59,0,0,0,58,157.61a5.28,5.28,0,0,0,2-.35,4.43,4.43,0,0,0,1.54-1,4.22,4.22,0,0,0,1-1.51,5.06,5.06,0,0,0,.35-1.95v-14a.66.66,0,0,1,.19-.46.61.61,0,0,1,.45-.18h3.19a.62.62,0,0,1,.64.64V153a8.75,8.75,0,0,1-.72,3.56,8.54,8.54,0,0,1-2,2.84,9.22,9.22,0,0,1-3,1.88,10.19,10.19,0,0,1-7.37,0,9.3,9.3,0,0,1-2.95-1.88,8.54,8.54,0,0,1-2-2.84,8.75,8.75,0,0,1-.72-3.56Zm6.21-4.13a.73.73,0,0,1-.37-.42.83.83,0,0,1,.07-.66l.77-1.37a.57.57,0,0,1,.49-.36.93.93,0,0,1,.58.16l4.37,2.61a.51.51,0,0,1,.33.34.64.64,0,0,1,0,.54l-.5.94c-.18.4-.52.5-1,.3Z"/><path class="cls-59" d="M72.85,138.41A.55.55,0,0,1,73,138a.64.64,0,0,1,.45-.17H74a.78.78,0,0,1,.58.24l13.69,14.61h.07V138.78a.62.62,0,0,1,.19-.46.61.61,0,0,1,.45-.18h3.09a.61.61,0,0,1,.45.18.66.66,0,0,1,.19.46v22.6a.57.57,0,0,1-.19.43.64.64,0,0,1-.45.17h-.47a.75.75,0,0,1-.57-.24L77.25,146.57h-.07V161a.62.62,0,0,1-.63.63H73.49a.61.61,0,0,1-.45-.18.58.58,0,0,1-.19-.45Z"/><path class="cls-59" d="M97,149.93a12,12,0,0,1,.94-4.74,11.75,11.75,0,0,1,2.58-3.84,12.63,12.63,0,0,1,3.83-2.59,11.55,11.55,0,0,1,4.7-1,11.88,11.88,0,0,1,4.38.83,13,13,0,0,1,3.81,2.3.67.67,0,0,1,.22.47.61.61,0,0,1-.18.47l-2.08,2.18a.58.58,0,0,1-.88,0,7.43,7.43,0,0,0-5.07-2,7.16,7.16,0,0,0-3,.62,7.39,7.39,0,0,0-2.38,1.7,8.07,8.07,0,0,0-1.6,2.48,7.74,7.74,0,0,0-.59,3,7.6,7.6,0,0,0,.59,3,7.68,7.68,0,0,0,4,4.1,7.17,7.17,0,0,0,3,.62,8.51,8.51,0,0,0,2.45-.32c.69-.21,1.21-.38,1.54-.52v-2.85h-2.68a.69.69,0,0,1-.46-.17.57.57,0,0,1-.18-.44v-2.65a.57.57,0,0,1,.64-.64h6.44a.55.55,0,0,1,.44.19.64.64,0,0,1,.17.45v8.6a.62.62,0,0,1-.27.53,12.45,12.45,0,0,1-2.35,1.11,20.18,20.18,0,0,1-2.64.74,15.8,15.8,0,0,1-3.34.34,11.88,11.88,0,0,1-4.7-.94,12.55,12.55,0,0,1-3.83-2.56A11.62,11.62,0,0,1,98,154.64,11.79,11.79,0,0,1,97,149.93Z"/><path class="cls-59" d="M130.57,138.78a.62.62,0,0,1,.64-.64h13.66a.62.62,0,0,1,.64.64v2.75a.61.61,0,0,1-.18.45.62.62,0,0,1-.46.19h-9.94v6.31h8.3a.58.58,0,0,1,.45.19.62.62,0,0,1,.19.45v2.75a.66.66,0,0,1-.19.46.61.61,0,0,1-.45.18h-8.3V161a.62.62,0,0,1-.63.63h-3.09a.65.65,0,0,1-.46-.18.61.61,0,0,1-.18-.45Z"/><path class="cls-59" d="M145.48,161.64a.66.66,0,0,1-.56-.26.56.56,0,0,1,0-.61l10.44-22.6a.59.59,0,0,1,.57-.37h.34a.57.57,0,0,1,.38.11.65.65,0,0,1,.19.26l10.34,22.6a.58.58,0,0,1,0,.61.64.64,0,0,1-.55.26h-2.92a1,1,0,0,1-.59-.15,1.16,1.16,0,0,1-.39-.52l-1.64-3.62H151L149.37,161a1.09,1.09,0,0,1-.33.47.93.93,0,0,1-.64.2Zm13.93-8-3.36-7.39H156l-3.29,7.39Z"/><path class="cls-59" d="M170.12,138.78a.69.69,0,0,1,.17-.46.57.57,0,0,1,.44-.18h8a11.52,11.52,0,0,1,4.57.92,12.17,12.17,0,0,1,3.76,2.52,11.87,11.87,0,0,1,2.54,3.73,11.42,11.42,0,0,1,.92,4.55A11.62,11.62,0,0,1,187,158.2a11.83,11.83,0,0,1-3.76,2.52,11.35,11.35,0,0,1-4.57.92h-8a.57.57,0,0,1-.44-.18.64.64,0,0,1-.17-.45Zm8.16,18.77a8,8,0,0,0,3-.56,7.07,7.07,0,0,0,2.39-1.56,7.3,7.3,0,0,0,1.58-2.43,8.39,8.39,0,0,0,.57-3.14,8.25,8.25,0,0,0-.57-3.12,7.36,7.36,0,0,0-1.58-2.42,7.07,7.07,0,0,0-2.39-1.56,8,8,0,0,0-3-.56h-3.83v15.35Z"/><path class="cls-59" d="M193.42,149.93a12.07,12.07,0,0,1,3.51-8.58,12.28,12.28,0,0,1,3.83-2.59,12.08,12.08,0,0,1,9.44,0,12.56,12.56,0,0,1,3.84,2.59,11.77,11.77,0,0,1,2.59,3.84,12.15,12.15,0,0,1,.94,4.74,12,12,0,0,1-.94,4.71,11.84,11.84,0,0,1-2.59,3.83A12.33,12.33,0,0,1,210.2,161a12.32,12.32,0,0,1-9.44,0,12,12,0,0,1-7.34-11.11Zm4.37,0a7.52,7.52,0,0,0,.6,3,7.72,7.72,0,0,0,1.65,2.45,7.72,7.72,0,0,0,8.43,1.65,7.71,7.71,0,0,0,2.46-1.65,7.61,7.61,0,0,0,1.67-2.45,7.73,7.73,0,0,0,0-6,7.95,7.95,0,0,0-4.13-4.15,7.52,7.52,0,0,0-6,0,7.64,7.64,0,0,0-2.45,1.68,7.92,7.92,0,0,0-1.65,2.47A7.53,7.53,0,0,0,197.79,149.93Z"/></g></g></svg>