<?xml version="1.0" encoding="UTF-8"?>
<svg width="92px" height="16px" viewBox="0 0 92 16" version="1.1" xmlns="http://www.w3.org/2000/svg" xmlns:xlink="http://www.w3.org/1999/xlink">
    <title>BFD-deal</title>
    <defs>
        <linearGradient x1="0%" y1="48.4877127%" x2="100%" y2="51.5122873%" id="linearGradient-1">
            <stop stop-color="#7C2D1F" offset="0%"></stop>
            <stop stop-color="#000000" offset="100%"></stop>
        </linearGradient>
    </defs>
    <g id="Symbols" stroke="none" stroke-width="1" fill="none" fill-rule="evenodd">
        <g id="Common-others/item-discount-label/BFD" transform="translate(-42.000000, -4.000000)" fill-rule="nonzero">
            <g id="item-discount-label" transform="translate(2.000000, 2.000000)">
                <g id="BFD-deal" transform="translate(40.000000, 2.000000)">
                    <path d="M8,0 L84,0 C88.418278,-8.11624501e-16 92,3.581722 92,8 C92,12.418278 88.418278,16 84,16 L8,16 C3.581722,16 5.41083001e-16,12.418278 0,8 C-5.41083001e-16,3.581722 3.581722,8.11624501e-16 8,0 Z" id="Rectangle" fill="url(#linearGradient-1)"></path>
                    <path d="M20.8295898,12 C22.3818359,12 23.3808594,11.1889648 23.3808594,9.93212891 C23.3808594,8.93310547 22.7363281,8.23486328 21.7480469,8.14355469 L21.7480469,8.07910156 C22.5322266,7.89648438 23.0048828,7.30029297 23.0048828,6.47314453 C23.0048828,5.36669922 22.1669922,4.66845703 20.8349609,4.66845703 L18.7456055,4.66845703 C18.0957031,4.66845703 17.7788086,4.97998047 17.7788086,5.59765625 L17.7788086,11.0708008 C17.7788086,11.6938477 18.0957031,12 18.7456055,12 L20.8295898,12 Z M20.1743164,7.71923828 L19.2182617,7.71923828 L19.2182617,5.75878906 L20.5019531,5.75878906 C21.1787109,5.75878906 21.5761719,6.12402344 21.5761719,6.72021484 C21.5761719,7.359375 21.1464844,7.71923828 20.1743164,7.71923828 Z M20.2924805,10.909668 L19.2182617,10.909668 L19.2182617,8.72900391 L20.5932617,8.72900391 C21.4418945,8.72900391 21.9038086,9.15332031 21.9038086,9.84619141 C21.9038086,10.5444336 21.4365234,10.909668 20.2924805,10.909668 Z M28.5317383,12 C28.9130859,12 29.1816406,11.7529297 29.1816406,11.3823242 C29.1816406,11.0170898 28.9130859,10.7646484 28.5317383,10.7646484 L25.9858398,10.7646484 L25.9858398,5.39892578 C25.9858398,4.90478516 25.7172852,4.61474609 25.2607422,4.61474609 C24.7988281,4.61474609 24.5356445,4.90478516 24.5356445,5.39892578 L24.5356445,11.0708008 C24.5356445,11.6938477 24.8525391,12 25.5024414,12 L28.5317383,12 Z M35.390625,12.0644531 C35.8041992,12.0644531 36.078125,11.8173828 36.078125,11.4306641 C36.078125,11.2802734 36.0405273,11.1030273 35.965332,10.8720703 L34.1176758,5.57617188 C33.8867188,4.88867188 33.5644531,4.609375 32.9575195,4.609375 C32.3452148,4.609375 32.0175781,4.89404297 31.7866211,5.57617188 L29.9389648,10.8720703 C29.8476562,11.1459961 29.8100586,11.3125 29.8100586,11.4575195 C29.8100586,11.8227539 30.0839844,12.0644531 30.4814453,12.0644531 C30.8681641,12.0644531 31.0830078,11.8657227 31.2333984,11.3608398 L31.6416016,10.1147461 L34.2143555,10.1147461 L34.6279297,11.3608398 C34.7729492,11.8603516 34.9985352,12.0644531 35.390625,12.0644531 Z M33.8974609,9.03515625 L31.9638672,9.03515625 L32.8984375,6.0703125 L32.9682617,6.0703125 L33.8974609,9.03515625 Z M39.7680664,12.1557617 C40.6542969,12.1557617 41.3793945,11.9086914 41.8950195,11.4628906 C42.324707,11.1030273 42.5986328,10.6303711 42.5986328,10.2436523 C42.5986328,9.88378906 42.3569336,9.64746094 41.9863281,9.64746094 C41.7392578,9.64746094 41.578125,9.74414062 41.347168,10.0288086 C40.9604492,10.6303711 40.4716797,10.909668 39.8486328,10.909668 C38.7583008,10.909668 38.1621094,10.1416016 38.1621094,8.734375 L38.1621094,7.90185547 C38.1621094,6.54833984 38.769043,5.77490234 39.8486328,5.77490234 C40.4663086,5.77490234 40.9121094,6.05419922 41.3203125,6.66650391 C41.5512695,6.95117188 41.7338867,7.05322266 41.9916992,7.05322266 C42.3461914,7.05322266 42.5932617,6.81689453 42.5932617,6.45166016 C42.5932617,6.12402344 42.3730469,5.68359375 42.0131836,5.32910156 C41.4921875,4.81347656 40.6972656,4.52880859 39.7680664,4.52880859 C37.8291016,4.52880859 36.706543,5.76416016 36.706543,7.84277344 L36.706543,8.78271484 C36.706543,10.9311523 37.8076172,12.1557617 39.7680664,12.1557617 Z M44.5859375,12.0537109 C45.0424805,12.0537109 45.300293,11.769043 45.300293,11.2695312 L45.300293,9.60449219 L46.0737305,8.80957031 L48.0395508,11.5541992 C48.28125,11.887207 48.512207,12.0322266 48.7861328,12.0322266 C49.2050781,12.0322266 49.4951172,11.7475586 49.4951172,11.3393555 C49.4951172,11.1352539 49.4306641,10.9848633 49.1674805,10.6303711 L47.1533203,7.875 L49.027832,5.83935547 C49.2587891,5.59228516 49.3286133,5.45800781 49.3286133,5.27001953 C49.3286133,4.91552734 49.0493164,4.63623047 48.684082,4.63623047 C48.4746094,4.63623047 48.2973633,4.73291016 48.0771484,4.97998047 L45.3808594,7.88037109 L45.300293,7.88037109 L45.300293,5.39892578 C45.300293,4.90478516 45.0317383,4.61474609 44.5751953,4.61474609 C44.1132812,4.61474609 43.8500977,4.90478516 43.8500977,5.39892578 L43.8500977,11.2695312 C43.8500977,11.7636719 44.1240234,12.0537109 44.5859375,12.0537109 Z M53.5073242,12.0537109 C53.9638672,12.0537109 54.2216797,11.769043 54.2216797,11.2695312 L54.2216797,9.08349609 L56.6494141,9.08349609 C57.0200195,9.08349609 57.2670898,8.85253906 57.2670898,8.49804688 C57.2670898,8.14355469 57.0253906,7.91259766 56.6494141,7.91259766 L54.2216797,7.91259766 L54.2216797,5.86621094 L56.9233398,5.86621094 C57.2885742,5.86621094 57.5410156,5.62988281 57.5410156,5.27001953 C57.5410156,4.91552734 57.2885742,4.66845703 56.9233398,4.66845703 L53.7382812,4.66845703 C53.0883789,4.66845703 52.7714844,4.97998047 52.7714844,5.59765625 L52.7714844,11.2695312 C52.7714844,11.7636719 53.0454102,12.0537109 53.5073242,12.0537109 Z M59.2329102,12.0537109 C59.6894531,12.0537109 59.9526367,11.7636719 59.9526367,11.2695312 L59.9526367,9.27148438 L61.284668,9.27148438 L62.3642578,11.3984375 C62.605957,11.8710938 62.8100586,12.0322266 63.1914062,12.0322266 C63.6049805,12.0322266 63.9111328,11.7529297 63.9111328,11.3608398 C63.9111328,11.2050781 63.862793,11.0224609 63.7822266,10.8774414 L62.71875,8.92773438 C63.5351562,8.58398438 64.0131836,7.84277344 64.0131836,6.91357422 C64.0131836,5.52783203 63.0410156,4.66845703 61.4726562,4.66845703 L59.5981445,4.66845703 C58.8354492,4.66845703 58.5024414,5.01220703 58.5024414,5.77490234 L58.5024414,11.2695312 C58.5024414,11.7636719 58.7709961,12.0537109 59.2329102,12.0537109 Z M61.2631836,8.18652344 L59.9526367,8.18652344 L59.9526367,5.85546875 L61.2792969,5.85546875 C62.0795898,5.85546875 62.5576172,6.27978516 62.5576172,7.02636719 C62.5576172,7.77832031 62.0849609,8.18652344 61.2631836,8.18652344 Z M66.0112305,12.0537109 C66.4677734,12.0537109 66.730957,11.7636719 66.730957,11.2695312 L66.730957,5.39892578 C66.730957,4.90478516 66.4624023,4.61474609 66.0058594,4.61474609 C65.5439453,4.61474609 65.2807617,4.90478516 65.2807617,5.39892578 L65.2807617,11.2695312 C65.2807617,11.7636719 65.5493164,12.0537109 66.0112305,12.0537109 Z M70.9633789,12 C73.1064453,12 74.2397461,10.7324219 74.2397461,8.33691406 C74.2397461,5.93603516 73.1064453,4.66845703 70.9633789,4.66845703 L69.2553711,4.66845703 C68.6108398,4.66845703 68.2885742,4.97460938 68.2885742,5.59765625 L68.2885742,11.0708008 C68.2885742,11.6938477 68.6108398,12 69.2553711,12 L70.9633789,12 Z M70.7807617,10.8129883 L69.7387695,10.8129883 L69.7387695,5.85009766 L70.7807617,5.85009766 C72.1235352,5.85009766 72.7573242,6.64501953 72.7573242,8.33691406 C72.7573242,10.0180664 72.1289062,10.8129883 70.7807617,10.8129883 Z M80.3466797,12.0644531 C80.7602539,12.0644531 81.0341797,11.8173828 81.0341797,11.4306641 C81.0341797,11.2802734 80.996582,11.1030273 80.9213867,10.8720703 L79.0737305,5.57617188 C78.8427734,4.88867188 78.5205078,4.609375 77.9135742,4.609375 C77.3012695,4.609375 76.9736328,4.89404297 76.7426758,5.57617188 L74.8950195,10.8720703 C74.8037109,11.1459961 74.7661133,11.3125 74.7661133,11.4575195 C74.7661133,11.8227539 75.0400391,12.0644531 75.4375,12.0644531 C75.8242188,12.0644531 76.0390625,11.8657227 76.1894531,11.3608398 L76.5976562,10.1147461 L79.1704102,10.1147461 L79.5839844,11.3608398 C79.7290039,11.8603516 79.9545898,12.0644531 80.3466797,12.0644531 Z M78.8535156,9.03515625 L76.9199219,9.03515625 L77.8544922,6.0703125 L77.9243164,6.0703125 L78.8535156,9.03515625 Z M83.8217773,12.0537109 C84.262207,12.0537109 84.5522461,11.7529297 84.5415039,11.3125 L84.5200195,9.07275391 L86.4428711,5.8984375 C86.6254883,5.58691406 86.6953125,5.41503906 86.6953125,5.23779297 C86.6953125,4.8671875 86.4213867,4.59863281 86.0400391,4.59863281 C85.7392578,4.59863281 85.519043,4.77050781 85.3095703,5.15185547 L83.8432617,7.78369141 L83.7895508,7.78369141 L82.3447266,5.15185547 C82.1352539,4.75439453 81.9311523,4.59863281 81.6196289,4.59863281 C81.2167969,4.59863281 80.9482422,4.86181641 80.9482422,5.25927734 C80.9482422,5.43652344 81.0073242,5.59765625 81.1738281,5.87695312 L83.112793,9.07275391 L83.0913086,11.3125 C83.0805664,11.7529297 83.3706055,12.0537109 83.8217773,12.0537109 Z" id="BLACKFRIDAY" fill="#FFFFFF"></path>
                    <polygon id="Path-2" fill="#FF595F" points="7.22092503 4 12 4 9.39450542 7.63354949 12 7.63354949 7.47011774 14 8.78404292 9.60350117 6 9.60350117"></polygon>
                </g>
            </g>
        </g>
    </g>
</svg>