<?xml version="1.0" encoding="UTF-8"?>
<svg width="92px" height="16px" viewBox="0 0 92 16" version="1.1" xmlns="http://www.w3.org/2000/svg" xmlns:xlink="http://www.w3.org/1999/xlink">
    <title>online-friday</title>
    <defs>
        <linearGradient x1="0%" y1="48.4877127%" x2="100%" y2="51.5122873%" id="linearGradient-1">
            <stop stop-color="#060FAE" offset="0%"></stop>
            <stop stop-color="#5C64FF" offset="100%"></stop>
        </linearGradient>
    </defs>
    <g id="Page-1" stroke="none" stroke-width="1" fill="none" fill-rule="evenodd">
        <g id="online-friday" fill-rule="nonzero">
            <path d="M8,0 L84,0 C88.418278,0 92,3.581722 92,8 C92,12.418278 88.418278,16 84,16 L8,16 C3.581722,16 0,12.418278 0,8 C0,3.581722 3.581722,0 8,0 Z" id="Rectangle" fill="url(#linearGradient-1)"></path>
            <path d="M54.5073242,12.0537109 C54.9638672,12.0537109 55.2216797,11.769043 55.2216797,11.2695312 L55.2216797,9.08349609 L57.6494141,9.08349609 C58.0200195,9.08349609 58.2670898,8.85253906 58.2670898,8.49804688 C58.2670898,8.14355469 58.0253906,7.91259766 57.6494141,7.91259766 L55.2216797,7.91259766 L55.2216797,5.86621094 L57.9233398,5.86621094 C58.2885742,5.86621094 58.5410156,5.62988281 58.5410156,5.27001953 C58.5410156,4.91552734 58.2885742,4.66845703 57.9233398,4.66845703 L54.7382812,4.66845703 C54.0883789,4.66845703 53.7714844,4.97998047 53.7714844,5.59765625 L53.7714844,11.2695312 C53.7714844,11.7636719 54.0454102,12.0537109 54.5073242,12.0537109 Z M60.2329102,12.0537109 C60.6894531,12.0537109 60.9526367,11.7636719 60.9526367,11.2695312 L60.9526367,9.27148438 L62.284668,9.27148438 L63.3642578,11.3984375 C63.605957,11.8710938 63.8100586,12.0322266 64.1914062,12.0322266 C64.6049805,12.0322266 64.9111328,11.7529297 64.9111328,11.3608398 C64.9111328,11.2050781 64.862793,11.0224609 64.7822266,10.8774414 L63.71875,8.92773438 C64.5351562,8.58398438 65.0131836,7.84277344 65.0131836,6.91357422 C65.0131836,5.52783203 64.0410156,4.66845703 62.4726562,4.66845703 L60.5981445,4.66845703 C59.8354492,4.66845703 59.5024414,5.01220703 59.5024414,5.77490234 L59.5024414,11.2695312 C59.5024414,11.7636719 59.7709961,12.0537109 60.2329102,12.0537109 Z M62.2631836,8.18652344 L60.9526367,8.18652344 L60.9526367,5.85546875 L62.2792969,5.85546875 C63.0795898,5.85546875 63.5576172,6.27978516 63.5576172,7.02636719 C63.5576172,7.77832031 63.0849609,8.18652344 62.2631836,8.18652344 Z M67.0112305,12.0537109 C67.4677734,12.0537109 67.730957,11.7636719 67.730957,11.2695312 L67.730957,5.39892578 C67.730957,4.90478516 67.4624023,4.61474609 67.0058594,4.61474609 C66.5439453,4.61474609 66.2807617,4.90478516 66.2807617,5.39892578 L66.2807617,11.2695312 C66.2807617,11.7636719 66.5493164,12.0537109 67.0112305,12.0537109 Z M71.9633789,12 C74.1064453,12 75.2397461,10.7324219 75.2397461,8.33691406 C75.2397461,5.93603516 74.1064453,4.66845703 71.9633789,4.66845703 L70.2553711,4.66845703 C69.6108398,4.66845703 69.2885742,4.97460938 69.2885742,5.59765625 L69.2885742,11.0708008 C69.2885742,11.6938477 69.6108398,12 70.2553711,12 L71.9633789,12 Z M71.7807617,10.8129883 L70.7387695,10.8129883 L70.7387695,5.85009766 L71.7807617,5.85009766 C73.1235352,5.85009766 73.7573242,6.64501953 73.7573242,8.33691406 C73.7573242,10.0180664 73.1289062,10.8129883 71.7807617,10.8129883 Z M81.3466797,12.0644531 C81.7602539,12.0644531 82.0341797,11.8173828 82.0341797,11.4306641 C82.0341797,11.2802734 81.996582,11.1030273 81.9213867,10.8720703 L80.0737305,5.57617188 C79.8427734,4.88867188 79.5205078,4.609375 78.9135742,4.609375 C78.3012695,4.609375 77.9736328,4.89404297 77.7426758,5.57617188 L75.8950195,10.8720703 C75.8037109,11.1459961 75.7661133,11.3125 75.7661133,11.4575195 C75.7661133,11.8227539 76.0400391,12.0644531 76.4375,12.0644531 C76.8242188,12.0644531 77.0390625,11.8657227 77.1894531,11.3608398 L77.5976562,10.1147461 L80.1704102,10.1147461 L80.5839844,11.3608398 C80.7290039,11.8603516 80.9545898,12.0644531 81.3466797,12.0644531 Z M79.8535156,9.03515625 L77.9199219,9.03515625 L78.8544922,6.0703125 L78.9243164,6.0703125 L79.8535156,9.03515625 Z M84.8217773,12.0537109 C85.262207,12.0537109 85.5522461,11.7529297 85.5415039,11.3125 L85.5200195,9.07275391 L87.4428711,5.8984375 C87.6254883,5.58691406 87.6953125,5.41503906 87.6953125,5.23779297 C87.6953125,4.8671875 87.4213867,4.59863281 87.0400391,4.59863281 C86.7392578,4.59863281 86.519043,4.77050781 86.3095703,5.15185547 L84.8432617,7.78369141 L84.7895508,7.78369141 L83.3447266,5.15185547 C83.1352539,4.75439453 82.9311523,4.59863281 82.6196289,4.59863281 C82.2167969,4.59863281 81.9482422,4.86181641 81.9482422,5.25927734 C81.9482422,5.43652344 82.0073242,5.59765625 82.1738281,5.87695312 L84.112793,9.07275391 L84.0913086,11.3125 C84.0805664,11.7529297 84.3706055,12.0537109 84.8217773,12.0537109 Z" id="BLACKFRIDAY" fill="#FFFFFF"></path>
            <polygon id="Path-2" fill="#FFB800" points="7.22092503 4 12 4 9.39450542 7.63354949 12 7.63354949 7.47011774 14 8.78404292 9.60350117 6 9.60350117"></polygon>
            <path d="M17.6254883,12.1557617 C19.5805664,12.1557617 20.7407227,10.909668 20.7407227,8.84716797 L20.7407227,7.89111328 C20.7407227,5.80175781 19.5805664,4.52880859 17.6254883,4.52880859 C15.6811523,4.52880859 14.5102539,5.80175781 14.5102539,7.89111328 L14.5102539,8.84716797 C14.5102539,10.909668 15.659668,12.1557617 17.6254883,12.1557617 Z M17.6254883,10.9418945 C16.5888672,10.9418945 15.9604492,10.1630859 15.9604492,8.84179688 L15.9604492,7.88574219 C15.9604492,6.54833984 16.5888672,5.74267578 17.6254883,5.74267578 C18.6621094,5.74267578 19.2905273,6.54833984 19.2905273,7.88574219 L19.2905273,8.84179688 C19.2905273,10.1630859 18.6621094,10.9418945 17.6254883,10.9418945 Z M27.1699219,12.0537109 C27.6318359,12.0537109 27.8789062,11.7583008 27.8789062,11.2104492 L27.8789062,5.3828125 C27.8789062,4.90478516 27.6210938,4.61474609 27.1914062,4.61474609 C26.7617188,4.61474609 26.5146484,4.89941406 26.5146484,5.3828125 L26.5146484,9.54541016 L26.4555664,9.54541016 L23.6411133,5.25927734 C23.340332,4.81347656 23.1362305,4.61474609 22.7871094,4.61474609 C22.2929688,4.61474609 22.0405273,4.91552734 22.0405273,5.49023438 L22.0405273,11.2856445 C22.0405273,11.7636719 22.2929688,12.0537109 22.7226562,12.0537109 C23.1523438,12.0537109 23.3994141,11.769043 23.3994141,11.2856445 L23.3994141,7.09619141 L23.4584961,7.09619141 L26.2998047,11.4306641 C26.6166992,11.9086914 26.8208008,12.0537109 27.1699219,12.0537109 Z M33.4433594,12 C33.824707,12 34.0932617,11.7529297 34.0932617,11.3823242 C34.0932617,11.0170898 33.824707,10.7646484 33.4433594,10.7646484 L30.8974609,10.7646484 L30.8974609,5.39892578 C30.8974609,4.90478516 30.6289062,4.61474609 30.1723633,4.61474609 C29.7104492,4.61474609 29.4472656,4.90478516 29.4472656,5.39892578 L29.4472656,11.0708008 C29.4472656,11.6938477 29.7641602,12 30.4140625,12 L33.4433594,12 Z M35.6723633,12.0537109 C36.1289062,12.0537109 36.3920898,11.7636719 36.3920898,11.2695312 L36.3920898,5.39892578 C36.3920898,4.90478516 36.1235352,4.61474609 35.6669922,4.61474609 C35.2050781,4.61474609 34.9418945,4.90478516 34.9418945,5.39892578 L34.9418945,11.2695312 C34.9418945,11.7636719 35.2104492,12.0537109 35.6723633,12.0537109 Z M43.0898438,12.0537109 C43.5517578,12.0537109 43.7988281,11.7583008 43.7988281,11.2104492 L43.7988281,5.3828125 C43.7988281,4.90478516 43.5410156,4.61474609 43.1113281,4.61474609 C42.6816406,4.61474609 42.4345703,4.89941406 42.4345703,5.3828125 L42.4345703,9.54541016 L42.3754883,9.54541016 L39.5610352,5.25927734 C39.2602539,4.81347656 39.0561523,4.61474609 38.7070312,4.61474609 C38.2128906,4.61474609 37.9604492,4.91552734 37.9604492,5.49023438 L37.9604492,11.2856445 C37.9604492,11.7636719 38.2128906,12.0537109 38.6425781,12.0537109 C39.0722656,12.0537109 39.3193359,11.769043 39.3193359,11.2856445 L39.3193359,7.09619141 L39.378418,7.09619141 L42.2197266,11.4306641 C42.5366211,11.9086914 42.7407227,12.0537109 43.0898438,12.0537109 Z M49.5620117,12 C49.9433594,12 50.1904297,11.769043 50.1904297,11.4091797 C50.1904297,11.0493164 49.9433594,10.8129883 49.5620117,10.8129883 L46.8066406,10.8129883 L46.8066406,8.84716797 L49.4277344,8.84716797 C49.7714844,8.84716797 50.0024414,8.63232422 50.0024414,8.29394531 C50.0024414,7.95556641 49.7714844,7.73535156 49.4277344,7.73535156 L46.8066406,7.73535156 L46.8066406,5.85546875 L49.578125,5.85546875 C49.9433594,5.85546875 50.1904297,5.61914062 50.1904297,5.26464844 C50.1904297,4.91015625 49.9433594,4.66845703 49.578125,4.66845703 L46.3339844,4.66845703 C45.684082,4.66845703 45.3671875,4.97998047 45.3671875,5.59765625 L45.3671875,11.0708008 C45.3671875,11.6938477 45.684082,12 46.3339844,12 L49.5620117,12 Z" id="ONLINE" fill="#FFFFFF"></path>
        </g>
    </g>
</svg>