<?xml version="1.0" encoding="UTF-8"?>
<svg width="100px" height="16px" viewBox="0 0 100 16" version="1.1" xmlns="http://www.w3.org/2000/svg" xmlns:xlink="http://www.w3.org/1999/xlink">
    <title>CBM-deal</title>
    <g id="Symbols" stroke="none" stroke-width="1" fill="none" fill-rule="evenodd">
        <g id="Common-others/item-discount-label/CBM" transform="translate(-42.000000, -4.000000)" fill-rule="nonzero">
            <g id="item-discount-label" transform="translate(2.000000, 2.000000)">
                <g id="CBM-deal" transform="translate(40.000000, 2.000000)">
                    <path d="M8,0 L92,0 C96.418278,-8.11624501e-16 100,3.581722 100,8 C100,12.418278 96.418278,16 92,16 L8,16 C3.581722,16 5.41083001e-16,12.418278 0,8 C-5.41083001e-16,3.581722 3.581722,8.11624501e-16 8,0 Z" id="Rectangle" fill="#303846"></path>
                    <polygon id="Path-2" fill="#FFFFFF" points="7.22092503 4 12 4 9.39450542 7.63354949 12 7.63354949 7.47011774 14 8.78404292 9.60350117 6 9.60350117"></polygon>
                    <path d="M19.6362305,12.1611328 C20.5224609,12.1611328 21.2636719,11.9194336 21.7900391,11.5112305 C22.2573242,11.1621094 22.5473633,10.6894531 22.5473633,10.2651367 C22.5473633,9.84082031 22.2519531,9.55078125 21.8168945,9.55078125 C21.5429688,9.55078125 21.3496094,9.65283203 21.0649414,9.94824219 C20.6835938,10.4316406 20.2646484,10.6572266 19.7436523,10.6572266 C18.7661133,10.6572266 18.2290039,9.94287109 18.2290039,8.62158203 L18.2290039,7.98779297 C18.2290039,6.74707031 18.7768555,6.03271484 19.7436523,6.03271484 C20.2592773,6.03271484 20.6352539,6.25830078 21.0380859,6.75244141 C21.3173828,7.03710938 21.5268555,7.14453125 21.8115234,7.14453125 C22.2412109,7.14453125 22.5366211,6.85986328 22.5366211,6.43017578 C22.5366211,6.09716797 22.3217773,5.67822266 21.9672852,5.33447266 C21.440918,4.82421875 20.5922852,4.53417969 19.6362305,4.53417969 C17.6166992,4.53417969 16.4511719,5.79638672 16.4511719,7.90722656 L16.4511719,8.70214844 C16.4511719,10.9042969 17.5844727,12.1611328 19.6362305,12.1611328 Z M26.0708008,12.0537109 C26.6079102,12.0537109 26.9677734,11.6884766 26.9516602,11.1621094 L26.9194336,9.24462891 L28.7832031,6.15625 C28.9926758,5.80712891 29.0786133,5.58691406 29.0786133,5.37207031 C29.0786133,4.93701172 28.7348633,4.60400391 28.2836914,4.60400391 C27.9291992,4.60400391 27.6445312,4.81884766 27.4189453,5.25390625 L26.0976562,7.703125 L26.0332031,7.703125 L24.7495117,5.24853516 C24.5131836,4.79199219 24.2661133,4.60400391 23.8847656,4.60400391 C23.3959961,4.60400391 23.0629883,4.92626953 23.0629883,5.40429688 C23.0629883,5.61376953 23.1381836,5.82324219 23.3208008,6.12939453 L25.2114258,9.24462891 L25.1738281,11.1621094 C25.1577148,11.6884766 25.5229492,12.0537109 26.0708008,12.0537109 Z M33.2895508,12 C34.8203125,12 35.8408203,11.1674805 35.8408203,9.92138672 C35.8408203,8.93310547 35.1640625,8.21337891 34.1811523,8.14892578 L34.1811523,8.06835938 C34.9868164,7.91796875 35.4916992,7.30566406 35.4916992,6.46777344 C35.4916992,5.36132812 34.621582,4.66845703 33.2358398,4.66845703 L31.0175781,4.66845703 C30.3461914,4.66845703 29.9863281,5.02832031 29.9863281,5.68359375 L29.9863281,10.9848633 C29.9863281,11.6455078 30.3461914,12 31.0175781,12 L33.2895508,12 Z M32.5966797,7.64941406 L31.7426758,7.64941406 L31.7426758,5.92529297 L32.784668,5.92529297 C33.4023438,5.92529297 33.7568359,6.25830078 33.7568359,6.77392578 C33.7568359,7.29492188 33.4077148,7.64941406 32.5966797,7.64941406 Z M32.6933594,10.7431641 L31.7426758,10.7431641 L31.7426758,8.78808594 L32.8706055,8.78808594 C33.644043,8.78808594 34.0361328,9.18017578 34.0361328,9.77636719 C34.0361328,10.3725586 33.644043,10.7431641 32.6933594,10.7431641 Z M41.1958008,12 C41.6308594,12 41.9208984,11.7260742 41.9208984,11.2963867 C41.9208984,10.8720703 41.6308594,10.5927734 41.2011719,10.5927734 L38.6230469,10.5927734 L38.6230469,8.95996094 L41.09375,8.95996094 C41.4750977,8.95996094 41.7329102,8.70751953 41.7329102,8.31542969 C41.7329102,7.92871094 41.4750977,7.66015625 41.09375,7.66015625 L38.6230469,7.66015625 L38.6230469,6.07568359 L41.2226562,6.07568359 C41.6308594,6.07568359 41.9208984,5.79101562 41.9208984,5.37744141 C41.9208984,4.95849609 41.6308594,4.66845703 41.2226562,4.66845703 L37.8979492,4.66845703 C37.2265625,4.66845703 36.8666992,5.02832031 36.8666992,5.68359375 L36.8666992,10.9848633 C36.8666992,11.6455078 37.2265625,12 37.8979492,12 L41.1958008,12 Z M43.902832,12.0537109 C44.4667969,12.0537109 44.7783203,11.7099609 44.7783203,11.0976562 L44.7783203,9.39501953 L45.8310547,9.39501953 L46.7978516,11.2802734 C47.0878906,11.8496094 47.3349609,12.0429688 47.8022461,12.0429688 C48.3178711,12.0429688 48.6831055,11.6992188 48.6831055,11.2104492 C48.6831055,11.0224609 48.6347656,10.8183594 48.5380859,10.6518555 L47.5820312,8.95996094 C48.3769531,8.58935547 48.828125,7.86425781 48.828125,6.94042969 C48.828125,5.53320312 47.8183594,4.66845703 46.1748047,4.66845703 L44.2358398,4.66845703 C43.3925781,4.66845703 43.0004883,5.08203125 43.0004883,5.95214844 L43.0004883,11.0976562 C43.0004883,11.7045898 43.328125,12.0537109 43.902832,12.0537109 Z M45.9331055,8.13818359 L44.7783203,8.13818359 L44.7783203,6.07568359 L45.9331055,6.07568359 C46.6420898,6.07568359 47.0664062,6.44628906 47.0664062,7.1015625 C47.0664062,7.76757812 46.6367188,8.13818359 45.9331055,8.13818359 Z M58.7700195,12.0537109 C59.2856445,12.0537109 59.5810547,11.715332 59.5810547,11.1298828 L59.5810547,5.75878906 C59.5810547,5.02832031 59.199707,4.609375 58.5336914,4.609375 C57.9804688,4.609375 57.6635742,4.85644531 57.3413086,5.54931641 L55.8803711,8.83105469 L55.8212891,8.83105469 L54.3603516,5.5546875 C54.0380859,4.86181641 53.7158203,4.609375 53.1733398,4.609375 C52.5180664,4.609375 52.1098633,5.04443359 52.1098633,5.75878906 L52.1098633,11.1298828 C52.1098633,11.7314453 52.378418,12.0537109 52.8886719,12.0537109 C53.4042969,12.0537109 53.699707,11.715332 53.699707,11.1298828 L53.699707,7.43994141 L53.7856445,7.43994141 L55.0263672,10.2114258 C55.2734375,10.7431641 55.4882812,10.9311523 55.8535156,10.9311523 C56.2133789,10.9311523 56.4174805,10.7539062 56.6699219,10.2114258 L57.9106445,7.43994141 L57.996582,7.43994141 L57.996582,11.1298828 C57.996582,11.7314453 58.2651367,12.0537109 58.7700195,12.0537109 Z M63.9799805,12.1611328 C66.015625,12.1611328 67.2133789,10.8989258 67.2133789,8.80419922 L67.2133789,7.92871094 C67.2133789,5.81787109 66.015625,4.53417969 63.9799805,4.53417969 C61.9443359,4.53417969 60.7412109,5.8125 60.7412109,7.92871094 L60.7412109,8.80419922 C60.7412109,10.8935547 61.9335938,12.1611328 63.9799805,12.1611328 Z M63.9799805,10.7109375 C63.0615234,10.7109375 62.519043,10.0019531 62.519043,8.80419922 L62.519043,7.91796875 C62.519043,6.70410156 63.0615234,5.984375 63.9799805,5.984375 C64.8876953,5.984375 65.4355469,6.70410156 65.4355469,7.91796875 L65.4355469,8.80419922 C65.4355469,10.0019531 64.8930664,10.7109375 63.9799805,10.7109375 Z M73.5942383,12.0537109 C74.1367188,12.0537109 74.4267578,11.7099609 74.4267578,11.0654297 L74.4267578,5.53857422 C74.4267578,4.95849609 74.1152344,4.61474609 73.5942383,4.61474609 C73.0786133,4.61474609 72.777832,4.95849609 72.777832,5.53857422 L72.777832,9.00830078 L72.7080078,9.00830078 L70.2373047,5.32373047 C69.8828125,4.80810547 69.6572266,4.61474609 69.2651367,4.61474609 C68.6796875,4.61474609 68.3842773,4.96923828 68.3842773,5.65673828 L68.3842773,11.1298828 C68.3842773,11.7045898 68.6904297,12.0537109 69.2114258,12.0537109 C69.7324219,12.0537109 70.027832,11.7099609 70.027832,11.1298828 L70.027832,7.6171875 L70.0976562,7.6171875 L72.5898438,11.3500977 C72.9550781,11.887207 73.1967773,12.0537109 73.5942383,12.0537109 Z M78.7397461,12 C80.8989258,12 82.0537109,10.7216797 82.0537109,8.33154297 C82.0537109,5.94677734 80.8989258,4.66845703 78.7397461,4.66845703 L76.8974609,4.66845703 C76.2260742,4.66845703 75.8608398,5.02294922 75.8608398,5.68359375 L75.8608398,10.9848633 C75.8608398,11.6455078 76.2260742,12 76.8974609,12 L78.7397461,12 Z M78.4658203,10.5874023 L77.6386719,10.5874023 L77.6386719,6.07568359 L78.4658203,6.07568359 C79.6850586,6.07568359 80.2382812,6.77929688 80.2382812,8.33154297 C80.2382812,9.88916016 79.6850586,10.5874023 78.4658203,10.5874023 Z M88.1606445,12.059082 C88.6708984,12.059082 89.0039062,11.7583008 89.0039062,11.2910156 C89.0039062,11.1030273 88.9555664,10.8881836 88.8588867,10.5874023 L87.2421875,5.83398438 C86.9467773,4.95849609 86.5385742,4.61474609 85.7651367,4.61474609 C84.9916992,4.61474609 84.5727539,4.96386719 84.2827148,5.83398438 L82.6606445,10.5874023 C82.5371094,10.9472656 82.4887695,11.1513672 82.4887695,11.3286133 C82.4887695,11.7583008 82.8217773,12.059082 83.3051758,12.059082 C83.777832,12.059082 84.0302734,11.8173828 84.2075195,11.1943359 L84.4921875,10.3188477 L86.9575195,10.3188477 L87.2368164,11.1943359 C87.4140625,11.8012695 87.6879883,12.059082 88.1606445,12.059082 Z M86.5976562,9.03515625 L84.8574219,9.03515625 L85.6899414,6.25830078 L85.7758789,6.25830078 L86.5976562,9.03515625 Z M91.8613281,12.0537109 C92.3984375,12.0537109 92.7583008,11.6884766 92.7421875,11.1621094 L92.7099609,9.24462891 L94.5737305,6.15625 C94.7832031,5.80712891 94.8691406,5.58691406 94.8691406,5.37207031 C94.8691406,4.93701172 94.5253906,4.60400391 94.0742188,4.60400391 C93.7197266,4.60400391 93.4350586,4.81884766 93.2094727,5.25390625 L91.8881836,7.703125 L91.8237305,7.703125 L90.5400391,5.24853516 C90.3037109,4.79199219 90.0566406,4.60400391 89.675293,4.60400391 C89.1865234,4.60400391 88.8535156,4.92626953 88.8535156,5.40429688 C88.8535156,5.61376953 88.9287109,5.82324219 89.1113281,6.12939453 L91.0019531,9.24462891 L90.9643555,11.1621094 C90.9482422,11.6884766 91.3134766,12.0537109 91.8613281,12.0537109 Z" id="CYBERMONDAY" fill="#FFFFFF"></path>
                </g>
            </g>
        </g>
    </g>
</svg>