<svg xmlns="http://www.w3.org/2000/svg" width="68" height="20" fill="none"><path fill="url(#a)" d="M.16 9.569c1.2-1.144 2.157-4.71 2.695-7.15C3.165 1.013 4.479 0 6.007 0h52.055a9.94 9.94 0 0 1 7.028 16.966 9.94 9.94 0 0 1-7.028 2.911H6.007c-1.528 0-2.84-1.014-3.152-2.421-.538-2.434-1.495-6.004-2.696-7.15A.5.5 0 0 1 0 9.939a.504.504 0 0 1 .159-.369z"/><g fill="#fff" clip-path="url(#b)"><path d="M9.284 12.773a3.35 3.35 0 0 1 3.346-3.346c.788 0 1.52.264 2.118.764l.507-.606a4.045 4.045 0 0 0-2.625-.948 4.14 4.14 0 0 0-4.136 4.136v1.962c0 .219.177.396.395.396h6.297v-.79H9.284v-1.568z"/><path d="M12.63 4a2.717 2.717 0 0 0-2.714 2.713c0 1.497 1.218 2.714 2.714 2.714s2.713-1.217 2.713-2.713A2.714 2.714 0 0 0 12.63 4zm0 4.637a1.926 1.926 0 0 1-1.923-1.924c0-1.06.863-1.923 1.923-1.923s1.923.863 1.923 1.923-.863 1.924-1.923 1.924zm6.667 1.39-2.502-1.343a.393.393 0 0 0-.378.002l-2.437 1.343a.395.395 0 0 0-.204.346v1.897a3.88 3.88 0 0 0 2.33 3.55l.33.145a.397.397 0 0 0 .309.003l.383-.158h.001a3.859 3.859 0 0 0 2.377-3.566v-1.87c0-.146-.08-.28-.209-.349zm-.582 2.219a3.068 3.068 0 0 1-1.89 2.836l-.225.093-.176-.077a3.09 3.09 0 0 1-1.858-2.826V10.61l2.045-1.127 2.104 1.13v1.634z"/><path d="M18.086 11.548a.394.394 0 0 0-.556-.056l-1.227 1.005-.408-.48a.395.395 0 0 0-.603.511l.659.777a.396.396 0 0 0 .552.05l1.528-1.251a.394.394 0 0 0 .055-.556z"/></g><path fill="#fff" d="M24.408 10.22h.912V14h2.244c.756 0 1.404-.108 1.956-.336.54-.216.996-.516 1.356-.9.36-.384.624-.84.804-1.356.168-.516.252-1.08.252-1.668v-.108c0-.6-.084-1.152-.264-1.668s-.444-.96-.804-1.332a3.862 3.862 0 0 0-1.356-.888c-.54-.216-1.188-.324-1.92-.324H25.32v3.96h-.912v.84zm1.956 2.928V10.22h1.956v-.84h-1.956V6.26h1.164c.588 0 1.104.084 1.524.24.42.168.756.396 1.032.696.264.3.456.66.588 1.068.12.42.18.876.18 1.368v.096c0 .528-.072.996-.204 1.416-.144.42-.348.78-.624 1.08-.276.3-.624.528-1.032.684-.42.156-.9.24-1.452.24h-1.176zm9.238 3.444a.69.69 0 0 0 .504-.216c.132-.132.204-.3.204-.492s-.072-.36-.204-.504c-.144-.132-.312-.204-.504-.204s-.36.072-.492.204c-.144.144-.216.312-.216.504s.072.36.216.492c.132.144.3.216.492.216zm-.432-2.484c.468 0 .852-.072 1.152-.228.3-.156.576-.372.804-.672V14h.996V9.86c0-.444-.06-.804-.192-1.092a2.043 2.043 0 0 0-.504-.696 1.902 1.902 0 0 0-.732-.36 4.055 4.055 0 0 0-.864-.096c-.3 0-.6.036-.876.096-.288.072-.54.18-.768.336-.228.156-.42.36-.564.612-.156.252-.24.552-.276.912h.996c.096-.756.576-1.128 1.44-1.128.48 0 .828.108 1.032.324.204.228.312.588.312 1.092v.456h-.9c-.396 0-.792.036-1.164.096-.384.072-.72.18-1.008.336a1.93 1.93 0 0 0-.708.6c-.18.252-.264.552-.264.912 0 .324.06.6.168.828.108.228.252.42.444.576.18.156.408.264.66.336.252.072.528.108.816.108zm.096-.792c-.444 0-.744-.096-.924-.288-.18-.18-.264-.444-.264-.768 0-.228.06-.432.168-.588.108-.156.252-.276.456-.372.192-.096.42-.168.696-.216a6.37 6.37 0 0 1 .864-.06h.864v.78c0 .24-.048.456-.144.636a1.51 1.51 0 0 1-.384.48c-.168.132-.36.228-.588.288-.228.072-.48.108-.744.108zm4.836.684h.996V7.724h-.996V14zm.48-7.5a.69.69 0 0 0 .504-.216c.132-.132.204-.3.204-.492s-.072-.36-.204-.504c-.144-.132-.312-.204-.504-.204s-.36.072-.492.204c-.144.144-.216.312-.216.504s.072.36.216.492c.132.144.3.216.492.216zm7.675 7.608c.768 0 1.344-.18 1.728-.528.384-.348.576-.804.576-1.38 0-.336-.048-.612-.156-.828a1.45 1.45 0 0 0-.456-.516 2.743 2.743 0 0 0-.708-.312 12.318 12.318 0 0 0-.888-.204 4.774 4.774 0 0 1-.708-.168c-.192-.06-.348-.12-.456-.204a.534.534 0 0 1-.228-.264.801.801 0 0 1-.072-.36c0-.276.108-.492.324-.66.216-.156.504-.24.864-.24.396 0 .708.072.912.228.204.156.336.408.408.756h.96a2.16 2.16 0 0 0-.264-.852 1.76 1.76 0 0 0-.504-.564 2.032 2.032 0 0 0-.696-.312 3.514 3.514 0 0 0-.804-.084c-.252 0-.492.036-.744.108-.252.084-.48.192-.684.336a2.007 2.007 0 0 0-.504.552 1.49 1.49 0 0 0-.192.768c0 .276.036.504.12.708.072.204.192.372.36.516.168.144.396.264.672.36a5.57 5.57 0 0 0 1.032.264c.492.084.852.204 1.104.348.24.144.36.384.36.708 0 .336-.108.588-.324.744-.216.168-.564.252-1.044.252-.504 0-.864-.108-1.08-.324-.228-.216-.36-.516-.396-.888h-.972c.036.648.264 1.152.696 1.5.42.36 1.008.54 1.764.54zm8.105-9.036h-1.308l-.876 1.644h.888l1.296-1.644zm-2.16 9.036c.504 0 .924-.108 1.272-.336.336-.216.576-.468.72-.768V14h.996V8.492c.408-.072.72-.252.948-.54.216-.276.324-.696.324-1.236h-.936c0 .588-.204.924-.624 1.008h-.708v3.804c0 .276-.048.528-.144.744a1.63 1.63 0 0 1-.384.54 1.597 1.597 0 0 1-.552.324c-.204.072-.42.108-.648.108-.492 0-.864-.132-1.092-.384-.24-.252-.36-.66-.36-1.212V7.724h-.996v3.972c0 .432.06.804.168 1.104.108.3.264.552.456.744.192.204.42.348.696.432.264.084.552.132.864.132z"/><defs><linearGradient id="a" x1="59.297" x2="-.001" y1="9.938" y2="9.938" gradientUnits="userSpaceOnUse"><stop stop-color="#06C"/><stop offset="1" stop-color="#39F"/></linearGradient><clipPath id="b"><path fill="#fff" d="M8 4h12v12H8z"/></clipPath></defs></svg>