<?xml version="1.0" encoding="utf-8"?>
<!-- Generator: Adobe Illustrator 21.0.0, SVG Export Plug-In . SVG Version: 6.00 Build 0)  -->
<svg version="1.1" id="Layer_1" xmlns="http://www.w3.org/2000/svg" xmlns:xlink="http://www.w3.org/1999/xlink" x="0px" y="0px"
	 viewBox="0 0 128.3 101.8" style="enable-background:new 0 0 128.3 101.8;" xml:space="preserve">
<style type="text/css">
	.st0{fill:url(#XMLID_2_);}
	.st1{fill:url(#XMLID_3_);}
</style>
<g id="XMLID_35_">
	
		<linearGradient id="XMLID_2_" gradientUnits="userSpaceOnUse" x1="64.4287" y1="48.844" x2="128.0271" y2="48.844" gradientTransform="matrix(1 0 0 -1 0 103.4125)">
		<stop  offset="0" style="stop-color:#BD2A36"/>
		<stop  offset="0.4882" style="stop-color:#9A4599"/>
		<stop  offset="1" style="stop-color:#214181"/>
	</linearGradient>
	<path id="XMLID_43_" class="st0" d="M122.4,11.3l-3.5-2.4l-0.8,0.2c0.2-1.2-0.4-1.4-0.4-1.4c-0.1-0.6-0.8-0.2-0.8-0.2
		s-0.2-0.1-0.7-0.1c-0.3,0-1.4,0.7-2.6,1.2c-0.6,0.3-1.1,0.8-1.3,1.2c-0.2,0.4-1,1.3-1,1.3c-0.7,0.1-0.6,0.8-0.6,0.8
		c-0.5,0.1-0.5,0.7-0.5,0.7c-0.5,0.4,0,1,0,1s-2.8,4.7-3.9,7.3c-1.1,2.7-1.8,5.8-2.7,6.5c-0.9,0.6-2.3,2.6-2.3,2.6
		c-0.3,0.1-1-0.1-1-0.1c0.2-0.6,0.3-1.3-2.8-6.4S91,21.3,91,21.3c-3.9,1.8-2.6,6-2.6,6c-0.5-1.5-4.2-5.2-4.6-5.6S78,16,77.1,15.1
		c-0.9-0.9-3.4-1.1-4.6-1s-2.5-0.2-3,0.2c-0.3,0.3-0.2,1.4,0.1,1.8c0.1,0.2,0.8,0.4,0.8,0.4L70,17.2l-0.7-0.1l-1.5,1.1l-3.4,12.1
		l5.6,1.4l1.4-9.1l6.9,9.7l3.9-4l-7.3-8.6l-1.2-0.5l-1.3-2.6c0,0,2.5-0.5,3.2-0.4s7,7.8,7.7,9s5.9,8.6,5.9,8.6s1,1.9,2.8,5.5
		c1.7,3.6,0.7,7.4,0.7,7.4s-0.9,1.1-1.2,1.7c-2.2,3.2-3.9,6.4-3.9,9.7c0,1.8,1,6.7,1,6.7H89l0.2,2.7c0,0-0.9-0.3-1.1-0.6
		c-0.2-0.4,0.2-1.3,0.2-2.4s-1.6-1-1.9-0.6s-1.4,2.1-2.1,4c-0.7,1.8,0.4,3.8,1.4,3.6c1.1-0.3,1-1.3,1-1.3s1.5,2.2,2.8,4
		s3.1,1.7,4.4,0.6s1.1-9.7,1.1-9.7h1.5c0,0,0.2,4,0.4,5.3c0.2,1.5,1.1,5.9,1.1,5.9c-0.9,2.6-0.5,15.4-0.5,15.4
		c-0.3,0-0.8,1.3-1.3,3.1c-0.2,0.7,0,3.4,0,3.8c0,0,0,1.4,0.4,2.2c0.8,1.6,2.9,0.9,3.2,0c0.2-0.5-0.2-5.3,0.6-8.4
		c0.7-3,2.1-13.3,1.9-15.5c0.1-2.2,0.7-11.4,0.7-11.4l0.6-0.3c0.5-1.9,0.1-14.1,0.1-14.1s2.2-10.1,2.1-12.4s0.3-5.5,0.7-7.1
		c1.6-2.9,3.2-10.2,3.2-10.2c1.2-1.7,3-6.9,3-6.9c0.4,0.1,0.7-0.1,0.7-0.1l-1.1,7.7l0.8,2.9l5.7,0.5l0.1-10.7l2,6.9l2.4,2.3l5-2.8
		L122.4,11.3z M71,16.6l0.3,0.1v0.8l-0.7-0.2L71,16.6z M73,19.1l-1-0.4v-1l-0.3-0.1l-0.1-0.9h0.1L73,19.1z M113.8,12.8
		c0,0,0.2-0.1,0.2-0.5c0-0.2-0.2-0.4-0.2-0.4l0.3-0.5c0,0,1.1-0.9,1.9-0.9l-1.2,2.4L113.8,12.8z M115.3,12.8l1.2-2.4h0.2l0.3,2.4
		H115.3z M117.2,12.8l-0.3-2.5h0.2l0.8,2.5H117.2z"/>
	
		<linearGradient id="XMLID_3_" gradientUnits="userSpaceOnUse" x1="0" y1="62.203" x2="68.3288" y2="62.203" gradientTransform="matrix(1 0 0 -1 0 103.4125)">
		<stop  offset="0" style="stop-color:#BD2A36"/>
		<stop  offset="0.4882" style="stop-color:#9A4599"/>
		<stop  offset="1" style="stop-color:#214181"/>
	</linearGradient>
	<path id="XMLID_36_" class="st1" d="M68.3,30.9l-5.9-15.2L62,15.8L61.8,15c0.2-0.1,0.9-0.4,0.8-1.5c0-0.5,0-1-0.1-1.1
		c-0.4-0.3-0.6,0.2-0.6,0.2c0.1-0.3,0.2-0.8-0.3-1S61,11.8,61,11.8c0-0.4-0.1-0.6-0.7-0.7c-0.2,0-0.4,0.1-0.5,0.2
		c-0.2,0-0.5,0-0.7-0.1c-0.3,0-0.8,0.6-1.2,1.2c-0.1,0.1-0.2,0.2-0.3,0.3c-0.2,0.2-0.3,0.8-0.3,1.4c0,0.3,0,0.6,0,0.8
		c0,0.1,0,0.1,0,0.2l-5.9,8.6l-4.8,2l-0.2-0.3L40,25.7c0,0-0.2,0-0.6-0.1c-0.1-0.2-0.1-0.3-0.1-0.4c0.3-0.6,2,0.3,2.3-0.7
		c1.1-2.8,0.5-3.6,0.1-6.5c0-0.2-0.2-0.5-0.1-0.7c1.4-5.3-2-3.3-3.8-3.2c-2.4,0.1-5.8,1.9-5.3,5.6c0.2,1.8,0.6,2.5,1.3,3.1
		c0.4,0.4,0.7,0.9,0.8,1.4c-1.5-0.7-2.9-1.6-3.7-2.8c-0.8-1.4-4-4.2-4-4.2l-0.3,0.2c-0.2-0.1-2.4-2.4-2.4-2.4
		c-0.4-2-3.5-9.2-3.5-9.8s0.1-2.8,0.1-3c0-0.1,0.3-1-0.7-1.6C19.7,0.3,19.4,0,19.2,0C18.7,0.1,19,0.5,19,0.5c-0.2-0.3-0.5-0.7-1-0.4
		c-0.4,0.3-0.2,0.6-0.2,0.6c-0.3-0.2-0.6-0.3-0.9,0.1c-0.3,0.3,0,0.8,0,0.8S16.6,1.7,16.4,2c-0.1,0.1,0,0.3,0,0.5l-2.1,1.9l-1-0.4
		L4.4,19l4.4,1.4H10l-1,4.1l8.2,1.5v-1.6H22l-0.5-8.1c0.2,0.6,0.4,1,0.5,1.1c0.5,0.9,2.4,3.4,2.4,3.4L24,22.3c0,0,3.6,3.4,4.1,4.7
		c0.2,4.1,2.5,9.1,1.1,16.2C29.1,43.8,28,47,28,47l1.3,0.9c-0.5,0.8-1,2.9-1.1,4c0,1.2-0.3,3.3-0.9,5.1c-0.6,1.8-1.3,4.3-1.3,4.3
		l0.7,0.3l-2,3.8c-2.8-2.5-6.5-1.6-7.2-1.5c-1.2,0.1-6.4,0.1-7.6,0c-0.1,0,0-0.2,0-0.2l-0.2-0.1c-0.7-0.2-1.2-0.7-2.2-0.9l0,0l0,0
		c-0.1,0-0.2,0-0.3,0c-0.1,0-0.2,0-0.3,0c-0.5,0-1.1,0.2-1.5,0.6c-0.7,0.7-1,1.4-1.6,2C3.6,65.8,2,67.1,1,68.2
		c-0.4,0.4-2.1,3.9,0,3.8c0.2,0,0.5-0.1,0.9-0.2l0,0l0,0c0.5-0.2,1.2-0.5,2-1.2c2.6-2.2,5.3-2.4,5.3-2.4s0-0.3,0.1-0.3
		c0.6,0,1.3,0,1.8,0.1c1.9,0.4,10,2.3,12.5,3s4.3-0.3,5.2-1c0.9-0.7,4.3-7.2,4.3-7.2l1.4,0.2c0,0,0.8-2.6,2.5-2.5s3.4,5.4,3.4,5.4
		l0.6-0.2l0.6,2.5c-0.7,0.5-1,2.1-1.2,2.9s-1.6,2.2-1.6,2.2c-0.5-0.1-1.1,0.1-1.5,0.5l0,0l0,0c-0.1,0.1-0.1,0.1-0.2,0.2
		c-0.1,0.2-0.2,0.4-0.3,0.6c-0.2,0.4-0.4,0.8-0.4,1c0.1,0.5,1.1,2.1,1.5,2.5c0.3,0.3,0.8,2.3,1,3l0,0v0.1l0,0c0.7,1.6,4,1.6,3.6,0.1
		c-0.3-1.3-0.1-1.6-0.9-5.4c0,0,0.1-0.2,0.2-0.4c0,0-0.2-0.2-0.1-0.3c0.1-0.2,0.2-0.2,0.8-0.6c1.1-0.5,4.5-3.2,4.8-4.2
		s-0.1-6.6-0.1-6.6l0.9-0.5c0,0-1.7-7.5-1.9-9.2s0.4-3.1,0.4-3.9c0.1-1.4-1.6-2.6-1.6-2.6l0.9-1.1c0,0-2.3-7-2.4-8.5
		c-0.1-1.8,0.3-6.1,0.3-6.1l2.3-0.5l0.5-1c0.9-0.3,7.4-4.5,8-5.3c0.4-0.5,2.4-4.4,3.7-7.3l-3.1,14.9l5.6,0.8l0.1-5.8l1,4.8
		L68.3,30.9z M17.4,6.1L17.8,5c0.1,0,0.1,0.1,0.2,0.1l-0.3,1l0,0H17.4z M16.6,3.2c0,0.1,0,0.3,0.1,0.5c0,0.2,0.3,0.6,0.7,0.9L17,5.3
		l-1.9-0.8L16.6,3.2z M17.9,7.8l0.5-2.1c0,0.7,0.2,1.5,0.4,2.4L17.9,7.8z M60.3,16v0.2l-0.5,0.1C60,16.3,60.2,16.2,60.3,16z
		 M61,15.6c0.1-0.1,0.3-0.2,0.4-0.3l0.1,0.6L61,16.1V15.6z"/>
</g>
</svg>
