<svg id="Group_340" data-name="Group 340" xmlns="http://www.w3.org/2000/svg" xmlns:xlink="http://www.w3.org/1999/xlink" viewBox="0 0 120 120">
  <defs>
    <style>
      .cls-1 {
        clip-path: url(#clip-path);
      }

      .cls-2, .cls-3, .cls-4, .cls-6 {
        fill: #e1e1e1;
      }

      .cls-2 {
        opacity: 0.1;
      }

      .cls-3, .cls-5 {
        opacity: 0.6;
      }

      .cls-4, .cls-7 {
        opacity: 0.3;
      }
    </style>
    <clipPath id="clip-path">
      <rect id="Rectangle_1367" data-name="Rectangle 1367" width="120" height="120"/>
    </clipPath>
  </defs>
  <g id="Group_309" data-name="Group 309" class="cls-1">
    <path id="Path_1349" data-name="Path 1349" class="cls-2" d="M17.8,59.1A1.851,1.851,0,1,1,15.5,62a1.793,1.793,0,0,1-.3-2.6A1.983,1.983,0,0,1,17.8,59.1Z"/>
    <path id="Path_1350" data-name="Path 1350" class="cls-3" d="M54.4,47.7l.9,3.7-5.4,1.4-5.4,1.5-1-3.6Z"/>
    <path id="Path_1351" data-name="Path 1351" class="cls-2" d="M83.3,41.2a1.838,1.838,0,1,1-2.4,1A1.879,1.879,0,0,1,83.3,41.2Z"/>
    <path id="Path_1352" data-name="Path 1352" class="cls-4" d="M90.9,52.4A3.846,3.846,0,0,1,93,57.3l-2.1,5.2L77,56.9,63.1,51.3l2.1-5.2A3.885,3.885,0,0,1,70.1,44Z"/>
    <path id="Path_1353" data-name="Path 1353" class="cls-3" d="M90.9,52.4,70,44a3.8,3.8,0,0,0-4.9,2.1l-.4,1a3.708,3.708,0,0,1,3.9-.7l20.9,8.4a3.846,3.846,0,0,1,2.1,4.9l-1.1,2.8.3.1,2.1-5.2A3.609,3.609,0,0,0,90.9,52.4Z"/>
    <path id="Path_1354" data-name="Path 1354" class="cls-4" d="M33.2,54.6l4.4,3.5L28.4,69.9,19.2,81.7l-4.4-3.5a3.789,3.789,0,0,1-.6-5.3L28,55.2A3.669,3.669,0,0,1,33.2,54.6Z"/>
    <path id="Path_1355" data-name="Path 1355" class="cls-2" d="M17.1,79.6a3.789,3.789,0,0,1-.6-5.3L30.4,56.5a3.7,3.7,0,0,1,3.8-1.3l-.8-.6a3.726,3.726,0,0,0-5.3.7L14.1,73a3.8,3.8,0,0,0,.6,5.3l4.4,3.5.2-.3Z"/>
    <g id="Group_306" data-name="Group 306" class="cls-5">
      <path id="Path_1356" data-name="Path 1356" class="cls-6" d="M46.4,141.2l2.3-11.3a37.481,37.481,0,0,0,8.8,2h0l-5.2,9.6C49.4,146.6,45.8,143.8,46.4,141.2Z"/>
      <path id="Path_1357" data-name="Path 1357" class="cls-6" d="M89.5,119l7.6,8.6c1.8,2,.1,6.2-5,3.3l-9.3-5.8a35.515,35.515,0,0,0,6.7-6.1Z"/>
    </g>
    <g id="Group_307" data-name="Group 307" class="cls-7">
      <path id="Path_1358" data-name="Path 1358" class="cls-6" d="M62.9,94a1.7,1.7,0,0,1-.2,1.4h0a2.445,2.445,0,0,1-1.1.9A1.868,1.868,0,1,1,62.9,94Z"/>
      <path id="Path_1359" data-name="Path 1359" class="cls-6" d="M82.9,125.1a38.521,38.521,0,0,1-12.1,5.7,37.9,37.9,0,0,1-13.3,1.1,33.082,33.082,0,0,1-8.8-2,37.48,37.48,0,0,1-17.6-58,37.4,37.4,0,0,1,44.6-12A37.61,37.61,0,0,1,89.5,119,38.237,38.237,0,0,1,82.9,125.1ZM69.3,63.7a31.827,31.827,0,0,0-16.5,0A31.138,31.138,0,0,0,38.5,72a32.344,32.344,0,0,0-8.3,14.3,31.827,31.827,0,0,0,0,16.5,31.855,31.855,0,0,0,22.6,22.5,31.827,31.827,0,0,0,16.5,0A31.138,31.138,0,0,0,83.6,117a31.772,31.772,0,0,0,8.3-30.8,31.138,31.138,0,0,0-8.3-14.3A31.62,31.62,0,0,0,69.3,63.7Z"/>
    </g>
    <path id="Path_1360" data-name="Path 1360" class="cls-2" d="M59.3,131.4a33.082,33.082,0,0,1-8.8-2A37.525,37.525,0,0,1,52.2,58c-.3.1-.6.1-.9.2a37.638,37.638,0,0,0,6.2,73.7,37.9,37.9,0,0,0,13.3-1.1l.9-.3A37.532,37.532,0,0,1,59.3,131.4Z"/>
    <path id="Path_1361" data-name="Path 1361" class="cls-3" d="M81,125.6a34.908,34.908,0,0,0,6.6-6.1,37.652,37.652,0,0,0,7.8-34.2A37.506,37.506,0,0,0,50.3,58.6l.9-.3A37.713,37.713,0,0,1,97.3,84.8,37.652,37.652,0,0,1,89.5,119a36.723,36.723,0,0,1-18.7,11.8c-.3.1-.6.1-.9.2A40.88,40.88,0,0,0,81,125.6Z"/>
    <path id="Path_1362" data-name="Path 1362" class="cls-2" d="M52.8,63.7a31.827,31.827,0,0,1,16.5,0A31.428,31.428,0,0,1,83.6,72a31.772,31.772,0,0,1,8.3,30.8,31.428,31.428,0,0,1-8.3,14.3A31.868,31.868,0,0,1,30.2,86.4a31.428,31.428,0,0,1,8.3-14.3A30.461,30.461,0,0,1,52.8,63.7Zm7.8,29a1.868,1.868,0,0,0,1,3.6,1.673,1.673,0,0,0,1.1-.9h0a2.2,2.2,0,0,0,.2-1.4A1.853,1.853,0,0,0,60.6,92.7Z"/>
    <g id="Group_308" data-name="Group 308">
      <path id="Path_1363" data-name="Path 1363" class="cls-6" d="M71,131.7a36.6,36.6,0,0,1-13.6,1.1,37.994,37.994,0,0,1-9-2A38.42,38.42,0,0,1,30.3,71.4a37.572,37.572,0,0,1,20.8-14,38.988,38.988,0,0,1,25,1.7,38.381,38.381,0,0,1,14.1,60.4,33.709,33.709,0,0,1-6.8,6.2A37.489,37.489,0,0,1,71,131.7ZM51.6,59.2A36.517,36.517,0,0,0,49,129a34.692,34.692,0,0,0,8.6,1.9,36.679,36.679,0,0,0,31.2-12.5A36.53,36.53,0,0,0,75.3,60.9,35.118,35.118,0,0,0,51.6,59.2Z"/>
      <path id="Path_1364" data-name="Path 1364" class="cls-6" d="M21,126.3a.905.905,0,0,1-1-.3A52.581,52.581,0,0,1,9.8,87.9a.906.906,0,1,1,1.8.2,51,51,0,0,0,9.9,36.8.948.948,0,0,1-.2,1.3C21.2,126.2,21.1,126.3,21,126.3Z"/>
      <path id="Path_1365" data-name="Path 1365" class="cls-6" d="M113.4,101.5H113a.9.9,0,0,1-.8-1,51.246,51.246,0,0,0-9.9-36.8.93.93,0,1,1,1.5-1.1A52.581,52.581,0,0,1,114,100.7C114.1,101.1,113.8,101.4,113.4,101.5Z"/>
      <path id="Path_1366" data-name="Path 1366" class="cls-6" d="M19.8,136.4a.806.806,0,0,1-.9-.3A60.445,60.445,0,0,1,3.7,79.5a.935.935,0,1,1,1.8.5,58.417,58.417,0,0,0,14.7,54.8.853.853,0,0,1,0,1.3C20.1,136.3,20,136.3,19.8,136.4Z"/>
      <path id="Path_1367" data-name="Path 1367" class="cls-6" d="M119.5,109.7H119a.921.921,0,0,1-.7-1.1,58.485,58.485,0,0,0-14.7-54.8.919.919,0,0,1,1.3-1.3,60.261,60.261,0,0,1,15.2,56.6C120.1,109.3,119.8,109.6,119.5,109.7Z"/>
      <path id="Path_1368" data-name="Path 1368" class="cls-6" d="M69.5,126.2A32.81,32.81,0,0,1,37.8,71.3a33.382,33.382,0,0,1,31.7-8.5,32.8,32.8,0,0,1,14.7,54.9A32.067,32.067,0,0,1,69.5,126.2ZM53,64.6a30.941,30.941,0,0,0,0,59.8,31.359,31.359,0,0,0,29.9-8A30.963,30.963,0,0,0,53,64.6Z"/>
      <path id="Path_1369" data-name="Path 1369" class="cls-6" d="M61.8,97.2a2.723,2.723,0,1,1,1.8-1.4c0,.1-.1.1-.1.2A2.981,2.981,0,0,1,61.8,97.2Zm-1-3.6a.921.921,0,0,0-.7,1.1,1,1,0,0,0,1.7.3v-.1a.878.878,0,0,0,.1-.7A.945.945,0,0,0,60.8,93.6Z"/>
      <path id="Path_1370" data-name="Path 1370" class="cls-6" d="M53.5,66.4a.921.921,0,0,1-1.1-.7L51.9,64a.922.922,0,0,1,1.8-.4l.5,1.8A.871.871,0,0,1,53.5,66.4Z"/>
      <path id="Path_1371" data-name="Path 1371" class="cls-6" d="M69.5,126.2a.921.921,0,0,1-1.1-.7l-.5-1.8a.922.922,0,0,1,1.8-.4l.5,1.8A.921.921,0,0,1,69.5,126.2Z"/>
      <path id="Path_1372" data-name="Path 1372" class="cls-6" d="M40.1,74.2a.959.959,0,0,1-.9-.2l-1.3-1.3a.758.758,0,0,1-.2-.4,1.086,1.086,0,0,1,.7-1.2.905.905,0,0,1,1,.3l1.2,1.2a.853.853,0,0,1,0,1.3C40.4,74.1,40.2,74.1,40.1,74.2Z"/>
      <path id="Path_1373" data-name="Path 1373" class="cls-6" d="M83.8,118a.959.959,0,0,1-.9-.2l-1.3-1.3a.919.919,0,1,1,1.3-1.3l1.3,1.3a.853.853,0,0,1,0,1.3C84.1,117.8,84,117.9,83.8,118Z"/>
      <path id="Path_1374" data-name="Path 1374" class="cls-6" d="M32.3,87.7h-.5L30,87.2a.982.982,0,1,1,.5-1.9l1.8.5A1.028,1.028,0,0,1,33,87,1.575,1.575,0,0,1,32.3,87.7Z"/>
      <path id="Path_1375" data-name="Path 1375" class="cls-6" d="M92.1,103.7h-.5l-1.8-.5a.982.982,0,0,1,.5-1.9l1.8.5a1.028,1.028,0,0,1,.7,1.2A.988.988,0,0,1,92.1,103.7Z"/>
      <path id="Path_1376" data-name="Path 1376" class="cls-6" d="M32.3,103.2l-1.8.5a.922.922,0,1,1-.4-1.8l1.8-.5a.921.921,0,0,1,1.1.7A.973.973,0,0,1,32.3,103.2Z"/>
      <path id="Path_1377" data-name="Path 1377" class="cls-6" d="M92.1,87.2l-1.8.5a.922.922,0,0,1-.4-1.8l1.8-.5a.921.921,0,0,1,1.1.7A1.033,1.033,0,0,1,92.1,87.2Z"/>
      <path id="Path_1378" data-name="Path 1378" class="cls-6" d="M38.7,118a.959.959,0,0,1-.9-.2.853.853,0,0,1,0-1.3l1.3-1.3a.919.919,0,1,1,1.3,1.3l-1.3,1.3C39,117.9,38.9,117.9,38.7,118Z"/>
      <path id="Path_1379" data-name="Path 1379" class="cls-6" d="M82.5,74.2a.959.959,0,0,1-.9-.2.853.853,0,0,1,0-1.3l1.3-1.3a.919.919,0,0,1,1.3,1.3L82.9,74A.758.758,0,0,1,82.5,74.2Z"/>
      <path id="Path_1380" data-name="Path 1380" class="cls-6" d="M53,126.2h-.5a.921.921,0,0,1-.7-1.1l.5-1.8a.922.922,0,0,1,1.8.4l-.5,1.8A.749.749,0,0,1,53,126.2Z"/>
      <path id="Path_1381" data-name="Path 1381" class="cls-6" d="M69,66.4h-.5a1.028,1.028,0,0,1-.7-1.2l.5-1.8a.988.988,0,0,1,.7-.7.921.921,0,0,1,1.1.7v.5l-.5,1.8A.661.661,0,0,1,69,66.4Z"/>
      <path id="Path_1382" data-name="Path 1382" class="cls-6" d="M60.8,93.6a.921.921,0,0,1-1.1-.7L53.9,71.2a.922.922,0,0,1,1.8-.4l5.8,21.7A.921.921,0,0,1,60.8,93.6Z"/>
      <path id="Path_1383" data-name="Path 1383" class="cls-6" d="M77.4,104.7a.878.878,0,0,1-.7-.1L62.2,96.3a.675.675,0,0,1-.4-.6,1.086,1.086,0,0,1,.7-1.2.778.778,0,0,1,.8.2L77.6,103a.952.952,0,0,1,.3,1.3A1,1,0,0,1,77.4,104.7Z"/>
      <path id="Path_1384" data-name="Path 1384" class="cls-6" d="M33.4,55.5a.778.778,0,0,1-.8-.2,2.964,2.964,0,0,0-4,.5.93.93,0,1,1-1.5-1.1,4.736,4.736,0,0,1,6.6-.8.948.948,0,0,1,.2,1.3A2.186,2.186,0,0,1,33.4,55.5Z"/>
      <path id="Path_1385" data-name="Path 1385" class="cls-6" d="M37.9,58.9a.778.778,0,0,1-.8-.2l-4.4-3.5a.93.93,0,1,1,1.1-1.5l4.4,3.5a.948.948,0,0,1,.2,1.3A.51.51,0,0,1,37.9,58.9Z"/>
      <path id="Path_1386" data-name="Path 1386" class="cls-6" d="M15,79.1a.778.778,0,0,1-.8-.2,4.747,4.747,0,0,1-.8-6.6.93.93,0,0,1,1.5,1.1,2.867,2.867,0,0,0,.5,4,.948.948,0,0,1,.2,1.3C15.3,79,15.2,79.1,15,79.1Z"/>
      <path id="Path_1387" data-name="Path 1387" class="cls-6" d="M19.4,82.6a.778.778,0,0,1-.8-.2L14.1,79a.93.93,0,1,1,1.1-1.5L19.6,81a.948.948,0,0,1,.2,1.3C19.8,82.4,19.6,82.5,19.4,82.6Z"/>
      <path id="Path_1388" data-name="Path 1388" class="cls-6" d="M19.4,82.6a.778.778,0,0,1-.8-.2.948.948,0,0,1-.2-1.3L36.9,57.4a.93.93,0,1,1,1.5,1.1L19.9,82.3A2.186,2.186,0,0,1,19.4,82.6Z"/>
      <path id="Path_1389" data-name="Path 1389" class="cls-6" d="M14.3,73.9a.778.778,0,0,1-.8-.2.948.948,0,0,1-.2-1.3L27.2,54.6a.93.93,0,1,1,1.5,1.1L14.8,73.5A1,1,0,0,1,14.3,73.9Z"/>
      <path id="Path_1390" data-name="Path 1390" class="cls-6" d="M31.3,72.8a.778.778,0,0,1-.8-.2l-2.7-2.1A.93.93,0,1,1,28.9,69l2.7,2.1a.948.948,0,0,1,.2,1.3A.51.51,0,0,1,31.3,72.8Z"/>
      <path id="Path_1391" data-name="Path 1391" class="cls-6" d="M21.1,64.9a.778.778,0,0,1-.8-.2l-2.8-2.2A.93.93,0,1,1,18.6,61l2.8,2.2a.948.948,0,0,1,.2,1.3A1.756,1.756,0,0,1,21.1,64.9Z"/>
      <path id="Path_1392" data-name="Path 1392" class="cls-6" d="M17.3,63.3h0a3.121,3.121,0,0,1-2.5-.5,2.865,2.865,0,0,1-1.1-1.9,2.743,2.743,0,0,1,.6-2.1,2.951,2.951,0,0,1,4-.5,2.827,2.827,0,0,1,.5,3.9A2.3,2.3,0,0,1,17.3,63.3Zm-1-3.6a2.186,2.186,0,0,0-.5.3.844.844,0,0,0-.2.7,1.141,1.141,0,0,0,.3.6,1.077,1.077,0,0,0,.8.2h0a2.186,2.186,0,0,0,.5-.3.948.948,0,0,0-.2-1.3A.574.574,0,0,0,16.3,59.7Z"/>
      <path id="Path_1393" data-name="Path 1393" class="cls-6" d="M65.4,46.9c-.2.1-.4,0-.6,0a.883.883,0,0,1-.5-1.2,4.761,4.761,0,0,1,6.1-2.6.919.919,0,0,1-.7,1.7A2.835,2.835,0,0,0,66,46.3.9.9,0,0,1,65.4,46.9Z"/>
      <path id="Path_1394" data-name="Path 1394" class="cls-6" d="M63.3,52.1c-.2.1-.4,0-.6,0a.883.883,0,0,1-.5-1.2l2.1-5.2a.919.919,0,1,1,1.7.7l-2.1,5.2A.634.634,0,0,1,63.3,52.1Z"/>
      <path id="Path_1395" data-name="Path 1395" class="cls-6" d="M93.2,58.2c-.2.1-.4,0-.6,0a.883.883,0,0,1-.5-1.2,2.8,2.8,0,0,0,0-2.2,2.758,2.758,0,0,0-1.5-1.5.919.919,0,0,1,.7-1.7,4.9,4.9,0,0,1,2.6,2.5,4.507,4.507,0,0,1,0,3.6A1.794,1.794,0,0,1,93.2,58.2Z"/>
      <path id="Path_1396" data-name="Path 1396" class="cls-6" d="M91.1,63.4c-.2.1-.4,0-.6,0a.883.883,0,0,1-.5-1.2L92.1,57a.919.919,0,1,1,1.7.7l-2.1,5.2A1.024,1.024,0,0,1,91.1,63.4Z"/>
      <path id="Path_1397" data-name="Path 1397" class="cls-6" d="M91.1,63.4c-.2.1-.4,0-.6,0L62.7,52.1a.919.919,0,1,1,.7-1.7L91.2,61.7a.883.883,0,0,1,.5,1.2A1.024,1.024,0,0,1,91.1,63.4Z"/>
      <path id="Path_1398" data-name="Path 1398" class="cls-6" d="M91.1,53.3c-.2.1-.4,0-.6,0L69.6,44.9a.919.919,0,0,1,.7-1.7l20.9,8.4a.883.883,0,0,1,.5,1.2C91.7,53,91.4,53.2,91.1,53.3Z"/>
      <path id="Path_1399" data-name="Path 1399" class="cls-6" d="M75.9,60.9c-.2.1-.4,0-.6,0a.883.883,0,0,1-.5-1.2l1.3-3.1a.919.919,0,1,1,1.7.7l-1.3,3.1A1.024,1.024,0,0,1,75.9,60.9Z"/>
      <path id="Path_1400" data-name="Path 1400" class="cls-6" d="M80.8,48.9c-.2.1-.4,0-.6,0a.883.883,0,0,1-.5-1.2L81,44.4a.919.919,0,1,1,1.7.7l-1.3,3.3A1.024,1.024,0,0,1,80.8,48.9Z"/>
      <path id="Path_1401" data-name="Path 1401" class="cls-6" d="M83.3,45.7A2.782,2.782,0,0,1,80,41.9a2.972,2.972,0,0,1,3.7-1.6,2.758,2.758,0,0,1,1.5,1.5,2.8,2.8,0,0,1,0,2.2A3.2,3.2,0,0,1,83.3,45.7Zm-1-3.7a.9.9,0,0,0-.6.6.854.854,0,0,0,0,.7,1.205,1.205,0,0,0,.5.5,1.011,1.011,0,0,0,1.2-.5.854.854,0,0,0,0-.7,1.205,1.205,0,0,0-.5-.5A1.268,1.268,0,0,0,82.3,42Z"/>
      <path id="Path_1402" data-name="Path 1402" class="cls-6" d="M29.5,49.5a.921.921,0,0,1-1.1-.7l-1-3.6a.922.922,0,0,1,1.8-.4l1,3.6A.854.854,0,0,1,29.5,49.5Z"/>
      <path id="Path_1403" data-name="Path 1403" class="cls-6" d="M28.6,45.9a.921.921,0,0,1-1.1-.7,4.583,4.583,0,0,1,3.3-5.7.922.922,0,1,1,.4,1.8,2.774,2.774,0,0,0-2,3.4A.863.863,0,0,1,28.6,45.9Z"/>
      <path id="Path_1404" data-name="Path 1404" class="cls-6" d="M60.2,33.5l-29,7.8a.922.922,0,1,1-.4-1.8l29-7.8a.922.922,0,1,1,.4,1.8Z"/>
      <path id="Path_1405" data-name="Path 1405" class="cls-6" d="M22.3,58.8a.778.778,0,0,1-.8-.2.948.948,0,0,1-.2-1.3L28.5,48A.93.93,0,1,1,30,49.1l-7.2,9.3A1,1,0,0,1,22.3,58.8Z"/>
      <path id="Path_1406" data-name="Path 1406" class="cls-6" d="M65.8,39.8a.921.921,0,0,1-1.1-.7l-1-3.6a.922.922,0,1,1,1.8-.4l1,3.6A.973.973,0,0,1,65.8,39.8Z"/>
      <path id="Path_1407" data-name="Path 1407" class="cls-6" d="M64.8,36.2a.921.921,0,0,1-1.1-.7,2.774,2.774,0,0,0-3.4-2,.922.922,0,0,1-.4-1.8A4.583,4.583,0,0,1,65.6,35,1.126,1.126,0,0,1,64.8,36.2Z"/>
      <path id="Path_1408" data-name="Path 1408" class="cls-6" d="M76.7,44.2c-.2.1-.4,0-.6,0L65.2,39.8a.919.919,0,0,1,.7-1.7l10.9,4.4a.883.883,0,0,1,.5,1.2A1.024,1.024,0,0,1,76.7,44.2Z"/>
      <path id="Path_1409" data-name="Path 1409" class="cls-6" d="M51.6,59.2a.921.921,0,0,1-1.1-.7L49,53.1a.922.922,0,1,1,1.8-.4l1.5,5.4A1.033,1.033,0,0,1,51.6,59.2Z"/>
      <path id="Path_1410" data-name="Path 1410" class="cls-6" d="M55.5,52.3,44.6,55.2a.921.921,0,0,1-1.1-.7l-1-3.6a.921.921,0,0,1,.7-1.1l10.9-2.9a.921.921,0,0,1,1.1.7l1,3.6A1.033,1.033,0,0,1,55.5,52.3Zm-10.4.8,9.1-2.4-.5-1.8-9.1,2.4Z"/>
      <path id="Path_1411" data-name="Path 1411" class="cls-6" d="M52.5,142.4a.878.878,0,0,1-.7-.1.955.955,0,0,1-.4-1.3l5.2-9.6a.962.962,0,0,1,1.7.9l-5.2,9.6A.634.634,0,0,1,52.5,142.4Z"/>
      <path id="Path_1412" data-name="Path 1412" class="cls-6" d="M46.6,142.1h-.4a.921.921,0,0,1-.7-1.1l2.3-11.3a.922.922,0,1,1,1.8.4l-2.3,11.3A1.208,1.208,0,0,1,46.6,142.1Z"/>
      <path id="Path_1413" data-name="Path 1413" class="cls-6" d="M49.6,145.2a3.054,3.054,0,0,1-2-.1,3.7,3.7,0,0,1-2.2-4.1.922.922,0,1,1,1.8.4,1.813,1.813,0,0,0,1,2c1,.4,2.2-.5,3.2-2.3a.943.943,0,1,1,1.6,1A5.942,5.942,0,0,1,49.6,145.2Z"/>
      <path id="Path_1414" data-name="Path 1414" class="cls-6" d="M92.4,131.8a.878.878,0,0,1-.7-.1l-9.3-5.8a.974.974,0,0,1-.3-1.3.952.952,0,0,1,1.3-.3l9.3,5.8a.974.974,0,0,1,.3,1.3A2.092,2.092,0,0,1,92.4,131.8Z"/>
      <path id="Path_1415" data-name="Path 1415" class="cls-6" d="M97.3,128.5a.806.806,0,0,1-.9-.3l-7.6-8.6a.922.922,0,0,1,1.4-1.2l7.6,8.6a.935.935,0,0,1-.1,1.3A.52.52,0,0,1,97.3,128.5Z"/>
      <path id="Path_1416" data-name="Path 1416" class="cls-6" d="M96.3,132.7c-1,.3-2.5.2-4.6-1a.943.943,0,0,1,1-1.6c1.8,1,3.2,1.2,3.9.4a1.805,1.805,0,0,0-.1-2.2.922.922,0,1,1,1.4-1.2,3.627,3.627,0,0,1,.2,4.6A8.841,8.841,0,0,1,96.3,132.7Z"/>
    </g>
  </g>
</svg>
