<svg width="80" height="18" viewBox="0 0 80 18" fill="none" xmlns="http://www.w3.org/2000/svg">
<path fill-rule="evenodd" clip-rule="evenodd" d="M0 9C0 4.02944 4.02944 0 9 0H71C75.9706 0 80 4.02944 80 9V9C80 13.9706 75.9706 18 71 18H9C4.02944 18 0 13.9706 0 9V9Z" fill="black"/>
<path fill-rule="evenodd" clip-rule="evenodd" d="M12.7299 6.44958L9.22109 9.33946V12.4585C9.22109 12.6266 9.35742 12.763 9.52559 12.763L11.6582 12.7574C11.8258 12.7566 11.9612 12.6205 11.9612 12.453V10.6315C11.9612 10.4633 12.0975 10.327 12.2657 10.327H13.4837C13.6519 10.327 13.7882 10.4633 13.7882 10.6315V12.4516C13.7879 12.5325 13.8199 12.6102 13.877 12.6675C13.9342 12.7249 14.0118 12.7571 14.0927 12.7571L16.2245 12.763C16.3927 12.763 16.529 12.6266 16.529 12.4585V9.33736L13.021 6.44958C12.9361 6.38108 12.8148 6.38108 12.7299 6.44958ZM18.2723 8.41285L13.4549 4.44543C13.1177 4.16793 12.6313 4.16793 12.294 4.44543L7.47668 8.41285C7.42998 8.45145 7.40053 8.50703 7.39482 8.56735C7.38911 8.62767 7.4076 8.68779 7.44623 8.73447L7.93152 9.32444C7.97005 9.37129 8.02563 9.40088 8.086 9.4067C8.14637 9.41252 8.20658 9.39408 8.25334 9.35546L12.7298 5.66837C12.8148 5.59987 12.936 5.59987 13.021 5.66837L17.4977 9.35546C17.5444 9.39409 17.6045 9.41259 17.6648 9.40688C17.7252 9.40116 17.7807 9.37172 17.8193 9.32501L18.3046 8.73505C18.3432 8.68809 18.3615 8.62769 18.3554 8.56722C18.3494 8.50675 18.3194 8.45119 18.2723 8.41285Z" fill="white"/>
<path d="M24.7 13H25.92V7.925L29.26 13H30.48V5.8H29.26V10.875L25.92 5.8H24.7V13ZM31.8677 13H33.0877V10.225C33.0877 9.78833 33.1494 9.45167 33.2727 9.215C33.3994 8.975 33.5594 8.81 33.7527 8.72C33.9494 8.62667 34.1494 8.58 34.3527 8.58C34.6394 8.58 34.8677 8.64333 35.0377 8.77C35.2077 8.89333 35.3327 9.05167 35.4127 9.245C35.4961 9.435 35.5494 9.63333 35.5727 9.84C35.5994 10.0467 35.6127 10.2333 35.6127 10.4V13H36.8327V9.985C36.8327 9.85833 36.8211 9.69 36.7977 9.48C36.7777 9.27 36.7311 9.04833 36.6577 8.815C36.5844 8.58167 36.4711 8.36167 36.3177 8.155C36.1644 7.945 35.9561 7.775 35.6927 7.645C35.4327 7.51167 35.1044 7.445 34.7077 7.445C34.3177 7.445 33.9744 7.51333 33.6777 7.65C33.3844 7.78333 33.1394 7.96667 32.9427 8.2V5.8H31.8677V13ZM39.8175 6.85H41.0075L40.6275 5.65H39.4375L39.8175 6.85ZM39.6475 13.15C40.0775 13.15 40.4425 13.08 40.7425 12.94C41.0458 12.7967 41.3125 12.575 41.5425 12.275V13H42.5975V9.685C42.5975 9.45167 42.5875 9.23667 42.5675 9.04C42.5475 8.84 42.4892 8.645 42.3925 8.455C42.2158 8.09833 41.9442 7.84167 41.5775 7.685C41.2142 7.52833 40.7925 7.45 40.3125 7.45C39.6792 7.45 39.1742 7.58833 38.7975 7.865C38.4208 8.14167 38.1658 8.50833 38.0325 8.965L39.1325 9.31C39.2225 9.03333 39.3808 8.83833 39.6075 8.725C39.8342 8.61167 40.0692 8.555 40.3125 8.555C40.6792 8.555 40.9492 8.63 41.1225 8.78C41.2958 8.92667 41.3942 9.155 41.4175 9.465C40.9442 9.535 40.5042 9.60333 40.0975 9.67C39.6942 9.73333 39.3508 9.81167 39.0675 9.905C38.6408 10.0517 38.3292 10.26 38.1325 10.53C37.9358 10.7967 37.8375 11.1267 37.8375 11.52C37.8375 11.8167 37.9058 12.0883 38.0425 12.335C38.1825 12.5817 38.3875 12.78 38.6575 12.93C38.9275 13.0767 39.2575 13.15 39.6475 13.15ZM39.8875 12.19C39.6042 12.19 39.3875 12.125 39.2375 11.995C39.0908 11.865 39.0175 11.7017 39.0175 11.505C39.0175 11.3283 39.0742 11.185 39.1875 11.075C39.3042 10.965 39.4658 10.8717 39.6725 10.795C39.8625 10.7317 40.0908 10.6767 40.3575 10.63C40.6242 10.58 40.9725 10.5217 41.4025 10.455C41.3992 10.5817 41.3908 10.7233 41.3775 10.88C41.3642 11.0333 41.3325 11.1717 41.2825 11.295C41.2425 11.4183 41.1642 11.55 41.0475 11.69C40.9342 11.83 40.7808 11.9483 40.5875 12.045C40.3942 12.1417 40.1608 12.19 39.8875 12.19ZM45.9012 13H47.1112V10.255C47.1112 9.94167 47.1678 9.66333 47.2812 9.42C47.3978 9.17667 47.5795 8.98833 47.8262 8.855C47.9928 8.75833 48.1795 8.70167 48.3862 8.685C48.5928 8.665 48.7778 8.67833 48.9412 8.725V7.6C48.6978 7.56333 48.4478 7.56833 48.1912 7.615C47.9345 7.65833 47.7062 7.74833 47.5062 7.885C47.3928 7.955 47.2912 8.04 47.2012 8.14C47.1112 8.23667 47.0328 8.345 46.9662 8.465V7.6H45.9012V13ZM49.9953 6.78H51.2003V5.675H49.9953V6.78ZM49.9953 13H51.2003V7.6H49.9953V13ZM53.818 6.94L55.083 6.25L56.348 6.94L56.788 6.175L55.083 5.24L53.378 6.175L53.818 6.94ZM55.153 13.15C55.673 13.15 56.148 13.0167 56.578 12.75C57.0114 12.48 57.3314 12.1 57.538 11.61L56.348 11.25C56.108 11.7633 55.6864 12.02 55.083 12.02C54.673 12.02 54.3497 11.9017 54.113 11.665C53.8764 11.425 53.7347 11.0817 53.688 10.635H57.598C57.6447 9.985 57.573 9.42167 57.383 8.945C57.193 8.46833 56.9014 8.1 56.508 7.84C56.118 7.58 55.643 7.45 55.083 7.45C54.553 7.45 54.0864 7.57 53.683 7.81C53.2797 8.04667 52.9647 8.38333 52.738 8.82C52.5114 9.25667 52.398 9.77 52.398 10.36C52.398 10.9067 52.513 11.39 52.743 11.81C52.9764 12.23 53.2997 12.5583 53.713 12.795C54.1264 13.0317 54.6064 13.15 55.153 13.15ZM55.133 8.505C55.5064 8.505 55.793 8.60333 55.993 8.8C56.1964 8.99333 56.3247 9.30167 56.378 9.725H53.718C53.8614 8.91167 54.333 8.505 55.133 8.505ZM58.5572 13H59.7772V10.225C59.7772 9.78833 59.8389 9.45167 59.9622 9.215C60.0889 8.975 60.2489 8.81 60.4422 8.72C60.6389 8.62667 60.8389 8.58 61.0422 8.58C61.3289 8.58 61.5572 8.64333 61.7272 8.77C61.8972 8.89333 62.0222 9.05167 62.1022 9.245C62.1855 9.435 62.2389 9.63333 62.2622 9.84C62.2889 10.0467 62.3022 10.2333 62.3022 10.4V13H63.5222V9.985C63.5222 9.85833 63.5105 9.69 63.4872 9.48C63.4672 9.27 63.4205 9.04833 63.3472 8.815C63.2739 8.58167 63.1605 8.36167 63.0072 8.155C62.8539 7.945 62.6455 7.775 62.3822 7.645C62.1222 7.51167 61.7939 7.445 61.3972 7.445C61.0072 7.445 60.6639 7.51333 60.3672 7.65C60.0739 7.78333 59.8289 7.96667 59.6322 8.2V7.6H58.5572V13ZM66.992 13.15C67.272 13.15 67.527 13.1117 67.757 13.035C67.9903 12.9617 68.1986 12.8583 68.382 12.725V13.24C68.3886 13.6233 68.2703 13.9133 68.027 14.11C67.787 14.3067 67.4786 14.405 67.102 14.405C66.8886 14.405 66.687 14.3567 66.497 14.26C66.307 14.1633 66.162 14.0183 66.062 13.825L64.952 14.375C65.162 14.7417 65.4586 15.0283 65.842 15.235C66.2286 15.445 66.647 15.55 67.097 15.55C67.707 15.55 68.2303 15.425 68.667 15.175C69.107 14.9283 69.3886 14.5433 69.512 14.02C69.5386 13.9 69.557 13.7783 69.567 13.655C69.5803 13.5317 69.587 13.4 69.587 13.26V7.6H68.532V7.99C68.342 7.81667 68.122 7.68333 67.872 7.59C67.622 7.49667 67.3436 7.45 67.037 7.45C66.527 7.45 66.0836 7.57333 65.707 7.82C65.3336 8.06667 65.0436 8.405 64.837 8.835C64.6303 9.265 64.527 9.75333 64.527 10.3C64.527 10.84 64.6286 11.325 64.832 11.755C65.0353 12.185 65.322 12.525 65.692 12.775C66.062 13.025 66.4953 13.15 66.992 13.15ZM67.177 12.07C66.8636 12.07 66.6053 11.9917 66.402 11.835C66.1986 11.675 66.047 11.4617 65.947 11.195C65.8503 10.9283 65.802 10.63 65.802 10.3C65.802 9.97333 65.852 9.67667 65.952 9.41C66.0553 9.14 66.2103 8.92667 66.417 8.77C66.627 8.61 66.8936 8.53 67.217 8.53C67.677 8.53 68.0103 8.69333 68.217 9.02C68.427 9.34667 68.532 9.77333 68.532 10.3C68.532 10.8233 68.427 11.25 68.217 11.58C68.0103 11.9067 67.6636 12.07 67.177 12.07Z" fill="white"/>
</svg>
