<svg width="85" height="18" viewBox="0 0 85 18" fill="none" xmlns="http://www.w3.org/2000/svg">
<path fill-rule="evenodd" clip-rule="evenodd" d="M0 9C0 4.02944 4.02944 0 9 0H76C80.9706 0 85 4.02944 85 9V9C85 13.9706 80.9706 18 76 18H9C4.02944 18 0 13.9706 0 9V9Z" fill="black"/>
<path d="M26.32 13H28.085L30.355 5.8H29.115L27.19 11.83L25.29 5.8H24.05L26.32 13ZM32.892 6.99C33.172 6.99 33.427 6.92167 33.657 6.785C33.887 6.64833 34.0687 6.46667 34.202 6.24C34.3387 6.01 34.407 5.755 34.407 5.475H33.467C33.467 5.635 33.4104 5.77167 33.297 5.885C33.187 5.995 33.052 6.05 32.892 6.05C32.732 6.05 32.5954 5.995 32.482 5.885C32.372 5.77167 32.317 5.635 32.317 5.475H31.377C31.377 5.755 31.4454 6.01 31.582 6.24C31.7187 6.46667 31.9004 6.64833 32.127 6.785C32.357 6.92167 32.612 6.99 32.892 6.99ZM32.167 13.15C32.597 13.15 32.962 13.08 33.262 12.94C33.5654 12.7967 33.832 12.575 34.062 12.275V13H35.117V9.685C35.117 9.45167 35.107 9.23667 35.087 9.04C35.067 8.84 35.0087 8.645 34.912 8.455C34.7354 8.09833 34.4637 7.84167 34.097 7.685C33.7337 7.52833 33.312 7.45 32.832 7.45C32.1987 7.45 31.6937 7.58833 31.317 7.865C30.9404 8.14167 30.6854 8.50833 30.552 8.965L31.652 9.31C31.742 9.03333 31.9004 8.83833 32.127 8.725C32.3537 8.61167 32.5887 8.555 32.832 8.555C33.1987 8.555 33.4687 8.63 33.642 8.78C33.8154 8.92667 33.9137 9.155 33.937 9.465C33.4637 9.535 33.0237 9.60333 32.617 9.67C32.2137 9.73333 31.8704 9.81167 31.587 9.905C31.1604 10.0517 30.8487 10.26 30.652 10.53C30.4554 10.7967 30.357 11.1267 30.357 11.52C30.357 11.8167 30.4254 12.0883 30.562 12.335C30.702 12.5817 30.907 12.78 31.177 12.93C31.447 13.0767 31.777 13.15 32.167 13.15ZM32.407 12.19C32.1237 12.19 31.907 12.125 31.757 11.995C31.6104 11.865 31.537 11.7017 31.537 11.505C31.537 11.3283 31.5937 11.185 31.707 11.075C31.8237 10.965 31.9854 10.8717 32.192 10.795C32.382 10.7317 32.6104 10.6767 32.877 10.63C33.1437 10.58 33.492 10.5217 33.922 10.455C33.9187 10.5817 33.9104 10.7233 33.897 10.88C33.8837 11.0333 33.852 11.1717 33.802 11.295C33.762 11.4183 33.6837 11.55 33.567 11.69C33.4537 11.83 33.3004 11.9483 33.107 12.045C32.9137 12.1417 32.6804 12.19 32.407 12.19ZM36.4088 13H37.6288V10.225C37.6288 9.78833 37.6904 9.45167 37.8138 9.215C37.9404 8.975 38.1004 8.81 38.2938 8.72C38.4904 8.62667 38.6904 8.58 38.8938 8.58C39.1804 8.58 39.4088 8.64333 39.5788 8.77C39.7488 8.89333 39.8738 9.05167 39.9538 9.245C40.0371 9.435 40.0904 9.63333 40.1138 9.84C40.1404 10.0467 40.1538 10.2333 40.1538 10.4V13H41.3738V9.985C41.3738 9.85833 41.3621 9.69 41.3388 9.48C41.3188 9.27 41.2721 9.04833 41.1988 8.815C41.1254 8.58167 41.0121 8.36167 40.8587 8.155C40.7054 7.945 40.4971 7.775 40.2338 7.645C39.9738 7.51167 39.6454 7.445 39.2488 7.445C38.8588 7.445 38.5154 7.51333 38.2188 7.65C37.9254 7.78333 37.6804 7.96667 37.4838 8.2V7.6H36.4088V13ZM44.6705 15.4H45.8855V12.725C46.0688 12.8583 46.2755 12.9617 46.5055 13.035C46.7388 13.1117 46.9955 13.15 47.2755 13.15C47.7755 13.15 48.2088 13.025 48.5755 12.775C48.9455 12.525 49.2321 12.185 49.4355 11.755C49.6388 11.325 49.7405 10.84 49.7405 10.3C49.7405 9.75333 49.6371 9.265 49.4305 8.835C49.2271 8.405 48.9371 8.06667 48.5605 7.82C48.1838 7.57333 47.7405 7.45 47.2305 7.45C46.9238 7.45 46.6455 7.49667 46.3955 7.59C46.1455 7.68333 45.9255 7.81667 45.7355 7.99V7.6H44.6705V15.4ZM47.0905 12.07C46.6071 12.07 46.2605 11.9067 46.0505 11.58C45.8405 11.25 45.7355 10.8233 45.7355 10.3C45.7355 9.77333 45.8388 9.34667 46.0455 9.02C46.2555 8.69333 46.5905 8.53 47.0505 8.53C47.3738 8.53 47.6388 8.61 47.8455 8.77C48.0555 8.92667 48.2105 9.14 48.3105 9.41C48.4138 9.67667 48.4655 9.97333 48.4655 10.3C48.4655 10.63 48.4155 10.9283 48.3155 11.195C48.2188 11.4617 48.0688 11.675 47.8655 11.835C47.6621 11.9917 47.4038 12.07 47.0905 12.07ZM50.8326 13H52.0526V10.225C52.0526 9.78833 52.1142 9.45167 52.2376 9.215C52.3642 8.975 52.5242 8.81 52.7176 8.72C52.9142 8.62667 53.1142 8.58 53.3176 8.58C53.6042 8.58 53.8326 8.64333 54.0026 8.77C54.1726 8.89333 54.2976 9.05167 54.3776 9.245C54.4609 9.435 54.5142 9.63333 54.5376 9.84C54.5642 10.0467 54.5776 10.2333 54.5776 10.4V13H55.7976V9.985C55.7976 9.85833 55.7859 9.69 55.7626 9.48C55.7426 9.27 55.6959 9.04833 55.6226 8.815C55.5492 8.58167 55.4359 8.36167 55.2826 8.155C55.1292 7.945 54.9209 7.775 54.6576 7.645C54.3976 7.51167 54.0692 7.445 53.6726 7.445C53.2826 7.445 52.9392 7.51333 52.6426 7.65C52.3492 7.78333 52.1042 7.96667 51.9076 8.2V5.8H50.8326V13ZM58.8673 6.85H60.0573L59.6773 5.65H58.4873L58.8673 6.85ZM59.4873 13.15C60.0273 13.15 60.499 13.03 60.9023 12.79C61.3057 12.5467 61.619 12.2117 61.8423 11.785C62.069 11.355 62.1823 10.86 62.1823 10.3C62.1823 9.74333 62.0707 9.25167 61.8473 8.825C61.624 8.395 61.3107 8.05833 60.9073 7.815C60.504 7.57167 60.0307 7.45 59.4873 7.45C58.9573 7.45 58.4907 7.57 58.0873 7.81C57.684 8.05 57.369 8.38333 57.1423 8.81C56.9157 9.23667 56.8023 9.73333 56.8023 10.3C56.8023 10.8567 56.9123 11.35 57.1323 11.78C57.3557 12.2067 57.669 12.5417 58.0723 12.785C58.4757 13.0283 58.9473 13.15 59.4873 13.15ZM59.4873 12.02C59.024 12.02 58.6723 11.865 58.4323 11.555C58.1957 11.2417 58.0773 10.8233 58.0773 10.3C58.0773 9.79 58.1907 9.37667 58.4173 9.06C58.6473 8.74 59.004 8.58 59.4873 8.58C59.9607 8.58 60.3157 8.73667 60.5523 9.05C60.789 9.36 60.9073 9.77667 60.9073 10.3C60.9073 10.8067 60.789 11.22 60.5523 11.54C60.319 11.86 59.964 12.02 59.4873 12.02ZM63.274 13H64.494V10.225C64.494 9.78833 64.5557 9.45167 64.679 9.215C64.8057 8.975 64.9657 8.81 65.159 8.72C65.3557 8.62667 65.5557 8.58 65.759 8.58C66.0457 8.58 66.274 8.64333 66.444 8.77C66.614 8.89333 66.739 9.05167 66.819 9.245C66.9023 9.435 66.9557 9.63333 66.979 9.84C67.0057 10.0467 67.019 10.2333 67.019 10.4V13H68.239V9.985C68.239 9.85833 68.2273 9.69 68.204 9.48C68.184 9.27 68.1373 9.04833 68.064 8.815C67.9907 8.58167 67.8773 8.36167 67.724 8.155C67.5707 7.945 67.3623 7.775 67.099 7.645C66.839 7.51167 66.5107 7.445 66.114 7.445C65.724 7.445 65.3807 7.51333 65.084 7.65C64.7907 7.78333 64.5457 7.96667 64.349 8.2V7.6H63.274V13ZM71.7088 13.15C71.9888 13.15 72.2438 13.1117 72.4738 13.035C72.7071 12.9617 72.9154 12.8583 73.0988 12.725V13.24C73.1054 13.6233 72.9871 13.9133 72.7438 14.11C72.5038 14.3067 72.1954 14.405 71.8188 14.405C71.6054 14.405 71.4038 14.3567 71.2138 14.26C71.0238 14.1633 70.8788 14.0183 70.7788 13.825L69.6688 14.375C69.8788 14.7417 70.1754 15.0283 70.5588 15.235C70.9454 15.445 71.3638 15.55 71.8138 15.55C72.4238 15.55 72.9471 15.425 73.3838 15.175C73.8238 14.9283 74.1054 14.5433 74.2288 14.02C74.2554 13.9 74.2738 13.7783 74.2838 13.655C74.2971 13.5317 74.3038 13.4 74.3038 13.26V7.6H73.2488V7.99C73.0588 7.81667 72.8388 7.68333 72.5888 7.59C72.3388 7.49667 72.0604 7.45 71.7538 7.45C71.2438 7.45 70.8004 7.57333 70.4238 7.82C70.0504 8.06667 69.7604 8.405 69.5538 8.835C69.3471 9.265 69.2438 9.75333 69.2438 10.3C69.2438 10.84 69.3454 11.325 69.5488 11.755C69.7521 12.185 70.0388 12.525 70.4088 12.775C70.7788 13.025 71.2121 13.15 71.7088 13.15ZM71.8938 12.07C71.5804 12.07 71.3221 11.9917 71.1188 11.835C70.9154 11.675 70.7638 11.4617 70.6638 11.195C70.5671 10.9283 70.5188 10.63 70.5188 10.3C70.5188 9.97333 70.5688 9.67667 70.6688 9.41C70.7721 9.14 70.9271 8.92667 71.1338 8.77C71.3438 8.61 71.6104 8.53 71.9338 8.53C72.3938 8.53 72.7271 8.69333 72.9338 9.02C73.1438 9.34667 73.2488 9.77333 73.2488 10.3C73.2488 10.8233 73.1438 11.25 72.9338 11.58C72.7271 11.9067 72.3804 12.07 71.8938 12.07Z" fill="white"/>
<path d="M11.5 7.14062C11.5 7.27734 11.5977 7.375 11.7344 7.375H12.5156C12.6328 7.375 12.75 7.27734 12.75 7.14062V6.35938C12.75 6.24219 12.6328 6.125 12.5156 6.125H11.7344C11.5977 6.125 11.5 6.24219 11.5 6.35938V7.14062ZM14.2344 7.375H15.0156C15.1328 7.375 15.25 7.27734 15.25 7.14062V6.35938C15.25 6.24219 15.1328 6.125 15.0156 6.125H14.2344C14.0977 6.125 14 6.24219 14 6.35938V7.14062C14 7.27734 14.0977 7.375 14.2344 7.375ZM11.7344 9.25H12.5156C12.6328 9.25 12.75 9.15234 12.75 9.01562V8.23438C12.75 8.11719 12.6328 8 12.5156 8H11.7344C11.5977 8 11.5 8.11719 11.5 8.23438V9.01562C11.5 9.15234 11.5977 9.25 11.7344 9.25ZM14.2344 9.25H15.0156C15.1328 9.25 15.25 9.15234 15.25 9.01562V8.23438C15.25 8.11719 15.1328 8 15.0156 8H14.2344C14.0977 8 14 8.11719 14 8.23438V9.01562C14 9.15234 14.0977 9.25 14.2344 9.25ZM12.75 10.8906V10.1094C12.75 9.99219 12.6328 9.875 12.5156 9.875H11.7344C11.5977 9.875 11.5 9.99219 11.5 10.1094V10.8906C11.5 11.0273 11.5977 11.125 11.7344 11.125H12.5156C12.6328 11.125 12.75 11.0273 12.75 10.8906ZM14.2344 11.125H15.0156C15.1328 11.125 15.25 11.0273 15.25 10.8906V10.1094C15.25 9.99219 15.1328 9.875 15.0156 9.875H14.2344C14.0977 9.875 14 9.99219 14 10.1094V10.8906C14 11.0273 14.0977 11.125 14.2344 11.125ZM17.75 13.5469C17.75 13.4297 17.6328 13.3125 17.5156 13.3125H17.125V4.71875C17.125 4.46484 16.9102 4.25 16.6562 4.25H10.0742C9.82031 4.25 9.60547 4.46484 9.60547 4.71875V13.3125H9.23438C9.09766 13.3125 9 13.4297 9 13.5469V14.25H17.75V13.5469ZM10.543 13.293L10.5625 5.1875L16.1875 5.20703V13.293H14V11.9844C14 11.8672 13.8828 11.75 13.7656 11.75H12.9844C12.8477 11.75 12.75 11.8672 12.75 11.9844V13.293H10.543Z" fill="white"/>
</svg>
