<svg width="65" height="20" viewBox="0 0 65 20" fill="none" xmlns="http://www.w3.org/2000/svg">
<path d="M0.159431 9.56901C1.36012 8.42511 2.31743 4.85955 2.8549 2.41963C3.16521 1.01207 4.47948 0 6.00671 0L54.5619 0C57.1976 0 59.7254 1.04705 61.5892 2.91081C63.4529 4.77458 64.5 7.30238 64.5 9.93814C64.5 12.5739 63.4529 15.1017 61.5892 16.9655C59.7254 18.8292 57.1976 19.8763 54.5619 19.8763H6.00671C4.47948 19.8763 3.16724 18.8622 2.8549 17.4546C2.31743 15.0208 1.36012 11.4512 0.159431 10.3052C0.109148 10.258 0.0690664 10.201 0.0416718 10.1377C0.0142771 10.0744 0.000152588 10.0061 0.000152588 9.93713C0.000152588 9.86814 0.0142771 9.79989 0.0416718 9.73658C0.0690664 9.67326 0.109148 9.61624 0.159431 9.56901Z" fill="black"/>
<g clip-path="url(#clip0)">
<path d="M9.28433 12.7726C9.28433 10.9279 10.7853 9.42694 12.6301 9.42694C13.4179 9.42694 14.15 9.69117 14.7476 10.1912L15.2547 9.585C14.5132 8.96459 13.6057 8.63672 12.6301 8.63672C10.3495 8.63672 8.49402 10.4922 8.49402 12.7727V14.7354C8.49402 14.9537 8.67092 15.1306 8.8892 15.1306H15.1856V14.3401H9.28433V12.7726Z" fill="white"/>
<path d="M12.6301 4C11.1339 4 9.91663 5.21725 9.91663 6.7135C9.91663 8.20975 11.1339 9.427 12.6301 9.427C14.1264 9.427 15.3436 8.20975 15.3436 6.7135C15.3436 5.21725 14.1264 4 12.6301 4ZM12.6301 8.63666C11.5697 8.63666 10.707 7.77388 10.707 6.7135C10.707 5.65312 11.5697 4.79034 12.6301 4.79034C13.6905 4.79034 14.5533 5.65312 14.5533 6.7135C14.5533 7.77388 13.6905 8.63666 12.6301 8.63666Z" fill="white"/>
<path d="M19.2977 10.0273L16.795 8.68368C16.6771 8.62033 16.5348 8.62111 16.4173 8.68579L13.9804 10.0294C13.8544 10.0988 13.7761 10.2314 13.7761 10.3754V12.2722C13.7761 13.809 14.6912 15.2024 16.1066 15.8216L16.4359 15.9665C16.4866 15.9888 16.5407 16 16.595 16C16.6464 16 16.6976 15.9898 16.746 15.97L17.128 15.812C17.1285 15.8118 17.129 15.8116 17.1295 15.8114C18.5731 15.2073 19.506 13.8077 19.506 12.2459V10.3755C19.506 10.2299 19.426 10.0962 19.2977 10.0273ZM18.7158 12.2459C18.7158 13.4879 17.9738 14.6011 16.8254 15.082L16.5999 15.1751L16.4242 15.098C15.2957 14.6041 14.5665 13.495 14.5665 12.2722V10.6088L16.6108 9.48168L18.7158 10.6117V12.2459Z" fill="white"/>
<path d="M18.0864 11.5477C17.9478 11.3788 17.699 11.354 17.5302 11.4922L16.303 12.4974L15.8955 12.0167C15.7543 11.8504 15.5051 11.8294 15.3385 11.9706C15.172 12.1119 15.1513 12.3612 15.2924 12.5277L15.951 13.3049C16.0291 13.3971 16.1404 13.4446 16.2528 13.4446C16.3409 13.4446 16.4295 13.4154 16.5029 13.3552L18.0309 12.1038C18.1998 11.9655 18.2247 11.7164 18.0864 11.5477Z" fill="white"/>
</g>
<path d="M24.408 9.38H25.32V5.42H27.588C28.324 5.42 28.964 5.528 29.508 5.744C30.052 5.96 30.504 6.256 30.864 6.632C31.224 7.008 31.492 7.452 31.668 7.964C31.844 8.476 31.932 9.032 31.932 9.632V9.74C31.932 10.332 31.844 10.888 31.668 11.408C31.5 11.928 31.236 12.38 30.876 12.764C30.516 13.148 30.06 13.452 29.508 13.676C28.964 13.892 28.316 14 27.564 14H25.32V10.22H24.408V9.38ZM27.54 13.148C28.092 13.148 28.572 13.068 28.98 12.908C29.396 12.748 29.74 12.52 30.012 12.224C30.292 11.928 30.5 11.572 30.636 11.156C30.78 10.732 30.852 10.256 30.852 9.728V9.632C30.852 9.136 30.788 8.684 30.66 8.276C30.54 7.86 30.344 7.504 30.072 7.208C29.808 6.904 29.464 6.672 29.04 6.512C28.624 6.344 28.12 6.26 27.528 6.26H26.364V9.38H28.32V10.22H26.364V13.148H27.54ZM35.1698 14.108C34.8818 14.108 34.6098 14.072 34.3538 14C34.0978 13.928 33.8738 13.816 33.6818 13.664C33.4978 13.512 33.3498 13.32 33.2378 13.088C33.1338 12.856 33.0818 12.58 33.0818 12.26C33.0818 11.9 33.1698 11.596 33.3458 11.348C33.5218 11.1 33.7538 10.9 34.0418 10.748C34.3378 10.596 34.6738 10.488 35.0498 10.424C35.4338 10.352 35.8258 10.316 36.2258 10.316H37.1258V9.86C37.1258 9.356 37.0218 8.996 36.8138 8.78C36.6058 8.556 36.2618 8.444 35.7818 8.444C34.9178 8.444 34.4378 8.82 34.3418 9.572H33.3458C33.3778 9.212 33.4658 8.908 33.6098 8.66C33.7618 8.412 33.9498 8.212 34.1738 8.06C34.4058 7.9 34.6618 7.788 34.9418 7.724C35.2298 7.652 35.5258 7.616 35.8298 7.616C36.1258 7.616 36.4138 7.652 36.6938 7.724C36.9738 7.788 37.2178 7.908 37.4258 8.084C37.6338 8.252 37.8018 8.48 37.9298 8.768C38.0578 9.056 38.1218 9.42 38.1218 9.86V14H37.1258V13.208C36.8938 13.504 36.6258 13.728 36.3218 13.88C36.0178 14.032 35.6338 14.108 35.1698 14.108ZM35.2658 13.316C35.5298 13.316 35.7738 13.284 35.9978 13.22C36.2298 13.148 36.4258 13.048 36.5858 12.92C36.7538 12.792 36.8858 12.636 36.9818 12.452C37.0778 12.26 37.1258 12.044 37.1258 11.804V11.024H36.2618C35.9498 11.024 35.6578 11.048 35.3858 11.096C35.1218 11.136 34.8898 11.204 34.6898 11.3C34.4978 11.396 34.3458 11.524 34.2338 11.684C34.1298 11.836 34.0778 12.028 34.0778 12.26C34.0778 12.588 34.1658 12.848 34.3418 13.04C34.5178 13.224 34.8258 13.316 35.2658 13.316ZM35.6018 16.592C35.4098 16.592 35.2418 16.52 35.0978 16.376C34.9618 16.24 34.8938 16.076 34.8938 15.884C34.8938 15.692 34.9618 15.524 35.0978 15.38C35.2418 15.244 35.4098 15.176 35.6018 15.176C35.7938 15.176 35.9578 15.244 36.0938 15.38C36.2378 15.524 36.3098 15.692 36.3098 15.884C36.3098 16.076 36.2378 16.24 36.0938 16.376C35.9578 16.52 35.7938 16.592 35.6018 16.592ZM40.5823 6.5C40.3903 6.5 40.2223 6.432 40.0783 6.296C39.9423 6.152 39.8743 5.984 39.8743 5.792C39.8743 5.6 39.9423 5.436 40.0783 5.3C40.2223 5.156 40.3903 5.084 40.5823 5.084C40.7743 5.084 40.9383 5.156 41.0743 5.3C41.2183 5.436 41.2903 5.6 41.2903 5.792C41.2903 5.984 41.2183 6.152 41.0743 6.296C40.9383 6.432 40.7743 6.5 40.5823 6.5ZM40.1023 7.724H41.0983V14H40.1023V7.724ZM46.3367 4.724H47.3447V14H46.3367V4.724ZM51.975 6.716H51.087L51.963 5.072H53.271L51.975 6.716ZM51.135 13.352L48.675 7.724H49.743L51.663 12.224L53.403 7.724H54.423L50.955 16.184H49.947L51.135 13.352Z" fill="white"/>
<defs>
<clipPath id="clip0">
<rect width="12" height="12" fill="white" transform="translate(8 4)"/>
</clipPath>
</defs>
</svg>
