<svg xmlns="http://www.w3.org/2000/svg" width="32" height="32" fill="none" viewBox="0 0 32 32">
    <g clip-path="url(#prefix__clip0)">
        <path fill="#0E65E5" d="M25.076 31.407H7.564c-1.382 0-2.503-1.12-2.503-2.503V3.096C5.06 1.713 6.18.593 7.564.593h17.512c1.382 0 2.503 1.12 2.503 2.503v25.808c0 1.383-1.12 2.503-2.503 2.503z"/>
        <path fill="#0E65E5" d="M25.076 32H7.565c-1.707 0-3.096-1.389-3.096-3.096V3.096C4.469 1.389 5.858 0 7.565 0h17.511c1.707 0 3.096 1.389 3.096 3.096v25.808c0 1.707-1.389 3.096-3.096 3.096zM7.565 1.185c-1.054 0-1.911.857-1.911 1.91v25.809c0 1.054.857 1.91 1.91 1.91h17.512c1.054 0 1.911-.856 1.911-1.91V3.096c0-1.054-.857-1.91-1.91-1.91H7.564z"/>
        <path fill="#94C1FF" d="M24.484 31.407H6.972c-1.383 0-2.503-1.12-2.503-2.503V3.096c0-1.383 1.12-2.503 2.503-2.503h17.511c1.383 0 2.504 1.12 2.504 2.503v25.808c0 1.383-1.12 2.503-2.503 2.503z"/>
        <path fill="#0E65E5" d="M24.483 32H6.97c-1.707 0-3.096-1.389-3.096-3.096V3.096C3.875 1.389 5.264 0 6.971 0h17.512c1.707 0 3.096 1.389 3.096 3.096v25.808c0 1.707-1.39 3.096-3.096 3.096zM6.97 1.185c-1.054 0-1.91.857-1.91 1.91v25.809c0 1.054.856 1.91 1.91 1.91h17.512c1.053 0 1.91-.856 1.91-1.91V3.096c0-1.054-.857-1.91-1.91-1.91H6.97z"/>
        <path fill="#D7E9FF" d="M6 2h19v27H6V2z"/>
        <path fill="#fff" d="M8.024 5.926c-.151 0-.303-.058-.419-.174-.231-.23-.231-.606 0-.838L8.79 3.73c.232-.231.607-.231.838 0 .232.232.232.607 0 .838L8.443 5.752c-.115.116-.267.174-.419.174z"/>
        <path fill="#0E65E5" d="M19.877 9.556H16.32c-.327 0-.593-.265-.593-.592 0-.328.266-.593.593-.593h3.556c.327 0 .592.265.592.593 0 .327-.265.592-.592.592zM12.765 11.334c-.116 0-.23-.034-.329-.1l-1.777-1.185c-.273-.182-.347-.549-.165-.822.182-.272.549-.346.822-.164l1.185.79 1.497-3.493c.13-.302.479-.441.778-.312.301.13.44.478.312.778l-1.778 4.148c-.07.162-.207.285-.376.335-.055.017-.112.025-.169.025zM19.877 16.667H16.32c-.327 0-.593-.265-.593-.593 0-.327.266-.593.593-.593h3.556c.327 0 .592.266.592.593 0 .328-.265.593-.592.593zM12.765 18.446c-.116 0-.23-.035-.329-.1L10.66 17.16c-.273-.182-.347-.55-.165-.822.182-.273.549-.346.822-.164l1.185.79 1.497-3.493c.13-.303.479-.442.778-.312.301.13.44.478.312.778l-1.778 4.148c-.07.162-.207.285-.376.335-.055.016-.112.025-.169.025zM19.877 23.779H16.32c-.327 0-.593-.265-.593-.593 0-.327.266-.592.593-.592h3.556c.327 0 .592.265.592.592 0 .328-.265.593-.592.593zM12.765 25.556c-.116 0-.23-.034-.329-.1l-1.777-1.184c-.273-.182-.347-.55-.165-.822.182-.273.549-.346.822-.165l1.185.79 1.497-3.493c.13-.301.479-.44.778-.31.301.128.44.477.312.777l-1.778 4.148c-.07.162-.207.285-.376.335-.055.016-.112.024-.169.024z"/>
    </g>
    <defs>
        <clipPath id="prefix__clip0">
            <path fill="#fff" d="M0 0H32V32H0z"/>
        </clipPath>
    </defs>
</svg>
