<?xml version="1.0" encoding="UTF-8"?>
<svg width="16px" height="16px" viewBox="0 0 16 16" version="1.1" xmlns="http://www.w3.org/2000/svg" xmlns:xlink="http://www.w3.org/1999/xlink">
    <title>icon-keyword-clear</title>
    <g id="Fado-Desktop" stroke="none" stroke-width="1" fill="none" fill-rule="evenodd">
        <g id="Fado-search-landing" transform="translate(-1282.000000, -315.000000)" fill="#98A5B9">
            <g id="search-language" transform="translate(958.000000, 192.000000)">
                <g id="keyword-edit" transform="translate(16.000000, 85.000000)">
                    <g id="icon-keyword-clear" transform="translate(308.000000, 38.000000)">
                        <path d="M8,0.249999968 C12.28125,0.249999968 15.75,3.71874998 15.75,8 C15.75,12.28125 12.28125,15.75 8,15.75 C3.71874998,15.75 0.249999968,12.28125 0.249999968,8 C0.249999968,3.71874998 3.71874998,0.249999968 8,0.249999968 Z M5.83437499,5.03749999 C5.68749999,4.89062499 5.44999999,4.89062499 5.30312499,5.03749999 L5.30312499,5.03749999 L5.03749999,5.30312499 C4.89062499,5.44999999 4.89062499,5.68749999 5.03749999,5.83437499 L5.03749999,5.83437499 L7.203125,8 L5.03749999,10.165625 C4.89062499,10.3125 4.89062499,10.55 5.03749999,10.696875 L5.03749999,10.696875 L5.30312499,10.9625 C5.44999999,11.109375 5.68749999,11.109375 5.83437499,10.9625 L5.83437499,10.9625 L8,8.796875 L10.165625,10.9625 C10.3125,11.109375 10.55,11.109375 10.696875,10.9625 L10.696875,10.9625 L10.9625,10.696875 C11.109375,10.55 11.109375,10.3125 10.9625,10.165625 L10.9625,10.165625 L8.796875,8 L10.9625,5.83437499 C11.10625,5.68749999 11.10625,5.44999999 10.9625,5.30312499 L10.9625,5.30312499 L10.696875,5.03749999 C10.55,4.89062499 10.3125,4.89062499 10.165625,5.03749999 L10.165625,5.03749999 L8,7.203125 Z" id="light/times-circle"></path>
                    </g>
                </g>
            </g>
        </g>
    </g>
</svg>