<?xml version="1.0" encoding="UTF-8"?>
<svg width="28px" height="28px" viewBox="0 0 28 28" version="1.1" xmlns="http://www.w3.org/2000/svg" xmlns:xlink="http://www.w3.org/1999/xlink">
    <title>event-speaker</title>
    <g id="Symbols" stroke="none" stroke-width="1" fill="none" fill-rule="evenodd">
        <g id="@WebUIComponents/Header/header-row-menu" transform="translate(-1074.000000, -10.000000)" fill-rule="nonzero">
            <g id="event-speaker" transform="translate(1074.000000, 10.000000)">
                <rect id="Rectangle" x="0" y="0" width="28" height="28"></rect>
                <path d="M14.9915525,22.7149247 L14.8468666,23.1923886 C14.669217,23.7562914 14.1248405,24.117112 13.5382119,24.0597856 L12.5338062,23.96499 L12.5338062,23.96499 L11.2529395,23.8476862 L11.2529395,23.8476862 L10.9812948,23.8160337 L10.9812948,23.8160337 L10.7451183,23.781638 C10.7085157,23.7755686 10.6732444,23.7693037 10.6392311,23.7628029 L10.4496596,23.7206405 C10.1276364,23.6369597 9.94008418,23.5148989 9.78943803,23.3004468 L9.71034109,23.1739855 L9.71034109,23.1739855 L9.63504587,23.0272509 L9.63504587,23.0272509 L9.56003386,22.8582952 L9.56003386,22.8582952 L9.30151219,22.1986231 L9.30151219,22.1986231 L7.15830006,22.0066423 L7.21779664,22.1623692 L7.21779664,22.1623692 L7.51716684,22.9740375 C7.53804924,23.0290667 7.55925311,23.0841265 7.5808604,23.1391254 L7.71600084,23.4676523 C8.18697674,24.5554089 8.88488463,25.5453733 10.4653571,25.7037153 L12.8977246,25.9533014 L12.8977246,25.9533014 L13.1791363,25.9768059 L13.1791363,25.9768059 L13.4253737,25.9925142 L13.4253737,25.9925142 L13.6421626,26 L13.6421626,26 L13.8352285,25.998837 L13.8352285,25.998837 L14.0102972,25.988599 C14.0382936,25.9861127 14.0657787,25.9832306 14.0928718,25.9799437 L14.25168,25.955294 L14.25168,25.955294 L14.4068051,25.9205037 L14.4068051,25.9205037 L14.5639726,25.8751465 L14.5639726,25.8751465 L14.7289083,25.8187962 C15.9336376,25.3073703 16.7798367,24.1964838 16.9591844,22.8908998 L14.9915525,22.7149247 Z M15.5378644,2.19180455 C14.3525756,2.70974532 13.4714199,3.74628738 13.1456036,5.00592809 L2.17402328,16.1401495 C1.64641125,17.9148133 2.34662429,19.835437 3.8936152,20.8568431 L19.4695788,22.3520441 C20.5292735,23.1108345 21.8730922,23.3401811 23.1145955,22.9741212 C26.1503987,21.8718659 26.9115925,16.3289619 24.8186147,10.5881053 C22.725637,4.84724868 18.5725233,1.08996471 15.5378644,2.19180455 Z M12.8874397,10.9440954 L4.91042547,17.1915 C4.66795456,17.3836528 4.3262446,17.3640175 4.10428103,17.1593928 L4.02874787,17.0762341 C3.83261411,16.8211987 3.85499481,16.4603945 4.08093702,16.2348807 L12.680214,7.73494858 C12.6356834,8.80822692 12.7051502,9.88403268 12.8874397,10.9440954 Z M22.4351779,21.1105366 C20.7542148,21.7208694 17.4353275,18.7092884 15.6841635,13.9059973 C13.9329995,9.10270611 14.5310192,4.66895398 16.2177037,4.05654376 C17.9043881,3.44413353 21.2118325,6.45986931 22.9629965,11.2631605 C24.7141606,16.0664516 24.1264395,20.4964644 22.4351779,21.1105366 Z M16.0011669,10.7379586 L15.997536,10.7457901 L15.9475791,10.767546 L15.9475791,10.767546 L15.8994828,10.7931607 C15.9325872,11.6328969 16.0843526,12.4644483 16.3502131,13.26277 L16.4706127,13.5930164 C16.7969125,14.5165594 17.2775695,15.3781557 17.8917426,16.1404485 L17.9615445,16.1151045 C19.4218832,15.5500306 20.1421386,13.8972171 19.5702979,12.423426 C19.0151434,10.9926459 17.4406695,10.249121 16.0011669,10.7379586 Z" id="Shape" fill="#FF5800"></path>
            </g>
        </g>
    </g>
</svg>