<svg xmlns="http://www.w3.org/2000/svg" width="32" height="34" viewBox="0 0 32 34">
    <g fill="none" fill-rule="evenodd">
        <path d="M0 0H32V32.278H0z" transform="translate(0 .122)"/>
        <path d="M0 0H32V32.278H0z" transform="translate(0 .122)"/>
        <path fill="#303846" fill-rule="nonzero" d="M16 2.69C8.636 2.69 2.667 8.71 2.667 16.14c0 7.427 5.97 13.448 13.333 13.448 7.364 0 13.333-6.021 13.333-13.449 0-3.567-1.404-6.988-3.905-9.51-2.5-2.522-5.892-3.94-9.428-3.94zm0 25.822c-6.775 0-12.267-5.54-12.267-12.373C3.733 9.306 9.225 3.766 16 3.766c6.775 0 12.267 5.54 12.267 12.373 0 3.282-1.293 6.429-3.593 8.75-2.3 2.32-5.42 3.623-8.674 3.623z" transform="translate(0 .122)"/>
        <path fill="#303846" fill-rule="nonzero" d="M24.41 11.835c.092.183.278.298.48.296.084.001.166-.017.24-.054.128-.064.224-.177.268-.313.044-.137.032-.285-.033-.413-.179-.353-.376-.696-.592-1.027-.103-.164-.286-.26-.478-.25-.193.011-.365.125-.45.3-.085.174-.071.38.038.541.194.296.37.603.528.92zM25.963 16.553c-.293-.028-.554.189-.582.485-.03.361-.084.72-.16 1.075-.028.14 0 .286.078.405.078.119.2.202.338.23h.107c.257.006.482-.176.533-.43.081-.39.14-.782.176-1.178.014-.144-.03-.287-.123-.397-.092-.11-.225-.179-.367-.19zM22.533 9.29c.1.097.231.15.368.151.146 0 .284-.06.384-.166.207-.21.207-.55 0-.759-.278-.276-.574-.535-.885-.775-.153-.12-.36-.15-.54-.077-.18.074-.309.239-.336.433-.027.195.05.39.204.51.277.205.55.436.805.684zM25.147 13.853c.086.345.152.695.197 1.049.035.27.264.47.533.468h.07c.291-.04.496-.309.458-.603-.05-.393-.12-.782-.213-1.167-.07-.288-.36-.464-.645-.393-.138.032-.258.118-.333.24-.075.12-.1.267-.067.406zM18.928 7.107c.337.107.666.237.987.387.07.031.147.048.224.048.208 0 .398-.121.485-.312.06-.13.065-.28.015-.414-.05-.134-.152-.242-.282-.301-.356-.167-.723-.311-1.098-.43-.279-.093-.579.058-.672.338-.046.137-.035.286.029.414s.176.225.312.27zM24.805 20.292c-.204 0-.39.117-.48.302-.363.69-.81 1.332-1.333 1.91.122-.667.158-1.347.107-2.023-.039-.64-.13-1.275-.272-1.9l1.6-.92c.165-.096.268-.274.268-.466 0-.193-.101-.372-.266-.468-.166-.097-.37-.098-.536-.001l-1.328.774c-.377-1.273-.886-2.503-1.52-3.669l2.262-1.318c.24-.154.318-.473.175-.723-.143-.25-.455-.341-.709-.207l-2.277 1.328c-.675-1.138-1.467-2.202-2.363-3.174l1.318-.769c.24-.155.318-.474.175-.723-.143-.25-.455-.341-.709-.208l-1.6.915c-.468-.433-.967-.83-1.493-1.19-.563-.377-1.17-.682-1.808-.908.652-.145 1.317-.219 1.984-.22h.352c.295 0 .533-.242.533-.539 0-.297-.238-.538-.533-.538h-.39c-5.135.018-9.503 3.785-10.32 8.9C4.825 19.57 7.8 24.53 12.67 26.173c4.87 1.644 10.205-.51 12.605-5.09.043-.078.065-.165.064-.254 0-.297-.24-.538-.534-.538zm-3.2-2.238l-2.938 1.7-1.952-3.416 3.376-1.969c.639 1.168 1.147 2.404 1.514 3.685zm-5.802-1.178l1.957 3.416-2.917 1.695c-.918-.96-1.728-2.02-2.416-3.158l3.376-1.953zm-3.91 1.033c-.63-1.169-1.132-2.405-1.493-3.685l2.933-1.7 1.952 3.416-3.392 1.97zm7.68-4.46l-3.376 1.964-1.957-3.427 2.917-1.7c.92.96 1.73 2.021 2.416 3.163zm-7.162-5.82c1.019.064 1.998.423 2.821 1.032.389.262.761.547 1.115.856l-2.64 1.538-1.92-3.351c.204-.05.413-.076.624-.076zm-1.547.618l1.936 3.346-2.667 1.533c-.389-2.157-.17-3.98.731-4.879zm-1.861 1.55c-.203 1.3-.148 2.627.16 3.905l-2.534 1.474c.202-2.003 1.033-3.888 2.374-5.38zM6.592 16.44l2.848-1.657c.383 1.272.896 2.5 1.53 3.664l-3.375 1.964c-.618-1.234-.96-2.59-1.003-3.97zm1.536 4.907l3.376-1.98c.675 1.14 1.467 2.206 2.363 3.18l-2.827 1.662c-1.164-.732-2.157-1.708-2.912-2.862zM16 25.65c-1.33 0-2.645-.289-3.856-.844l2.533-1.469c.948.914 2.067 1.627 3.291 2.098-.647.14-1.306.211-1.968.21v.005zm-.336-2.888l2.63-1.534 1.914 3.347c-1.227.328-2.896-.366-4.544-1.819v.006zm5.467 1.275L19.2 20.685l2.667-1.539c.09.462.15.93.181 1.4.08 1.57-.245 2.797-.917 3.485v.006z" transform="translate(0 .122)"/>
    </g>
</svg>
