<svg xmlns="http://www.w3.org/2000/svg" width="10" height="10" viewBox="0 0 10 10">
    <g fill="#98A5B9" fill-rule="evenodd">
        <path d="M5.679 1.82L.25 7.249.003 9.48c-.033.299.219.55.517.518l2.23-.246 5.43-5.43-2.501-2.5zm4.047-.371c.366.366.366.96 0 1.326L8.62 3.88l-2.5-2.5L7.225.274c.366-.367.96-.367 1.327 0l1.174 1.174zM7.5 7h2c.276 0 .5.224.5.5s-.224.5-.5.5h-2c-.276 0-.5-.224-.5-.5s.224-.5.5-.5zM5.5 9h4c.276 0 .5.224.5.5s-.224.5-.5.5h-4c-.276 0-.5-.224-.5-.5s.224-.5.5-.5z"/>
    </g>
</svg>
