<svg xmlns="http://www.w3.org/2000/svg" width="32" height="32" fill="none" viewBox="0 0 32 32">
    <g clip-path="url(#prefix__clip0)" opacity=".65">
        <path fill="#0E65E5" d="M25.449 31.458H7.623c-.47 0-.85-.38-.85-.85V8.985c0-.469.38-.85.85-.85H25.45c.47 0 .85.381.85.85v21.623c0 .47-.38.85-.85.85z"/>
        <path fill="#0E65E5" d="M25.448 32H7.623c-.768 0-1.393-.625-1.393-1.392V8.985c0-.767.625-1.392 1.393-1.392h17.825c.768 0 1.393.625 1.393 1.392v21.623c0 .767-.625 1.392-1.393 1.392zM7.623 8.678c-.17 0-.308.138-.308.307v21.623c0 .17.138.307.308.307h17.825c.17 0 .308-.137.308-.307V8.985c0-.17-.138-.307-.308-.307H7.623z"/>
        <path fill="#94C1FF" d="M24.365 31.458H6.539c-.47 0-.85-.38-.85-.85V8.985c0-.469.38-.85.85-.85h17.826c.47 0 .85.381.85.85v21.623c0 .47-.38.85-.85.85z"/>
        <path fill="#0E65E5" d="M24.364 32H6.54c-.768 0-1.393-.625-1.393-1.392V8.985c0-.767.625-1.392 1.393-1.392h17.825c.768 0 1.393.625 1.393 1.392v21.623c0 .767-.625 1.392-1.393 1.392zM6.54 8.678c-.17 0-.308.138-.308.307v21.623c0 .17.138.307.308.307h17.825c.17 0 .308-.137.308-.307V8.985c0-.17-.138-.307-.308-.307H6.54z"/>
        <path fill="#fff" d="M8.941 3.797v7.05h13.017V.543h-9.762L8.94 3.797z"/>
        <path fill="#0E65E5" d="M21.962 11.39H8.945c-.3 0-.543-.243-.543-.542V3.796c0-.144.057-.281.16-.383L11.815.16c.101-.102.24-.159.383-.159h9.763c.3 0 .542.243.542.542v10.306c0 .3-.243.542-.543.542zM9.487 10.305h11.932v-9.22h-8.995L9.487 4.02v6.284z"/>
        <path fill="#0E65E5" d="M12.199 4.339H8.945c-.3 0-.543-.243-.543-.543 0-.3.243-.542.543-.542h2.712V.542c0-.3.242-.542.542-.542.3 0 .542.243.542.542v3.254c0 .3-.243.543-.542.543zM10.028 11.39h-2.17c-.299 0-.542-.242-.542-.542 0-.3.243-.543.543-.543h2.17c.299 0 .542.243.542.543 0 .3-.243.542-.543.542zM23.046 11.39h-2.17c-.3 0-.542-.242-.542-.542 0-.3.243-.543.542-.543h2.17c.3 0 .542.243.542.543 0 .3-.243.542-.542.542z"/>
        <path fill="#2A8EE6" fill-rule="evenodd" d="M8.941 13.56h12.475v3.254H8.941V13.56z" clip-rule="evenodd"/>
        <path fill="#0E65E5" d="M21.417 17.356H8.943c-.3 0-.543-.243-.543-.543V13.56c0-.3.243-.542.543-.542h12.474c.3 0 .542.242.542.542v3.254c0 .3-.242.543-.542.543zM9.485 16.27h11.39V14.1H9.485v2.17z"/>
        <path fill="#D7E9FF" d="M8.4 19.525h3.255v2.17H8.4v-2.17z"/>
        <path fill="#0E65E5" d="M11.656 22.238H8.402c-.3 0-.543-.243-.543-.543v-2.17c0-.299.243-.542.543-.542h3.254c.3 0 .542.243.542.543v2.17c0 .299-.242.542-.542.542zm-2.712-1.085h2.17v-1.085h-2.17v1.085z"/>
        <path fill="#D7E9FF" d="M18.705 19.525h3.254v2.17h-3.254v-2.17z"/>
        <path fill="#0E65E5" d="M21.96 22.238h-3.253c-.3 0-.543-.243-.543-.543v-2.17c0-.299.243-.542.543-.542h3.254c.3 0 .542.243.542.543v2.17c0 .299-.243.542-.542.542zm-2.711-1.085h2.17v-1.085h-2.17v1.085z"/>
        <path fill="#D7E9FF" d="M13.824 19.525h2.712v2.17h-2.712v-2.17z"/>
        <path fill="#0E65E5" d="M16.536 22.238h-2.712c-.3 0-.543-.243-.543-.543v-2.17c0-.299.243-.542.543-.542h2.712c.299 0 .542.243.542.543v2.17c0 .299-.243.542-.542.542zm-2.17-1.085h1.627v-1.085h-1.627v1.085z"/>
        <path fill="#D7E9FF" d="M8.4 23.864h3.255v2.17H8.4v-2.17z"/>
        <path fill="#0E65E5" d="M11.656 26.576H8.402c-.3 0-.543-.243-.543-.542v-2.17c0-.3.243-.542.543-.542h3.254c.3 0 .542.242.542.542v2.17c0 .3-.242.542-.542.542zm-2.712-1.085h2.17v-1.085h-2.17v1.085z"/>
        <path fill="#D7E9FF" d="M13.824 23.864h8.136v2.17h-8.136v-2.17z"/>
        <path fill="#0E65E5" d="M21.96 26.576h-8.136c-.3 0-.543-.243-.543-.542v-2.17c0-.3.243-.542.543-.542h8.135c.3 0 .543.242.543.542v2.17c0 .3-.243.542-.543.542zm-7.594-1.085h7.051v-1.085h-7.05v1.085z"/>
        <path fill="#fff" d="M21.961 28.746H8.401c-.299 0-.542-.243-.542-.542 0-.3.243-.543.543-.543H21.96c.3 0 .543.243.543.543 0 .3-.243.542-.543.542zM24.673 15.728c-.3 0-.542-.242-.542-.542v-2.17c0-.3.243-.542.542-.542.3 0 .543.243.543.543v2.17c0 .3-.243.541-.543.541z"/>
        <path fill="#fff" d="M25.757 14.644h-2.17c-.3 0-.542-.242-.542-.542 0-.3.243-.542.542-.542h2.17c.3 0 .542.242.542.542 0 .3-.243.542-.542.542z"/>
    </g>
    <defs>
        <clipPath id="prefix__clip0">
            <path fill="#fff" d="M0 0H32V32H0z"/>
        </clipPath>
    </defs>
</svg>
