<?xml version="1.0" encoding="utf-8"?>
<!-- Generator: Adobe Illustrator 22.1.0, SVG Export Plug-In . SVG Version: 6.00 Build 0)  -->
<svg version="1.1" id="Layer_1" xmlns="http://www.w3.org/2000/svg" xmlns:xlink="http://www.w3.org/1999/xlink" x="0px" y="0px"
	 viewBox="0 0 151.3 89" style="enable-background:new 0 0 151.3 89;" xml:space="preserve">
<style type="text/css">
	.st0{fill:url(#SVGID_1_);}
	.st1{fill:url(#SVGID_2_);}
	.st2{fill:url(#SVGID_3_);}
	.st3{fill:url(#SVGID_4_);}
</style>
<linearGradient id="SVGID_1_" gradientUnits="userSpaceOnUse" x1="-40.1533" y1="60.0852" x2="17.6328" y2="60.0852" gradientTransform="matrix(1 0 0 1 40.1533 0)">
	<stop  offset="0" style="stop-color:#BD2A36"/>
	<stop  offset="0.478" style="stop-color:#9929A6"/>
	<stop  offset="0.5953" style="stop-color:#77309C"/>
	<stop  offset="0.7785" style="stop-color:#49398D"/>
	<stop  offset="0.9195" style="stop-color:#2C3F84"/>
	<stop  offset="1" style="stop-color:#214181"/>
</linearGradient>
<path class="st0" d="M1.5,89c-0.4,0-0.8-0.1-1.1-0.4c-0.6-0.6-0.6-1.5,0-2.1l54.8-54.8c0.6-0.6,1.5-0.6,2.1,0c0.6,0.6,0.6,1.5,0,2.1
	L2.6,88.5C2.3,88.8,1.9,89,1.5,89z"/>
<linearGradient id="SVGID_2_" gradientUnits="userSpaceOnUse" x1="-20.668" y1="28.8926" x2="37.1172" y2="28.8926" gradientTransform="matrix(1 0 0 1 40.1533 0)">
	<stop  offset="0" style="stop-color:#BD2A36"/>
	<stop  offset="0.478" style="stop-color:#9929A6"/>
	<stop  offset="0.5953" style="stop-color:#77309C"/>
	<stop  offset="0.7785" style="stop-color:#49398D"/>
	<stop  offset="0.9195" style="stop-color:#2C3F84"/>
	<stop  offset="1" style="stop-color:#214181"/>
</linearGradient>
<path class="st1" d="M21,57.8c-0.4,0-0.8-0.1-1.1-0.4c-0.6-0.6-0.6-1.5,0-2.1L74.7,0.4c0.6-0.6,1.5-0.6,2.1,0c0.6,0.6,0.6,1.5,0,2.1
	L22,57.3C21.8,57.6,21.4,57.8,21,57.8z"/>
<linearGradient id="SVGID_3_" gradientUnits="userSpaceOnUse" x1="111.8589" y1="67.9778" x2="153.8589" y2="67.9778" gradientTransform="matrix(-1 0 0 1 211.1172 0)">
	<stop  offset="2.403850e-03" style="stop-color:#00CEE9"/>
	<stop  offset="0.9964" style="stop-color:#A7FF32;stop-opacity:0.7"/>
</linearGradient>
<path class="st2" d="M57.3,68c0-11.6,9.4-21,21-21s21,9.4,21,21c0,11.6-9.4,21-21,21S57.3,79.6,57.3,68z M61.2,68
	c0,9.4,7.6,17,17,17s17-7.6,17-17s-7.6-17-17-17S61.2,58.6,61.2,68z"/>
<linearGradient id="SVGID_4_" gradientUnits="userSpaceOnUse" x1="1081.1233" y1="1329.1445" x2="1095.6543" y2="1311.8271" gradientTransform="matrix(1 0 0 -1 -950.7188 1332.1318)">
	<stop  offset="2.403850e-03" style="stop-color:#DB41D3"/>
	<stop  offset="0.9964" style="stop-color:#0085EA;stop-opacity:0.7"/>
</linearGradient>
<path class="st3" d="M138.6,25.5l0.1,0l0-2.8l-0.1,0c-5.5,0-9.9-4.5-9.9-9.9s4.5-9.9,9.9-9.9c5.5,0,9.9,4.5,9.9,9.9h2.8
	c0-7-5.7-12.8-12.8-12.8c-7,0-12.7,5.7-12.7,12.8S131.6,25.5,138.6,25.5z"/>
</svg>
