<svg xmlns="http://www.w3.org/2000/svg" width="32" height="32" fill="none" viewBox="0 0 32 32">
    <path fill="#0E65E5" d="M26.875 31.128H3.279c-1.471 0-2.664-1.192-2.664-2.663V11.638c0-1.471 1.193-2.663 2.664-2.663h23.596c1.47 0 2.663 1.192 2.663 2.663v16.827c0 1.471-1.192 2.663-2.663 2.663z"/>
    <path fill="#0E65E5" d="M26.875 31.744H3.279C1.47 31.744 0 30.272 0 28.464V11.639c0-1.808 1.471-3.28 3.279-3.28h23.596c1.808 0 3.279 1.472 3.279 3.28v16.827c0 1.807-1.471 3.279-3.279 3.279zM3.279 9.59c-1.13 0-2.048.919-2.048 2.047v16.828c0 1.129.919 2.048 2.048 2.048h23.596c1.13 0 2.048-.92 2.048-2.048V11.637c0-1.129-.92-2.047-2.048-2.047H3.279z"/>
    <path fill="#0E65E5" d="M15.386 13.898H2.463V12.05c0-3.398 2.754-6.152 6.152-6.152h6.77v8z"/>
    <path fill="#0E65E5" d="M15.384 14.513H2.461c-.34 0-.615-.275-.615-.615v-1.849c0-3.731 3.035-6.767 6.767-6.767h6.771c.34 0 .615.276.615.616v8c0 .34-.275.615-.615.615zm-12.308-1.23H14.77v-6.77H8.613c-3.053 0-5.537 2.483-5.537 5.536v1.233z"/>
    <path fill="#94C1FF" d="M7.385 3.437h19.692v14.769H7.385V3.436z"/>
    <path fill="#0E65E5" d="M27.077 18.821H7.385c-.34 0-.615-.275-.615-.616V3.437c0-.34.275-.615.615-.615h19.692c.34 0 .615.275.615.615v14.77c0 .34-.274.615-.615.615zM8 17.59h18.462V4.052H8V17.59z"/>
    <path fill="#D7E9FF" d="M7.385 5.898c2.719 0 4.923 2.204 4.923 4.923s-2.204 4.923-4.923 4.923V5.898z"/>
    <path fill="#0E65E5" d="M7.385 16.359c-.34 0-.615-.275-.615-.615V5.898c0-.34.275-.616.615-.616 3.054 0 5.538 2.484 5.538 5.539 0 3.054-2.484 5.538-5.538 5.538zM8 6.557v8.527c2.085-.299 3.693-2.097 3.693-4.263 0-2.167-1.608-3.965-3.693-4.264z"/>
    <path fill="#94C1FF" d="M23.385 18.205c0-2.04 1.653-3.692 3.692-3.692l-3.692 3.692z"/>
    <path fill="#0E65E5" d="M23.385 18.82c-.34 0-.616-.275-.616-.615 0-2.375 1.933-4.307 4.308-4.307.34 0 .616.274.616.615 0 .34-.275.615-.616.615-1.696 0-3.077 1.38-3.077 3.077 0 .34-.275.616-.615.616z"/>
    <path fill="#94C1FF" d="M23.385 3.437c0 2.039 1.653 3.692 3.692 3.692l-3.692-3.692z"/>
    <path fill="#0E65E5" d="M27.077 7.744c-2.375 0-4.308-1.933-4.308-4.308 0-.34.276-.615.616-.615.34 0 .615.275.615.615 0 1.697 1.38 3.077 3.077 3.077.34 0 .616.276.616.616 0 .34-.275.615-.616.615z"/>
    <path fill="#94C1FF" d="M25.846.975v2.461H7.385L25.846.975z"/>
    <path fill="#0E65E5" d="M25.847 4.052H7.385c-.324 0-.592-.252-.614-.575-.021-.323.211-.608.533-.65L25.766.364c.176-.024.353.03.486.147.134.116.21.285.21.462v2.462c0 .34-.275.616-.615.616zm-9.19-1.231h8.574V1.678L16.657 2.82z"/>
    <path fill="#D7E9FF" d="M28.722 31.128H5.126c-1.47 0-2.663-1.192-2.663-2.663V11.638c0-1.471 1.192-2.663 2.663-2.663h23.596c1.471 0 2.664 1.192 2.664 2.663v16.827c0 1.471-1.193 2.663-2.664 2.663z"/>
    <path fill="#0E65E5" d="M28.72 31.744H5.125c-1.807 0-3.278-1.471-3.278-3.279V11.638c0-1.807 1.47-3.279 3.278-3.279h23.597c1.807 0 3.278 1.472 3.278 3.279v16.827c0 1.808-1.47 3.28-3.278 3.28zM5.125 9.59c-1.129 0-2.048.92-2.048 2.048v16.827c0 1.13.92 2.048 2.048 2.048h23.597c1.129 0 2.048-.919 2.048-2.048V11.638c0-1.13-.92-2.048-2.048-2.048H5.124z"/>
    <path fill="#94C1FF" d="M24.308 24.36h7.078v-6.77h-7.078c-1.869 0-3.384 1.515-3.384 3.384 0 1.87 1.515 3.385 3.384 3.385z"/>
    <path fill="#0E65E5" d="M31.384 24.975h-7.078c-2.205 0-4-1.794-4-4s1.795-4 4-4h7.078c.34 0 .615.275.615.615v6.77c0 .34-.275.615-.615.615zm-7.078-6.77c-1.526 0-2.769 1.243-2.769 2.77s1.243 2.77 2.77 2.77h6.461v-5.54h-6.462z"/>
    <path fill="#94C1FF" d="M25.846 20.974c0 .85-.688 1.539-1.538 1.539-.85 0-1.538-.689-1.538-1.539s.688-1.538 1.538-1.538c.85 0 1.538.689 1.538 1.538z"/>
    <path fill="#0E65E5" d="M24.308 23.128c-1.188 0-2.154-.966-2.154-2.154 0-1.187.966-2.153 2.154-2.153s2.154.966 2.154 2.153c0 1.188-.966 2.154-2.154 2.154zm0-3.076c-.509 0-.923.414-.923.922 0 .51.414.924.923.924.51 0 .923-.414.923-.924 0-.508-.414-.922-.923-.922zM3.692 12.667h-1.23c-.34 0-.616-.275-.616-.615 0-.34.275-.616.615-.616h1.23c.341 0 .616.275.616.616 0 .34-.275.615-.615.615zM27.748 12.667h-2.406c-.34 0-.615-.275-.615-.615 0-.34.275-.616.615-.616h2.406c.34 0 .615.275.615.616 0 .34-.275.615-.615.615zm-4.811 0H20.53c-.34 0-.615-.275-.615-.615 0-.34.275-.616.615-.616h2.406c.34 0 .615.275.615.616 0 .34-.275.615-.615.615zm-4.811 0H15.72c-.34 0-.615-.275-.615-.615 0-.34.275-.616.615-.616h2.406c.34 0 .615.275.615.616 0 .34-.275.615-.615.615zm-4.811 0h-2.406c-.34 0-.616-.275-.616-.615 0-.34.276-.616.616-.616h2.406c.34 0 .615.275.615.616 0 .34-.275.615-.615.615zm-4.812 0H6.098c-.34 0-.616-.275-.616-.615 0-.34.276-.616.616-.616h2.406c.34 0 .615.275.615.616 0 .34-.276.615-.616.615zM31.383 12.667h-1.23c-.34 0-.616-.275-.616-.615 0-.34.276-.616.616-.616h1.23c.34 0 .616.275.616.616 0 .34-.275.615-.616.615z"/>
    <path fill="#fff" d="M6.154 29.282c-.34 0-.615-.275-.615-.615v-2.462c0-.34.275-.615.615-.615.34 0 .616.275.616.616v2.461c0 .34-.276.615-.616.615z"/>
    <path fill="#fff" d="M7.384 28.052H4.922c-.34 0-.615-.276-.615-.616 0-.34.275-.615.615-.615h2.462c.34 0 .615.275.615.615 0 .34-.275.616-.615.616zM14.153 5.898h-3.077c-.34 0-.615-.276-.615-.616 0-.34.275-.615.615-.615h3.077c.34 0 .615.275.615.615 0 .34-.275.616-.615.616z"/>
</svg>
