<svg xmlns="http://www.w3.org/2000/svg" width="81" height="10"><path fill="#14A5D9" d="M52.891 0c.57 0 1.085.054 1.548.176.463.122.847.312 1.164.57.318.257.556.568.728.961.172.393.25.854.238 1.382H53.83c-.04-.623-.37-.935-1.019-.935-.304 0-.542.068-.701.19a.67.67 0 0 0-.238.542c0 .203.08.366.251.474.172.109.49.204.953.299a9.594 9.594 0 0 1 1.415.392c.41.15.74.34 1.018.57.278.23.477.501.622.813.132.311.199.69.199 1.11 0 .502-.093.963-.265 1.383-.172.42-.436.786-.78 1.097-.344.312-.768.542-1.27.705-.516.176-1.098.257-1.76.271-.648 0-1.23-.068-1.732-.217-.503-.149-.926-.352-1.27-.637a2.585 2.585 0 0 1-.794-1.03 3.114 3.114 0 0 1-.264-1.395H51c.013.149.04.298.092.42.04.135.12.257.225.352.093.109.225.19.397.244.172.068.37.095.609.095.357.014.635-.054.806-.203.172-.15.265-.353.265-.624 0-.203-.093-.352-.265-.474-.185-.122-.502-.217-.952-.311-.595-.122-1.085-.258-1.495-.434a3.137 3.137 0 0 1-.978-.596 2.109 2.109 0 0 1-.556-.813c-.12-.312-.172-.664-.172-1.07 0-.475.093-.909.265-1.315.172-.393.423-.745.754-1.043.33-.299.74-.529 1.23-.705C51.715.08 52.27 0 52.89 0zM12.148 0 3.007 10 0 3.747l3.618 2.518L12.148 0zm10.256.136-.37 2.37H18.49l-.264 1.803h2.843l-.343 2.176-.014.087h-2.844l-.502 3.252h-3.003L15.857.136zm4.96 0c1.205 0 2.104.257 2.7.758.594.502.885 1.193.885 2.046 0 .8-.198 1.437-.582 1.924-.396.502-.899.84-1.52 1.017l1.692 3.943H27.51l-1.402-3.32h-.49l-.502 3.32h-2.99L23.622.136zm12.355 0-.357 2.357h-3.73l-.212 1.369h2.963l-.317 2.14h-2.963l-.238 1.464h3.942l-.357 2.358h-6.932L33.013.136zm8.215 0-.357 2.357h-3.73l-.212 1.369h2.963l-.318 2.14h-2.963l-.238 1.464h3.942l-.357 2.358h-6.931L41.227.136zm13.569 0-.543 3.577h2.765L64.28.136h3.003l-1.495 9.688h-3.002l.568-3.726h-2.777l-.57 3.726h-3.002L58.5.136zm10.568 0-1.494 9.688h-3.03L69.043.136zm5.318 0c1.177 0 2.077.257 2.685.758.609.502.913 1.193.926 2.06 0 .61-.093 1.138-.278 1.599-.198.46-.463.84-.807 1.152-.357.311-.78.555-1.27.718a5.434 5.434 0 0 1-1.68.244h-1.124l-.49 3.157H72.35L73.844.136zm-.33 2.262h-.583l-.33 2.209h.687c.424 0 .754-.108.98-.325.224-.217.343-.542.343-.976 0-.61-.37-.908-1.098-.908zm-50.104.041h-.701l-.331 2.087h.82c.41 0 .728-.095.952-.285.225-.176.331-.474.331-.894 0-.61-.357-.908-1.071-.908z"/></svg>