<svg width="46" height="10" xmlns="http://www.w3.org/2000/svg"><path d="m24.154.2-.35 1.708h-3.066l-.434 2.254h2.576l-.322 1.708h-2.59L19.17 10h-2.212L18.862.2h5.292Zm4.242 0c1.974 0 3.164 1.092 2.856 2.716l-.126.672c-.21 1.008-.91 1.806-1.918 2.268L30.314 10h-2.226l-.798-3.71h-1.134L25.442 10H23.23L25.134.2Zm10.22 0-.35 1.708h-3.444l-.434 2.254h3.024L37.09 5.87h-3.038l-.476 2.422h3.458L36.712 10h-5.67L32.946.2h5.67Zm6.888 0-.35 1.708H41.71l-.434 2.254H44.3l-.322 1.708H40.94l-.476 2.422h3.458L43.6 10h-5.67L39.834.2h5.67ZM12 8a1 1 0 0 1 0 2H1a1 1 0 1 1 0-2h11Zm1-4a1 1 0 0 1 0 2H5a1 1 0 1 1 0-2h8Zm15.032-2.092H27.01l-.518 2.674H27.5c.672 0 1.274-.322 1.386-.882l.168-.91c.112-.546-.35-.882-1.022-.882ZM14 0a1 1 0 0 1 0 2H9a1 1 0 1 1 0-2h5Z" fill="#000" fill-rule="nonzero"/></svg>