<?xml version="1.0" encoding="utf-8"?>
<!-- Generator: Adobe Illustrator 22.1.0, SVG Export Plug-In . SVG Version: 6.00 Build 0)  -->
<svg version="1.1" id="Capa_1" xmlns="http://www.w3.org/2000/svg" xmlns:xlink="http://www.w3.org/1999/xlink" x="0px" y="0px"
	 viewBox="-52 451.3 40 36.7" style="enable-background:new -52 451.3 40 36.7;" xml:space="preserve">
<style type="text/css">
	.st0{fill:#999999;}
</style>
<path class="st0" d="M-12.2,456.7c-0.2-0.2-0.3-0.3-0.7-0.3h-31.7l-0.8-4.3c0-0.3-0.5-0.7-0.8-0.7h-5c-0.5,0-0.8,0.3-0.8,0.8
	c0,0.5,0.3,0.8,0.8,0.8h4.3l4,20.3c0.5,2.7,3,4.7,5.7,4.7H-18c0.5,0,0.8-0.3,0.8-0.8c0-0.5-0.3-0.8-0.8-0.8h-19
	c-1.3,0-2.7-0.7-3.3-1.8l24.3-3.3c0.3,0,0.7-0.3,0.7-0.7l3.3-13.3C-12,457.2-12,456.8-12.2,456.7z M-16.8,469.7l-24.3,3.2l-3-15H-14
	L-16.8,469.7z"/>
<path class="st0" d="M-37.8,479.7c-2.3,0-4.2,1.8-4.2,4.2s1.8,4.2,4.2,4.2c2.3,0,4.2-1.8,4.2-4.2S-35.5,479.7-37.8,479.7z
	 M-37.8,486.3c-1.3,0-2.5-1.2-2.5-2.5s1.2-2.5,2.5-2.5c1.3,0,2.5,1.2,2.5,2.5S-36.5,486.3-37.8,486.3z"/>
<path class="st0" d="M-21.2,479.7c-2.3,0-4.2,1.8-4.2,4.2s1.8,4.2,4.2,4.2s4.2-1.8,4.2-4.2S-18.8,479.7-21.2,479.7z M-21.2,486.3
	c-1.3,0-2.5-1.2-2.5-2.5s1.2-2.5,2.5-2.5c1.3,0,2.5,1.2,2.5,2.5S-19.8,486.3-21.2,486.3z"/>
</svg>
