<?xml version="1.0" encoding="utf-8"?>
<!-- Generator: Adobe Illustrator 22.0.1, SVG Export Plug-In . SVG Version: 6.00 Build 0)  -->
<svg version="1.1" id="Layer_1" xmlns="http://www.w3.org/2000/svg" xmlns:xlink="http://www.w3.org/1999/xlink" x="0px" y="0px"
	 viewBox="0 0 48 48" style="enable-background:new 0 0 48 48;" xml:space="preserve">
<style type="text/css">
	.st0{fill:url(#SVGID_1_);}
	.st1{fill:url(#SVGID_2_);}
	.st2{fill:url(#SVGID_3_);}
	.st3{fill:url(#SVGID_4_);}
	.st4{fill:url(#SVGID_5_);}
	.st5{fill:url(#SVGID_6_);}
	.st6{fill:url(#SVGID_7_);}
	.st7{fill:url(#SVGID_8_);}
	.st8{fill:url(#SVGID_9_);}
	.st9{fill:url(#SVGID_10_);}
	.st10{fill:url(#SVGID_11_);}
	.st11{fill:url(#SVGID_12_);}
	.st12{fill:url(#SVGID_13_);}
	.st13{fill:url(#SVGID_14_);}
	.st14{fill:url(#SVGID_15_);}
	.st15{fill:url(#SVGID_16_);}
	.st16{fill:url(#SVGID_17_);}
	.st17{fill:url(#SVGID_18_);}
	.st18{fill:url(#SVGID_19_);}
	.st19{fill:url(#SVGID_20_);}
	.st20{fill:url(#SVGID_21_);}
	.st21{fill:url(#SVGID_22_);}
	.st22{fill:url(#SVGID_23_);}
	.st23{fill:url(#SVGID_24_);}
	.st24{fill:url(#SVGID_25_);}
	.st25{fill:url(#SVGID_26_);}
	.st26{fill:url(#SVGID_27_);}
	.st27{fill:url(#SVGID_28_);}
	.st28{fill:url(#SVGID_29_);}
	.st29{fill:url(#SVGID_30_);}
	.st30{fill:url(#SVGID_31_);}
	.st31{fill:url(#SVGID_32_);}
	.st32{fill:url(#SVGID_33_);}
	.st33{fill:url(#SVGID_34_);}
	.st34{fill:url(#SVGID_35_);}
	.st35{fill:url(#SVGID_36_);}
	.st36{fill:url(#SVGID_37_);}
	.st37{fill:url(#SVGID_38_);}
	.st38{fill:url(#SVGID_39_);}
	.st39{fill:url(#SVGID_40_);}
	.st40{fill:url(#SVGID_41_);}
	.st41{fill:url(#SVGID_42_);}
	.st42{fill:url(#XMLID_2_);}
	.st43{fill:url(#XMLID_3_);}
</style>
<g>
	<linearGradient id="SVGID_1_" gradientUnits="userSpaceOnUse" x1="0" y1="18" x2="48" y2="18">
		<stop  offset="0" style="stop-color:#BD2A36"/>
		<stop  offset="0.4882" style="stop-color:#9A4599"/>
		<stop  offset="1" style="stop-color:#214181"/>
	</linearGradient>
	<path class="st0" d="M47.8,8.4C47.6,8.2,47.4,8,47,8H9L8,2.8C8,2.4,7.4,2,7,2H1C0.4,2,0,2.4,0,3s0.4,1,1,1h5.2L11,28.4
		c0.6,3.2,3.6,5.6,6.8,5.6h23c0.6,0,1-0.4,1-1s-0.4-1-1-1H18c-1.6,0-3.2-0.8-4-2.2l29.2-4c0.4,0,0.8-0.4,0.8-0.8l4-16
		C48,9,48,8.6,47.8,8.4z M42.2,24L13,27.8l-3.6-18h36.2L42.2,24z"/>
	<linearGradient id="SVGID_2_" gradientUnits="userSpaceOnUse" x1="12" y1="41" x2="22" y2="41">
		<stop  offset="0" style="stop-color:#BD2A36"/>
		<stop  offset="0.4882" style="stop-color:#9A4599"/>
		<stop  offset="1" style="stop-color:#214181"/>
	</linearGradient>
	<path class="st1" d="M17,36c-2.8,0-5,2.2-5,5s2.2,5,5,5s5-2.2,5-5S19.8,36,17,36z M17,44c-1.6,0-3-1.4-3-3s1.4-3,3-3s3,1.4,3,3
		S18.6,44,17,44z"/>
	<linearGradient id="SVGID_3_" gradientUnits="userSpaceOnUse" x1="32" y1="41" x2="42" y2="41">
		<stop  offset="0" style="stop-color:#BD2A36"/>
		<stop  offset="0.4882" style="stop-color:#9A4599"/>
		<stop  offset="1" style="stop-color:#214181"/>
	</linearGradient>
	<path class="st2" d="M37,36c-2.8,0-5,2.2-5,5s2.2,5,5,5s5-2.2,5-5S39.8,36,37,36z M37,44c-1.6,0-3-1.4-3-3s1.4-3,3-3s3,1.4,3,3
		S38.6,44,37,44z"/>
</g>
</svg>
