<svg xmlns="http://www.w3.org/2000/svg" xmlns:xlink="http://www.w3.org/1999/xlink" viewBox="0 0 24 23.98">
  <defs>
    <style>
      .cls-1 {
        fill: url(#linear-gradient);
      }

      .cls-2 {
        fill: url(#linear-gradient-2);
      }

      .cls-3 {
        fill: url(#linear-gradient-3);
      }

      .cls-4 {
        fill: url(#linear-gradient-4);
      }
    </style>
    <linearGradient id="linear-gradient" x1="-0.262" y1="-1.011" x2="0.717" y2="1.572" gradientUnits="objectBoundingBox">
      <stop offset="0" stop-color="#bd2a36"/>
      <stop offset="0.478" stop-color="#9929a6"/>
      <stop offset="0.595" stop-color="#77309c"/>
      <stop offset="0.779" stop-color="#49398d"/>
      <stop offset="0.919" stop-color="#2c3f84"/>
      <stop offset="1" stop-color="#214181"/>
    </linearGradient>
    <linearGradient id="linear-gradient-2" x1="-0.039" y1="-2.075" x2="0.953" y2="2.626" xlink:href="#linear-gradient"/>
    <linearGradient id="linear-gradient-3" x1="-0.144" y1="-0.138" x2="2.125" y2="2.108" xlink:href="#linear-gradient"/>
    <linearGradient id="linear-gradient-4" x1="-0.67" y1="-0.677" x2="1.571" y2="1.57" xlink:href="#linear-gradient"/>
  </defs>
  <g id="Group_91" data-name="Group 91" transform="translate(0 -0.02)">
    <path id="Path_152" data-name="Path 152" class="cls-1" d="M0,24H24L12,14.9Z"/>
    <path id="Path_153" data-name="Path 153" class="cls-2" d="M23.4,10.6.4,14.7c-.2,0-.3.2-.3.4v.2c0,.2.2.3.4.3l23-4.1c.2,0,.3-.2.3-.4v-.2C23.8,10.7,23.6,10.6,23.4,10.6Z"/>
    <path id="Path_154" data-name="Path 154" class="cls-3" d="M6.1,12.7a5.247,5.247,0,0,0,4.2-6.1,5.1,5.1,0,0,0-6-4.2A5.247,5.247,0,0,0,.1,8.5,5.126,5.126,0,0,0,6.1,12.7ZM4.6,5.3l-.1-.7.4-.1.1.7a1.412,1.412,0,0,1,.9.1v.5A2.769,2.769,0,0,0,5,5.7c-.5.1-.7.4-.6.7.1.4.3.5,1,.6.7.2,1.2.5,1.3,1.1a1.13,1.13,0,0,1-.9,1.3l.1.7-.4.1-.2-.7a2.079,2.079,0,0,1-1.1-.1l.1-.5a1.183,1.183,0,0,0,1,.1c.5-.1.8-.4.7-.8s-.4-.5-.9-.6c-.7-.1-1.2-.4-1.3-1A1.213,1.213,0,0,1,4.6,5.3Z"/>
    <path id="Path_155" data-name="Path 155" class="cls-4" d="M19.7,10.4A5.237,5.237,0,1,0,17.8.1a5.174,5.174,0,0,0-4.2,6.1A5.224,5.224,0,0,0,19.7,10.4ZM18.1,3,18,2.3l.4-.1.1.7a1.412,1.412,0,0,1,.9.1l-.1.5a2.769,2.769,0,0,0-.9-.1c-.5.1-.7.4-.6.7.1.4.3.5,1,.6.7.2,1.2.5,1.3,1.1a1.13,1.13,0,0,1-.9,1.3l.1.7H19l-.1-.7A2.079,2.079,0,0,1,17.8,7l.1-.5a1.729,1.729,0,0,0,1,.1c.5-.1.8-.4.7-.8s-.4-.6-.9-.7c-.7-.1-1.2-.4-1.3-1C17.2,3.7,17.6,3.1,18.1,3Z"/>
  </g>
</svg>
