<svg xmlns="http://www.w3.org/2000/svg" xmlns:xlink="http://www.w3.org/1999/xlink" viewBox="0 0 1176 336"><defs><style>.cls-1{fill:#fff;}.cls-2{mask:url(#mask);}.cls-3{fill:#98a5b9;}.cls-4{fill:none;stroke:#98a5b9;stroke-width:3px;stroke-dasharray:2 2;}</style><mask id="mask" x="0" y="0" width="1176" height="336" maskUnits="userSpaceOnUse"><g id="path-1-inside-1_1683:27066" data-name="path-1-inside-1 1683:27066"><path class="cls-1" d="M363,6a18,18,0,1,1-35.75-3H39A36,36,0,0,0,3,39V297a36,36,0,0,0,36,36H327a18,18,0,0,1,36,0h774a36,36,0,0,0,36-36V39a36,36,0,0,0-36-36H362.75A18,18,0,0,1,363,6Z"/></g></mask></defs><title>Asset 2</title><g id="Layer_2" data-name="Layer 2"><g id="Layer_1-2" data-name="Layer 1"><path class="cls-1" d="M363,6a18,18,0,1,1-35.75-3H39A36,36,0,0,0,3,39V297a36,36,0,0,0,36,36H327a18,18,0,0,1,36,0h774a36,36,0,0,0,36-36V39a36,36,0,0,0-36-36H362.75A18,18,0,0,1,363,6Z"/><g class="cls-2"><path class="cls-3" d="M327.25,3l3,.5.59-3.5h-3.55ZM327,333v3h3v-3Zm36,0h-3v3h3ZM362.75,3V0h-3.55l.59,3.5ZM345,27A21,21,0,0,0,366,6h-6a15,15,0,0,1-15,15ZM324,6a21,21,0,0,0,21,21V21A15,15,0,0,1,330,6Zm.29-3.5A21,21,0,0,0,324,6h6a15.26,15.26,0,0,1,.21-2.5ZM39,6H327.25V0H39ZM6,39A33,33,0,0,1,39,6V0A39,39,0,0,0,0,39ZM6,297V39H0V297Zm33,33A33,33,0,0,1,6,297H0a39,39,0,0,0,39,39Zm288,0H39v6H327Zm3,3a15,15,0,0,1,15-15v-6a21,21,0,0,0-21,21Zm15-15a15,15,0,0,1,15,15h6a21,21,0,0,0-21-21Zm792,12H363v6h774Zm33-33a33,33,0,0,1-33,33v6a39,39,0,0,0,39-39Zm0-258V297h6V39ZM1137,6a33,33,0,0,1,33,33h6a39,39,0,0,0-39-39ZM362.75,6H1137V0H362.75ZM366,6a21,21,0,0,0-.29-3.5l-5.92,1A15.26,15.26,0,0,1,360,6Z"/></g><line class="cls-4" x1="345.5" y1="27" x2="345.5" y2="312"/></g></g></svg>