<svg width="310" height="110" viewBox="0 0 310 110" fill="none" xmlns="http://www.w3.org/2000/svg">
<mask id="path-1-inside-1_1592_30137" fill="white">
<path fill-rule="evenodd" clip-rule="evenodd" d="M0 12C0 5.37258 5.37258 0 12 0H298C304.627 0 310 5.37258 310 12V22C306.686 22 304 24.6863 304 28C304 31.3137 306.686 34 310 34V46C306.686 46 304 48.6863 304 52C304 55.3137 306.686 58 310 58V70C306.686 70 304 72.6863 304 76C304 79.3137 306.686 82 310 82V98C310 104.627 304.627 110 298 110H12C5.37259 110 0 104.627 0 98V88C3.31371 88 6 85.3137 6 82C6 78.6863 3.31371 76 0 76V64C3.31371 64 6 61.3137 6 58C6 54.6863 3.31371 52 0 52V40C3.31371 40 6 37.3137 6 34C6 30.6863 3.31371 28 0 28V12Z"/>
</mask>
<path fill-rule="evenodd" clip-rule="evenodd" d="M0 12C0 5.37258 5.37258 0 12 0H298C304.627 0 310 5.37258 310 12V22C306.686 22 304 24.6863 304 28C304 31.3137 306.686 34 310 34V46C306.686 46 304 48.6863 304 52C304 55.3137 306.686 58 310 58V70C306.686 70 304 72.6863 304 76C304 79.3137 306.686 82 310 82V98C310 104.627 304.627 110 298 110H12C5.37259 110 0 104.627 0 98V88C3.31371 88 6 85.3137 6 82C6 78.6863 3.31371 76 0 76V64C3.31371 64 6 61.3137 6 58C6 54.6863 3.31371 52 0 52V40C3.31371 40 6 37.3137 6 34C6 30.6863 3.31371 28 0 28V12Z" fill="white"/>
<path d="M310 22V23H311V22H310ZM310 34H311V33H310V34ZM310 46V47H311V46H310ZM310 58H311V57H310V58ZM310 70V71H311V70H310ZM310 82H311V81H310V82ZM0 88V87H-1V88H0ZM0 76H-1V77H0V76ZM0 64V63H-1V64H0ZM0 52H-1V53H0V52ZM0 40V39H-1V40H0ZM0 28H-1V29H0V28ZM12 -1C4.8203 -1 -1 4.8203 -1 12H1C1 5.92487 5.92487 1 12 1V-1ZM298 -1H12V1H298V-1ZM311 12C311 4.8203 305.18 -1 298 -1V1C304.075 1 309 5.92487 309 12H311ZM311 22V12H309V22H311ZM305 28C305 25.2386 307.239 23 310 23V21C306.134 21 303 24.134 303 28H305ZM310 33C307.239 33 305 30.7614 305 28H303C303 31.866 306.134 35 310 35V33ZM311 46V34H309V46H311ZM305 52C305 49.2386 307.239 47 310 47V45C306.134 45 303 48.134 303 52H305ZM310 57C307.239 57 305 54.7614 305 52H303C303 55.866 306.134 59 310 59V57ZM311 70V58H309V70H311ZM305 76C305 73.2386 307.239 71 310 71V69C306.134 69 303 72.134 303 76H305ZM310 81C307.239 81 305 78.7614 305 76H303C303 79.866 306.134 83 310 83V81ZM311 98V82H309V98H311ZM298 111C305.18 111 311 105.18 311 98H309C309 104.075 304.075 109 298 109V111ZM12 111H298V109H12V111ZM-1 98C-1 105.18 4.82031 111 12 111V109C5.92487 109 1 104.075 1 98H-1ZM-1 88V98H1V88H-1ZM5 82C5 84.7614 2.76142 87 0 87V89C3.86599 89 7 85.866 7 82H5ZM0 77C2.76142 77 5 79.2386 5 82H7C7 78.134 3.86599 75 0 75V77ZM-1 64V76H1V64H-1ZM5 58C5 60.7614 2.76142 63 0 63V65C3.86599 65 7 61.866 7 58H5ZM0 53C2.76142 53 5 55.2386 5 58H7C7 54.134 3.86599 51 0 51V53ZM-1 40V52H1V40H-1ZM5 34C5 36.7614 2.76142 39 0 39V41C3.86599 41 7 37.866 7 34H5ZM0 29C2.76142 29 5 31.2386 5 34H7C7 30.134 3.86599 27 0 27V29ZM-1 12V28H1V12H-1Z" fill="#98A5B9" mask="url(#path-1-inside-1_1592_30137)"/>
</svg>
