<svg xmlns="http://www.w3.org/2000/svg" viewBox="0 0 48 48">
  <defs>
    <style>
      .cls-1 {
        fill: #fbd971;
      }

      .cls-2 {
        fill: #e64c3c;
      }
    </style>
  </defs>
  <g id="user-happy-face-icon" transform="translate(-1294.999 -165.135)">
    <path id="Path_1" data-name="Path 1" class="cls-1" d="M1343,189.135a24,24,0,1,1-24-24,24,24,0,0,1,24,24Zm0,0"/>
    <path id="Path_2" data-name="Path 2" class="cls-2" d="M1309.333,177.367a3.256,3.256,0,0,1,2.974-1.949,3.372,3.372,0,0,1,3.243,3.243,3.075,3.075,0,0,1-.107,1.227,5.365,5.365,0,0,1-1.707,2.751l-4.4,3.789-4.324-3.789a5.379,5.379,0,0,1-1.708-2.751,3.11,3.11,0,0,1-.106-1.227,3.373,3.373,0,0,1,3.243-3.243,3.136,3.136,0,0,1,2.9,1.949Zm0,0"/>
    <path id="Path_3" data-name="Path 3" class="cls-2" d="M1328.585,177.367a3.253,3.253,0,0,1,2.974-1.949,3.369,3.369,0,0,1,3.241,3.243,3.068,3.068,0,0,1-.105,1.227,5.418,5.418,0,0,1-1.707,2.751l-4.4,3.789-4.325-3.789a5.333,5.333,0,0,1-1.707-2.751,3.061,3.061,0,0,1-.106-1.227,3.369,3.369,0,0,1,3.241-3.243,3.146,3.146,0,0,1,2.9,1.949Zm0,0"/>
    <path id="Path_4" data-name="Path 4" class="cls-2" d="M1331.571,192.56a12.573,12.573,0,0,1-25.145,0Zm0,0"/>
  </g>
</svg>
