<svg xmlns="http://www.w3.org/2000/svg" viewBox="0 0 48 48">
  <defs>
    <style>
      .cls-1 {
        fill: #fbd971;
      }

      .cls-2 {
        fill: #48a0dc;
      }

      .cls-3 {
        fill: #c03a2b;
      }

      .cls-4 {
        fill: #e64c3c;
      }
    </style>
  </defs>
  <g id="user-boring-face-icon" transform="translate(-1087.815 -165.135)">
    <path id="Path_1" data-name="Path 1" class="cls-1" d="M1135.815,189.135a24,24,0,1,1-24-24,24,24,0,0,1,24,24Zm0,0"/>
    <path id="Path_2" data-name="Path 2" class="cls-2" d="M1095.818,180.453a5.123,5.123,0,0,1-5.107-5.106c0-2.807,2.3-10.212,5.107-10.212s5.106,7.4,5.106,10.212a5.123,5.123,0,0,1-5.106,5.106Zm0,0"/>
    <path id="Path_3" data-name="Path 3" class="cls-3" d="M1099.243,204.96a12.572,12.572,0,1,1,25.144,0Zm0,0"/>
    <path id="Path_4" data-name="Path 4" class="cls-4" d="M1099.243,204.96c0-3.153,5.63-5.714,12.572-5.714s12.572,2.561,12.572,5.714"/>
    <path id="Path_5" data-name="Path 5" class="cls-4" d="M1126.669,188.962a9.151,9.151,0,0,1-9.14-9.14,1.141,1.141,0,1,1,2.281,0,6.866,6.866,0,0,0,6.859,6.851,1.145,1.145,0,0,1,0,2.289Zm0,0"/>
    <path id="Path_6" data-name="Path 6" class="cls-4" d="M1096.955,188.962a1.145,1.145,0,0,1,0-2.289,6.861,6.861,0,0,0,6.858-6.851,1.144,1.144,0,1,1,2.288,0,9.153,9.153,0,0,1-9.146,9.14Zm0,0"/>
  </g>
</svg>
