<svg xmlns="http://www.w3.org/2000/svg" viewBox="0 0 48 48">
  <defs>
    <style>
      .cls-1 {
        fill: #fbd971;
      }

      .cls-2 {
        fill: #e64c3c;
      }
    </style>
  </defs>
  <g id="user-normal-face-icon" transform="translate(-1158.333 -164.962)">
    <circle id="Ellipse_1" data-name="Ellipse 1" class="cls-1" cx="24" cy="24" r="24" transform="translate(1158.333 164.962)"/>
    <path id="Path_1" data-name="Path 1" class="cls-2" d="M1177.194,180.564a4,4,0,1,1-4-4,4,4,0,0,1,4,4Zm0,0"/>
    <path id="Path_2" data-name="Path 2" class="cls-2" d="M1195.472,180.564a4,4,0,1,1-3.994-4,4,4,0,0,1,3.994,4Zm0,0"/>
    <path id="Path_3" data-name="Path 3" class="cls-2" d="M1182.333,203.962a14.912,14.912,0,0,1-10.608-4.4,1.5,1.5,0,0,1,2.121-2.121,12.284,12.284,0,0,0,16.971,0,1.5,1.5,0,0,1,2.121,2.121A14.9,14.9,0,0,1,1182.333,203.962Z"/>
  </g>
</svg>
