<svg id="Layer_1" data-name="Layer 1" xmlns="http://www.w3.org/2000/svg" viewBox="0 0 135.29 137.99"><defs><style>.cls-1{fill:#223f80;}</style></defs><title>Artboard 1</title><g id="_Group_" data-name="&lt;Group&gt;"><g id="_Group_2" data-name="&lt;Group&gt;"><path id="_Path_" data-name="&lt;Path&gt;" class="cls-1" d="M133.94,86.42a14.23,14.23,0,0,0-.46-1.7c-.15-.32-.29-1.16-.63-1.16s-.08.14-.27,0,0-.09,0-.14a3.87,3.87,0,0,1,.11-.89h.1c-.17-.09,0-.63,0-.88,0-1-.54-1.63-.54-2.38-.27,0,.08-.69-.13-1-.06-.12-.23-.07-.27-.12s-.06-.23-.19-.37c-.35.39-.5,1.07-1.09,1.07-.31,0-.33-.28-.33-.58s.1-.45.1-.7-.1-.19-.12-.3a6,6,0,0,0-.61-1.24,3,3,0,0,1-.69-.74,4,4,0,0,1-.2-.94c-.09-.32-.44-.46-.76-.53,0,.7-.58.84-1.13.84-.33,0-.33-.12-.5-.24-.14.35-.58.38-.65.59s-.06.58-.25.79c-.37.42-1,.54-1.31.91s-.8.93-1.19,1.37c-.17.19-.4.47-.55.51-.37.14-.81.21-.81.7s.15.65.15,1c0,.58-.26,1-.26,1.39l.11.61-.11,0c0,.07-.14.07-.21.09-.29.1-.23.7-.39.79s-.29,0-.4.29-.1.46-.27.46a.26.26,0,0,1-.32-.23c-.1,0-.16-.17-.18-.23-.17-.57-.4-1-.54-1.52-.09-.32-.38-.56-.47-.74-.16-.38-.06-.68-.23-1a3.08,3.08,0,0,1-.25-.74c-.1-.35-.48-1.12-.63-1.63a6,6,0,0,1-.35-1.35c0-.07,0-.27,0-.33h0c0-.31.1-.37.1-.66s-.2-.65-.2-1c0-.06.12-.23.12-.32h-.17c-.27.3-.29,1.09-.83,1.09s-.9-.72-1.21-1.07c.18-.14.33,0,.52-.09s.19-.26.27-.35a1.57,1.57,0,0,0-.48,0,1.83,1.83,0,0,1-1.23-.81c-.17-.3-.3-.84-.55-.93a1.85,1.85,0,0,0-.62,0c-.25,0-.32.18-.53.18l-.54-.16a.62.62,0,0,0-.19.16l-.73,0s-.08,0-.1,0c-.4,0-1.32-.28-1.88-.28a4.48,4.48,0,0,1-.74-.21c-.21-.23-.21-.93-.64-.93-.23,0-.32.21-.44.35h-1c-.33-.12-.5-.42-.71-.66s-.58-.14-.81-.39-.07-.33-.11-.42c-.23-.51-.69-1.24-1.27-1.24-.3,0-.42.42-.42.75a2.28,2.28,0,0,0,0,.54c.13.55.71,1.55,1.19,1.67,0,.26.13.33.15.54.25-.07.21-.38.42-.42a1.06,1.06,0,0,1,0,.25c0,.28-.15.47-.15.75s.54.49.86.49c1.4,0,1.5-1,2.25-1.59v.87c.3.67.69.79,1.3,1,.23.07.25.46.4.56v0c.1.21.39.17.39.38,0,.53-.6.72-.6,1.28-.32,0-.52.09-.61.37s-.06.67-.31.67-.29.68-.61.68a.86.86,0,0,0-.58.67c-.57.12-1.84.38-1.84.89a.39.39,0,0,0,.08.21,9,9,0,0,1-1.63.56c-.25.06-1.08.72-1.36.86h-.64c-.36.28-.42.47-.85.47l-.14.09a6.5,6.5,0,0,1-.65-.32s.11,0,0-.26a2.29,2.29,0,0,1-.37-1.2c-.23,0-.07-.46,0-.67.11-.51-.24-.72-.47-1a3.24,3.24,0,0,1-.83-1.64c-.73-.18-.91-.66-.91-1.55,0-.53-.27-.65-.35-1.09a3.58,3.58,0,0,1-.28-.3c-.08-.09-.35,0-.41-.12s-.08-.49-.13-.63a2.24,2.24,0,0,0-.29-.56c-.25-.41-.46-.76-.69-1.16a5.92,5.92,0,0,1-.35-.56c0-.16.06-.45.1-.74-.08.34-.31.93-.38,1.16-.44-.07-.79-1.12-1.15-1.51v.39l2,3.91a2.93,2.93,0,0,0,.83,1.8V76.2c.21.63.63.63.95,1.1s.14,1.16.52,1.58.56.39.94.7.51,1.24,1.2,1.24c0,.4.2.46,0,.74.27.23.54,1,.9,1s.35-.3.62-.39.53,0,.84,0c.79-.14,1.55-.49,2.3-.7.06.14.15.21.15.35a8.29,8.29,0,0,1-1.47,3.84,10.49,10.49,0,0,1-1.67,2.44C100,89.29,98.56,89.66,98,91.73c-.15.58-.69.74-.69,1.4s.16,1.05.16,1.74.78,1.19.78,1.63a.83.83,0,0,1-.15.35v.58c0,.38-.06.82-.06,1.47a.66.66,0,0,1,.16.47c0,1.82-2.75,1.61-3,3.14a.9.9,0,0,0-.63.7c0,.51.59.86.59,1.56a4.44,4.44,0,0,1-.17,1.35c-.13.18-.48.09-.63.16a2,2,0,0,0-1,1.1.58.58,0,0,1,.31.49c0,.65-.59,1.16-.84,1.44-.46.51-.5,1-.83,1.51-.52.75-.75,1.4-1.61,1.87-.36.18-.88,0-.94.42-.27,0-.44.16-.63.16s-.35-.24-.59-.24c-.87,0-1.39.71-2.19.71a.74.74,0,0,1-.67-.47.44.44,0,0,0-.21.12,2.13,2.13,0,0,0-.37-1.17.93.93,0,0,0,.27-.63c0-.37-.59-1.07-.69-1.28-.75-1.42-1.72-2.79-1.72-4.84v-.63c0-.33-.25-.44-.41-.77a6.66,6.66,0,0,1-1.21-3.49c0-1.63,1.31-2,1.31-3.26A8.45,8.45,0,0,0,82.09,96a7.83,7.83,0,0,0-.52-1.93c-.17-.47-.09-1-.36-1.4-.54-.77-1.73-1.58-1.73-2.67a1.83,1.83,0,0,1,.48-.94c-.09-.21,0-.25,0-.35,0-.28,0-1,.21-1.16a1.42,1.42,0,0,0-1.32-1H78c-.62,0-.77-1.35-1.63-1.35a7.41,7.41,0,0,0-2.61.82c-.31.11-.42.42-.73.42s-.84-.35-1.25-.35c-.82,0-1.18.46-2,.46a1.28,1.28,0,0,1-.63-.18,10.91,10.91,0,0,1-2.23-2,6.29,6.29,0,0,0-1.05-1.7,12.4,12.4,0,0,1-1.25-1.3c-.11-.14-.17-.19-.28-.33h.07c0-.35-.11-.54-.11-.74s-.16-.45-.31-.77a3.25,3.25,0,0,0,.88-2.1c0-1-.42-1.68-.42-2.6,0-.47.48-.75.59-1.12a12.6,12.6,0,0,1,1.4-2.91c.29-.45.83-.4,1.21-.63a2.64,2.64,0,0,0,.94-1.05c.25-.86-.06-1.23.35-1.82.55-.76,1.26-1.49,1.78-2.21h0a3,3,0,0,1,.42-.63,2.61,2.61,0,0,0,1.77.58c.44,0,.53-.27.78-.41a8.71,8.71,0,0,1,3.3-1.1c.29,0,.56.23.73.23s.56-.34.88-.34.39.16.63.16c.41,0,.43-.35.83-.35s.29.42.63.42c.12,0,.18-.12.31-.14,0,.35-.31.3-.31.6s.27.31.27.52-.27.53-.27.88a1.13,1.13,0,0,0,.94,1.09h.58c1.36,0,1.84,1.87,3.39,1.87A.52.52,0,0,0,86,68.1v-.47c0-.74.5-.74,1.15-1l.06,0h.46c0,.33.23.4.31.54s.67.09,1,.23a6.78,6.78,0,0,0,2.34.63c.66,0,.87-.35,1.52-.35.4,0,.63.3,1.09.3.31,0,.31-.11.58-.18a1.19,1.19,0,0,0,.08.16l-.12-.3c0-.17.15-.17.17-.26.15-.51.21-.77.33-1.24s.55-.58.55-1.11-.11-.72-.11-1,.11-.19.15-.24v-.23c-.17.07-.23.21-.4.21a.55.55,0,0,1-.42-.18c-.33.27-.44.58-1,.58-.44,0-.61-.58-1-.58s-.35.53-.73.53-.6-.63-1-.42h-.23c.06,0,.15-.09.16-.14s-.73-.49-.52-.72c-.19-.3-.42-.28-.71-.44.21-.23.44-.19.44-.63,0-.16,0-.16,0-.28-.15,0-.35,0-.35-.12,0-.72,1.5-.58,1.88-.79,0-.19-.17-.12-.17-.28s.4-.12.5-.12h.65a2.13,2.13,0,0,0,.86-.46,2.52,2.52,0,0,1,1.21-.21c.56,0,.54.35,1,.35,0,.28.82.44,1.05.46h1.19c.43,0,.68-.36,1-.53h-.11c0-1.84-2.4-1.6-2.93-3,1.22-.34.67-1,.63-1.11a2.2,2.2,0,0,0,.38-.4,8.09,8.09,0,0,0-2.09,1.05.36.36,0,0,0,.35.35l.59.09a3.44,3.44,0,0,1-1.47.72c-.29,0-1.25-1.75-1.63-1.75s-.5.61-1,.75c0,.12,0,.23,0,.35-.2.05-.43.16-.43.39-.08.38-.07.19-.13.33v.61a2,2,0,0,0-.59,1c0,.47.57.79.7,1-.09.09-.17.07-.28.09s-.33,0-.52.07-.34.45-.61.45-.5-.47-.87-.47-.42.21-.69.3a1.14,1.14,0,0,1,0,.52c-.32,0-.36-.35-.55-.35a.29.29,0,0,0-.23.25l.4.52c0,.13-.08.21-.08.27s.56.66.73.66a.39.39,0,0,0,.08.21c-.1.07-.31,0-.35.14h0a1.21,1.21,0,0,1-.54-.35v.18a.82.82,0,0,1,.13.4c0,.14-.21.42,0,.53h-.3A.73.73,0,0,1,86.9,63c0-.17.21-.24.27-.35h-.36c-.08,0-.12-.21-.12-.26a1.7,1.7,0,0,0-.44-.74c-.25-.28-.59-.49-.59-1V60c0-.33-.46-.81-.75-1s-.63-.18-.63-.51H84c-.46,0-1-.79-1-1.32h-.63c-.27,0-.15-.49-.27-.63-.23.16-.69.16-.69.42,0,0,.06.13.11.13a1.32,1.32,0,0,0-.09.42.58.58,0,0,0,.44.59,1.08,1.08,0,0,1,.54.72c.09.32.23.7.4.79s.52,0,.84,0a.27.27,0,0,1,0,.19c-.09.28.41.4.54.47.42.23.92.42.86.91-.21-.05-.34-.35-.67-.35s-.46.14-.46.37.37.37.37.67c0,.12-.27.12-.27.12-.19.21-.15.7-.44.7-.14,0-.23-.07-.23-.16.25,0,.36-.35.36-.63s-.17-.44-.21-.65a2.48,2.48,0,0,1-.59-.7c-.08,0-.39-.1-.39-.24a1.83,1.83,0,0,1-1.15-.76c-.15-.17-.46-.26-.51-.42-.37-.54-.5-1.49-1.29-1.49-.37,0-.4.3-.59.39-.39.21-.66.63-1.12.63s-.76-.25-1.17-.25a.62.62,0,0,0-.65.58l.12.51c-.12.47-.58.63-1,.75a2.15,2.15,0,0,0-1,1.56.3.3,0,0,0,.21.3c-.28.46-.4.74-.84,1-.25.13-.29.72-.71.58v0c-.19-.07-.54.05-.65.05-.5,0-.77.46-1.23.46-.31,0-.34-.86-.82-.86s-.58.16-.9.16a.17.17,0,0,1-.16-.18v-.93a.34.34,0,0,1-.34-.33c0-.3.23-.37.23-.53,0-.59.19-1.19.19-1.8,0-.35-.23-.67-.23-.88s.71-.63.84-.63.19.14.31.09H71a.62.62,0,0,0,.36.14h1c.25-.07.38.09.58.09a5.26,5.26,0,0,0,.53-.11c0-.47.27-.61.27-1.05,0-.09,0-.5,0-.64l0,0a1.17,1.17,0,0,0,.08-.35c0-.21-.13-.17-.13-.35-.41,0-.54-.42-.54-.79-.12,0-.15-.15-.25-.17-.33-.11-1.25-.3-1.25-.65,0,0,0-.07,0-.09,0-.21.58-.35.79-.42.06.14.4.23.57.23a1.76,1.76,0,0,0,.48-.12V54c-.15,0-.09-.39-.11-.46v-.19h.21a.83.83,0,0,0,.63.3.41.41,0,0,0,.35-.35c.63,0,.79-.51.92-1.07a.84.84,0,0,0,.29-.05,6.37,6.37,0,0,0,1-.51c.17-.18.1-.46.1-.74,0-.09.19-.23.21-.26.29-.32.59-.7,1.07-.7.27,0,.14.07.29,0s.13-.11.17-.16.33,0,.52,0,.46-.21.46-.4a4.71,4.71,0,0,0-.15-.58c-.08-.63-.41-.82-.41-1.38,0-1,.81-1,1.33-1.46v.28a1.29,1.29,0,0,0-.12.6c0,.24.23.26.4.26v.19c0,.11-.19.16-.26.23a1.24,1.24,0,0,0-.46.86c0,.23.11.4.23.42s0,.19,0,.25c.23,0,.32.1.51.1s.08.28.14.28c.57,0,1-.54,1.44-.47,0,.12-.12.19-.12.26a2.54,2.54,0,0,0,.35.32c.23,0,.25-.16.36-.2.35-.19.63-.12.94-.29s.52-.44.77-.44a2,2,0,0,1,.71.1,1,1,0,0,0-.08.25,6.16,6.16,0,0,0,.75,0c0-.82.71-.69.71-1.6,0-.56.46-1.63.84-1.63s.42.58.83.58.81-.42-.24-1.52c-.33-.33.73-.81,1.19-.81s.68.17,1,.17a3,3,0,0,0,1.15-.52,2.52,2.52,0,0,0-.52-.81c-.21.47-1.17.53-1.57.47a4.8,4.8,0,0,1-1.25.34c-.27,0-.46,0-.46-.3a.87.87,0,0,1-.9-.81c0-.24.23-.4.29-.52-.21-.09-.4-.63-.4-.88a1.85,1.85,0,0,0,0-.47c.88,0,1.34-1.28,1.88-1.63.3-.18.8-.3.8-.7,0-.58-.69-.69-1.21-.69-.69,0-1.26.28-1.26.93,0,.28.07.39,0,.53,0,.54-1,1-1.4,1.29s-.73.32-.94.74,0,.77-.27.93v.47a.58.58,0,0,1,.17.42c.37.07.94.49.94.93a1.41,1.41,0,0,1-.84.93c-.42,0-.58.67-.58,1.16a.37.37,0,0,0,.31.4c-.06.63-.57.67-.63,1.11H83c-.36,0-.48.75-1,.75-.17,0-.46-1-.46-1.09s0-.17,0-.24c-.36-.39-.32-.72-.46-1.23-.11-.35-.42-.44-.42-.86a1,1,0,0,1,.1-.34c-.22-.13-.28-.33-.41-.55-.44.7-1.11,1.59-2,1.59a3.08,3.08,0,0,1-.94-.65c0-.19.27-.31.36-.35v-.35a.91.91,0,0,0-.55.11c0-.16.23-.44.34-.6A2.7,2.7,0,0,1,77.24,42c0-.34.34-.32.46-.53a1.62,1.62,0,0,1,.94-.82c.38-.11.46-.67,1.21-.58-.23-.07-.31-.11-.5-.16.92-.26,1.28-1.07,1.9-1.63.25-.21.21-.93.38-.93,0,0,.21-.52.21-.54a2,2,0,0,1,1-1A2.6,2.6,0,0,0,84,34.34c-.52.11-.73.42-1.23.42a1.14,1.14,0,0,1,.41-.33,1.45,1.45,0,0,1-.31-.07c0-.23.15-.37.31-.37s.11.07.17.07a1.43,1.43,0,0,1,.19-.3.36.36,0,0,1,.06.41c.34,0,.42.24.69.24.11,0,.34-.56.38-.58a.54.54,0,0,0-.34,0,.63.63,0,0,1,.48-.37c.15,0,.28,0,.42,0L85,33.17c.21-.23.58-.21.89-.27v.27c.28-.07.34-.6.78-.62v.39c.27-.56.62-.42,1-.65-.17-.07-.31-.12-.31-.28s.37-.21.44-.35c.12.16.25.35.43.35s1.11-.58,1.11-.28-.35.42-.44.74c.42.05.55-.48.9-.69a1,1,0,0,1,.11.41,4,4,0,0,1,.79-.65c0,.31,0,.51.21.54.06-.19.15-.35.32-.35a4.13,4.13,0,0,1,.72.37c-.18.56-.35.37-.83.56.21.19.35.21.35.35l.69.09a.86.86,0,0,1,.57,0c.69,0,3,1.26,4,1.63,3.56,1.27,1.22,2.89.06,2.55a6.62,6.62,0,0,0-2.26-.23c.42.68.28,2.1,1.47,2.22v-.93c2.41,1.15,2.13-1.07,2.71-1.29s1.68.35,1.68-.46c0-.42-.38-.5-.32-.7.9-3.09,1.37-1.06,1-.12-.09.27.27.47.52.47.77,0,3.91-3.12,4.39-1.75,1,.52,2.28-.46,2.92-.46.38,0,1.06,1.44,1.16-.35,0-.16-.92-1.24,1.94-.42,1,.3,3.81,2.56,2.65.54a3.32,3.32,0,0,1-.94-2.33c0-.89,1.71-2.53,2.61-2.33,1.79.4.63.72.63,1.51s.23,4.24,1.11,4.24c.68,0-.61-1.73-.17-2.26.64-.76-.25-1.44-.42-2.09a1.86,1.86,0,0,0,1.09-1.4c.29.42.18,2.55,1.42.7,1.47,0,1.63.32,2.09,0-.08-.38-.31-.65-.31-.93,0-1,1.53-1.09,2.56-1.07a69.12,69.12,0,0,0-98-13.2h2.44A.28.28,0,0,1,29,14.5c.37,0,.48.28.79.28s.38-.4.67-.4.44.17.63.17h.58c.5,0,2.3-.07,2.72.39a.66.66,0,0,1-.38.26l1.67-.54a1.35,1.35,0,0,0,.38.19c.23.07.23.26.36.39s1.35.17,1.35.59-.37.23-.52.35c-.83.69-1.86.28-3,.88.21.23,1.05.05,1.57.07a6.77,6.77,0,0,1-2.4,1.14c-.84.31-1.32,1.24-1.95,1.75-.29.23-.75-.05-1.08.07a3.87,3.87,0,0,0-1.32.51h.59c0,.51-.21.47-.61.42.25.14.48.23.61.56-.44.23-.59.79-.94,1.07H27.71c0,.16.15.21.15.35,0,.74-.88.3-.88,1.09h.52c.06,0,.31,0,.31.19,0,.39-1.19.82-1.67.82s-.27-.35-.69-.35H23.89c-.19,0-.32.23-.63.23a5.81,5.81,0,0,1-2-.47c-.06.12-.14.24-.25.24a.21.21,0,0,1-.21-.19c0-.93,1.09-.58,1.53-.93-.25-.21-.69-.28-.69-.7s.31-.23.52-.23c.67,0,.9.39,1.3.65h.37c-.29-.33-.94-.61-.94-1.17h-.31a.58.58,0,0,0-.21.17h-.31v-.28c.17-.4.31-.65.62-.77.53-.19,1.15,0,1.15-.63s-1.42-.75-1.42-1.16c0-.24.32-.19.53-.19-.23,0-.28-.09-.32-.28.11-.05.21,0,.32,0a3,3,0,0,1,1.1.05c.53.18.71.86,1.3.79-.11-.12-.77-.58-.77-.72s.1-.17.14-.24h1.05a2.21,2.21,0,0,0,1-.65h-.31a2.21,2.21,0,0,1-1.57.54c-.4,0-.52-.19-.73-.19s-.25.23-.42.23c-.42,0-1-.16-.84-.46h-.27a.7.7,0,0,1-.46.23,1.4,1.4,0,0,1-.39-.07l-.57.54a.53.53,0,0,0,.13.3h.25v-.3l-.11-.17h.21c.29,0,.27.12.27.4s.25.19.25.35-.14.21-.14.35.31,0,.35,0c.21,0,.76.28,1,.3,0,.16,0,.26,0,.35s-.32.09-.48.12c-.42,0-.71.74-1,.74s-.27-.21-.33-.46c-.1.11-.15.23-.25.35.12.23.21.27.27.46h-.38v.3c-.18,0-.56-.28-.75-.42,0,.42-.19.54-.5.54s-.79-.09-.84-.42a.43.43,0,0,0,.28-.16,1.47,1.47,0,0,1-.68-.2c-.42.44-.83.89-1.24,1.34a6.55,6.55,0,0,1,.7-.05c.23,0,.07.05.28,0v.3a.29.29,0,0,1-.32.24c-.06,0-.57-.1-.93-.18-.47.53-.93,1.06-1.38,1.6a2,2,0,0,1,0,.26c0,.53-.25.81-.16,1.46a2.77,2.77,0,0,1-.84.12,2.14,2.14,0,0,1-.51,0c-1,1.24-1.89,2.51-2.77,3.81A3,3,0,0,1,12,31.5c0,.74,1.76,1.25,2.16,1.6-.38.28-.46.19-.84.19-.17,0-.27.07-.27.23s.23.19.31.19a.44.44,0,0,0,.21.32c-.19.45-.67.42-1.19.42-.82,0-1.11-.69-1.72-.69-.37,0-.22.25-.54.41a2.89,2.89,0,0,1-1,.25c-.2.34-.39.69-.58,1h.2l.32.17c.35.18.44.77.86.77.1,0-.13-.54-.13-.7,0-.79,1.07-.17,1-.93a2.44,2.44,0,0,1-1.13.37.24.24,0,0,1-.27-.26c0-.51,1.26-.53,1.63-.65.27,1,1.59,1.4,2.72,1.4s1.42,0,1.78,0c0-.49.14-.75.52-.75a1.8,1.8,0,0,1,.94.28c.16.26-.37,1,.31.82,0-1.14,1.38-.68,1.11-1.63-.17.09-.29.14-.44.23a5.14,5.14,0,0,0,.17-.7c0-.79-1.42-.32-1.42-1.09,0-.33.27-.31.27-.54s-.17-.35-.17-.58.33-.28.58-.35c0-.23-.18-.52.21-.51A1.19,1.19,0,0,1,18.87,32c0,.34.63.33.63.77s-.38.46-.53.56c.26.35.72.11,1.05.35a.83.83,0,0,0-.21.28.83.83,0,0,1,.48.9c.65,0,.23-1,.84-1a1.85,1.85,0,0,1,.77.82c0,.35-.35.28-.35.58s.62,1.34,1.09.67c.3-.43.24-.74.41-1.14.1-.23.59-.23.59-.46s-.32-.33-.32-.63a.51.51,0,0,1,.52-.47c.19,0,.34.14.53.16.85,0,.69.59,1.36.59,0,.39.08.37,0,.58-.66.35-.38.72-.38.88s.48.38.48.59-1.08,1.33-1.21,1.09c-.26-.43-.36,0-.25.12-.38,0-.51.18-.69.18s-.46-.46-.92-.46c-.17,0,.15.42.15.51,0,.28-.61.77-.95.77s-.67-.35-.94-.54h-.37c.31.7,1,.58,1.73.77v.35c-.33.28-.6.86-1.11.86h-.46c-.25,0,0,.65-.42.5-1.7-.58-1.07-.1-1.25-.18.29.19,1.09.22,1.09.57,0,.56-.63.32-1,.46-.17.07-.53,1-.69,1.17a2.71,2.71,0,0,0-.73,2c0,.68.08.77,0,1.05.2-.05.31-.23.52-.23.46,0,.79,1.3.79,1.86.32,0,.46-.35.78-.35s.77.4.94.47a10.63,10.63,0,0,1,2.57,1.39h1.35c.59.42.46,1,.46,1.75S26,51.57,26.5,52c.19.18.37-.28.63-.28,0-.25.29-.41.37-.55-.29-.4,0-1.67-.73-2.08.42-.09,1.67-1.14,1.67-1.56,0-1.53-.72-1.83-1.21-2.74.28-.12.87-.29.8-1,0-.35-.69-.86-.42-1.05.67-.48-.07-.82-.07-1a.57.57,0,0,1,.63-.58c.59,0,1,.4,1.57.4.31,0,.31-.24.58-.24.59,0,.71.8,1.3.89,0,.86,1.13.39,1.21,1,.06.48.21,1.63.57,1.63s.31.51.69.51,1.19-.86,1.19-1.21.33-.54.48-.66c.08.1.29.31.35.31.06.63,1,.75.73,1.28s.5.91.69,1c0,.23.15.41.15.65s-.21.35-.31.42a1.53,1.53,0,0,0,1,.55v.08c0,.79,1.06,1,1.57,1,0,.12.2.15.17.27-.12.44-1.28.62-1.7.87,0,.05.15.1.21.1a5.13,5.13,0,0,0,2-.7v.28c.25.12,0,.35.17.35a2,2,0,0,1,.36,1.12c0,.74-1.69.84-2,1.28-.62.89-1.19.51-2.23.51a5.07,5.07,0,0,0-2,.11c-.44.17-.23.38-.52.7-.46.51-.9.31-1.17.93.62-.09,1-.81,2-.81.44,0,1.09-.09,1.09.35s-.76.58-.88.77c.19,0,.42.07.52.07,0,.23-.21.42-.21.55,0,.59,1,1.24,1.57,1.24.12,0,.67,0,.67.28s-1.43.79-1.54.82c-.41.14-.8.76-1,.76S35,58.25,35,58c0-.51.75-.89,1.24-.93-.34,0-.32,0-.32-.35-.31,0-.31.33-.5.47s-.71,0-.84,0a.67.67,0,0,1-.2,0v.12a.77.77,0,0,0,.1.18.74.74,0,0,1-.67.4c-.25,0-.27-.12-.48,0-.33.37-1,.63-1,1.51,0,.07,0,.19.08.21s.08.42.21.42a1.14,1.14,0,0,0,.23-.16v.16c-.25.07-.61.16-.69.07-.42.35-1.13.21-1.55.52h.21c.19,0,.38-.12.52,0a2,2,0,0,1-.79.11l-.19,0a.19.19,0,0,0-.12.16c0,.12.18.28.18.28,0,.19-.43,1-.58,1s-.11-.14-.15-.18l-.1.11c0,.19.19.26.19.44a3.31,3.31,0,0,1-.48,1s-.09-.09-.09-.14v-.26c0-.16-.19-.53-.23-.77a.92.92,0,0,0,0,.31c0,.16.11.58.11.81s-.13.21,0,.35h.14v.23a.29.29,0,0,1-.27.29.33.33,0,0,0,.28.2c0,.26-.13.24-.32.24V65l.24.16c-.06.1-.13.23-.24.26s-.36.23-.52.28-.23.16-.36.3l.06,0c-1,.61-2.23,1-2.23,2.75,0,.76.58,1,.58,1.74v.12a3,3,0,0,1,.25.93c0,.49-.1.93-.46.93s-.29-.37-.41-.58a4.7,4.7,0,0,1-.63-.86c-.34-.75-.09-2.17-1-2.17-.19,0-.28.31-.46.31-.38,0-.61-.54-1.11-.54-.29,0-.36.19-.52.19s-.15-.12-.15-.19a9.87,9.87,0,0,0-1.13.19c.21.07.17.07.29,0,0,.35-.21.56.05.74-.59.33-1.09-.46-1.51-.46-.13,0-.19.18-.31.18s-.36-.23-.59-.23c-.6,0-.9.58-1.15.86s-.35,0-.56.12a1.57,1.57,0,0,0-.73,1.51c0,.07.1.16.1.23h-.05v.05a1.23,1.23,0,0,1,.08.37,3.53,3.53,0,0,1-.21.93v1.31c0,.18.13.37.17.46s0,.35.06.56a4,4,0,0,0,.51.68c.37.42.37.81.92,1,.18.07.18.28.35.28.4,0,.73-.33,1.15-.33.23,0,.31.14.4.14S20,77,20,76.9c.08-.28.44-.58.44-.93,0-.68.69-.91,1.25-.91a.88.88,0,0,1,.42.07,3.22,3.22,0,0,0,.48.05v.21c0,.32-.35.74-.35,1.18a1.31,1.31,0,0,1-.26.77v-.16h-.16V78.3c0,.23-.25.32-.38.46v.12a.25.25,0,0,0,.25.25c.69,0,1.26-.14,2-.14.5,0,.63.4,1,.49v.35a2.92,2.92,0,0,1-.15,1v1.42c0,.51.44.72.78.9s.23.56.58.56c.55,0,.82-.46,1.32-.46s.84.47,1.18.74a1.52,1.52,0,0,1-.14.18.71.71,0,0,0,.15-.15c.17,0,.11,0,.25,0v-.14a.16.16,0,0,1,.13-.12c0-.23.21-.3.33-.39s.15-.4.19-.59c.1-.37.29-.44.56-.53.5-.19.84-.28,1.36-.47.27-.09.34-.44.61-.44.1,0,.19.26.19.28a.25.25,0,0,1-.21.28c-.06.35-.19.74-.19.95s.11.71.34.71.2-.29.2-.38c0-.28-.25-.44-.25-.72s.34-.3.52-.45h.5c-.08-.27-.39-.16-.39-.44h.36c.09.37.56.5.87.58a.4.4,0,0,0,.25.41h1.13c0,.21.25.26.42.26s.52,0,.65-.33c0-.07.46-.07.52-.12a3.71,3.71,0,0,1,.58.08.3.3,0,0,1-.31,0v.19c.15.33.59.4.9.51s.21.44.29.75h.59c.39.44.58.37.83,1a.4.4,0,0,0,.32.14c.14.66,1,.58,1.58.7h.55a2,2,0,0,0,.69.26v0h.12c.34,0,.78.77,1.13.87a5.29,5.29,0,0,0,.38,1.27c.1.24.37.24.37.47-.33.47-.94.7-.94,1.4,0,.23.19.21.3.25a.75.75,0,0,1,.35.54H45c0,.07.05.26.11.26s.16-.17.23-.28c.21-.38.46-.86.79-.86a3.78,3.78,0,0,1,1.4.62c.17.12.36.07.4.26a1.89,1.89,0,0,1,0,.58h.15c.19-.09.27-.26.46-.26.44,0,.52.38.94.38l.79-.12a4.56,4.56,0,0,1,1,.38,3.43,3.43,0,0,0,1.17,1.11c.3.09.49,0,.78,0s.52.63.52,1.12c0,1.72-.85,2.18-1.41,3.13-.13.21-.22.27-.34.47-.21.35-.45.4-.65.63s0,1.11,0,1.66-.14.81-.14,1.11a.82.82,0,0,1-.1.28,1.12,1.12,0,0,0-.28.54,3.64,3.64,0,0,1-.1.79c-.31.54-.42.77-.73,1.24-.08.13-.06.41-.11.51a1.17,1.17,0,0,1-.92.6,2.11,2.11,0,0,0-1,.14c-.12.07-.15.19-.21.26-.5.56-1,.23-1.4.88-.17.31-.44.31-.6.49s-.23.63-.23,1.07V109a2,2,0,0,0-.84,1.12v0c-.15.31-.13.47-.29.77-.38.63-.8.7-1.15,1.3S42.62,114,41.66,114a6.53,6.53,0,0,1-.95-.25c-.29,0-.56-.28-.88-.28-.06,0-.16,0-.16.12s.31.32.37.39a1.76,1.76,0,0,1,.25.72c.07.26.4.26.4.51a1.2,1.2,0,0,1-.1.63,4.15,4.15,0,0,1-.55.71c-.35.39-.79.28-1.29.46-.34.11-1-.14-1.22.07s-.06,1-.21,1.33v.23c0,.12-.33.28-.48.28-.44,0-.52-.33-.94-.33-.14,0-.21.17-.21.28,0,.33.26.93.44.93s.23-.14.3-.16.18.12.18.23a.4.4,0,0,1-.21.31c-.25,0-.33-.21-.54-.21a.33.33,0,0,0,.23.35,2.69,2.69,0,0,0-.5,1.42c0,.25-.42.28-.56.3a.86.86,0,0,0-.63.81c0,.91.94.59.94,1.31s-.52.72-.82,1-.1.49-.23.8-.48.18-.66.39a1.43,1.43,0,0,0-.36,1c0,.23.19.51.31.53a.8.8,0,0,1,.27.46A69.14,69.14,0,0,0,134.38,91a6.41,6.41,0,0,1-.44-.91,1.93,1.93,0,0,0-.35-.58c-.07,0,0-.14-.07-.21s-.27-.07-.33-.12a2.38,2.38,0,0,1-.29-.82c-.15-.53-.63-.44-.78-.76l-.31-.7c-.08-.21-.29-.17-.48-.21s-.5-.7-.57-.93v-.19h.13c.21,0,.25.12.42.21H132c.46.16.6.51.77.88,0,.12.15.1.23.12.31.12.46.4.67.63a2.65,2.65,0,0,0,1.21.95l.29.12.12-.4A2.69,2.69,0,0,1,133.94,86.42Z"/><path id="_Compound_Path_" data-name="&lt;Compound Path&gt;" class="cls-1" d="M29.17,123c0-.18-.25-.55-.29-.79V122h0c0-.14.08-.26.18-.26.37,0,.23.42.53.42l.66-3.38v-.34a.54.54,0,0,0-.18,0c-.14.07-.16.25-.3.25s-.28-.52-.28-.78a5.75,5.75,0,0,1,.2-1c.14,0,.2-.07.2-.14a.42.42,0,0,0-.12-.25c-.08,0-.1-.63-.1-.8a2.92,2.92,0,0,1,.46-1.36c.08-.16.12-.48.22-.64s.16-.07.18-.16c.14-.53.14-.91.26-1.46l0-1.71c-.12-.41.1-.73.1-1.09,0-.87.47-1.44.47-2.22v-.2a8,8,0,0,1,.14-.8v-1c0-.32.18-.94.18-1.3s-.1-1.58-.16-1.83a1.89,1.89,0,0,0-.87-1.09c-.3-.16-.52-.11-.74-.36a1.19,1.19,0,0,0-.64-.46A2.71,2.71,0,0,1,28.06,99c-.16-.18-.08-.43-.08-.7s-.3-.55-.38-.87c-.16-.55-.57-1-.71-1.46a8.66,8.66,0,0,0-.44-1.25c-.06-.14-.2-.09-.26-.16A2.09,2.09,0,0,1,26,94c-.06-.14-.22-.09-.3-.18a1.94,1.94,0,0,1-.51-1.12,1.29,1.29,0,0,1,.22-.68c.19-.34.55-.43.63-.8-.18-.14-.16,0-.3,0-.29,0-.33-.46-.33-.78,0-.52.51-.43.43-1.43.54,0,.68-.62.84-1s.75-.35.87-1c-.1,0-.2-.16-.2-.23l.08-.18v-.12c0-.18-.12-.31-.12-.5s.1-.36.1-.59c0-.48-.37-.41-.37-.82a.33.33,0,0,1,0-.14s0,0-.05,0-.23-.11-.23-.18.08-.13.12-.22c-.22-.12-.28-.42-.5-.42s-.7.46-.7.6.12.18.16.2c0,.23-.14.35-.3.35-.33,0-.53-.44-.69-.62s-.46,0-.6,0-.1-.09-.1-.14c-.28-.07-.28-.3-.36-.48A4.06,4.06,0,0,0,23,82.9a.18.18,0,0,0,0,.2h-.2c-.3-.23-.1-.55-.2-.89a.83.83,0,0,0-.26-.39c-.32-.36-.67-.57-.79-1.11h-.12c-.14,0-.24.11-.38.11-.38,0-.58-.25-.84-.39s-.67-.09-1.07-.31c-.62-.35-.7-.87-1.25-1.17h-.12a.76.76,0,0,0-.44-.18c-.36,0-.42.46-.76.46-.16,0-.33-.16-.41-.21a.81.81,0,0,0-.46,0c-.24,0-.92-.54-1.12-.66s-.37,0-.59,0-.34-.37-.62-.53-.4-.09-.66-.22a.69.69,0,0,1-.22-.16c-.25-.28-.87-.44-.93-.73-.18,0-.3-.25-.3-.46s.2-.39.2-.64-.16-.36-.2-.52A5.77,5.77,0,0,0,9.9,73c-.2-.22-.52-.32-.72-.54s0-.41-.12-.66c-.18-.41-.81-.46-.81-1-.18,0-.16-.06-.22,0-.26-.29-.46-.54-.68-.79s-.12-.6-.3-.8-.15-.71-.31-.8c-.34-.18-.66-.16-.92-.46a.55.55,0,0,0,0,.3,2.77,2.77,0,0,0,.36,1.16c.14.34.4.34.6.57a1.88,1.88,0,0,1,.43.94c.14.52.54.77.68,1.25a2.72,2.72,0,0,0,.64,1.41c.16-.18.4.21.4.39s-.08.35-.14.35a1.73,1.73,0,0,1-.32-.49c-.36,0-.56-.54-.78-.7s-.14-.09-.2-.21v-.59c-.22-.25-.38-.5-.59-.73s-.72-.25-.92-.59c.1,0,.58.08.4-.2a4.69,4.69,0,0,0-1-1.23c-.24-.17-.23-.81-.35-1.08a5.62,5.62,0,0,1-.5-1.07v-.16h0c-.3-.68-1.33-1.16-2-1.48-.16-.07-.1-.32-.16-.5-.28-.8-.84-1.08-.74-2-.41-.07-.84-1-1.18-1.69A70.34,70.34,0,0,0,0,69.19a67.78,67.78,0,0,0,28.9,55.73,7.07,7.07,0,0,1-.2-1C28.7,123.5,29.17,123.34,29.17,123Zm0-2.91s.12-.68.24-.68.24.18.24.36-.06.18-.08.25v.68h-.18c-.12,0-.22-.22-.22-.31Z"/></g></g></svg>