<svg xmlns="http://www.w3.org/2000/svg" xmlns:xlink="http://www.w3.org/1999/xlink" viewBox="0 0 24.005 21">
  <defs>
    <style>
      .cls-1 {
        fill: url(#linear-gradient);
      }
    </style>
    <linearGradient id="linear-gradient" y1="0.502" x2="1" y2="0.502" gradientUnits="objectBoundingBox">
      <stop offset="0" stop-color="#bd2a36"/>
      <stop offset="0.478" stop-color="#9929a6"/>
      <stop offset="0.595" stop-color="#77309c"/>
      <stop offset="0.779" stop-color="#49398d"/>
      <stop offset="0.919" stop-color="#2c3f84"/>
      <stop offset="1" stop-color="#214181"/>
    </linearGradient>
  </defs>
  <path id="Path_156" data-name="Path 156" class="cls-1" d="M24,9V21H7.7V14.7L12.5,9h2.1V20.6h2.7V9ZM8.5,13.1,4.1,18.3,1.2,15.9l4-4.8a4.09,4.09,0,0,1-2.2,0C1.2,10.8-.1,9.9,0,9a.758.758,0,0,1,.2-.4A4.338,4.338,0,0,1,3.5,8a5.732,5.732,0,0,1,1.4.4,5.388,5.388,0,0,1-.7-1.3c-.5-1.4-.5-2.8,0-3.4a1.38,1.38,0,0,1,.4-.3c.8-.3,2,.8,2.6,2.5a6.429,6.429,0,0,1,.4,2.2l4-4.8,2.9,2.4L10.2,11l-3-2.5L5.4,10.6ZM5.1,6.8a5.359,5.359,0,0,0,.5,1.1l.6.9h.4a2.948,2.948,0,0,0-.2-2.4A4.032,4.032,0,0,0,5,4.4c-.3.2-.4,1.2.1,2.4ZM5.6,10l-.2-.4-.9-.4c-.4-.1-.7-.2-1.2-.3a3.4,3.4,0,0,0-2.4.3,3.262,3.262,0,0,0,2.2,1A3.457,3.457,0,0,0,5.6,10ZM20.2,6.5a.55.55,0,0,1,.5-.3h.1a.764.764,0,0,1,.5.2.749.749,0,0,1,.1.5c-.1.5-1,1.3-1.1,1.4h-.2s-1-.8-1.1-1.4a.749.749,0,0,1,.1-.5.588.588,0,0,1,.5-.2h.1a.55.55,0,0,1,.5.3Zm.5-.1c.5,0,.5.6.5.6.1-.7-.5-.6-.5-.6Zm-5.1.5a.52.52,0,0,1,.4-.2h0c.2,0,.3.1.5.2.1-.2.3-.2.5-.2h0a.52.52,0,0,1,.4.2.6.6,0,0,1,.1.4,4.551,4.551,0,0,1-.9,1.2h-.2s-.9-.8-.9-1.2c0-.2.1-.3.1-.4ZM17,6.8a.727.727,0,0,1,.5.5.49.49,0,0,0-.5-.5Zm-.4-3.9a.778.778,0,0,1,.2-.8,1.506,1.506,0,0,1,.8-.4h.1a1.489,1.489,0,0,1,.9.4,1.086,1.086,0,0,1,.9-.4h.1a1.039,1.039,0,0,1,.8.4,1.077,1.077,0,0,1,.2.8c-.1.9-1.7,2.2-1.8,2.3h-.2a5.818,5.818,0,0,1-2-2.3ZM19.3,2c.8.1.9,1,.9,1,.1-1.2-.9-1-.9-1Zm-5-.4h0c-.1-.1-.1,0-.1,0s0,.1.1,0Zm1.4,0h0ZM14.2,3.1h0V1.8h0Zm.1-3h0V1.4h0Zm-.2,1.6-.9.9h0l.9-.9Zm1.2,1-.9-.9h0l.9.9ZM14.1,1.6H12.8v.1l1.3-.1Zm1.2-1h0l-1,.9h0ZM15.1,0h0l-.7,1.1h0Zm-1,1.2L13.5,0h0l.6,1.2Zm-.3.2L12.5,1h0l1.3.4Zm2.1.7-1.3-.4h0l1.3.4Zm-1.2-.6L15.9.9h0l-1.2.6Zm-2.1.9,1.2-.6h0l-1.2.6Zm1.1.9L14.1,2h0l-.4,1.3Zm1.1,0h0L14.4,2h0Zm-.7-1.8L13.2.6h0l.9.9Zm7.8,2.4Zm.7,0h0Zm-.8.7h0V3.9h0Zm.1-1.4h0v.7h0Zm-.1.8-.5.5h0l.5-.5Zm.6.4L21.9,4h0l.5.4Zm-.6-.5h0Zm.6-.5h0l-.5.5h0Zm-.1-.3h0l-.4.5h0Zm-.5.6-.3-.6h0l.3.6Zm-.2.1L21,3.6h0l.6.2Zm1.1.4L22,4h0l.7.2Zm-.6-.4.6-.3h0l-.6.3Zm-1,.5.5-.3h0l-.5.3Zm.5.5.2-.6h0l-.2.6Zm.5,0h0L22,4.1h0Zm-.3-.9-.5-.5h0l.5.5Zm0,0" transform="translate(0.005)"/>
</svg>
