<svg id="Layer_1" data-name="Layer 1" xmlns="http://www.w3.org/2000/svg" viewBox="0 0 205.41 214.35"><defs><style>.cls-1{fill:#223f80;}.cls-2{fill:#af2126;}</style></defs><title>Artboard 1</title><g id="_Group_" data-name="&lt;Group&gt;"><g id="_Group_2" data-name="&lt;Group&gt;"><g id="_Group_3" data-name="&lt;Group&gt;"><path id="_Path_" data-name="&lt;Path&gt;" class="cls-1" d="M181.63,86.42a12.62,12.62,0,0,0-.45-1.7c-.15-.32-.3-1.16-.63-1.16s-.08.14-.27,0c0,0,0-.09,0-.14a4.5,4.5,0,0,1,.1-.89h.11c-.17-.09,0-.63,0-.88,0-1-.55-1.63-.55-2.38-.27,0,.09-.69-.12-1-.06-.12-.23-.07-.28-.12s-.06-.23-.18-.37c-.36.39-.5,1.07-1.09,1.07-.31,0-.33-.28-.33-.58s.1-.45.1-.7-.1-.19-.12-.3a6,6,0,0,0-.61-1.24,3,3,0,0,1-.69-.74,3.54,3.54,0,0,1-.21-.94c-.08-.32-.44-.46-.75-.53,0,.7-.59.84-1.13.84-.33,0-.33-.12-.5-.24-.15.35-.59.38-.65.59s-.06.58-.25.79c-.38.42-1,.54-1.32.91s-.79.93-1.19,1.37c-.16.19-.39.47-.54.51-.38.14-.82.21-.82.7s.15.65.15,1c0,.58-.25,1-.25,1.39l.1.61-.1,0c0,.07-.15.07-.21.09-.29.1-.23.7-.4.79s-.29,0-.39.29-.11.46-.28.46a.25.25,0,0,1-.31-.23c-.1,0-.17-.17-.19-.23-.16-.57-.39-1-.54-1.52-.08-.32-.38-.56-.46-.74-.17-.38-.06-.68-.23-1a2.4,2.4,0,0,1-.25-.74c-.1-.35-.48-1.12-.63-1.63a6,6,0,0,1-.35-1.35c0-.07,0-.27,0-.33h0c0-.31.1-.37.1-.66s-.21-.65-.21-1c0-.06.13-.23.13-.32h-.17c-.27.3-.29,1.09-.84,1.09s-.9-.72-1.21-1.07c.19-.14.34,0,.52-.09s.19-.26.28-.35a1.63,1.63,0,0,0-.49,0,1.87,1.87,0,0,1-1.23-.81c-.17-.3-.29-.84-.54-.93a1.91,1.91,0,0,0-.63,0c-.25,0-.31.18-.52.18l-.55-.16a.57.57,0,0,0-.18.16l-.73,0s-.09,0-.11,0c-.4,0-1.32-.28-1.88-.28a4.64,4.64,0,0,1-.73-.21c-.21-.23-.21-.93-.65-.93-.23,0-.31.21-.44.35h-1c-.34-.12-.5-.42-.71-.66s-.59-.14-.82-.39-.06-.33-.1-.42c-.23-.51-.69-1.24-1.28-1.24-.29,0-.42.42-.42.75a1.84,1.84,0,0,0,.05.54c.12.55.71,1.55,1.19,1.67,0,.26.12.33.14.54.25-.07.21-.38.42-.42a1.06,1.06,0,0,1,0,.25c0,.28-.14.47-.14.75s.54.49.85.49c1.4,0,1.51-1,2.26-1.59v.87c.29.67.69.79,1.3,1,.23.07.25.46.39.56v0c.11.21.4.17.4.38,0,.53-.61.72-.61,1.28-.31,0-.52.09-.6.37s-.06.67-.31.67-.3.68-.61.68a.87.87,0,0,0-.59.67c-.56.12-1.83.38-1.83.89a.39.39,0,0,0,.08.21,9,9,0,0,1-1.63.56,15.16,15.16,0,0,0-1.36.86h-.65c-.35.28-.41.47-.85.47l-.13.09a5.59,5.59,0,0,1-.65-.32c-.05,0,.11,0,0-.26a2.29,2.29,0,0,1-.37-1.2c-.22,0-.06-.46,0-.67.1-.51-.25-.72-.48-1a3.24,3.24,0,0,1-.83-1.64c-.73-.18-.9-.66-.9-1.55,0-.53-.27-.65-.36-1.09a3.3,3.3,0,0,1-.27-.3c-.08-.09-.35,0-.42-.12s-.08-.49-.12-.63a2.23,2.23,0,0,0-.3-.56c-.24-.41-.46-.76-.68-1.16a4.61,4.61,0,0,1-.36-.56c0-.16.07-.45.11-.74-.09.34-.31.93-.38,1.16-.44-.07-.8-1.12-1.15-1.51v.39l2,3.91a2.88,2.88,0,0,0,.83,1.8V76.2c.21.63.63.63.94,1.1s.15,1.16.52,1.58a7,7,0,0,0,.94.7c.34.28.52,1.24,1.21,1.24,0,.4.19.46,0,.74.27.23.54,1,.89,1s.36-.3.63-.39.52,0,.84,0c.79-.14,1.54-.49,2.3-.7.06.14.14.21.14.35a8.4,8.4,0,0,1-1.46,3.84,11.14,11.14,0,0,1-1.67,2.44c-1.38,1.22-2.87,1.59-3.39,3.66-.14.58-.69.74-.69,1.4s.17,1.05.17,1.74.77,1.19.77,1.63a.72.72,0,0,1-.15.35v.58c0,.38-.06.82-.06,1.47a.62.62,0,0,1,.17.47c0,1.82-2.76,1.61-3,3.14a.88.88,0,0,0-.62.7c0,.51.58.86.58,1.56a4.15,4.15,0,0,1-.17,1.35c-.12.18-.48.09-.62.16a2,2,0,0,0-1.05,1.1.56.56,0,0,1,.31.49,2.35,2.35,0,0,1-.83,1.44c-.46.51-.5,1-.84,1.51-.52.75-.75,1.4-1.61,1.87-.35.18-.87,0-.94.42-.27,0-.43.16-.62.16s-.36-.24-.59-.24c-.88,0-1.4.71-2.19.71a.71.71,0,0,1-.67-.47.36.36,0,0,0-.21.12,2,2,0,0,0-.38-1.17.89.89,0,0,0,.27-.63c0-.37-.58-1.07-.68-1.28-.76-1.42-1.72-2.79-1.72-4.84v-.63c0-.33-.25-.44-.42-.77a6.75,6.75,0,0,1-1.21-3.49c0-1.63,1.32-2,1.32-3.26a8.45,8.45,0,0,0-.27-1.33,7.76,7.76,0,0,0-.53-1.93c-.16-.47-.08-1-.35-1.4-.55-.77-1.74-1.58-1.74-2.67a1.91,1.91,0,0,1,.48-.94c-.08-.21,0-.25,0-.35,0-.28,0-1,.21-1.16a1.41,1.41,0,0,0-1.31-1h-.88c-.63,0-.77-1.35-1.63-1.35a7.34,7.34,0,0,0-2.61.82c-.32.11-.42.42-.73.42s-.84-.35-1.26-.35c-.81,0-1.17.46-2,.46a1.21,1.21,0,0,1-.63-.18,10.7,10.7,0,0,1-2.24-2,6,6,0,0,0-1-1.7,12.56,12.56,0,0,1-1.26-1.3c-.1-.14-.16-.19-.27-.33h.07c0-.35-.11-.54-.11-.74s-.17-.45-.31-.77a3.24,3.24,0,0,0,.87-2.1c0-1-.41-1.68-.41-2.6,0-.47.48-.75.58-1.12a13,13,0,0,1,1.4-2.91c.29-.45.84-.4,1.21-.63a2.5,2.5,0,0,0,.94-1.05c.25-.86-.06-1.23.36-1.82.54-.76,1.25-1.49,1.78-2.21h-.05c.17-.23.21-.44.42-.63a2.63,2.63,0,0,0,1.78.58c.44,0,.52-.27.77-.41a8.76,8.76,0,0,1,3.3-1.1c.3,0,.57.23.73.23s.57-.34.88-.34.4.16.63.16c.42,0,.44-.35.84-.35s.29.42.62.42c.13,0,.19-.12.32-.14,0,.35-.32.3-.32.6s.27.31.27.52-.27.53-.27.88a1.13,1.13,0,0,0,.94,1.09h.59c1.36,0,1.84,1.87,3.38,1.87a.52.52,0,0,0,.42-.35v-.47c0-.74.5-.74,1.15-1l.06,0h.46c0,.33.23.4.32.54s.67.09,1,.23a6.9,6.9,0,0,0,2.34.63c.67,0,.88-.35,1.53-.35.39,0,.62.3,1.08.3s.32-.11.59-.18l.07.16-.11-.3c0-.17.14-.17.16-.26.15-.51.21-.77.34-1.24s.54-.58.54-1.11-.1-.72-.1-1,.1-.19.14-.24v-.23c-.16.07-.23.21-.39.21a.54.54,0,0,1-.42-.18c-.34.27-.44.58-1,.58-.44,0-.6-.58-1-.58s-.36.53-.73.53-.61-.63-1-.42h-.23a.3.3,0,0,0,.17-.14c-.13-.14-.73-.49-.52-.72-.19-.3-.42-.28-.71-.44.21-.23.44-.19.44-.63,0-.16,0-.16,0-.28-.15,0-.36,0-.36-.12,0-.72,1.51-.58,1.88-.79,0-.19-.16-.12-.16-.28s.39-.12.5-.12h.64c.26,0,.63-.3.86-.46a2.54,2.54,0,0,1,1.21-.21c.57,0,.55.35,1,.35,0,.28.81.44,1,.46h1.19c.43,0,.68-.36,1.05-.53h-.1c0-1.84-2.41-1.6-2.93-3,1.21-.34.67-1,.63-1.11a2.46,2.46,0,0,0,.37-.4,8.26,8.26,0,0,0-2.09,1.05.36.36,0,0,0,.36.35l.58.09a3.4,3.4,0,0,1-1.46.72c-.29,0-1.25-1.75-1.63-1.75s-.5.61-1,.75c0,.12,0,.23,0,.35-.21.05-.43.16-.43.39-.08.38-.07.19-.13.33v.61a2,2,0,0,0-.59,1c0,.47.56.79.69,1-.08.09-.17.07-.27.09s-.34,0-.52.07-.34.45-.61.45-.5-.47-.88-.47-.42.21-.69.3a1.14,1.14,0,0,1,0,.52c-.31,0-.35-.35-.54-.35a.28.28,0,0,0-.23.25l.39.52c0,.13-.08.21-.08.27s.57.66.73.66a.4.4,0,0,0,.09.21c-.11.07-.32,0-.36.14h0a1.15,1.15,0,0,1-.54-.35v.18a.82.82,0,0,1,.12.4c0,.14-.21.42,0,.53h-.29a.74.74,0,0,1-.63-.76c0-.17.21-.24.27-.35h-.35c-.08,0-.13-.21-.13-.26a1.69,1.69,0,0,0-.43-.74c-.26-.28-.59-.49-.59-1V60c0-.33-.46-.81-.75-1s-.63-.18-.63-.51h-.29c-.46,0-1-.79-1-1.32h-.63c-.27,0-.15-.49-.27-.63-.23.16-.69.16-.69.42,0,0,.06.13.1.13a1.63,1.63,0,0,0-.08.42.58.58,0,0,0,.44.59,1.08,1.08,0,0,1,.54.72,1.43,1.43,0,0,0,.4.79c.31.16.52,0,.83,0a.27.27,0,0,1,0,.19c-.08.28.42.4.55.47.41.23.91.42.85.91-.21-.05-.33-.35-.67-.35s-.46.14-.46.37.38.37.38.67c0,.12-.27.12-.27.12-.19.21-.15.7-.44.7s-.23-.07-.23-.16c.25,0,.35-.35.35-.63s-.16-.44-.21-.65a2.31,2.31,0,0,1-.58-.7c-.08,0-.4-.1-.4-.24a1.86,1.86,0,0,1-1.15-.76c-.14-.17-.46-.26-.5-.42-.37-.54-.5-1.49-1.29-1.49-.38,0-.4.3-.59.39-.4.21-.67.63-1.13.63s-.75-.25-1.17-.25a.63.63,0,0,0-.65.58l.13.51c-.13.47-.59.63-1,.75a2.16,2.16,0,0,0-1,1.56.31.31,0,0,0,.21.3,2.13,2.13,0,0,1-.83,1c-.25.13-.3.72-.71.58v0c-.19-.07-.55.05-.65.05-.5,0-.78.46-1.24.46-.31,0-.33-.86-.81-.86s-.58.16-.9.16a.17.17,0,0,1-.16-.18v-.93a.34.34,0,0,1-.34-.33c0-.3.23-.37.23-.53,0-.59.19-1.19.19-1.8,0-.35-.23-.67-.23-.88s.71-.63.83-.63.19.14.32.09h.94a.59.59,0,0,0,.35.14h1c.25-.07.37.09.58.09a5,5,0,0,0,.52-.11c0-.47.27-.61.27-1.05,0-.09,0-.5,0-.64l0,0a1.21,1.21,0,0,0,.09-.35c0-.21-.13-.17-.13-.35-.42,0-.54-.42-.54-.79-.13,0-.15-.15-.25-.17-.34-.11-1.26-.3-1.26-.65,0,0,0-.07,0-.09,0-.21.59-.35.8-.42.06.14.39.23.56.23a1.59,1.59,0,0,0,.48-.12V54c-.14,0-.08-.39-.1-.46v-.19h.21a.79.79,0,0,0,.62.3.41.41,0,0,0,.36-.35c.63,0,.79-.51.92-1.07a.88.88,0,0,0,.29-.05,5.91,5.91,0,0,0,1-.51c.17-.18.11-.46.11-.74,0-.09.19-.23.21-.26.29-.32.58-.7,1.06-.7.28,0,.15.07.3,0s.12-.11.16-.16.34,0,.53,0,.46-.21.46-.4a4.71,4.71,0,0,0-.15-.58c-.08-.63-.42-.82-.42-1.38,0-1,.82-1,1.34-1.46v.28a1.3,1.3,0,0,0-.13.6c0,.24.23.26.4.26v.19c0,.11-.19.16-.25.23a1.2,1.2,0,0,0-.46.86c0,.23.1.4.23.42a1,1,0,0,1,0,.25c.23,0,.31.1.5.1,0,.11.09.28.15.28.56,0,1-.54,1.44-.47,0,.12-.12.19-.12.26a2.54,2.54,0,0,0,.35.32c.23,0,.25-.16.36-.2.35-.19.62-.12.93-.29s.53-.44.78-.44a2,2,0,0,1,.71.1,1,1,0,0,0-.08.25,6.16,6.16,0,0,0,.75,0c0-.82.71-.69.71-1.6,0-.56.46-1.63.83-1.63s.42.58.84.58c.25,0,.81-.42-.25-1.52-.32-.33.73-.81,1.19-.81s.69.17,1.05.17a3,3,0,0,0,1.15-.52,2.7,2.7,0,0,0-.53-.81c-.21.47-1.17.53-1.56.47a4.76,4.76,0,0,1-1.26.34c-.27,0-.46,0-.46-.3a.87.87,0,0,1-.9-.81c0-.24.23-.4.3-.52-.21-.09-.4-.63-.4-.88a1.85,1.85,0,0,0,0-.47c.88,0,1.34-1.28,1.88-1.63.29-.18.79-.3.79-.7,0-.58-.68-.69-1.21-.69-.69,0-1.25.28-1.25.93,0,.28.06.39,0,.53,0,.54-1,1-1.4,1.29s-.73.32-.94.74,0,.77-.27.93v.47a.57.57,0,0,1,.16.42c.38.07.94.49.94.93a1.4,1.4,0,0,1-.83.93c-.42,0-.59.67-.59,1.16a.38.38,0,0,0,.32.4c-.07.63-.57.67-.63,1.11h-.56c-.36,0-.49.75-1,.75-.17,0-.46-1-.46-1.09s0-.17,0-.24c-.35-.39-.31-.72-.46-1.23-.1-.35-.41-.44-.41-.86a.79.79,0,0,1,.1-.34c-.23-.13-.28-.33-.42-.55-.44.7-1.11,1.59-2,1.59a3,3,0,0,1-.94-.65c0-.19.27-.31.35-.35v-.35a.9.9,0,0,0-.54.11c0-.16.23-.44.33-.6a2.77,2.77,0,0,1-.35-1.66c0-.34.33-.32.46-.53a1.62,1.62,0,0,1,.94-.82c.38-.11.46-.67,1.21-.58-.23-.07-.31-.11-.5-.16.92-.26,1.27-1.07,1.9-1.63.25-.21.21-.93.38-.93,0,0,.2-.52.2-.54a2.09,2.09,0,0,1,1-1,2.65,2.65,0,0,0,1.13-1.46c-.53.11-.74.42-1.24.42a1.25,1.25,0,0,1,.42-.33,1.45,1.45,0,0,1-.31-.07c0-.23.15-.37.31-.37s.11.07.17.07a.91.91,0,0,1,.19-.3.38.38,0,0,1,.06.41c.33,0,.42.24.69.24.1,0,.33-.56.38-.58a.54.54,0,0,0-.34,0,.62.62,0,0,1,.48-.37.68.68,0,0,0,.42,0c-.1-.12-.09-.09-.17-.19.21-.23.59-.21.9-.27v.27c.27-.07.34-.6.77-.62v.39c.28-.56.63-.42,1-.65-.17-.07-.31-.12-.31-.28s.37-.21.43-.35c.13.16.25.35.44.35s1.11-.58,1.11-.28-.36.42-.44.74c.42.05.54-.48.9-.69a1.11,1.11,0,0,1,.1.41,4.07,4.07,0,0,1,.8-.65c0,.31,0,.51.21.54.06-.19.14-.35.31-.35a4.56,4.56,0,0,1,.73.37c-.19.56-.35.37-.83.56.2.19.35.21.35.35l.69.09c.48-.07.5,0,.56,0,.69,0,2.95,1.26,4,1.63,3.56,1.27,1.22,2.89.06,2.55a6.62,6.62,0,0,0-2.26-.23c.42.68.27,2.1,1.46,2.22v-.93c2.42,1.15,2.14-1.07,2.72-1.29s1.67.35,1.67-.46c0-.42-.37-.5-.31-.7.9-3.09,1.37-1.06,1.05-.12-.1.27.27.47.52.47.77,0,3.9-3.12,4.38-1.75,1,.52,2.28-.46,2.93-.46.38,0,1.06,1.44,1.15-.35,0-.16-.91-1.24,2-.42,1,.3,3.81,2.56,2.65.54a3.32,3.32,0,0,1-.94-2.33c0-.89,1.71-2.53,2.61-2.33,1.79.4.63.72.63,1.51s.23,4.24,1.11,4.24c.68,0-.61-1.73-.17-2.26.64-.76-.25-1.44-.42-2.09a1.88,1.88,0,0,0,1.09-1.4c.29.42.18,2.55,1.42.7,1.46,0,1.63.32,2.09,0-.08-.38-.32-.65-.32-.93,0-1,1.54-1.09,2.56-1.07a69.12,69.12,0,0,0-98-13.2h2.44a.29.29,0,0,1,.25-.16c.38,0,.48.28.8.28s.37-.4.67-.4.43.17.62.17h.59c.5,0,2.3-.07,2.71.39a.61.61,0,0,1-.37.26l1.67-.54a1.35,1.35,0,0,0,.38.19c.23.07.23.26.35.39s1.36.17,1.36.59-.38.23-.52.35c-.84.69-1.86.28-3,.88.21.23,1,.05,1.57.07a6.73,6.73,0,0,1-2.41,1.14c-.83.31-1.31,1.24-1.94,1.75-.29.23-.75-.05-1.09.07a3.74,3.74,0,0,0-1.31.51h.58c0,.51-.21.47-.6.42.25.14.48.23.6.56-.44.23-.58.79-.94,1.07h-1c0,.16.14.21.14.35,0,.74-.87.3-.87,1.09h.52c.06,0,.31,0,.31.19,0,.39-1.19.82-1.67.82s-.27-.35-.69-.35H71.58c-.19,0-.31.23-.63.23a5.75,5.75,0,0,1-2-.47c-.06.12-.15.24-.25.24a.2.2,0,0,1-.21-.19c0-.93,1.09-.58,1.53-.93-.26-.21-.69-.28-.69-.7s.31-.23.52-.23c.67,0,.9.39,1.3.65h.37c-.29-.33-.94-.61-.94-1.17h-.31a.45.45,0,0,0-.21.17h-.32v-.28c.17-.4.32-.65.63-.77.52-.19,1.15,0,1.15-.63s-1.42-.75-1.42-1.16c0-.24.31-.19.52-.19-.23,0-.27-.09-.31-.28s.21,0,.31,0a3.1,3.1,0,0,1,1.11.05c.52.18.71.86,1.3.79-.11-.12-.78-.58-.78-.72s.11-.17.15-.24h1a2.19,2.19,0,0,0,1-.65h-.32a2.2,2.2,0,0,1-1.56.54c-.4,0-.53-.19-.74-.19s-.25.23-.41.23c-.42,0-1-.16-.84-.46h-.27a.73.73,0,0,1-.46.23,1.53,1.53,0,0,1-.4-.07l-.57.54a.72.72,0,0,0,.13.3h.25v-.3l-.1-.17h.21c.29,0,.27.12.27.4s.25.19.25.35-.15.21-.15.35.32,0,.36,0c.21,0,.75.28,1,.3,0,.16,0,.26,0,.35s-.31.09-.48.12c-.42,0-.71.74-1,.74s-.27-.21-.33-.46c-.11.11-.15.23-.26.35a3.15,3.15,0,0,1,.28.46H69v.3c-.19,0-.56-.28-.75-.42,0,.42-.19.54-.5.54s-.8-.09-.84-.42a.38.38,0,0,0,.27-.16,1.44,1.44,0,0,1-.67-.2c-.42.44-.84.89-1.24,1.34a6.38,6.38,0,0,1,.7-.05c.23,0,.06.05.27,0v.3a.28.28,0,0,1-.31.24c-.07,0-.57-.1-.94-.18-.47.53-.93,1.06-1.38,1.6a1.84,1.84,0,0,1,0,.26c0,.53-.25.81-.17,1.46a2.68,2.68,0,0,1-.83.12,2.15,2.15,0,0,1-.51,0q-1.46,1.86-2.77,3.81a3,3,0,0,1,.35,1.08c0,.74,1.76,1.25,2.15,1.6-.37.28-.46.19-.83.19-.17,0-.28.07-.28.23s.23.19.32.19a.41.41,0,0,0,.21.32c-.19.45-.67.42-1.19.42-.82,0-1.11-.69-1.72-.69-.37,0-.23.25-.54.41a2.89,2.89,0,0,1-1,.25l-.59,1h.21l.31.17c.36.18.44.77.86.77.11,0-.13-.54-.13-.7,0-.79,1.07-.17,1-.93a2.44,2.44,0,0,1-1.14.37.23.23,0,0,1-.26-.26c0-.51,1.25-.53,1.63-.65.27,1,1.59,1.4,2.71,1.4s1.43,0,1.78,0c0-.49.15-.75.52-.75a1.77,1.77,0,0,1,.94.28c.17.26-.37,1,.32.82,0-1.14,1.38-.68,1.11-1.63-.17.09-.3.14-.44.23a5.4,5.4,0,0,0,.16-.7c0-.79-1.42-.32-1.42-1.09,0-.33.27-.31.27-.54s-.16-.35-.16-.58.33-.28.58-.35c0-.23-.19-.52.21-.51A1.19,1.19,0,0,1,66.57,32c0,.34.62.33.62.77s-.37.46-.52.56c.25.35.71.11,1,.35a.71.71,0,0,0-.21.28.83.83,0,0,1,.48.9c.64,0,.23-1,.83-1a1.82,1.82,0,0,1,.78.82c0,.35-.36.28-.36.58s.62,1.34,1.09.67c.31-.43.25-.74.42-1.14.1-.23.58-.23.58-.46S71,34,71,33.71a.51.51,0,0,1,.52-.47c.19,0,.34.14.52.16.86,0,.69.59,1.36.59,0,.39.08.37,0,.58-.66.35-.37.72-.37.88s.48.38.48.59-1.08,1.33-1.22,1.09c-.25-.43-.35,0-.25.12-.37,0-.5.18-.69.18s-.46-.46-.92-.46c-.16,0,.15.42.15.51,0,.28-.61.77-.94.77s-.67-.35-.94-.54h-.38c.32.7,1,.58,1.74.77v.35c-.34.28-.61.86-1.11.86h-.46c-.25,0,0,.65-.42.5-1.7-.58-1.07-.1-1.26-.18.29.19,1.09.22,1.09.57,0,.56-.62.32-1,.46-.16.07-.52,1-.69,1.17a2.71,2.71,0,0,0-.73,2c0,.68.09.77,0,1.05.21-.05.32-.23.52-.23.46,0,.8,1.3.8,1.86.31,0,.46-.35.77-.35s.78.4.94.47a10.45,10.45,0,0,1,2.57,1.39h1.36c.58.42.46,1,.46,1.75s.74,1.4,1.25,1.86c.2.18.38-.28.63-.28,0-.25.29-.41.38-.55-.3-.4,0-1.67-.73-2.08.41-.09,1.67-1.14,1.67-1.56,0-1.53-.73-1.83-1.21-2.74.27-.12.86-.29.79-1,0-.35-.68-.86-.42-1.05.68-.48-.06-.82-.06-1a.56.56,0,0,1,.63-.58c.58,0,1,.4,1.56.4.32,0,.32-.24.59-.24.58,0,.71.8,1.29.89,0,.86,1.13.39,1.22,1,.06.48.21,1.63.56,1.63s.32.51.69.51S83,44.54,83,44.19s.34-.54.48-.66c.09.1.3.31.36.31.06.63,1,.75.73,1.28s.5.91.69,1c0,.23.15.41.15.65s-.21.35-.32.42a1.56,1.56,0,0,0,1,.55v.08c0,.79,1.06,1,1.56,1,0,.12.2.15.18.27-.12.44-1.28.62-1.7.87a.28.28,0,0,0,.21.1,5.13,5.13,0,0,0,2-.7v.28c.24.12,0,.35.17.35a2,2,0,0,1,.35,1.12c0,.74-1.68.84-2,1.28-.62.89-1.19.51-2.24.51a5.09,5.09,0,0,0-2,.11c-.43.17-.23.38-.52.7-.46.51-.9.31-1.17.93.63-.09,1-.81,2-.81.43,0,1.08-.09,1.08.35s-.75.58-.88.77c.19,0,.42.07.53.07,0,.23-.21.42-.21.55,0,.59,1,1.24,1.57,1.24.12,0,.67,0,.67.28s-1.44.79-1.54.82c-.42.14-.81.76-1,.76s-.42-.37-.42-.58c0-.51.75-.89,1.23-.93-.33,0-.31,0-.31-.35-.32,0-.32.33-.5.47s-.71,0-.84,0a.74.74,0,0,1-.21,0v.12a.77.77,0,0,0,.1.18.74.74,0,0,1-.67.4c-.25,0-.27-.12-.48,0-.34.37-1,.63-1,1.51,0,.07,0,.19.09.21s.08.42.2.42.23-.16.23-.16v.16c-.25.07-.6.16-.69.07-.41.35-1.12.21-1.54.52h.21c.18,0,.37-.12.52,0a2,2,0,0,1-.79.11l-.19,0a.18.18,0,0,0-.13.16c0,.12.19.28.19.28,0,.19-.44,1-.59,1s-.1-.14-.14-.18l-.11.11c0,.19.19.26.19.44a3.31,3.31,0,0,1-.48,1s-.08-.09-.08-.14v-.26c0-.16-.19-.53-.23-.77a.92.92,0,0,0,0,.31c0,.16.1.58.1.81s-.12.21,0,.35h.15v.23a.29.29,0,0,1-.28.29.33.33,0,0,0,.29.2c0,.26-.14.24-.33.24V65l.25.16c-.06.1-.13.23-.25.26s-.35.23-.52.28-.23.16-.35.3l0,0c-1,.61-2.23,1-2.23,2.75,0,.76.59,1,.59,1.74v.12a3.27,3.27,0,0,1,.25.93c0,.49-.11.93-.46.93s-.29-.37-.42-.58a5.14,5.14,0,0,1-.62-.86c-.34-.75-.09-2.17-1-2.17-.19,0-.27.31-.46.31-.37,0-.6-.54-1.11-.54-.29,0-.35.19-.52.19s-.14-.12-.14-.19a9.19,9.19,0,0,0-1.13.19c.21.07.16.07.29,0,0,.35-.21.56,0,.74-.58.33-1.09-.46-1.5-.46-.13,0-.19.18-.32.18s-.35-.23-.58-.23c-.61,0-.9.58-1.15.86s-.36,0-.57.12a1.57,1.57,0,0,0-.73,1.51c0,.07.11.16.11.23H64v.05a1,1,0,0,1,.09.37,4,4,0,0,1-.21.93v1.31c0,.18.12.37.17.46s0,.35.06.56a3.49,3.49,0,0,0,.5.68c.38.42.38.81.92,1,.19.07.19.28.36.28.39,0,.73-.33,1.15-.33.22,0,.31.14.39.14s.27-.28.3-.37c.08-.28.43-.58.43-.93,0-.68.69-.91,1.26-.91a.91.91,0,0,1,.42.07,3.08,3.08,0,0,0,.48.05v.21c0,.32-.36.74-.36,1.18a1.31,1.31,0,0,1-.25.77v-.16h-.17V78.3c0,.23-.25.32-.37.46v.12a.24.24,0,0,0,.25.25c.69,0,1.25-.14,2-.14.51,0,.63.4,1,.49v.35a2.92,2.92,0,0,1-.15,1v1.42c0,.51.44.72.77.9s.23.56.59.56c.54,0,.81-.46,1.32-.46s.84.47,1.17.74a.86.86,0,0,1-.14.18.59.59,0,0,0,.16-.15c.16,0,.1,0,.25,0v-.14a.16.16,0,0,1,.12-.12c0-.23.21-.3.34-.39s.14-.4.19-.59c.1-.37.29-.44.56-.53.5-.19.84-.28,1.36-.47.27-.09.33-.44.6-.44.11,0,.19.26.19.28,0,.19-.12.28-.21.28-.06.35-.19.74-.19.95s.12.71.35.71.2-.29.2-.38c0-.28-.25-.44-.25-.72s.33-.3.52-.45h.5c-.08-.27-.4-.16-.4-.44h.37c.08.37.55.5.87.58a.39.39,0,0,0,.25.41h1.13c0,.21.25.26.42.26s.52,0,.64-.33c0-.07.46-.07.52-.12a3.91,3.91,0,0,1,.59.08.3.3,0,0,1-.31,0v.19c.14.33.58.4.9.51s.2.44.29.75h.58c.4.44.59.37.84,1,0,.09.21.14.31.14.15.66,1,.58,1.59.7h.54a2.19,2.19,0,0,0,.69.26v0h.13c.33,0,.77.77,1.13.87a5.76,5.76,0,0,0,.37,1.27c.11.24.38.24.38.47-.33.47-.94.7-.94,1.4,0,.23.19.21.29.25a.73.73,0,0,1,.36.54h.5c0,.07,0,.26.1.26s.17-.17.23-.28c.21-.38.46-.86.8-.86a3.85,3.85,0,0,1,1.4.62c.17.12.35.07.4.26a1.89,1.89,0,0,1,0,.58h.14c.19-.09.28-.26.46-.26.44,0,.53.38.94.38l.8-.12a4.78,4.78,0,0,1,1,.38,3.43,3.43,0,0,0,1.17,1.11c.29.09.48,0,.77,0s.53.63.53,1.12c0,1.72-.85,2.18-1.42,3.13-.12.21-.21.27-.34.47-.21.35-.44.4-.65.63s0,1.11,0,1.66-.14.81-.14,1.11c0,.12-.09.21-.11.28a1.2,1.2,0,0,0-.27.54,3.64,3.64,0,0,1-.1.79c-.32.54-.42.77-.74,1.24-.08.13-.06.41-.1.51a1.18,1.18,0,0,1-.92.6,2.1,2.1,0,0,0-1,.14c-.13.07-.15.19-.21.26-.5.56-1,.23-1.4.88-.17.31-.44.31-.61.49s-.23.63-.23,1.07V109a2,2,0,0,0-.83,1.12v0c-.15.31-.13.47-.3.77-.37.63-.79.7-1.15,1.3S90.31,114,89.35,114a6.34,6.34,0,0,1-.94-.25c-.3,0-.57-.28-.88-.28-.06,0-.17,0-.17.12s.31.32.38.39a2.11,2.11,0,0,1,.25.72c.06.26.39.26.39.51a1.1,1.1,0,0,1-.1.63,4.13,4.13,0,0,1-.54.71c-.36.39-.8.28-1.3.46-.33.11-1-.14-1.21.07s-.06,1-.21,1.33v.23c0,.12-.33.28-.48.28-.44,0-.52-.33-.94-.33-.15,0-.21.17-.21.28,0,.33.25.93.44.93s.23-.14.29-.16.19.12.19.23a.43.43,0,0,1-.21.31c-.25,0-.33-.21-.54-.21a.32.32,0,0,0,.23.35,2.53,2.53,0,0,0-.5,1.42c-.05.25-.42.28-.57.3a.87.87,0,0,0-.63.81c0,.91.94.59.94,1.31s-.52.72-.81,1-.1.49-.23.8-.48.18-.67.39a1.47,1.47,0,0,0-.35,1c0,.23.18.51.31.53a.86.86,0,0,1,.27.46A69.14,69.14,0,0,0,182.08,91a6.43,6.43,0,0,1-.45-.91,1.93,1.93,0,0,0-.35-.58c-.06,0,0-.14-.06-.21s-.28-.07-.34-.12a2.61,2.61,0,0,1-.29-.82c-.14-.53-.63-.44-.77-.76l-.32-.7c-.08-.21-.29-.17-.48-.21a2.22,2.22,0,0,1-.56-.93v-.19h.13c.2,0,.25.12.41.21h.69a1.36,1.36,0,0,1,.78.88c0,.12.14.1.23.12.31.12.46.4.66.63a2.73,2.73,0,0,0,1.22.95l.29.12.12-.4A2.68,2.68,0,0,1,181.63,86.42Z"/><path id="_Compound_Path_" data-name="&lt;Compound Path&gt;" class="cls-1" d="M76.86,123c0-.18-.24-.55-.28-.79V122h0c0-.14.08-.26.18-.26.36,0,.22.42.52.42l.67-3.38v-.34a.54.54,0,0,0-.18,0c-.14.07-.16.25-.3.25s-.29-.52-.29-.78a5.75,5.75,0,0,1,.2-1c.15,0,.2-.07.2-.14a.44.44,0,0,0-.11-.25c-.09,0-.11-.63-.11-.8a2.92,2.92,0,0,1,.47-1.36c.08-.16.12-.48.22-.64s.16-.07.18-.16c.14-.53.14-.91.26-1.46l0-1.71c-.12-.41.1-.73.1-1.09,0-.87.46-1.44.46-2.22v-.2a8,8,0,0,1,.14-.8v-1c0-.32.19-.94.19-1.3s-.11-1.58-.16-1.83a2,2,0,0,0-.87-1.09c-.3-.16-.52-.11-.75-.36A1.19,1.19,0,0,0,77,100a2.74,2.74,0,0,1-1.2-.94c-.17-.18-.09-.43-.09-.7s-.3-.55-.38-.87c-.16-.55-.56-1-.7-1.46a8.66,8.66,0,0,0-.44-1.25c-.06-.14-.2-.09-.26-.16a2.42,2.42,0,0,1-.25-.64c-.06-.14-.22-.09-.3-.18a1.93,1.93,0,0,1-.5-1.12,1.29,1.29,0,0,1,.22-.68c.18-.34.54-.43.62-.8-.18-.14-.16,0-.3,0s-.32-.46-.32-.78c0-.52.51-.43.42-1.43.55,0,.69-.62.85-1s.74-.35.86-1c-.1,0-.2-.16-.2-.23l.08-.18v-.12c0-.18-.12-.31-.12-.5s.1-.36.1-.59c0-.48-.36-.41-.36-.82a.58.58,0,0,1,0-.14s0,0,0,0-.22-.11-.22-.18.08-.13.12-.22c-.22-.12-.28-.42-.5-.42s-.71.46-.71.6.12.18.16.2c0,.23-.14.35-.3.35-.32,0-.52-.44-.68-.62s-.46,0-.61,0-.1-.09-.1-.14c-.28-.07-.28-.3-.36-.48a3.75,3.75,0,0,0-.76-.61.18.18,0,0,0,0,.2h-.2c-.3-.23-.1-.55-.2-.89s-.17-.27-.27-.39c-.32-.36-.66-.57-.78-1.11h-.12c-.14,0-.24.11-.38.11-.39,0-.59-.25-.85-.39s-.66-.09-1.06-.31c-.63-.35-.71-.87-1.25-1.17h-.12a.76.76,0,0,0-.44-.18c-.37,0-.43.46-.77.46-.16,0-.32-.16-.4-.21a.81.81,0,0,0-.46,0c-.24,0-.93-.54-1.13-.66s-.36,0-.58,0-.34-.37-.62-.53-.41-.09-.67-.22a.69.69,0,0,1-.22-.16c-.24-.28-.86-.44-.92-.73-.18,0-.31-.25-.31-.46s.21-.39.21-.64S59,75.17,59,75a5.75,5.75,0,0,0-1.36-2c-.2-.22-.53-.32-.73-.54s0-.41-.12-.66c-.18-.41-.8-.46-.8-1-.18,0-.16-.06-.22,0-.27-.29-.47-.54-.69-.79s-.12-.6-.3-.8-.14-.71-.3-.8c-.34-.18-.66-.16-.93-.46a.55.55,0,0,0,0,.3,2.77,2.77,0,0,0,.36,1.16c.15.34.41.34.61.57a1.87,1.87,0,0,1,.42.94c.14.52.55.77.69,1.25a2.72,2.72,0,0,0,.64,1.41c.16-.18.4.21.4.39s-.08.35-.14.35a1.74,1.74,0,0,1-.33-.49c-.36,0-.55-.54-.77-.7s-.15-.09-.21-.21v-.59c-.22-.25-.38-.5-.58-.73s-.72-.25-.92-.59c.1,0,.57.08.4-.2a4.69,4.69,0,0,0-1-1.23c-.24-.17-.23-.81-.35-1.08a5.62,5.62,0,0,1-.5-1.07v-.16h0c-.3-.68-1.33-1.16-2-1.48-.16-.07-.1-.32-.16-.5-.29-.8-.85-1.08-.75-2-.41-.07-.83-1-1.17-1.69A68.24,68.24,0,0,0,76.6,124.92a5.9,5.9,0,0,1-.2-1C76.4,123.5,76.86,123.34,76.86,123Zm0-2.91s.12-.68.24-.68.24.18.24.36-.06.18-.08.25v.68h-.18c-.12,0-.22-.22-.22-.31Z"/></g></g><circle id="_Path_2" data-name="&lt;Path&gt;" class="cls-2" cx="149.3" cy="197.56" r="16.79"/><circle id="_Path_3" data-name="&lt;Path&gt;" class="cls-2" cx="81.27" cy="197.56" r="16.79"/><g id="_Group_4" data-name="&lt;Group&gt;"><path id="_Path_4" data-name="&lt;Path&gt;" class="cls-2" d="M191.51,95.73a79.28,79.28,0,0,1-153.16-41L24.84,51.07A93.27,93.27,0,0,0,205,99.35Z"/></g><circle id="_Path_5" data-name="&lt;Path&gt;" class="cls-2" cx="198.41" cy="97.58" r="7"/><path id="_Path_6" data-name="&lt;Path&gt;" class="cls-2" d="M38.23,55.17a7,7,0,0,1-8.57,4.94L16.15,56.49a7,7,0,0,1-4.95-8.57h0A7,7,0,0,1,19.77,43L33.28,46.6a7,7,0,0,1,4.95,8.57Z"/><circle id="_Path_7" data-name="&lt;Path&gt;" class="cls-2" cx="11.19" cy="47.17" r="11.19"/></g></svg>