<svg id="Layer_1" xmlns="http://www.w3.org/2000/svg" viewBox="0 0 48 48"><style/><linearGradient id="SVGID_1_" gradientUnits="userSpaceOnUse" y1="24" x2="48" y2="24"><stop offset="0" stop-color="#bd2a36"/><stop offset=".488" stop-color="#9a4599"/><stop offset="1" stop-color="#214181"/></linearGradient><path d="M47.9 15c-.7-7.7-6.2-13.3-13-13.3-4.5 0-8.7 2.5-11.1 6.4-2.3-4-6.3-6.4-10.8-6.4C6.2 1.7.8 7.3.1 15c-.1.3-.3 2.1.4 5 1 4.2 3.3 8.1 6.6 11.1l16.7 15.2 17-15.2c3.4-3 5.7-6.9 6.6-11.1.8-2.9.6-4.7.5-5zm-2.2 4.6c-.9 3.9-3 7.4-6.1 10.1L23.9 43.8l-15.5-14C5.3 27 3.2 23.5 2.3 19.6c-.7-2.8-.4-4.3-.4-4.3v-.1C2.5 8.4 7.2 3.5 13.1 3.5c4.3 0 8.1 2.7 9.9 6.9l.9 2 .9-2c1.8-4.2 5.8-6.9 10.2-6.9 5.9 0 10.6 4.9 11.2 11.7-.1.1.2 1.7-.5 4.4zm0 0" fill="url(#SVGID_1_)"/><linearGradient id="SVGID_2_" gradientUnits="userSpaceOnUse" x1="5.541" y1="12.375" x2="15.692" y2="12.375"><stop offset="0" stop-color="#bd2a36"/><stop offset=".488" stop-color="#9a4599"/><stop offset="1" stop-color="#214181"/></linearGradient><path d="M14.8 7.3c-5.1 0-9.2 4.1-9.2 9.2 0 .5.4.9.9.9s.9-.4.9-.9c0-4.1 3.3-7.4 7.4-7.4.5 0 .9-.4.9-.9s-.4-.9-.9-.9zm0 0" fill="url(#SVGID_2_)"/></svg>