<svg id="_9" data-name="9" xmlns="http://www.w3.org/2000/svg" xmlns:xlink="http://www.w3.org/1999/xlink" viewBox="0 0 84 84"><defs><style>.cls-1{fill:url(#linear-gradient);}.cls-2{fill:#fff;}</style><linearGradient id="linear-gradient" x1="11.94" y1="8.9" x2="72.54" y2="75.64" gradientUnits="userSpaceOnUse"><stop offset="0" stop-color="#ce9ffc"/><stop offset="1" stop-color="#7367f0"/></linearGradient></defs><title>icon2</title><rect class="cls-1" width="84" height="84" rx="20" ry="20"/><path class="cls-2" d="M69,28.62v5.59H40.42V28.62l9.49-6.32V15h9.48v7.29ZM15,53.08V40.54H37.26V53.08Zm4.87-6H32.5V43.9H19.88ZM69,40.54V69H40.42V40.54Zm-15.92,6.6h3.16V43.9H53.07Zm-6.33,0h3.17V43.9H46.74ZM62.56,50H46.74v12.7H62.56Zm0-6.07H59.39v3.24h3.17ZM37.26,69H15V56.24H37.26ZM32.5,62.71V59.55H19.88v3.16Z"/></svg>