<svg xmlns="http://www.w3.org/2000/svg" xmlns:xlink="http://www.w3.org/1999/xlink" viewBox="0 0 84 84"><defs><style>.cls-1{fill:url(#linear-gradient);}.cls-2{fill:#fff;}</style><linearGradient id="linear-gradient" x1="14.5" y1="4.98" x2="71.6" y2="81.85" gradientUnits="userSpaceOnUse"><stop offset="0" stop-color="#feb692"/><stop offset="1" stop-color="#ea5455"/></linearGradient></defs><title>icon2</title><g id="_8" data-name="8"><rect class="cls-1" width="84" height="84" rx="20" ry="20"/><path class="cls-2" d="M50.55,30.32h6.77a5.09,5.09,0,0,0,5.09-5.08V19.65h0a8.84,8.84,0,0,0-1.27.08V15H58.59v5.45a9.57,9.57,0,0,0-4.09,3.43l-.57.86-.56-.86a9.6,9.6,0,0,0-4.1-3.43V15H46.73v4.74a8.93,8.93,0,0,0-1.27-.08h0v5.59A5.09,5.09,0,0,0,50.55,30.32Z"/><path class="cls-2" d="M61.16,36.05H46.38L35.09,65.6v.11h0c16.46,5,21.23,5,37.69,0h0V65.6Z"/><path class="cls-2" d="M40.55,35.09,37.1,21.27a.86.86,0,0,0-.5-.58l-5.52-2.37V15.44a.87.87,0,0,0-.86-.87H21.58a.86.86,0,0,0-.86.87v2.88L15.2,20.69a.83.83,0,0,0-.5.58L11.24,35.09a.89.89,0,0,0,.16.74.86.86,0,0,0,.68.33H16.4a.87.87,0,0,0,.83-.61l1.22-4.07L19,39.67a.86.86,0,0,0,.86.81H31.94a.86.86,0,0,0,.86-.81l.55-8.19,1.22,4.07a.87.87,0,0,0,.83.61h4.31a.85.85,0,0,0,.68-.33A.83.83,0,0,0,40.55,35.09ZM22.44,16.3h6.91V18H22.44Zm.37,3.46H29L25.9,28.41Z"/><path class="cls-2" d="M31.94,42.21H19.85a.86.86,0,0,0-.86.86V67.25a.87.87,0,0,0,.86.86h3.46a.87.87,0,0,0,.85-.73l1.74-11,1.73,11a.87.87,0,0,0,.86.73h3.45a.87.87,0,0,0,.87-.86V43.07A.86.86,0,0,0,31.94,42.21Z"/></g></svg>