<svg xmlns="http://www.w3.org/2000/svg" xmlns:xlink="http://www.w3.org/1999/xlink" viewBox="0 0 84 84"><defs><style>.cls-1{fill:url(#linear-gradient);}.cls-2{fill:#fff;}.cls-3{fill:#c3d2ff;}</style><linearGradient id="linear-gradient" x1="7.39" y1="6.57" x2="79.4" y2="80.28" gradientUnits="userSpaceOnUse"><stop offset="0" stop-color="#f97794"/><stop offset="1" stop-color="#623aa2"/></linearGradient></defs><title>icon2</title><g id="_4" data-name="4"><rect class="cls-1" width="84" height="84" rx="20" ry="20"/><path class="cls-2" d="M20.14,63.53V65.4h2.33v.91H20.14V69h-1V62.63h3.94v.9Z"/><path class="cls-2" d="M24.22,67.53,23.72,69h-1L25,62.63h1.16L28.36,69h-1l-.5-1.47Zm1.33-3.88h0l-1,3h2Z"/><path class="cls-2" d="M31.22,62.63a2.9,2.9,0,0,1,2.2.86,3.33,3.33,0,0,1,.81,2.36,3.19,3.19,0,0,1-.81,2.31,2.82,2.82,0,0,1-2.15.84H29.1V62.63Zm0,5.47a2,2,0,0,0,1.48-.55,2.28,2.28,0,0,0,.58-1.69,2.47,2.47,0,0,0-.59-1.77,2,2,0,0,0-1.49-.56H30.06V68.1Z"/><path class="cls-2" d="M35.68,63.37a3,3,0,0,1,4.22,0,4.07,4.07,0,0,1,0,4.9,3,3,0,0,1-4.22,0,4.06,4.06,0,0,1,0-4.89Zm.7,4.22a1.74,1.74,0,0,0,1.41.61,1.78,1.78,0,0,0,1.41-.6,3.19,3.19,0,0,0,0-3.58,2,2,0,0,0-2.82,0,2.64,2.64,0,0,0-.55,1.79A2.6,2.6,0,0,0,36.38,67.59Z"/><path class="cls-2" d="M48.29,66.61V64.2h0s-.19.44-.66,1.43l-.87,1.82h-.61l-.86-1.8c-.48-1-.7-1.48-.67-1.45h0v.72c0,.58,0,1.15,0,1.69V69h-.95V62.63h1.09l1.71,3.49h0l1.7-3.49h1V69h-1Z"/><path class="cls-2" d="M51.48,67.53,51,69H50l2.24-6.37h1.16L55.63,69h-1l-.5-1.47Zm1.33-3.88h0l-1,3h2Z"/><path class="cls-2" d="M56.37,62.63h1V68.1h2.84V69h-3.8Z"/><path class="cls-2" d="M61,62.63h1V68.1h2.83V69H61Z"/><circle id="_Path_" data-name="&lt;Path&gt;" class="cls-2" cx="37.19" cy="53.02" r="3.17"/><circle id="_Path_2" data-name="&lt;Path&gt;" class="cls-2" cx="49.86" cy="53.02" r="3.17"/><path class="cls-2" d="M44.45,47.26A18.8,18.8,0,0,1,25.84,25.68l.05-.35L25,25.1l-.13.07a2.61,2.61,0,0,1-1.07.24,2.31,2.31,0,0,1-.52-.06,2.51,2.51,0,0,1,.52-5,2.29,2.29,0,0,1,.52.05,2.48,2.48,0,0,1,1.72,1.33l.08.16,2.14.58a1.6,1.6,0,0,1,1.23,1.38,3.43,3.43,0,0,1,0,.59c-1.87,8.6,2.83,16.73,10.93,18.9A15.44,15.44,0,0,0,59.35,32.52v-.06A1.69,1.69,0,0,1,61,31.22a1.59,1.59,0,0,1,.43.06,1.68,1.68,0,0,1,1.19,2c0,.05,0,.09,0,.14v0A18.85,18.85,0,0,1,44.45,47.26Z"/><path class="cls-2" d="M36.56,17.64c.32-.23.64-.45,1-.65a13.39,13.39,0,0,0-2,1.54l.21-.19C36,18.09,36.27,17.87,36.56,17.64Z"/><path class="cls-2" d="M33.31,21.07l.17-.25a13.48,13.48,0,0,0-.8,1.31l.19-.33C33,21.55,33.16,21.3,33.31,21.07Z"/><path class="cls-2" d="M53.81,18.76h0l.46.46c-.29-.3-.59-.59-.91-.87l.16.14A.31.31,0,0,0,53.81,18.76Z"/><path class="cls-2" d="M32,23.68c.07-.2.15-.41.24-.61a12.83,12.83,0,0,0-.62,1.74c.07-.25.15-.49.23-.73Z"/><path class="cls-2" d="M56.67,22.71c.21.45.39.91.56,1.38C57.06,23.62,56.88,23.16,56.67,22.71Z"/><path class="cls-2" d="M55.44,20.63a5.72,5.72,0,0,1,.39.57A5.72,5.72,0,0,0,55.44,20.63Z"/><path class="cls-2" d="M54.55,19.51c.24.28.47.56.7.86C55,20.07,54.79,19.79,54.55,19.51Z"/><path class="cls-2" d="M55.91,21.33a11.19,11.19,0,0,1,.65,1.17A11.19,11.19,0,0,0,55.91,21.33Z"/><path class="cls-2" d="M34.37,19.85c0,.06.12,0,.16-.1a.45.45,0,0,0,0-.23l.09-.1a12.29,12.29,0,0,0-1.11,1.39c.24-.35.49-.69.76-1C34.32,19.81,34.37,19.83,34.37,19.85Z"/><path class="cls-2" d="M56,35.35a2,2,0,0,1-.5.09.42.42,0,0,1-.14-.37l0-.23,0-.12a.66.66,0,0,1-.12-.4c0-.15,0-.51.09-.53a1.08,1.08,0,0,0,.36-.49l.11-.13.1-.1c0,.08.09.09.09,0s.15-.2.22-.23.28,0,.31-.09.19-.33.27-.36.33-.15.33-.21.24-.14.41-.15h0c-.08.28-.17.56-.26.83A14.92,14.92,0,0,0,57.71,31c-.14-.08-.29-.16-.33-.14s-.08-.08,0-.09.08-.14.11-.1.22,0,.26,0l0,0,0,.21A13.67,13.67,0,0,0,58,28.43a13.31,13.31,0,0,0-.38-3.11c0,.16.08.3.11.46a0,0,0,0,0,0,0,.66.66,0,0,1-.27.08.34.34,0,0,0-.23.06c-.07,0-.2.24-.25.2s0-.24,0-.24h0a.2.2,0,0,1,.08-.2c.08-.06.37-.25.44-.31l.1-.08c-.1-.41-.22-.82-.35-1.22a1.26,1.26,0,0,1-.25.3.82.82,0,0,0-.16.62c0,.26-.28.66-.36.62s-.14-.38-.2-.43-.16-.2-.15-.14-.13.21-.14.25-.13.07-.15.1a.56.56,0,0,0,0,.28A1.59,1.59,0,0,1,56,26a1.46,1.46,0,0,1,.09.43,2.41,2.41,0,0,1-.14.48,1.25,1.25,0,0,0-.25.28c-.07.14-.39.5-.52.49s-.25.21-.21.22.11.11.09.18a3.54,3.54,0,0,0-.19.69c0,.29-.49.55-.49.51s-.1-.17-.18-.23-.26-.18-.27-.1a.79.79,0,0,0,0,.43c.05.07.28.31.35.42s0,.43-.13.32a3.34,3.34,0,0,1-.5-.54.85.85,0,0,1,0-.35.61.61,0,0,0,0-.3c0-.07-.18-.22-.19-.28s0-.2-.15-.2-.25-.18-.23-.22a.67.67,0,0,0-.07-.34c0-.09-.26-.28-.35-.25a3.14,3.14,0,0,0-.39.24c-.07,0-.12.35-.14.4s-.21,0-.21.08,0,.14-.06.14a.52.52,0,0,0-.19.32c0,.17-.19.64-.26.65a.26.26,0,0,1-.19-.16,1.58,1.58,0,0,0-.07-.34,3.22,3.22,0,0,1-.24-.46A5.16,5.16,0,0,0,50.7,28c0-.06-.07-.27-.13-.29s-.16-.15-.16-.18a.69.69,0,0,0-.2-.35l-.32.05-.1,0c0-.06-.1-.08-.17,0a.54.54,0,0,1-.38,0,2.7,2.7,0,0,0-.26-.42c-.11-.13-.48-.4-.52-.37s-.11.11-.08.17.22.16.26.25.16.32.22.28a.47.47,0,0,1,.37.13c.06.08.15.38.1.43s-.12.36-.19.42-.34.18-.35.23a1.13,1.13,0,0,1-.38.26c-.17.08-.69.15-.75,0s-.29-.57-.38-.7a4.84,4.84,0,0,1-.39-.65c0-.1-.14-.21-.13-.14s0,.32.08.37a4.37,4.37,0,0,1,.29.37c.07.09.17.57.28.65s.29.5.36.5a.88.88,0,0,0,.37-.09c0-.05.31,0,.33.12a1.71,1.71,0,0,1-.21.73,8.35,8.35,0,0,1-.55.79,1.29,1.29,0,0,0-.29.4,4.14,4.14,0,0,0-.13.93,2.58,2.58,0,0,1-.32,1.2c-.15.16-.32.88-.38.9a.47.47,0,0,0-.22.2,1.55,1.55,0,0,1-.18.49,5.14,5.14,0,0,1-.56.62c-.18.11-.82,0-.88-.15s-.31-.7-.31-.79a2.76,2.76,0,0,0-.11-.6,3,3,0,0,1-.28-.82c0-.17.13-.67.12-.81s-.19-.56-.23-.72a2.8,2.8,0,0,1-.14-.79c0-.14,0-.64-.07-.62a.65.65,0,0,1-.31,0c-.07,0-.35-.13-.35-.23H43l-.19,0a.39.39,0,0,1-.33.27,2,2,0,0,1-.64-.08,2.09,2.09,0,0,1-.54-.53,3.34,3.34,0,0,1-.27-.89,5,5,0,0,1,.11-1,2.89,2.89,0,0,1,.48-.75l.07-.13.1-.21c0-.3.15-.58.23-.61s.23-.23.3-.22a.81.81,0,0,0,.42,0c.14-.06.73-.13.85-.17s.51,0,.52,0-.05.14,0,.17a1.09,1.09,0,0,0,.34.38c.18.07.55.31.58.23a1,1,0,0,1,.63-.13c.24,0,.8.08.83,0s.18-.31.18-.37,0-.14,0-.06-.2.07-.19,0-.31-.1-.56,0l-.17-.13-.07-.06a.68.68,0,0,1-.07-.25c0-.05,0-.3,0-.3a.28.28,0,0,0-.08.22c0,.12,0,.39.08.4s0,.19,0,.19-.14-.15-.13-.15,0-.05-.11,0-.2-.11-.2-.16A1.4,1.4,0,0,0,45,25l0-.07s-.07-.16-.1-.2l-.15-.21c-.22-.19-.31-.24-.19-.12a1.57,1.57,0,0,1,.27.41c0-.05-.13.08-.1.1s0,.15-.09.19-.16.27-.23.25-.06-.21,0-.21.08-.17,0-.25-.33-.2-.34-.25-.09,0-.05.15-.25.17-.28,0,0-.43-.07-.38-.38,0-.44.13-.35.34-.38.48-.22.44-.27.41-.32,0-.38,0-.34-.09-.35-.17a2.67,2.67,0,0,1,0-.5c0-.11.18-.39.31-.42s.48,0,.51,0a.2.2,0,0,0,0-.22c-.06-.05-.14-.31-.22-.31s-.16-.1-.13-.14.21-.17.26-.23.3-.1.32-.11a.3.3,0,0,0-.24-.07c-.15,0-.46,0-.42,0s.13-.16.09-.22,0-.34.1-.35.08-.2.05-.2a.34.34,0,0,1-.13-.28,2.08,2.08,0,0,1,.1-.52c.06,0,.26,0,.24,0s-.07.15,0,.18a1.16,1.16,0,0,1,.22.25,4.68,4.68,0,0,1,.11.5.29.29,0,0,1,0,.25s0,.1-.06.15.29-.1.3-.15a.47.47,0,0,1,.2-.24c.07,0,.29-.1.3-.15s-.08-.11-.06-.16.07-.26,0-.26-.21-.24-.21-.36a3,3,0,0,1,0-.61c0-.15.36-.32.36-.35s0-.14.07-.14a.27.27,0,0,0,.19-.11,3.45,3.45,0,0,1,.36-.55c.11-.09.39-.36.43-.38s.13,0,.2-.07a1.21,1.21,0,0,1,.39-.2.88.88,0,0,1,.37.09,1.21,1.21,0,0,0,.3.25,5.54,5.54,0,0,0,.57.26c.19.05.29.36.37.3s.17-.38.21-.37.2.07.2.13a.11.11,0,0,0,.18.07,2.14,2.14,0,0,1,.64-.25c.14,0,.39,0,.32,0s0-.25.1-.22a1,1,0,0,0,.62-.13c.1-.09.35-.36.41-.33s.2.11.23.05.23,0,.22.07.08.14.1.1.12-.19.2-.15.26.1.2.07-.08-.26,0-.28.2-.1.22-.16a.67.67,0,0,1,.21-.2,2.56,2.56,0,0,1,.4-.14c.12,0,.36-.14.39-.1s.16,0,.19,0,.29-.11.3-.19.16-.17.2-.12a1.32,1.32,0,0,0,.41.13h.13A13.34,13.34,0,0,0,37.54,17a5.82,5.82,0,0,1,.6-.31s0,.12-.12.17-.36.2-.35.23-.09.21-.16.23a3.56,3.56,0,0,0-.36.26,5,5,0,0,0-.52.25c-.06.08-.16.41-.22.41h-.08a.25.25,0,0,1,0,.19,1.17,1.17,0,0,1-.44.11l-.48.06c-.24.23-.48.47-.71.71a.69.69,0,0,1,.27.16c.06.1.23.33.19.38s.07.16.12.11.11-.26.06-.27a.62.62,0,0,1-.16-.43c0-.22.29-.54.35-.51s.18.19.31.12.26.16.33.14a1.44,1.44,0,0,1,.42,0s.12.21.2.21.31.05.34.12.1.26.06.28a.2.2,0,0,0,.06.22c.07,0,.29.13.3.18s.11.09.09.13,0,.25-.08.27-.11.12-.17.07-.25-.07-.21,0a.55.55,0,0,1,0,.36c0,.08-.08.33-.22.23a2.85,2.85,0,0,0-.74-.32c-.11,0,0-.21.29-.34l0-.37,0-.22-.36-.21c-.08,0-.28.05-.35,0s-.26,0-.21,0a.32.32,0,0,1,.11.27c0,.09-.1.38-.21.42a2.48,2.48,0,0,0-.48.19.48.48,0,0,1-.14.26,5,5,0,0,0-.38.42c-.06.08-.26.26-.26.31s-.05.09,0,.11.12.35.22.41.37.23.41.2.13.07.16,0,.16.12.18.25.16.26.18.13.17-.35.13-.34-.07-.12,0-.11.21-.16.24-.34,0-.85,0-.87a.3.3,0,0,1,.23.08c0,.05.22,0,.27.09s.33.09.33.19.06.34.12.34.22,0,.22-.05.08-.07.14,0,.27.34.27.39a.34.34,0,0,0,.08.23c.06,0,.15.32.19.3s.16.12.17.21a4.26,4.26,0,0,0,0,.63c0,.08.23.22.22.28s0,.21-.13.17-.2,0-.21,0-.07-.12-.13-.09a.13.13,0,0,1-.11-.21c.08-.12.17-.42,0-.34s-.43,0-.41.06-.05.21-.12.22-.1.21,0,.26.15.21.05.27-.26.15-.28.17-.08-.14-.22-.1-.39.26-.35.3a.36.36,0,0,1-.12.3,2,2,0,0,0-.42.27c-.06.08,0,.43-.06.45s-.16.05-.15.1-.14.28-.28.36a.92.92,0,0,0-.3.56.82.82,0,0,1,.07.28c0,.07-.05.35-.15.3s-.23-.4-.32-.44a1.14,1.14,0,0,0-.42,0,.15.15,0,0,1-.18,0,1.09,1.09,0,0,0-.54,0,1.61,1.61,0,0,0-.42.77c-.07.36.53.55.55.47s.19-.25.26-.24.33.08.3.2,0,.44.15.45.3.31.27.47.1.49.16.45.27-.11.32-.08.16.15.24.08.27-.34.32-.36.17-.08.2,0,.18.08.19,0,.23,0,.31.06.21.27.23.25a.45.45,0,0,1,.31.06,1.73,1.73,0,0,1,.52.37,2.18,2.18,0,0,0,.56.48c.19.12.25.47.3.5a3.72,3.72,0,0,0,.37.1c.09,0,.3.2.36.2a2.29,2.29,0,0,1,.4.06c.09,0,.28.21.32.17s.2.14.25.29v.31a2.33,2.33,0,0,0-.05.27,2.28,2.28,0,0,1-.22.31,2.45,2.45,0,0,0-.14.29s-.11.06-.12.12-.09.29-.12.47a2.68,2.68,0,0,1-.15.68,1.9,1.9,0,0,0-.4.21,1.2,1.2,0,0,0-.16.32.64.64,0,0,1-.15.34c-.08.06-.17.43-.21.46s-.13.19-.16.19a.71.71,0,0,1-.17.05c-.07,0-.22.06-.19.14a.75.75,0,0,1-.1.48c-.07.06-.4.19-.41.31s-.32.26-.29.41,0,.46,0,.49a.64.64,0,0,1,0,.34c0,.05-.19.16-.24.22a.54.54,0,0,0,0,.38c.05,0,.09.25.13.29s.13.14,0,.16a1,1,0,0,1-.42,0,1.13,1.13,0,0,0-.19-.08l0-.07s0-.23-.09-.33a4.56,4.56,0,0,1-.24-.55c0-.12-.07-.64-.09-.71s0-.28,0-.29.05-.2.13-.23.06-.28,0-.26-.16-.29-.16-.54.22-.74.18-.9a4,4,0,0,1,0-.6s-.07-.16-.06-.21a.88.88,0,0,0,0-.4,2.28,2.28,0,0,0-.33-.62c-.1-.09-.34-.34-.32-.37s-.08-.24-.21-.31-.15-.54-.1-.55.08-.11,0-.14a.73.73,0,0,1-.25-.32,1.63,1.63,0,0,1,.15-.66c0-.06.1-.4.13-.43a.47.47,0,0,0,0-.28c0-.08-.1-.29-.12-.26a.17.17,0,0,1-.24,0c-.09-.09-.42-.22-.42-.25a.26.26,0,0,0-.1-.16s-.18-.21-.24-.23-.3-.06-.34-.12a1.06,1.06,0,0,0-.47-.32,2.42,2.42,0,0,1-.84-.38c-.06-.1-.13-.62-.19-.7a1.92,1.92,0,0,1-.26-.34c0-.05-.08,0-.05.05s0,.32,0,.29-.25-.1-.28-.22a.93.93,0,0,0-.16-.22,13,13,0,0,1,.34-1.8,13.15,13.15,0,0,0-.45,3.4,13.41,13.41,0,0,0,26,4.54,13.16,13.16,0,0,1-1.1,2.34ZM35.57,20.73c-.11-.06-.25.27-.34.27s-.13-.23-.09-.27.19-.16.23-.13.34.16.36.19S35.68,20.8,35.57,20.73Zm.14,6.57c.06,0,.14.16.19.16s0,.09,0,.13-.14-.1-.17-.09-.07,0-.07-.07S35.66,27.28,35.71,27.3Zm-.27-.24a.19.19,0,0,1,.12.07s-.16.16-.16.08S35.41,27.06,35.44,27.06Zm-.29,0c.05,0,0,.17,0,.17a.07.07,0,0,1-.06-.07S35.1,27.08,35.15,27.1Zm.11,1s-.25,0-.25,0,.19-.1.24-.06S35.3,28.12,35.26,28.12Zm.77-.07c-.09,0-.21.1-.25.06s-.27-.08-.29-.13,0-.21-.07-.19a.33.33,0,0,1-.28-.1.71.71,0,0,0-.43-.11c-.06,0-.29,0-.27,0a.42.42,0,0,1,.29-.17,2.13,2.13,0,0,1,.56.07l.26.16s.15.16.3.15S36.12,28.06,36,28.05Zm.48,0c0,.06-.23.06-.23,0s.14-.14.19-.14S36.54,28,36.51,28.08Zm3.87-7.81-.25.18c-.05,0-.29,0-.31.05a6,6,0,0,1-.23.67l-.18.27s-.14.13-.17.08-.24-.11-.3-.11-.21-.21-.21-.46-.28-.74-.22-.79,0-.2.09-.24.13-.2,0-.24-.16-.28-.08-.27.1-.14.06-.1-.25-.07-.24-.14a1,1,0,0,0,0-.34c0-.07-.12-.36-.24-.37s-.37-.1-.4-.06-.26,0-.35,0-.12-.26,0-.26.36-.06.3-.08a2.37,2.37,0,0,1-.34-.08c-.07,0-.14,0-.16,0s-.14-.08-.08-.14.3-.07.41-.11.27-.19.21-.19.09-.28.28-.39A4.81,4.81,0,0,1,39,16.87c.13,0,.58,0,.56-.07s.06-.26.15-.28a3.89,3.89,0,0,1,.72,0c.18,0,.56-.11.62-.1s.2.07.27.06.39,0,.52,0,.23.17.11.2-.18.27-.09.23a.81.81,0,0,1,.42,0,.68.68,0,0,0,.31.06c.08,0,0,.18,0,.2a.86.86,0,0,0-.3.16c0,.05-.21.1-.19.14a.49.49,0,0,1-.06.29s-.13.06,0,.08.12.26,0,.26-.23.23-.17.44-.26.45-.22.48,0,.22,0,.2-.07,0,0,0-.11.18-.2.14-.37-.11-.39-.08a.1.1,0,0,0,0,.16c.09.06.2,0,.13.1S41,20,40.86,20,40.43,20.23,40.38,20.27Zm7.87,13a.29.29,0,0,0-.06.17,1.53,1.53,0,0,1,0,.33c0,.09-.19.41-.26.42s-.27-.06-.28-.17a2.68,2.68,0,0,1-.07-.51.65.65,0,0,0,.05-.3.85.85,0,0,1,.1-.41c.07-.08.34-.29.37-.38s.14-.25.14-.15a6.18,6.18,0,0,1,.13.77A.56.56,0,0,1,48.25,33.24ZM52,29.57c0,.05-.33-.16-.29-.26s.14-.13.19-.08A.58.58,0,0,1,52,29.57Zm5.68.77c0,.22-.36.27-.52.16C57.11,30.26,57.48,30.24,57.64,30.34Zm-1.16-1.48c0-.06.21-.09.21-.17s.1-.19.15-.17.15.23.23.25,0,.28-.08.29-.26.14-.28.11-.19-.21-.23-.2S56.44,28.93,56.48,28.86Zm-.21-1c.13,0,.21.12.17.2s-.17.27-.22.22S56.14,27.85,56.27,27.87Zm.14,2.41c.1,0,.15.28.11.3a.37.37,0,0,0-.05.33c.05.08.05.13,0,.11s-.22-.08-.25,0-.08.06-.14-.15S56.31,30.26,56.41,30.28ZM56,27.08c0-.07.17.25.12.32s-.1.07-.12,0S55.9,27.16,56,27.08Zm-.74,3.23c.19-.11.47-.7.55-.67s.26.2.24.25,0,.35,0,.44,0,.25-.07.36-.18.27-.16.28,0,0,0,.05-.12.08-.2,0-.47-.11-.52-.19A.51.51,0,0,1,55.22,30.31ZM54.3,31A9.65,9.65,0,0,0,53.69,30l-.21-.14c.07,0,.13-.11.15-.07s.21.14.27.27l.07.11.07.11a1.72,1.72,0,0,1,.41.48C54.51,30.86,54.38,31.1,54.3,31Zm.22.36c0-.06.19-.15.34-.09s.67.3.72.34-.08,0-.28,0S54.5,31.46,54.52,31.4Z"/><polygon class="cls-3" points="57.58 25.31 57.58 25.31 57.58 25.32 57.58 25.31"/><polygon class="cls-3" points="57.23 24.09 57.23 24.09 57.23 24.09 57.23 24.09"/><path class="cls-3" d="M56.56,22.5l.11.21Z"/><path class="cls-3" d="M54.3,19.23a3.33,3.33,0,0,0,.25.28A3.33,3.33,0,0,1,54.3,19.23Z"/><path class="cls-3" d="M53.09,18.09h0l.3.27Z"/><path class="cls-3" d="M55.83,21.2l.08.13Z"/><path class="cls-3" d="M55.25,20.37l.19.26Z"/><polygon class="cls-3" points="33.48 20.82 33.48 20.82 33.49 20.81 33.48 20.82"/><path class="cls-3" d="M34.71,19.3l-.11.12.11-.12Z"/><path class="cls-3" d="M32.68,22.13q-.24.47-.45.93h0c.14-.32.29-.63.45-.94Z"/><path class="cls-3" d="M31.61,24.82c0,.07,0,.14-.05.21h0c0-.07,0-.15.05-.22Z"/><path class="cls-3" d="M35.42,18.59h0l.07-.06Z"/><polygon class="cls-3" points="37.54 16.99 37.54 16.99 37.54 16.99 37.54 16.99"/><path class="cls-3" d="M57.15,33a.36.36,0,0,0,0-.09A.36.36,0,0,1,57.15,33Z"/><path class="cls-3" d="M57.71,31c0-.05,0-.11,0-.16s0,.11,0,.16Z"/></g></svg>