<svg xmlns="http://www.w3.org/2000/svg" xmlns:xlink="http://www.w3.org/1999/xlink" viewBox="0 0 84 84"><defs><style>.cls-1{fill:url(#linear-gradient);}.cls-2{fill:#fff;}</style><linearGradient id="linear-gradient" x1="9.1" y1="-0.63" x2="72.77" y2="81.88" gradientUnits="userSpaceOnUse"><stop offset="0" stop-color="#f5978d"/><stop offset="0" stop-color="#fccf31"/><stop offset="1" stop-color="#f55555"/></linearGradient></defs><title>icon2</title><g id="_5" data-name="5"><rect class="cls-1" width="84" height="84" rx="20" ry="20"/><path class="cls-2" d="M15.12,63.52V69h-1V63.52H12.29v-.9H17v.9Z"/><path class="cls-2" d="M22.48,66.53a2.75,2.75,0,0,1-.62,1.93,2.23,2.23,0,0,1-1.74.65,2.26,2.26,0,0,1-1.75-.65,2.74,2.74,0,0,1-.61-1.93V62.62h1v3.9c0,1.12.46,1.67,1.39,1.67s1.41-.55,1.41-1.67v-3.9h.94v.8a.49.49,0,0,0,.31-.5v-.29h.66v.31a1.13,1.13,0,0,1-1,1.23ZM20.8,62.25h-.86L19.13,61l.78-.23Z"/><path class="cls-2" d="M26.25,67.14c.08.74.56,1.1,1.42,1.1s1.15-.31,1.15-.93a.86.86,0,0,0-.49-.81s-.4-.15-1-.36a4.18,4.18,0,0,1-1.2-.58,1.63,1.63,0,0,1-.59-1.33A1.57,1.57,0,0,1,26,63a2.29,2.29,0,0,1,1.51-.46,2,2,0,0,1,2.21,1.6l-.92.24a1.17,1.17,0,0,0-1.29-1c-.71,0-1.07.28-1.07.84a.82.82,0,0,0,.42.74,5.42,5.42,0,0,0,1.06.4,3.75,3.75,0,0,1,1.25.58,1.66,1.66,0,0,1,.6,1.37,1.7,1.7,0,0,1-.56,1.36,2.39,2.39,0,0,1-1.57.45c-1.37,0-2.16-.57-2.34-1.73Z"/><path class="cls-2" d="M30.64,62.62h1V69h-1Z"/><path class="cls-2" d="M33.71,64.31h0v.49c0,.39,0,.74,0,1.07V69h-1V62.62h1l2.94,4.67h0v-.48c0-.37,0-.72,0-1V62.62h.95V69h-1Z"/><path class="cls-2" d="M43.25,69v-.71h0a2.33,2.33,0,0,1-1.87.82,2.61,2.61,0,0,1-2-.86,4.09,4.09,0,0,1,0-4.9,2.71,2.71,0,0,1,2.09-.85,2.81,2.81,0,0,1,1.7.51A2.58,2.58,0,0,1,44,64.26l-.94.25a1.61,1.61,0,0,0-1.68-1.1A1.69,1.69,0,0,0,40,64a2.6,2.6,0,0,0-.52,1.74,2.68,2.68,0,0,0,.55,1.81,1.79,1.79,0,0,0,1.44.61,2.11,2.11,0,0,0,1.15-.31,1.65,1.65,0,0,0,.59-.62v-.81H41.67v-.9h2.46V69Z"/><path class="cls-2" d="M46.25,67.52,45.76,69h-1L47,62.62h1.15L50.4,69h-1l-.51-1.48Zm1.33-3.87h0l-1,3h2Z"/><path class="cls-2" d="M53,62.62a2.34,2.34,0,0,1,1.65.53,1.93,1.93,0,0,1,.59,1.52,1.91,1.91,0,0,1-.59,1.49A2.36,2.36,0,0,1,53,66.7H52.1V69h-1V62.62Zm0,3.22c.85,0,1.28-.39,1.28-1.16s-.43-1.17-1.28-1.17H52.1v2.33Z"/><path class="cls-2" d="M56.66,63.37a3,3,0,0,1,4.22,0,4.06,4.06,0,0,1,0,4.89,2.77,2.77,0,0,1-2.11.86,2.71,2.71,0,0,1-2.11-.86,4,4,0,0,1,0-4.88Zm.7,4.21a1.74,1.74,0,0,0,1.41.61,1.78,1.78,0,0,0,1.41-.6,2.67,2.67,0,0,0,.55-1.78,2.71,2.71,0,0,0-.55-1.8,2,2,0,0,0-2.82,0,2.64,2.64,0,0,0-.55,1.79A2.58,2.58,0,0,0,57.36,67.58Z"/><path class="cls-2" d="M64.5,66.57h-1V69h-1V62.62h1.92a2.32,2.32,0,0,1,1.65.55,1.86,1.86,0,0,1,.58,1.46,1.64,1.64,0,0,1-1.26,1.75L66.86,69H65.73Zm0-.79c.81,0,1.21-.37,1.21-1.11s-.42-1.16-1.26-1.16h-1v2.27Z"/><path class="cls-2" d="M67.7,62.62h4v.9h-3v1.71H71v.91H68.66v2h3V69h-4Z"/><path class="cls-2" d="M42,56.2A20.59,20.59,0,1,1,62.58,35.62,20.6,20.6,0,0,1,42,56.2ZM42,16A19.59,19.59,0,1,0,61.58,35.62,19.61,19.61,0,0,0,42,16Z"/><path class="cls-2" d="M42,15.53A20.08,20.08,0,0,0,21.92,35.62H62.08A20.08,20.08,0,0,0,42,15.53ZM39.73,26.45l-1.13-.83-1.14.83.44-1.34-1.14-.82h1.4L38.6,23,39,24.29h1.4l-1.13.82Zm-2.1,5.67a6.11,6.11,0,0,1,0-12.22,6.26,6.26,0,0,1,1.31.14,6.11,6.11,0,0,0,0,11.94A6.26,6.26,0,0,1,37.63,32.12ZM41,30.38l-1.13-.83-1.14.83L39.21,29l-1.14-.82h1.4l.44-1.34.43,1.34h1.4L40.61,29Zm-.17-6.55.43-1.34-1.14-.82h1.41L42,20.33l.43,1.34h1.41l-1.14.82.43,1.34L42,23Zm4.36,6.55-1.14-.83L43,30.38,43.39,29l-1.13-.82h1.4l.43-1.34.44,1.34h1.4L44.79,29Zm1.31-3.93-1.14-.83-1.13.83.43-1.34-1.13-.82H45L45.4,23l.44,1.34h1.4l-1.14.82Z"/></g></svg>