<svg xmlns="http://www.w3.org/2000/svg" xmlns:xlink="http://www.w3.org/1999/xlink" viewBox="0 0 84 84"><defs><style>.cls-1{fill:url(#linear-gradient);}.cls-2{fill:#fff;}</style><linearGradient id="linear-gradient" x1="16.64" y1="16.81" x2="66.29" y2="66.13" gradientUnits="userSpaceOnUse"><stop offset="0" stop-color="#81fbb8"/><stop offset="1" stop-color="#28c76f"/></linearGradient></defs><title>icon2</title><g id="_2" data-name="2"><rect class="cls-1" width="84" height="84" rx="20" ry="20"/><path class="cls-2" d="M47,26H30.3a.61.61,0,0,1-.61-.61V23a.61.61,0,0,1,.61-.61H47a.61.61,0,0,1,.61.61V25.4A.61.61,0,0,1,47,26ZM30.92,24.8H46.41V23.63H30.92Zm0,0"/><path class="cls-2" d="M48,23.63H29.33a1.8,1.8,0,1,1,0-3.59H48a1.8,1.8,0,1,1,0,3.59ZM29.33,21.25a.59.59,0,1,0,0,1.17H48a.59.59,0,1,0,0-1.17Zm0,0"/><path class="cls-2" d="M47.75,21.25H29.57a.6.6,0,0,1-.61-.6V16.94A1.94,1.94,0,0,1,30.91,15h15.5a1.94,1.94,0,0,1,2,1.93v3.71a.6.6,0,0,1-.61.6Z"/><path class="cls-2" d="M30.18,20h17v-3.1a.73.73,0,0,0-.73-.72H30.91a.73.73,0,0,0-.73.72Z"/><path class="cls-2" d="M50.44,56.22H47.73a.61.61,0,0,1-.61-.61V49.26a.6.6,0,0,1,.61-.6h2.71a.6.6,0,0,1,.61.6v6.35a.61.61,0,0,1-.61.61ZM48.34,55h1.49V49.86H48.34Zm0,0"/><path class="cls-2" d="M49.6,43a.61.61,0,0,1-.43-.18l-1.92-1.9a.59.59,0,0,1,0-.85l4.54-4.49a.6.6,0,0,1,.44-.18.6.6,0,0,1,.43.18l1.92,1.9a.59.59,0,0,1,0,.85L50,42.77a.58.58,0,0,1-.43.18Zm-1.05-2.51,1.05,1.05,3.68-3.64-1.05-1Zm0,0"/><path class="cls-2" d="M54.38,49.86H43.79a3.78,3.78,0,1,1,0-7.56h6.38a.62.62,0,0,1,.43.18l2.22,2.19a2.63,2.63,0,0,0,3.68,0,2.16,2.16,0,0,0,.27-.33.65.65,0,0,1,.55-.25.64.64,0,0,1,.5.34,3.78,3.78,0,0,1-3.44,5.43ZM43.79,43.51a2.58,2.58,0,1,0,0,5.15H54.38A2.6,2.6,0,0,0,57,46.08a1.62,1.62,0,0,0,0-.22,3.86,3.86,0,0,1-5-.34l-2-2Zm0,0"/><path class="cls-2" d="M44.63,36a2.4,2.4,0,0,0,.35.86A2.4,2.4,0,0,1,44.63,36Z"/><path class="cls-2" d="M42.24,48.14a2.69,2.69,0,0,1-.84-1A2.56,2.56,0,0,0,42.24,48.14Z"/><path class="cls-2" d="M45,34.1a.41.41,0,0,1-.05.09Z"/><path class="cls-2" d="M41.3,45.38l0-.09a.08.08,0,0,1,0,.05S41.31,45.37,41.3,45.38Z"/><path class="cls-2" d="M41.21,46.28a2.24,2.24,0,0,0,0,.24A2,2,0,0,1,41.21,46.28Z"/><path class="cls-2" d="M45,36.91a2,2,0,0,0,.29.36A2,2,0,0,1,45,36.91Z"/><path class="cls-2" d="M41.63,44.66a2.37,2.37,0,0,0-.19.35A2.37,2.37,0,0,1,41.63,44.66Z"/><path class="cls-2" d="M41.27,46.68a2.32,2.32,0,0,0,.13.4A2.07,2.07,0,0,1,41.27,46.68Z"/><path class="cls-2" d="M41.66,44.62a2.6,2.6,0,0,1,2.13-1.11A2.46,2.46,0,0,0,41.66,44.62Z"/><path class="cls-2" d="M44.65,34.84s0-.08,0-.13a.14.14,0,0,0,0,.06S44.66,34.82,44.65,34.84Z"/><path class="cls-2" d="M46,33.16l-.18.09Z"/><path class="cls-2" d="M45.34,33.62l.11-.09Z"/><path class="cls-2" d="M44.62,35.93a2.61,2.61,0,0,1,0-.48,3,3,0,0,1,0-.43A2.52,2.52,0,0,0,44.62,35.93Z"/><path class="cls-2" d="M40.14,45a5,5,0,0,0-.13.65,4,4,0,0,0,2.62-3.17A3.73,3.73,0,0,0,40.14,45Z"/><path class="cls-2" d="M47.1,24.8H30.23a4.42,4.42,0,0,0-4.43,4.38V51.84a4.42,4.42,0,0,0,4.43,4.38H43.79a.61.61,0,1,0,0-1.21A2.57,2.57,0,0,1,42,54.25a2.5,2.5,0,0,1-.77-1.81,2.6,2.6,0,0,1,2.6-2.58.6.6,0,1,0,0-1.2,2.52,2.52,0,0,1-1.43-.44l0,0a.61.61,0,0,1,.25.68.62.62,0,0,1-.59.43H31.34a1.62,1.62,0,0,1-1.62-1.6V33.27a1.62,1.62,0,0,1,1.62-1.6h5.9a.61.61,0,1,1,0,1.21h-5.9a.39.39,0,0,0-.4.39V47.75a.4.4,0,0,0,.4.39h9.24A3.66,3.66,0,0,1,40,45.65a4.07,4.07,0,0,1-1.35.23A4,4,0,0,1,35.22,44a3.91,3.91,0,0,1-.1-3.9L37.86,35a.88.88,0,0,1,.8-.48.91.91,0,0,1,.81.48l2.73,5.08a3.88,3.88,0,0,1,.43,2.42,4.08,4.08,0,0,1,1.16-.18h2.59V40l-1.91-1.89a3.71,3.71,0,0,1-1-3.68,3.79,3.79,0,0,1,.89-1.56H40.09a.61.61,0,1,1,0-1.21H46a1.6,1.6,0,0,1,.68.15A.6.6,0,0,1,46.55,33l-.09,0a2.4,2.4,0,0,1,.71-.12h0a2.62,2.62,0,0,1,1.84.76l1.47,1.45a.6.6,0,0,0,.67.13.58.58,0,0,0,.37-.55V29.18A4.41,4.41,0,0,0,47.1,24.8Z"/><path class="cls-2" d="M38.66,36.05,36.2,40.62a2.72,2.72,0,0,0,.07,2.72,2.8,2.8,0,0,0,4.78,0,2.7,2.7,0,0,0,.07-2.72Z"/><path class="cls-2" d="M47.6,39.76v3.15a.6.6,0,0,1-.61.6h3.18a.63.63,0,0,0,.57-.37.6.6,0,0,0-.14-.66l-5.27-5.21,2.09,2.06A.6.6,0,0,1,47.6,39.76Z"/><path class="cls-2" d="M46.46,33a2.2,2.2,0,0,0-.45.17A2.2,2.2,0,0,1,46.46,33Z"/><path class="cls-2" d="M44.62,35.93v0Z"/><path class="cls-2" d="M44.91,34.19a3.38,3.38,0,0,0-.22.52A3.38,3.38,0,0,1,44.91,34.19Z"/><path class="cls-2" d="M45.83,33.25a3.37,3.37,0,0,0-.38.28A3.37,3.37,0,0,1,45.83,33.25Z"/><path class="cls-2" d="M44.65,34.84c0,.06,0,.12,0,.18S44.64,34.9,44.65,34.84Z"/><path class="cls-2" d="M41.4,47.08h0Z"/><path class="cls-2" d="M42.24,48.14l.12.08Z"/><path class="cls-2" d="M41.21,46.28a2.9,2.9,0,0,1,.09-.9,2.76,2.76,0,0,0-.11.7C41.19,46.15,41.21,46.21,41.21,46.28Z"/><path class="cls-2" d="M45,34.1a2.59,2.59,0,0,1,.38-.48h0A2.84,2.84,0,0,0,45,34.1Z"/><path class="cls-2" d="M41.24,46.52l0,.16Z"/><path class="cls-2" d="M41.66,44.62l0,0Z"/><path class="cls-2" d="M45,36.83l.06.08Z"/><path class="cls-2" d="M41.44,45a1.62,1.62,0,0,0-.11.28A1.62,1.62,0,0,1,41.44,45Z"/><path class="cls-2" d="M54.38,56.22H43.79a3.78,3.78,0,1,1,0-7.56H54.38a3.79,3.79,0,0,1,3.42,2.1.6.6,0,0,1-.27.81.62.62,0,0,1-.82-.28,2.6,2.6,0,0,0-2.33-1.43H43.79a2.58,2.58,0,1,0,0,5.15H54.38a2.6,2.6,0,0,0,2.33-1.43.63.63,0,0,1,.82-.28.6.6,0,0,1,.27.81,3.8,3.8,0,0,1-3.42,2.11Zm0,0"/><path class="cls-2" d="M46.76,31.59a5.8,5.8,0,0,0-2.58,1.51c-.71,1-1.78,2.38-1.78,2.38s1.22,2.78,1.47,3.09,1.93,1.74,2,1.82,0,1.92.1,2a8.13,8.13,0,0,0,1.59.23,8.94,8.94,0,0,0,.83-.71l-.69-2.13.13-.11-2.46-2.42a2.6,2.6,0,0,1-.75-1.66,2.49,2.49,0,0,1,.55-1.75A2.73,2.73,0,0,1,46.46,33a4.59,4.59,0,0,0,1.12-.47Z"/><path class="cls-2" d="M16.63,67.14c.08.73.55,1.1,1.41,1.1s1.16-.31,1.16-.93a.86.86,0,0,0-.49-.81c-.05,0-.41-.15-1.05-.37a3.72,3.72,0,0,1-1.2-.57,1.62,1.62,0,0,1-.6-1.33A1.58,1.58,0,0,1,16.41,63a2.28,2.28,0,0,1,1.5-.45,2,2,0,0,1,2.22,1.59l-.92.25a1.19,1.19,0,0,0-1.3-1c-.71,0-1.06.29-1.06.85a.8.8,0,0,0,.42.74,5.52,5.52,0,0,0,1.05.4,3.55,3.55,0,0,1,1.26.57,1.71,1.71,0,0,1,.59,1.38,1.69,1.69,0,0,1-.55,1.36,2.43,2.43,0,0,1-1.57.45c-1.38,0-2.16-.57-2.34-1.73Z"/><path class="cls-2" d="M25.67,66.52a2.77,2.77,0,0,1-.62,1.94,2.29,2.29,0,0,1-1.74.65,2.3,2.3,0,0,1-1.75-.65A2.77,2.77,0,0,1,21,66.52v-3.9h1v3.9c0,1.12.47,1.67,1.39,1.67s1.42-.55,1.42-1.67v-3.9h.94Z"/><path class="cls-2" d="M28.63,62.62a2.4,2.4,0,0,1,1.65.52,2,2,0,0,1,.59,1.53,1.92,1.92,0,0,1-.59,1.49,2.38,2.38,0,0,1-1.65.54h-.92V69h-1V62.62Zm0,3.22c.84,0,1.27-.39,1.27-1.16s-.43-1.17-1.27-1.17h-.92v2.33Z"/><path class="cls-2" d="M33.52,62.62a2.38,2.38,0,0,1,1.65.52,2,2,0,0,1,.59,1.53,1.92,1.92,0,0,1-.59,1.49,2.36,2.36,0,0,1-1.65.54h-.91V69h-1V62.62Zm0,3.22c.85,0,1.27-.39,1.27-1.16s-.42-1.17-1.27-1.17h-.91v2.33Z"/><path class="cls-2" d="M36.53,62.62h1v5.47h2.83V69h-3.8Z"/><path class="cls-2" d="M41.19,62.62h4v.9h-3v1.71h2.33v.91H42.15v2H45.2V69h-4Z"/><path class="cls-2" d="M50.77,66.6c0-.54,0-1.1,0-1.69v-.72h0a13.73,13.73,0,0,1-.65,1.43l-.88,1.82h-.6l-.86-1.8a12.23,12.23,0,0,1-.67-1.45h0v.72c0,.59,0,1.15,0,1.69V69h-1V62.62h1.1L49,66.11h0l1.69-3.49h1.06V69h-1Z"/><path class="cls-2" d="M52.89,62.62h4v.9h-3v1.71h2.32v.91H53.85v2h3V69h-4Z"/><path class="cls-2" d="M58.81,64.31h0v.48c0,.4,0,.75,0,1.08V69h-.95V62.62h1l2.95,4.67h0V62.62h.94V69h-1Z"/><path class="cls-2" d="M66.42,63.52V69h-1V63.52H63.6v-.9h4.69v.9Z"/></g></svg>