<svg xmlns="http://www.w3.org/2000/svg" xmlns:xlink="http://www.w3.org/1999/xlink" viewBox="0 0 84 84"><defs><style>.cls-1{fill:url(#linear-gradient);}.cls-2{fill:#fff;}</style><linearGradient id="linear-gradient" x1="11.55" y1="8.04" x2="76.68" y2="80.67" gradientUnits="userSpaceOnUse"><stop offset="0" stop-color="#90f7ec"/><stop offset="1" stop-color="#32ccbc"/></linearGradient></defs><title>icon2</title><g id="_10" data-name="10"><rect class="cls-1" width="84" height="84" rx="20" ry="20"/><path class="cls-2" d="M65.07,60l-9.76-6.39c-.05,2.16-1.38,3.86-3,3.86h-4c-3,0-5.77-2.18-7.19-5.63L25.85,15c-3.49,3.29-8.92,5.37-8.92,14.45A7.86,7.86,0,0,0,20.1,36C27.55,40.9,30.25,52.4,35.19,63.72,36.62,67,39.31,69,42.23,69H63.44c2,0,3.63-2.14,3.63-4.77a5.06,5.06,0,0,0-2-4.27Zm0,0"/><path class="cls-2" d="M18.79,39.46a8.49,8.49,0,0,1-1.2-1L19.86,69h4.41l1.65-19.89c-2-4.24-4.12-7.67-7.13-9.65Zm0,0"/></g></svg>