<svg xmlns="http://www.w3.org/2000/svg" xmlns:xlink="http://www.w3.org/1999/xlink" viewBox="0 0 84 84"><defs><style>.cls-1{fill:url(#linear-gradient);}.cls-2{fill:#fff;}</style><linearGradient id="linear-gradient" x1="4.26" y1="3.35" x2="78.82" y2="79.72" gradientUnits="userSpaceOnUse"><stop offset="0" stop-color="#abdcff"/><stop offset="1" stop-color="#0396ff"/></linearGradient></defs><title>icon2</title><g id="_7" data-name="7"><rect class="cls-1" width="84" height="84" rx="20" ry="20"/><path class="cls-2" d="M36.41,56.79a15.83,15.83,0,0,1-3.07-1.56l.94,4.46h2.13Zm0,0"/><path class="cls-2" d="M47.59,59.69h2.13l.94-4.46a15.83,15.83,0,0,1-3.07,1.56Zm0,0"/><path class="cls-2" d="M36.42,24.31H34.28l-.93,4.45a15.78,15.78,0,0,1,3.07-1.55Zm0,0"/><path class="cls-2" d="M38.28,26.63a15.31,15.31,0,0,1,7.45,0V22.45h3.6L47.77,15H36.24l-1.57,7.45h3.61Zm2.79-9.53h1.86V19H41.07Zm0,4.65h1.86v1.86H41.07Zm0,0"/><path class="cls-2" d="M45.72,57.37a15.27,15.27,0,0,1-7.44,0v4.18H34.67L36.24,69H47.76l1.57-7.45H45.72Zm0,0"/><path class="cls-2" d="M47.59,27.21a15.63,15.63,0,0,1,3.08,1.56l-.94-4.46H47.59Zm0,0"/><path class="cls-2" d="M55.92,42.93c0-.31,0-.62,0-.93a14,14,0,1,0-.29,2.79C55.73,44.56,55.92,42.93,55.92,42.93ZM42,54.1A12.1,12.1,0,1,1,54.1,42,12.12,12.12,0,0,1,42,54.1Zm0,0"/><path class="cls-2" d="M52.2,41.07a10.13,10.13,0,0,0-2.34-5.62l-1.94,1.94-1.31-1.31,1.94-1.95a10.18,10.18,0,0,0-5.62-2.32v2.74H41.07V31.81a10.18,10.18,0,0,0-5.62,2.32l1.94,1.95-1.32,1.31-1.94-1.94a10.18,10.18,0,0,0-2.32,5.62h2.74v1.86H31.81a10.18,10.18,0,0,0,2.32,5.62l1.95-1.94,1.31,1.32-1.94,1.94a10.18,10.18,0,0,0,5.62,2.32V49.45h1.86v2.74a10.18,10.18,0,0,0,5.62-2.32l-1.94-1.94,1.31-1.32,1.95,1.94a10.19,10.19,0,0,0,2.33-5.62H49.45V41.07Zm-9.27,1.86H38.28V41.07h2.79V36.41h1.86Zm0,0"/></g></svg>