<svg xmlns="http://www.w3.org/2000/svg" xmlns:xlink="http://www.w3.org/1999/xlink" viewBox="0 0 84 84"><defs><style>.cls-1{fill:none;}.cls-2{fill:url(#linear-gradient);}.cls-3{fill:#fff;}.cls-4{fill:url(#linear-gradient-2);}.cls-5{fill:url(#linear-gradient-3);}.cls-6{fill:url(#linear-gradient-4);}.cls-7{fill:url(#linear-gradient-5);}.cls-8{clip-path:url(#clip-path);}.cls-9{clip-path:url(#clip-path-2);}</style><linearGradient id="linear-gradient" x1="9.09" y1="5.29" x2="75.83" y2="79.73" gradientUnits="userSpaceOnUse"><stop offset="0" stop-color="#fff6b7"/><stop offset="1" stop-color="#f6416c"/></linearGradient><linearGradient id="linear-gradient-2" x1="8.18" y1="4.1" x2="76.17" y2="80.3" xlink:href="#linear-gradient"/><linearGradient id="linear-gradient-3" x1="8.42" y1="3.89" x2="76.4" y2="80.1" xlink:href="#linear-gradient"/><linearGradient id="linear-gradient-4" x1="12.01" y1="0.69" x2="79.99" y2="76.89" xlink:href="#linear-gradient"/><linearGradient id="linear-gradient-5" x1="19.81" y1="-8.53" x2="91.23" y2="67.33" xlink:href="#linear-gradient"/><clipPath id="clip-path"><path class="cls-1" d="M29.87,36.69l17.84-7.12,1.94-.81s-.93-4.15-1.3-4.15-17.91.81-17.91.81Z"/></clipPath><clipPath id="clip-path-2"><polygon class="cls-1" points="32.51 47.29 45.54 34.21 41.97 32.9 27.1 38.64 32.51 47.29"/></clipPath></defs><title>icon2</title><g id="_1" data-name="1"><rect class="cls-2" width="84" height="84" rx="20" ry="20"/><path class="cls-3" d="M65.94,42a5.42,5.42,0,0,1,1.58-3.17c.55-.7,1.1-1.39,1-1.69S67.75,36.4,67,36a5.06,5.06,0,0,1-2.53-2.32,5.07,5.07,0,0,1,.42-3.42c.29-.82.58-1.63.45-1.85s-1-.37-1.83-.51a5.09,5.09,0,0,1-3.18-1.28,5.07,5.07,0,0,1-.72-3.36,4.28,4.28,0,0,0-.19-1.87c-.2-.17-1,0-1.88.13a5,5,0,0,1-3.44-.16,5.08,5.08,0,0,1-1.82-2.9c-.29-.82-.58-1.64-.84-1.73s-1,.32-1.78.74a5.19,5.19,0,0,1-3.33,1,5.24,5.24,0,0,1-2.76-2.07C43,15.69,42.35,15,42,15s-1,.69-1.55,1.37a5.24,5.24,0,0,1-2.76,2.07,5.19,5.19,0,0,1-3.33-1c-.77-.42-1.52-.84-1.78-.74s-.55.91-.84,1.73a5.08,5.08,0,0,1-1.82,2.9,5,5,0,0,1-3.44.16c-.84-.15-1.68-.3-1.88-.13a4.28,4.28,0,0,0-.19,1.87,5.07,5.07,0,0,1-.72,3.36,5.09,5.09,0,0,1-3.18,1.28c-.85.14-1.7.28-1.83.51s.16,1,.45,1.85a5.07,5.07,0,0,1,.42,3.42A5.1,5.1,0,0,1,17,36c-.77.44-1.54.89-1.59,1.18s.5,1,1.05,1.69A5.42,5.42,0,0,1,18.06,42a5.42,5.42,0,0,1-1.58,3.17c-.55.7-1.1,1.39-1.05,1.69S16.25,47.6,17,48a5.13,5.13,0,0,1,2.53,2.31,5.09,5.09,0,0,1-.42,3.43c-.29.82-.58,1.63-.45,1.85s1,.37,1.83.51a5.09,5.09,0,0,1,3.18,1.28,5.07,5.07,0,0,1,.72,3.36,4.31,4.31,0,0,0,.19,1.87c.2.17,1,0,1.88-.13a5,5,0,0,1,3.44.16,5.08,5.08,0,0,1,1.82,2.9c.29.82.58,1.64.84,1.73s1-.32,1.78-.74a5.19,5.19,0,0,1,3.33-1,5.24,5.24,0,0,1,2.76,2.07c.6.68,1.2,1.37,1.55,1.37s1-.69,1.55-1.37a5.24,5.24,0,0,1,2.76-2.07,5.19,5.19,0,0,1,3.33,1c.77.42,1.52.84,1.78.74s.55-.91.84-1.73a5.08,5.08,0,0,1,1.82-2.9,5,5,0,0,1,3.44-.16c.84.15,1.68.3,1.88.13a4.31,4.31,0,0,0,.19-1.87,5.07,5.07,0,0,1,.72-3.36,5.09,5.09,0,0,1,3.18-1.28c.85-.14,1.7-.29,1.83-.51s-.16-1-.45-1.85a5.09,5.09,0,0,1-.42-3.43A5.09,5.09,0,0,1,67,48c.77-.44,1.54-.89,1.59-1.18s-.5-1-1-1.69A5.42,5.42,0,0,1,65.94,42Z"/><polygon class="cls-4" points="56.14 31.56 48.7 32.07 27.86 53.04 40.04 65.36 61.02 44.45 61.59 37.07 56.14 31.56"/><polygon class="cls-5" points="55.12 30.79 48.19 31.56 28.24 51.57 23.56 40.02 51.14 29.25 55.12 30.79"/><polygon class="cls-6" points="60.12 34.44 58.64 30.98 50.82 28.29 25.23 38.55 25.23 27.26 54.92 27.26 60.5 32.01 60.12 34.44"/><polygon class="cls-7" points="57.12 31.56 58.35 31.95 59.23 33.77 57.12 31.56"/><circle class="cls-3" cx="57.12" cy="35.45" r="0.9"/><path class="cls-3" d="M44.26,53a2.76,2.76,0,0,1-.83,1.62,3.15,3.15,0,0,1-1,.66,2,2,0,0,1-1.19.14,1.91,1.91,0,0,1-.6-.23,4.8,4.8,0,0,1-.52-.37l1.26-1.23a.76.76,0,0,0,1-.1.67.67,0,0,0,0-1.07.63.63,0,0,0-.86-.07,2.92,2.92,0,0,0-.39.32L40.8,53l-.9-.92.14-.14.14-.14a1.64,1.64,0,0,0,.22-.31.59.59,0,0,0-.15-.71c-.28-.28-.53-.31-.76-.09s-.24.51,0,.8l-1.23,1.2a2,2,0,0,1-.61-1.61,2.49,2.49,0,0,1,.8-1.55,2.32,2.32,0,0,1,1.4-.68,1.69,1.69,0,0,1,1.43.52A1.56,1.56,0,0,1,41.67,51a1.64,1.64,0,0,1,2.07.29A1.9,1.9,0,0,1,44.26,53Z"/><path class="cls-3" d="M47.54,47a2.75,2.75,0,0,1,.74,1.23,2.35,2.35,0,0,1-.09,1.43,2.51,2.51,0,0,1-.63,1,2.58,2.58,0,0,1-.9.58,2.36,2.36,0,0,1-2.76-.63l-1.33-1.37A2.32,2.32,0,0,1,42,46.38a2.6,2.6,0,0,1,.6-.87,2.63,2.63,0,0,1,.9-.58,2.37,2.37,0,0,1,2.71.67Zm-2.61-.17a1.21,1.21,0,0,0-.61-.39.69.69,0,0,0-.67.22.71.71,0,0,0-.23.67,1.3,1.3,0,0,0,.36.62l1.4,1.43a1.19,1.19,0,0,0,.62.38.79.79,0,0,0,.91-.88,1.28,1.28,0,0,0-.38-.62Z"/><path class="cls-3" d="M48.87,43.35A1.66,1.66,0,0,1,46,44.49a1.67,1.67,0,0,1,0-2.36,1.58,1.58,0,0,1,1.18-.47,1.69,1.69,0,0,1,1.18.5A1.6,1.6,0,0,1,48.87,43.35Zm-2.11-.49a.64.64,0,1,0,.9,0A.57.57,0,0,0,46.76,42.86Zm4.91,3.52-.75.74-2.76-6.87.76-.75Zm2.65-3.08a1.56,1.56,0,0,1-.49,1.17,1.67,1.67,0,0,1-2.37,0A1.59,1.59,0,0,1,51,43.25a1.57,1.57,0,0,1,.5-1.17,1.55,1.55,0,0,1,1.19-.47,1.57,1.57,0,0,1,1.17.5A1.59,1.59,0,0,1,54.32,43.3Zm-2.11-.49a.64.64,0,1,0,.9,0A.57.57,0,0,0,52.21,42.81Z"/><g class="cls-8"><path class="cls-3" d="M31.88,36.26V34.9l.57-.37c.2-.13.38-.26.54-.38a7.23,7.23,0,0,0,1-.89,5.77,5.77,0,0,0,.63-.8,1.84,1.84,0,0,0,.33-.94.58.58,0,0,0-.64-.67.67.67,0,0,0-.62.34,1.87,1.87,0,0,0-.17.73H31.85a5.09,5.09,0,0,1,.1-.82,2.29,2.29,0,0,1,.33-.75,2.13,2.13,0,0,1,.92-.78,2.92,2.92,0,0,1,2.45.06,1.92,1.92,0,0,1,.88.92,1.88,1.88,0,0,1,.17.79,2.73,2.73,0,0,1-.22,1,4.07,4.07,0,0,1-.55.92,6.64,6.64,0,0,1-.74.81l-.4.37a4,4,0,0,1-.4.34l2.32,0v1.47Z"/><path class="cls-3" d="M42.54,33.89a2.85,2.85,0,0,1-.35,1.4,2.29,2.29,0,0,1-1.07.94,2.66,2.66,0,0,1-1.13.24,2.73,2.73,0,0,1-1-.22,2.37,2.37,0,0,1-1.51-2.4l0-1.91A2.33,2.33,0,0,1,39,29.57a2.78,2.78,0,0,1,1-.2,2.75,2.75,0,0,1,1,.23A2.38,2.38,0,0,1,42.56,32Zm-1.73-2a1.41,1.41,0,0,0-.15-.71.71.71,0,0,0-.64-.31.7.7,0,0,0-.63.3,1.23,1.23,0,0,0-.18.7l0,2a1.19,1.19,0,0,0,.17.71.79.79,0,0,0,1.26,0,1.28,1.28,0,0,0,.17-.71Z"/><path class="cls-3" d="M46,32.27a1.58,1.58,0,0,1-1.18.47,1.6,1.6,0,0,1-1.17-.49,1.65,1.65,0,0,1-.48-1.19,1.63,1.63,0,0,1,.5-1.17,1.59,1.59,0,0,1,1.18-.48,1.66,1.66,0,0,1,1.65,1.68A1.63,1.63,0,0,1,46,32.27Zm-1.16-1.84a.57.57,0,0,0-.64.64.64.64,0,1,0,.64-.64Zm1,6-1.06,0,2.89-6.81h1.07Zm4-.32a1.55,1.55,0,0,1-1.18.48,1.59,1.59,0,0,1-1.18-.5,1.64,1.64,0,0,1-.48-1.19A1.66,1.66,0,0,1,50,33.72a1.55,1.55,0,0,1,.48,1.18A1.61,1.61,0,0,1,49.93,36.08Zm-1.16-1.84a.65.65,0,0,0,0,1.29.65.65,0,0,0,0-1.29Z"/></g><g class="cls-9"><path class="cls-3" d="M37.49,44.22a2.41,2.41,0,0,1-1.69,2.31,2.88,2.88,0,0,1-1.75.14,2.24,2.24,0,0,1-1.4-1L34.28,45a1,1,0,0,0,.91.11,1,1,0,0,0,.51-.49.9.9,0,0,0,0-.7.81.81,0,0,0-1.2-.49.92.92,0,0,0-.62.88l-1.44.19-.87-3.82,3.52-1.38.54,1.36-2.27.9.2.92a2,2,0,0,1,.79-.53,2.08,2.08,0,0,1,2.45.52,2.2,2.2,0,0,1,.51.78A2.28,2.28,0,0,1,37.49,44.22Z"/><path class="cls-3" d="M42.54,41.08a2.75,2.75,0,0,1,.19,1.42,2.29,2.29,0,0,1-.63,1.27,2.63,2.63,0,0,1-2,.83,2.36,2.36,0,0,1-2.3-1.66l-.7-1.77a2.35,2.35,0,0,1,.57-2.79,3,3,0,0,1,.88-.57,2.66,2.66,0,0,1,1.06-.17,2.36,2.36,0,0,1,2.24,1.67ZM40.2,39.9a1.35,1.35,0,0,0-.41-.6.81.81,0,0,0-1.18.47,1.35,1.35,0,0,0,.09.72l.73,1.86a1.3,1.3,0,0,0,.42.59.72.72,0,0,0,.7.06.71.71,0,0,0,.49-.52,1.41,1.41,0,0,0-.11-.72Z"/><path class="cls-3" d="M45.16,38.26a1.66,1.66,0,0,1-3.07-.06,1.56,1.56,0,0,1,0-1.27,1.66,1.66,0,0,1,3.07.06A1.56,1.56,0,0,1,45.16,38.26ZM43.41,37a.64.64,0,1,0,.82.36A.55.55,0,0,0,43.41,37Zm3.16,5.15-1,.39.13-7.4,1-.4Zm3.63-1.81A1.64,1.64,0,0,1,48,41.2a1.61,1.61,0,0,1-.89-.92,1.58,1.58,0,0,1,0-1.28,1.61,1.61,0,0,1,.92-.89,1.58,1.58,0,0,1,1.28,0,1.62,1.62,0,0,1,.88.92A1.59,1.59,0,0,1,50.2,40.34Zm-1.75-1.27a.64.64,0,1,0,.47,1.2.64.64,0,0,0-.47-1.2Z"/></g></g></svg>