<svg xmlns="http://www.w3.org/2000/svg" xmlns:xlink="http://www.w3.org/1999/xlink" viewBox="0 0 84 84"><defs><style>.cls-1{fill:url(#linear-gradient);}.cls-2{fill:#fff;}</style><linearGradient id="linear-gradient" x1="8.11" y1="5" x2="78.52" y2="81.87" gradientUnits="userSpaceOnUse"><stop offset="0" stop-color="#e2b0ff"/><stop offset="1" stop-color="#9f44d3"/></linearGradient></defs><title>icon2</title><g id="_3" data-name="3"><rect class="cls-1" width="84" height="84" rx="20" ry="20"/><path class="cls-2" d="M42,24a16.71,16.71,0,0,0-6.51,32.09l.31.13H48.21l.3-.13A16.71,16.71,0,0,0,42,24Zm5.54,29H36.46A13.46,13.46,0,0,1,42,27.25h.47a57.46,57.46,0,0,1,2.23,8,19,19,0,0,1,0,5.88,5.13,5.13,0,0,0-.61.54c-3.47,3.6-13.59,0-13.59,0a11.5,11.5,0,0,0,7,10.59h9a11.5,11.5,0,0,0,7-10.59s-4.29-2.62-7.7-1.14a21,21,0,0,0-.06-5.13,47.93,47.93,0,0,0-2.19-8.09,13.46,13.46,0,0,1,4,25.62Zm-7.6-34.44V16h-.86V15h6.36V22.1h1.43v1.46H37.13V22.1h1.95V18.52Zm-9.41.41a.15.15,0,0,1,0-.11.18.18,0,0,1,.09-.06l.55-.12a.14.14,0,0,1,.17.11l.06.28a.14.14,0,0,1,0,.11.15.15,0,0,1-.09.06l-.55.12a.15.15,0,0,1-.13,0,.1.1,0,0,1,0-.07Zm3.35-3.31a.14.14,0,0,1,0-.11l.09-.26a.13.13,0,0,1,.18-.09l.91.3a.18.18,0,0,1,.08.07.17.17,0,0,1,0,.12l-.09.26a.14.14,0,0,1-.19.09l-.9-.3-.06,0,0,0Zm-2.11,6.93a.2.2,0,0,1,0-.11.21.21,0,0,1,.06-.1l.44-.33a.15.15,0,0,1,.21,0l.17.22a.2.2,0,0,1,0,.11.21.21,0,0,1-.06.1l-.45.33a.14.14,0,0,1-.19,0s0,0,0,0Zm-1.1-8a.17.17,0,0,1,0-.15l.1-.27a.11.11,0,0,1,.07-.08.14.14,0,0,1,.11,0l.53.18a.14.14,0,0,1,.09.18l-.09.27a.14.14,0,0,1-.07.08.14.14,0,0,1-.11,0l-.53-.18-.06,0ZM35,18.4l-.93.2a.18.18,0,0,1-.14,0,.15.15,0,0,1,0-.07l-.06-.28a.15.15,0,0,1,0-.11A.15.15,0,0,1,34,18l.93-.2a.13.13,0,0,1,.17.11l.06.27a.15.15,0,0,1-.11.18Zm-3,.22a.14.14,0,0,1,0-.11.13.13,0,0,1,.09-.07l.93-.2a.13.13,0,0,1,.17.11l.06.28a.14.14,0,0,1-.11.17l-.93.2a.18.18,0,0,1-.14,0,.43.43,0,0,1,0-.07Zm.1-3.56a.14.14,0,0,1,0-.15l.08-.27a.15.15,0,0,1,.08-.08.14.14,0,0,1,.11,0l.9.3a.14.14,0,0,1,.09.19l-.08.27a.15.15,0,0,1-.19.08l-.9-.3-.06,0Zm3.58,1.17a.11.11,0,0,1,0-.11l.08-.27a.16.16,0,0,1,.19-.09l.9.31a.13.13,0,0,1,.09.18l-.09.26a.13.13,0,0,1-.07.09.2.2,0,0,1-.11,0l-.9-.31s0,0-.06,0l0,0Zm1.83.64a.15.15,0,0,1,0-.15l.09-.26a.16.16,0,0,1,.07-.09.14.14,0,0,1,.11,0l.53.17a.18.18,0,0,1,.09.08.14.14,0,0,1,0,.11l-.08.26a.16.16,0,0,1-.19.1l-.53-.18-.06,0ZM33,21.44l.76-.58a.16.16,0,0,1,.2,0l.17.22a.15.15,0,0,1,0,.21l-.76.57a.11.11,0,0,1-.11,0,.12.12,0,0,1-.08,0l0,0L33,21.64a.13.13,0,0,1,0-.2Zm5.41-4.21.06.27a.2.2,0,0,1,0,.11.17.17,0,0,1-.1.07l-.13,0,.16.21a.14.14,0,0,1,0,.2l-.44.34a.23.23,0,0,1-.11,0l-.08,0,0,0-.16-.22a.14.14,0,0,1,0-.21l.29-.21h0a.15.15,0,0,1-.13,0,.12.12,0,0,1,0-.08l-.06-.27a.14.14,0,0,1,0-.11.11.11,0,0,1,.09-.06l.54-.12a.15.15,0,0,1,.18.11Zm-1.5,1.32a.14.14,0,0,1,.1.05l.16.23a.14.14,0,0,1,0,.2l-.76.57a.14.14,0,0,1-.19,0h0L36,19.35a.2.2,0,0,1,0-.11.21.21,0,0,1,.06-.1l.76-.57a.14.14,0,0,1,.11,0Zm0-1,.06.27a.15.15,0,0,1-.11.18l-.93.2a.18.18,0,0,1-.14,0,.19.19,0,0,1,0-.08l-.06-.27a.14.14,0,0,1,0-.11.15.15,0,0,1,.09-.06l.93-.2a.13.13,0,0,1,.17.11Zm-2.41,2.74.76-.57a.2.2,0,0,1,.11,0,.15.15,0,0,1,.09.06l.17.22a.13.13,0,0,1,0,.2l-.76.58a.2.2,0,0,1-.11,0,.14.14,0,0,1-.08-.05,0,0,0,0,1,0,0l-.17-.23a.14.14,0,0,1,0-.2Zm0,0"/><path class="cls-2" d="M25.74,62.62a2.34,2.34,0,0,1,1.65.53A1.94,1.94,0,0,1,28,64.67a1.91,1.91,0,0,1-.59,1.49,2.34,2.34,0,0,1-1.65.54h-.91V69h-1V62.62Zm0,3.22c.85,0,1.28-.39,1.28-1.16s-.43-1.17-1.28-1.17h-.91v2.33Z"/><path class="cls-2" d="M28.76,62.62h4v.9h-3v1.71h2.33v.92H29.72V68.1h3.05V69h-4Z"/><path class="cls-2" d="M35.65,66.57h-1V69h-1V62.62h1.93a2.29,2.29,0,0,1,1.64.55,1.84,1.84,0,0,1,.59,1.46,1.64,1.64,0,0,1-1.26,1.75L38,69H36.88Zm.05-.79q1.2,0,1.2-1.11c0-.77-.42-1.16-1.25-1.16h-1v2.27Z"/><path class="cls-2" d="M39.82,63.52V65.4h2.33v.9H39.82V69h-1V62.62H42.8v.9Z"/><path class="cls-2" d="M48.31,66.53a2.75,2.75,0,0,1-.62,1.93,2.23,2.23,0,0,1-1.74.66,2.27,2.27,0,0,1-1.75-.66,2.74,2.74,0,0,1-.61-1.93V62.62h1v3.9c0,1.12.47,1.68,1.4,1.68s1.41-.56,1.41-1.68v-3.9h.94Z"/><path class="cls-2" d="M54,66.6c0-.54,0-1.1,0-1.68V64.2h0s-.18.43-.65,1.43l-.88,1.81h-.6L51,65.64a14.82,14.82,0,0,1-.66-1.44h0v.72c0,.58,0,1.14,0,1.68V69h-1V62.62h1.1l1.71,3.5h0l1.69-3.5H55V69H54Z"/><path class="cls-2" d="M56.12,62.62h4v.9h-3v1.71h2.32v.92H57.09V68.1h3V69h-4Z"/></g></svg>