<svg xmlns="http://www.w3.org/2000/svg" xmlns:xlink="http://www.w3.org/1999/xlink" viewBox="0 0 84 84"><defs><style>.cls-1{fill:url(#linear-gradient);}.cls-2{fill:#fff;}</style><linearGradient id="linear-gradient" x1="6.98" y1="6.01" x2="71.65" y2="72.47" gradientUnits="userSpaceOnUse"><stop offset="0" stop-color="#fdeb71"/><stop offset="1" stop-color="#f7bc00"/></linearGradient></defs><title>icon2</title><g id="_6" data-name="6"><rect class="cls-1" width="84" height="84" rx="20" ry="20"/><path class="cls-2" d="M35,46.26H33.2a.94.94,0,0,1,0-1.88H35a.91.91,0,0,1,.88.94.9.9,0,0,1-.88.94m-.87-3.78a2.85,2.85,0,1,0,2.64,2.84,2.74,2.74,0,0,0-2.64-2.84m34,14.77L63.87,31.1H59.5V32c0,26,7.06,33.65,7.68,34.28l.6.39a20,20,0,0,0,.56-4.24,23.77,23.77,0,0,0-.29-5.22M24.39,31.11H20.13L15.94,57.25a25.16,25.16,0,0,0-.28,5.24,20.07,20.07,0,0,0,.58,4.3l.6-.45s7.55-7.43,7.55-34.29Zm9.69,18.94a4.59,4.59,0,0,1-4.41-4.74,4.67,4.67,0,0,1,3.52-4.64V36.78h-.71a2,2,0,0,1-1.93-2.07V33h1.76v1.72a.17.17,0,0,0,.17.17h3.2a.16.16,0,0,0,.16-.17V31.1H33.61a23.83,23.83,0,0,1,1.55-4.49c1.85-3.93,4.45-5.93,7.73-5.93s5.88,2,7.72,5.93a24.82,24.82,0,0,1,1.55,4.49H37.59v3.61a2,2,0,0,1-1.92,2.07H35v3.89a4.66,4.66,0,0,1,3.52,4.64,4.57,4.57,0,0,1-4.39,4.74M57.65,33v-.25c0-.23,0-.46,0-.7l0-.94h0C56.43,24.77,52.2,15,42.88,15S29.32,24.77,28.17,31.11h-2v.94c0,27.91-7.9,35.47-8.24,35.77l-.84.66a1.56,1.56,0,0,0,1.15.52H65.76A1.53,1.53,0,0,0,67,68.41l-.91-.59c-.33-.3-8.25-7.7-8.42-34.82"/></g></svg>