<svg xmlns="http://www.w3.org/2000/svg" width="31" height="32" viewBox="0 0 31 32">
    <g fill="#A36900">
        <path d="M15.2 15.387c2.044 0 3.707-1.682 3.707-3.75s-1.663-3.75-3.707-3.75c-2.044 0-3.707 1.682-3.707 3.75s1.663 3.75 3.707 3.75zm0-5.625c1.022 0 1.854.841 1.854 1.875s-.832 1.875-1.854 1.875c-1.022 0-1.854-.84-1.854-1.875 0-1.034.832-1.875 1.854-1.875z"/>
        <path d="M26.993 21.563H20.79c2.896-2.797 5.532-5.538 5.532-10.313C26.322 4.817 21.546 0 15.2 0 8.841 0 4.078 4.831 4.078 11.25c0 4.775 2.636 7.516 5.532 10.313H3.407L.017 32h30.365l-3.389-10.438zM5.932 11.25c0-5.432 3.898-9.375 9.268-9.375 5.37 0 9.268 3.943 9.268 9.375 0 6.077-5.071 8.23-9.268 13.464-1.261-1.573-2.61-2.871-3.922-4.134-2.987-2.875-5.346-5.146-5.346-9.33zM3.328 27.813h6.682v-1.875H3.937l.812-2.5h6.744v-.043c2.462 2.47 3.128 3.708 3.707 4.446.594-.757 1.238-1.969 3.707-4.446v.043h6.744l.812 2.5H20.39v1.875h6.682l.75 2.312H2.578l.75-2.313z"/>
    </g>
</svg>
