<svg xmlns="http://www.w3.org/2000/svg" xmlns:xlink="http://www.w3.org/1999/xlink" width="40" height="40" viewBox="0 0 40 40">
    <defs>
        <path id="8f2wn7mava" d="M4 0h32c2.21 0 4 1.79 4 4v32c0 2.21-1.79 4-4 4H8c-4.418 0-8-3.582-8-8V4c0-2.21 1.79-4 4-4z"/>
    </defs>
    <g fill="none" fill-rule="evenodd">
        <mask id="zgaa39wzrb" fill="#fff">
            <use xlink:href="#8f2wn7mava"/>
        </mask>
        <g mask="url(#zgaa39wzrb)">
            <g fill-rule="nonzero">
                <path fill="#D7E9FF" d="M24 0.625L19 6.875 24 13.125 39.625 13.125 39.625 0.625z" transform="translate(-1 1)"/>
                <path fill="#94C1FF" d="M37.748 0.625L39.625 0.625 39.625 13.125 37.748 13.125z" transform="translate(-1 1)"/>
                <path fill="#5C9EFF" d="M27.125 27.5L37.125 27.5 37.125 39.375 27.125 39.375z" transform="translate(-1 1)"/>
                <path fill="#94C1FF" d="M0.625 27.5L27.125 27.5 27.125 39.375 0.625 39.375z" transform="translate(-1 1)"/>
                <g fill="#116FFF">
                    <path d="M27.125 28.125H.625c-.346 0-.625-.28-.625-.625 0-.346.28-.625.625-.625h26.5c.346 0 .625.28.625.625 0 .346-.28.625-.625.625z" transform="translate(-1 1)"/>
                    <path d="M27.125 40c-.346 0-.625-.28-.625-.625V27.5c0-.346.28-.625.625-.625.346 0 .625.28.625.625v11.875c0 .346-.28.625-.625.625zM37.125 40c-.346 0-.625-.28-.625-.625V27.5c0-.346.28-.625.625-.625.346 0 .625.28.625.625v11.875c0 .346-.28.625-.625.625z" transform="translate(-1 1)"/>
                    <path d="M37.125 28.125h-10c-.346 0-.625-.28-.625-.625 0-.346.28-.625.625-.625h10c.346 0 .625.28.625.625 0 .346-.28.625-.625.625z" transform="translate(-1 1)"/>
                    <path d="M32.125 40c-.346 0-.625-.28-.625-.625V27.5c0-.346.28-.625.625-.625.346 0 .625.28.625.625v11.875c0 .346-.28.625-.625.625zM5.875 32.5c-.346 0-.625-.28-.625-.625V22.5c0-.346.28-.625.625-.625.346 0 .625.28.625.625v9.375c0 .346-.28.625-.625.625zM19.625 32.5c-.346 0-.625-.28-.625-.625V22.5c0-.346.28-.625.625-.625.346 0 .625.28.625.625v9.375c0 .346-.28.625-.625.625z" transform="translate(-1 1)"/>
                    <path d="M19.625 23.125c-.346 0-.625-.28-.625-.625 0-3.446-2.804-6.25-6.25-6.25S6.5 19.054 6.5 22.5c0 .346-.28.625-.625.625-.346 0-.625-.28-.625-.625 0-4.136 3.364-7.5 7.5-7.5s7.5 3.364 7.5 7.5c0 .346-.28.625-.625.625z" transform="translate(-1 1)"/>
                    <path d="M14.625 28.125c-.346 0-.625-.28-.625-.625v-5c0-.346.28-.625.625-.625.346 0 .625.28.625.625v5c0 .346-.28.625-.625.625zM28.375 28.125c-.346 0-.625-.28-.625-.625v-5c0-.346.28-.625.625-.625.346 0 .625.28.625.625v5c0 .346-.28.625-.625.625z" transform="translate(-1 1)"/>
                    <path d="M28.375 23.125c-.346 0-.625-.28-.625-.625 0-3.446-2.804-6.25-6.25-6.25s-6.25 2.804-6.25 6.25c0 .346-.28.625-.625.625-.346 0-.625-.28-.625-.625 0-4.136 3.364-7.5 7.5-7.5s7.5 3.364 7.5 7.5c0 .346-.28.625-.625.625zM39.625 13.75H24c-.19 0-.37-.086-.488-.234l-5-6.251c-.183-.228-.183-.553 0-.781l5-6.25C23.631.086 23.81 0 24 0h15.625c.346 0 .625.28.625.625v12.5c0 .346-.28.625-.625.625zM24.3 12.5H39V1.25H24.3l-4.5 5.624 4.5 5.626z" transform="translate(-1 1)"/>
                    <path d="M19.5 16.5c-.346 0-.625-.28-.625-.625V6.5c0-.346.28-.625.625-.625.346 0 .625.28.625.625v9.375c0 .346-.28.625-.625.625zM28.688 6.25c-.862 0-1.563-.7-1.563-1.563 0-.861.7-1.562 1.563-1.562.861 0 1.562.7 1.562 1.563 0 .861-.7 1.562-1.563 1.562zm0-1.875c-.172 0-.313.14-.313.313 0 .171.14.312.313.312.171 0 .312-.14.312-.313 0-.171-.14-.312-.313-.312zM33.063 10.625c-.862 0-1.563-.7-1.563-1.563 0-.861.7-1.562 1.563-1.562.861 0 1.562.7 1.562 1.563 0 .861-.7 1.562-1.563 1.562zm0-1.875c-.172 0-.313.14-.313.313 0 .171.14.312.313.312.171 0 .312-.14.312-.313 0-.171-.14-.312-.313-.312zM27.75 10.625c-.16 0-.32-.061-.442-.183-.244-.245-.244-.64 0-.884l6.25-6.25c.245-.244.64-.244.884 0 .244.245.244.64 0 .884l-6.25 6.25c-.122.122-.282.183-.442.183z" transform="translate(-1 1)"/>
                </g>
            </g>
        </g>
    </g>
</svg>
