<svg height="512pt" viewBox="0 -10 512.001 512" width="512pt" xmlns="http://www.w3.org/2000/svg"><path d="m489.398438 457.648438h-466.796876c-12.484374 0-22.601562-10.117188-22.601562-22.601563v-376.726563c0-12.480468 10.117188-22.601562 22.601562-22.601562h466.796876c12.484374 0 22.601562 10.121094 22.601562 22.601562v376.726563c0 12.484375-10.121094 22.601563-22.601562 22.601563zm0 0" fill="#293135"/><path d="m158.964844 492.25h-93.558594c-12.480469 0-22.601562-10.117188-22.601562-22.601562v-447.046876c0-12.480468 10.121093-22.601562 22.601562-22.601562h93.558594c12.484375 0 22.601562 10.121094 22.601562 22.601562v447.046876c0 12.484374-10.117187 22.601562-22.601562 22.601562zm0 0" fill="#4a5359"/><path d="m87.453125 469.648438v-447.046876c0-12.480468 10.121094-22.601562 22.605469-22.601562h-44.652344c-12.480469 0-22.601562 10.121094-22.601562 22.601562v447.046876c0 12.480468 10.121093 22.601562 22.601562 22.601562h44.652344c-12.484375 0-22.605469-10.117188-22.605469-22.601562zm0 0" fill="#363f44"/><path d="m454.101562 159.621094h-215.257812c-7.316406 0-13.25-5.933594-13.25-13.25v-52.753906c0-7.316407 5.933594-13.25 13.25-13.25h215.257812c7.316407 0 13.25 5.933593 13.25 13.25v52.753906c0 7.316406-5.933593 13.25-13.25 13.25zm0 0" fill="#f2f3f3"/><path d="m270.242188 146.371094v-52.753906c0-7.316407 5.933593-13.25 13.25-13.25h-44.648438c-7.316406 0-13.25 5.933593-13.25 13.25v52.753906c0 7.316406 5.933594 13.25 13.25 13.25h44.648438c-7.316407 0-13.25-5.933594-13.25-13.25zm0 0" fill="#e8e9ea"/><g fill="#ffce71"><path d="m268.414062 237.753906h-23.84375c-10.480468 0-18.976562-8.496094-18.976562-18.976562 0-10.480469 8.496094-18.976563 18.976562-18.976563h23.84375c10.476563 0 18.972657 8.496094 18.972657 18.976563 0 10.480468-8.496094 18.976562-18.972657 18.976562zm0 0"/><path d="m358.394531 237.753906h-23.84375c-10.476562 0-18.972656-8.496094-18.972656-18.976562 0-10.480469 8.496094-18.976563 18.972656-18.976563h23.84375c10.480469 0 18.976563 8.496094 18.976563 18.976563 0 10.480468-8.496094 18.976562-18.976563 18.976562zm0 0"/><path d="m448.375 237.753906h-23.839844c-10.480468 0-18.976562-8.496094-18.976562-18.976562 0-10.480469 8.496094-18.976563 18.976562-18.976563h23.839844c10.480469 0 18.976562 8.496094 18.976562 18.976563 0 10.480468-8.496093 18.976562-18.976562 18.976562zm0 0"/><path d="m268.414062 303.609375h-23.84375c-10.480468 0-18.976562-8.496094-18.976562-18.972656 0-10.480469 8.496094-18.976563 18.976562-18.976563h23.84375c10.476563 0 18.972657 8.496094 18.972657 18.976563 0 10.476562-8.496094 18.972656-18.972657 18.972656zm0 0"/><path d="m358.394531 303.609375h-23.84375c-10.476562 0-18.972656-8.496094-18.972656-18.972656 0-10.480469 8.496094-18.976563 18.972656-18.976563h23.84375c10.480469 0 18.976563 8.496094 18.976563 18.976563 0 10.476562-8.496094 18.972656-18.976563 18.972656zm0 0"/><path d="m448.375 303.609375h-23.839844c-10.480468 0-18.976562-8.496094-18.976562-18.972656 0-10.480469 8.496094-18.976563 18.976562-18.976563h23.839844c10.480469 0 18.976562 8.496094 18.976562 18.976563 0 10.476562-8.496093 18.972656-18.976562 18.972656zm0 0"/></g><path d="m268.414062 369.46875h-23.84375c-10.480468 0-18.976562-8.496094-18.976562-18.976562 0-10.480469 8.496094-18.976563 18.976562-18.976563h23.84375c10.476563 0 18.972657 8.496094 18.972657 18.976563 0 10.480468-8.496094 18.976562-18.972657 18.976562zm0 0" fill="#8bd4bc"/><path d="m358.394531 369.46875h-23.84375c-10.476562 0-18.972656-8.496094-18.972656-18.976562 0-10.480469 8.496094-18.976563 18.972656-18.976563h23.84375c10.480469 0 18.976563 8.496094 18.976563 18.976563 0 10.480468-8.496094 18.976562-18.976563 18.976562zm0 0" fill="#ffce71"/><path d="m448.375 369.46875h-23.839844c-10.480468 0-18.976562-8.496094-18.976562-18.976562 0-10.480469 8.496094-18.976563 18.976562-18.976563h23.839844c10.480469 0 18.976562 8.496094 18.976562 18.976563 0 10.480468-8.496093 18.976562-18.976562 18.976562zm0 0" fill="#f27f6f"/><path d="m242.078125 218.777344c0-10.476563 8.496094-18.972656 18.976563-18.972656h-16.484376c-10.480468 0-18.976562 8.496093-18.976562 18.972656 0 10.480468 8.496094 18.976562 18.976562 18.976562h16.484376c-10.480469 0-18.976563-8.496094-18.976563-18.976562zm0 0" fill="#e5b965"/><path d="m332.058594 218.777344c0-10.476563 8.496094-18.972656 18.976562-18.972656h-16.484375c-10.476562 0-18.972656 8.496093-18.972656 18.972656 0 10.480468 8.496094 18.976562 18.972656 18.976562h16.484375c-10.480468 0-18.976562-8.496094-18.976562-18.976562zm0 0" fill="#e5b965"/><path d="m422.042969 218.777344c0-10.476563 8.496093-18.972656 18.972656-18.972656h-16.480469c-10.480468 0-18.976562 8.496093-18.976562 18.972656 0 10.480468 8.496094 18.976562 18.976562 18.976562h16.480469c-10.480469 0-18.972656-8.496094-18.972656-18.976562zm0 0" fill="#e5b965"/><path d="m242.078125 284.636719c0-10.480469 8.496094-18.976563 18.976563-18.976563h-16.484376c-10.480468 0-18.976562 8.496094-18.976562 18.976563 0 10.476562 8.496094 18.972656 18.976562 18.972656h16.484376c-10.480469 0-18.976563-8.496094-18.976563-18.972656zm0 0" fill="#e5b965"/><path d="m332.058594 284.636719c0-10.480469 8.496094-18.976563 18.976562-18.976563h-16.484375c-10.476562 0-18.972656 8.496094-18.972656 18.976563 0 10.476562 8.496094 18.972656 18.972656 18.972656h16.484375c-10.480468 0-18.976562-8.496094-18.976562-18.972656zm0 0" fill="#e5b965"/><path d="m422.042969 284.636719c0-10.480469 8.496093-18.976563 18.972656-18.976563h-16.480469c-10.480468 0-18.976562 8.496094-18.976562 18.976563 0 10.476562 8.496094 18.972656 18.976562 18.972656h16.480469c-10.480469 0-18.972656-8.496094-18.972656-18.972656zm0 0" fill="#e5b965"/><path d="m242.078125 350.492188c0-10.480469 8.496094-18.976563 18.976563-18.976563h-16.484376c-10.480468 0-18.976562 8.496094-18.976562 18.976563 0 10.480468 8.496094 18.976562 18.976562 18.976562h16.484376c-10.480469 0-18.976563-8.496094-18.976563-18.976562zm0 0" fill="#70ab98"/><path d="m332.058594 350.492188c0-10.480469 8.496094-18.976563 18.976562-18.976563h-16.484375c-10.476562 0-18.972656 8.496094-18.972656 18.976563 0 10.480468 8.496094 18.976562 18.972656 18.976562h16.484375c-10.480468 0-18.976562-8.496094-18.976562-18.976562zm0 0" fill="#e5b965"/><path d="m422.042969 350.492188c0-10.480469 8.496093-18.976563 18.972656-18.976563h-16.480469c-10.480468 0-18.976562 8.496094-18.976562 18.976563 0 10.480468 8.496094 18.976562 18.976562 18.976562h16.480469c-10.480469 0-18.972656-8.496094-18.972656-18.976562zm0 0" fill="#df7566"/><path d="m467.351562 420.5h-241.757812c-4.140625 0-7.5-3.355469-7.5-7.5s3.359375-7.5 7.5-7.5h241.753906c4.144532 0 7.5 3.355469 7.5 7.5s-3.355468 7.5-7.496094 7.5zm0 0" fill="#4a5359"/></svg>