<svg xmlns="http://www.w3.org/2000/svg" viewBox="0 0 18.241 32">
  <defs>
    <style>
      .cls-1 {
        fill: #ff6f00;
      }
    </style>
  </defs>
  <g id="Group_333" data-name="Group 333" transform="translate(0.075)">
    <path id="Path_1255" data-name="Path 1255" class="cls-1" d="M.5,32a.367.367,0,0,1-.3-.1.481.481,0,0,1-.2-.6L6,17.1H.5a.55.55,0,0,1-.5-.3.446.446,0,0,1,0-.5L8,.3A.55.55,0,0,1,8.5,0H17a.55.55,0,0,1,.5.3.446.446,0,0,1,0,.5l-6.2,9.8h6.3a.55.55,0,0,1,.5.3.471.471,0,0,1-.1.6L.9,31.8a.52.52,0,0,1-.4.2"/>
  </g>
</svg>
