<svg xmlns="http://www.w3.org/2000/svg" width="61" height="60" fill="none" viewBox="0 0 61 60">
    <path fill="#0080FF" d="M33.126 10.845V1.212C33.126.539 32.578 0 31.894 0c-.685 0-1.232.539-1.232 1.212v9.645c0 .673.547 1.212 1.232 1.212.684-.013 1.232-.551 1.232-1.224zM22.623 14.774c.311 0 .635-.123.871-.355a1.19 1.19 0 0 0 0-1.714l-6.931-6.818a1.239 1.239 0 0 0-1.742 0 1.19 1.19 0 0 0 0 1.714l6.931 6.817c.236.233.56.356.871.356zM52.264 21.665h-9.806c-.684 0-1.231.538-1.231 1.211s.547 1.212 1.232 1.212h9.805c.685 0 1.232-.539 1.232-1.212 0-.673-.547-1.211-1.232-1.211zM10.279 22.876c0 .673.547 1.212 1.232 1.212h9.805c.685 0 1.232-.539 1.232-1.212 0-.673-.547-1.211-1.232-1.211h-9.805c-.672 0-1.232.55-1.232 1.211zM40.99 15.116L47.921 8.3a1.19 1.19 0 0 0 0-1.714 1.239 1.239 0 0 0-1.742 0l-6.931 6.818a1.19 1.19 0 0 0 0 1.713c.236.233.56.355.871.355.311 0 .635-.122.871-.355z"/>
    <path fill="#2C2F33" d="M7.504 35.924v20.992c0 1.321 1.095 2.386 2.426 2.386h7.255c.834 0 1.556-.404 2.004-1.028A6.485 6.485 0 0 0 23.594 60H43.03c4.355 0 7.13-2.252 7.628-6.169l2.613-16.353c.013-.06.013-.122.013-.183 0-3.488-2.887-6.328-6.434-6.328h-9.718V24.1c0-2.974-.884-5.116-2.639-6.389-2.774-1.995-6.57-.857-6.732-.808a1.21 1.21 0 0 0-.858 1.15v7.81c0 6.083-7.193 8.164-7.491 8.25-.15.036-.3.11-.411.208a2.445 2.445 0 0 0-1.804-.796H9.93c-1.344 0-2.426 1.077-2.426 2.4zm12.12.563c.15.012.299 0 .448-.037.386-.11 9.296-2.643 9.296-10.575v-6.842c.958-.147 2.538-.196 3.67.636 1.083.784 1.63 2.277 1.63 4.42v8.077c0 .674.548 1.212 1.233 1.212h10.95c2.166 0 3.92 1.702 3.97 3.819l-2.6 16.267v.037c-.337 2.692-2.079 4.051-5.19 4.051H23.594c-2.19 0-3.97-1.75-3.97-3.905v-17.16zm-9.656-.538h7.192v20.93H9.968v-20.93z"/>
</svg>
