<svg xmlns="http://www.w3.org/2000/svg" width="61" height="61" fill="none" viewBox="0 0 61 61">
    <path fill="#2C2F33" d="M10.25 0C5.988 0 2.52 3.468 2.52 7.729c0 4.26 3.469 7.728 7.73 7.728 4.26 0 7.728-3.468 7.728-7.728C17.978 3.468 14.51 0 10.249 0zm0 13.018A5.28 5.28 0 0 1 4.972 7.74a5.28 5.28 0 0 1 5.276-5.276 5.28 5.28 0 0 1 5.277 5.276 5.28 5.28 0 0 1-5.277 5.277z"/>
    <path fill="#0080FF" d="M10.25 22.778c-4.261 0-7.73 3.468-7.73 7.728 0 4.261 3.469 7.73 7.73 7.73 4.26 0 7.728-3.469 7.728-7.73 0-4.26-3.468-7.728-7.729-7.728zm0 13.005a5.28 5.28 0 0 1-5.277-5.277 5.28 5.28 0 0 1 5.276-5.276 5.28 5.28 0 0 1 5.277 5.276 5.28 5.28 0 0 1-5.277 5.277z"/>
    <path fill="#2C2F33" d="M10.25 45.542c-4.261 0-7.73 3.468-7.73 7.73C2.52 57.531 5.99 61 10.25 61c4.26 0 7.728-3.468 7.728-7.729 0-4.26-3.468-7.729-7.729-7.729zm0 13.018a5.28 5.28 0 0 1-5.277-5.276 5.28 5.28 0 0 1 5.276-5.277 5.28 5.28 0 0 1 5.277 5.277c0 2.898-2.366 5.276-5.277 5.276zM58.48 7.32c0-.681-.545-1.226-1.227-1.226H26.29c-.681 0-1.226.545-1.226 1.226 0 .681.545 1.226 1.226 1.226h30.964c.681 0 1.227-.545 1.227-1.226z"/>
    <path fill="#0080FF" d="M25.868 29.28c-.681 0-1.226.545-1.226 1.226 0 .681.544 1.226 1.226 1.226h30.964c.681 0 1.226-.545 1.226-1.226 0-.681-.545-1.226-1.226-1.226H25.868z"/>
    <path fill="#2C2F33" d="M58.058 53.271c0-.68-.545-1.226-1.226-1.226H25.868c-.681 0-1.226.545-1.226 1.226 0 .682.544 1.227 1.226 1.227h30.964c.681 0 1.226-.545 1.226-1.227z"/>
</svg>
