<svg id="Layer_1" xmlns="http://www.w3.org/2000/svg" xmlns:xlink="http://www.w3.org/1999/xlink" viewBox="0 0 32 32"><style>.st0{fill:#0180c7}</style><path class="st0" d="M-474 870.3c-27.3 0-54.7.9-82-.1-32.3-1.3-57-28.4-57-60.7 0-104.3.2-208.7 0-313-.1-35.7 27.8-60.7 59.9-61.5 33.6-.9 67.3-.2 101-.2.6 0 1.4-.3 1.7.7-.2 1.8-2 2-3.2 2.6-19.8 11.6-37.9 25.5-53.1 42.7-25.1 28.4-42.5 61.1-48.4 98.9-10.4 66.9 10.5 123.7 57.8 171.1 8.4 8.4 9.5 15.1 2.7 26.5-8.1 13.7-20.4 23-33.5 31.5-1.4.9-2.9 1.7-4.1 2.8-2.1 1.8-.8 2.7 1 3.5.5.8.8 1.9 1.5 2.5 11.5 10.2 22.4 21.1 33.7 31.5 5.4 4.9 10.6 10 15.7 15.1 2.2 2 5.7 2.6 6.3 6.1z"/><path d="M-474 870.3c-.5-3.5-4-4.1-6.1-6.2-5.1-5.2-10.4-10.2-15.7-15.1-11.3-10.4-22.2-21.3-33.7-31.5-.7-.6-1-1.7-1.5-2.5 25.5 5 50.4 1.6 74.9-5.9 8.3-2.5 16.6-5 25-7.1 5.7-1.5 11.4-1.3 17.2.7 63.4 21.8 126 19.9 187.6-7.2 25.3-11.1 47.8-26.6 67.4-46.2 1-1 1.7-2.5 3.4-2.6.9 1.4.4 2.9.4 4.4v58.5c0 33.8-26.6 60.7-60.5 60.9-36 .2-72 .1-108 .1h-144.5c-1.9-.1-3.9-.2-5.9-.3z" fill="#0172b1"/><defs><circle id="SVGID_1_" cx="16" cy="16" r="16"/></defs><clipPath id="SVGID_2_"><use xlink:href="#SVGID_1_" overflow="visible"/></clipPath><g clip-path="url(#SVGID_2_)"><defs><circle id="SVGID_3_" cx="16" cy="16" r="18"/></defs><clipPath id="SVGID_4_"><use xlink:href="#SVGID_3_" overflow="visible"/></clipPath><g clip-path="url(#SVGID_4_)"><circle class="st0" cx="16" cy="16" r="18"/><path d="M13-1.7c-1.4.8-2.7 1.8-3.7 3-1.8 2-3 4.3-3.4 7-.8 4.7.6 8.7 4 12 .6.6.7 1.1.2 1.9-.6 1-1.4 1.6-2.4 2.2-.1.1-.2.1-.3.2-.2.1-.1.2.1.2 1.8.4 3.6.1 5.3-.4.6-.2 1.2-.4 1.8-.5.4-.1.8-.1 1.2.1 4.5 1.5 8.9 1.4 13.2-.5 1.7-.7 3.2-1.8 4.5-3 .3-1.4.5-2.8.5-4.2C34 6.1 25.9-2 15.8-2c-.9 0-1.9.1-2.8.3 0-.1 0-.1 0 0z" fill="#fff"/><path class="st0" d="M11.3 15.1h3.1c.6 0 .9.2.9.7.1.6-.3 1-.9 1H9.9c-.4 0-.8-.1-1-.5-.2-.4-.1-.8.2-1.2 1.1-1.4 2.2-2.8 3.4-4.3.1-.1.1-.2.2-.3-.1-.1-.2-.1-.3-.1h-2.3c-.2 0-.4 0-.5-.1-.4 0-.7-.3-.7-.7 0-.3.2-.6.6-.7.2 0 .4-.1.5-.1h3.9c.2 0 .5 0 .7.1.5.2.7.6.5 1.1-.2.4-.4.8-.7 1.1-.9 1.2-1.9 2.4-2.8 3.6-.1.1-.2.2-.3.4z"/><path class="st0" d="M19.7 11.3c.2-.2.4-.4.6-.5.6-.1 1.1.3 1.1.8v4.3c0 .4-.2.7-.6.8-.4.1-.8 0-1-.3-.1-.2-.2-.2-.3 0-.7.5-1.4.6-2.2.4-1.3-.4-1.8-1.4-2-2.6-.2-1.3.3-2.5 1.5-3.1 1-.7 2-.6 2.9.2zm-2.6 2.6c0 .2.1.6.3.9.5.6 1.4.6 1.9 0 .4-.5.4-1.5 0-2-.2-.3-.5-.4-.9-.5-.8 0-1.3.6-1.3 1.6zm7.6.1c-.1-1.9 1.2-3.2 2.9-3.3 1.8-.1 3.2 1.2 3.2 3 .1 1.8-1.1 3.1-2.8 3.3-1.9.1-3.4-1.2-3.3-3zm1.8-.2c0 .4.1.7.3 1 .5.6 1.4.6 1.9 0 .4-.5.4-1.5 0-2-.2-.3-.5-.4-.9-.5-.8 0-1.3.6-1.3 1.5zM24 12.5v3.4c0 .6-.6 1.1-1.2.9-.4-.1-.6-.5-.6-.9V9.2c0-.6.4-.9.9-.9s.9.4.9.9v3.3z"/></g></g></svg>