<svg xmlns="http://www.w3.org/2000/svg" viewBox="0 0 40 40"><defs><style>.cls-3{fill:#2be0c6}.cls-4{fill:#fff}.cls-7{fill:#e6e6e6}.cls-8{fill:#6fead8}.cls-11{fill:#eee}.cls-13{fill:#bdbdbd}.cls-16{clip-path:url(#clip-path)}.cls-17{fill:#fc7a51}</style><clipPath id="clip-path"><path id="Rectangle_189" data-name="Rectangle 189" d="M0 0h32v30.3H0z"/></clipPath></defs><g id="Group_167" data-name="Group 167" transform="translate(-719 -1223)"><circle id="Ellipse_35" data-name="Ellipse 35" cx="20" cy="20" r="20" transform="translate(719 1223)" fill="#f2f2f2"/><g id="Group_59" data-name="Group 59" transform="translate(723 1228)"><path id="Rectangle_180" data-name="Rectangle 180" transform="translate(12.5 26.1)" fill="#2dc9af" d="M0 0h6.9v3.2H0z"/><path id="Path_78" data-name="Path 78" class="cls-3" d="M30.5 5.5v19.7a1.367 1.367 0 0 1-1.4 1.4H2.9a1.367 1.367 0 0 1-1.4-1.4V5.5h29"/><path id="Rectangle_181" data-name="Rectangle 181" class="cls-4" transform="translate(3.5 7.5)" d="M0 0h25v17.2H0z"/><path id="Path_79" data-name="Path 79" class="cls-3" d="M24.7 30.2H7.3a1.777 1.777 0 0 1 .4-1 1.284 1.284 0 0 1 1-.4h14.5a1.453 1.453 0 0 1 1.5 1.4"/><path id="Path_80" data-name="Path 80" d="M16.9 16.8a3.774 3.774 0 0 0-3.4-2.1h-2.1a2.223 2.223 0 0 0-.8-1.3.365.365 0 0 1-.2-.5c0-.3.3-.5.6-.6a.551.551 0 0 1 .5.2.758.758 0 0 1 .2.4h1.1a1.656 1.656 0 0 0-.5-1.2 1.9 1.9 0 0 0-1.3-.5 1.721 1.721 0 0 0-1.6 1.6 1.8 1.8 0 0 0 .7 1.5c.1.1.3.2.3.4H8.2a3.667 3.667 0 0 0-3.4 2.1 1.6 1.6 0 0 0 .1 1.5 1.457 1.457 0 0 0 1.3.7h9.3a1.709 1.709 0 0 0 1.3-.7 1.583 1.583 0 0 0 .1-1.5m-1 1c0 .1-.2.2-.4.2H6.2a.52.52 0 0 1-.4-.2c0-.1-.1-.2 0-.4a2.789 2.789 0 0 1 2.4-1.5h5.2a2.672 2.672 0 0 1 2.4 1.5c.2.1.1.3.1.4" fill="#999"/><path id="Rectangle_182" data-name="Rectangle 182" transform="translate(7 17.4)" fill="#f9de58" d="M0 0h7.7v6H0z"/><path id="Rectangle_183" data-name="Rectangle 183" class="cls-7" transform="translate(18.9 19.5)" d="M0 0h8v2.1H0z"/><path id="Rectangle_184" data-name="Rectangle 184" class="cls-7" transform="translate(18.9 16.5)" d="M0 0h8v2.1H0z"/><path id="Rectangle_185" data-name="Rectangle 185" class="cls-7" transform="translate(18.9 13.6)" d="M0 0h8v2.1H0z"/><path id="Path_81" data-name="Path 81" class="cls-8" d="M28.5 12.8v11.8H16.7l.6 2h11.8a1.367 1.367 0 0 0 1.4-1.4V12.8a3.4 3.4 0 0 1-1 .1 1.729 1.729 0 0 1-1-.1"/><path id="Path_82" data-name="Path 82" class="cls-4" d="M14 15.9l.5 1.6h.2v.5h.8a.52.52 0 0 0 .4-.2c0-.1.1-.2 0-.4a2.389 2.389 0 0 0-1.9-1.5m4.9 5.7v-2.1h8v2.1h-8m0-2.9v-2.1h8v2.1h-8m0-3v-2.1h8v2.1h-8m7.9-3.7a4.145 4.145 0 0 1-5.4 0 4.145 4.145 0 0 1-5.4 0 3.942 3.942 0 0 1-2.7 1h-.2l.5 1.7a4.156 4.156 0 0 1 3.3 2.1 1.6 1.6 0 0 1-.1 1.5 1.457 1.457 0 0 1-1.3.7h-.6l1.7 5.6h11.8V12.8a4.013 4.013 0 0 1-1.6-.8"/><path id="Path_83" data-name="Path 83" d="M13.6 14.7l.3 1.1a2.648 2.648 0 0 1 1.9 1.5.483.483 0 0 1 0 .4c0 .1-.2.2-.4.2h-.8v.2l.3.9h.6a1.709 1.709 0 0 0 1.3-.7 1.6 1.6 0 0 0 .1-1.5 4.011 4.011 0 0 0-3.3-2.1" fill="#bababa"/><path id="Path_84" data-name="Path 84" d="M14.7 17.4h-.3l.3.8v-.8" fill="#fbe98e"/><path id="Rectangle_186" data-name="Rectangle 186" class="cls-11" transform="translate(18.9 19.5)" d="M0 0h8v2.1H0z"/><path id="Rectangle_187" data-name="Rectangle 187" class="cls-11" transform="translate(18.9 16.5)" d="M0 0h8v2.1H0z"/><path id="Rectangle_188" data-name="Rectangle 188" class="cls-11" transform="translate(18.9 13.6)" d="M0 0h8v2.1H0z"/><path id="Path_85" data-name="Path 85" class="cls-8" d="M23.3 28.8h-7.4l.4 1.4h8.3a1.288 1.288 0 0 0-1.3-1.4"/><path id="Path_86" data-name="Path 86" d="M10.8 5.5H1.5v7.4a3.4 3.4 0 0 0 1 .1 3.4 3.4 0 0 0 1-.1V7.5h7.9l-.6-2" fill="#2ea897"/><path id="Path_87" data-name="Path 87" class="cls-13" d="M11.4 7.5H3.5v5.4a5.559 5.559 0 0 0 1.7-.9 3.942 3.942 0 0 0 2.7 1 5.019 5.019 0 0 0 1.2-.2 1.708 1.708 0 0 1 1.6-1.5h.1a2.078 2.078 0 0 1 1.2.5 1.656 1.656 0 0 1 .5 1.2 4.331 4.331 0 0 1 .5.1l-1.6-5.6"/><path id="Path_88" data-name="Path 88" d="M10.8 11.2h-.1a1.806 1.806 0 0 0-1.6 1.5 5.483 5.483 0 0 0 1.5-.8 3.717 3.717 0 0 0 1.9.9 1.656 1.656 0 0 0-.5-1.2 2.144 2.144 0 0 0-1.2-.4" fill="#787878"/><path id="Path_89" data-name="Path 89" d="M30.5 5.5H10.8l.6 2h17.1v5.4a3.4 3.4 0 0 0 1 .1 3.4 3.4 0 0 0 1-.1V5.5" fill="#5cafa3"/><g id="Group_55" data-name="Group 55"><g id="Group_53" data-name="Group 53" class="cls-16"><path id="Path_90" data-name="Path 90" class="cls-13" d="M28.5 7.5H11.4l1.7 5.5h.2a3.942 3.942 0 0 0 2.7-1 4.145 4.145 0 0 0 5.4 0 4.145 4.145 0 0 0 5.4 0 5.559 5.559 0 0 0 1.7.9V7.5"/></g><g id="Group_54" data-name="Group 54" class="cls-16"><path id="Path_91" data-name="Path 91" class="cls-7" d="M32 8.7l-.7-4.1-.5-2.9A2.019 2.019 0 0 0 28.9.1H3.3a1.858 1.858 0 0 0-1.9 1.6L.8 4.6 0 8.7a1.709 1.709 0 0 0 1.1 2 3.913 3.913 0 0 0 4-.8 4 4 0 0 0 5.4 0 4 4 0 0 0 5.4 0 4 4 0 0 0 5.4 0 4 4 0 0 0 5.4 0 3.955 3.955 0 0 0 4 .8 1.846 1.846 0 0 0 1.3-2zm0 0"/></g></g><path id="Path_92" data-name="Path 92" class="cls-17" d="M26.8 9.9a4 4 0 0 1-5.4 0l-.3-5.3-.3-4.6h4.8l.6 4.6zm0 0"/><g id="Group_58" data-name="Group 58"><g id="Group_56" data-name="Group 56" class="cls-16"><path id="Path_93" data-name="Path 93" class="cls-17" d="M16 .1v9.8a4 4 0 0 1-5.4 0l.3-5.3.3-4.6H16zm0 0"/></g><g id="Group_57" data-name="Group 57" class="cls-16"><path id="Path_94" data-name="Path 94" class="cls-17" d="M6.4.1l-.5 4.5-.7 5.3a3.955 3.955 0 0 1-4 .8 1.709 1.709 0 0 1-1.1-2l.7-4.1.5-2.9A2.019 2.019 0 0 1 3.2.1h3.2zm0 0"/></g></g><path id="Rectangle_193" data-name="Rectangle 193" transform="translate(7 17.4)" fill="#e0bf20" d="M0 0h7.7v1.1H0z"/></g></g></svg>