<svg id="Layer_1" data-name="Layer 1" xmlns="http://www.w3.org/2000/svg" viewBox="0 0 460.09 436.54"><defs><style>.cls-1{fill:#fdfefe;}.cls-2{fill:#0180c7;}.cls-3{fill:#0172b1;}.cls-4{fill:none;stroke:#0180c7;stroke-miterlimit:10;stroke-width:2px;}</style></defs><title>Artboard 1</title><path class="cls-1" d="M82.59,380.9c-1.76-.76-3.11-1.7-1-3.46a45.49,45.49,0,0,1,4.14-2.8c13.06-8.47,25.35-17.81,33.45-31.49,6.78-11.43,5.69-18.1-2.74-26.54C69.1,269.19,48.22,212.46,58.64,145.51,64.53,107.68,81.86,75,107,46.63,122.17,29.48,140.28,15.56,160.08,4c1.17-.69,2.95-.87,3.16-2.65-.39-1-1.16-.68-1.75-.68C127.83.61,94.15,0,60.5.83,28.39,1.65.52,26.56.59,62.31c.22,104.32,0,208.65,0,313,0,32.35,24.69,59.47,57,60.73,27.29,1.06,54.65.17,82,.14,2,.06,4,.18,6,.18H290c36,0,72,.14,108-.05a60.45,60.45,0,0,0,60.47-60.89q0-29.25,0-58.49c0-1.42.49-2.94-.41-4.36-1.76.14-2.46,1.62-3.45,2.6a220.46,220.46,0,0,1-67.36,46.2c-61.51,27.08-124.14,29-187.56,7.2a29,29,0,0,0-17.16-.75c-8.39,2.15-16.69,4.61-25,7.14C133,382.47,108.13,385.92,82.59,380.9Zm72.47-168.49c1.66-2.18,2.64-3.5,3.66-4.79q19.64-24.93,39.29-49.85c3.81-4.85,7.62-9.73,10-15.48,2.75-6.6-.22-12.83-7-15.16a28.52,28.52,0,0,0-9.39-1.15q-26.75-.09-53.49,0a27.89,27.89,0,0,0-7.4.91,10.52,10.52,0,0,0,.18,20.43,30.69,30.69,0,0,0,7.41.84c10.83.09,21.66,0,32.5.08,1.16,0,2.66-.76,3.6.95-.89,1.16-1.78,2.35-2.69,3.52q-23.19,29.46-46.37,58.91c-3.84,4.88-5.77,10.26-3,16.26s8.44,7.13,14.24,7.47c4.66.26,9.33.1,14,.1,16.16,0,32.33.11,48.49-.07,8.57-.1,13.18-5.34,12.26-13.25-.73-6.25-5-9.63-12.95-9.7C184.32,212.32,170.19,212.41,155.06,212.41Zm116-52.64c-12.48-10.89-26.26-11.56-39.83-3.58-16.34,9.6-22.42,25.27-20.34,43.53,1.93,17,9.26,30.88,27.07,36.66,11.11,3.6,21.38,2.3,30.48-5.08,2.35-1.9,3.08-1.54,4.76.59a12.25,12.25,0,0,0,14,3.87,11.8,11.8,0,0,0,8.32-11.32c.12-20,.22-40-.05-60-.1-8-7.55-13.09-15.41-11.49C275.92,153.82,273.5,156.71,271.06,159.77Zm69.31,37.12c-.38,25,20.32,43.89,46.3,41.29,23.91-2.4,39.41-20.32,38.64-45.6-.76-25-19.44-42.07-44.9-41.29C356.45,152,339.6,171.21,340.37,196.89ZM331.61,177c0-15.66.07-31.32,0-47-.05-8-5.14-13-12.74-12.89-7.36.07-12.25,5.06-12.38,12.75-.09,4.66,0,9.33,0,14q0,39.74,0,79.46c0,6.24,3.78,11.6,8.83,12.87a12.92,12.92,0,0,0,16.29-12.73C331.69,208,331.61,192.5,331.61,177Z"/><path class="cls-2" d="M139.54,436.16c-27.32,0-54.68.92-82-.14-32.3-1.26-57-28.38-57-60.73,0-104.33.23-208.66,0-313C.52,26.56,28.39,1.65,60.5.83,94.15,0,127.83.61,161.49.62c.59,0,1.36-.29,1.75.68-.21,1.78-2,2-3.16,2.65C140.28,15.56,122.17,29.48,107,46.63,81.86,75,64.53,107.68,58.64,145.51c-10.42,67,10.46,123.68,57.83,171.1,8.43,8.44,9.52,15.11,2.74,26.54-8.1,13.68-20.39,23-33.45,31.49a45.49,45.49,0,0,0-4.14,2.8c-2.14,1.76-.79,2.7,1,3.46a9.76,9.76,0,0,0,1.5,2.49c11.48,10.22,22.36,21.08,33.67,31.47q8,7.39,15.72,15.11C135.5,432,139,432.65,139.54,436.16Z"/><path class="cls-3" d="M139.54,436.16c-.51-3.51-4-4.14-6.06-6.19q-7.68-7.73-15.72-15.11c-11.31-10.39-22.19-21.25-33.67-31.47a9.76,9.76,0,0,1-1.5-2.49c25.54,5,50.4,1.57,74.95-5.95,8.28-2.53,16.58-5,25-7.14a29,29,0,0,1,17.16.75c63.42,21.84,126.05,19.88,187.56-7.2a220.46,220.46,0,0,0,67.36-46.2c1-1,1.69-2.46,3.45-2.6.9,1.42.41,2.94.41,4.36q.06,29.24,0,58.49A60.45,60.45,0,0,1,398,436.3c-36,.19-72,.05-108,.05H145.53C143.53,436.34,141.54,436.22,139.54,436.16Z"/><path class="cls-2" d="M155.06,212.41c15.13,0,29.26-.09,43.38,0,7.93.07,12.22,3.45,12.95,9.7.92,7.91-3.69,13.15-12.26,13.25-16.16.18-32.33.07-48.49.07-4.67,0-9.34.16-14-.1-5.8-.34-11.47-1.49-14.24-7.47s-.85-11.38,3-16.26q23.17-29.46,46.37-58.91c.91-1.17,1.8-2.36,2.69-3.52-.94-1.71-2.44-.94-3.6-.95-10.84-.07-21.67,0-32.5-.08a30.69,30.69,0,0,1-7.41-.84,10.52,10.52,0,0,1-.18-20.43,27.89,27.89,0,0,1,7.4-.91q26.75-.1,53.49,0a28.52,28.52,0,0,1,9.39,1.15c6.76,2.33,9.73,8.56,7,15.16-2.39,5.75-6.2,10.63-10,15.48q-19.6,25-39.29,49.85C157.7,208.91,156.72,210.23,155.06,212.41Z"/><path class="cls-2" d="M271.06,159.77c2.44-3.06,4.86-6,9-6.79,7.86-1.6,15.31,3.51,15.41,11.49.27,20,.17,40,.05,60a11.8,11.8,0,0,1-8.32,11.32,12.25,12.25,0,0,1-14-3.87c-1.68-2.13-2.41-2.49-4.76-.59-9.1,7.38-19.37,8.68-30.48,5.08-17.81-5.78-25.14-19.66-27.07-36.66-2.08-18.26,4-33.93,20.34-43.53C244.8,148.21,258.58,148.88,271.06,159.77Zm-35.35,36.56a21.94,21.94,0,0,0,4.21,12.08,16.4,16.4,0,0,0,26.22,0c5.61-7.56,5.58-20.1,0-27.65a15.22,15.22,0,0,0-11.87-6.37C243.28,173.72,235.6,182.2,235.71,196.33Z"/><path class="cls-2" d="M340.37,196.89c-.77-25.68,16.08-44.87,40-45.6,25.46-.78,44.14,16.34,44.9,41.29.77,25.28-14.73,43.2-38.64,45.6C360.69,240.78,340,221.86,340.37,196.89Zm25.14-2.42a22.65,22.65,0,0,0,4.27,14,16.42,16.42,0,0,0,25.91.19c5.82-7.56,5.84-20.41.1-28a15.18,15.18,0,0,0-11.9-6.29C373.09,173.78,365.56,182,365.51,194.47Z"/><path class="cls-2" d="M331.61,177c0,15.49.08,31,0,46.47a12.92,12.92,0,0,1-16.29,12.73c-5.05-1.27-8.83-6.63-8.83-12.87q-.06-39.74,0-79.46c0-4.66-.07-9.33,0-14,.13-7.69,5-12.68,12.38-12.75,7.6-.08,12.69,4.93,12.74,12.89C331.68,145.69,331.61,161.35,331.61,177Z"/><path class="cls-1" d="M235.71,196.33c-.11-14.13,7.57-22.61,18.53-22a15.22,15.22,0,0,1,11.87,6.37c5.61,7.55,5.64,20.09,0,27.65a16.4,16.4,0,0,1-26.22,0A21.94,21.94,0,0,1,235.71,196.33Z"/><path class="cls-1" d="M365.51,194.47c.05-12.43,7.58-20.69,18.38-20.11a15.18,15.18,0,0,1,11.9,6.29c5.74,7.64,5.72,20.49-.1,28a16.42,16.42,0,0,1-25.91-.19A22.65,22.65,0,0,1,365.51,194.47Z"/><rect class="cls-4" x="1" y="1" width="458.09" height="433.04" rx="65" ry="65"/></svg>