<svg id="Layer_1" data-name="Layer 1" xmlns="http://www.w3.org/2000/svg" viewBox="0 0 379.14 379.14"><defs><style>.cls-1{fill:#ffc10e;}.cls-2{fill:#ed3533;}.cls-3{fill:#333;}</style></defs><title>Artboard 1</title><path class="cls-1" d="M379.14,189.57c0,104.7-84.87,189.57-189.57,189.57S0,294.27,0,189.57,84.87,0,189.57,0,379.14,84.87,379.14,189.57Zm0,0"/><path class="cls-2" d="M145.7,88a34,34,0,0,0-28.12,14.74l-1.3,1.65-.87-1.1A33.56,33.56,0,0,0,87.22,88c-19.49,0-33.63,14.14-33.63,33.63,0,28.77,52.08,71.18,55.88,74.23a9.59,9.59,0,0,0,13.26,0c3.81-3.08,56.61-46.15,56.61-74.23,0-19.49-14.15-33.63-33.64-33.63Zm0,0"/><path class="cls-2" d="M293.36,88a34,34,0,0,0-28.13,14.74l-1.3,1.65-.87-1.1A33.53,33.53,0,0,0,234.88,88c-19.5,0-33.64,14.14-33.64,33.63,0,28.77,52.09,71.18,55.88,74.23a9.61,9.61,0,0,0,13.27,0c3.8-3.08,56.59-46.15,56.59-74.23C327,102.12,312.84,88,293.36,88Zm0,0"/><path class="cls-3" d="M274.6,253.49c-47.42,48.26-123.73,47.88-170.76-.72-6.72-7-17.29,3.65-10.58,10.58a133.65,133.65,0,0,0,191.92.72c6.77-6.89-3.81-17.47-10.58-10.58Zm0,0"/></svg>