<svg id="Group_40" data-name="Group 40" xmlns="http://www.w3.org/2000/svg" xmlns:xlink="http://www.w3.org/1999/xlink" viewBox="0 0 18 12.8">
  <defs>
    <style>
      .cls-1 {
        fill: url(#linear-gradient);
      }

      .cls-2 {
        fill: url(#linear-gradient-2);
      }

      .cls-3 {
        fill: url(#linear-gradient-3);
      }

      .cls-4 {
        fill: url(#linear-gradient-4);
      }
    </style>
    <linearGradient id="linear-gradient" x1="0.005" y1="0.49" x2="1.023" y2="0.49" gradientUnits="objectBoundingBox">
      <stop offset="0" stop-color="#bd2a36"/>
      <stop offset="0.478" stop-color="#9929a6"/>
      <stop offset="0.595" stop-color="#77309c"/>
      <stop offset="0.779" stop-color="#49398d"/>
      <stop offset="0.919" stop-color="#2c3f84"/>
      <stop offset="1" stop-color="#214181"/>
    </linearGradient>
    <linearGradient id="linear-gradient-2" x1="0.002" y1="0.49" x2="1.021" y2="0.49" xlink:href="#linear-gradient"/>
    <linearGradient id="linear-gradient-3" x1="0" y1="0.5" x2="1" y2="0.5" xlink:href="#linear-gradient"/>
    <linearGradient id="linear-gradient-4" x1="-0.003" y1="0.5" x2="1.002" y2="0.5" xlink:href="#linear-gradient"/>
  </defs>
  <path id="Path_59" data-name="Path 59" class="cls-1" d="M14.6,9.9c-.1,0-.1,0-.2-.1L11,6.7a.283.283,0,1,1,.4-.4l3.3,3.1a.3.3,0,0,1,0,.4c0,.1,0,.1-.1.1Zm0,0"/>
  <path id="Path_60" data-name="Path 60" class="cls-2" d="M3.4,9.9c-.1,0-.2,0-.2-.1a.3.3,0,0,1,0-.4L6.5,6.3a.283.283,0,0,1,.4.4L3.6,9.8c0,.1-.1.1-.2.1Zm0,0"/>
  <path id="Path_61" data-name="Path 61" class="cls-3" d="M16.5,12.8H1.5A1.473,1.473,0,0,1,0,11.3V1.5A1.538,1.538,0,0,1,1.5,0H16.6A1.524,1.524,0,0,1,18,1.5v9.9a1.524,1.524,0,0,1-1.5,1.4ZM1.5.6a.9.9,0,0,0-.9.9v9.9a.9.9,0,0,0,.9.9H16.6a.9.9,0,0,0,.9-.9V1.5a.9.9,0,0,0-.9-.9Zm0,0"/>
  <path id="Path_62" data-name="Path 62" class="cls-4" d="M9,7.9a1.5,1.5,0,0,1-1.1-.4L.5,1A.3.3,0,0,1,.5.6.3.3,0,0,1,.9.6L8.3,7A1.2,1.2,0,0,0,9.7,7L17.1.5a.3.3,0,0,1,.4,0,.3.3,0,0,1,0,.4L10.1,7.4A1.606,1.606,0,0,1,9,7.9Zm0,0"/>
</svg>
