<svg xmlns="http://www.w3.org/2000/svg" width="20" height="20" viewBox="0 0 20 20">
    <defs>
        <linearGradient id="p6x90qi11a" x1="17.464%" x2="84.916%" y1="10.559%" y2="88.239%">
            <stop offset="0%" stop-color="#F68720"/>
            <stop offset="100%" stop-color="#EF2015"/>
        </linearGradient>
    </defs>
    <g fill="none" fill-rule="evenodd">
        <g>
            <g>
                <path fill="url(#p6x90qi11a)" d="M10 0c5.523 0 10 4.477 10 10s-4.477 10-10 10S0 15.523 0 10 4.477 0 10 0z" transform="translate(-545 -239) translate(545 239)"/>
                <path fill="#FFF" fill-rule="nonzero" d="M13.6 13.125l1.356-3.766c.046.008.095.016.144.016.497 0 .9-.42.9-.938 0-.517-.403-.937-.9-.937s-.9.42-.9.937c0 .14.03.268.083.387l-1.358.848c-.289.18-.662.078-.829-.227L10.568 6.66c.2-.172.332-.43.332-.723C10.9 5.42 10.497 5 10 5s-.9.42-.9.937c0 .293.131.551.332.723L7.904 9.445c-.167.305-.542.407-.829.227l-1.356-.848c.051-.117.083-.248.083-.387 0-.517-.403-.937-.9-.937S4 7.92 4 8.437c0 .518.403.938.9.938.049 0 .098-.008.144-.016L6.4 13.125h7.2zM13.9 15c.165 0 .3-.14.3-.313v-.625c0-.171-.135-.312-.3-.312H6.1c-.165 0-.3.14-.3.312v.625c0 .172.135.313.3.313h7.8z" transform="translate(-545 -239) translate(545 239)"/>
            </g>
        </g>
    </g>
</svg>
