<svg xmlns="http://www.w3.org/2000/svg" width="20" height="20" viewBox="0 0 20 20">
    <defs>
        <linearGradient id="7ewt9k58ta" x1="0%" x2="84.931%" y1="50%" y2="50%">
            <stop offset="0%" stop-color="#FFCA00"/>
            <stop offset="100%" stop-color="#FF7F00"/>
        </linearGradient>
    </defs>
    <g fill="none" fill-rule="evenodd">
        <g>
            <g>
                <path fill="url(#7ewt9k58ta)" d="M10 0c5.523 0 10 4.477 10 10s-4.477 10-10 10S0 15.523 0 10 4.477 0 10 0z" transform="translate(-545 -107) translate(545 107)"/>
                <path fill="#FFF" fill-rule="nonzero" d="M10 4L5 6.182v3.273c0 3.027 2.133 5.858 5 6.545 2.867-.687 5-3.518 5-6.545V6.182L10 4m0 2.182c.92 0 1.667.732 1.667 1.636 0 .904-.747 1.637-1.667 1.637s-1.667-.733-1.667-1.637S9.08 6.182 10 6.182m2.85 6.545c-.672 1.01-1.678 1.768-2.85 2.138-1.172-.37-2.178-1.129-2.85-2.138-.189-.272-.35-.545-.483-.834 0-.9 1.505-1.637 3.333-1.637 1.828 0 3.333.72 3.333 1.637-.133.289-.294.562-.483.834z" transform="translate(-545 -107) translate(545 107)"/>
            </g>
        </g>
    </g>
</svg>
