<svg xmlns="http://www.w3.org/2000/svg" width="20" height="20" viewBox="0 0 20 20">
    <defs>
        <linearGradient id="aqr69z21va" x1="0%" x2="83.525%" y1="50%" y2="50%">
            <stop offset="0%" stop-color="#98A5B9"/>
            <stop offset="100%" stop-color="#505F77"/>
        </linearGradient>
    </defs>
    <g fill="none" fill-rule="evenodd">
        <g>
            <g>
                <path fill="url(#aqr69z21va)" d="M10 0c5.523 0 10 4.477 10 10s-4.477 10-10 10S0 15.523 0 10 4.477 0 10 0z" transform="translate(-545 -195) translate(545 195)"/>
                <path fill="#FFF" fill-rule="nonzero" d="M7.23 8.596c.58-.542 1.319-.914 2.14-1.042l-1.35-2.25C7.92 5.136 7.68 5 7.484 5h-2.17c-.254 0-.402.285-.257.492L7.23 8.596zm5.54 0l2.173-3.104c.145-.207-.003-.492-.256-.492h-2.171c-.22 0-.423.115-.536.304l-1.35 2.25c.82.128 1.56.5 2.14 1.042zM10 15c1.898 0 3.437-1.54 3.437-3.438 0-1.898-1.539-3.437-3.437-3.437s-3.438 1.539-3.438 3.437C6.562 13.461 8.102 15 10 15zm.916-1.826L10 12.693l-.916.481c-.164.087-.356-.053-.325-.236l.175-1.02-.74-.722c-.134-.13-.06-.356.123-.382l1.024-.15.458-.927c.041-.084.12-.125.2-.125.08 0 .161.041.202.125l.458.928 1.024.149c.184.026.257.253.124.382l-.74.722.174 1.02c.032.183-.161.323-.325.236z" transform="translate(-545 -195) translate(545 195)"/>
            </g>
        </g>
    </g>
</svg>
