<svg xmlns="http://www.w3.org/2000/svg" width="66" height="66" fill="none" viewBox="0 0 66 66">
    <path fill="#0080FF" d="M34.726 31.76h-3.358a2.463 2.463 0 0 1-2.454-2.455 2.463 2.463 0 0 1 2.454-2.455h5.907c.674 0 1.227-.553 1.227-1.227s-.553-1.227-1.227-1.227h-3.02v-2.28c0-.673-.554-1.226-1.228-1.226-.674 0-1.227.553-1.227 1.227v2.279h-.459a4.904 4.904 0 0 0-4.895 4.895 4.904 4.904 0 0 0 4.895 4.896H34.7a2.463 2.463 0 0 1 2.455 2.454 2.463 2.463 0 0 1-2.455 2.455h-6.028c-.674 0-1.227.553-1.227 1.227s.553 1.227 1.227 1.227H31.8v2.32c0 .674.553 1.227 1.227 1.227s1.227-.553 1.227-1.227v-2.32h.459a4.904 4.904 0 0 0 4.895-4.895c.014-2.697-2.185-4.896-4.882-4.896z"/>
    <path fill="#2C2F33" d="M1.82 25.313a3.247 3.247 0 0 1-.202-2.508c.27-.837.85-1.51 1.632-1.915l7.31-3.709a.821.821 0 0 0 .445-.62l1.294-8.105a3.276 3.276 0 0 1 3.763-2.738l8.091 1.295c.27.04.54-.054.729-.243L30.68.97A3.266 3.266 0 0 1 33 0c.877 0 1.7.337 2.32.971l5.799 5.799a.854.854 0 0 0 .728.243l8.091-1.295c.176-.027.351-.04.526-.04a3.255 3.255 0 0 1 3.237 2.778l1.281 8.105c.04.27.216.499.445.62l7.31 3.709a3.275 3.275 0 0 1 1.631 1.915c.27.836.203 1.726-.202 2.508l-3.736 7.296a.857.857 0 0 0 0 .769l3.75 7.309c.404.782.471 1.672.202 2.508-.27.837-.85 1.51-1.632 1.915l-7.31 3.709a.821.821 0 0 0-.444.62l-1.268 8.105a3.276 3.276 0 0 1-3.763 2.738l-8.091-1.295a.854.854 0 0 0-.729.243l-5.798 5.799c-.62.62-1.443.971-2.32.971a3.21 3.21 0 0 1-2.32-.971l-5.799-5.799a.854.854 0 0 0-.728-.243l-8.091 1.295c-.176.027-.35.04-.526.04a3.255 3.255 0 0 1-3.237-2.778l-1.281-8.105a.855.855 0 0 0-.445-.62L3.29 45.11a3.275 3.275 0 0 1-1.631-1.915 3.247 3.247 0 0 1 .202-2.508l3.736-7.296a.857.857 0 0 0 0-.769L1.82 25.313zm5.907 9.184l-3.735 7.296a.833.833 0 0 0-.054.647.788.788 0 0 0 .418.486l7.31 3.722a3.286 3.286 0 0 1 1.752 2.414l1.282 8.105c.067.445.499.782.957.701l8.092-1.295c.175-.027.35-.04.512-.04.877 0 1.7.337 2.32.97l5.799 5.8c.323.324.876.324 1.186 0l5.8-5.8a3.323 3.323 0 0 1 2.319-.97c.175 0 .35.013.512.04l8.092 1.295a.85.85 0 0 0 .957-.701l1.268-8.105a3.286 3.286 0 0 1 1.753-2.414l7.31-3.709a.832.832 0 0 0 .364-1.133l-3.736-7.296a3.342 3.342 0 0 1 0-2.993l3.79-7.31a.833.833 0 0 0 .054-.647.788.788 0 0 0-.418-.486l-7.31-3.708a3.286 3.286 0 0 1-1.753-2.414L51.3 8.847a.857.857 0 0 0-.957-.702L42.25 9.44c-.175.027-.35.04-.512.04-.877 0-1.7-.337-2.32-.97l-5.799-5.8c-.323-.323-.876-.323-1.186 0l-5.8 5.8a3.272 3.272 0 0 1-2.845.917l-8.091-1.295a.85.85 0 0 0-.958.701l-1.281 8.105a3.286 3.286 0 0 1-1.753 2.414l-7.31 3.709a.833.833 0 0 0-.364 1.133l3.736 7.296a3.414 3.414 0 0 1-.04 3.007z"/>
    <path fill="#2C2F33" d="M23.452 19.11a1.215 1.215 0 0 1-.688.215c-.39 0-.768-.188-1.011-.526a1.216 1.216 0 0 1 .31-1.699 1.228 1.228 0 0 1 1.7.31 1.228 1.228 0 0 1-.311 1.7zM19.5 22.211c-.282 0-.58-.094-.808-.31a1.231 1.231 0 0 1-.108-1.726 1.219 1.219 0 0 1 1.726-.094c.499.445.553 1.213.094 1.726a1.18 1.18 0 0 1-.903.404zM26.999 48.711c.634.243.944.944.701 1.578a1.223 1.223 0 0 1-1.578.701 1.215 1.215 0 0 1-.701-1.578c.243-.62.944-.944 1.578-.701zM23.412 46.81a1.23 1.23 0 0 1 .31 1.699c-.243.337-.62.526-1.012.526-.242 0-.485-.068-.7-.216a1.23 1.23 0 0 1-.311-1.7 1.246 1.246 0 0 1 1.713-.31zM38.934 48.738a1.222 1.222 0 0 1 1.578.715 1.222 1.222 0 0 1-.715 1.578 1.216 1.216 0 0 1-1.578-.715c-.23-.634.081-1.349.715-1.578zM30.937 49.682c.674.081 1.146.688 1.065 1.362a1.234 1.234 0 0 1-1.214 1.08c-.054 0-.094 0-.148-.014a1.218 1.218 0 0 1-1.065-1.362c.08-.661.687-1.147 1.362-1.066zM34.996 49.696a1.228 1.228 0 0 1 1.362 1.079 1.207 1.207 0 0 1-1.065 1.348c-.054 0-.095.014-.149.014a1.234 1.234 0 0 1-1.213-1.08 1.209 1.209 0 0 1 1.065-1.361zM16.655 28.927c-.135.553-.634.93-1.187.93-.094 0-.202-.013-.296-.04a1.217 1.217 0 0 1-.89-1.483 1.217 1.217 0 0 1 1.483-.89c.647.162 1.052.823.89 1.483zM14.943 31.732c.674 0 1.227.553 1.227 1.228 0 .674-.553 1.227-1.228 1.213a1.212 1.212 0 0 1-1.213-1.227 1.2 1.2 0 0 1 1.214-1.214zM15.172 36.088a1.228 1.228 0 0 1 1.483.89 1.228 1.228 0 0 1-.89 1.484 1.05 1.05 0 0 1-.297.04 1.224 1.224 0 0 1-1.186-.93 1.201 1.201 0 0 1 .89-1.484zM17.02 25.785c-.19 0-.392-.04-.567-.135a1.223 1.223 0 0 1-.513-1.645 1.227 1.227 0 0 1 1.646-.512c.593.31.822 1.051.512 1.645a1.212 1.212 0 0 1-1.079.647zM20.377 44.112a1.22 1.22 0 0 1-.108 1.727c-.229.202-.526.31-.809.31-.337 0-.674-.135-.917-.418a1.219 1.219 0 0 1 .108-1.726 1.231 1.231 0 0 1 1.726.107zM16.426 40.255a1.223 1.223 0 0 1 1.645.513c.31.593.081 1.335-.512 1.645a1.208 1.208 0 0 1-.567.135 1.21 1.21 0 0 1-1.079-.66c-.31-.58-.08-1.309.513-1.633zM46.513 22.225c-.337 0-.674-.135-.917-.405a1.22 1.22 0 0 1 .108-1.726 1.219 1.219 0 0 1 1.726.108 1.22 1.22 0 0 1-.108 1.726c-.23.203-.512.297-.809.297zM49.547 40.323c.594.324.823 1.052.513 1.659a1.211 1.211 0 0 1-1.08.647c-.188 0-.39-.04-.566-.135a1.223 1.223 0 0 1-.512-1.645 1.213 1.213 0 0 1 1.645-.526zM49.345 37.046a1.217 1.217 0 0 1 1.483-.89c.661.161 1.052.822.89 1.483-.134.553-.633.93-1.186.93-.095 0-.202-.013-.297-.04a1.207 1.207 0 0 1-.89-1.483zM50.828 29.844c-.094.027-.202.04-.296.04a1.224 1.224 0 0 1-1.187-.93 1.228 1.228 0 0 1 .89-1.483 1.228 1.228 0 0 1 1.483.89c.162.66-.229 1.321-.89 1.483zM51.058 34.254a1.22 1.22 0 0 1-1.214-1.227V33v-.027c0-.674.553-1.227 1.227-1.227a1.22 1.22 0 0 1 1.214 1.227v.054c-.014.674-.553 1.227-1.227 1.227zM49.56 25.664a1.247 1.247 0 0 1-.566.134c-.445 0-.863-.242-1.079-.647a1.223 1.223 0 0 1 .513-1.645 1.223 1.223 0 0 1 1.645.512c.31.594.081 1.335-.512 1.646zM47.295 44.072a1.219 1.219 0 0 1-.823 2.13c-.296 0-.58-.094-.809-.31a1.219 1.219 0 0 1-.094-1.726 1.232 1.232 0 0 1 1.726-.094zM35.198 16.277c-.054 0-.094 0-.148-.013a1.218 1.218 0 0 1-1.066-1.362 1.218 1.218 0 0 1 1.363-1.066c.674.081 1.146.688 1.065 1.362a1.234 1.234 0 0 1-1.214 1.08zM30.99 16.264c-.053 0-.094.013-.148.013a1.233 1.233 0 0 1-1.213-1.079 1.227 1.227 0 0 1 1.065-1.362 1.227 1.227 0 0 1 1.362 1.066 1.228 1.228 0 0 1-1.065 1.362zM27.04 17.221a1.216 1.216 0 0 1-1.578-.715 1.222 1.222 0 0 1 .714-1.577 1.222 1.222 0 0 1 1.578.715 1.217 1.217 0 0 1-.715 1.577z"/>
    <path fill="#000" d="M39.42 17.316a1.233 1.233 0 0 1-1.146-1.659 1.233 1.233 0 0 1 1.577-.714c.634.242.944.944.701 1.577a1.199 1.199 0 0 1-1.133.796z"/>
    <path fill="#2C2F33" d="M42.535 46.85a1.228 1.228 0 0 1 1.699.31 1.228 1.228 0 0 1-.31 1.7 1.216 1.216 0 0 1-.688.215c-.391 0-.769-.189-1.012-.526a1.206 1.206 0 0 1 .31-1.699z"/>
    <path fill="#000" d="M43.263 19.339c-.243 0-.486-.068-.701-.216a1.228 1.228 0 0 1-.31-1.7 1.23 1.23 0 0 1 1.699-.31 1.23 1.23 0 0 1 .31 1.7c-.23.35-.607.526-.998.526z"/>
</svg>
