<?xml version="1.0" encoding="utf-8"?>
<!-- Generator: Adobe Illustrator 22.0.1, SVG Export Plug-In . SVG Version: 6.00 Build 0)  -->
<svg version="1.1" id="Layer_1" xmlns="http://www.w3.org/2000/svg" xmlns:xlink="http://www.w3.org/1999/xlink" x="0px" y="0px"
	 viewBox="0 0 48 48" style="enable-background:new 0 0 48 48;" xml:space="preserve">
<style type="text/css">
	.st0{fill:url(#SVGID_1_);}
	.st1{fill:url(#SVGID_2_);}
	.st2{fill:url(#SVGID_3_);}
	.st3{fill:url(#SVGID_4_);}
	.st4{fill:url(#SVGID_5_);}
	.st5{fill:url(#SVGID_6_);}
	.st6{fill:url(#SVGID_7_);}
	.st7{fill:url(#SVGID_8_);}
	.st8{fill:url(#SVGID_9_);}
	.st9{fill:url(#SVGID_10_);}
	.st10{fill:url(#SVGID_11_);}
	.st11{fill:url(#SVGID_12_);}
	.st12{fill:url(#SVGID_13_);}
	.st13{fill:url(#SVGID_14_);}
	.st14{fill:url(#SVGID_15_);}
	.st15{fill:url(#SVGID_16_);}
	.st16{fill:url(#SVGID_17_);}
	.st17{fill:url(#SVGID_18_);}
	.st18{fill:url(#SVGID_19_);}
	.st19{fill:url(#SVGID_20_);}
	.st20{fill:url(#SVGID_21_);}
	.st21{fill:url(#SVGID_22_);}
	.st22{fill:url(#SVGID_23_);}
	.st23{fill:url(#SVGID_24_);}
	.st24{fill:url(#SVGID_25_);}
	.st25{fill:url(#SVGID_26_);}
	.st26{fill:url(#SVGID_27_);}
	.st27{fill:url(#SVGID_28_);}
	.st28{fill:url(#SVGID_29_);}
	.st29{fill:url(#SVGID_30_);}
	.st30{fill:url(#SVGID_31_);}
	.st31{fill:url(#SVGID_32_);}
	.st32{fill:url(#SVGID_33_);}
	.st33{fill:url(#SVGID_34_);}
	.st34{fill:url(#SVGID_35_);}
	.st35{fill:url(#SVGID_36_);}
	.st36{fill:url(#SVGID_37_);}
	.st37{fill:url(#SVGID_38_);}
	.st38{fill:url(#SVGID_39_);}
	.st39{fill:url(#SVGID_40_);}
	.st40{fill:url(#SVGID_41_);}
	.st41{fill:url(#SVGID_42_);}
	.st42{fill:url(#XMLID_2_);}
	.st43{fill:url(#XMLID_3_);}
</style>
<g>
	<linearGradient id="SVGID_1_" gradientUnits="userSpaceOnUse" x1="6.4615" y1="24" x2="41.5385" y2="24">
		<stop  offset="0" style="stop-color:#BD2A36"/>
		<stop  offset="0.4882" style="stop-color:#9A4599"/>
		<stop  offset="1" style="stop-color:#214181"/>
	</linearGradient>
	<path class="st0" d="M40.6,0H7.4C6.9,0,6.5,0.4,6.5,0.9v46.2c0,0.3,0.2,0.6,0.5,0.8c0.3,0.2,0.6,0.2,0.9,0l4.1-2.4l3.2,2.4
		c0.3,0.2,0.7,0.2,1,0.1l4.1-2.4l3.2,2.4c0.3,0.2,0.7,0.2,1,0.1l4.1-2.4l3.2,2.4c0.3,0.2,0.7,0.2,1,0.1l4.1-2.4l3.2,2.4
		c0.2,0.1,0.4,0.2,0.6,0.2c0.1,0,0.3,0,0.4-0.1c0.3-0.2,0.5-0.5,0.5-0.8V0.9C41.5,0.4,41.1,0,40.6,0L40.6,0z M39.7,45.2l-2.2-1.7
		c-0.3-0.2-0.7-0.2-1-0.1L32.4,46l-3.2-2.4c-0.2-0.1-0.4-0.2-0.6-0.2c-0.2,0-0.3,0-0.5,0.1L24.1,46l-3.2-2.4c-0.3-0.2-0.7-0.2-1-0.1
		L15.7,46l-3.2-2.4c-0.3-0.2-0.7-0.2-1-0.1l-3.2,1.9V1.8h31.4L39.7,45.2L39.7,45.2z M39.7,45.2"/>
	<linearGradient id="SVGID_2_" gradientUnits="userSpaceOnUse" x1="11.0771" y1="9.2306" x2="17.5384" y2="9.2306">
		<stop  offset="0" style="stop-color:#BD2A36"/>
		<stop  offset="0.4882" style="stop-color:#9A4599"/>
		<stop  offset="1" style="stop-color:#214181"/>
	</linearGradient>
	<path class="st1" d="M16.6,8.3H12c-0.5,0-0.9,0.4-0.9,0.9c0,0.5,0.4,0.9,0.9,0.9h4.6c0.5,0,0.9-0.4,0.9-0.9
		C17.5,8.7,17.1,8.3,16.6,8.3L16.6,8.3z M16.6,8.3"/>
	<linearGradient id="SVGID_3_" gradientUnits="userSpaceOnUse" x1="28.6154" y1="13.8463" x2="35.0768" y2="13.8463">
		<stop  offset="0" style="stop-color:#BD2A36"/>
		<stop  offset="0.4882" style="stop-color:#9A4599"/>
		<stop  offset="1" style="stop-color:#214181"/>
	</linearGradient>
	<path class="st2" d="M34.2,12.9h-4.6c-0.5,0-0.9,0.4-0.9,0.9c0,0.5,0.4,0.9,0.9,0.9h4.6c0.5,0,0.9-0.4,0.9-0.9
		C35.1,13.3,34.7,12.9,34.2,12.9L34.2,12.9z M34.2,12.9"/>
	<linearGradient id="SVGID_4_" gradientUnits="userSpaceOnUse" x1="28.6154" y1="18.4614" x2="35.0768" y2="18.4614">
		<stop  offset="0" style="stop-color:#BD2A36"/>
		<stop  offset="0.4882" style="stop-color:#9A4599"/>
		<stop  offset="1" style="stop-color:#214181"/>
	</linearGradient>
	<path class="st3" d="M34.2,17.5h-4.6c-0.5,0-0.9,0.4-0.9,0.9c0,0.5,0.4,0.9,0.9,0.9h4.6c0.5,0,0.9-0.4,0.9-0.9
		C35.1,18,34.7,17.5,34.2,17.5L34.2,17.5z M34.2,17.5"/>
	<linearGradient id="SVGID_5_" gradientUnits="userSpaceOnUse" x1="28.6154" y1="23.077" x2="35.0768" y2="23.077">
		<stop  offset="0" style="stop-color:#BD2A36"/>
		<stop  offset="0.4882" style="stop-color:#9A4599"/>
		<stop  offset="1" style="stop-color:#214181"/>
	</linearGradient>
	<path class="st4" d="M34.2,22.2h-4.6c-0.5,0-0.9,0.4-0.9,0.9c0,0.5,0.4,0.9,0.9,0.9h4.6c0.5,0,0.9-0.4,0.9-0.9
		C35.1,22.6,34.7,22.2,34.2,22.2L34.2,22.2z M34.2,22.2"/>
	<linearGradient id="SVGID_6_" gradientUnits="userSpaceOnUse" x1="28.6154" y1="27.6922" x2="35.0768" y2="27.6922">
		<stop  offset="0" style="stop-color:#BD2A36"/>
		<stop  offset="0.4882" style="stop-color:#9A4599"/>
		<stop  offset="1" style="stop-color:#214181"/>
	</linearGradient>
	<path class="st5" d="M34.2,26.8h-4.6c-0.5,0-0.9,0.4-0.9,0.9c0,0.5,0.4,0.9,0.9,0.9h4.6c0.5,0,0.9-0.4,0.9-0.9
		C35.1,27.2,34.7,26.8,34.2,26.8L34.2,26.8z M34.2,26.8"/>
	<linearGradient id="SVGID_7_" gradientUnits="userSpaceOnUse" x1="28.6154" y1="32.3079" x2="35.0768" y2="32.3079">
		<stop  offset="0" style="stop-color:#BD2A36"/>
		<stop  offset="0.4882" style="stop-color:#9A4599"/>
		<stop  offset="1" style="stop-color:#214181"/>
	</linearGradient>
	<path class="st6" d="M34.2,31.4h-4.6c-0.5,0-0.9,0.4-0.9,0.9c0,0.5,0.4,0.9,0.9,0.9h4.6c0.5,0,0.9-0.4,0.9-0.9
		C35.1,31.8,34.7,31.4,34.2,31.4L34.2,31.4z M34.2,31.4"/>
	<linearGradient id="SVGID_8_" gradientUnits="userSpaceOnUse" x1="11.0771" y1="13.8463" x2="25.8459" y2="13.8463">
		<stop  offset="0" style="stop-color:#BD2A36"/>
		<stop  offset="0.4882" style="stop-color:#9A4599"/>
		<stop  offset="1" style="stop-color:#214181"/>
	</linearGradient>
	<path class="st7" d="M24.9,12.9H12c-0.5,0-0.9,0.4-0.9,0.9c0,0.5,0.4,0.9,0.9,0.9h12.9c0.5,0,0.9-0.4,0.9-0.9
		C25.8,13.3,25.4,12.9,24.9,12.9L24.9,12.9z M24.9,12.9"/>
	<linearGradient id="SVGID_9_" gradientUnits="userSpaceOnUse" x1="11.0771" y1="18.4614" x2="25.8459" y2="18.4614">
		<stop  offset="0" style="stop-color:#BD2A36"/>
		<stop  offset="0.4882" style="stop-color:#9A4599"/>
		<stop  offset="1" style="stop-color:#214181"/>
	</linearGradient>
	<path class="st8" d="M24.9,17.5H12c-0.5,0-0.9,0.4-0.9,0.9c0,0.5,0.4,0.9,0.9,0.9h12.9c0.5,0,0.9-0.4,0.9-0.9
		C25.8,18,25.4,17.5,24.9,17.5L24.9,17.5z M24.9,17.5"/>
	<linearGradient id="SVGID_10_" gradientUnits="userSpaceOnUse" x1="11.0771" y1="23.077" x2="25.8459" y2="23.077">
		<stop  offset="0" style="stop-color:#BD2A36"/>
		<stop  offset="0.4882" style="stop-color:#9A4599"/>
		<stop  offset="1" style="stop-color:#214181"/>
	</linearGradient>
	<path class="st9" d="M24.9,22.2H12c-0.5,0-0.9,0.4-0.9,0.9c0,0.5,0.4,0.9,0.9,0.9h12.9c0.5,0,0.9-0.4,0.9-0.9
		C25.8,22.6,25.4,22.2,24.9,22.2L24.9,22.2z M24.9,22.2"/>
	<linearGradient id="SVGID_11_" gradientUnits="userSpaceOnUse" x1="11.0771" y1="27.6922" x2="25.8459" y2="27.6922">
		<stop  offset="0" style="stop-color:#BD2A36"/>
		<stop  offset="0.4882" style="stop-color:#9A4599"/>
		<stop  offset="1" style="stop-color:#214181"/>
	</linearGradient>
	<path class="st10" d="M24.9,26.8H12c-0.5,0-0.9,0.4-0.9,0.9c0,0.5,0.4,0.9,0.9,0.9h12.9c0.5,0,0.9-0.4,0.9-0.9
		C25.8,27.2,25.4,26.8,24.9,26.8L24.9,26.8z M24.9,26.8"/>
	<linearGradient id="SVGID_12_" gradientUnits="userSpaceOnUse" x1="11.0771" y1="32.3079" x2="25.8459" y2="32.3079">
		<stop  offset="0" style="stop-color:#BD2A36"/>
		<stop  offset="0.4882" style="stop-color:#9A4599"/>
		<stop  offset="1" style="stop-color:#214181"/>
	</linearGradient>
	<path class="st11" d="M24.9,31.4H12c-0.5,0-0.9,0.4-0.9,0.9c0,0.5,0.4,0.9,0.9,0.9h12.9c0.5,0,0.9-0.4,0.9-0.9
		C25.8,31.8,25.4,31.4,24.9,31.4L24.9,31.4z M24.9,31.4"/>
</g>
</svg>
