<svg id="Layer_1" data-name="Layer 1" xmlns="http://www.w3.org/2000/svg" viewBox="0 0 96 96"><defs><style>.cls-3{fill:#fafafa}</style></defs><path d="M90 18H6a6 6 0 0 0-6 6v54a6 6 0 0 0 6 6h84a6 6 0 0 0 6-6V24a6 6 0 0 0-6-6z" fill="#2196f3"/><path fill="#455a64" d="M0 30h96v18H0z"/><path class="cls-3" d="M27 66H15a3 3 0 0 1 0-6h12a3 3 0 0 1 0 6zm69-18.33V24a6 6 0 0 0-6-6H42v6c0 18.79 7.15 30.23 25.54 40.81a9 9 0 0 0 8.94 0c9.1-5.23 15.43-10.69 19.52-17.14z"/><path d="M94.18 9.24l-21-9a3 3 0 0 0-2.37 0l-21 9A3 3 0 0 0 48 12v12c0 16.5 6.1 26.15 22.51 35.6a3 3 0 0 0 3 0C89.9 50.18 96 40.53 96 24V12a3 3 0 0 0-1.82-2.76z" fill="#009688"/><path class="cls-3" d="M69 39h-.13a3 3 0 0 1-2.37-1.33l-6-9a3 3 0 0 1 5-3.33l3.72 5.59 9.43-11.8a3 3 0 1 1 4.69 3.75l-12 15A3 3 0 0 1 69 39z"/></svg>