<svg id="Layer_1" data-name="Layer 1" xmlns="http://www.w3.org/2000/svg" viewBox="0 0 96 96"><defs><style>.cls-4{fill:#e6e9ee}.cls-5{fill:#fff}</style></defs><circle cx="48" cy="48" r="48" fill="#84dbff"/><path d="M9.15 76.12a47.9 47.9 0 0 0 77.7 0z" fill="#54c0eb"/><path fill="#324a5e" d="M24.94 29.18h46.11v43.01H24.94z"/><path class="cls-4" d="M77.48 31.07H17.84A1.87 1.87 0 0 1 16 29.18a1.87 1.87 0 0 1 1.89-1.89h59.59a1.87 1.87 0 0 1 1.89 1.89 1.82 1.82 0 0 1-1.89 1.89z"/><path class="cls-5" d="M47.7 9.9L18.44 27.29h58.44L47.7 9.9z"/><path class="cls-4" d="M28.42 24.57L47.7 13.08l19.2 11.49H28.42zM68 31.07c-1.36 7-1.81 25.55-1.43 33.33v.46h6.5v-.46c.37-7.78-.16-26.3-1.44-33.33z"/><path class="cls-5" d="M66.29 31.07v1.21a1.2 1.2 0 0 0 1.14 1.28h4.83a1.2 1.2 0 0 0 1.14-1.28v-1.21zm8.77 37.04v-1.36a1.79 1.79 0 0 0-1.74-1.89h-7a1.85 1.85 0 0 0-1.74 1.89v1.36z"/><path class="cls-4" d="M53.29 31.07c-1.36 7-1.81 25.55-1.43 33.33v.46h6.5v-.46c.37-7.78-.16-26.3-1.44-33.33z"/><path class="cls-5" d="M51.48 31.07v1.21a1.2 1.2 0 0 0 1.13 1.28h4.84a1.19 1.19 0 0 0 1.13-1.28v-1.21zm8.84 37.04v-1.36a1.79 1.79 0 0 0-1.74-1.89h-7a1.85 1.85 0 0 0-1.74 1.89v1.36z"/><path class="cls-4" d="M38.48 31.07c-1.37 7-1.82 25.55-1.44 33.33v.46h6.5v-.46c.38-7.78-.15-26.3-1.44-33.33z"/><path class="cls-5" d="M36.74 31.07v1.21a1.2 1.2 0 0 0 1.13 1.28h4.84a1.19 1.19 0 0 0 1.13-1.28v-1.21zm8.77 37.04v-1.36a1.8 1.8 0 0 0-1.74-1.89h-7A1.84 1.84 0 0 0 35 66.75v1.36z"/><path class="cls-4" d="M23.74 31.07c-1.37 7-1.82 25.55-1.44 33.33v.46h6.5v-.46c.38-7.78-.15-26.3-1.44-33.33z"/><path class="cls-5" d="M22 31.07v1.21a1.2 1.2 0 0 0 1.13 1.28H28a1.19 1.19 0 0 0 1.13-1.28v-1.21zm8.77 37.04v-1.36A1.8 1.8 0 0 0 29 64.86h-7a1.84 1.84 0 0 0-1.74 1.89v1.36z"/><path class="cls-4" d="M15.95 68.11h64.1v8.01h-64.1z"/><path fill="#acb3ba" d="M31.52 72.11h32.96v4.08H31.52z"/><path fill="#ced5e0" d="M31.52 68.11h32.96v4.08H31.52z"/></svg>