<svg id="Layer_1" data-name="Layer 1" xmlns="http://www.w3.org/2000/svg" viewBox="0 0 96 96"><defs><style>.cls-2{fill:#7f6e5d}.cls-3{fill:#cbb292}.cls-4{fill:#71c285}.cls-6{fill:#68ad77}.cls-7{fill:#ddc357}</style></defs><path d="M84.42 33.1h-1.66a11.58 11.58 0 0 1-11.59-11.59 11.59 11.59 0 1 1-23.17 0 11.59 11.59 0 1 1-23.17 0A11.58 11.58 0 0 1 13.24 33.1h-1.65A11.58 11.58 0 0 1 0 21.51V96h96V21.51A11.58 11.58 0 0 1 84.42 33.1zm0 0" fill="#f5efca"/><path class="cls-2" d="M6.62 41.38h51.31v43.04H6.62z"/><path class="cls-3" d="M59.59 86.08H5V39.72h54.59zM8.28 82.76h48V43h-48zm0 0"/><path class="cls-3" d="M14.9 56.28a1.71 1.71 0 0 1-1.18-.49 1.65 1.65 0 0 1 0-2.33l6.63-6.63a1.65 1.65 0 0 1 2.34 0 1.67 1.67 0 0 1 0 2.34l-6.62 6.62a1.69 1.69 0 0 1-1.17.49zm0 8.27a1.7 1.7 0 0 1-1.18-.48 1.67 1.67 0 0 1 0-2.34L17 58.42a1.65 1.65 0 0 1 2.34 2.34l-3.31 3.31a1.68 1.68 0 0 1-1.17.48zm6.61-6.62a1.79 1.79 0 0 1-1.17-.47 1.67 1.67 0 1 1 2.83-1.18 1.61 1.61 0 0 1-1.66 1.65zm3.32-3.31a1.66 1.66 0 0 1-1.17-2.82l5-5A1.65 1.65 0 1 1 31 49.17l-5 5a1.63 1.63 0 0 1-1.17.49zM14.9 72.83A1.66 1.66 0 0 1 13.72 70l14.91-14.9A1.65 1.65 0 1 1 31 57.45L16.07 72.34a1.64 1.64 0 0 1-1.17.49zm18.2-18.21a1.61 1.61 0 0 1-1.17-.49 1.67 1.67 0 0 1-.48-1.13 1.66 1.66 0 1 1 3.31 0 1.71 1.71 0 0 1-.48 1.17 1.75 1.75 0 0 1-1.18.48zM13.24 91h-1.65a1.66 1.66 0 1 1 0-3.32h1.65a1.66 1.66 0 0 1 0 3.32zm-6.62 0H5a1.66 1.66 0 0 1 0-3.32h1.62a1.66 1.66 0 0 1 0 3.32zm11.59 5h-1.66a1.65 1.65 0 0 1 0-3.3h1.66a1.65 1.65 0 1 1 0 3.3zM5 96H3.31a1.65 1.65 0 1 1 0-3.3H5A1.65 1.65 0 1 1 5 96zm6.59 0H9.93a1.65 1.65 0 0 1 0-3.3h1.66a1.65 1.65 0 1 1 0 3.3zm14.9-5h-1.66a1.66 1.66 0 0 1 0-3.32h1.66a1.66 1.66 0 0 1 0 3.32zm-6.62 0h-1.66a1.66 1.66 0 1 1 0-3.32h1.66a1.66 1.66 0 0 1 0 3.32zm4.96 5h-1.66a1.65 1.65 0 1 1 0-3.3h1.66a1.65 1.65 0 1 1 0 3.3zm14.89-5h-1.65a1.66 1.66 0 0 1 0-3.32h1.65a1.66 1.66 0 1 1 0 3.32zm-6.62 0h-1.65a1.66 1.66 0 1 1 0-3.32h1.65a1.66 1.66 0 0 1 0 3.32zm11.6 5H43a1.65 1.65 0 1 1 0-3.3h1.7a1.65 1.65 0 0 1 0 3.3zm-13.25 0h-1.66a1.65 1.65 0 1 1 0-3.3h1.66a1.65 1.65 0 1 1 0 3.3zm6.62 0h-1.65a1.65 1.65 0 1 1 0-3.3h1.65a1.65 1.65 0 1 1 0 3.3zM53 91h-1.69a1.66 1.66 0 0 1 0-3.32H53A1.66 1.66 0 0 1 53 91zm-6.66 0H44.7a1.66 1.66 0 1 1 0-3.32h1.64a1.66 1.66 0 0 1 0 3.32zm4.97 5h-1.65a1.65 1.65 0 1 1 0-3.3h1.65a1.65 1.65 0 1 1 0 3.3zm8.28-5h-1.66a1.66 1.66 0 0 1 0-3.32h1.66a1.66 1.66 0 0 1 0 3.32zm-1.66 5h-1.65a1.65 1.65 0 1 1 0-3.3h1.65a1.65 1.65 0 1 1 0 3.3zm0 0"/><path class="cls-4" d="M28.14 0h-5a23.93 23.93 0 0 0-23 17.6c-.35 1.28.14.61.45.61H48V0zm0 0"/><path d="M74.49 18.21h20.93c.29 0 .66.28.42-.57A23.86 23.86 0 0 0 74.49.07V0H48v18.21zm-26.49 0H24.83A22.16 22.16 0 0 1 46.64 0H48zm0 0" fill="#f3d55b"/><path class="cls-4" d="M71.17 18.21H48V0h1.36a22.16 22.16 0 0 1 21.81 18.21zm0 0"/><path class="cls-6" d="M13.24 33.1h-1.65A11.58 11.58 0 0 1 0 21.51v-3a.27.27 0 0 1 .27-.27h24.56v3.3A11.58 11.58 0 0 1 13.24 33.1zm0 0"/><path class="cls-7" d="M36.42 33.1a11.58 11.58 0 0 1-11.59-11.59v-3.3H48v3.3A11.58 11.58 0 0 1 36.42 33.1zm0 0"/><path class="cls-6" d="M59.59 33.1A11.58 11.58 0 0 1 48 21.51v-3.3h23.17v3.3A11.58 11.58 0 0 1 59.59 33.1zm0 0"/><path class="cls-7" d="M84.42 33.1h-1.66a11.58 11.58 0 0 1-11.59-11.59v-3.3h24.57a.26.26 0 0 1 .26.27v3A11.58 11.58 0 0 1 84.42 33.1zm0 0"/><path class="cls-2" d="M89.38 94.35H64.55V52.14a12.42 12.42 0 1 1 24.83 0zm0 0"/><path class="cls-3" d="M91 96H62.9V52.14a14.07 14.07 0 0 1 28.14 0zm-24.79-3.3h21.51V52.14a10.76 10.76 0 1 0-21.51 0zm0 0"/><path class="cls-3" d="M64.55 69.52h24.83v3.31H64.55z"/></svg>