<svg id="Layer_1" data-name="Layer 1" xmlns="http://www.w3.org/2000/svg" viewBox="0 0 96 96"><defs><style>.cls-5{fill:#fdb62f}</style></defs><path d="M90.29 62.07l5.62-35.94a6.68 6.68 0 0 0-5.54-7.66L14.43 6.28a6.7 6.7 0 0 0-7.66 5.54l-2.7 16.81v33.23z" fill="#146aa8"/><path d="M90.37 18.47L68.8 15C54.32 37.17 30.9 52.53 12.94 61.88l77.35.19 5.62-35.94a6.68 6.68 0 0 0-5.54-7.66z" fill="#126099"/><path d="M6.69 27H83.6a6.69 6.69 0 0 1 6.69 6.68v43.44a6.69 6.69 0 0 1-6.69 6.68H6.69A6.68 6.68 0 0 1 0 77.12V33.64A6.68 6.68 0 0 1 6.69 27z" fill="#4398d1"/><path d="M83.6 27h-1.34C66.48 55 37 74.2 19 83.8h64.6a6.69 6.69 0 0 0 6.69-6.68V33.64A6.69 6.69 0 0 0 83.6 27z" fill="#3e8cc7"/><path class="cls-5" d="M8.36 35.32h16.72V48.7H8.36z"/><path d="M8.36 40.33h5.02v3.34H8.36zm11.7 0h5.02v3.34h-5.02z" fill="#fd7b2f"/><circle class="cls-5" cx="73.57" cy="67.08" r="8.36"/><circle cx="63.54" cy="67.08" r="8.36" fill="#de4c3c"/><path d="M6.69 60.4h10.03v3.34H6.69zm16.72 0h10.03v3.34H23.41zm16.72 0h10.03v3.34H40.13zM6.69 70.43h43.47v3.34H6.69zm51.83-35.11h3.34v6.69h-3.34zm6.69 0h3.34v6.69h-3.34zm6.68 0h3.34v6.69h-3.34zm6.69 0h3.34v6.69h-3.34z" fill="#87ced9"/></svg>