<svg id="Layer_1" data-name="Layer 1" xmlns="http://www.w3.org/2000/svg" viewBox="0 0 96 96"><defs><style>.cls-1{fill:#64798a}.cls-2{fill:#44c4a1}.cls-3{fill:#27a2db}.cls-4{fill:#2d93ba}.cls-5{fill:#3ea69b}.cls-7{fill:#3a556a}</style></defs><path class="cls-1" d="M4.35 0h61.1v91.01H4.35z"/><path class="cls-2" d="M11.21 7.04h7.84v12.97h-7.84zm13.18 0h7.84v12.97h-7.84zm13.18 0h7.84v12.97h-7.84zm13.18 0h7.84v12.97h-7.84zM11.21 27.53h7.84V40.5h-7.84zm13.18 0h7.84V40.5h-7.84z"/><path class="cls-3" d="M37.57 27.53h7.84V40.5h-7.84zm13.18 0h7.84V40.5h-7.84z"/><path class="cls-4" d="M45.41 60.99h-7.84l7.84-12.97v12.97zm13.18 0h-7.84l7.84-12.97v12.97z"/><path class="cls-2" d="M11.21 68.51h7.84v12.97h-7.84zm13.18 0h7.84v12.97h-7.84z"/><path class="cls-3" d="M37.57 68.51h7.84v12.97h-7.84zm13.18 0h7.84v12.97h-7.84z"/><path class="cls-5" d="M19.06 20.01h-7.85l7.85-12.97v12.97zm13.17 0h-7.84l7.84-12.97v12.97zm13.18 0h-7.84l7.84-12.97v12.97zm13.18 0h-7.84l7.84-12.97v12.97zM19.06 40.5h-7.85l7.85-12.97V40.5zm13.17 0h-7.84l7.84-12.97V40.5z"/><path class="cls-4" d="M45.41 40.5h-7.84l7.84-12.97V40.5zm13.18 0h-7.84l7.84-12.97V40.5z"/><path class="cls-2" d="M11.21 48.01h7.84v12.97h-7.84zm13.18 0h7.84v12.97h-7.84z"/><path class="cls-3" d="M37.57 48.01h7.84v12.97h-7.84zm13.18 0h7.84v12.97h-7.84z"/><path class="cls-5" d="M19.06 81.48h-7.85l7.85-12.97v12.97zm13.17 0h-7.84l7.84-12.97v12.97z"/><path class="cls-4" d="M45.41 81.48h-7.84l7.84-12.97v12.97zm13.18 0h-7.84l7.84-12.97v12.97z"/><path fill="#d5d6db" d="M37.57 27.4h52.39v63.62H37.57z"/><path class="cls-1" d="M55.04 73.55H72.5v17.46H55.04z"/><path class="cls-7" d="M52.85 70.61h21.84v2.94H52.85z"/><path class="cls-3" d="M41.93 33.33h7.23v12.61h-7.23zm12.15 0h7.23v12.61h-7.23zm12.15 0h7.23v12.61h-7.23zm12.14 0h7.23v12.61h-7.23z"/><path class="cls-4" d="M49.16 45.94h-7.22l7.22-12.61v12.61zm12.15 0h-7.23l7.23-12.61v12.61zm12.14 0h-7.23l7.23-12.61v12.61zm12.14 0h-7.22l7.22-12.61v12.61z"/><path class="cls-3" d="M41.93 52.07h7.23v12.61h-7.23zm12.15 0h7.23v12.61h-7.23zm12.15 0h7.23v12.61h-7.23zm12.14 0h7.23v12.61h-7.23zm0 18.54h7.23v12.61h-7.23zm-36.44 0h7.23v12.61h-7.23z"/><path class="cls-4" d="M49.16 64.68h-7.22l7.22-12.61v12.61zm12.15 0h-7.23l7.23-12.61v12.61zm12.14 0h-7.23l7.23-12.61v12.61zm12.14 0h-7.22l7.22-12.61v12.61zm0 18.54h-7.22l7.22-12.61v12.61zm-36.43 0h-7.22l7.22-12.61v12.61z"/><path class="cls-7" d="M93.47 96H2.53a1.28 1.28 0 0 1-1.28-1.28v-2.43A1.28 1.28 0 0 1 2.53 91h90.94a1.28 1.28 0 0 1 1.28 1.28v2.43A1.28 1.28 0 0 1 93.47 96z"/><path class="cls-5" d="M19.06 60.99h-7.85l7.85-12.97v12.97zm13.17 0h-7.84l7.84-12.97v12.97z"/></svg>