<svg id="Layer_1" data-name="Layer 1" xmlns="http://www.w3.org/2000/svg" viewBox="0 0 96 96"><defs><style>.cls-2{fill:#f3705a}</style></defs><path fill="#f05540" d="M71.8 13.8h11V33h-11z"/><path class="cls-2" d="M67.6 4H87v10.4H67.6z"/><path d="M8.4 51.8V96h78.4V51.8L47.6 12.6C32.4 28 23.8 36.6 8.4 51.8z" fill="#ffd15c"/><path d="M87 51.8L47.8 12.6C40 20.2 34 26.2 28 32.2L8.4 51.8v9l39.2-39.2 39.2 39.2V62 51.8z" fill="#f7b64c"/><path d="M40.6 96H17V72.8A11.82 11.82 0 0 1 28.8 61a11.82 11.82 0 0 1 11.8 11.8z" fill="#415a6b"/><path fill="#344a5e" d="M47.6 61h30.8v27H47.6z"/><path d="M50.8 64.2h10.6v20.6H50.8zm13.8 0h10.6v20.6H64.6z" fill="#8ad7f8"/><path class="cls-2" d="M94.2 43.6L52.4 1.8a6.53 6.53 0 0 0-9 0L1.8 43.6a6.53 6.53 0 0 0 0 9 6.52 6.52 0 0 0 9 0L48 15.4l37.2 37.2a6.36 6.36 0 0 0 9-9z"/></svg>