<?xml version="1.0" encoding="utf-8"?>
<!-- Generator: Adobe Illustrator 22.0.1, SVG Export Plug-In . SVG Version: 6.00 Build 0)  -->
<svg version="1.1" id="Layer_1" xmlns="http://www.w3.org/2000/svg" xmlns:xlink="http://www.w3.org/1999/xlink" x="0px" y="0px"
	 viewBox="0 0 48 48" style="enable-background:new 0 0 48 48;" xml:space="preserve">
<style type="text/css">
	.st0{fill:url(#SVGID_1_);}
	.st1{fill:url(#SVGID_2_);}
	.st2{fill:url(#SVGID_3_);}
	.st3{fill:url(#SVGID_4_);}
	.st4{fill:url(#SVGID_5_);}
	.st5{fill:url(#SVGID_6_);}
	.st6{fill:url(#SVGID_7_);}
	.st7{fill:url(#SVGID_8_);}
	.st8{fill:url(#SVGID_9_);}
	.st9{fill:url(#SVGID_10_);}
	.st10{fill:url(#SVGID_11_);}
	.st11{fill:url(#SVGID_12_);}
	.st12{fill:url(#SVGID_13_);}
	.st13{fill:url(#SVGID_14_);}
	.st14{fill:url(#SVGID_15_);}
	.st15{fill:url(#SVGID_16_);}
	.st16{fill:url(#SVGID_17_);}
	.st17{fill:url(#SVGID_18_);}
	.st18{fill:url(#SVGID_19_);}
	.st19{fill:url(#SVGID_20_);}
	.st20{fill:url(#SVGID_21_);}
	.st21{fill:url(#SVGID_22_);}
	.st22{fill:url(#SVGID_23_);}
	.st23{fill:url(#SVGID_24_);}
	.st24{fill:url(#SVGID_25_);}
	.st25{fill:url(#SVGID_26_);}
	.st26{fill:url(#SVGID_27_);}
	.st27{fill:url(#SVGID_28_);}
	.st28{fill:url(#SVGID_29_);}
	.st29{fill:url(#SVGID_30_);}
	.st30{fill:url(#SVGID_31_);}
	.st31{fill:url(#SVGID_32_);}
	.st32{fill:url(#SVGID_33_);}
	.st33{fill:url(#SVGID_34_);}
	.st34{fill:url(#SVGID_35_);}
	.st35{fill:url(#SVGID_36_);}
	.st36{fill:url(#SVGID_37_);}
	.st37{fill:url(#SVGID_38_);}
	.st38{fill:url(#SVGID_39_);}
	.st39{fill:url(#SVGID_40_);}
	.st40{fill:url(#SVGID_41_);}
	.st41{fill:url(#SVGID_42_);}
	.st42{fill:url(#XMLID_2_);}
	.st43{fill:url(#XMLID_3_);}
</style>
<g>
	<linearGradient id="SVGID_1_" gradientUnits="userSpaceOnUse" x1="0" y1="24" x2="47.9967" y2="24">
		<stop  offset="0" style="stop-color:#BD2A36"/>
		<stop  offset="0.4882" style="stop-color:#9A4599"/>
		<stop  offset="1" style="stop-color:#214181"/>
	</linearGradient>
	<path class="st0" d="M38.6,48c-2,0-4.4-0.5-7.1-1.5c-5.8-2.2-12.1-6.5-17.8-12.2c-5.7-5.7-10-12-12.2-17.8c-2-5.3-2-9.6,0-11.6
		C1.8,4.6,2.1,4.3,2.4,4C4.2,2.1,6.3-0.1,8.9,0c1.9,0.1,3.7,1.2,5.5,3.5c5.5,6.8,3,9.2,0.1,12.1l-0.5,0.5c-0.5,0.5-1.3,2.6,6.9,10.9
		c2.7,2.7,5,4.7,6.8,5.8c1.2,0.7,3.2,1.9,4.1,1l0.5-0.5c2.8-2.9,5.2-5.3,12.1,0.2c2.3,1.9,3.5,3.7,3.5,5.5c0.1,2.7-2.1,4.8-4,6.6
		c-0.3,0.3-0.6,0.6-0.9,0.9C42.1,47.5,40.6,48,38.6,48L38.6,48z M8.7,1.6c-1.9,0-3.7,1.8-5.2,3.5C3.2,5.4,2.9,5.7,2.6,6
		C1.2,7.5,1.3,11.4,3,15.9c2.1,5.6,6.3,11.7,11.8,17.2c5.5,5.5,11.6,9.7,17.2,11.8c4.5,1.7,8.4,1.9,9.9,0.4c0.3-0.3,0.6-0.6,0.9-0.9
		c1.7-1.6,3.5-3.4,3.5-5.3c-0.1-1.4-1-2.8-2.9-4.4c-5.7-4.6-7.3-2.9-9.9-0.3L33,35c-1.3,1.3-3.3,1-6.1-0.8c-1.9-1.3-4.3-3.3-7.1-6.1
		c-6.8-6.8-9-11-6.9-13.1l0.5-0.5c2.7-2.6,4.3-4.2-0.3-9.9c-1.5-1.9-3-2.9-4.4-2.9C8.8,1.6,8.8,1.6,8.7,1.6L8.7,1.6z M8.7,1.6"/>
	<linearGradient id="SVGID_2_" gradientUnits="userSpaceOnUse" x1="27.8856" y1="13.808" x2="40.2207" y2="13.808">
		<stop  offset="0" style="stop-color:#BD2A36"/>
		<stop  offset="0.4882" style="stop-color:#9A4599"/>
		<stop  offset="1" style="stop-color:#214181"/>
	</linearGradient>
	<path class="st1" d="M38.9,19.8c-0.1,0-0.2,0-0.3-0.1c-0.4-0.2-0.6-0.6-0.4-1c1-2.5,0.4-5.4-1.5-7.4c-2-2-5-2.5-7.6-1.4
		c-0.4,0.2-0.9,0-1.1-0.4c-0.2-0.4,0-0.9,0.4-1.1c3.2-1.4,6.9-0.7,9.4,1.7c2.4,2.4,3.1,6,1.8,9.1C39.5,19.6,39.2,19.8,38.9,19.8
		L38.9,19.8z M38.9,19.8"/>
	<linearGradient id="SVGID_3_" gradientUnits="userSpaceOnUse" x1="24.6794" y1="11.3841" x2="48" y2="11.3841">
		<stop  offset="0" style="stop-color:#BD2A36"/>
		<stop  offset="0.4882" style="stop-color:#9A4599"/>
		<stop  offset="1" style="stop-color:#214181"/>
	</linearGradient>
	<path class="st2" d="M46.1,22.8c-0.1,0-0.2,0-0.3-0.1c-0.4-0.2-0.6-0.6-0.4-1c2.2-5.4,0.9-11.6-3.2-15.8c-4.3-4.3-10.8-5.5-16.3-3
		c-0.4,0.2-0.9,0-1.1-0.4c-0.2-0.4,0-0.9,0.4-1.1C31.3-1.3,38.5,0,43.3,4.7c4.6,4.6,6,11.5,3.6,17.5C46.7,22.6,46.4,22.8,46.1,22.8
		L46.1,22.8z M46.1,22.8"/>
</g>
</svg>
