<?xml version="1.0" encoding="UTF-8"?>
<svg width="32px" height="32px" viewBox="0 0 32 32" version="1.1" xmlns="http://www.w3.org/2000/svg" xmlns:xlink="http://www.w3.org/1999/xlink">
    <!-- Generator: Sketch 58 (84663) - https://sketch.com -->
    <title>icon-sms</title>
    <desc>Created with Sketch.</desc>
    <g id="Fado-WA" stroke="none" stroke-width="1" fill="none" fill-rule="evenodd">
        <g id="Fado-WA-Payment-pre-paid-amount" transform="translate(-32.000000, -323.000000)" fill="#0080FF">
            <g id="sms-hanhtrinhdonhang" transform="translate(16.000000, 301.000000)">
                <g id="icon-sms" transform="translate(16.000000, 22.000000)">
                    <path d="M29.1875,7.625 L20.75,7.625 L20.75,2.8125 C20.75,1.2616875 19.4883125,0 17.9375,0 L2.8125,0 C1.2616875,0 0,1.2616875 0,2.8125 L0,29.1875 C0,30.7383125 1.2616875,32 2.8125,32 L17.9375,32 C19.4883125,32 20.75,30.7383125 20.75,29.1875 L20.75,23.9508125 L23.9508125,20.75 L29.1875,20.75 C30.7383125,20.75 32,19.4883125 32,17.9375 L32,10.4375 C32,8.8866875 30.7383125,7.625 29.1875,7.625 Z M1.875,2.8125 C1.875,2.2955625 2.2955625,1.875 2.8125,1.875 L17.9375,1.875 C18.4544375,1.875 18.875,2.2955625 18.875,2.8125 L18.875,3.75 L1.875,3.75 L1.875,2.8125 Z M18.875,29.1875 C18.875,29.7044375 18.4544375,30.125 17.9375,30.125 L2.8125,30.125 C2.2955625,30.125 1.875,29.7044375 1.875,29.1875 L1.875,26.375 L18.875,26.375 L18.875,29.1875 Z M18.875,24.5 L1.875,24.5 L1.875,5.625 L18.875,5.625 L18.875,7.625 L17.9375,7.625 C16.3866875,7.625 15.125,8.8866875 15.125,10.4375 L15.125,17.9375 C15.125,19.4883125 16.3866875,20.75 17.9375,20.75 L18.875,20.75 C18.875,21.1808125 18.875,24.0958125 18.875,24.5 Z M30.125,17.9375 C30.125,18.4544375 29.7044375,18.875 29.1875,18.875 L23.5625,18.875 C23.313875,18.875 23.0754375,18.97375 22.899625,19.1495625 L20.75,21.2991875 L20.75,19.8126875 L20.75,19.8125 C20.75,19.29475 20.33025,18.875 19.8125,18.875 L17.9375,18.875 C17.4205625,18.875 17,18.4544375 17,17.9375 L17,10.4375 C17,9.9205625 17.4205625,9.5 17.9375,9.5 L29.1875,9.5 C29.7044375,9.5 30.125,9.9205625 30.125,10.4375 L30.125,17.9375 Z" id="Shape"></path>
                    <path d="M27.5555556,11.5555556 L20.4444444,11.5555556 C19.9535407,11.5555556 19.5555556,11.9535407 19.5555556,12.4444444 C19.5555556,12.9353481 19.9535407,13.3333333 20.4444444,13.3333333 L27.5555556,13.3333333 C28.0464593,13.3333333 28.4444444,12.9353481 28.4444444,12.4444444 C28.4444444,11.9535407 28.0464593,11.5555556 27.5555556,11.5555556 Z" id="Path"></path>
                    <path d="M23.1111111,15.1111111 L19.5555556,15.1111111 C19.0646519,15.1111111 18.6666667,15.5090963 18.6666667,16 C18.6666667,16.4909037 19.0646519,16.8888889 19.5555556,16.8888889 L23.1111111,16.8888889 C23.6020148,16.8888889 24,16.4909037 24,16 C24,15.5090963 23.6020148,15.1111111 23.1111111,15.1111111 Z" id="Path"></path>
                </g>
            </g>
        </g>
    </g>
</svg>