<svg xmlns="http://www.w3.org/2000/svg" width="61" height="60" fill="none" viewBox="0 0 61 60">
    <path fill="#2C2F33" d="M44.349 51.908l.311-.27a.585.585 0 0 0 .125-.122c.162-.184 3.796-4.31 5.177-7.48h.66c1.88 0 3.41-1.506 3.41-3.355v-5.3c0-1.85-1.53-3.355-3.41-3.355h-.734c-1.133-2.901-3.062-5.521-5.626-7.652-.373-1.31-.1-2.705.834-4.162a2.442 2.442 0 0 0-.013-2.669 2.53 2.53 0 0 0-2.452-1.138c-3.597.44-5.75 2.044-7.007 3.538a24.089 24.089 0 0 0-3.634-.698c-.672-.073-1.295.392-1.37 1.065a1.217 1.217 0 0 0 1.083 1.347c1.37.159 2.726.453 4.02.857a1.257 1.257 0 0 0 1.395-.478c.846-1.236 2.551-2.803 5.812-3.207.025 0 .05 0 .075.036.025.037.012.062 0 .074-1.295 2.032-1.68 4.15-1.108 6.133.013.355.174.686.46.906 2.627 2.081 4.531 4.726 5.502 7.652.162.502.647.832 1.17.832h1.593c.523 0 .946.416.946.93v5.302c0 .514-.423.93-.946.93h-1.506c-.535 0-1.02.343-1.182.857-.697 2.24-3.76 6.035-4.954 7.394l-.274.233c-2.564 2.277-2.825 4.97-2.838 5.779v1.701h-7.107v-1.64c0-.343-.149-.674-.41-.906a1.245 1.245 0 0 0-.959-.306c-1.817.183-3.646.159-5.414-.074a1.219 1.219 0 0 0-.97.294 1.192 1.192 0 0 0-.424.918v1.702h-7.107v-.478-.048c-.062-1.286-.473-4.542-3.062-7.162-1.22-1.237-2.315-2.877-3.26-4.86-.013-.013-.013-.025-.025-.05a14.283 14.283 0 0 1-1.27-3.342l-.012-.049c0-.012-.013-.024-.013-.036-.448-1.47-.398-3.318-.398-3.33v-.037c0-.808.074-1.628.199-2.424a1.21 1.21 0 0 0-1.008-1.396 1.227 1.227 0 0 0-1.42.992c-.16.918-.236 1.86-.236 2.803-.012.245-.037 2.302.498 4.077.324 1.31.822 2.596 1.456 3.82 1.046 2.228 2.303 4.077 3.71 5.509 1.979 2.008 2.315 4.53 2.364 5.558v.502c0 .049 0 .086.013.159C15.1 59.02 16.158 60 17.415 60h7.206c1.332 0 2.415-1.065 2.415-2.375v-.404c1.083.086 2.153.098 3.249.049v.355c0 1.31 1.082 2.375 2.414 2.375h7.207c1.331 0 2.414-1.065 2.414-2.375v-1.726c.025-.38.162-2.339 2.029-3.991z"/>
    <path fill="#0080FF" d="M7.072 23.432c0 5.497 4.543 9.978 10.144 9.978 5.588 0 10.144-4.469 10.144-9.978 0-5.497-4.543-9.977-10.144-9.977-5.589 0-10.144 4.468-10.144 9.977zm17.823 0c0 4.163-3.447 7.554-7.68 7.554-4.23 0-7.679-3.391-7.679-7.554 0-4.162 3.448-7.553 7.68-7.553 4.232 0 7.68 3.39 7.68 7.553zM35.873 6.954c0-3.832-3.174-6.954-7.07-6.954-3.895 0-7.07 3.122-7.07 6.954s3.175 6.953 7.07 6.953c3.896 0 7.07-3.121 7.07-6.953zm-11.687 0c0-2.498 2.066-4.53 4.605-4.53 2.54 0 4.605 2.032 4.605 4.53 0 2.497-2.066 4.53-4.605 4.53-2.54 0-4.605-2.033-4.605-4.53z"/>
</svg>
