<svg id="Layer_1" xmlns="http://www.w3.org/2000/svg" viewBox="-49 255.8 512 282.5"><style>.st0{fill:#ff507d}.st1{fill:#d23c69}.st2{fill:#ffdc64}.st3{fill:#ffc850}</style><path class="st0" d="M454.2 255.8H343.8c-2.4 0-4.4 2-4.4 4.4v3.9c0 9.5-7.3 17.7-16.8 18.1-10.1.5-18.5-7.6-18.5-17.6v-4.4c0-2.4-2-4.4-4.4-4.4H-40.2c-4.9 0-8.8 4-8.8 8.8v264.8c0 4.9 4 8.8 8.8 8.8h339.9c2.4 0 4.4-2 4.4-4.4v-3.9c0-9.5 7.3-17.7 16.8-18.1 10.1-.5 18.5 7.6 18.5 17.6v4.4c0 2.4 2 4.4 4.4 4.4h110.3c4.9 0 8.8-4 8.8-8.8V264.6c.1-4.9-3.9-8.8-8.7-8.8zM330.6 485.3c0 4.9-3.9 8.8-8.8 8.8s-8.8-4-8.8-8.8v-17.7c0-4.9 3.9-8.8 8.8-8.8s8.8 4 8.8 8.8v17.7zm0-53c0 4.9-3.9 8.8-8.8 8.8s-8.8-4-8.8-8.8v-17.7c0-4.9 3.9-8.8 8.8-8.8s8.8 4 8.8 8.8v17.7zm0-53c0 4.9-3.9 8.8-8.8 8.8s-8.8-4-8.8-8.8v-17.7c0-4.9 3.9-8.8 8.8-8.8s8.8 4 8.8 8.8v17.7zm0-52.9c0 4.9-3.9 8.8-8.8 8.8s-8.8-4-8.8-8.8v-17.7c0-4.9 3.9-8.8 8.8-8.8s8.8 4 8.8 8.8v17.7z"/><path class="st1" d="M330.6 308.7v17.7c0 4.9-3.9 8.8-8.8 8.8v17.7c4.9 0 8.8 4 8.8 8.8v17.7c0 4.9-3.9 8.8-8.8 8.8v17.7c4.9 0 8.8 4 8.8 8.8v17.7c0 4.9-3.9 8.8-8.8 8.8v17.7c4.9 0 8.8 4 8.8 8.8v17.7c0 4.9-3.9 8.8-8.8 8.8v17.7c9.8 0 17.7 7.9 17.7 17.7v4.4c0 2.4 2 4.4 4.4 4.4h110.3c4.9 0 8.8-4 8.8-8.8v-265c0-4.9-4-8.8-8.8-8.8H343.8c-2.4 0-4.4 2-4.4 4.4v4.4c0 9.8-7.9 17.7-17.7 17.7V300c4.9-.1 8.9 3.8 8.9 8.7z"/><path class="st2" d="M463 388.2H145.2V255.8h-17.6v132.4H-49v17.6h176.6v132.4h17.6V405.8H463z"/><path class="st3" d="M227 405.7c-5.8-4.5-5.8-13 0-17.5l.1-.1h-81.9v-81.9l-.1.1c-4.5 5.8-13 5.8-17.5 0l-.1-.1v81.9H45.7l.1.1c5.8 4.5 5.8 13 0 17.5l-.1.1h81.9v81.9l.1-.1c4.5-5.8 13-5.8 17.5 0l.1.1v-81.9h81.9c-.1 0-.2 0-.2-.1z"/><path class="st2" d="M168.5 397c18.7-6.2 41.3-15.6 53-27.2 7.7-7.7 12-18 12-28.9s-4.3-21.2-12-28.9c-7.7-7.7-18-12-28.9-12s-21.2 4.3-28.9 12c-11.7 11.7-21 34.3-27.2 53-6.2-18.7-15.6-41.3-27.2-53-7.7-7.7-18-12-28.9-12s-21.2 4.3-28.9 12c-7.7 7.7-12 18-12 28.9 0 10.9 4.3 21.2 12 28.9 11.7 11.7 34.3 21 53 27.2-18.7 6.2-41.3 15.6-53 27.2-7.7 7.7-12 18-12 28.9s4.3 21.2 12 28.9c7.7 7.7 18 12 28.9 12s21.2-4.3 28.9-12c11.7-11.7 21-34.3 27.2-53 6.2 18.7 15.6 41.3 27.2 53 7.7 7.7 18 12 28.9 12s21.2-4.3 28.9-12c7.7-7.7 12-18 12-28.9 0-10.9-4.3-21.2-12-28.9-11.7-11.6-34.3-21-53-27.2zm7.6-72.6c4.4-4.4 10.2-6.8 16.5-6.8s12.1 2.4 16.5 6.8 6.8 10.2 6.8 16.5-2.4 12.1-6.8 16.5c-11.6 11.6-40.5 21.7-60.3 27.4 5.6-19.9 15.7-48.9 27.3-60.4zM56.9 340.8c0-6.2 2.4-12.1 6.8-16.5s10.2-6.8 16.5-6.8 12.1 2.4 16.5 6.8c11.6 11.6 21.7 40.5 27.4 60.3-19.8-5.7-48.7-15.8-60.3-27.4-4.4-4.3-6.9-10.2-6.9-16.4zm39.8 128.8c-8.8 8.8-24.1 8.8-32.9 0-4.4-4.4-6.8-10.2-6.8-16.5s2.4-12.1 6.8-16.5c11.6-11.6 40.5-21.7 60.3-27.4-5.7 19.9-15.9 48.9-27.4 60.4zm112.3 0c-8.8 8.8-24.1 8.8-32.9 0-11.6-11.6-21.7-40.5-27.4-60.3 19.8 5.7 48.7 15.8 60.3 27.4 4.4 4.4 6.8 10.2 6.8 16.5s-2.4 12-6.8 16.4z"/></svg>