<svg id="Layer_1" xmlns="http://www.w3.org/2000/svg" viewBox="0 0 48 48"><style/><linearGradient id="SVGID_1_" gradientUnits="userSpaceOnUse" x1="21.913" y1="35.478" x2="26.087" y2="35.478"><stop offset="0" stop-color="#bd2a36"/><stop offset=".488" stop-color="#9a4599"/><stop offset="1" stop-color="#214181"/></linearGradient><path d="M24 33.4c-1.2 0-2.1.9-2.1 2.1 0 1.2.9 2.1 2.1 2.1s2.1-.9 2.1-2.1c0-1.2-.9-2.1-2.1-2.1z" fill="url(#SVGID_1_)"/><linearGradient id="SVGID_2_" gradientUnits="userSpaceOnUse" y1="24" x2="48" y2="24"><stop offset="0" stop-color="#bd2a36"/><stop offset=".488" stop-color="#9a4599"/><stop offset="1" stop-color="#214181"/></linearGradient><path d="M24 0C10.8 0 0 10.8 0 24s10.8 24 24 24 24-10.8 24-24S37.2 0 24 0zm0 45.9C11.9 45.9 2.1 36.1 2.1 24S11.9 2.1 24 2.1 45.9 11.9 45.9 24 36.1 45.9 24 45.9z" fill="url(#SVGID_2_)"/><linearGradient id="SVGID_3_" gradientUnits="userSpaceOnUse" x1="17.217" y1="19.304" x2="30.783" y2="19.304"><stop offset="0" stop-color="#bd2a36"/><stop offset=".488" stop-color="#9a4599"/><stop offset="1" stop-color="#214181"/></linearGradient><path d="M24 9.4c-3.7 0-6.8 3.1-6.8 7 0 .6.5 1 1 1 .6 0 1-.5 1-1 0-2.7 2.1-4.9 4.7-4.9s4.7 2.1 4.7 4.8c0 2.5-2.2 4.8-4.7 4.8-.6 0-1 .5-1 1v6.1c0 .6.5 1 1 1s1-.5 1-1V23c3.2-.5 5.7-3.4 5.7-6.8.2-3.7-2.9-6.8-6.6-6.8z" fill="url(#SVGID_3_)"/></svg>