<svg id="Layer_1" data-name="Layer 1" xmlns="http://www.w3.org/2000/svg" xmlns:xlink="http://www.w3.org/1999/xlink" viewBox="0 0 48 48"><defs><style>.cls-1{fill:url(#linear-gradient);}.cls-2{fill:#fff;}</style><linearGradient id="linear-gradient" x1="15.05" y1="48.37" x2="33.29" y2="2.78" gradientTransform="matrix(1, 0, 0, -1, 0, 50)" gradientUnits="userSpaceOnUse"><stop offset="0" stop-color="#bd2a36"/><stop offset="0.49" stop-color="#9a4599"/><stop offset="1" stop-color="#214181"/></linearGradient></defs><title>Artboard 1</title><circle class="cls-1" cx="24" cy="24" r="24"/><path class="cls-2" d="M22.6,30.23l-.08-1.05C22.27,27,23,24.64,25,22.23c1.8-2.13,2.81-3.69,2.81-5.5,0-2.05-1.29-3.42-3.82-3.46a7.21,7.21,0,0,0-4.06,1.25L19,12a10.51,10.51,0,0,1,5.75-1.61c4.62,0,6.7,2.85,6.7,5.91,0,2.73-1.52,4.7-3.45,7-1.77,2.09-2.41,3.85-2.29,5.9l0,1.05Zm-.89,5.62a2.38,2.38,0,0,1,2.41-2.53,2.51,2.51,0,1,1-2.41,2.53Z"/></svg>