<svg id="Layer_1" xmlns="http://www.w3.org/2000/svg" viewBox="0 0 48 48"><style/><linearGradient id="SVGID_1_" gradientUnits="userSpaceOnUse" y1="26.324" x2="45.04" y2="26.324"><stop offset="0" stop-color="#bd2a36"/><stop offset=".488" stop-color="#9a4599"/><stop offset="1" stop-color="#214181"/></linearGradient><path d="M6.3 37.9h3.3v8.6c0 .4.2.7.6.9.1 0 .3.1.4.1.2 0 .5-.1.7-.3l9.7-9.3h18.1c2.6 0 5-1.6 5.9-4 .2-.5 0-1.1-.5-1.2-.5-.2-1.1 0-1.3.5-.7 1.7-2.3 2.8-4.1 2.8H20.5c-.3 0-.5.1-.7.3l-8.3 8V37c0-.5-.4-1-1-1H6.3c-2.4 0-4.4-2-4.4-4.4v-20c0-2.4 2-4.4 4.4-4.4h20.1c.5 0 1-.4 1-1 0-.5-.4-1-1-1H6.3C2.8 5.2 0 8.1 0 11.6v20c0 3.4 2.8 6.3 6.3 6.3zm0 0" fill="url(#SVGID_1_)"/><linearGradient id="SVGID_2_" gradientUnits="userSpaceOnUse" x1="16.944" y1="15.557" x2="48" y2="15.557"><stop offset="0" stop-color="#bd2a36"/><stop offset=".488" stop-color="#9a4599"/><stop offset="1" stop-color="#214181"/></linearGradient><path d="M25 12.6c-.4-.5-.9-.8-1.5-.8h-4.6c-1.1 0-1.9.9-1.9 1.9v14.1c0 1.1.9 1.9 1.9 1.9h4.6c.5 0 .9-.2 1.3-.5.8.8 1.9 1.3 3.2 1.3h13c3 0 4.9-1.6 5.3-4.3L48 15v-.1c0-2.5-2-4.5-4.5-4.5h-6.4V5.9c0-2.1-.6-3.6-1.8-4.5C33.4 0 30.8.8 30.7.8c-.4.2-.7.5-.7.9V7c0 4.1-4.7 5.5-5 5.6zm-1.6 15.2h-4.6v-14h4.6v14zm2-13.3h.2c.3-.1 6.3-1.8 6.3-7.4V2.5c.6-.1 1.6-.1 2.2.4.7.5 1 1.5 1 2.9v5.5c0 .5.4 1 1 1h7.4c1.4 0 2.5 1.1 2.5 2.5l-1.7 11.1c-.2 1.8-1.3 2.6-3.3 2.6H27.9c-1.4 0-2.5-1.1-2.5-2.5V14.5zm0 0" fill="url(#SVGID_2_)"/></svg>