<?xml version="1.0" encoding="utf-8"?>
<!-- Generator: Adobe Illustrator 22.1.0, SVG Export Plug-In . SVG Version: 6.00 Build 0)  -->
<svg version="1.1" id="Capa_1" xmlns="http://www.w3.org/2000/svg" xmlns:xlink="http://www.w3.org/1999/xlink" x="0px" y="0px"
	 viewBox="0 0 512.5 352" style="enable-background:new 0 0 512.5 352;" xml:space="preserve">
<style type="text/css">
	.st0{fill:url(#SVGID_1_);}
</style>
<g>
	<linearGradient id="SVGID_1_" gradientUnits="userSpaceOnUse" x1="122.1351" y1="9.0809" x2="455.9727" y2="342.9185">
		<stop  offset="0" style="stop-color:#BD2A36"/>
		<stop  offset="0.5" style="stop-color:#9B4599"/>
		<stop  offset="1" style="stop-color:#214181"/>
	</linearGradient>
	<path class="st0" d="M112.5,128c61.9,0,112,50.1,112,112s-50.1,112-112,112s-112-50.1-112-112L0,224C0,100.3,100.3,0,224,0v64
		c-42.7,0-82.9,16.6-113.1,46.9c-5.8,5.8-11.1,12-15.9,18.5C100.7,128.5,106.5,128,112.5,128z M400.5,128c61.9,0,112,50.1,112,112
		s-50.1,112-112,112s-112-50.1-112-112l-0.5-16C288,100.3,388.3,0,512,0v64c-42.7,0-82.9,16.6-113.1,46.9
		c-5.8,5.8-11.1,12-15.9,18.5C388.7,128.5,394.5,128,400.5,128z"/>
</g>
</svg>
