<svg id="Group_90" data-name="Group 90" xmlns="http://www.w3.org/2000/svg" xmlns:xlink="http://www.w3.org/1999/xlink" viewBox="0 0 24.103 22.9">
  <defs>
    <style>
      .cls-1 {
        fill: url(#linear-gradient);
      }

      .cls-2 {
        fill: url(#linear-gradient-2);
      }

      .cls-3 {
        fill: url(#linear-gradient-3);
      }

      .cls-4 {
        fill: url(#linear-gradient-4);
      }

      .cls-5 {
        fill: url(#linear-gradient-5);
      }
    </style>
    <linearGradient id="linear-gradient" x1="-2.535" y1="-0.708" x2="4.144" y2="1.963" gradientUnits="objectBoundingBox">
      <stop offset="0" stop-color="#bd2a36"/>
      <stop offset="0.478" stop-color="#9929a6"/>
      <stop offset="0.595" stop-color="#77309c"/>
      <stop offset="0.779" stop-color="#49398d"/>
      <stop offset="0.919" stop-color="#2c3f84"/>
      <stop offset="1" stop-color="#214181"/>
    </linearGradient>
    <linearGradient id="linear-gradient-2" x1="-0.383" y1="-1.604" x2="0.85" y2="1.224" xlink:href="#linear-gradient"/>
    <linearGradient id="linear-gradient-3" x1="-4.075" y1="-5.003" x2="1.761" y2="1.972" xlink:href="#linear-gradient"/>
    <linearGradient id="linear-gradient-4" x1="-4.677" y1="-6.023" x2="2.284" y2="2.729" xlink:href="#linear-gradient"/>
    <linearGradient id="linear-gradient-5" x1="-0.235" y1="-0.297" x2="1.494" y2="1.567" xlink:href="#linear-gradient"/>
  </defs>
  <g id="Group_89" data-name="Group 89">
    <path id="Path_146" data-name="Path 146" class="cls-1" d="M.6,22.4a.645.645,0,0,1-.6-.6V14a.645.645,0,0,1,.6-.6H3a.645.645,0,0,1,.6.6v7.7a.645.645,0,0,1-.6.6H.6Z"/>
    <path id="Path_147" data-name="Path 147" class="cls-2" d="M4.8,15.1c-.1.1-.2.2-.2.3v5.3a.52.52,0,0,0,.2.4c2.4.4,5,1.8,7.6,1.8,2.4,0,5.5-.5,7.3-2.3,1.9-2,3.6-3.8,4.1-4.4.9-1.2-.4-2.3-1.4-1.3a28.075,28.075,0,0,1-3.9,3.6A2.627,2.627,0,0,1,16,20.1H9.5s.4-.6.9-.6H16a1.95,1.95,0,0,0,1.9-1.9A1.863,1.863,0,0,0,16,15.7H11.2a7.251,7.251,0,0,0-3.6-1.3,6.51,6.51,0,0,0-2.8.7Z"/>
    <path id="Path_148" data-name="Path 148" class="cls-3" d="M18.7,17.2c.3-.2,3.6-3.1,3.6-3.1s-.1-.5-.8-.3a12.917,12.917,0,0,0-3.3,2.7c-.1.2.2.6.5.7Z"/>
    <path id="Path_149" data-name="Path 149" class="cls-4" d="M18.1,15.8c.3-.2,2.9-2.4,2.9-2.4s-.1-.5-.8-.3a7.8,7.8,0,0,0-2.6,2c-.2.3.2.7.5.7Z"/>
  </g>
  <path id="Path_150" data-name="Path 150" class="cls-5" d="M16.5,0H12.8V1.8H11.1V0H7.5A2.456,2.456,0,0,0,5,2.4v8.1a2.433,2.433,0,0,0,2.4,2.4h9.1a2.433,2.433,0,0,0,2.4-2.4V2.4A2.309,2.309,0,0,0,16.5,0ZM13.4,7v3.6H11.3V7H9.7l2.6-3.1L14.9,7Z"/>
</svg>
