<svg xmlns="http://www.w3.org/2000/svg" width="40" height="40" viewBox="0 0 40 40">
  <g id="Group_661" data-name="Group 661" transform="translate(1228.516 501)">
    <path id="Path_1445" data-name="Path 1445" d="M-1209.372-481.077a2.007,2.007,0,0,1-2.006,2.007,2.008,2.008,0,0,1-2.007-2.007,2.007,2.007,0,0,1,2.007-2.006,2.007,2.007,0,0,1,2.006,2.006Zm0,0" transform="translate(-2.473 -3.259)" fill="#ff6f00"/>
    <g id="Group_660" data-name="Group 660" transform="translate(-1228.516 -501)">
      <path id="Path_1446" data-name="Path 1446" d="M-1196.625-472.933a2.006,2.006,0,0,1-2.007,2.006,2.006,2.006,0,0,1-2.006-2.006,2.007,2.007,0,0,1,2.006-2.007,2.007,2.007,0,0,1,2.007,2.007Zm0,0" transform="translate(1223.959 496.26)" fill="#ff6f00"/>
      <path id="Path_1447" data-name="Path 1447" d="M-1189.03-478.792l-.619-.827a2.567,2.567,0,0,1-.025-3.041l.6-.836a2.58,2.58,0,0,0-.919-3.8l-.92-.483a2.582,2.582,0,0,1-1.364-2.729l.176-1.008a2.618,2.618,0,0,0-2.51-3.033l-1.045-.041a2.657,2.657,0,0,1-2.443-1.877l-.292-.983a2.664,2.664,0,0,0-3.605-1.663l-.962.4a2.689,2.689,0,0,1-3.029-.655l-.694-.763a2.688,2.688,0,0,0-3.982.033l-.686.771a2.7,2.7,0,0,1-3.02.7l-.97-.393a2.675,2.675,0,0,0-3.58,1.721l-.276.992a2.631,2.631,0,0,1-2.409,1.91l-1.045.057a2.614,2.614,0,0,0-2.46,3.073l.192,1.008a2.581,2.581,0,0,1-1.322,2.746l-.912.5a2.572,2.572,0,0,0-.853,3.811l.619.828a2.567,2.567,0,0,1,.025,3.041l-.6.836a2.581,2.581,0,0,0,.92,3.8l.92.483a2.582,2.582,0,0,1,1.363,2.729l-.176,1.008a2.618,2.618,0,0,0,2.51,3.032l1.046.041a2.657,2.657,0,0,1,2.443,1.877l.293.983a2.664,2.664,0,0,0,3.605,1.663l.962-.4a2.692,2.692,0,0,1,3.029.656l.694.763a2.688,2.688,0,0,0,3.982-.033l.686-.771a2.7,2.7,0,0,1,3.02-.7l.97.393a2.674,2.674,0,0,0,3.58-1.721l.276-.992a2.63,2.63,0,0,1,2.409-1.91l1.046-.057a2.613,2.613,0,0,0,2.459-3.073l-.192-1.008a2.581,2.581,0,0,1,1.322-2.746l.912-.5a2.57,2.57,0,0,0,.853-3.812Zm-29.036-5.606a4.073,4.073,0,0,1,4.116-4.032,4.072,4.072,0,0,1,4.115,4.032,4.071,4.071,0,0,1-4.115,4.032,4.078,4.078,0,0,1-4.116-4.032Zm4.911,10.4a1.02,1.02,0,0,1-1.413.132.972.972,0,0,1-.135-1.385L-1203.9-488a1.021,1.021,0,0,1,1.414-.131.972.972,0,0,1,.134,1.385Zm10.055.418a4.072,4.072,0,0,1-4.116-4.032,4.072,4.072,0,0,1,4.116-4.032,4.071,4.071,0,0,1,4.115,4.032,4.071,4.071,0,0,1-4.115,4.032Zm0,0" transform="translate(1228.516 501)" fill="#ff6f00"/>
    </g>
  </g>
</svg>
