<?xml version="1.0" encoding="UTF-8"?>
<svg width="24px" height="24px" viewBox="0 0 24 24" version="1.1" xmlns="http://www.w3.org/2000/svg" xmlns:xlink="http://www.w3.org/1999/xlink">
    <!-- Generator: Sketch 58 (84663) - https://sketch.com -->
    <title>gh-normal</title>
    <desc>Created with Sketch.</desc>
    <g id="Fado-Desktop" stroke="none" stroke-width="1" fill="none" fill-rule="evenodd">
        <g id="Fado-product-detail-Delivery-time" transform="translate(-40.000000, -201.000000)">
            <g id="droplist" transform="translate(24.000000, 191.000000)">
                <g id="gh-normal" transform="translate(16.000000, 10.000000)">
                    <circle id="Oval" fill="#505F77" cx="12" cy="12" r="12"></circle>
                    <path d="M18.1874709,14.1250045 L17.8749717,14.1250045 L17.8749717,12.013689 C17.8749717,11.7656389 17.7753702,11.5273544 17.5995893,11.3515736 L15.6484145,9.40039873 C15.4726337,9.2246179 15.2343492,9.12501639 14.9862991,9.12501639 L14.1249806,9.12501639 L14.1249806,8.18751863 C14.1249806,7.66994174 13.7050598,7.25002086 13.1874829,7.25002086 L6.93749776,7.25002086 C6.41992087,7.25002086 6,7.66994174 6,8.18751863 L6,14.4375037 C6,14.9550806 6.41992087,15.3750015 6.93749776,15.3750015 L7.24999702,15.3750015 C7.24999702,16.4101553 8.08983877,17.249997 9.12499255,17.249997 C10.1601463,17.249997 10.9999881,16.4101553 10.9999881,15.3750015 L13.4999821,15.3750015 C13.4999821,16.4101553 14.3398239,17.249997 15.3749776,17.249997 C16.4101314,17.249997 17.2499732,16.4101553 17.2499732,15.3750015 L18.1874709,15.3750015 C18.3593417,15.3750015 18.4999702,15.234373 18.4999702,15.0625022 L18.4999702,14.4375037 C18.4999702,14.2656329 18.3593417,14.1250045 18.1874709,14.1250045 Z M9.12499255,16.3124993 C8.60741566,16.3124993 8.18749478,15.8925784 8.18749478,15.3750015 C8.18749478,14.8574246 8.60741566,14.4375037 9.12499255,14.4375037 C9.64256944,14.4375037 10.0624903,14.8574246 10.0624903,15.3750015 C10.0624903,15.8925784 9.64256944,16.3124993 9.12499255,16.3124993 Z M15.3749776,16.3124993 C14.8574008,16.3124993 14.4374799,15.8925784 14.4374799,15.3750015 C14.4374799,14.8574246 14.8574008,14.4375037 15.3749776,14.4375037 C15.8925545,14.4375037 16.3124754,14.8574246 16.3124754,15.3750015 C16.3124754,15.8925784 15.8925545,16.3124993 15.3749776,16.3124993 Z M16.9374739,12.2500089 L14.1249806,12.2500089 L14.1249806,10.0625142 L14.9862991,10.0625142 L16.9374739,12.013689 L16.9374739,12.2500089 Z" id="" fill="#FFFFFF" fill-rule="nonzero"></path>
                </g>
            </g>
        </g>
    </g>
</svg>