<?xml version="1.0" encoding="iso-8859-1"?>
<!-- Generator: Adobe Illustrator 21.0.0, SVG Export Plug-In . SVG Version: 6.00 Build 0)  -->
<svg version="1.1" id="Layer_1" xmlns="http://www.w3.org/2000/svg" xmlns:xlink="http://www.w3.org/1999/xlink" x="0px" y="0px"
	 viewBox="0 0 48 48" style="enable-background:new 0 0 48 48;" xml:space="preserve">
<g>
	<g>
		<linearGradient id="SVGID_1_" gradientUnits="userSpaceOnUse" x1="-7.736" y1="9.5639" x2="35.3956" y2="52.6955">
			<stop  offset="0" style="stop-color:#BE2B37"/>
			<stop  offset="0.478" style="stop-color:#913B96"/>
			<stop  offset="0.6115" style="stop-color:#743E8E"/>
			<stop  offset="0.7874" style="stop-color:#4E4087"/>
			<stop  offset="0.9227" style="stop-color:#304283"/>
			<stop  offset="1" style="stop-color:#224282"/>
		</linearGradient>
		<path style="fill:url(#SVGID_1_);" d="M33.21,32.533l-6.43-6.36c-0.407-0.407-0.962-0.632-1.53-0.632h-3.243v-1.214
			c0-0.906-0.737-1.636-1.643-1.636H1.636C0.73,22.692,0,23.421,0,24.327v10.95h33.855v-1.193
			C33.856,33.502,33.624,32.94,33.21,32.533z M30.409,32.743h-6.226c-0.14,0-0.253-0.112-0.253-0.253v-4.808
			c0-0.14,0.112-0.253,0.253-0.253h1.186c0.063,0,0.133,0.028,0.182,0.07l5.033,4.809C30.753,32.463,30.641,32.743,30.409,32.743z"
			/>
		<linearGradient id="SVGID_2_" gradientUnits="userSpaceOnUse" x1="-9.7881" y1="11.616" x2="33.3435" y2="54.7476">
			<stop  offset="0" style="stop-color:#BE2B37"/>
			<stop  offset="0.478" style="stop-color:#913B96"/>
			<stop  offset="0.6115" style="stop-color:#743E8E"/>
			<stop  offset="0.7874" style="stop-color:#4E4087"/>
			<stop  offset="0.9227" style="stop-color:#304283"/>
			<stop  offset="1" style="stop-color:#224282"/>
		</linearGradient>
		<path style="fill:url(#SVGID_2_);" d="M33.856,36.182v3.623c0,0.904-0.733,1.637-1.636,1.637h-1.751
			c-0.316-2.171-2.188-3.84-4.445-3.84c-2.253,0-4.124,1.669-4.44,3.84h-8.875c-0.316-2.171-2.187-3.84-4.44-3.84
			c-2.253,0-4.124,1.669-4.44,3.84H1.637C0.733,41.441,0,40.709,0,39.805v-3.623H33.856z"/>
		<linearGradient id="SVGID_3_" gradientUnits="userSpaceOnUse" x1="-7.1166" y1="8.9445" x2="36.015" y2="52.0761">
			<stop  offset="0" style="stop-color:#BE2B37"/>
			<stop  offset="0.478" style="stop-color:#913B96"/>
			<stop  offset="0.6115" style="stop-color:#743E8E"/>
			<stop  offset="0.7874" style="stop-color:#4E4087"/>
			<stop  offset="0.9227" style="stop-color:#304283"/>
			<stop  offset="1" style="stop-color:#224282"/>
		</linearGradient>
		<path style="fill:url(#SVGID_3_);" d="M26.029,38.696c-1.874,0-3.397,1.516-3.397,3.39c0,1.874,1.523,3.397,3.397,3.397
			c1.874,0,3.391-1.523,3.391-3.397C29.419,40.212,27.903,38.696,26.029,38.696z M26.029,43.785c-0.94,0-1.699-0.758-1.699-1.699
			c0-0.934,0.758-1.699,1.699-1.699c0.934,0,1.692,0.765,1.692,1.699C27.721,43.027,26.962,43.785,26.029,43.785z"/>
		<g>
			<linearGradient id="SVGID_4_" gradientUnits="userSpaceOnUse" x1="-15.9963" y1="17.8243" x2="27.1352" y2="60.9558">
				<stop  offset="0" style="stop-color:#BE2B37"/>
				<stop  offset="0.478" style="stop-color:#913B96"/>
				<stop  offset="0.6115" style="stop-color:#743E8E"/>
				<stop  offset="0.7874" style="stop-color:#4E4087"/>
				<stop  offset="0.9227" style="stop-color:#304283"/>
				<stop  offset="1" style="stop-color:#224282"/>
			</linearGradient>
			<path style="fill:url(#SVGID_4_);" d="M8.269,38.696c-1.874,0-3.398,1.516-3.398,3.39c0,1.874,1.523,3.397,3.398,3.397
				c1.874,0,3.39-1.523,3.39-3.397C11.66,40.212,10.143,38.696,8.269,38.696z M8.269,43.785c-0.941,0-1.699-0.758-1.699-1.699
				c0-0.934,0.758-1.699,1.699-1.699c0.933,0,1.699,0.765,1.699,1.699C9.968,43.027,9.203,43.785,8.269,43.785z"/>
		</g>
		<linearGradient id="SVGID_5_" gradientUnits="userSpaceOnUse" x1="8.2694" y1="43.785" x2="8.2694" y2="43.785">
			<stop  offset="0" style="stop-color:#BE2B37"/>
			<stop  offset="0.478" style="stop-color:#913B96"/>
			<stop  offset="0.6115" style="stop-color:#743E8E"/>
			<stop  offset="0.7874" style="stop-color:#4E4087"/>
			<stop  offset="0.9227" style="stop-color:#304283"/>
			<stop  offset="1" style="stop-color:#224282"/>
		</linearGradient>
		<path style="fill:url(#SVGID_5_);" d="M8.269,43.785"/>
	</g>
	<linearGradient id="SVGID_6_" gradientUnits="userSpaceOnUse" x1="12.0926" y1="-10.2647" x2="55.2242" y2="32.8669">
		<stop  offset="0" style="stop-color:#BE2B37"/>
		<stop  offset="0.478" style="stop-color:#913B96"/>
		<stop  offset="0.6115" style="stop-color:#743E8E"/>
		<stop  offset="0.7874" style="stop-color:#4E4087"/>
		<stop  offset="0.9227" style="stop-color:#304283"/>
		<stop  offset="1" style="stop-color:#224282"/>
	</linearGradient>
	<rect x="34.303" y="11.53" style="fill:url(#SVGID_6_);" width="0.827" height="1.659"/>
	<linearGradient id="SVGID_7_" gradientUnits="userSpaceOnUse" x1="2.69" y1="-0.862" x2="45.8215" y2="42.2696">
		<stop  offset="0" style="stop-color:#BE2B37"/>
		<stop  offset="0.478" style="stop-color:#913B96"/>
		<stop  offset="0.6115" style="stop-color:#743E8E"/>
		<stop  offset="0.7874" style="stop-color:#4E4087"/>
		<stop  offset="0.9227" style="stop-color:#304283"/>
		<stop  offset="1" style="stop-color:#224282"/>
	</linearGradient>
	<rect x="34.303" y="30.335" style="fill:url(#SVGID_7_);" width="0.827" height="1.661"/>
	<linearGradient id="SVGID_8_" gradientUnits="userSpaceOnUse" x1="12.0922" y1="-10.2643" x2="55.2238" y2="32.8673">
		<stop  offset="0" style="stop-color:#BE2B37"/>
		<stop  offset="0.478" style="stop-color:#913B96"/>
		<stop  offset="0.6115" style="stop-color:#743E8E"/>
		<stop  offset="0.7874" style="stop-color:#4E4087"/>
		<stop  offset="0.9227" style="stop-color:#304283"/>
		<stop  offset="1" style="stop-color:#224282"/>
	</linearGradient>
	<rect x="43.289" y="21.349" style="fill:url(#SVGID_8_);" width="1.661" height="0.828"/>
	<linearGradient id="SVGID_9_" gradientUnits="userSpaceOnUse" x1="2.69" y1="-0.862" x2="45.8215" y2="42.2695">
		<stop  offset="0" style="stop-color:#BE2B37"/>
		<stop  offset="0.478" style="stop-color:#913B96"/>
		<stop  offset="0.6115" style="stop-color:#743E8E"/>
		<stop  offset="0.7874" style="stop-color:#4E4087"/>
		<stop  offset="0.9227" style="stop-color:#304283"/>
		<stop  offset="1" style="stop-color:#224282"/>
	</linearGradient>
	<rect x="24.484" y="21.349" style="fill:url(#SVGID_9_);" width="1.661" height="0.828"/>
	<linearGradient id="SVGID_10_" gradientUnits="userSpaceOnUse" x1="26.1451" y1="22.1766" x2="26.1451" y2="22.1766">
		<stop  offset="0" style="stop-color:#BE2B37"/>
		<stop  offset="0.478" style="stop-color:#913B96"/>
		<stop  offset="0.6115" style="stop-color:#743E8E"/>
		<stop  offset="0.7874" style="stop-color:#4E4087"/>
		<stop  offset="0.9227" style="stop-color:#304283"/>
		<stop  offset="1" style="stop-color:#224282"/>
	</linearGradient>
	<path style="fill:url(#SVGID_10_);" d="M26.145,22.177"/>
	<g>
		<linearGradient id="SVGID_11_" gradientUnits="userSpaceOnUse" x1="4.6733" y1="-2.8453" x2="47.8048" y2="40.2862">
			<stop  offset="0" style="stop-color:#BE2B37"/>
			<stop  offset="0.478" style="stop-color:#913B96"/>
			<stop  offset="0.6115" style="stop-color:#743E8E"/>
			<stop  offset="0.7874" style="stop-color:#4E4087"/>
			<stop  offset="0.9227" style="stop-color:#304283"/>
			<stop  offset="1" style="stop-color:#224282"/>
		</linearGradient>
		<path style="fill:url(#SVGID_11_);" d="M27.389,25.771v-1.522c0.253-0.165,0.464-0.305,0.632-0.42
			c0.223-0.152,0.423-0.297,0.602-0.435c0.425-0.327,0.794-0.664,1.108-1.012c0.128-0.138,0.246-0.276,0.354-0.415
			c0.132-0.169,0.246-0.332,0.344-0.491c0.239-0.395,0.359-0.745,0.359-1.052c0-0.496-0.241-0.743-0.723-0.743
			c-0.317,0-0.548,0.13-0.693,0.389c-0.108,0.192-0.17,0.465-0.187,0.819h-1.866c0.01-0.371,0.044-0.676,0.101-0.915
			c0.067-0.303,0.185-0.585,0.354-0.845c0.25-0.384,0.592-0.679,1.027-0.885c0.405-0.189,0.85-0.283,1.335-0.283
			c0.526,0,0.996,0.108,1.411,0.324c0.455,0.236,0.789,0.577,1.001,1.022c0.132,0.297,0.197,0.59,0.197,0.88
			c0,0.395-0.079,0.786-0.238,1.173c-0.138,0.344-0.341,0.691-0.607,1.042c-0.219,0.29-0.492,0.595-0.819,0.915
			c-0.132,0.128-0.28,0.266-0.445,0.415c-0.115,0.108-0.261,0.238-0.44,0.389h2.6v1.649H27.389z"/>
		<linearGradient id="SVGID_12_" gradientUnits="userSpaceOnUse" x1="8.3003" y1="-6.4724" x2="51.4319" y2="36.6592">
			<stop  offset="0" style="stop-color:#BE2B37"/>
			<stop  offset="0.478" style="stop-color:#913B96"/>
			<stop  offset="0.6115" style="stop-color:#743E8E"/>
			<stop  offset="0.7874" style="stop-color:#4E4087"/>
			<stop  offset="0.9227" style="stop-color:#304283"/>
			<stop  offset="1" style="stop-color:#224282"/>
		</linearGradient>
		<path style="fill:url(#SVGID_12_);" d="M38.662,24.426v1.345h-1.871v-1.345h-3.379v-1.431l3.429-4.891h1.821v4.79h0.85v1.533
			H38.662z M36.912,20.491h-0.02l-1.512,2.402h1.533V20.491z"/>
	</g>
	<g>
		<linearGradient id="SVGID_13_" gradientUnits="userSpaceOnUse" x1="11.1677" y1="-9.3397" x2="54.2993" y2="33.7918">
			<stop  offset="0" style="stop-color:#BE2B37"/>
			<stop  offset="0.478" style="stop-color:#913B96"/>
			<stop  offset="0.6115" style="stop-color:#743E8E"/>
			<stop  offset="0.7874" style="stop-color:#4E4087"/>
			<stop  offset="0.9227" style="stop-color:#304283"/>
			<stop  offset="1" style="stop-color:#224282"/>
		</linearGradient>
		<path style="fill:url(#SVGID_13_);" d="M41.742,21.959v-1.563c0-0.18-0.03-0.319-0.091-0.417c-0.076-0.123-0.2-0.185-0.372-0.185
			c-0.174,0-0.3,0.054-0.379,0.162c-0.067,0.093-0.101,0.228-0.101,0.407v1.596h-0.86v-3.834h0.86v1.224h0.01
			c0.071-0.126,0.177-0.221,0.319-0.283c0.121-0.054,0.262-0.081,0.422-0.081c0.341,0,0.601,0.105,0.781,0.316
			c0.123,0.142,0.202,0.308,0.238,0.498c0.015,0.076,0.024,0.165,0.028,0.268c0.002,0.04,0.003,0.088,0.005,0.142v1.75H41.742z"/>
	</g>
	<linearGradient id="SVGID_14_" gradientUnits="userSpaceOnUse" x1="9.7502" y1="-7.9223" x2="52.8818" y2="35.2093">
		<stop  offset="0" style="stop-color:#BE2B37"/>
		<stop  offset="0.478" style="stop-color:#913B96"/>
		<stop  offset="0.6115" style="stop-color:#743E8E"/>
		<stop  offset="0.7874" style="stop-color:#4E4087"/>
		<stop  offset="0.9227" style="stop-color:#304283"/>
		<stop  offset="1" style="stop-color:#224282"/>
	</linearGradient>
	<path style="fill:url(#SVGID_14_);" d="M34.59,10.167c2.262,0,4.462,0.667,6.349,1.881L39.5,13.487l6.36,1.661L44.2,8.788
		l-2.063,2.063c-1.363-0.932-2.885-1.594-4.485-1.969V7.254c1.219-0.11,2.173-1.114,2.173-2.361c0-1.312-1.065-2.377-2.377-2.377
		h-5.176c-1.312,0-2.377,1.065-2.377,2.377c0,1.247,0.955,2.251,2.173,2.361v1.507c-6.142,1.17-10.807,6.536-10.887,12.992h1.655
		C22.928,15.349,28.165,10.167,34.59,10.167z"/>
	<linearGradient id="SVGID_15_" gradientUnits="userSpaceOnUse" x1="7.376" y1="-5.548" x2="50.5075" y2="37.5835">
		<stop  offset="0" style="stop-color:#BE2B37"/>
		<stop  offset="0.478" style="stop-color:#913B96"/>
		<stop  offset="0.6115" style="stop-color:#743E8E"/>
		<stop  offset="0.7874" style="stop-color:#4E4087"/>
		<stop  offset="0.9227" style="stop-color:#304283"/>
		<stop  offset="1" style="stop-color:#224282"/>
	</linearGradient>
	<path style="fill:url(#SVGID_15_);" d="M48,21.922h-1.655c0,6.313-5.008,11.479-11.252,11.744v1.656
		C42.252,35.057,48,29.151,48,21.922z"/>
</g>
<g>
</g>
<g>
</g>
<g>
</g>
<g>
</g>
<g>
</g>
<g>
</g>
</svg>
