<?xml version="1.0" encoding="UTF-8"?>
<svg width="24px" height="24px" viewBox="0 0 24 24" version="1.1" xmlns="http://www.w3.org/2000/svg" xmlns:xlink="http://www.w3.org/1999/xlink">
    <!-- Generator: Sketch 58 (84663) - https://sketch.com -->
    <title>gh-fast</title>
    <desc>Created with Sketch.</desc>
    <g id="Fado-Desktop" stroke="none" stroke-width="1" fill="none" fill-rule="evenodd">
        <g id="Fado-product-detail-Delivery-time" transform="translate(-40.000000, -298.000000)">
            <g id="droplist" transform="translate(24.000000, 191.000000)">
                <g id="gh-fast" transform="translate(16.000000, 107.000000)">
                    <circle id="Oval" fill="#CC353B" cx="12" cy="12" r="12"></circle>
                    <path d="M18.1874709,14.1250045 L17.8749717,14.1250045 L17.8749717,12.013689 C17.8749717,11.7656389 17.7753702,11.5273544 17.5995893,11.3515736 L15.6484145,9.40039873 C15.4726337,9.2246179 15.2343492,9.12501639 14.9862991,9.12501639 L14.1249806,9.12501639 L14.1249806,8.18751863 C14.1249806,7.66994174 13.7050598,7.25002086 13.1874829,7.25002086 L8.18749478,7.25002086 C7.66991789,7.25002086 7.24999702,7.66994174 7.24999702,8.18751863 L7.24999702,9.12501639 L6.15624963,9.12501639 C6.0703047,9.12501639 6,9.19532109 6,9.28126602 L6,9.59376527 C6,9.6797102 6.0703047,9.75002086 6.15624963,9.75002086 L11.468737,9.75002086 C11.5546819,9.75002086 11.6249866,9.8203196 11.6249866,9.90626453 L11.6249866,10.2187638 C11.6249866,10.3047087 11.5546819,10.3750134 11.468737,10.3750134 L6.78124814,10.3750134 C6.69530321,10.3750134 6.62499851,10.4453181 6.62499851,10.531263 L6.62499851,10.8437623 C6.62499851,10.9297072 6.69530321,11.0000119 6.78124814,11.0000119 L10.8437385,11.0000119 C10.9296834,11.0000119 10.9999881,11.0703166 10.9999881,11.1562615 L10.9999881,11.4687608 C10.9999881,11.5547057 10.9296834,11.6250104 10.8437385,11.6250104 L6.15624963,11.6250104 C6.0703047,11.6250104 6,11.6953151 6,11.7812601 L6,12.0937593 C6,12.1797042 6.0703047,12.2500089 6.15624963,12.2500089 L10.2187399,12.2500089 C10.3046849,12.2500089 10.3749896,12.3203136 10.3749896,12.4062586 L10.3749896,12.7187578 C10.3749896,12.8047027 10.3046849,12.8750075 10.2187399,12.8750075 L7.24999702,12.8750075 L7.24999702,15.3750015 C7.24999702,16.4101553 8.08983877,17.249997 9.12499255,17.249997 C10.1601463,17.249997 10.9999881,16.4101553 10.9999881,15.3750015 L13.4999821,15.3750015 C13.4999821,16.4101553 14.3398239,17.249997 15.3749776,17.249997 C16.4101314,17.249997 17.2499732,16.4101553 17.2499732,15.3750015 L18.1874709,15.3750015 C18.3593417,15.3750015 18.4999702,15.234373 18.4999702,15.0625022 L18.4999702,14.4375037 C18.4999702,14.2656329 18.3593417,14.1250045 18.1874709,14.1250045 Z M9.12499255,16.3124993 C8.60741566,16.3124993 8.18749478,15.8925784 8.18749478,15.3750015 C8.18749478,14.8574246 8.60741566,14.4375037 9.12499255,14.4375037 C9.64256944,14.4375037 10.0624903,14.8574246 10.0624903,15.3750015 C10.0624903,15.8925784 9.64256944,16.3124993 9.12499255,16.3124993 Z M15.3749776,16.3124993 C14.8574008,16.3124993 14.4374799,15.8925784 14.4374799,15.3750015 C14.4374799,14.8574246 14.8574008,14.4375037 15.3749776,14.4375037 C15.8925545,14.4375037 16.3124754,14.8574246 16.3124754,15.3750015 C16.3124754,15.8925784 15.8925545,16.3124993 15.3749776,16.3124993 Z M16.9374739,12.2500089 L14.1249806,12.2500089 L14.1249806,10.0625142 L14.9862991,10.0625142 L16.9374739,12.013689 L16.9374739,12.2500089 Z" id="" fill="#FFFFFF" fill-rule="nonzero"></path>
                </g>
            </g>
        </g>
    </g>
</svg>