<svg xmlns="http://www.w3.org/2000/svg" width="61" height="61" fill="none" viewBox="0 0 61 61">
    <path fill="#2C2F33" d="M30.494 0C24.005 0 18.73 5.275 18.73 11.764v.285h-7.777c-.632 0-1.164.483-1.226 1.114L6.185 53.124v.112c0 4.284 3.95 7.764 8.817 7.764h30.996c4.866 0 8.817-3.48 8.817-7.764v-.112l-3.554-39.96a1.226 1.226 0 0 0-1.226-1.115h-7.777v-.285C42.258 5.275 36.983 0 30.494 0zm-9.312 11.764c0-5.139 4.173-9.312 9.312-9.312 5.139 0 9.312 4.173 9.312 9.312v.285H21.182v-.285zm27.726 2.737l3.442 38.784c-.037 2.91-2.873 5.263-6.365 5.263H15.002c-3.492 0-6.328-2.353-6.365-5.263l3.443-38.784h6.65v5.671a1.22 1.22 0 0 0 1.226 1.226 1.22 1.22 0 0 0 1.226-1.226v-5.671h18.624v5.671a1.22 1.22 0 0 0 1.226 1.226 1.22 1.22 0 0 0 1.226-1.226v-5.671h6.65z"/>
    <path fill="#0080FF" d="M37.07 31.776l-9.251 9.25-3.9-3.9a1.218 1.218 0 0 0-1.734 0 1.218 1.218 0 0 0 0 1.733l4.767 4.767c.235.236.557.36.867.36.31 0 .632-.124.867-.36L38.803 33.51a1.218 1.218 0 0 0 0-1.733 1.241 1.241 0 0 0-1.734 0z"/>
</svg>
