<svg xmlns="http://www.w3.org/2000/svg" viewBox="0 0 40 38.286">
  <defs>
    <style>
      .cls-1 {
        fill: #ffdc64;
      }

      .cls-2 {
        fill: #fff082;
      }

      .cls-3 {
        fill: #ffc850;
      }
    </style>
  </defs>
  <g id="user-vote-star-check" transform="translate(-134.5 -11.017)">
    <path id="Path_1" data-name="Path 1" class="cls-1" d="M169.868,22.5,159.42,21.53l-4.151-9.637a.837.837,0,0,0-1.538,0l-4.15,9.637-10.449.969a.838.838,0,0,0-.475,1.463l7.883,6.926-2.307,10.236a.838.838,0,0,0,1.245.9l9.022-5.357,9.023,5.357a.837.837,0,0,0,1.244-.9L162.46,30.888l7.884-6.926A.838.838,0,0,0,169.868,22.5Z"/>
    <g id="Group_1" data-name="Group 1">
      <path id="Path_2" data-name="Path 2" class="cls-2" d="M143.819,11.561c.532.74,2.036,3.917,2.9,5.769a.29.29,0,0,1-.463.333c-1.483-1.4-4.02-3.836-4.552-4.576a1.306,1.306,0,1,1,2.12-1.526Z"/>
      <path id="Path_3" data-name="Path 3" class="cls-2" d="M165.182,11.561c-.533.74-2.036,3.917-2.9,5.769a.29.29,0,0,0,.463.333c1.484-1.4,4.02-3.836,4.553-4.576a1.306,1.306,0,1,0-2.12-1.526Z"/>
      <path id="Path_4" data-name="Path 4" class="cls-2" d="M173.6,33.257c-.867-.283-4.351-.75-6.376-1.006a.291.291,0,0,0-.177.543c1.787.987,4.876,2.664,5.743,2.946a1.306,1.306,0,1,0,.81-2.483Z"/>
      <path id="Path_5" data-name="Path 5" class="cls-2" d="M135.4,33.257c.866-.283,4.35-.75,6.376-1.006a.291.291,0,0,1,.177.543c-1.787.987-4.877,2.664-5.743,2.946a1.306,1.306,0,1,1-.81-2.483Z"/>
      <path id="Path_6" data-name="Path 6" class="cls-2" d="M153.234,48c0-.911.636-4.368,1.021-6.373a.291.291,0,0,1,.571,0c.384,2.005,1.02,5.462,1.02,6.373a1.306,1.306,0,0,1-2.612,0Z"/>
    </g>
    <path id="Path_7" data-name="Path 7" class="cls-3" d="M156.778,15.4l-1.509-3.5a.837.837,0,0,0-1.538,0l-4.15,9.637-10.449.969a.838.838,0,0,0-.475,1.463l7.883,6.926-2.307,10.236a.838.838,0,0,0,1.245.9l1.2-.713A65.027,65.027,0,0,1,156.778,15.4Z"/>
  </g>
</svg>
