<svg xmlns="http://www.w3.org/2000/svg" viewBox="0 0 40 38.336">
  <defs>
    <style>
      .cls-1 {
        fill: #ffdc64;
      }
    </style>
  </defs>
  <g id="user-vote-star-uncheck" transform="translate(-335.464 -11.652)">
    <path id="Path_1" data-name="Path 1" class="cls-1" d="M363.839,31.736l7.391-6.492a1.4,1.4,0,0,0-.794-2.444l-9.8-.908-1.834-4.26a.586.586,0,1,0-1.076.464l1.972,4.579a.585.585,0,0,0,.484.351l10.142.941a.227.227,0,0,1,.129.4L362.8,31.086a.583.583,0,0,0-.184.569l2.239,9.936a.227.227,0,0,1-.337.245l-8.758-5.2a.583.583,0,0,0-.6,0l-8.758,5.2a.227.227,0,0,1-.338-.245l1.157-5.129a.586.586,0,0,0-1.144-.258l-1.156,5.13a1.4,1.4,0,0,0,1.363,1.709,1.4,1.4,0,0,0,.716-.2l8.459-5.023,8.459,5.023A1.4,1.4,0,0,0,366,41.333Z"/>
    <path id="Path_2" data-name="Path 2" class="cls-1" d="M339.7,25.244l7.391,6.492-.48,2.132a.585.585,0,0,0,.443.7.568.568,0,0,0,.129.015.586.586,0,0,0,.571-.457l.557-2.471a.586.586,0,0,0-.185-.569l-7.652-6.723a.227.227,0,0,1,.128-.4l10.143-.941a.585.585,0,0,0,.484-.351l4.028-9.355a.227.227,0,0,1,.417,0l1.094,2.541a.586.586,0,1,0,1.076-.464l-1.094-2.541a1.4,1.4,0,0,0-2.569,0l-3.891,9.036-9.8.908a1.4,1.4,0,0,0-.794,2.444Z"/>
    <path id="Path_3" data-name="Path 3" class="cls-1" d="M348.113,20.109a.586.586,0,0,0,.933-.672c-.277-.607-2.721-5.968-3.474-7.014h0a1.854,1.854,0,0,0-3.009,2.166C343.316,15.635,347.624,19.654,348.113,20.109Zm-4.444-7.156a.682.682,0,0,1,.4-.129.692.692,0,0,1,.111.009.679.679,0,0,1,.444.275h0a44.049,44.049,0,0,1,2.069,4.041,44.044,44.044,0,0,1-3.176-3.244A.684.684,0,0,1,343.669,12.953Z"/>
    <path id="Path_4" data-name="Path 4" class="cls-1" d="M362.075,20.155a.584.584,0,0,0,.741-.046c.489-.455,4.8-4.474,5.55-5.519a1.854,1.854,0,0,0-3.009-2.167c-.753,1.046-3.2,6.407-3.473,7.015A.584.584,0,0,0,362.075,20.155Zm4.233-7.047h0a.681.681,0,0,1,.444-.275.692.692,0,0,1,.111-.009.683.683,0,0,1,.552,1.081,43.977,43.977,0,0,1-3.175,3.244A43.851,43.851,0,0,1,366.308,13.108Z"/>
    <path id="Path_5" data-name="Path 5" class="cls-1" d="M375.263,34.191a1.847,1.847,0,0,0-1.078-.923h0c-1.225-.4-7.075-1.1-7.738-1.178a.586.586,0,0,0-.356,1.093c.581.327,5.719,3.21,6.944,3.61a1.854,1.854,0,0,0,2.228-2.6Zm-1.005,1.051a.68.68,0,0,1-.859.437,44.02,44.02,0,0,1-4.056-2.04,43.98,43.98,0,0,1,4.479.743.682.682,0,0,1,.436.86Z"/>
    <path id="Path_6" data-name="Path 6" class="cls-1" d="M345.108,32.49a.585.585,0,0,0-.625-.4c-.663.079-6.513.779-7.738,1.178h0a1.854,1.854,0,1,0,1.149,3.525c1.225-.4,6.363-3.283,6.945-3.61A.586.586,0,0,0,345.108,32.49Zm-7.577,3.189a.681.681,0,0,1-.86-.437.684.684,0,0,1,.437-.86,44,44,0,0,1,4.478-.743A44.04,44.04,0,0,1,337.531,35.679Z"/>
    <path id="Path_7" data-name="Path 7" class="cls-1" d="M355.5,39.941a.586.586,0,0,0-.575.471c-.131.655-1.279,6.433-1.279,7.722a1.854,1.854,0,1,0,3.707,0c0-1.289-1.148-7.067-1.279-7.722A.586.586,0,0,0,355.5,39.941Zm0,8.875a.683.683,0,0,1-.682-.682,43.653,43.653,0,0,1,.682-4.488,43.858,43.858,0,0,1,.681,4.488A.682.682,0,0,1,355.5,48.816Z"/>
  </g>
</svg>
