<?xml version="1.0" encoding="utf-8"?>
<!-- Generator: Adobe Illustrator 22.0.1, SVG Export Plug-In . SVG Version: 6.00 Build 0)  -->
<svg version="1.1" id="Layer_1" xmlns="http://www.w3.org/2000/svg" xmlns:xlink="http://www.w3.org/1999/xlink" x="0px" y="0px"
	 viewBox="0 0 48 48" style="enable-background:new 0 0 48 48;" xml:space="preserve">
<style type="text/css">
	.st0{fill:url(#SVGID_1_);}
	.st1{fill:url(#SVGID_2_);}
	.st2{fill:url(#SVGID_3_);}
	.st3{fill:url(#SVGID_4_);}
	.st4{fill:url(#SVGID_5_);}
	.st5{fill:url(#SVGID_6_);}
	.st6{fill:url(#SVGID_7_);}
	.st7{fill:url(#SVGID_8_);}
	.st8{fill:url(#SVGID_9_);}
	.st9{fill:url(#SVGID_10_);}
	.st10{fill:url(#SVGID_11_);}
	.st11{fill:url(#SVGID_12_);}
	.st12{fill:url(#SVGID_13_);}
	.st13{fill:url(#SVGID_14_);}
	.st14{fill:url(#SVGID_15_);}
	.st15{fill:url(#SVGID_16_);}
	.st16{fill:url(#SVGID_17_);}
	.st17{fill:url(#SVGID_18_);}
	.st18{fill:url(#SVGID_19_);}
	.st19{fill:url(#SVGID_20_);}
	.st20{fill:url(#SVGID_21_);}
	.st21{fill:url(#SVGID_22_);}
	.st22{fill:url(#SVGID_23_);}
	.st23{fill:url(#SVGID_24_);}
	.st24{fill:url(#SVGID_25_);}
	.st25{fill:url(#SVGID_26_);}
	.st26{fill:url(#SVGID_27_);}
	.st27{fill:url(#SVGID_28_);}
	.st28{fill:url(#SVGID_29_);}
	.st29{fill:url(#SVGID_30_);}
	.st30{fill:url(#SVGID_31_);}
	.st31{fill:url(#SVGID_32_);}
	.st32{fill:url(#SVGID_33_);}
	.st33{fill:url(#SVGID_34_);}
	.st34{fill:url(#SVGID_35_);}
	.st35{fill:url(#SVGID_36_);}
	.st36{fill:url(#SVGID_37_);}
	.st37{fill:url(#SVGID_38_);}
	.st38{fill:url(#SVGID_39_);}
	.st39{fill:url(#SVGID_40_);}
	.st40{fill:url(#SVGID_41_);}
	.st41{fill:url(#SVGID_42_);}
	.st42{fill:url(#XMLID_2_);}
	.st43{fill:url(#XMLID_3_);}
</style>
<g>
	<linearGradient id="SVGID_1_" gradientUnits="userSpaceOnUse" x1="-4.4432" y1="6.0036" x2="43.5568" y2="51.6702">
		<stop  offset="0" style="stop-color:#BD2A36"/>
		<stop  offset="0.4882" style="stop-color:#9A4599"/>
		<stop  offset="1" style="stop-color:#214181"/>
	</linearGradient>
	<path class="st0" d="M47.3,19.2H28.9V0.7c0-0.4-0.3-0.7-0.7-0.7H3C2.5,0,2.3,0.3,2.3,0.7V21c0,0.4,0.3,0.7,0.7,0.7s0.7-0.3,0.7-0.7
		V1.5h23.8v40.7H7.1v-2.8c3.1-0.4,5.6-3.1,5.6-6.3c0-3.3-5.2-10.5-5.7-11.3c-0.3-0.4-0.9-0.4-1.2,0C5.2,22.5,0,29.7,0,32.9
		c0,3.3,2.5,6,5.6,6.3c0,4.1,0,4.3,0,7.3l-4.9,0.1c-0.4,0-0.7,0.3-0.7,0.7S0.3,48,0.7,48l0,0c0,0,46.3,0,46.5,0
		c0.4,0,0.7-0.3,0.7-0.7V19.9C48,19.5,47.7,19.2,47.3,19.2z M27.5,43.6v3H7.1v-3H27.5z M1.5,32.9c0-2.1,3.1-7.1,4.9-9.6
		c1.7,2.5,4.9,7.6,4.9,9.6c0,2.5-1.8,4.4-4.1,4.8v-4.2c0-0.4-0.3-0.7-0.7-0.7c-0.4,0-0.7,0.3-0.7,0.7v4.3
		C3.3,37.5,1.5,35.4,1.5,32.9z M35.2,46.5V35.4h5.1v11.1L35.2,46.5L35.2,46.5z M46.5,46.5h-4.8V34.7c0-0.4-0.3-0.7-0.7-0.7h-6.5
		c-0.4,0-0.7,0.3-0.7,0.7v11.9h-4.8V20.7h17.6V46.5z"/>
	<linearGradient id="SVGID_2_" gradientUnits="userSpaceOnUse" x1="1.8735" y1="-0.6359" x2="49.8735" y2="45.0307">
		<stop  offset="0" style="stop-color:#BD2A36"/>
		<stop  offset="0.4882" style="stop-color:#9A4599"/>
		<stop  offset="1" style="stop-color:#214181"/>
	</linearGradient>
	<path class="st1" d="M7.6,11.1h5.6c0.4,0,0.7-0.3,0.7-0.7V4.6c0-0.4-0.3-0.7-0.7-0.7H7.6c-0.4,0-0.7,0.3-0.7,0.7v5.7
		C6.8,10.8,7.2,11.1,7.6,11.1z M8.3,5.3h4.1v4.3H8.3L8.3,5.3z"/>
	<linearGradient id="SVGID_3_" gradientUnits="userSpaceOnUse" x1="6.8146" y1="-5.8295" x2="54.8146" y2="39.8372">
		<stop  offset="0" style="stop-color:#BD2A36"/>
		<stop  offset="0.4882" style="stop-color:#9A4599"/>
		<stop  offset="1" style="stop-color:#214181"/>
	</linearGradient>
	<path class="st2" d="M18,11.1h5.6c0.4,0,0.7-0.3,0.7-0.7V4.6c0-0.4-0.3-0.7-0.7-0.7H18c-0.4,0-0.7,0.3-0.7,0.7v5.7
		C17.2,10.8,17.6,11.1,18,11.1z M18.7,5.3h4.1v4.3h-4.1V5.3z"/>
	<linearGradient id="SVGID_4_" gradientUnits="userSpaceOnUse" x1="-2.8907" y1="4.3718" x2="45.1093" y2="50.0384">
		<stop  offset="0" style="stop-color:#BD2A36"/>
		<stop  offset="0.4882" style="stop-color:#9A4599"/>
		<stop  offset="1" style="stop-color:#214181"/>
	</linearGradient>
	<path class="st3" d="M6.8,19.9c0,0.4,0.3,0.7,0.7,0.7h5.6c0.4,0,0.7-0.3,0.7-0.7v-5.7c0-0.4-0.3-0.7-0.7-0.7H7.6
		c-0.4,0-0.7,0.3-0.7,0.7L6.8,19.9z M8.3,14.9h4.1v4.3H8.3L8.3,14.9z"/>
	<linearGradient id="SVGID_5_" gradientUnits="userSpaceOnUse" x1="2.0504" y1="-0.8218" x2="50.0504" y2="44.8449">
		<stop  offset="0" style="stop-color:#BD2A36"/>
		<stop  offset="0.4882" style="stop-color:#9A4599"/>
		<stop  offset="1" style="stop-color:#214181"/>
	</linearGradient>
	<path class="st4" d="M17.2,19.9c0,0.4,0.3,0.7,0.7,0.7h5.6c0.4,0,0.7-0.3,0.7-0.7v-5.7c0-0.4-0.3-0.7-0.7-0.7H18
		c-0.4,0-0.7,0.3-0.7,0.7V19.9z M18.7,14.9h4.1v4.3h-4.1V14.9z"/>
	<linearGradient id="SVGID_6_" gradientUnits="userSpaceOnUse" x1="-2.6347" y1="4.1027" x2="45.3653" y2="49.7694">
		<stop  offset="0" style="stop-color:#BD2A36"/>
		<stop  offset="0.4882" style="stop-color:#9A4599"/>
		<stop  offset="1" style="stop-color:#214181"/>
	</linearGradient>
	<path class="st5" d="M17.2,29.2c0,0.4,0.3,0.7,0.7,0.7h5.6c0.4,0,0.7-0.3,0.7-0.7v-5.7c0-0.4-0.3-0.7-0.7-0.7H18
		c-0.4,0-0.7,0.3-0.7,0.7V29.2z M18.7,24.2h4.1v4.3h-4.1V24.2z"/>
	<linearGradient id="SVGID_7_" gradientUnits="userSpaceOnUse" x1="-7.3198" y1="9.0272" x2="40.6802" y2="54.6938">
		<stop  offset="0" style="stop-color:#BD2A36"/>
		<stop  offset="0.4882" style="stop-color:#9A4599"/>
		<stop  offset="1" style="stop-color:#214181"/>
	</linearGradient>
	<path class="st6" d="M17.2,38.6c0,0.4,0.3,0.7,0.7,0.7h5.6c0.4,0,0.7-0.3,0.7-0.7v-5.7c0-0.4-0.3-0.7-0.7-0.7H18
		c-0.4,0-0.7,0.3-0.7,0.7V38.6z M18.7,33.6h4.1v4.3h-4.1V33.6z"/>
	<linearGradient id="SVGID_8_" gradientUnits="userSpaceOnUse" x1="3.6605" y1="-2.5142" x2="51.6605" y2="43.1525">
		<stop  offset="0" style="stop-color:#BD2A36"/>
		<stop  offset="0.4882" style="stop-color:#9A4599"/>
		<stop  offset="1" style="stop-color:#214181"/>
	</linearGradient>
	<path class="st7" d="M31.6,29.5h4.7c0.4,0,0.7-0.3,0.7-0.7V24c0-0.4-0.3-0.7-0.7-0.7h-4.7c-0.4,0-0.7,0.3-0.7,0.7v4.7
		C30.9,29.2,31.3,29.5,31.6,29.5z M32.4,24.7h3.3V28h-3.3V24.7z"/>
	<linearGradient id="SVGID_9_" gradientUnits="userSpaceOnUse" x1="7.282" y1="-6.3207" x2="55.282" y2="39.3459">
		<stop  offset="0" style="stop-color:#BD2A36"/>
		<stop  offset="0.4882" style="stop-color:#9A4599"/>
		<stop  offset="1" style="stop-color:#214181"/>
	</linearGradient>
	<path class="st8" d="M39.3,29.5H44c0.4,0,0.7-0.3,0.7-0.7V24c0-0.4-0.3-0.7-0.7-0.7h-4.7c-0.4,0-0.7,0.3-0.7,0.7v4.7
		C38.5,29.2,38.8,29.5,39.3,29.5z M40,24.7h3.3V28H40V24.7z"/>
</g>
</svg>
