<?xml version="1.0" encoding="utf-8"?>
<!-- Generator: Adobe Illustrator 22.0.1, SVG Export Plug-In . SVG Version: 6.00 Build 0)  -->
<svg version="1.1" id="Layer_1" xmlns="http://www.w3.org/2000/svg" xmlns:xlink="http://www.w3.org/1999/xlink" x="0px" y="0px"
	 viewBox="0 0 48 48" style="enable-background:new 0 0 48 48;" xml:space="preserve">
<style type="text/css">
	.st0{fill:url(#SVGID_1_);}
	.st1{fill:url(#SVGID_2_);}
	.st2{fill:url(#SVGID_3_);}
	.st3{fill:url(#SVGID_4_);}
	.st4{fill:url(#SVGID_5_);}
	.st5{fill:url(#SVGID_6_);}
	.st6{fill:url(#SVGID_7_);}
	.st7{fill:url(#SVGID_8_);}
	.st8{fill:url(#SVGID_9_);}
	.st9{fill:url(#SVGID_10_);}
	.st10{fill:url(#SVGID_11_);}
	.st11{fill:url(#SVGID_12_);}
	.st12{fill:url(#SVGID_13_);}
	.st13{fill:url(#SVGID_14_);}
	.st14{fill:url(#SVGID_15_);}
	.st15{fill:url(#SVGID_16_);}
	.st16{fill:url(#SVGID_17_);}
	.st17{fill:url(#SVGID_18_);}
	.st18{fill:url(#SVGID_19_);}
	.st19{fill:url(#SVGID_20_);}
	.st20{fill:url(#SVGID_21_);}
	.st21{fill:url(#SVGID_22_);}
	.st22{fill:url(#SVGID_23_);}
	.st23{fill:url(#SVGID_24_);}
	.st24{fill:url(#SVGID_25_);}
	.st25{fill:url(#SVGID_26_);}
	.st26{fill:url(#SVGID_27_);}
	.st27{fill:url(#SVGID_28_);}
	.st28{fill:url(#SVGID_29_);}
	.st29{fill:url(#SVGID_30_);}
	.st30{fill:url(#SVGID_31_);}
	.st31{fill:url(#SVGID_32_);}
	.st32{fill:url(#SVGID_33_);}
	.st33{fill:url(#SVGID_34_);}
	.st34{fill:url(#SVGID_35_);}
	.st35{fill:url(#SVGID_36_);}
	.st36{fill:url(#SVGID_37_);}
	.st37{fill:url(#SVGID_38_);}
	.st38{fill:url(#SVGID_39_);}
	.st39{fill:url(#SVGID_40_);}
	.st40{fill:url(#SVGID_41_);}
	.st41{fill:url(#SVGID_42_);}
	.st42{fill:url(#XMLID_2_);}
	.st43{fill:url(#XMLID_3_);}
</style>
<g>
	<linearGradient id="SVGID_1_" gradientUnits="userSpaceOnUse" x1="0" y1="24" x2="48" y2="24">
		<stop  offset="0" style="stop-color:#BD2A36"/>
		<stop  offset="0.4882" style="stop-color:#9A4599"/>
		<stop  offset="1" style="stop-color:#214181"/>
	</linearGradient>
	<path class="st0" d="M44.4,37.2l-7.8-3.4c-0.2-0.1-0.4-0.3-0.6-0.6l5.2,0c0.1,0,2.2,0.2,4-0.5c0.7-0.3,1.1-0.8,1.3-1.5
		c0.2-0.7,0.1-1.4-0.3-2c-1.5-2.1-5-7.7-5.1-13.3c0-0.1-0.3-9.7-9.8-9.7c-1.4,0-2.7,0.3-3.8,0.7c-0.3-0.7-0.6-1.3-1.2-2
		C24.7,2.9,22,2,18.4,2c-3.6,0-6.3,0.9-7.9,2.8C8.6,7,8.8,9.6,8.8,10v4.3C8.3,14.9,8,15.6,8,16.4v3.2c0,1,0.4,1.9,1.2,2.5
		c0.7,2.9,2.3,5.1,2.8,5.8v2.6c0,0.8-0.4,1.5-1.1,1.9l-7.1,3.9C1.4,37.5,0,40,0,42.6V46h48v-3C48,40.6,46.6,38.3,44.4,37.2
		L44.4,37.2z M35.2,44.4H1.6v-1.8c0-2.1,1.1-3.9,2.9-4.9l7.1-3.9c1.2-0.7,1.9-1.9,1.9-3.3v-3.2l-0.2-0.2c0,0-2-2.4-2.7-5.7l-0.1-0.3
		l-0.3-0.2c-0.5-0.3-0.7-0.8-0.7-1.3v-3.2c0-0.4,0.2-0.9,0.5-1.2l0.3-0.2v-5l0-0.1c0,0-0.3-2.2,1.3-4c1.3-1.5,3.6-2.3,6.7-2.3
		c3.1,0,5.4,0.8,6.7,2.3c0.7,0.7,1,1.6,1.2,2.3c0,0.1,0,0.1,0,0.2c0,0.1,0,0.1,0,0.2c0,0.1,0,0.1,0,0.2c0,0,0,0.1,0,0.1
		c0,0.1,0,0.2,0,0.3c0,0,0,0,0,0c0,0.1,0,0.2,0,0.2c0,0,0,0,0,0c0,0.1,0,0.1,0,0.2v0c0,0.2,0,0.3,0,0.3l0,5.1l0.3,0.2
		c0.3,0.3,0.5,0.7,0.5,1.2v3.2c0,0.7-0.5,1.3-1.1,1.5l-0.4,0.1l-0.1,0.4c-0.5,1.7-1.3,3.2-2.3,4.6c-0.2,0.3-0.5,0.6-0.7,0.9
		l-0.2,0.2v3.3c0,0.2,0,0.4,0.1,0.6c0,0,0,0.1,0,0.1c0,0.2,0.1,0.3,0.1,0.5c0,0,0,0.1,0,0.1c0.1,0.2,0.1,0.3,0.2,0.5c0,0,0,0,0,0.1
		c0.1,0.2,0.3,0.4,0.4,0.6l0.2,0.2h0c0.3,0.3,0.6,0.5,0.9,0.7l7.6,3.8c1.9,1,3.1,2.9,3.1,5V44.4z M46.4,44.4h-9.6v-1.6
		c0-2.8-1.5-5.2-4-6.5l-5.5-2.7c0.1-0.3,0.2-0.7,0-1c-0.2-0.6-0.7-0.9-1.3-0.9h-1.8c0-0.1-0.1-0.1-0.1-0.2c0-0.1-0.1-0.2-0.1-0.3
		C24,31,24,30.8,24,30.6v-2.7c0.2-0.2,0.4-0.5,0.6-0.8c1-1.4,1.8-3,2.4-4.6c1.1-0.5,1.9-1.6,1.9-2.9v-3.2c0-0.8-0.3-1.5-0.8-2.1V10
		c0-0.2,0.1-0.9-0.1-1.7c1-0.4,2.2-0.6,3.4-0.6c7.9,0.1,8.2,7.8,8.2,8.2c0.1,6.1,3.8,11.9,5.4,14.2c0.1,0.2,0.2,0.4,0.1,0.7
		c0,0.1-0.1,0.4-0.4,0.5c-1.3,0.6-3.2,0.4-3.3,0.4h-5.5c-0.5,0-1,0.3-1.3,0.7c-0.3,0.4-0.3,1-0.1,1.4c0.2,0.5,0.7,1.2,1.4,1.5
		l7.8,3.4c1.7,0.8,2.7,2.5,2.7,4.4V44.4z M46.4,44.4"/>
</g>
</svg>
