<?xml version="1.0" encoding="utf-8"?>
<!-- Generator: Adobe Illustrator 22.1.0, SVG Export Plug-In . SVG Version: 6.00 Build 0)  -->
<svg version="1.1" id="Layer_1" xmlns="http://www.w3.org/2000/svg" xmlns:xlink="http://www.w3.org/1999/xlink" x="0px" y="0px"
	 viewBox="0 0 40 36.7" style="enable-background:new 0 0 40 36.7;" xml:space="preserve">
<style type="text/css">
	.st0{fill:#999999;}
</style>
<g>
	<path class="st0" d="M37,29.4l-6.5-2.8c-0.2-0.1-0.3-0.3-0.5-0.5l4.4,0c0.1,0,1.9,0.2,3.3-0.4c0.5-0.2,0.9-0.7,1.1-1.3
		c0.2-0.6,0.1-1.2-0.3-1.7c-1.2-1.8-4.1-6.4-4.2-11.1c0-0.1-0.3-8.1-8.1-8.1c-1.2,0-2.2,0.2-3.2,0.6c-0.2-0.5-0.5-1.1-1-1.6
		C20.6,0.8,18.3,0,15.3,0c-3,0-5.2,0.8-6.6,2.4c-1.6,1.8-1.4,4-1.4,4.3v3.5c-0.4,0.5-0.7,1.1-0.7,1.7v2.7c0,0.8,0.4,1.6,1,2.1
		c0.6,2.4,1.9,4.2,2.3,4.8v2.2c0,0.6-0.4,1.2-0.9,1.5l-5.9,3.2C1.2,29.6,0,31.6,0,33.8v2.8h40v-2.5C40,32.1,38.9,30.3,37,29.4
		L37,29.4z M29.3,35.3h-28v-1.5c0-1.7,0.9-3.3,2.4-4.1l5.9-3.2c1-0.5,1.6-1.6,1.6-2.7v-2.7l-0.2-0.2c0,0-1.6-2-2.3-4.7l-0.1-0.3
		l-0.2-0.1C8.2,15.5,8,15.1,8,14.7V12c0-0.4,0.2-0.7,0.4-1l0.2-0.2V6.7l0-0.1c0,0-0.2-1.9,1.1-3.3c1.1-1.3,3-1.9,5.6-1.9
		c2.6,0,4.5,0.6,5.6,1.9c0.6,0.6,0.8,1.3,1,1.9c0,0,0,0.1,0,0.1c0,0,0,0.1,0,0.1c0,0.1,0,0.1,0,0.2c0,0,0,0.1,0,0.1
		c0,0.1,0,0.2,0,0.2c0,0,0,0,0,0c0,0.1,0,0.1,0,0.2c0,0,0,0,0,0c0,0.1,0,0.1,0,0.2v0c0,0.2,0,0.3,0,0.3l0,4.2l0.2,0.2
		c0.3,0.3,0.4,0.6,0.4,1v2.7c0,0.6-0.4,1.1-0.9,1.3L21.4,16l-0.1,0.3c-0.4,1.4-1.1,2.7-1.9,3.8c-0.2,0.3-0.4,0.5-0.6,0.7l-0.2,0.2
		v2.8c0,0.2,0,0.3,0,0.5c0,0,0,0.1,0,0.1c0,0.1,0.1,0.3,0.1,0.4c0,0,0,0.1,0,0.1c0.1,0.1,0.1,0.3,0.2,0.4c0,0,0,0,0,0
		c0.1,0.2,0.2,0.3,0.3,0.5l0.2,0.2h0c0.2,0.2,0.5,0.4,0.8,0.6l6.4,3.2c1.6,0.8,2.6,2.4,2.6,4.2V35.3z M38.7,35.3h-8V34
		c0-2.3-1.3-4.4-3.3-5.4l-4.6-2.3c0.1-0.3,0.1-0.6,0-0.8c-0.2-0.5-0.6-0.8-1.1-0.8h-1.5c0-0.1,0-0.1-0.1-0.2c0-0.1-0.1-0.1-0.1-0.2
		c0-0.1-0.1-0.3-0.1-0.5v-2.3c0.2-0.2,0.3-0.4,0.5-0.6c0.8-1.2,1.5-2.5,2-3.9c0.9-0.4,1.6-1.4,1.6-2.4V12c0-0.6-0.2-1.3-0.7-1.7V6.7
		c0-0.2,0.1-0.7-0.1-1.4c0.9-0.3,1.8-0.5,2.9-0.5c6.6,0.1,6.8,6.5,6.8,6.8c0.1,5.1,3.2,10,4.5,11.8c0.1,0.2,0.1,0.4,0.1,0.6
		c0,0.1-0.1,0.3-0.4,0.4c-1.1,0.5-2.6,0.3-2.7,0.3h-4.6c-0.4,0-0.8,0.2-1,0.6c-0.2,0.4-0.2,0.8-0.1,1.2c0.2,0.4,0.6,1,1.2,1.3
		l6.5,2.8c1.4,0.7,2.2,2.1,2.2,3.6V35.3z M38.7,35.3"/>
</g>
</svg>
