<svg id="Layer_1" xmlns="http://www.w3.org/2000/svg" viewBox="-49 141 512 512"><style>.st0{fill:#ff7a53}.st1{fill:#3c3b41}.st2{fill:#171719}.st3{fill:#ffdb2d}.st4{fill:#ebb300}</style><circle class="st0" cx="207" cy="397" r="256"/><path class="st1" d="M180.1 235.9L18.7 485.5C4.9 506.8 20.2 535 45.6 535h322.7c25.4 0 40.7-28.1 26.9-49.5L233.9 235.9c-12.6-19.6-41.2-19.6-53.8 0z"/><path class="st2" d="M395.3 485.5L233.9 235.9c-6.3-9.8-16.6-14.7-26.9-14.7v313.7h161.3c25.5 0 40.8-28.1 27-49.4z"/><path class="st3" d="M199.8 257.8L53.3 489.2c-3.6 5.7.5 13.1 7.2 13.1h293c6.7 0 10.8-7.4 7.2-13.1L214.2 257.8c-3.3-5.3-11.1-5.3-14.4 0z"/><path class="st4" d="M360.7 489.2L214.2 257.8c-1.7-2.6-4.4-4-7.2-4v248.4h146.5c6.7.1 10.8-7.3 7.2-13z"/><path class="st1" d="M189.8 318.2l5.7 119.4h23l5.7-119.4z"/><path class="st2" d="M218.5 437.6l5.7-119.4H207v119.4z"/><circle class="st1" cx="207" cy="461.2" r="14.5"/><path class="st2" d="M207 446.7v29.1c8 0 14.5-6.5 14.5-14.5s-6.5-14.6-14.5-14.6z"/></svg>