<svg xmlns="http://www.w3.org/2000/svg" width="32" height="8"><g fill="none"><circle cx="4" cy="4" r="2.667" fill="#CCD2DC"/><path fill="#98A5B9" d="M4 0a4 4 0 1 0 0 8 4 4 0 0 0 0-8zm0 6a2 2 0 1 1 0-4 2 2 0 0 1 0 4z"/><g transform="translate(12)"><circle cx="4" cy="4" r="2.667" fill="#CCD2DC"/><path fill="#98A5B9" d="M4 0a4 4 0 1 0 0 8 4 4 0 0 0 0-8zm0 6a2 2 0 1 1 0-4 2 2 0 0 1 0 4z"/></g><g transform="translate(24)"><circle cx="4" cy="4" r="2.667" fill="#CCD2DC"/><path fill="#98A5B9" d="M4 0a4 4 0 1 0 0 8 4 4 0 0 0 0-8zm0 6a2 2 0 1 1 0-4 2 2 0 0 1 0 4z"/></g></g></svg>