<svg width="123" height="111" xmlns="http://www.w3.org/2000/svg" xmlns:xlink="http://www.w3.org/1999/xlink"><defs><linearGradient x1="19.08%" y1="20.553%" x2="80.078%" y2="81.388%" id="a"><stop stop-color="#6BA306" offset="0%"/><stop stop-color="#42920C" offset="100%"/></linearGradient><linearGradient x1="50%" y1="9.028%" x2="50%" y2="50%" id="e"><stop stop-color="#77CF26" offset="0%"/><stop stop-color="#72AE14" offset="100%"/></linearGradient><linearGradient x1="50%" y1="0%" x2="50%" y2="90.918%" id="d"><stop stop-color="#FFF" offset="0%"/><stop stop-opacity=".328" offset="100%"/></linearGradient><filter x="-18.4%" y="-13.2%" width="136.8%" height="136.8%" filterUnits="objectBoundingBox" id="b"><feOffset dy="2" in="SourceAlpha" result="shadowOffsetOuter1"/><feGaussianBlur stdDeviation="2" in="shadowOffsetOuter1" result="shadowBlurOuter1"/><feComposite in="shadowBlurOuter1" in2="SourceAlpha" operator="out" result="shadowBlurOuter1"/><feColorMatrix values="0 0 0 0 0.201660973 0 0 0 0 0.362771739 0 0 0 0 0 0 0 0 0.5 0" in="shadowBlurOuter1"/></filter><circle id="c" cx="24" cy="24" r="19"/></defs><g fill="none" fill-rule="evenodd"><g fill-rule="nonzero"><path fill="#FFD33F" d="M37.9 99.423h34.097l5.682 11.365H32.216z"/><circle fill="#EC4B97" cx="54.948" cy="52.065" r="51.146"/><path d="M82.728 9.131C98.076 32.837 91.3 64.497 67.594 79.845a51.135 51.135 0 0 1-55.58 0C27.34 103.572 59 110.382 82.728 95.055c23.727-15.327 30.537-46.987 15.21-70.714a51.145 51.145 0 0 0-15.21-15.21Z" fill="#9E1566"/><circle fill="#FFD33F" cx="54.948" cy="52.065" r="43.569"/><path d="M71.618 11.808a43.645 43.645 0 0 0-33.351 0l16.681 40.257 16.67-40.257Z" fill="#F2624C"/><path d="M38.278 11.808A43.716 43.716 0 0 0 14.69 35.396l40.258 16.67-16.67-40.258Z" fill="#FAA41B"/><path d="M14.69 35.396a43.64 43.64 0 0 0 0 33.349l40.258-16.68-40.258-16.67Z" fill="#FFD33F"/><path fill="#EE2849" d="M.013 38.805v26.52l20.838-13.26z"/><path d="m95.205 35.396-40.257 16.67 40.257 16.669a43.645 43.645 0 0 0 0-33.35v.01Z" fill="#FFD33F"/><path d="m95.205 35.396-4.265 1.763a50.88 50.88 0 0 1-7.646 26.65l11.911 4.926a43.645 43.645 0 0 0 0-33.35v.01Z" fill="#EAB42D"/><path d="M95.205 35.396a43.716 43.716 0 0 0-23.587-23.588l-16.67 40.257 40.257-16.67Z" fill="#FAA41B"/><path d="M95.205 35.396a43.453 43.453 0 0 0-5.457-9.447c.79 3.6 1.19 7.276 1.192 10.962v.248l4.265-1.763Z" fill="#F08015"/><path d="M38.278 92.323a43.645 43.645 0 0 0 33.351 0L54.948 52.065l-16.67 40.258Z" fill="#FAA41B"/><path d="m40.042 88.057-1.764 4.266a43.645 43.645 0 0 0 33.351 0L66.704 80.41a50.884 50.884 0 0 1-26.662 7.646Z" fill="#F08015"/><path d="M71.618 92.323a43.716 43.716 0 0 0 23.587-23.588l-40.257-16.67 16.67 40.258Z" fill="#F2624C"/><path d="M83.294 63.81A51.359 51.359 0 0 1 66.693 80.41l4.925 11.912a43.716 43.716 0 0 0 23.587-23.588l-11.91-4.925Z" fill="#D44A43"/><path d="M14.69 68.735a43.716 43.716 0 0 0 23.588 23.588l16.67-40.258-40.258 16.67Z" fill="#F2624C"/><path d="M39.794 88.057a51.287 51.287 0 0 1-10.968-1.192 43.448 43.448 0 0 0 9.452 5.458l1.764-4.266h-.248Z" fill="#D44A43"/></g><g transform="translate(75 17)"><circle stroke="#FFF" stroke-width="3" fill="url(#a)" cx="24" cy="24" r="22.5"/><use fill="#000" filter="url(#b)" xlink:href="#c"/><circle stroke="url(#d)" stroke-width="3" stroke-linejoin="square" fill="url(#e)" cx="24" cy="24" r="17.5"/></g><path d="M96.426 46.506V43.05h3.168v-2.34h-3.168v-3.456h-2.592v3.456h-3.168v2.34h3.168v3.456h2.592ZM106.974 48V35.13h-3.186l-2.952 2.07v3.078l2.448-1.512V48h3.69Z" fill="#FFF" fill-rule="nonzero"/></g></svg>