<?xml version="1.0" encoding="utf-8"?>
<!-- Generator: Adobe Illustrator 22.1.0, SVG Export Plug-In . SVG Version: 6.00 Build 0)  -->
<svg version="1.1" id="Layer_1" xmlns="http://www.w3.org/2000/svg" xmlns:xlink="http://www.w3.org/1999/xlink" x="0px" y="0px"
	 viewBox="0 0 600 600" style="enable-background:new 0 0 600 600;" xml:space="preserve">
<style type="text/css">
	.st0{fill:#AC2326;}
	.st1{opacity:5.000000e-02;}
	.st2{fill:#214080;}
	.st3{fill-rule:evenodd;clip-rule:evenodd;fill:url(#SVGID_1_);}
	.st4{fill:#F2F3F3;stroke:#AD2427;stroke-width:1.8205;stroke-miterlimit:10;}
	.st5{fill-rule:evenodd;clip-rule:evenodd;fill:#214080;}
	.st6{fill-rule:evenodd;clip-rule:evenodd;fill:url(#SVGID_2_);}
	.st7{fill:#FFF3EB;}
	.st8{opacity:0.2;fill:#CE2029;stroke:#CE2029;stroke-width:2.4273;stroke-miterlimit:10;}
	.st9{fill-rule:evenodd;clip-rule:evenodd;fill:#FFF3EB;}
	.st10{fill-rule:evenodd;clip-rule:evenodd;fill:#AC2326;}
	.st11{clip-path:url(#SVGID_4_);}
	.st12{opacity:5.000000e-02;fill:#CE2029;}
	.st13{fill:#FFFFFF;}
	.st14{fill-rule:evenodd;clip-rule:evenodd;}
	.st15{fill:#F2E4D9;stroke:#CE2029;stroke-width:1.7608;stroke-linecap:round;stroke-linejoin:round;stroke-miterlimit:10;}
	.st16{opacity:0.1;}
	.st17{fill:#4471A5;}
	.st18{fill:#5A84C3;}
	.st19{fill:#2D2F30;}
	.st20{fill:#FFFFFF;stroke:#AD2326;stroke-width:7.1061;stroke-miterlimit:10;}
	.st21{fill:#AD2326;}
	.st22{fill:url(#SVGID_5_);}
	
		.st23{opacity:0.2;fill:#CE2029;stroke:#CE2029;stroke-width:4.1362;stroke-linecap:round;stroke-linejoin:round;stroke-miterlimit:10;}
	.st24{fill:url(#SVGID_6_);}
	.st25{fill:url(#SVGID_7_);}
	.st26{fill:#F2E4D9;stroke:#CE2029;stroke-width:1.7031;stroke-linecap:round;stroke-linejoin:round;stroke-miterlimit:10;}
</style>
<g>
	<g>
		<g>
			<g>
				<path class="st0" d="M135.7,326.7c0.7-3.1,3.3-5.3,6.4-5.4c15.7-0.8,61.2-1.9,71.9,11.9c13,16.8,3.7,31.3-9.7,25.7
					c-10.6-4.4-48.6-16.9-64-21.9c-3.7-1.2-5.9-5-5-8.8L135.7,326.7z"/>
				<path class="st1" d="M214,333.2c-10.7-13.9-56.8-12.7-72.2-11.9c-3,0.2-5.5,2.3-6.1,5.2l-0.1,0.6c20.4-0.1,75.2,0.5,76.9,23.6
					c0.3,4.4-0.9,7.4-2.9,9.4C219.9,360.4,225.2,347.6,214,333.2z"/>
			</g>
			<g>
				<path class="st2" d="M217,356.7c-1.4,1.2-3,2.2-4.8,2.8c-0.5,0.1-0.9,0.3-1.5,0.3c-0.5,0-1.1,0.1-1.9-0.2
					c-0.4-0.1-0.7-0.5-1-0.8c-0.2-0.4-0.4-0.8-0.4-1.1l0-0.3l0-0.1c0-0.1,0-0.1,0-0.2c0-0.1-0.1-0.2-0.1-0.4
					c-0.2-0.5-0.8-1.1-1.4-1.6c-0.6-0.5-1.3-1-2-1.6c-0.7-0.5-1.4-1.1-2.1-1.7c-0.3-0.3-0.7-0.6-1-1c-0.3-0.4-0.7-0.8-0.7-1.3
					c0.2,0.4,0.7,0.5,1.1,0.7c0.4,0.2,0.8,0.3,1.2,0.5c0.8,0.3,1.7,0.6,2.5,1c0.8,0.4,1.6,0.8,2.4,1.4c0.8,0.6,1.6,1.3,2.1,2.3
					c0.1,0.3,0.2,0.6,0.3,0.9c0,0.2,0.1,0.3,0.1,0.5l0,0.3c0,0.2-0.1,0.1,0,0.1c0.1,0.1,0.4,0.1,0.8,0.2c0.4,0,0.8,0,1.2-0.1
					C213.5,357.4,215.2,357,217,356.7z"/>
			</g>
		</g>
		
			<linearGradient id="SVGID_1_" gradientUnits="userSpaceOnUse" x1="517.4076" y1="624.1556" x2="517.7453" y2="667.2184" gradientTransform="matrix(-0.9969 7.920084e-02 7.920084e-02 0.9969 544.8242 -311.8171)">
			<stop  offset="0" style="stop-color:#AC2326"/>
			<stop  offset="0.9821" style="stop-color:#87282C"/>
		</linearGradient>
		<path class="st3" d="M138.9,286c0,0,1.8,60.5-22,81.7s-59.9,8.7-59.9,8.7s-15.2,8.5-30.7,8.5c-1.9,0-3.6-0.8-4.9-2.2
			c-4.1-4.7-6.2-12.5-7.1-16.9c-0.4-1.8,0.5-3.6,2.1-4.4c3.5-1.8,8.7-6.5,5.2-18.3c-4.9-16.9-0.6-33.4,49.2-72
			C123.3,268.8,138.9,286,138.9,286z"/>
		<path class="st0" d="M16.4,361.3c1.9-1,4.4-2.9,5.6-6.4c7.9,16.7,19.3,23.5,24.6,25.9c-5.6,2-12.9,3.9-20.3,4
			c-1.9,0-3.6-0.8-4.9-2.2c-4.1-4.7-6.2-12.5-7.1-16.9C14,364,14.8,362.1,16.4,361.3z"/>
		<path class="st4" d="M62.1,287.7c0.6-0.4,6.3-4.2-0.2-11.6s-1.5-20.6-1-24s-21.3-5.2-10,18.4c-9-4.7-11,3.3-8.1,7.3
			s8.4,5.7,8.4,5.7s-8.9,1.6-5.8,7S56.5,291.4,62.1,287.7z"/>
		<circle class="st5" cx="25.5" cy="303.4" r="14.1"/>
		
			<linearGradient id="SVGID_2_" gradientUnits="userSpaceOnUse" x1="440.862" y1="755.9161" x2="494.0081" y2="847.2376" gradientTransform="matrix(-0.9165 -0.4 -0.4 0.9165 806.4443 -202.1581)">
			<stop  offset="0" style="stop-color:#AC2326"/>
			<stop  offset="0.9821" style="stop-color:#87282C"/>
		</linearGradient>
		<path class="st6" d="M149.7,321.9c0,0-26.9,54.2-57.8,61.7c-31,7.5-56.9-20.6-56.9-20.6s-17.4,0.3-31.1-7
			c-1.6-0.9-2.9-2.4-3.3-4.2c-1.4-6.1,0.4-13.9,1.7-18.3c0.5-1.7,2.1-3,3.9-2.9c3.9,0.1,10.7-1.6,13.2-13.7
			c3.6-17.2,15.2-29.7,77.4-40.3C144,299.4,149.7,321.9,149.7,321.9z"/>
		<g>
			<path class="st7" d="M70.7,339.6c20.4-3.7,42.1-33.8,42.1-33.8l33.8,9.7c2.5,4,3.1,6.4,3.1,6.4s-23.7,47.9-52.3,59.8
				C56.9,395.1,50.4,343.3,70.7,339.6z"/>
			<path class="st1" d="M70.7,339.6c20.4-3.7,42.1-33.8,42.1-33.8l33.8,9.7c0.1,0.2,0.2,0.4,0.3,0.6l-30.8-8.8
				c0,0-21.7,30.1-42.1,33.8c-15.2,2.8-15.4,32.1,2.1,41.5C55.4,375.3,54.7,342.6,70.7,339.6z"/>
			<path class="st8" d="M109.7,372.1c0,0-18-8.6-25.6-26.6c-14.5,9.6-16.8,25.5-7.7,32S95.6,383.9,109.7,372.1z"/>
			<g>
				<polygon class="st9" points="76.9,352.4 77.4,352.9 76.7,353.8 76,353.4 				"/>
				<polygon class="st9" points="78.4,350.6 79,351.2 78.1,352.1 77.5,351.6 				"/>
				<path class="st9" d="M80.1,349l0.5,0.6c-0.3,0.3-0.7,0.5-0.9,0.9l-0.5-0.5C79.4,349.6,79.8,349.3,80.1,349z"/>
				<polygon class="st9" points="73.1,358.3 73.8,358.6 73.4,359.8 72.7,359.5 				"/>
				<polygon class="st9" points="74.2,356.2 74.8,356.6 74.3,357.7 73.6,357.4 				"/>
				<polygon class="st9" points="75.4,354.2 76.1,354.7 75.4,355.7 74.7,355.3 				"/>
				<polygon class="st9" points="71.4,365.1 72.1,365.2 72.1,366.4 71.3,366.4 				"/>
				<polygon class="st9" points="71.7,362.8 72.4,362.9 72.2,364.2 71.5,364.1 				"/>
				<polygon class="st9" points="72.3,360.5 73,360.7 72.7,362 71.9,361.8 				"/>
				<path class="st9" d="M72.4,372l0.7-0.3c0.2,0.4,0.3,0.8,0.5,1.1l-0.7,0.4C72.7,372.9,72.6,372.4,72.4,372z"/>
				<polygon class="st9" points="71.7,369.8 72.4,369.6 72.8,370.8 72,371.1 				"/>
				<polygon class="st9" points="71.4,367.5 72.1,367.4 72.2,368.7 71.5,368.8 				"/>
				<polygon class="st9" points="76.8,377.5 77.3,376.9 78.3,377.6 77.9,378.2 				"/>
				<path class="st9" d="M75,376l0.5-0.5c0.3,0.3,0.6,0.5,0.9,0.8l-0.5,0.6C75.7,376.5,75.3,376.3,75,376z"/>
				<path class="st9" d="M73.5,374.1l0.6-0.4c0.2,0.4,0.5,0.7,0.7,1l-0.6,0.5C74.1,374.8,73.8,374.5,73.5,374.1z"/>
				<path class="st9" d="M83.1,380.7l0.2-0.7c0.4,0.2,0.8,0.2,1.2,0.3l-0.2,0.7C83.9,380.9,83.5,380.8,83.1,380.7z"/>
				<path class="st9" d="M80.9,379.8l0.3-0.7c0.4,0.2,0.8,0.4,1.2,0.5l-0.3,0.7C81.7,380.2,81.3,380,80.9,379.8z"/>
				<polygon class="st9" points="78.8,378.7 79.2,378.1 80.3,378.7 80,379.4 				"/>
				<path class="st9" d="M90,381.5l-0.1-0.8c0.4,0,0.8,0,1.3-0.1l0.1,0.8C90.9,381.5,90.5,381.5,90,381.5z"/>
				<polygon class="st9" points="87.7,381.5 87.7,380.8 89,380.8 89,381.6 				"/>
				<polygon class="st9" points="85.4,381.3 85.5,380.5 86.7,380.7 86.7,381.4 				"/>
				<path class="st9" d="M96.9,379.9l-0.3-0.7c0.4-0.1,0.8-0.3,1.2-0.5l0.3,0.7C97.7,379.6,97.3,379.8,96.9,379.9z"/>
				<path class="st9" d="M94.6,380.7l-0.2-0.7c0.4-0.1,0.8-0.2,1.2-0.4l0.3,0.7C95.5,380.4,95.1,380.6,94.6,380.7z"/>
				<path class="st9" d="M92.4,381.2l-0.1-0.7c0.4-0.1,0.8-0.1,1.2-0.3l0.2,0.7C93.2,381.1,92.8,381.1,92.4,381.2z"/>
				<polygon class="st9" points="103.1,376.7 102.7,376 103.7,375.3 104.2,376 				"/>
				<path class="st9" d="M101.1,377.9l-0.4-0.7c0.4-0.2,0.8-0.4,1.1-0.6l0.4,0.6C101.8,377.5,101.4,377.7,101.1,377.9z"/>
				<path class="st9" d="M99,379l-0.3-0.7c0.4-0.2,0.8-0.4,1.1-0.6l0.4,0.7C99.8,378.6,99.4,378.8,99,379z"/>
				<path class="st9" d="M100.3,365.8l-0.5,0.6c-0.3-0.3-0.6-0.5-1-0.8l0.5-0.6C99.7,365.4,100,365.6,100.3,365.8z"/>
				<path class="st9" d="M102,367.1l-0.4,0.6c-0.3-0.2-0.7-0.5-1-0.7l0.5-0.6C101.4,366.7,101.7,366.9,102,367.1z"/>
				<path class="st9" d="M103.8,368.4l-0.4,0.6c-0.3-0.2-0.7-0.5-1-0.7l0.4-0.6C103.1,367.9,103.4,368.2,103.8,368.4z"/>
				<polygon class="st9" points="95.4,361.6 94.9,362.1 94,361.3 94.6,360.7 				"/>
				<polygon class="st9" points="97,363.1 96.5,363.6 95.6,362.8 96.1,362.2 				"/>
				<polygon class="st9" points="98.6,364.5 98.1,365 97.2,364.3 97.7,363.7 				"/>
				<polygon class="st9" points="91.1,356.8 90.5,357.3 89.7,356.3 90.3,355.8 				"/>
				<polygon class="st9" points="92.5,358.4 91.9,358.9 91.1,358 91.7,357.5 				"/>
				<path class="st9" d="M93.9,360l-0.6,0.5c-0.3-0.3-0.6-0.6-0.8-0.9l0.6-0.5C93.4,359.5,93.6,359.7,93.9,360z"/>
				<polygon class="st9" points="87.4,351.5 86.7,351.9 86.1,350.8 86.8,350.5 				"/>
				<polygon class="st9" points="88.5,353.3 87.9,353.7 87.2,352.7 87.9,352.3 				"/>
				<path class="st9" d="M89.8,355.1l-0.6,0.5c-0.3-0.3-0.5-0.7-0.7-1l0.6-0.4C89.3,354.4,89.5,354.8,89.8,355.1z"/>
				<polygon class="st9" points="105.3,375.3 104.8,374.6 106.4,373.5 106.9,374.1 				"/>
				<polygon class="st9" points="109.6,371.9 108.1,373.1 107.6,372.5 108.2,372 108.2,372 108.1,371.9 107.9,371.8 107.6,371.6 
					107.9,371 				"/>
				<polygon class="st9" points="106.6,370.2 106.2,370.8 104.5,369.8 104.9,369.2 				"/>
				<polygon class="st9" points="86.3,349.5 85.6,349.8 85.4,349.5 85.2,349.2 84.9,348.5 85.6,348.1 85.9,348.8 86.1,349.1 				"/>
				<polygon class="st9" points="84.4,345.7 84.6,346 84.8,346.3 85.1,347 84.4,347.3 84.1,346.8 83.6,347.1 83.2,346.5 83.8,346.1 
					84.1,345.8 84.3,345.7 84.4,345.7 84.4,345.7 84.4,345.7 				"/>
				<polygon class="st9" points="82.2,347.2 82.7,347.8 82.1,348.3 81.5,348.8 81,348.2 81.6,347.7 				"/>
			</g>
			
				<ellipse transform="matrix(0.8047 -0.5937 0.5937 0.8047 -201.1426 133.7232)" class="st7" cx="102.7" cy="372.6" rx="3.1" ry="2.1"/>
			
				<ellipse transform="matrix(0.8047 -0.5937 0.5937 0.8047 -193.0466 117.7493)" class="st7" cx="82.4" cy="352.3" rx="3.1" ry="2.1"/>
		</g>
		<path class="st2" d="M149.9,324.7c0,0-9,8.4-33.1-3.5s-47-35.1-45.7-45.1S149.9,324.7,149.9,324.7z"/>
		<g>
			<g>
				<g>
					<path class="st2" d="M122.9,330c-2.5,5.8,0.2,12.6,6.2,15.2c5.9,2.6,12.8,0,15.3-5.8c2.5-5.8-0.2-12.6-6.2-15.2
						C132.3,321.6,125.4,324.2,122.9,330z"/>
				</g>
				<g>
					<path class="st7" d="M124,328c0.1-0.1,0.2-0.2,0.3-0.3c0,0,0,0.1,0.1,0.1c0,0.1,0.2,0.3,0.3,0.4c0,0.1,0,0.2,0,0.2c0,0,0,0,0,0
						c0,0,0,0.2-0.1,0.2c-0.1,0-0.1-0.2-0.1-0.3c0-0.1-0.1-0.1-0.2-0.1C124.2,328.2,124.1,328.1,124,328C124,328,124,328,124,328z"
						/>
					<path class="st7" d="M141.4,337.8c0,0-0.2-0.1-0.2-0.1c0,0,0,0,0-0.1C141.3,337.7,141.4,337.8,141.4,337.8z"/>
					<path class="st7" d="M130.4,339.7c-0.1-0.1-0.2-0.6-0.2-0.7c0-0.1,0-0.4,0-0.4c0-0.1-0.1-0.2-0.1-0.2c0,0,0.1-0.7,0-0.8
						c-0.1-0.2,0-0.8,0.2-1.1c0.1-0.2,0.2-0.7,0.2-0.8c0-0.1-0.1-0.4-0.1-0.4c0-0.1-0.1-0.6-0.2-0.8c0-0.2,0-0.6,0.1-0.6
						c0.1-0.1,0.3,0,0.3,0c0,0.1,0.2,0.2,0.3,0.2c0.1,0,0.3-0.2,0.5-0.3c0.1,0,0.4-0.4,0.4-0.4c0.1,0,0.3-0.2,0.4-0.2
						c0.1,0,0.2-0.2,0.2-0.3c0,0-0.1,0-0.2,0.1c-0.1,0.1-0.4,0.3-0.5,0.4c-0.1,0.1-0.5,0.3-0.5,0.4c-0.1,0.1-0.5-0.1-0.6-0.3
						c-0.1-0.1-0.2-0.3-0.2-0.3c0,0-0.2-0.2-0.2-0.3c0-0.1,0-0.3,0-0.4c0-0.1,0.2-0.3,0.2-0.3c0.1,0,0.3,0,0.3,0
						c0,0,0.2-0.1,0.3-0.1c0.1-0.1,0.3-0.1,0.3-0.1c0,0,0-0.1,0-0.2c0,0-0.4,0-0.5,0.1c-0.1,0.1-0.3,0.2-0.3,0.2
						c0,0-0.3-0.1-0.3-0.1c0-0.1-0.1-0.1-0.1,0c0,0,0,0-0.1,0c-0.2-0.2-0.2-0.2-0.2-0.2c-0.2,0.1-0.3,0.2-0.3,0.2
						c0,0-0.1,0.1-0.2,0.1c-0.1,0-0.2,0.1-0.2,0.2c0,0-0.3,0.2-0.4,0.3c-0.1,0.1-0.3,0.2-0.4,0.3c-0.1,0-0.1,0.2-0.2,0.2
						c0,0-0.2,0.1-0.2,0.1c-0.1,0,0-0.5,0-0.6c0-0.1,0-0.3,0-0.3c0,0,0-0.1,0-0.1c0,0-0.1-0.1-0.1-0.1c0,0,0.1-0.3,0-0.4
						c0-0.1-0.2-0.3-0.2-0.3c-0.1-0.1-0.3,0-0.4,0.1c-0.1,0.1-0.2,0.2-0.2,0.2c0,0-0.2,0.1-0.3,0.1c-0.1,0-0.2,0.1-0.2,0.1
						c0,0-0.2,0.1-0.2,0.2c0,0-0.1,0.2-0.1,0.2c0,0-0.1,0.2-0.1,0.3c0,0-0.4,0.2-0.6,0.2c-0.1,0-0.1-0.2,0-0.3
						c0.1-0.1,0.4-0.2,0.4-0.2c0.1,0,0.2-0.3,0.2-0.3c0-0.1-0.2,0-0.3,0c-0.1,0-0.2,0.1-0.2,0.1c0,0-0.3-0.3-0.2-0.6
						c0.1-0.2,0.1-0.5,0.1-0.6c0-0.1,0.1-0.1,0.1-0.1c0,0,0-0.2-0.1-0.2c-0.1,0-0.2-0.4-0.3-0.6c0-0.1-0.1-0.3-0.1-0.3
						c0,0,0-0.3,0.1-0.4c0-0.1,0.2-0.2,0.2-0.3c0-0.1,0.2-0.1,0.2-0.2c0,0,0.1-0.2,0.1-0.2c0,0-0.1-0.1-0.1-0.1c0,0-0.1-0.2,0-0.2
						c0,0-0.1,0-0.2,0.1c-0.1,0-0.2,0.3-0.3,0.3c-0.1,0-0.2-0.4-0.1-0.6c0.1-0.2,0.1-0.5,0.1-0.5c0,0-0.1-0.2-0.1-0.3
						c1.3-1.4,2.8-2.4,4.5-3c0,0,0,0,0,0c0.1,0,0.3-0.1,0.3-0.1c0.2-0.1,0.3-0.1,0.5-0.2c0,0,0.1,0,0.1,0c0.1,0,0.3,0.1,0.4,0
						c0.1,0,0.1,0.1,0.1,0.2c0,0.1,0.2,0.2,0.2,0.3c0,0.1,0.1,0.1,0.1,0.1c0,0,0.2,0.2,0.3,0.2c0.1,0.1,0.2,0.2,0.3,0.3
						c0,0,0.1,0.2,0.1,0.2c0,0,0.1,0.2,0.1,0.2c0,0-0.1,0.2-0.1,0.2c-0.1,0,0.1,0,0.2,0c0.1,0,0.1,0.1,0.1,0.2c0,0,0.1,0,0.1,0
						c0-0.1,0.2,0,0.2,0c0,0.1,0.1,0,0.2,0c0.1,0,0.2,0.3,0.2,0.4c0,0.1,0.4,0.3,0.5,0.3c0.1,0,0.1,0.2,0,0.2
						c-0.1,0,0.2,0.1,0.3,0.1c0.1,0.1,0.4,0.3,0.4,0.4c0.1,0.1,0.1,0,0.2,0c0,0,0.2,0,0.2,0c0,0,0,0.3,0,0.4c0,0.1,0.2-0.1,0.4-0.1
						c0.2,0,0.5,0,0.5,0c0.1,0,0.3-0.1,0.3-0.1c0.1,0,0.3,0,0.3,0.1c0.1,0,0.2,0.2,0.2,0.3c0,0.1,0.1,0.1,0.1,0.1
						c0,0,0.2,0.3,0.2,0.5c0.1,0.1,0.1,0.5,0.1,0.6c0,0.1,0.1,0.1,0.1,0.2c0,0,0,0.1,0,0.1c0,0,0.2,0.3,0.2,0.4
						c0,0.1-0.2,0.4-0.2,0.5c0,0.1-0.2,0.2-0.3,0.2c-0.1,0-0.1,0.1-0.1,0.2c0,0.1-0.1,0.1-0.1,0.1c0,0,0.1,0.2,0.2,0.2
						c0,0,0.1,0.2,0.1,0.3c0,0,0.2,0.1,0.2,0.2c0,0,0-0.1,0-0.1c0-0.1,0.1-0.2,0.1-0.2c0,0,0.2-0.3,0.3-0.4c0.1,0,0.2-0.1,0.3-0.1
						c0,0,0-0.1,0-0.2c0,0,0.2,0,0.2,0.1c0,0-0.1,0.4-0.1,0.4c0,0.1-0.2,0.2-0.2,0.2c0,0-0.1,0.1,0,0.2c0.1,0,0,0.3,0,0.3
						c-0.1,0,0,0.2,0,0.2c0,0-0.2-0.1-0.3-0.1c-0.1-0.1-0.2,0-0.2,0c0,0,0.2,0.1,0.2,0.2c0,0.1,0.1,0.2,0.1,0.3c0,0-0.1,0.1-0.2,0.1
						c-0.1,0-0.2,0.1-0.3,0.2c-0.1,0-0.1,0.1-0.1,0.2c0,0,0.3,0.1,0.4,0.2c0.1,0.1,0.1,0.4,0.1,0.4c0,0.1-0.2,0.3-0.2,0.4
						c0,0.1-0.3,0-0.3,0c-0.1,0-0.3-0.1-0.3-0.1c-0.1,0-0.1-0.3-0.1-0.4c0-0.1-0.1-0.4-0.1-0.5c0-0.1-0.3-0.2-0.3-0.3
						c0-0.1-0.1,0.2-0.2,0.3c-0.1,0.1-0.3,0-0.2-0.1c0.1-0.1,0-0.2,0-0.1c0,0-0.3,0-0.4,0.1c-0.1,0-0.1,0.2-0.1,0.2
						c0.1,0,0,0.2-0.1,0.2c-0.1,0,0-0.2-0.1-0.3c0-0.1,0-0.2,0-0.2c0,0,0-0.1,0-0.1c0,0,0.2-0.2,0.4-0.2c0.1-0.1,0.1,0-0.2,0
						c0,0,0,0-0.2,0.1c0,0-0.1,0.1-0.1,0.1c-0.1,0-0.1,0-0.1,0c-0.1,0-0.1,0.2-0.2,0.2c0,0-0.2,0.1-0.2,0.1c-0.1,0-0.1,0-0.1,0
						c0,0-0.1,0.1-0.1,0.1c-0.1,0,0-0.2,0-0.2c0.1,0,0.1-0.2,0.2-0.3c0-0.1,0-0.2,0-0.2c0,0-0.1,0.2-0.1,0.2c0,0-0.1,0.1-0.1,0.2
						c0,0,0,0-0.1,0c-0.2,0-0.2,0-0.2,0c-0.2-0.1-0.5-0.2-0.5-0.2c0,0-0.2,0-0.1-0.1c0-0.1,0,0,0,0c0,0,0,0.3,0,0.4
						c0,0.1,0.5,0.2,0.7,0.3c0.2,0.1,0.5,0.3,0.5,0.3c0,0.1,0.4,0,0.5,0c0.2,0,0.4-0.2,0.4-0.2c0,0,0-0.1,0-0.1c0,0,0.4,0.1,0.4,0.2
						c0.1,0.1,0.5,0.3,0.6,0.4c0.1,0.1,0.3,0.1,0.3,0.1c0.1,0,0.1,0.2,0.2,0.3c0.1,0.1,0,0.3,0,0.6c0,0,0,0,0,0.2c0,0.1,0,0.1,0,0.1
						c0.1,0.2,0.1,0.7,0.1,0.8c0,0.1-0.2,0.7-0.3,0.9c-0.1,0.2-0.4,0.5-0.5,0.6c-0.1,0.1-0.5,0.2-0.6,0.2c-0.1,0-0.4-0.1-0.5-0.2
						c-0.1,0-0.2-0.2-0.2-0.3c0,0,0,0-0.2-0.1c-0.1,0-0.1,0-0.1,0c0,0.1-0.3,0-0.4,0.1c-0.1,0-0.2-0.1-0.2-0.1c0,0-0.3,0.3-0.3,0.5
						c0,0.1-0.3,0.5-0.4,0.6c-0.1,0.1-0.4,0.4-0.4,0.5c-0.1,0.1-0.1,0.5-0.2,0.7c0,0.1-0.4,0.4-0.5,0.5c-0.1,0.1-0.3,0.4-0.3,0.4
						c0,0.1-0.4,0.4-0.5,0.5C131.1,340,130.5,339.8,130.4,339.7z"/>
					<path class="st7" d="M140.9,337c0,0,0.2-0.1,0.2-0.1c0,0,0,0.1,0,0.1c0,0,0,0.1-0.1,0c0,0-0.1,0.1-0.2,0
						C140.9,337,140.9,337,140.9,337z"/>
					<path class="st7" d="M141.1,337.5c0,0-0.2,0-0.3,0c0,0-0.1-0.1-0.2-0.1c-0.1,0,0.1-0.2,0.2-0.2c0.1,0.1,0.3,0,0.3,0
						c0,0,0.2,0,0.3,0c0.1,0,0.4,0.1,0.5,0.1c0.1,0,0.2,0.2,0.2,0.2c0,0-0.2,0-0.2-0.1c0,0-0.3-0.1-0.4-0.1c-0.1,0-0.2,0-0.3,0
						C141.1,337.4,141.1,337.5,141.1,337.5z"/>
					<path class="st7" d="M141.3,336.8c0,0,0.1,0,0.1,0c0,0,0,0.1,0,0.1C141.4,337,141.3,336.9,141.3,336.8z"/>
					<path class="st7" d="M140.4,337.4c0,0-0.2,0-0.2-0.1c0-0.1,0-0.1,0.1-0.1C140.3,337.2,140.4,337.3,140.4,337.4z"/>
					<path class="st7" d="M139.4,341.3c-0.1,0-0.4,0.3-0.5,0.4c-0.1,0.1-0.1,0.3-0.1,0.3c0,0-0.1,0.1-0.1,0.1c0,0-0.1,0.4-0.2,0.5
						c-0.1,0.1-0.1,0.6-0.2,0.8c-0.1,0.2-0.3,0.4-0.3,0.4c0,0-0.1,0.2-0.1,0.2c0.1,0.1,0.1,0.2,0,0.2c0,0-0.1,0.2-0.1,0.2
						c0,0.1-0.3,0.4-0.3,0.5c-0.1,0.1-0.3,0.3-0.4,0.3c-0.1,0.1-0.2,0.2-0.2,0.2c0,0,0,0-0.1,0c0,0-0.1,0-0.2,0c0,0-0.3-0.1-0.3-0.2
						c-0.1,0,0-0.1,0.1-0.1c0.1,0,0.2-0.2,0.2-0.2c0,0,0.2-0.2,0.1-0.3c0-0.1-0.1-0.2-0.1-0.3c0,0,0.1-0.2,0.1-0.3
						c0,0,0.1-0.3,0.2-0.4c0.1-0.1-0.1-0.3-0.1-0.4c0-0.1-0.2-0.3-0.2-0.4c0-0.1,0-0.4,0.1-0.4c0.1,0-0.1-0.1-0.1-0.2
						c-0.1,0-0.1-0.1-0.1-0.1c0,0,0-0.2-0.1-0.2c0,0,0-0.4,0-0.4c0-0.1,0-0.3,0-0.3c0-0.1,0-0.2,0-0.3c0-0.1-0.2-0.3-0.2-0.3
						c0,0,0.1-0.4,0.1-0.6c0-0.1,0-0.4,0.1-0.4c0,0,0-0.1-0.1-0.1c0,0,0-0.2,0-0.3c0-0.1-0.1-0.3-0.1-0.3c0,0,0-0.1,0-0.2
						c0,0,0,0,0-0.1c0.1-0.1,0.1-0.1,0.1-0.1c0.1-0.1,0.3-0.2,0.3-0.1c0,0,0.2,0,0.3,0c0.1,0,0.3,0.1,0.3,0.1c0,0,0.3,0,0.4,0
						c0.1,0,0.3,0.1,0.3,0.1c0,0,0.2-0.3,0.4-0.3c0.2,0,0.6-0.1,0.6-0.2c0.1-0.1,0.4-0.1,0.5-0.1c0.1,0,0.3,0,0.3,0.1
						c0,0,0.2-0.1,0.3-0.1c0.1,0,0.3,0,0.3,0.1c0,0,0.1,0.1,0.2,0.1c0,0,0.1,0.1,0.1,0.1c0,0,0.1,0.3,0.1,0.4c0,0.1,0.2,0,0.2,0
						c0.1,0,0.2,0.1,0.2,0.2c0,0.1,0.3-0.2,0.3-0.3c0-0.1,0.3-0.3,0.4-0.3c0.1,0,0.3-0.2,0.3-0.3c0-0.1,0.3-0.1,0.3-0.1
						c0.1,0,0.1,0.2,0.1,0.3c0,0.1,0.5,0.1,0.6-0.2c0.1-0.3,0-0.7-0.1-0.8c0-0.1-0.3-0.2-0.4-0.2c-0.1,0-0.1-0.1-0.1-0.1
						c0,0-0.3-0.1-0.4-0.1c-0.1,0-0.3,0.2-0.4,0.2c-0.1,0,0-0.2,0-0.3c0-0.1,0.1-0.2,0.2-0.2c0,0,0-0.4-0.1-0.5
						c-0.1-0.1-0.1-0.4-0.1-0.4c0,0-0.1-0.1-0.1-0.1c0,0,0.1-0.3,0.1-0.4c0-0.1-0.2-0.3-0.2-0.4c-0.1-0.1,0-0.3,0-0.3
						c0,0-0.1-0.3-0.2-0.4c-0.1-0.1-0.2,0-0.2,0c0,0-0.1-0.2-0.2-0.2c-0.1-0.1,0.1-0.2,0.1-0.2c0.1,0,0.1-0.2,0-0.2
						c-0.1,0,0-0.2,0-0.2c0,0-0.2-0.1-0.3-0.2c-0.1-0.1-0.1,0.2-0.1,0.3c0,0.1-0.1,0.2-0.2,0.1c0,0-0.1,0-0.1,0c0,0-0.1-0.1-0.2-0.1
						c-0.1,0-0.1-0.1,0-0.2c0-0.1,0.2-0.1,0.3-0.1c0.1-0.1,0.2-0.4,0.3-0.5c0-0.1,0.2-0.1,0.2-0.1c0,0,0.2-0.1,0.3-0.2
						c0.1,0,0.1-0.1,0.1-0.2c0,0,0.3-0.1,0.4-0.2c0.1-0.1,0.1,0,0.1,0c0,0,0.1,0.1,0.2,0.1c0.1,0,0.2-0.2,0.2-0.2c0-0.1,0.3,0,0.3,0
						c0.1,0,0.2,0.1,0.2,0c0,0,0.2,0,0.2,0c0,0-0.2,0.5-0.3,0.7c0,0.2,0,0.3,0.1,0.3c0,0,0,0.1-0.1,0.1c0,0,0,0.2,0,0.3
						c0,0.1,0.1,0.1,0.2,0c0.1-0.1,0.2-0.2,0.2-0.1c0,0,0.1,0,0.1,0c0,0,0.3,0,0.4,0c0.1,0,0.3-0.2,0.3-0.2c0.1,0,0,0,0-0.1
						c0,0-0.1-0.3-0.1-0.3c0-0.1-0.1-0.4-0.2-0.5c0-0.1,0-0.2,0-0.3c0,0-0.3-0.3-0.3-0.3c-0.1-0.1,0-0.3,0-0.4
						c0-0.1,0.1-0.2,0.2-0.2c0,0-0.1-0.1-0.2-0.1c-0.1,0-0.2-0.1-0.3-0.1c-0.1,0-0.2,0-0.4,0c0,0,0,0-0.1,0.2
						c-0.1,0.3-0.1,0.3-0.1,0.3c0.2,0.2,0.2,0.4,0.1,0.4c-0.1,0-0.6,0-0.7,0c-0.1,0-0.1-0.2-0.1-0.3c0-0.1,0.1-0.3,0.1-0.3
						c0,0-0.1-0.1-0.2-0.1c-0.1,0-0.1-0.1-0.1-0.1c0,0,0-0.2,0-0.2c0,0,0.1,0,0.1-0.1c0,0,0.2,0,0.3,0c0.1,0,0.1-0.1,0.1-0.1
						c0,0,0.1-0.2,0.1-0.2c0,0,0.3,0,0.3,0c0.1,0,0.2-0.1,0.2-0.1c0,0,0.3,0.1,0.3,0.1c0.1,0,0.2-0.1,0.3,0c0.1,0.1,0.2,0,0.3,0
						c0.1,0,0.2,0.3,0.1,0.5c-0.1,0.2-0.2,0.3-0.3,0.3c0,0-0.1,0.2,0,0.2c0,0.1,0.2,0,0.1,0c0-0.1,0.2-0.2,0.3-0.2
						c0.1,0,0.2,0,0.3,0c0,0.1,0.1,0.2,0.1,0.2c0,0.1-0.1,0.1-0.1,0.2c0,0.1,0.1,0.2,0.1,0.1c0,0,0.1,0,0.1,0
						c0.1,0.4,0.2,0.7,0.3,1.1c0,0.1,0,0.2,0,0.3c0,0.2,0.1,0.5,0.1,0.7c0,0.1,0,0.2,0,0.3c0,0.3,0,0.6,0,0.9c0,0.2,0,0.4,0,0.6
						c0,0.1,0,0.2,0,0.4c0,0.2,0,0.4-0.1,0.7c0,0.1,0,0.1,0,0.2c-0.1,0.5-0.2,1-0.3,1.5c-0.1,0-0.2,0.1-0.2,0.1
						c-0.1,0.1-0.3,0.1-0.3,0.1c0,0,0-0.2,0.1-0.2c0,0,0-0.1,0-0.1c0,0-0.2,0.1-0.3,0.2c-0.1,0-0.3,0.4-0.4,0.5
						c-0.1,0.1-0.6,0-0.8,0c-0.2,0-0.4,0-0.5,0.1c-0.1,0-0.3,0-0.3,0c-0.1,0-0.2,0.1-0.3,0.1c-0.1,0-0.1,0.1-0.1,0.1
						c0,0-0.3,0-0.4,0c-0.1,0-0.2,0-0.2-0.1c0,0-0.1,0.1-0.2,0.2c-0.1,0-0.1,0.2-0.1,0.2c0,0-0.1,0.3,0,0.4c0,0.1,0,0.5-0.1,0.6
						c-0.1,0.1-0.2,0.2-0.3,0.2c-0.1,0-0.1,0.1,0,0.1c0,0-0.1,0.4-0.3,0.4c-0.1,0-0.3,0.1-0.3,0.2
						C139.8,341.1,139.5,341.2,139.4,341.3z"/>
					<path class="st7" d="M144,330c-0.1-0.1-0.3-0.2-0.3-0.2c0,0,0-0.1,0.1-0.1c0,0,0,0-0.1,0c0,0,0-0.3,0-0.4
						c0-0.1-0.3-0.3-0.3-0.4c-0.1-0.1-0.1-0.3-0.2-0.3c-0.1,0-0.1-0.2-0.1-0.2c0,0-0.1-0.2-0.2-0.3c-0.1-0.1-0.1-0.2,0-0.2
						c0,0,0.2,0.2,0.4,0.5c0.2,0.3,0.4,0.6,0.6,0.9c0.2,0.3,0.3,0.6,0.5,0.9c0,0.1,0.1,0.2,0.1,0.3C144.2,330.1,144.1,330,144,330z"
						/>
					<path class="st7" d="M143.8,332c0,0.1-0.1,0.2-0.2,0.2c-0.1,0-0.1-0.3-0.2-0.3c-0.1,0-0.2,0-0.2,0c0,0,0.3,0,0.4,0
						C143.7,331.8,143.8,331.9,143.8,332z"/>
					<path class="st7" d="M139.3,327.2c0,0,0-0.2,0-0.2c0,0-0.1-0.1-0.1-0.2c0,0-0.1-0.2-0.2-0.2c-0.1,0,0-0.2,0-0.2
						c0.1,0,0.2,0.1,0.3,0.1c0,0,0.3,0.1,0.3,0.1c0.1,0.1,0.1-0.2,0-0.2c-0.1-0.1,0.1-0.2,0.2-0.1c0.1,0,0.4,0.1,0.4,0.2
						c0.1,0,0.2,0,0.2,0c0,0,0.3,0.2,0.5,0.3c0.1,0.1,0.5,0.2,0.6,0.3c0.1,0.1,0.1,0.2,0,0.3c0,0,0.3,0.2,0.4,0.3
						c0.1,0.1,0.7,0.4,0.8,0.6c0.1,0.2,0.1,0.4,0.1,0.4c-0.1,0,0,0.2,0.1,0.2c0.1,0.1,0.3,0.2,0.3,0.2c0,0.1-0.1,0.1-0.1,0.1
						c0,0-0.1-0.1-0.1-0.1c-0.1,0-0.2-0.1-0.3-0.1c-0.1,0,0.1,0.1,0.2,0.2c0.1,0,0,0.2-0.1,0.2c-0.1,0-0.3-0.1-0.3-0.1
						c0,0-0.2-0.1-0.3-0.1c-0.1,0-0.3,0.2-0.3,0.2c-0.1,0-0.1,0.2-0.1,0.3c0,0.1-0.2,0.1-0.2,0c0,0-0.1,0.1,0,0.1
						c0.1,0-0.1,0.2-0.2,0.2c-0.1,0-0.1,0.1-0.1,0.2c0,0.1,0,0.2,0,0.2c0,0.1-0.4,0.3-0.4,0.5c-0.1,0.2-0.3,0.3-0.3,0.3
						c0,0-0.2-0.1-0.3,0c0,0-0.1-0.1-0.1-0.1c0,0,0-0.2-0.1-0.3c0-0.1,0-0.6,0-0.6c0,0-0.2-0.1-0.2-0.1c0,0-0.1-0.2-0.1-0.2
						c0,0-0.2-0.3-0.3-0.4c-0.1-0.1-0.1-0.4-0.1-0.4c0-0.1,0,0,0.1,0c0.1,0,0.1-0.1,0.1-0.1c0,0-0.3-0.1-0.3-0.1
						c-0.1,0-0.2-0.2-0.1-0.2c0.1,0,0,0,0,0c0,0,0-0.2,0-0.2c0,0-0.1-0.3,0-0.5c0.1-0.1,0.1-0.4,0-0.4
						C139.1,327.5,139.2,327.3,139.3,327.2C139.4,327.3,139.3,327.3,139.3,327.2z"/>
					<path class="st7" d="M141.6,337c0,0,0.1,0.1,0,0.1c0,0,0,0-0.1,0C141.6,337.1,141.6,337,141.6,337z"/>
					<path class="st7" d="M122.8,331.9c-0.2,0-0.4-0.1-0.4-0.3C122.6,331.6,122.9,331.7,122.8,331.9z"/>
					<path class="st7" d="M127.6,332.9c0,0.1-0.3,0.2-0.3,0.1c0,0,0.1-0.2,0.2-0.2C127.6,332.8,127.6,332.8,127.6,332.9z"/>
					<path class="st7" d="M123.6,331c0,0-0.1-0.1-0.2-0.2c-0.1,0,0-0.3,0-0.3c0.1,0,0.2-0.1,0.3-0.1c0.1,0,0.1,0.1,0.1,0.2
						c0,0.1,0.1,0.1,0.1,0.2c0,0.1,0,0.1,0,0.1C123.8,330.9,123.6,331,123.6,331z"/>
					<path class="st7" d="M124.9,333c0.1-0.1,0.3-0.2,0.5-0.2c0,0,0,0,0.1-0.1c0.1-0.1,0.1-0.1,0.1-0.1c0.1-0.1,0.3-0.1,0.3-0.1
						c0,0,0,0.1,0.1,0.1c0,0-0.1,0-0.2,0c-0.2,0-0.8,0.6-0.9,0.6C124.8,333.4,124.8,333.1,124.9,333z"/>
					<path class="st7" d="M122,333c0.1,0.1,0.3,0.2,0.3,0.3c0,0,0.1,0.2,0.2,0.3c0.1,0.1,0.1,0.3,0.1,0.4c0,0.1,0.2,0.1,0.2,0.2
						c0,0.1,0.1,0.2,0.1,0.3c0,0.1,0,0.1,0.1,0c0,0,0,0,0,0.1c0,0.1,0,0.1,0,0.1c0,0.2,0.1,0.5,0.1,0.5c0.1,0-0.1,0.3-0.1,0.4
						c-0.1,0.1-0.2,0.2-0.2,0.3c0,0,0,0-0.1,0.1c-0.1,0.2-0.1,0.2-0.1,0.2c0,0.2-0.2,0.2-0.2,0.2c0,0-0.3-0.2-0.4-0.2
						c0,0,0,0-0.1-0.1C121.9,335.1,121.9,334.1,122,333C122,333,122,333,122,333z"/>
					<path class="st7" d="M122.3,331.8c0,0,0.2,0.1,0.2,0.1c0,0,0,0.1,0.1,0.1c0,0,0,0.1-0.1,0.1c0,0-0.2,0-0.3,0
						C122.2,332,122.2,331.9,122.3,331.8C122.3,331.8,122.3,331.8,122.3,331.8z"/>
					<path class="st7" d="M129.3,338c0,0.1-0.2,0.1-0.3,0c0,0-0.1-0.3-0.1-0.4c0-0.1,0.1-0.2,0.1-0.3c0,0,0-0.1,0-0.1
						c0,0,0-0.1,0-0.2c0-0.1,0.3-0.5,0.4-0.6c0-0.1,0.1,0.1,0.1,0.2c0,0.1,0.1,0.3,0.2,0.4c0,0.1,0,0.3-0.1,0.4c0,0-0.1,0.2-0.1,0.2
						C129.5,337.7,129.3,337.9,129.3,338z"/>
					<path class="st7" d="M123.5,332c0.1,0,0.2,0.4,0.1,0.5c-0.1,0.1-0.2,0.1-0.2,0.1c0,0-0.2,0-0.2-0.1c0,0,0,0,0-0.1
						c0.1,0,0.1-0.2,0.1-0.3C123.3,332.2,123.4,332,123.5,332z"/>
					<path class="st7" d="M124.2,330.3c0-0.1,0.1-0.1,0.2-0.1c0.1,0,0,0.3-0.1,0.3C124.3,330.5,124.2,330.3,124.2,330.3z"/>
					<path class="st7" d="M123.8,332.2c0-0.1,0.1-0.3,0.1-0.4c0-0.1,0.2-0.1,0.3-0.1c0.1,0,0.1,0.6,0.2,0.7c0.1,0.2,0.1,0.5,0,0.5
						c-0.1,0-0.4-0.1-0.5,0c-0.1,0-0.1-0.1-0.1-0.1c0,0,0,0,0,0c0,0-0.1-0.2,0-0.3C123.8,332.4,123.8,332.3,123.8,332.2z"/>
					<path class="st7" d="M124.9,329.7c0,0.1-0.1,0.2-0.1,0.2c0,0-0.1,0-0.1-0.1C124.7,329.8,124.9,329.6,124.9,329.7z"/>
					<path class="st7" d="M124.6,333.5c0,0.1-0.5-0.1-0.7-0.1c-0.2,0-0.3-0.1-0.2-0.1c0,0,0.6,0,0.7,0
						C124.5,333.4,124.6,333.5,124.6,333.5z"/>
				</g>
			</g>
			<path class="st1" d="M129.4,344.8c6,1.8,12.3-1.4,14-7.2c1.8-5.8-1.6-12-7.6-13.8c-1-0.3-2-0.5-3-0.5c1.4-0.1,2.8,0.1,4.2,0.5
				c6.2,1.9,9.8,8.3,7.9,14.4s-8.4,9.4-14.6,7.5c-2.3-0.7-4.3-2.1-5.8-3.8C125.8,343.2,127.5,344.2,129.4,344.8z"/>
		</g>
		<g>
			<g>
				<path class="st0" d="M82.5,308c-2.5,1.8-3.5,5.1-2.5,8.1c5.4,14.7,22.4,57,39.4,61.4c20.6,5.3,30.2-8.9,19.8-19
					c-8.3-8-34.7-38-45.3-50.2c-2.6-2.9-6.9-3.4-10.1-1.1L82.5,308z"/>
				<path class="st1" d="M119.4,377.5c-17-4.4-34.1-47.2-39.4-61.6c-1-2.8-0.1-5.9,2.3-7.7l0.5-0.4c8,18.8,30.1,68.9,52,61.4
					c4.2-1.4,6.5-3.7,7.5-6.4C146.8,372.1,137.1,382,119.4,377.5z"/>
			</g>
			<g>
				<path class="st2" d="M142.2,370.9c-0.4-1.8-0.7-3.6-1.2-5.1c-0.1-0.4-0.3-0.8-0.4-1.1c-0.2-0.3-0.3-0.6-0.4-0.6
					c-0.1,0,0.1,0-0.1,0l-0.3,0.1c-0.2,0.1-0.3,0.1-0.5,0.1c-0.3,0.1-0.6,0.1-0.9,0.1c-1.2-0.1-2.2-0.6-3-1
					c-0.8-0.5-1.6-1.1-2.2-1.7c-0.7-0.6-1.3-1.3-1.9-1.9c-0.3-0.3-0.6-0.6-0.9-0.9c-0.3-0.3-0.6-0.6-1.1-0.7c0.5-0.2,1,0,1.4,0.1
					c0.5,0.1,0.9,0.4,1.3,0.5c0.8,0.4,1.6,0.9,2.4,1.3c0.8,0.4,1.5,0.9,2.2,1.2c0.7,0.3,1.5,0.6,2,0.6c0.1,0,0.3,0,0.4,0
					c0.1,0,0.1,0,0.2,0l0.1,0l0.3-0.1c0.3-0.1,0.8-0.2,1.2-0.1c0.4,0.1,0.9,0.3,1.1,0.6c0.6,0.5,0.8,1.1,0.9,1.6
					c0.2,0.5,0.2,1,0.3,1.5C143,367.3,142.8,369.2,142.2,370.9z"/>
			</g>
		</g>
		<path class="st4" d="M62.5,283.9c0.3-0.6,3.9-6.5-5.3-10.4c-9.2-3.8-10.3-17.9-11.4-21.1s-21.4,4.7-1,20.9
			c-10.1-0.3-8.5,7.8-4.1,10.1c4.4,2.3,10.1,1.4,10.1,1.4s-7.3,5.3-2.2,8.9C53.8,297.3,59,289.6,62.5,283.9z"/>
		<path class="st0" d="M6.1,330.6c2.1,0,5.2-0.5,7.9-3c-0.9,18.4,5.9,29.8,9.5,34.5c-5.9-0.9-13.2-2.6-19.8-6.1
			c-1.6-0.9-2.9-2.4-3.3-4.2c-1.4-6.1,0.4-13.9,1.7-18.3C2.7,331.8,4.3,330.6,6.1,330.6z"/>
		<g>
			<g>
				<path class="st10" d="M178.9,26.7c-39.9-0.1-28.8,119.2-0.3,119.3C207.1,146,218.8,26.8,178.9,26.7z"/>
				<path class="st5" d="M179,46c-25.5-0.1-16.9,91.8,1.3,91.9C198.6,138,204.5,46.1,179,46z"/>
			</g>
			<g>
				<path class="st10" d="M306.5,144.5c1.8,12.5-4.9,24-9,25.4c-33.8,12-88.1,7.6-90.9-11.2c-2.8-19.7,53.2-40,89.1-36.1
					C303.2,123.4,304.7,132,306.5,144.5z"/>
				<path class="st5" d="M305.5,144.3c3.6,25.2-88.6,29.6-91.2,11.6C211.8,137.8,301.9,119,305.5,144.3z"/>
				<path class="st10" d="M299.8,169.4c-10.9,14.1-32.8,31.8-43.5,22.2c-21.5-19.3,7.3-68.9,38.4-69.1
					C311.8,122.4,310.7,155.3,299.8,169.4z"/>
				<path class="st10" d="M299.8,169.4c-10.9,14.1-32.8,31.8-43.5,22.2c-21.5-19.3,7.3-68.9,38.4-69.1
					C311.8,122.4,310.7,155.3,299.8,169.4z"/>
			</g>
			
				<ellipse transform="matrix(0.5172 -0.8559 0.8559 0.5172 -121.0262 238.6128)" class="st0" cx="151" cy="226.6" rx="93.9" ry="112.9"/>
			<g>
				
					<ellipse transform="matrix(0.5056 -0.8627 0.8627 0.5056 -126.0081 253.1816)" class="st7" cx="157.9" cy="236.5" rx="83.3" ry="94.2"/>
			</g>
			<g>
				<defs>
					
						<ellipse id="SVGID_3_" transform="matrix(0.5056 -0.8627 0.8627 0.5056 -126.0081 253.1816)" cx="157.9" cy="236.5" rx="83.3" ry="94.2"/>
				</defs>
				<clipPath id="SVGID_4_">
					<use xlink:href="#SVGID_3_"  style="overflow:visible;"/>
				</clipPath>
				<g class="st11">
					
						<ellipse transform="matrix(0.3555 -0.9347 0.9347 0.3555 -118.5828 403.4413)" class="st12" cx="233.3" cy="287.7" rx="7.8" ry="20.9"/>
					
						<ellipse transform="matrix(0.451 -0.8925 0.8925 0.451 -147.1015 250.5977)" class="st12" cx="130.1" cy="244.9" rx="7.8" ry="20.9"/>
				</g>
			</g>
			<g>
				
					<ellipse transform="matrix(0.3723 -0.9281 0.9281 0.3723 -97.8217 368.3008)" class="st1" cx="223.4" cy="256.5" rx="16.5" ry="10.9"/>
				<ellipse transform="matrix(0.3723 -0.9281 0.9281 0.3723 -96.9446 367.4047)" cx="223.1" cy="255.4" rx="15.5" ry="10.2"/>
				<circle class="st13" cx="223.4" cy="264.1" r="2.4"/>
			</g>
			<g>
				
					<ellipse transform="matrix(0.3941 -0.9191 0.9191 0.3941 -114.913 293.5574)" class="st1" cx="165.2" cy="233.9" rx="19.2" ry="12.6"/>
				<ellipse transform="matrix(0.3941 -0.9191 0.9191 0.3941 -113.5934 294.1233)" cx="166.3" cy="233.2" rx="18.1" ry="11.9"/>
				<circle class="st13" cx="166.8" cy="242.6" r="2.8"/>
			</g>
			<path class="st14" d="M227.9,226.1c0,0,12.7-2.3,18.7,6.9C240,229.8,237.2,227.8,227.9,226.1z"/>
			<path class="st14" d="M174.6,202.3c0,0-8.2-10.1-19.6-5.5C162.5,198,166.1,198,174.6,202.3z"/>
			<path class="st1" d="M185.4,174.6c43.5,15.3,58.8,41.2,63.5,62.1c-3.1-27.6-20.1-54.7-47.8-71.4
				c-44.6-26.8-100.1-16.7-123.9,22.7c-16.7,27.5-13.5,61.9,5.1,89.4C69.3,227.2,110.5,148.3,185.4,174.6z"/>
		</g>
		<path class="st15" d="M171.6,278.1c0,0,6.4,9.7,17,7.7c-8.8,16.3-15.2,22.3-19.2,20.5C165,304.3,166.2,292.3,171.6,278.1z"/>
	</g>
	<g>
		<g>
			<path class="st16" d="M415.2,398.8c-9.7-1.4-188.5-22.8-188.5-22.8l-3-25.8l-15.5,0.8v13.6l21.6,131.7c0,0,1.8,12.7,9.2,12.7
				s139.8,0,139.8,0l-2.1,10.9H224.1c0,0-8.6,1-8.6,9.9c0,8.8,9,9.2,9,9.2h156.2c0,0,8.8,0.2,10.9-9.5c2.1-9.7,29-115.9,29-115.9
				S424.9,400.3,415.2,398.8z M245.5,492.9l-12.9-96.6l15.2,1.8l12.8,94.8H245.5z M276.8,492.9l-12.6-92.9l23.6,2.8l3.7,90.1H276.8z
				 M323.3,492.9h-16.6l-3.5-88.3l22.1,2.6L323.3,492.9z M353.3,492.9H338l3.1-83.8l23.4,2.8L353.3,492.9z M384.2,492.9h-13.7
				l10.1-79.2l23.1,2.7L384.2,492.9z"/>
			<rect x="246.9" y="482.8" class="st17" width="150" height="11.1"/>
			<g>
				<g>
					<path class="st18" d="M238.7,530.5c0.2,0.6,0,30.8,0,30.8s1.8,7.6,8.6,8.2c6.8,0.7,14.8-7.6,14.8-7.6v-32.7L238.7,530.5z"/>
					<g>
						<path class="st19" d="M250,573.3c-9.6,0-17.4-7.8-17.4-17.4c0-9.6,7.8-17.3,17.4-17.3c9.6,0,17.3,7.8,17.3,17.3
							C267.4,565.5,259.6,573.3,250,573.3z M250,546.3c-5.3,0-9.7,4.3-9.7,9.7c0,5.3,4.3,9.7,9.7,9.7c5.3,0,9.7-4.3,9.7-9.7
							C259.7,550.6,255.4,546.3,250,546.3z"/>
					</g>
				</g>
				<g>
					<path class="st18" d="M355,530.5c0.2,0.6,0,30.8,0,30.8s1.8,7.6,8.6,8.2c6.8,0.7,14.8-7.6,14.8-7.6v-32.7L355,530.5z"/>
					<g>
						<path class="st19" d="M366.3,573.3c-9.6,0-17.4-7.8-17.4-17.4c0-9.6,7.8-17.3,17.4-17.3c9.6,0,17.3,7.8,17.3,17.3
							C383.7,565.5,375.9,573.3,366.3,573.3z M366.3,546.3c-5.3,0-9.7,4.3-9.7,9.7c0,5.3,4.3,9.7,9.7,9.7c5.3,0,9.7-4.3,9.7-9.7
							C376,550.6,371.7,546.3,366.3,546.3z"/>
					</g>
				</g>
			</g>
			<path class="st18" d="M423.5,392.4c-9.7-1.4-188.5-22.8-188.5-22.8l-3-25.8l-15.5,0.8V358l21.6,131.7c0,0,1.8,12.7,9.2,12.7
				c7.4,0,139.8,0,139.8,0l-2.1,10.9H232.3c0,0-8.6,1-8.6,9.9s9,9.2,9,9.2h156.2c0,0,8.8,0.2,10.9-9.5c2.1-9.7,29-115.9,29-115.9
				S433.1,393.8,423.5,392.4z M253.7,486.5l-12.9-96.6l15.2,1.8l12.8,94.8H253.7z M285,486.5l-12.6-92.9l23.6,2.8l3.7,90.1H285z
				 M331.5,486.5h-16.6l-3.5-88.3l22.1,2.6L331.5,486.5z M361.6,486.5h-15.4l3.1-83.8l23.4,2.8L361.6,486.5z M392.4,486.5h-13.7
				l10.1-79.2L412,410L392.4,486.5z"/>
			<g>
				<path class="st17" d="M164.6,349.2c-0.4,2.3,1.2,4.5,3.5,4.8l56.6,8.8c2.3,0.4,4.5-1.2,4.8-3.5l2.4-15.6l-65-10.1L164.6,349.2z"
					/>
				<path class="st18" d="M229,335.7l-56.6-8.8c-2.3-0.4-4.5,1.2-4.8,3.5l-0.5,3.1l65,10.1l0.5-3.1
					C232.9,338.3,231.3,336.1,229,335.7z"/>
			</g>
		</g>
		<g>
			<circle class="st20" cx="321" cy="442.5" r="29.3"/>
			<rect x="304" y="438.3" class="st21" width="34.1" height="8.5"/>
		</g>
	</g>
	<g>
		<g>
			<g>
				<g>
					<g>
						<path class="st0" d="M521.4,448.1c0,0,42.9,34,41.2,51.9c-1.7,17.9-15.8,21.6-20.9,10.4c-5.1-11.2-29.9-55.7-29.9-55.7
							L521.4,448.1z"/>
						<path class="st1" d="M562.6,500c1.7-17.9-41.2-51.9-41.2-51.9l-3.9,2.7c12.7,11.8,46.4,43.8,34.1,59.1
							c-2.3,2.9-4.9,4.1-7.3,4.2C550.5,520.3,561.2,515.5,562.6,500z"/>
					</g>
					<g>
						<path class="st2" d="M550.9,516.4c-1.5-0.2-3-0.6-4.4-1.4c-0.4-0.2-0.7-0.4-1-0.6c-0.3-0.3-0.7-0.6-0.9-1.1
							c-0.1-0.2-0.1-0.5-0.1-0.8c0.1-0.3,0.2-0.5,0.3-0.7l0.1-0.1l0.1-0.1l0.1-0.2c0.1-0.1,0.1-0.3,0.2-0.4c0.3-1.2,0-2.7-0.4-4.2
							c-0.2-0.7-0.3-1.5-0.5-2.2c-0.1-0.4-0.1-0.8-0.2-1.1c0-0.4-0.1-0.8,0.2-1.1c-0.1,0.7,0.2,1.4,0.5,2.1c0.3,0.7,0.6,1.4,0.8,2.1
							c0.5,1.4,1,3,0.6,4.7c-0.1,0.2-0.1,0.4-0.3,0.6l-0.2,0.3l-0.2,0.2c-0.2,0.2-0.2,0.3-0.1,0.6c0.2,0.5,0.8,0.9,1.4,1.3
							C548.1,515.1,549.5,515.7,550.9,516.4z"/>
					</g>
				</g>
				<g>
					<g>
						<path class="st0" d="M454.6,448.1c0,0-42.9,34-41.2,51.9c1.7,17.9,15.8,21.6,20.9,10.4c5.1-11.2,29.9-55.7,29.9-55.7
							L454.6,448.1z"/>
						<path class="st1" d="M413.4,500c-1.7-17.9,41.2-51.9,41.2-51.9l3.9,2.7c-12.7,11.8-46.4,43.8-34.1,59.1
							c2.3,2.9,4.9,4.1,7.3,4.2C425.5,520.3,414.8,515.5,413.4,500z"/>
					</g>
					<g>
						<path class="st2" d="M425.1,516.4c1.4-0.6,2.7-1.3,4-2.1c0.6-0.4,1.2-0.9,1.4-1.3c0.1-0.2,0-0.3-0.1-0.6l-0.2-0.2l-0.2-0.3
							c-0.2-0.2-0.2-0.4-0.3-0.6c-0.4-1.8,0.1-3.3,0.6-4.7c0.2-0.7,0.5-1.4,0.8-2.1c0.3-0.7,0.6-1.4,0.5-2.1
							c0.2,0.3,0.2,0.8,0.2,1.1c0,0.4-0.1,0.8-0.2,1.1c-0.1,0.7-0.3,1.5-0.5,2.2c-0.3,1.4-0.7,3-0.4,4.2c0.1,0.1,0.1,0.3,0.2,0.4
							l0.1,0.2l0.1,0.1l0.1,0.1c0.2,0.2,0.3,0.5,0.3,0.7c0,0.3,0,0.6-0.1,0.8c-0.2,0.5-0.5,0.8-0.9,1.1c-0.3,0.3-0.7,0.5-1,0.6
							C428.1,515.7,426.6,516.1,425.1,516.4z"/>
					</g>
				</g>
				
					<radialGradient id="SVGID_5_" cx="619.772" cy="569.3437" r="147.8711" gradientTransform="matrix(0.8027 0 0 0.8027 -6.8951 4.417)" gradientUnits="userSpaceOnUse">
					<stop  offset="0" style="stop-color:#AC2326"/>
					<stop  offset="0.3251" style="stop-color:#A82427"/>
					<stop  offset="0.662" style="stop-color:#9B2529"/>
					<stop  offset="1" style="stop-color:#87282C"/>
				</radialGradient>
				<path class="st22" d="M452.4,447.4c0,0-43,94.4-3.9,123.8c1.3,1,3,1.5,4.6,1.5c6.2,0,13.4,0,17.5,0.1c2.6,0,5-1.6,6-4
					c1.3-3.3,2.6-9.2,2.1-19.3c9.3,2.9,18.8,0,18.8,0s-0.8,11.8,2.2,19.3c0.9,2.4,3.3,4,5.9,4c6.6,0,13.9,0,17.6-0.1
					c1.6,0,3.2-0.5,4.5-1.5c8.2-6.5,34.3-28.2-3.9-123.8H452.4z"/>
				<path class="st7" d="M460.8,447.6c0,0-48.4,97.1,26.8,97.1s29.8-96.2,25.1-101.4C507.9,438.1,459.6,437.4,460.8,447.6z"/>
				<path class="st1" d="M464.9,447.5c-0.7-5.4,12.7-7.7,26-7.9c-14.5-0.2-30.7,2-30,8c0,0-48.4,97.1,26.8,97.1
					c8.4,0,15.2-1.2,20.8-3.3c-4.8,1.4-10.5,2.1-17.1,2.1C417,543.5,464.9,447.5,464.9,447.5z"/>
				<path class="st2" d="M445.3,447.6c0,0,5.4,16.1,41,16.1s41.1-9.8,43.6-16.1C532.5,441.4,463.3,428.7,445.3,447.6z"/>
				<g>
					<g>
						<path class="st10" d="M422.3,193.2c-35.5,11.6,9.3,114.4,34.7,106.1C482.4,291,457.8,181.6,422.3,193.2z"/>
						<path class="st5" d="M428.1,210.3c-22.7,7.4,11.9,86.6,28.1,81.3C472.4,286.3,450.8,202.9,428.1,210.3z"/>
					</g>
					<path class="st10" d="M549.3,209.6c11.3,3.7,18.1,14,17.6,18.1c-3.9,33.4-30.2,77.1-47.1,71.6c-17.7-5.8-11.5-61.2,6.7-89.7
						C530.2,203.6,538,205.9,549.3,209.6z"/>
					<path class="st5" d="M548.7,210.3c22.7,7.4-11.9,86.6-28.1,81.3C504.3,286.3,526,202.9,548.7,210.3z"/>
					<path class="st10" d="M567.4,225.6c7.3,15,13.1,40.7,0.6,45.7c-25.1,10-54.8-34.7-42-60.9C532.9,196,560.1,210.6,567.4,225.6z"
						/>
					<path class="st10" d="M567.4,225.6c7.3,15,13.1,40.7,0.6,45.7c-25.1,10-54.8-34.7-42-60.9C532.9,196,560.1,210.6,567.4,225.6z"
						/>
					<ellipse class="st0" cx="488" cy="371" rx="112" ry="87.9"/>
					<g>
						<ellipse class="st7" cx="488" cy="364" rx="97.2" ry="74.1"/>
						<path class="st1" d="M488,290c-53.7,0-97.2,33.2-97.2,74.1c0,40.9,43.5,74.1,97.2,74.1c53.7,0,97.2-33.2,97.2-74.1
							C585.2,323.1,541.7,290,488,290z M490.2,435.3c-51.6,0-93.5-31.9-93.5-71.2c0-39.3,41.8-71.2,93.5-71.2s93.5,31.9,93.5,71.2
							C583.6,403.4,541.8,435.3,490.2,435.3z"/>
					</g>
					<ellipse class="st12" cx="553.6" cy="382.8" rx="19.6" ry="7.4"/>
					<ellipse class="st12" cx="422.3" cy="382.8" rx="19.6" ry="7.4"/>
					<g>
						
							<ellipse transform="matrix(5.645190e-02 -0.9984 0.9984 5.645190e-02 158.4098 852.1362)" class="st1" cx="530" cy="342.3" rx="18" ry="11.8"/>
						
							<ellipse transform="matrix(5.645190e-02 -0.9984 0.9984 5.645190e-02 158.885 850.5278)" cx="529.4" cy="341.2" rx="17" ry="11.2"/>
						<circle class="st13" cx="530.7" cy="330" r="2.6"/>
					</g>
				</g>
				<g>
					<g>
						<g>
							<path class="st2" d="M498.8,470.3c0,5.4-4.5,9.8-10.1,9.8c-5.6,0-10.1-4.4-10.1-9.8c0-5.4,4.5-9.8,10.1-9.8
								C494.3,460.5,498.8,464.9,498.8,470.3z"/>
						</g>
						<g>
							<path class="st7" d="M498.7,468.4c0-0.1-0.1-0.2-0.1-0.3c0,0-0.1,0-0.1,0.1c-0.1,0-0.3,0.2-0.3,0.2c0,0-0.1,0.1-0.1,0.2
								c0,0,0,0,0,0c0,0,0,0.2,0,0.2c0,0,0.1-0.1,0.2-0.2c0.1,0,0.2-0.1,0.2,0C498.5,468.5,498.6,468.4,498.7,468.4
								C498.7,468.4,498.7,468.4,498.7,468.4z"/>
							<path class="st7" d="M481.6,470.1c0,0,0.1,0,0.2,0c0,0,0,0,0-0.1C481.8,470,481.6,470.1,481.6,470.1z"/>
							<path class="st7" d="M489.6,475.3c0.1-0.1,0.3-0.4,0.4-0.5c0.1-0.1,0.1-0.3,0.1-0.4c0-0.1,0.1-0.1,0.2-0.1
								c0,0,0.2-0.5,0.3-0.7c0.1-0.1,0.3-0.7,0.2-0.9c0-0.2,0.1-0.6,0.1-0.7c0-0.1,0.2-0.3,0.2-0.3c0,0,0.3-0.4,0.4-0.6
								c0.1-0.1,0.2-0.5,0.2-0.5c0-0.1-0.2-0.1-0.2-0.1c0,0-0.2,0.1-0.3,0.1c-0.1,0-0.2-0.3-0.3-0.4c-0.1-0.1-0.2-0.4-0.2-0.5
								c0-0.1-0.2-0.2-0.2-0.3c0,0,0-0.2-0.1-0.3c0-0.1,0.1,0,0.1,0.1c0,0.1,0.2,0.4,0.3,0.5c0.1,0.1,0.2,0.4,0.3,0.5
								c0,0.1,0.4,0,0.6,0c0.1-0.1,0.3-0.2,0.3-0.2c0,0,0.2-0.1,0.3-0.2c0.1,0,0.1-0.3,0.1-0.3c0,0,0-0.3-0.1-0.3
								c0-0.1-0.2-0.1-0.3-0.1c0,0-0.1-0.1-0.2-0.2c0-0.1-0.2-0.1-0.2-0.2c0,0,0-0.1,0.1-0.1c0,0,0.3,0.2,0.4,0.3
								c0.1,0.1,0.2,0.3,0.2,0.3c0,0,0.2,0,0.3,0c0,0,0.1,0,0.1,0c0,0,0,0,0.1,0c0.2,0,0.2,0,0.2,0c0.1,0.1,0.2,0.2,0.1,0.3
								c0,0,0.1,0.1,0.1,0.1c0,0,0.1,0.2,0.1,0.2c0,0,0.2,0.3,0.2,0.4c0,0.1,0.1,0.3,0.2,0.3c0,0.1,0.1,0.2,0.1,0.2
								c0,0,0.1,0.1,0.1,0.1c0.1,0,0.2-0.3,0.2-0.5c0-0.1,0.1-0.2,0.1-0.2c0,0,0-0.1,0-0.1c0,0,0.1,0,0.2-0.1c0,0,0.1-0.3,0.1-0.3
								c0.1,0,0.2-0.2,0.3-0.2c0.1,0,0.2,0.1,0.3,0.2c0,0.1,0.1,0.2,0.1,0.3c0,0,0.1,0.2,0.2,0.2c0.1,0,0.1,0.1,0.1,0.1
								c0,0,0.1,0.2,0.1,0.2c0,0.1,0,0.2,0,0.2c0,0,0,0.2,0,0.3c0,0.1,0.3,0.3,0.4,0.4c0.1,0.1,0.1-0.2,0.1-0.2
								c-0.1-0.1-0.2-0.3-0.3-0.3c0-0.1,0-0.3,0-0.3c0-0.1,0.2,0,0.2,0.1c0.1,0,0.1,0.1,0.1,0.2c0,0,0.4-0.2,0.4-0.4
								c0-0.2,0.1-0.4,0.1-0.5c0-0.1,0-0.1-0.1-0.1c0,0,0.1-0.2,0.2-0.2c0.1,0,0.3-0.3,0.4-0.4c0.1-0.1,0.2-0.2,0.2-0.2
								c0,0,0.1-0.3,0.1-0.4c0-0.1-0.1-0.3-0.1-0.3c0-0.1-0.1-0.2-0.1-0.2c0,0,0-0.2,0-0.2c0,0,0.1-0.1,0.1-0.1c0,0,0.1-0.1,0.1-0.2
								c0,0,0.1,0.1,0.1,0.1c0,0,0.1,0.3,0.2,0.3c0.1,0,0.3-0.3,0.3-0.5c0-0.2,0.1-0.4,0.1-0.5c0,0,0.1-0.1,0.2-0.2
								c-0.5-1.5-1.4-2.8-2.5-3.9c0,0,0,0,0,0c-0.1,0-0.2-0.1-0.2-0.2c-0.1-0.1-0.2-0.2-0.3-0.3c0,0-0.1,0-0.1,0
								c-0.1,0-0.3-0.1-0.3-0.1c0,0-0.1,0-0.2,0.1c0,0.1-0.2,0.1-0.2,0.1c0,0-0.1,0-0.1,0c0,0-0.2,0.1-0.3,0.1
								c-0.1,0-0.3,0.1-0.3,0.1c0,0-0.1,0.1-0.2,0.1c0,0-0.1,0.1-0.2,0.1c0,0,0,0.2,0,0.2c0,0-0.1,0-0.2-0.1c-0.1,0-0.1,0.1-0.1,0.1
								c0,0-0.1,0-0.1-0.1c0-0.1-0.2-0.1-0.2-0.1c0,0-0.1,0-0.2,0c0,0-0.2,0.2-0.3,0.2c-0.1,0.1-0.4,0.1-0.5,0.1
								c-0.1,0-0.1,0.1-0.1,0.2c0.1,0-0.1,0-0.2,0c-0.1,0-0.4,0.1-0.5,0.2c-0.1,0.1-0.1,0-0.1-0.1c0,0-0.1-0.1-0.2-0.1
								c0,0-0.1,0.2-0.2,0.3c-0.1,0-0.1-0.2-0.3-0.2c-0.1,0-0.4-0.2-0.4-0.2c-0.1,0-0.2-0.1-0.2-0.2c0,0-0.2-0.1-0.3-0.1
								s-0.2,0.1-0.3,0.1c-0.1,0-0.1,0-0.2,0c0,0-0.2,0.2-0.3,0.3c-0.1,0.1-0.2,0.3-0.3,0.4c0,0.1-0.1,0.1-0.1,0.1
								c0,0-0.1,0.1-0.1,0.1c0,0-0.2,0.2-0.3,0.3c0,0.1,0,0.4,0,0.4c0,0.1,0.1,0.3,0.2,0.3c0.1,0,0,0.1,0,0.2c0,0,0,0.1,0,0.1
								c0,0-0.2,0.1-0.2,0.1c-0.1,0-0.1,0.1-0.1,0.2c0,0-0.2,0.1-0.2,0.1c0,0,0-0.1,0-0.1c0-0.1,0-0.2,0-0.2c0,0,0-0.3-0.1-0.4
								c0-0.1-0.1-0.2-0.2-0.2c0,0,0-0.1,0-0.1c0,0-0.1-0.1-0.2,0c0,0-0.1,0.3-0.1,0.4c0,0.1,0.1,0.2,0.1,0.2c0,0,0,0.1,0,0.2
								c-0.1,0-0.1,0.2-0.1,0.3c0,0,0,0.1-0.1,0.2c0,0,0.2,0,0.3,0c0.1,0,0.2,0,0.2,0.1c0,0-0.2,0-0.2,0.1c0,0-0.2,0.1-0.2,0.2
								c0,0,0,0.1,0.1,0.1c0.1,0,0.1,0.2,0.2,0.2c0,0,0,0.1,0,0.2c0,0-0.3,0-0.4,0c-0.1,0-0.2,0.2-0.2,0.3c0,0.1,0,0.3,0,0.4
								c0,0.1,0.2,0.1,0.3,0.1c0,0,0.2,0,0.3,0c0,0,0.2-0.2,0.2-0.3c0-0.1,0.2-0.3,0.3-0.4c0-0.1,0.3-0.1,0.3-0.1
								c0.1,0,0,0.2,0.1,0.3c0,0.1,0.2,0.1,0.2,0c0-0.1,0-0.2,0-0.1c0,0,0.2,0.1,0.3,0.2c0,0.1,0,0.2,0,0.2c0,0,0,0.1,0,0.2
								c0,0,0.1-0.2,0.2-0.2c0.1,0,0.1-0.1,0.1-0.1c0,0,0-0.1,0.1-0.1c0,0-0.1-0.2-0.2-0.3c-0.1-0.1,0,0,0.1,0.1c0,0,0,0,0.1,0.2
								c0,0,0.1,0.1,0.1,0.1c0,0,0,0,0,0c0,0.1,0,0.2,0,0.2c0,0,0.1,0.1,0.1,0.1c0.1,0,0.1,0,0.1,0c0,0,0,0.1,0.1,0.1
								c0.1,0,0.1-0.1,0-0.1c-0.1,0,0-0.2-0.1-0.3c0-0.1,0-0.2,0.1-0.2c0,0,0,0.2,0,0.2c0,0,0,0.1,0.1,0.2c0,0,0,0,0.1,0
								c0.1,0.1,0.1,0.1,0.1,0.1c0.2-0.1,0.4,0,0.4,0c0,0,0.1,0,0.1,0c0-0.1,0,0,0,0c0,0-0.1,0.2-0.1,0.3c0,0.1-0.4,0-0.6,0
								c-0.2,0-0.5,0-0.5,0.1c0,0.1-0.3-0.1-0.4-0.2c-0.1-0.1-0.2-0.2-0.3-0.3c0,0,0-0.1,0-0.1c0,0-0.3,0-0.4,0
								c-0.1,0-0.5,0.1-0.6,0.1c-0.1,0-0.3,0-0.3,0c0,0-0.2,0.1-0.2,0.2c-0.1,0-0.1,0.2-0.2,0.4c0,0,0,0-0.1,0.2
								c-0.1,0.1-0.1,0.1-0.1,0.1c-0.1,0.1-0.3,0.5-0.4,0.5c0,0.1-0.1,0.6-0.1,0.8c0,0.2,0.2,0.6,0.2,0.7c0,0.1,0.3,0.3,0.4,0.4
								c0.1,0.1,0.4,0.1,0.5,0.1c0.1,0,0.2-0.1,0.2-0.2c0,0,0,0,0.1,0c0.1,0,0.1,0,0.1,0c0,0.1,0.2,0.1,0.3,0.2c0.1,0,0.2,0,0.2,0
								c0,0,0.1,0.4,0.1,0.5c0,0.1,0.1,0.5,0.1,0.6c0,0.1,0.2,0.4,0.2,0.5c0,0.1-0.1,0.5-0.1,0.6c0,0.1,0.2,0.5,0.2,0.6
								c0,0.1,0.1,0.4,0.1,0.4c0,0.1,0.2,0.4,0.2,0.6C489,475.4,489.5,475.4,489.6,475.3z"/>
							<path class="st7" d="M482.3,469.6c0,0-0.1-0.1-0.1-0.1c0,0-0.1,0.1-0.1,0.1s0,0.1,0,0.1C482.2,469.6,482.2,469.7,482.3,469.6
								C482.3,469.7,482.3,469.6,482.3,469.6z"/>
							<path class="st7" d="M482,470c0,0,0.2,0.1,0.2,0.1c0,0,0.1-0.1,0.2,0c0.1,0,0-0.2-0.1-0.2c-0.1,0-0.2-0.1-0.2-0.1
								c0,0-0.2-0.1-0.2-0.1c0,0-0.3-0.1-0.4-0.1s-0.2,0.1-0.2,0.1c0,0,0.2,0.1,0.2,0c0,0,0.3,0,0.3,0.1c0,0.1,0.1,0.1,0.2,0.1
								S482,469.9,482,470z"/>
							<path class="st7" d="M482,469.4C482,469.3,482,469.3,482,469.4c-0.1-0.1-0.1,0-0.1,0.1C481.9,469.5,482,469.4,482,469.4z"/>
							<path class="st7" d="M482.6,470.1c0,0,0.1,0,0.2,0c0,0,0-0.1,0-0.1C482.7,470,482.6,470.1,482.6,470.1z"/>
							<path class="st7" d="M482,473.5c0.1,0.1,0.2,0.4,0.2,0.5c0,0.1,0,0.3,0,0.3c0,0,0,0.1,0,0.2c0,0-0.1,0.3,0,0.4
								c0,0.1-0.1,0.5-0.1,0.7c0,0.2,0.1,0.4,0.1,0.4c0,0,0,0.2,0,0.2c-0.1,0-0.1,0.2-0.1,0.2c0,0,0,0.1,0,0.2
								c0,0.1,0.1,0.4,0.1,0.5c0,0.1,0.1,0.3,0.2,0.4c0,0.1,0.1,0.2,0.1,0.2c0,0,0,0,0,0c0,0,0.1,0,0.1,0.1c0,0,0.2,0,0.3,0
								c0.1,0,0-0.1,0-0.1c0,0-0.1-0.2-0.1-0.2c0,0-0.1-0.2,0-0.3c0,0,0.2-0.1,0.2-0.2c0,0,0-0.2,0-0.3c0,0,0-0.3,0-0.4
								c0-0.1,0.2-0.2,0.2-0.3c0-0.1,0.3-0.2,0.3-0.2c0.1,0,0.1-0.3,0.1-0.4c0-0.1,0.1-0.1,0.1-0.1c0.1,0,0.1,0,0.1,0
								c0,0,0.1-0.1,0.1-0.1c0,0,0.1-0.3,0.2-0.3c0.1,0,0.1-0.2,0.1-0.3c0,0,0.1-0.2,0.1-0.2c0,0,0.3-0.1,0.3-0.2
								c0,0,0.1-0.4,0.1-0.5c0-0.1,0.1-0.3,0.1-0.3c0,0,0.1-0.1,0.1-0.1c0,0,0.1-0.2,0.1-0.2c0,0,0.2-0.2,0.2-0.2c0,0,0-0.1,0-0.2
								c0,0,0,0,0-0.1c0-0.1,0-0.1,0-0.1c0-0.1-0.2-0.2-0.2-0.2c0,0-0.2-0.1-0.2-0.1c-0.1,0-0.3,0-0.3,0c0,0-0.2-0.1-0.3-0.1
								c-0.1,0-0.2-0.1-0.3-0.1c0,0-0.1-0.3-0.2-0.4c-0.1-0.1-0.4-0.3-0.4-0.4c0-0.1-0.3-0.2-0.4-0.3c-0.1,0-0.2-0.1-0.2,0
								c0,0-0.1-0.1-0.2-0.2c-0.1,0-0.2-0.1-0.2,0c0,0-0.1,0-0.1,0c0,0-0.1,0-0.2,0c0,0-0.2,0.2-0.2,0.3c-0.1,0-0.1,0-0.2-0.1
								c0,0-0.2,0-0.2,0.1c0,0-0.1-0.2-0.1-0.3c0-0.1-0.1-0.3-0.2-0.3c-0.1,0-0.1-0.2-0.1-0.3c0-0.1-0.2-0.1-0.2-0.1
								c-0.1,0-0.2,0.1-0.2,0.2c0,0.1-0.5-0.1-0.4-0.3c0.1-0.3,0.3-0.5,0.3-0.6c0.1,0,0.3,0,0.4,0c0.1,0,0.1,0,0.1,0
								c0,0,0.2,0,0.3,0c0.1,0,0.2,0.3,0.2,0.3c0.1,0,0.1-0.2,0.1-0.2c0,0,0-0.2-0.1-0.2c0,0,0.1-0.4,0.2-0.4
								c0.1-0.1,0.2-0.2,0.2-0.3c0,0,0.1-0.1,0.1-0.1c0,0,0-0.3,0-0.3c0-0.1,0.2-0.2,0.3-0.2c0.1,0,0.1-0.2,0.1-0.2
								c0,0,0.2-0.2,0.3-0.2c0.1,0,0.2,0.1,0.2,0.1c0,0,0.2-0.1,0.2-0.1c0.1,0,0-0.2,0-0.2c0,0,0-0.2,0-0.2c0.1,0,0.1-0.1,0.1-0.2
								c0,0,0.2,0,0.3,0c0.1-0.1,0,0.2,0,0.2c-0.1,0.1,0,0.2,0.1,0.2c0,0,0.1,0,0.1,0.1c0,0,0.1,0,0.2,0c0.1,0,0.1-0.1,0.1-0.1
								c0,0-0.1-0.1-0.2-0.2c0-0.1,0-0.4,0-0.5c0-0.1-0.1-0.2-0.1-0.2c0,0-0.1-0.2-0.1-0.2c0,0-0.1-0.1-0.1-0.2c0,0-0.2-0.2-0.2-0.3
								c0-0.1-0.1-0.1-0.1,0c0,0-0.1,0-0.2,0c0,0-0.1-0.2-0.1-0.3c0-0.1-0.2-0.1-0.3-0.1c0-0.1-0.2,0-0.2-0.1c0,0-0.1-0.1-0.2-0.1
								c0,0,0,0.5,0,0.6c0,0.1-0.1,0.2-0.2,0.2c0,0,0,0.1,0,0.1c0,0-0.1,0.1-0.1,0.2c0,0.1-0.1,0-0.1-0.1c0-0.1-0.1-0.2-0.1-0.2
								c0,0-0.1,0-0.1,0c0,0-0.2-0.1-0.3-0.2c-0.1,0-0.1-0.3-0.2-0.3c0,0,0,0,0-0.1c0,0,0.2-0.2,0.2-0.2c0-0.1,0.2-0.3,0.3-0.3
								c0.1,0,0.1-0.2,0.1-0.2c0,0,0.3-0.1,0.4-0.1c0.1,0,0.1-0.2,0.2-0.3c0-0.1-0.1-0.2-0.1-0.2c0,0,0.1,0,0.2,0c0,0,0.2,0,0.3,0
								c0.1,0,0.2,0.1,0.3,0.2c0,0,0,0,0,0.2c0,0.3,0,0.3,0,0.3c-0.2,0.1-0.3,0.3-0.2,0.3c0.1,0,0.5,0.2,0.6,0.2
								c0.1,0.1,0.1-0.1,0.2-0.2c0-0.1,0-0.2,0-0.3c0,0,0.1,0,0.2,0c0,0,0.1,0,0.1-0.1c0,0,0-0.2,0.1-0.2c0,0-0.1-0.1-0.1-0.1
								c0,0-0.2-0.1-0.2-0.1c-0.1,0-0.1-0.1,0-0.2c0,0,0-0.2,0-0.2c0,0-0.2-0.1-0.3-0.1c-0.1,0-0.1-0.1-0.2-0.2c0,0-0.3,0-0.3,0
								c-0.1,0-0.2-0.2-0.3-0.1c-0.1,0.1-0.2-0.1-0.2-0.1c0,0-0.3,0.2-0.3,0.4c0,0.2,0.1,0.3,0.1,0.3c0,0,0,0.2,0,0.2
								c0,0-0.1,0-0.1-0.1c0,0-0.1-0.2-0.1-0.3c0,0-0.1-0.1-0.2-0.1c0,0.1-0.1,0.1-0.1,0.2c0,0.1,0,0.1,0,0.2c0,0.1-0.1,0.1-0.1,0.1
								c0,0,0,0-0.1,0c-0.2,0.2-0.4,0.5-0.6,0.7c0,0.1-0.1,0.1-0.1,0.2c-0.1,0.2-0.2,0.4-0.3,0.5c0,0.1-0.1,0.2-0.1,0.2
								c-0.1,0.2-0.2,0.5-0.3,0.7c-0.1,0.1-0.1,0.3-0.2,0.5c0,0.1-0.1,0.2-0.1,0.3c-0.1,0.2-0.1,0.4-0.2,0.5c0,0.1,0,0.1,0,0.2
								c-0.1,0.4-0.2,0.9-0.3,1.3c0,0.1,0.1,0.1,0.1,0.2c0,0.1,0.2,0.1,0.2,0.2c0,0,0-0.2,0-0.2c0,0,0-0.1,0,0c0,0,0.1,0.2,0.2,0.3
								c0,0.1,0.1,0.4,0.1,0.5c0,0.1,0.5,0.2,0.6,0.3c0.1,0,0.3,0.2,0.4,0.2c0,0,0.2,0.1,0.3,0.1c0,0,0.1,0.1,0.2,0.2
								c0,0,0.1,0.1,0.1,0.1c0,0,0.3,0.1,0.3,0.2c0.1,0.1,0.2,0,0.2,0c0,0,0.1,0.1,0.1,0.2c0,0.1,0,0.2,0,0.2c0,0-0.1,0.3-0.1,0.3
								c0,0-0.1,0.4-0.1,0.5c0,0.1,0.1,0.2,0.2,0.2c0.1,0,0,0.1,0,0.1c0,0,0,0.3,0.1,0.4c0.1,0.1,0.2,0.2,0.2,0.2
								C481.8,473.3,482,473.4,482,473.5z"/>
							<path class="st7" d="M482.3,463c0.1,0,0.3-0.1,0.3-0.1c0,0,0-0.1,0-0.1c0,0,0,0,0.1,0c0,0,0.1-0.2,0.2-0.3
								c0-0.1,0.3-0.1,0.4-0.2c0.1,0,0.2-0.2,0.3-0.2c0.1,0,0.1-0.1,0.1-0.2c0,0,0.2-0.1,0.3-0.2c0.1,0,0.1-0.1,0.1-0.1
								c0,0-0.2,0.1-0.5,0.2c-0.3,0.2-0.5,0.3-0.7,0.5c-0.2,0.2-0.4,0.3-0.7,0.5c-0.1,0.1-0.1,0.1-0.2,0.2
								C482,463.1,482.2,463.1,482.3,463z"/>
							<path class="st7" d="M481.7,464.7c0,0,0,0.2,0.1,0.2c0.1,0,0.2-0.2,0.3-0.2c0.1,0,0.1,0.1,0.1,0c0,0-0.2-0.1-0.3-0.1
								C481.9,464.5,481.8,464.6,481.7,464.7z"/>
							<path class="st7" d="M486.9,462.5c0,0,0.1-0.2,0-0.2c0,0,0.1-0.1,0.1-0.1c0,0,0.2-0.1,0.2-0.1c0.1,0,0.1-0.2,0-0.1
								c-0.1,0-0.2,0-0.2,0c0,0-0.3-0.1-0.3,0c-0.1,0,0-0.2,0.1-0.2c0.1,0,0-0.1-0.1-0.1c-0.1,0-0.3,0-0.4,0c-0.1,0-0.2,0-0.2,0
								c0,0-0.3,0.1-0.5,0.1c-0.1,0-0.5,0-0.5,0c-0.1,0-0.1,0.2-0.1,0.2c0,0-0.3,0-0.4,0c-0.1,0-0.7,0.1-0.8,0.2
								c-0.1,0.1-0.3,0.3-0.2,0.3c0,0-0.1,0.1-0.2,0.1c-0.1,0-0.3,0-0.3,0.1c0,0,0,0.1,0.1,0.1c0,0,0.1,0,0.1,0c0,0,0.2,0,0.3,0.1
								c0,0-0.1,0.1-0.2,0.1c-0.1,0-0.1,0.2,0,0.2c0.1,0,0.2,0,0.3,0c0,0,0.2,0,0.3,0c0.1,0,0.2,0.2,0.2,0.3c0,0,0,0.2,0,0.3
								c0,0,0.2,0.1,0.2,0.1c0,0,0,0.1,0,0.1c-0.1,0,0,0.2,0.1,0.2c0.1,0,0,0.1,0,0.2c0,0,0,0.1-0.1,0.2c0,0,0.2,0.4,0.2,0.6
								c0,0.2,0.1,0.3,0.2,0.3c0,0,0.2,0,0.2,0.1c0,0,0.1,0,0.1-0.1c0,0,0.1-0.1,0.1-0.2c0-0.1,0.2-0.4,0.2-0.5c0,0,0.2,0,0.2,0
								c0,0,0.2-0.1,0.2-0.1c0,0,0.3-0.1,0.4-0.2c0.1,0,0.2-0.3,0.2-0.3c0.1,0,0,0-0.1-0.1c-0.1,0,0-0.1,0-0.1c0,0,0.2,0,0.3,0.1
								c0.1,0,0.2-0.1,0.2-0.1c-0.1,0,0,0,0,0c0,0,0.1-0.1,0-0.1c0,0,0.2-0.2,0.2-0.4c0-0.2,0.1-0.3,0.1-0.3
								C487,462.8,487,462.6,486.9,462.5C486.8,462.5,486.9,462.5,486.9,462.5z"/>
							<path class="st7" d="M481.7,469.3C481.7,469.3,481.7,469.4,481.7,469.3c-0.1,0.1,0,0.1,0,0.1
								C481.7,469.5,481.8,469.4,481.7,469.3z"/>
							<path class="st7" d="M498.2,471.8c0.1,0.1,0.4,0,0.4-0.1C498.5,471.6,498.2,471.7,498.2,471.8z"/>
							<path class="st7" d="M494.1,471c0,0.1,0.2,0.2,0.2,0.2c0,0,0-0.2-0.1-0.3C494.2,470.9,494.2,470.9,494.1,471z"/>
							<path class="st7" d="M497.9,470.9c0,0,0.1-0.1,0.2-0.1c0.1,0,0.1-0.2,0.1-0.2c-0.1,0-0.1-0.2-0.2-0.2c0,0-0.1,0.1-0.1,0.1
								c0,0.1-0.1,0.1-0.2,0.1c0,0,0,0.1,0,0.1C497.8,470.7,497.9,470.8,497.9,470.9z"/>
							<path class="st7" d="M496.2,472c0-0.1-0.2-0.3-0.3-0.4c0,0,0,0,0-0.1c-0.1-0.1-0.1-0.1-0.1-0.1c0-0.1-0.2-0.2-0.2-0.2
								c0,0-0.1,0.1-0.1,0.1c0,0,0.1,0.1,0.2,0.1c0.1,0.1,0.4,0.7,0.5,0.8C496.2,472.3,496.3,472.1,496.2,472z"/>
							<path class="st7" d="M498.5,473c-0.1,0-0.3,0.1-0.3,0.1c0,0-0.2,0.1-0.2,0.1c-0.1,0-0.2,0.2-0.2,0.3c0,0.1-0.2,0-0.2,0.1
								c-0.1,0-0.2,0.1-0.2,0.2c0,0.1,0,0-0.1,0c0,0,0,0-0.1,0.1c-0.1,0.1-0.1,0.1-0.1,0.1c-0.1,0.2-0.2,0.3-0.3,0.4
								c-0.1,0-0.1,0.3-0.1,0.4c0,0.1,0,0.2,0.1,0.3c0,0,0,0,0,0.1c0,0.2,0,0.2,0,0.2c0,0.1,0.1,0.2,0.1,0.3c0,0,0.3,0,0.4-0.1
								c0,0,0,0,0.1,0C497.9,474.6,498.2,473.8,498.5,473C498.5,473,498.5,473,498.5,473z"/>
							<path class="st7" d="M498.7,472c0,0-0.2,0-0.2,0c0,0,0,0.1-0.1,0.1c0,0,0,0.1,0,0.1c0,0,0.1,0,0.2,0.1
								C498.7,472.1,498.7,472,498.7,472C498.7,471.9,498.7,471.9,498.7,472z"/>
							<path class="st7" d="M491.1,474.4c0,0.1,0.2,0.1,0.2,0.1c0,0,0.2-0.2,0.2-0.3c0-0.1,0-0.2,0-0.2c0,0,0-0.1,0-0.1
								c0,0,0-0.1,0.1-0.2c0-0.1-0.1-0.5-0.1-0.6c0-0.1-0.1,0-0.1,0.1c0,0.1-0.2,0.2-0.3,0.3c0,0.1-0.1,0.3-0.1,0.3c0,0,0,0.2,0,0.2
								C491,474.1,491.1,474.3,491.1,474.4z"/>
							<path class="st7" d="M497.7,471.7c-0.1,0-0.3,0.2-0.2,0.4c0,0.2,0.1,0.1,0.1,0.1c0,0,0.1,0,0.2,0c0,0,0,0,0-0.1
								c0-0.1,0-0.2,0-0.2C497.8,471.9,497.8,471.7,497.7,471.7z"/>
							<path class="st7" d="M497.7,470.1c0-0.1,0-0.1-0.1-0.1c-0.1,0-0.1,0.3,0,0.3C497.6,470.2,497.7,470.1,497.7,470.1z"/>
							<path class="st7" d="M497.4,471.7c0-0.1,0-0.3,0-0.3c0,0-0.1-0.2-0.2-0.2c-0.1,0-0.3,0.4-0.4,0.5c-0.1,0.1-0.2,0.3-0.2,0.4
								c0,0.1,0.3,0.1,0.4,0.1c0.1,0,0.1,0,0.1,0c0,0,0,0,0,0c0,0,0.1-0.1,0.1-0.2C497.3,471.9,497.4,471.8,497.4,471.7z"/>
							<path class="st7" d="M497.4,469.3c0,0.1,0,0.2,0,0.2c0,0,0.1,0,0.1,0C497.5,469.5,497.4,469.3,497.4,469.3z"/>
							<path class="st7" d="M496.3,472.5c0,0,0.4,0.1,0.6,0.2c0.1,0,0.2,0.1,0.2,0c0,0-0.4-0.2-0.5-0.2
								C496.4,472.4,496.3,472.5,496.3,472.5z"/>
						</g>
					</g>
					<path class="st1" d="M488.7,479.7c-5.3-0.6-9.2-5.3-8.6-10.5c0.6-5.2,5.4-8.9,10.7-8.2c0.9,0.1,1.8,0.3,2.6,0.6
						c-1.1-0.5-2.2-0.9-3.5-1c-5.5-0.6-10.5,3.2-11.2,8.6c-0.6,5.4,3.4,10.3,8.9,10.9c2.1,0.2,4.1-0.2,5.8-1
						C492,479.6,490.4,479.9,488.7,479.7z"/>
				</g>
				<g>
					<path class="st23" d="M488,508.7c-16.1,0-29.5-1.4-32.1-3.3c-0.3,1.6-0.5,3.3-0.5,5c0,16,14.6,29,32.6,29c18,0,32.6-13,32.6-29
						c0-1.7-0.2-3.4-0.5-5C517.4,507.2,504.1,508.7,488,508.7z"/>
					<g>
						<polygon class="st9" points="456,514.5 455.3,514.6 455.5,515.7 456.2,515.5 						"/>
						<path class="st9" d="M455.7,512.6l-0.6,0.1c0,0.4,0,0.7,0.1,1.1l0.6-0.1C455.8,513.3,455.8,513,455.7,512.6z"/>
						<polygon class="st9" points="455.6,510.8 455,510.8 455,511.8 455.7,511.8 						"/>
						<polygon class="st9" points="457.5,519.9 456.9,520.2 457.3,521.1 457.9,520.9 						"/>
						<path class="st9" d="M456.8,518.2l-0.6,0.2c0.1,0.3,0.2,0.7,0.3,1l0.6-0.2C457,518.8,457,518.5,456.8,518.2z"/>
						<polygon class="st9" points="456.3,516.4 455.7,516.5 456,517.5 456.6,517.4 						"/>
						<polygon class="st9" points="460.1,524.9 459.6,525.3 460.2,526.1 460.7,525.8 						"/>
						<path class="st9" d="M459.1,523.3l-0.6,0.3c0.2,0.3,0.3,0.6,0.5,0.9l0.5-0.3C459.4,523.9,459.3,523.6,459.1,523.3z"/>
						<polygon class="st9" points="458.2,521.7 457.6,521.9 458.1,522.9 458.7,522.6 						"/>
						<polygon class="st9" points="463.7,529.3 463.2,529.7 464,530.5 464.4,530 						"/>
						<path class="st9" d="M462.4,527.9l-0.5,0.4c0.2,0.3,0.5,0.6,0.7,0.8l0.5-0.4C462.8,528.4,462.6,528.2,462.4,527.9z"/>
						<polygon class="st9" points="461.2,526.5 460.7,526.9 461.3,527.7 461.8,527.3 						"/>
						<polygon class="st9" points="468,532.9 467.6,533.4 468.5,534 468.8,533.5 						"/>
						<polygon class="st9" points="466.5,531.8 466.1,532.3 466.9,533 467.3,532.4 						"/>
						<path class="st9" d="M465,530.6l-0.4,0.5c0.3,0.2,0.6,0.5,0.8,0.7l0.4-0.5C465.6,531,465.3,530.8,465,530.6z"/>
						<polygon class="st9" points="472.9,535.8 472.6,536.3 473.6,536.8 473.8,536.2 						"/>
						<polygon class="st9" points="471.2,534.9 470.9,535.5 471.8,536 472.1,535.4 						"/>
						<path class="st9" d="M469.5,534l-0.3,0.6c0.3,0.2,0.6,0.4,0.9,0.5l0.3-0.6C470.1,534.3,469.8,534.2,469.5,534z"/>
						<path class="st9" d="M478.1,537.7l-0.2,0.6c0.3,0.1,0.7,0.2,1,0.3l0.2-0.6C478.8,537.9,478.5,537.8,478.1,537.7z"/>
						<polygon class="st9" points="476.4,537.1 476.1,537.8 477.2,538.1 477.4,537.5 						"/>
						<path class="st9" d="M474.6,536.5l-0.2,0.6c0.3,0.1,0.6,0.3,1,0.4l0.2-0.6C475.2,536.8,474.9,536.6,474.6,536.5z"/>
						<polygon class="st9" points="483.7,538.8 483.6,539.5 484.7,539.6 484.7,538.9 						"/>
						<polygon class="st9" points="481.8,538.6 481.7,539.2 482.8,539.3 482.9,538.7 						"/>
						<polygon class="st9" points="480,538.2 479.8,538.8 480.9,539 481,538.4 						"/>
						<polygon class="st9" points="489.3,539 489.4,539.7 490.4,539.6 490.4,539 						"/>
						<path class="st9" d="M487.5,539.1l0,0.6c0.4,0,0.7,0,1.1,0l0-0.6C488.2,539.1,487.8,539.1,487.5,539.1z"/>
						<polygon class="st9" points="485.6,539 485.5,539.6 486.6,539.7 486.6,539 						"/>
						<polygon class="st9" points="495,538.4 495.1,539 496.1,538.8 496,538.2 						"/>
						<polygon class="st9" points="493.1,538.7 493.2,539.3 494.2,539.2 494.1,538.6 						"/>
						<polygon class="st9" points="491.2,538.9 491.3,539.6 492.4,539.5 492.3,538.8 						"/>
						<path class="st9" d="M500.4,536.9l0.2,0.6c0.3-0.1,0.7-0.3,1-0.4l-0.2-0.6C501,536.6,500.7,536.8,500.4,536.9z"/>
						<polygon class="st9" points="498.6,537.5 498.8,538.1 499.8,537.8 499.6,537.1 						"/>
						<path class="st9" d="M496.8,538l0.2,0.6c0.3-0.1,0.7-0.1,1-0.3l-0.2-0.6C497.5,537.8,497.1,537.9,496.8,538z"/>
						<path class="st9" d="M505.5,534.5l0.3,0.6c0.3-0.2,0.6-0.3,0.9-0.5l-0.3-0.6C506.1,534.2,505.8,534.3,505.5,534.5z"/>
						<polygon class="st9" points="503.9,535.4 504.1,536 505.1,535.5 504.8,534.9 						"/>
						<polygon class="st9" points="502.2,536.2 502.4,536.8 503.4,536.3 503.1,535.7 						"/>
						<path class="st9" d="M510.1,531.3l0.4,0.5c0.3-0.2,0.6-0.4,0.8-0.7l-0.4-0.5C510.7,530.8,510.4,531,510.1,531.3z"/>
						<polygon class="st9" points="508.7,532.4 509.1,533 509.9,532.3 509.5,531.8 						"/>
						<polygon class="st9" points="507.1,533.5 507.5,534 508.4,533.4 508,532.9 						"/>
						<polygon class="st9" points="514.1,527.3 514.6,527.7 515.3,526.8 514.8,526.5 						"/>
						<path class="st9" d="M512.9,528.7l0.5,0.4c0.2-0.3,0.5-0.5,0.7-0.8l-0.5-0.4C513.4,528.2,513.1,528.4,512.9,528.7z"/>
						<polygon class="st9" points="511.6,530 512,530.5 512.8,529.7 512.3,529.3 						"/>
						<polygon class="st9" points="517.2,522.6 517.8,522.9 518.3,521.9 517.7,521.7 						"/>
						<path class="st9" d="M516.3,524.2l0.5,0.3c0.2-0.3,0.4-0.6,0.5-0.9l-0.6-0.3C516.7,523.6,516.5,523.9,516.3,524.2z"/>
						<polygon class="st9" points="515.3,525.8 515.8,526.1 516.4,525.3 515.9,524.9 						"/>
						<polygon class="st9" points="519.3,517.3 520,517.5 520.3,516.5 519.6,516.3 						"/>
						<path class="st9" d="M518.8,519.1l0.6,0.2c0.2-0.3,0.2-0.7,0.3-1l-0.6-0.2C519,518.5,518.9,518.8,518.8,519.1z"/>
						<polygon class="st9" points="518.1,520.9 518.7,521.1 519.1,520.1 518.5,519.9 						"/>
						<polygon class="st9" points="520.3,511.8 520.9,511.8 521,510.8 520.3,510.8 						"/>
						<path class="st9" d="M520.1,513.7l0.6,0.1c0.1-0.4,0.1-0.7,0.1-1.1l-0.6-0.1C520.2,513,520.2,513.3,520.1,513.7z"/>
						<polygon class="st9" points="519.8,515.5 520.4,515.6 520.6,514.6 520,514.5 						"/>
						<polygon class="st9" points="510.9,507.7 510.8,507.1 509.7,507.2 509.8,507.9 						"/>
						<polygon class="st9" points="512.9,507.5 512.8,506.8 511.7,507 511.8,507.6 						"/>
						<polygon class="st9" points="514.9,507.2 514.8,506.5 513.7,506.7 513.8,507.3 						"/>
						<polygon class="st9" points="504.8,508.3 504.8,507.7 503.7,507.8 503.7,508.4 						"/>
						
							<rect x="505.7" y="507.6" transform="matrix(0.9963 -8.602205e-02 8.602205e-02 0.9963 -41.8124 45.4322)" class="st9" width="1.1" height="0.6"/>
						<polygon class="st9" points="508.9,508 508.8,507.3 507.7,507.4 507.7,508.1 						"/>
						<polygon class="st9" points="498.7,508.7 498.7,508 497.6,508.1 497.6,508.7 						"/>
						
							<rect x="499.6" y="508" transform="matrix(0.9987 -5.183699e-02 5.183699e-02 0.9987 -25.6751 26.6109)" class="st9" width="1.1" height="0.6"/>
						<polygon class="st9" points="502.8,508.5 502.7,507.8 501.6,507.9 501.6,508.5 						"/>
						
							<rect x="491.5" y="508.2" transform="matrix(0.9998 -1.737205e-02 1.737205e-02 0.9998 -8.76 8.6246)" class="st9" width="1.1" height="0.6"/>
						
							<rect x="493.5" y="508.2" transform="matrix(0.9997 -2.530938e-02 2.530938e-02 0.9997 -12.7114 12.6677)" class="st9" width="1.1" height="0.6"/>
						<polygon class="st9" points="496.7,508.7 496.7,508.1 495.5,508.1 495.5,508.8 						"/>
						
							<rect x="485.6" y="508" transform="matrix(5.452393e-03 -1 1 5.452393e-03 -25.2507 991.7211)" class="st9" width="0.6" height="1.1"/>
						<polygon class="st9" points="488.5,508.9 488.5,508.2 487.4,508.2 487.4,508.9 						"/>
						
							<rect x="489.4" y="508.2" transform="matrix(1 -9.561737e-03 9.561737e-03 1 -4.8403 4.7085)" class="st9" width="1.1" height="0.6"/>
						<polygon class="st9" points="480.4,508.8 480.4,508.1 479.3,508.1 479.3,508.7 						"/>
						
							<rect x="481.6" y="507.9" transform="matrix(2.083559e-02 -0.9998 0.9998 2.083559e-02 -36.5466 979.6713)" class="st9" width="0.6" height="1.1"/>
						
							<rect x="483.6" y="508" transform="matrix(1.306041e-02 -0.9999 0.9999 1.306041e-02 -30.9073 985.7497)" class="st9" width="0.6" height="1.1"/>
						<polygon class="st9" points="474.3,508.5 474.3,507.9 473.2,507.8 473.2,508.5 						"/>
						
							<rect x="475.5" y="507.7" transform="matrix(4.643024e-02 -0.9989 0.9989 4.643024e-02 -54.0381 959.9437)" class="st9" width="0.6" height="1.1"/>
						<polygon class="st9" points="478.4,508.7 478.4,508.1 477.3,508 477.2,508.7 						"/>
						<polygon class="st9" points="468.2,508.1 468.3,507.4 467.1,507.3 467.1,508 						"/>
						
							<rect x="469.4" y="507.3" transform="matrix(7.897703e-02 -0.9969 0.9969 7.897703e-02 -73.6962 935.9963)" class="st9" width="0.6" height="1.1"/>
						<polygon class="st9" points="472.3,508.4 472.3,507.8 471.2,507.7 471.1,508.3 						"/>
						<polygon class="st9" points="462.1,507.3 462.2,506.7 461.1,506.5 461,507.2 						"/>
						<polygon class="st9" points="464.1,507.6 464.2,507 463.1,506.8 463,507.5 						"/>
						<polygon class="st9" points="466.2,507.9 466.2,507.2 465.1,507.1 465,507.7 						"/>
						<polygon class="st9" points="520.8,509.6 520.2,509.7 520.2,508.8 520.1,508 520.7,508 520.8,508.8 						"/>
						<polygon class="st9" points="520.3,505 520.4,505.8 520.6,506.6 519.9,506.7 519.8,506.1 519.8,506.1 519.8,506.1 
							519.8,506.1 519.8,506.1 519.7,506.1 519.7,506.1 519.7,506.1 519.7,506.1 519.7,506.1 519.6,506.1 519.6,506.1 519.4,506.2 
							519.1,506.3 518.9,505.7 519.3,505.6 519.4,505.5 519.5,505.5 519.6,505.4 520,505.2 520.1,505.1 520.2,505 520.2,505 
							520.2,505 520.2,505 520.2,505 520.3,505 						"/>
						<polygon class="st9" points="517.6,506.1 517.8,506.7 517.6,506.8 517.4,506.8 517,506.9 516.2,507.1 516,506.5 516.9,506.3 
							517.3,506.2 517.5,506.2 						"/>
						<polygon class="st9" points="460,506.4 459.9,507.1 459.4,507 459,506.9 458.6,506.8 458.4,506.8 458.2,506.7 458.4,506.1 
							458.6,506.1 458.8,506.2 459.2,506.3 459.6,506.4 						"/>
						<polygon class="st9" points="455.7,505 455.9,505.1 456,505.1 456,505.2 456.1,505.2 456.4,505.4 456.6,505.5 456.6,505.5 
							456.6,505.5 456.7,505.5 456.8,505.5 457.1,505.7 456.9,506.3 456.6,506.2 456.4,506.1 456.4,506.1 456.3,506 456.3,506.1 
							456.3,506.1 456.3,506.1 456.3,506.1 456.2,506.1 456.2,506.1 456.2,506.1 456.2,506.1 456.2,506.1 456.2,506.1 456.2,506.2 
							456.1,506.3 456.1,506.7 455.4,506.6 455.6,505.7 455.6,505.3 455.7,505.1 455.7,505 455.7,505 455.7,505 455.7,505 
							455.7,505 455.7,505 						"/>
						<polygon class="st9" points="455.3,507.9 455.9,508 455.9,508.8 455.8,509.6 455.2,509.6 455.2,508.7 						"/>
					</g>
					<circle class="st7" cx="460.6" cy="512.8" r="3.4"/>
					<circle class="st7" cx="515.7" cy="512.8" r="3.4"/>
				</g>
				<radialGradient id="SVGID_6_" cx="541.8716" cy="554.0005" r="0" gradientUnits="userSpaceOnUse">
					<stop  offset="0" style="stop-color:#AC2326"/>
					<stop  offset="0.3251" style="stop-color:#A82427"/>
					<stop  offset="0.662" style="stop-color:#9B2529"/>
					<stop  offset="1" style="stop-color:#87282C"/>
				</radialGradient>
				<path class="st24" d="M541.9,554"/>
				<radialGradient id="SVGID_7_" cx="433.3556" cy="554.0005" r="0" gradientUnits="userSpaceOnUse">
					<stop  offset="0" style="stop-color:#AC2326"/>
					<stop  offset="0.3251" style="stop-color:#A82427"/>
					<stop  offset="0.662" style="stop-color:#9B2529"/>
					<stop  offset="1" style="stop-color:#87282C"/>
				</radialGradient>
				<path class="st25" d="M433.4,554"/>
				<path class="st0" d="M436,554c2.6,6.8,6.6,12.7,12.5,17.1c1.3,1,3,1.5,4.7,1.5c6.1,0,13.3,0,17.5,0.1c2.6,0,5-1.6,6-4
					c1.1-2.8,2.2-7.4,2.2-14.7c0,0-0.1,0-0.1,0C456.1,558.1,436.2,554.1,436,554z"/>
				<path class="st0" d="M540.1,554c-2.6,6.8-6.6,12.7-12.5,17.1c-1.3,1-3,1.5-4.7,1.5c-6.1,0-13.3,0-17.5,0.1c-2.6,0-5-1.6-6-4
					c-1.1-2.8-2.2-7.4-2.2-14.7c0,0,0.1,0,0.1,0C520,558.1,539.8,554.1,540.1,554z"/>
			</g>
			<g>
				<path class="st14" d="M445.5,319.2c0,0-7.7-1.3-11,5.3C438.3,322,440,320.6,445.5,319.2z"/>
				<path class="st14" d="M532.8,313c0,0,7.6-1.7,11.2,4.7C540.1,315.5,538.4,314.2,532.8,313z"/>
			</g>
		</g>
		<path class="st26" d="M496.2,383.6c0,0-9.1,6.6-18.1,1c2.3,17.8,6,25.4,10.2,25.2C493.1,409.5,496.2,398.2,496.2,383.6z"/>
		<path d="M463.8,345.2c0,0-9.9-10.3-23.3-3.9c-1.1,0-1.7-0.8-1.7-0.8s-0.7,3.3,2,4.8C444.8,342.1,455.8,339.8,463.8,345.2z"/>
	</g>
</g>
</svg>
