<?xml version="1.0" encoding="utf-8"?>
<!-- Generator: Adobe Illustrator 22.1.0, SVG Export Plug-In . SVG Version: 6.00 Build 0)  -->
<svg version="1.1" id="Layer_1" xmlns="http://www.w3.org/2000/svg" xmlns:xlink="http://www.w3.org/1999/xlink" x="0px" y="0px"
	 viewBox="0 0 497.8 725.9" style="enable-background:new 0 0 497.8 725.9;" xml:space="preserve">
<style type="text/css">
	.st0{fill:#CA2027;}
	.st1{opacity:5.000000e-02;}
	.st2{fill:#FFFFFF;}
	.st3{fill:#EFEFEF;}
	.st4{fill:none;stroke:#000000;stroke-linecap:round;stroke-linejoin:round;stroke-miterlimit:10;}
	.st5{fill-rule:evenodd;clip-rule:evenodd;fill:#CA2027;}
	.st6{fill-rule:evenodd;clip-rule:evenodd;fill:#FFFFFF;}
	.st7{fill-rule:evenodd;clip-rule:evenodd;fill:#AE2226;}
	.st8{fill:#F3F4F5;}
	.st9{fill:#F5F5F5;}
	.st10{fill:url(#SVGID_1_);}
	.st11{fill:url(#SVGID_2_);}
	.st12{fill-rule:evenodd;clip-rule:evenodd;}
	.st13{fill:none;stroke:#CC2028;stroke-linecap:round;stroke-linejoin:round;stroke-miterlimit:10;}
</style>
<path class="st0" d="M12.7,211.4c0,0,53.8-20.2,30.1-41c-6.9-7.4-15.8,0.5-18.8,5.4C15.2,162,3.8,167,0.4,179.8
	S19.1,199.1,12.7,211.4z"/>
<path class="st0" d="M216.2,486.7c0,0-82,180.2-7.5,236.1c2.5,1.9,5.7,2.9,8.9,2.9c11.7,0,25.5,0.1,33.4,0.1c5,0,9.5-3,11.4-7.6
	c2.5-6.4,4.9-17.6,4-36.9c17.8,5.6,35.9,0,35.9,0s-1.5,22.5,4.1,36.9c1.8,4.6,6.3,7.6,11.2,7.6c12.5,0,26.6-0.1,33.5-0.1
	c3.1,0,6.1-1,8.5-2.9c15.6-12.4,65.5-53.8-7.5-236.1H216.2z"/>
<path class="st1" d="M216.2,486.7c0,0-82,180.2-7.5,236.1c2.5,1.9,5.7,2.9,8.9,2.9c11.7,0,25.5,0.1,33.4,0.1c5,0,9.5-3,11.4-7.6
	c2.5-6.4,4.9-17.6,4-36.9c17.8,5.6,35.9,0,35.9,0s-1.5,22.5,4.1,36.9c1.8,4.6,6.3,7.6,11.2,7.6c12.5,0,26.6-0.1,33.5-0.1
	c3.1,0,6.1-1,8.5-2.9c15.6-12.4,65.5-53.8-7.5-236.1H216.2z"/>
<path class="st2" d="M232.3,487.1c0,0-92.4,185.4,51.1,185.4s56.8-183.6,47.8-193.6C322.2,468.9,229.9,467.6,232.3,487.1z"/>
<path class="st3" d="M240,486.9c-1.3-10.3,24.2-14.7,49.6-15.1c-27.8-0.4-58.7,3.9-57.2,15.3c0,0-92.4,185.4,51.1,185.4
	c15.9,0,29-2.3,39.7-6.3c-9.2,2.6-20,4.1-32.6,4.1C148.7,670.2,240,486.9,240,486.9z"/>
<path d="M202.6,487.2c0,0,10.3,30.7,78.3,30.7s78.4-18.8,83.2-30.7C369,475.2,237,451,202.6,487.2z"/>
<g>
	<ellipse class="st0" cx="284.1" cy="340.9" rx="213.7" ry="167.7"/>
	<ellipse class="st2" cx="284.1" cy="363.4" rx="185.5" ry="141.3"/>
	<path class="st3" d="M284.1,222c-102.4,0-185.5,63.3-185.5,141.3c0,46.6,29.6,88,75.3,113.7c-40.3-24-66.3-61.3-66.3-103.3
		c0-72.3,76.9-130.9,171.8-130.9c94.9,0,171.8,58.6,171.8,130.9c0,71.7-75.7,129.9-169.4,130.9c0.8,0,1.5,0,2.3,0
		c102.4,0,185.5-63.3,185.5-141.3C469.6,285.3,386.5,222,284.1,222z"/>
	<ellipse class="st3" cx="400.6" cy="427.4" rx="30.9" ry="11.7"/>
	<ellipse class="st3" cx="161.6" cy="427.4" rx="30.9" ry="11.7"/>
	<path class="st4" d="M185.6,377.3c0,0,1.8,15.5,18.3,15.5s17.1-15.5,17.1-15.5"/>
	<path class="st4" d="M344.3,377.3c0,0,1.8,15.5,18.3,15.5s17.1-15.5,17.1-15.5"/>
	<g>
		<path class="st5" d="M158.8,1.6C91,23.8,176.6,219.9,225,204.1C273.4,188.3,226.6-20.5,158.8,1.6z"/>
		<path class="st6" d="M169.8,34.4c-43.3,14.2,22.8,165.2,53.7,155.1C254.4,179.4,213.1,20.2,169.8,34.4z"/>
	</g>
	<path class="st5" d="M401.1,33c21.5,7,34.5,26.8,33.6,34.6c-7.5,63.7-57.7,147.1-89.9,136.5C310.9,193,322.8,87.3,357.4,32.9
		C364.6,21.6,379.6,25.9,401.1,33z"/>
	<path class="st6" d="M399.9,34.4c43.3,14.2-22.8,165.2-53.7,155.1C315.3,179.4,356.6,20.2,399.9,34.4z"/>
	<path class="st7" d="M435.6,63.5c14,28.6,24.9,77.7,1.1,87.2c-47.9,19.1-104.5-66.2-80.2-116.1C369.9,7,421.6,34.9,435.6,63.5z"/>
	<path class="st5" d="M435.6,63.5c14,28.6,24.9,77.7,1.1,87.2c-47.9,19.1-104.5-66.2-80.2-116.1C369.9,7,421.6,34.9,435.6,63.5z"/>
</g>
<g>
	<g>
		<g>
			<path class="st0" d="M304.8,530.4c0,10.4-8.6,18.7-19.2,18.7c-10.6,0-19.2-8.4-19.2-18.7c0-10.4,8.6-18.7,19.2-18.7
				C296.2,511.7,304.8,520.1,304.8,530.4z"/>
		</g>
		<g>
			<path class="st2" d="M304.5,526.7c0-0.2-0.1-0.4-0.2-0.7c-0.1,0-0.1,0.1-0.1,0.1c-0.1,0.1-0.5,0.4-0.6,0.4
				c-0.1,0.1-0.1,0.2-0.1,0.3c0,0,0,0,0,0c-0.1,0-0.1,0.3,0,0.3c0.1,0,0.3-0.2,0.4-0.3c0.1-0.1,0.3-0.1,0.3-0.1
				C304.1,526.9,304.3,526.8,304.5,526.7C304.5,526.8,304.5,526.7,304.5,526.7z"/>
			<path class="st2" d="M272,530c0,0.1,0.3,0,0.3,0c0.1,0,0.1,0,0-0.1C272.2,529.9,272,529.9,272,530z"/>
			<path class="st2" d="M287.2,540c0.2-0.1,0.7-0.7,0.8-0.9c0.1-0.1,0.2-0.6,0.3-0.7c0-0.1,0.2-0.3,0.3-0.3c0.1,0,0.3-1,0.5-1.3
				c0.2-0.2,0.5-1.3,0.4-1.7c0-0.4,0.1-1.1,0.2-1.3c0.1-0.2,0.3-0.5,0.4-0.6c0.1-0.1,0.6-0.8,0.8-1.1c0.2-0.3,0.3-0.9,0.3-1
				c0-0.1-0.4-0.2-0.5-0.2c-0.1,0.1-0.4,0.1-0.5,0.1c-0.1,0-0.4-0.6-0.5-0.7c-0.2-0.1-0.3-0.8-0.4-0.9c-0.1-0.1-0.3-0.4-0.4-0.5
				c-0.1-0.1-0.1-0.4-0.1-0.5c0-0.1,0.2,0.1,0.2,0.2c0,0.1,0.4,0.7,0.6,0.9c0.1,0.2,0.5,0.8,0.5,1c0.1,0.2,0.8,0.1,1.1,0
				c0.2-0.1,0.5-0.3,0.6-0.4c0-0.1,0.4-0.2,0.5-0.3c0.1-0.1,0.2-0.5,0.3-0.6c0.1-0.1-0.1-0.5-0.1-0.6c-0.1-0.1-0.5-0.2-0.5-0.2
				c-0.1,0-0.2-0.3-0.3-0.4c-0.1-0.1-0.4-0.3-0.4-0.3c0-0.1,0.1-0.2,0.1-0.2c0,0,0.6,0.3,0.7,0.5c0.2,0.2,0.3,0.5,0.4,0.6
				c0,0.1,0.5,0.1,0.6,0c0.1-0.1,0.2-0.1,0.2,0c0,0,0,0,0.1,0c0.5-0.1,0.5-0.1,0.5-0.1c0.2,0.2,0.3,0.4,0.3,0.5c0,0,0.1,0.2,0.2,0.3
				c0.1,0,0.2,0.3,0.2,0.4c0,0.1,0.3,0.5,0.3,0.7c0.1,0.2,0.3,0.6,0.3,0.7c0.1,0.1,0.1,0.4,0.1,0.5c0,0.1,0.2,0.2,0.3,0.2
				c0.1,0,0.3-0.7,0.4-0.9c0-0.2,0.2-0.4,0.3-0.4c0,0,0.1-0.1,0.1-0.2c0-0.1,0.3,0,0.3-0.1c0-0.1,0.1-0.5,0.2-0.6
				c0.1-0.1,0.4-0.3,0.6-0.3c0.1,0,0.4,0.2,0.5,0.3c0.1,0.1,0.1,0.4,0.1,0.5c0,0.1,0.2,0.3,0.3,0.3c0.2,0,0.2,0.2,0.2,0.3
				c0,0.1,0.2,0.3,0.3,0.4c0,0.1,0,0.4,0,0.4c0,0.1,0,0.4,0,0.5c0,0.1,0.5,0.6,0.7,0.7c0.2,0.2,0.3-0.3,0.2-0.5
				c-0.1-0.1-0.4-0.5-0.5-0.6c-0.1-0.1-0.1-0.5-0.1-0.6c0-0.1,0.3,0.1,0.4,0.1c0.1,0.1,0.3,0.3,0.3,0.3c0,0.1,0.7-0.3,0.7-0.7
				c0-0.4,0.3-0.9,0.3-1c0-0.1-0.1-0.3-0.1-0.3c-0.1,0,0.1-0.3,0.3-0.3c0.2,0,0.6-0.5,0.8-0.7c0.1-0.2,0.3-0.4,0.4-0.4
				c0,0,0.2-0.5,0.2-0.7c0-0.2-0.1-0.5-0.1-0.6c0-0.1-0.2-0.3-0.2-0.4c0-0.1-0.1-0.3-0.1-0.4c0,0,0.2-0.1,0.2-0.1
				c0,0,0.2-0.3,0.2-0.3c0-0.1,0.1,0.1,0.2,0.2c0.1,0.1,0.2,0.6,0.3,0.6c0.1,0.1,0.6-0.5,0.5-0.9c-0.1-0.4,0.1-0.8,0.2-0.9
				c0.1,0,0.2-0.2,0.4-0.4c-1-2.9-2.7-5.4-4.9-7.5c0,0,0,0,0,0c-0.2-0.1-0.4-0.3-0.4-0.4c-0.2-0.2-0.4-0.4-0.7-0.6
				c-0.1,0-0.1,0-0.2,0c-0.2,0-0.5-0.1-0.6-0.2c-0.1-0.1-0.3,0.1-0.3,0.2c0,0.1-0.4,0.2-0.4,0.3c0,0.1-0.2,0.1-0.3,0
				c0,0-0.4,0.1-0.6,0.1c-0.2,0-0.5,0.2-0.6,0.2c-0.1,0-0.3,0.2-0.3,0.3c0,0.1-0.3,0.2-0.3,0.2c-0.1,0-0.1,0.3,0,0.4
				c0.1,0-0.2,0-0.3-0.1c-0.1-0.1-0.2,0.1-0.3,0.2c0,0.1-0.1,0-0.1-0.1c0-0.1-0.3-0.2-0.3-0.1c0,0.1-0.2,0-0.3-0.1
				c-0.1,0-0.4,0.3-0.6,0.5c-0.1,0.1-0.8,0.2-0.9,0.2c-0.1,0-0.2,0.3-0.1,0.3c0.1,0-0.3,0-0.5,0c-0.2,0-0.8,0.2-0.9,0.3
				c-0.1,0.1-0.3,0-0.3-0.1c0-0.1-0.2-0.1-0.3-0.2c-0.1,0-0.2,0.4-0.3,0.5c-0.1,0.1-0.3-0.3-0.5-0.4c-0.3-0.1-0.7-0.3-0.8-0.4
				c-0.1,0-0.4-0.3-0.4-0.4c-0.1-0.1-0.4-0.1-0.5-0.1s-0.5,0.2-0.6,0.3c-0.1,0.1-0.2,0.1-0.3,0.1c0,0-0.5,0.4-0.6,0.5
				c-0.2,0.1-0.4,0.6-0.5,0.8c-0.1,0.1-0.2,0.1-0.3,0.2c-0.1,0-0.1,0.1-0.1,0.2c0,0.1-0.5,0.3-0.5,0.5c0,0.2,0,0.7,0,0.8
				c0,0.2,0.2,0.5,0.3,0.5c0.1,0,0.1,0.3,0,0.4c0,0.1,0.1,0.2,0.1,0.2c0,0.1-0.3,0.2-0.4,0.2c-0.1,0-0.3,0.3-0.3,0.3
				c0,0.1-0.3,0.1-0.4,0.2c0-0.1,0.1-0.2,0.1-0.2c0.1-0.1,0-0.3-0.1-0.3c0,0-0.1-0.6-0.2-0.7c-0.1-0.1-0.3-0.3-0.3-0.4
				c0,0,0-0.2,0.1-0.2c0-0.1-0.3-0.1-0.3-0.1c-0.1,0-0.1,0.6-0.2,0.7c0,0.1,0.1,0.4,0.2,0.4c0,0,0,0.3-0.1,0.3
				c-0.1,0-0.2,0.4-0.1,0.5c0.1,0.1-0.1,0.3-0.1,0.3c-0.1,0,0.4,0,0.6,0c0.2,0,0.4,0.1,0.3,0.1c0,0-0.4,0.1-0.5,0.2
				c-0.1,0.1-0.3,0.3-0.4,0.3c0,0.1,0.1,0.2,0.2,0.2c0.1,0,0.2,0.4,0.3,0.4c0.1,0.1,0.1,0.3,0,0.3c0,0.1-0.5,0-0.7,0
				c-0.2,0-0.4,0.4-0.4,0.6c0,0.1,0,0.6,0.1,0.7c0,0.1,0.4,0.2,0.5,0.2c0.1,0.1,0.5,0,0.5,0c0.1,0,0.3-0.4,0.4-0.6
				c0-0.2,0.5-0.5,0.5-0.7c0.1-0.1,0.5-0.1,0.6-0.2c0.1-0.1,0,0.3,0.1,0.5c0.1,0.2,0.5,0.2,0.4,0c-0.1-0.2,0-0.3,0.1-0.2
				c0,0.1,0.4,0.2,0.5,0.3c0.1,0.1,0.1,0.4,0,0.4c-0.1,0-0.1,0.3,0,0.3c0.1,0,0.2-0.3,0.3-0.4c0.1-0.1,0.2-0.3,0.1-0.3
				c0,0,0.1-0.2,0.1-0.1c0.1,0.1-0.2-0.4-0.4-0.6c-0.2-0.2-0.1-0.1,0.3,0.2c0,0,0,0,0.2,0.3c0,0.1,0.1,0.2,0.1,0.3
				c0.1,0.1,0.1,0.1,0.1,0.1c0,0.1,0.1,0.4,0.1,0.5c0,0.1,0.2,0.2,0.3,0.2c0.1,0,0.2,0,0.2,0.1c0,0,0.1,0.2,0.2,0.2
				c0.1,0,0.1-0.3,0-0.3c-0.1,0-0.1-0.4-0.1-0.6c0-0.2,0.1-0.3,0.1-0.3c0,0,0,0.3,0,0.4c0,0.1,0,0.2,0.1,0.3c0,0,0,0,0.1,0.1
				c0.2,0.2,0.2,0.2,0.2,0.2c0.3-0.1,0.8,0,0.8,0c0,0.1,0.3,0.1,0.3,0c0-0.1,0,0,0,0.1c0,0.1-0.2,0.4-0.3,0.5c0,0.1-0.8,0-1.2,0
				c-0.3,0-0.9,0.1-0.9,0.2c0,0.1-0.6-0.2-0.8-0.3c-0.2-0.1-0.4-0.5-0.5-0.5c-0.1,0,0-0.2,0-0.2c0-0.1-0.6-0.1-0.8,0
				c-0.2,0.1-1,0.1-1.2,0.2c-0.2,0.1-0.5,0-0.6,0c-0.1,0-0.3,0.3-0.4,0.3c-0.1,0-0.3,0.4-0.3,0.9c0,0,0,0-0.2,0.3
				c-0.1,0.2-0.1,0.2-0.1,0.2c-0.3,0.2-0.6,0.9-0.7,1c-0.1,0.1-0.2,1.1-0.2,1.5c0,0.3,0.3,1.1,0.4,1.2c0.1,0.2,0.6,0.6,0.8,0.7
				c0.2,0.1,0.7,0.1,0.9,0.1c0.2,0,0.4-0.2,0.5-0.4c0,0,0,0,0.3,0c0.1,0,0.1,0,0.1,0c0,0.1,0.4,0.3,0.5,0.3c0.1,0.1,0.4,0,0.4,0
				c0.1,0,0.2,0.7,0.1,0.9c-0.1,0.2,0.1,0.9,0.2,1.1c0.1,0.2,0.3,0.8,0.3,1c0,0.2-0.1,0.9-0.2,1.1c0,0.2,0.3,0.9,0.4,1.1
				c0.1,0.2,0.2,0.7,0.2,0.8c0,0.1,0.4,0.8,0.5,1.1C286,540.1,286.9,540.2,287.2,540z"/>
			<path class="st2" d="M273.2,529.1c-0.1,0-0.2-0.2-0.3-0.2c-0.1,0-0.1,0.1-0.1,0.2c0,0.1,0,0.1,0.1,0.1c0,0,0.1,0.2,0.2,0.1
				C273.3,529.2,273.3,529.1,273.2,529.1z"/>
			<path class="st2" d="M272.6,529.8c0,0.1,0.4,0.1,0.4,0.2c0.1,0.1,0.2-0.1,0.4-0.1c0.1,0,0-0.4-0.3-0.4c-0.2,0-0.4-0.2-0.4-0.2
				c-0.1,0-0.3-0.2-0.4-0.2c-0.1-0.1-0.6-0.1-0.8-0.1s-0.4,0.2-0.4,0.2c0,0.1,0.3,0.1,0.4,0.1c0.1,0,0.5,0.1,0.6,0.2
				c0.1,0.1,0.3,0.2,0.4,0.1C272.7,529.5,272.6,529.7,272.6,529.8z"/>
			<path class="st2" d="M272.7,528.6c0-0.1-0.1-0.1-0.2-0.1c0,0-0.1,0.1-0.1,0.2C272.5,528.8,272.8,528.7,272.7,528.6z"/>
			<path class="st2" d="M273.8,530c0,0.1,0.3,0,0.3,0c0-0.1,0-0.2-0.1-0.2C274,529.8,273.8,529.9,273.8,530z"/>
			<path class="st2" d="M272.7,536.5c0.1,0.1,0.4,0.7,0.5,0.9c0.1,0.2,0,0.5,0,0.6c0,0.1,0.1,0.2,0.1,0.3c0,0.1-0.1,0.6-0.1,0.8
				c0.1,0.2-0.3,0.9-0.3,1.3c0,0.3,0.2,0.8,0.2,0.8c0.1,0,0.1,0.3,0,0.4c-0.1,0-0.2,0.3-0.2,0.3c0.1,0,0,0.3,0,0.4
				c0,0.1,0.1,0.8,0.1,1c0,0.2,0.3,0.6,0.3,0.8c0.1,0.1,0.1,0.4,0.1,0.5c0,0,0,0.1,0.1,0.1c0,0,0.2,0.1,0.3,0.1c0.1,0,0.5,0,0.6,0
				c0.1,0,0-0.1,0-0.2c-0.1-0.1-0.1-0.4-0.2-0.4c-0.1,0-0.1-0.4,0-0.5c0.1-0.1,0.3-0.2,0.3-0.3c0-0.1,0-0.4,0-0.5
				c-0.1,0,0-0.5,0-0.7c0-0.2,0.4-0.4,0.4-0.6c0-0.2,0.5-0.4,0.6-0.4c0.1-0.1,0.2-0.6,0.1-0.7c-0.1-0.1,0.2-0.2,0.3-0.2
				c0.1,0,0.2-0.1,0.2-0.1c0,0,0.2-0.2,0.2-0.3c0.1,0,0.2-0.6,0.3-0.6c0.1-0.1,0.2-0.4,0.2-0.5c0-0.1,0.2-0.4,0.2-0.4
				c0.1-0.1,0.5-0.3,0.6-0.3c0.1,0,0.2-0.7,0.2-1c0-0.2,0.2-0.6,0.2-0.6c0-0.1,0.1-0.1,0.2-0.2c0,0,0.1-0.3,0.2-0.4
				c0.1-0.1,0.3-0.4,0.3-0.4c0-0.1,0-0.2,0.1-0.4c0,0,0,0,0-0.2c0-0.3,0-0.3,0-0.3c-0.1-0.2-0.3-0.5-0.4-0.4
				c-0.1,0.1-0.3-0.2-0.5-0.2c-0.1,0-0.5-0.1-0.6-0.1c-0.1,0-0.4-0.2-0.5-0.3c-0.1,0-0.5-0.1-0.5-0.1c-0.1,0-0.1-0.5-0.4-0.7
				c-0.3-0.2-0.8-0.5-0.8-0.7c-0.1-0.1-0.6-0.4-0.7-0.5c-0.2-0.1-0.4-0.1-0.4-0.1c0,0-0.2-0.3-0.3-0.4c-0.1-0.1-0.4-0.2-0.4-0.1
				c0,0.1-0.2,0-0.3,0c0-0.1-0.2,0-0.3,0.1c-0.1,0-0.3,0.4-0.5,0.5c-0.1,0.1-0.3-0.1-0.3-0.1c-0.1,0-0.4,0.1-0.5,0.1
				c-0.1,0.1-0.3-0.4-0.2-0.6c0-0.2-0.2-0.6-0.4-0.7c-0.2,0-0.2-0.5-0.2-0.6c0-0.2-0.3-0.3-0.4-0.3c-0.1,0-0.3,0.2-0.4,0.3
				c0,0.1-0.9-0.2-0.8-0.7c0.1-0.5,0.5-1,0.6-1.1c0.1-0.1,0.6-0.1,0.8,0c0.1,0.1,0.2,0,0.3,0c0,0,0.5,0,0.6,0.1
				c0.1,0.1,0.3,0.6,0.5,0.6c0.1,0.1,0.2-0.3,0.2-0.4c0-0.1-0.1-0.3-0.1-0.4c0-0.1,0.2-0.7,0.4-0.8c0.2-0.1,0.4-0.4,0.4-0.5
				c0-0.1,0.2-0.1,0.2-0.1c0.1,0,0-0.5,0.1-0.6c0.1-0.1,0.5-0.3,0.6-0.4c0.1-0.1,0.2-0.4,0.2-0.4c0-0.1,0.3-0.4,0.5-0.4
				c0.2-0.1,0.4,0.1,0.3,0.1c0,0,0.3-0.2,0.4-0.2c0.1-0.1,0-0.3-0.1-0.4c-0.1-0.1,0-0.3,0.1-0.4c0.1,0,0.2-0.3,0.2-0.3
				c0-0.1,0.4,0,0.6-0.1c0.2-0.1,0,0.3-0.1,0.5c-0.1,0.2,0.1,0.3,0.2,0.3c0.1,0,0.2,0.1,0.2,0.1c0,0,0.2,0,0.3,0
				c0.1,0,0.2-0.2,0.2-0.2c0-0.1-0.3-0.3-0.3-0.4c0-0.1-0.1-0.7-0.1-0.9c0-0.1-0.2-0.3-0.2-0.3c-0.1,0-0.2-0.3-0.3-0.4
				c-0.1-0.1-0.1-0.3-0.1-0.3c0-0.1-0.3-0.4-0.4-0.5c-0.1-0.2-0.2-0.1-0.2-0.1c0,0.1-0.2,0.1-0.3,0.1c-0.1,0-0.2-0.4-0.2-0.5
				c0-0.1-0.4-0.2-0.5-0.3c-0.1-0.1-0.3-0.1-0.4-0.1c0-0.1-0.3-0.1-0.3-0.1c0,0,0,1-0.1,1.2c0,0.3-0.3,0.5-0.3,0.5
				c-0.1,0,0,0.2,0,0.2c0.1,0-0.2,0.3-0.2,0.5c0,0.2-0.2,0-0.3-0.2c0-0.2-0.2-0.4-0.3-0.3c0,0.1-0.2-0.1-0.2,0
				c-0.1,0-0.4-0.2-0.6-0.3c-0.1-0.1-0.2-0.5-0.3-0.6c-0.1,0,0-0.1,0-0.2c0-0.1,0.3-0.3,0.4-0.4c0.1-0.1,0.4-0.5,0.5-0.6
				c0.1-0.1,0.2-0.3,0.2-0.4c0,0,0.5-0.2,0.7-0.3c0.2-0.1,0.3-0.5,0.3-0.6c0-0.1-0.1-0.3-0.2-0.4c-0.1,0,0.2,0,0.3,0
				c0.1,0,0.4-0.1,0.5,0c0.1,0.1,0.3,0.2,0.5,0.3c0,0,0,0,0,0.3c-0.1,0.5-0.1,0.5-0.1,0.5c-0.4,0.2-0.6,0.5-0.4,0.5
				c0.2,0,0.9,0.3,1.1,0.4c0.2,0.1,0.3-0.2,0.3-0.3c0.1-0.1,0-0.4,0-0.5c0-0.1,0.2,0,0.3,0c0.1,0.1,0.2-0.1,0.2-0.1
				c0.1,0,0.1-0.3,0.1-0.4c0-0.1-0.1-0.1-0.1-0.2c0-0.1-0.3-0.2-0.4-0.3c-0.1,0-0.1-0.3-0.1-0.3c0.1,0,0-0.3-0.1-0.4
				c0-0.1-0.4-0.2-0.5-0.2c-0.1,0-0.2-0.3-0.3-0.3c-0.1,0-0.5-0.1-0.6-0.1c-0.1,0-0.3-0.3-0.5-0.2c-0.2,0.1-0.4-0.1-0.4-0.2
				c-0.1,0-0.5,0.4-0.5,0.7c0,0.3,0.2,0.6,0.2,0.6c0.1,0,0,0.3-0.1,0.4c-0.1,0.1-0.2-0.1-0.2-0.2c0.1-0.1-0.2-0.4-0.3-0.5
				c-0.1-0.1-0.2-0.2-0.4-0.2c-0.1,0.1-0.2,0.2-0.3,0.3c0,0.1,0.1,0.2,0,0.3c-0.1,0.2-0.2,0.2-0.2,0.1c0,0-0.1-0.1-0.2-0.1
				c-0.4,0.5-0.8,0.9-1.1,1.4c-0.1,0.1-0.2,0.2-0.2,0.3c-0.2,0.3-0.4,0.7-0.6,1c-0.1,0.2-0.2,0.3-0.3,0.5c-0.2,0.4-0.4,0.9-0.6,1.3
				c-0.1,0.3-0.2,0.6-0.3,0.9c-0.1,0.2-0.1,0.4-0.2,0.5c-0.1,0.3-0.2,0.7-0.3,1c0,0.1-0.1,0.2-0.1,0.3c-0.2,0.8-0.4,1.7-0.5,2.5
				c0.1,0.1,0.2,0.2,0.2,0.3c0.1,0.2,0.3,0.3,0.4,0.3c0.1,0,0.1-0.3,0-0.4c0-0.1,0.1-0.1,0.1-0.1c0,0.1,0.3,0.4,0.4,0.5
				c0.1,0.1,0.2,0.8,0.3,1c0.1,0.2,0.9,0.5,1.2,0.5c0.3,0.1,0.6,0.4,0.7,0.4c0.1,0.1,0.4,0.1,0.5,0.2c0.1,0,0.3,0.3,0.3,0.3
				c0.1,0.1,0.1,0.2,0.1,0.2c0,0,0.5,0.2,0.6,0.3c0.1,0.1,0.3,0.1,0.3,0c0-0.1,0.1,0.2,0.2,0.4c0,0.1,0.1,0.4,0,0.4
				c0,0-0.1,0.5-0.2,0.6c-0.1,0.1-0.3,0.8-0.2,0.9c0,0.1,0.3,0.4,0.4,0.5c0.1,0,0.1,0.2,0,0.2c-0.1,0,0,0.7,0.1,0.8
				c0.2,0.1,0.3,0.4,0.3,0.4C272.2,536.1,272.6,536.4,272.7,536.5z"/>
			<path class="st2" d="M273.2,516.6c0.2,0,0.6-0.1,0.6-0.2c0-0.1,0-0.2,0-0.3c0,0,0.1,0,0.1,0c0.1,0,0.2-0.5,0.3-0.6
				c0.1-0.1,0.6-0.3,0.7-0.3c0.1-0.1,0.4-0.3,0.5-0.4c0.1,0,0.3-0.3,0.2-0.3c0,0,0.4-0.3,0.5-0.3c0.1-0.1,0.2-0.2,0.2-0.2
				c0,0-0.4,0.2-0.9,0.4c-0.5,0.3-0.9,0.6-1.4,0.9c-0.4,0.3-0.8,0.6-1.2,1c-0.1,0.1-0.3,0.2-0.4,0.3
				C272.8,516.6,273.1,516.6,273.2,516.6z"/>
			<path class="st2" d="M272.1,519.7c-0.1,0.1,0,0.4,0.1,0.4c0.1,0,0.3-0.5,0.5-0.4c0.2,0.1,0.3,0.1,0.2,0.1c0,0-0.5-0.2-0.5-0.3
				C272.4,519.4,272.2,519.6,272.1,519.7z"/>
			<path class="st2" d="M282,515.5c0.1,0,0.1-0.3,0.1-0.4c0-0.1,0.2-0.1,0.3-0.2c0-0.1,0.3-0.2,0.4-0.2c0.1,0,0.2-0.3,0-0.3
				c-0.1,0-0.4,0-0.4-0.1c0-0.1-0.5-0.1-0.6,0c-0.1,0.1,0-0.3,0.1-0.3c0.2,0,0-0.3-0.2-0.3c-0.2,0-0.6-0.1-0.7,0
				c-0.1,0-0.3-0.1-0.4-0.1c-0.1,0-0.6,0.2-0.9,0.1c-0.3,0-0.9,0-1,0.1c-0.1,0-0.2,0.3-0.2,0.4c0,0.1-0.6,0.1-0.8,0.1
				c-0.2,0-1.3,0.2-1.5,0.4c-0.3,0.1-0.5,0.5-0.4,0.5c0.1,0-0.2,0.2-0.3,0.3c-0.1,0-0.5,0.1-0.6,0.2c-0.1,0.1,0.1,0.1,0.1,0.2
				c0,0.1,0.1,0,0.2,0c0.1,0.1,0.4,0.1,0.5,0.1c0.1,0-0.3,0.1-0.4,0.1c-0.2,0-0.1,0.3,0,0.4c0.1,0,0.5,0.1,0.5,0
				c0-0.1,0.4,0.1,0.6,0.1c0.2,0,0.3,0.4,0.3,0.5c0.1,0.1,0.1,0.4,0,0.5c0,0.1,0.3,0.3,0.4,0.2c0.1-0.1,0,0.1-0.1,0.1
				c-0.1,0,0,0.3,0.1,0.4c0.2,0,0,0.3,0,0.3c-0.1,0.1,0,0.3-0.1,0.3c-0.1,0.1,0.3,0.8,0.3,1.1c0,0.4,0.2,0.6,0.3,0.6
				c0.1,0,0.4,0.1,0.4,0.1c0,0.1,0.2-0.1,0.2-0.1c0.1-0.1,0.2-0.2,0.3-0.4c0.1-0.2,0.3-0.9,0.3-0.9c0-0.1,0.4,0,0.4-0.1
				c0.1,0,0.3-0.2,0.4-0.3c0.1-0.1,0.5-0.3,0.7-0.3c0.1-0.1,0.4-0.5,0.5-0.6c0.1-0.1-0.1-0.1-0.2-0.1c-0.1-0.1-0.1-0.2,0-0.2
				c0,0,0.4,0.1,0.6,0.1c0.1,0.1,0.4-0.1,0.3-0.2c-0.1-0.1,0-0.1,0,0c0,0,0.1-0.2,0-0.3c-0.1-0.1,0.4-0.4,0.3-0.7
				c-0.1-0.3,0.1-0.6,0.2-0.6c0.1,0,0.1-0.3-0.1-0.4C281.8,515.6,282,515.6,282,515.5z"/>
			<path class="st2" d="M272.2,528.6c-0.1,0-0.1,0.1-0.1,0.1c0,0.1,0,0.1,0.1,0.1C272.2,528.8,272.2,528.6,272.2,528.6z"/>
			<path class="st2" d="M303.7,533.3c0.2,0.2,0.7,0.1,0.7-0.2C304.2,533,303.7,533,303.7,533.3z"/>
			<path class="st2" d="M295.9,531.7c-0.1,0.1,0.4,0.4,0.4,0.4c0-0.1-0.1-0.4-0.1-0.5C296.1,531.5,295.9,531.5,295.9,531.7z"/>
			<path class="st2" d="M303.1,531.5c0,0.1,0.3-0.1,0.4-0.1c0.1,0,0.2-0.4,0.1-0.4c-0.1,0-0.2-0.3-0.3-0.3c-0.1,0-0.2,0.1-0.2,0.2
				c0,0.1-0.3,0.2-0.3,0.2c0,0.1,0,0.2,0,0.1C302.8,531.2,303.1,531.4,303.1,531.5z"/>
			<path class="st2" d="M299.8,533.7c-0.1-0.2-0.3-0.5-0.6-0.7c0,0,0,0-0.1-0.1c-0.1-0.2-0.1-0.2-0.1-0.2c-0.1-0.2-0.4-0.3-0.4-0.4
				c0-0.1-0.1,0.2-0.2,0.1c0,0,0.2,0.1,0.3,0.2c0.3,0.2,0.8,1.4,0.9,1.5C299.7,534.2,299.9,533.8,299.8,533.7z"/>
			<path class="st2" d="M304.1,535.5c-0.3,0-0.6,0.1-0.6,0.2c0,0.1-0.4,0.2-0.5,0.3c-0.1,0-0.3,0.4-0.4,0.5c0,0.1-0.3,0.1-0.4,0.1
				c-0.1,0-0.3,0.2-0.3,0.3c0,0.1-0.1,0.1-0.1,0c0,0,0,0-0.1,0.1c-0.2,0.2-0.2,0.2-0.2,0.2c-0.1,0.3-0.4,0.7-0.5,0.7
				c-0.1,0-0.1,0.5-0.1,0.7c0,0.2,0.1,0.5,0.2,0.6c0,0,0,0,0,0.2c0,0.3,0,0.3,0,0.3c-0.1,0.2,0.1,0.5,0.2,0.5c0.1,0,0.5-0.1,0.7-0.1
				c0,0,0.1,0,0.1-0.1C303,538.7,303.7,537.1,304.1,535.5C304.1,535.5,304.1,535.5,304.1,535.5z"/>
			<path class="st2" d="M304.5,533.6c-0.1,0-0.3,0.1-0.4,0c0-0.1-0.1,0.1-0.2,0.1c-0.1,0,0,0.2,0.1,0.1c0.1,0,0.3,0.1,0.5,0.2
				C304.6,533.9,304.6,533.7,304.5,533.6C304.6,533.5,304.5,533.6,304.5,533.6z"/>
			<path class="st2" d="M290,538.2c0,0.1,0.3,0.3,0.4,0.2c0.1,0,0.3-0.5,0.4-0.6c0-0.1,0.1-0.4,0.1-0.5c0-0.1,0-0.2,0.1-0.2
				c0,0,0.1-0.2,0.1-0.3c0-0.2-0.2-0.9-0.2-1.1c0-0.1-0.2,0.1-0.2,0.2c0,0.1-0.4,0.4-0.5,0.5c-0.1,0.1-0.2,0.5-0.1,0.6
				c0,0.1,0,0.3-0.1,0.4C289.9,537.6,290,538.1,290,538.2z"/>
			<path class="st2" d="M302.7,533c-0.1,0-0.5,0.5-0.5,0.8c0.1,0.3,0.2,0.3,0.2,0.2c0-0.1,0.3,0,0.3,0.1c0.1,0,0.1,0,0-0.2
				c-0.1-0.1,0-0.4,0.1-0.5C302.9,533.4,302.8,533.1,302.7,533z"/>
			<path class="st2" d="M302.7,529.9c0-0.1-0.1-0.2-0.2-0.3c-0.2,0-0.2,0.5-0.1,0.6C302.5,530.3,302.7,530.1,302.7,529.9z"/>
			<path class="st2" d="M302,533.1c0-0.1,0-0.5,0.1-0.6c0-0.1-0.2-0.3-0.3-0.4c-0.1,0-0.5,0.8-0.8,0.9c-0.3,0.1-0.4,0.6-0.3,0.8
				c0.1,0.1,0.7,0.2,0.8,0.3c0.1,0.1,0.2,0,0.3,0c0.1,0,0-0.1,0-0.1c0,0,0.2-0.2,0.2-0.4C302,533.5,302,533.2,302,533.1z"/>
			<path class="st2" d="M302,528.6c-0.1,0.1,0,0.4,0,0.4c0,0.1,0.1,0.1,0.2,0C302.3,528.9,302.1,528.5,302,528.6z"/>
			<path class="st2" d="M299.9,534.6c0,0.1,0.8,0.2,1.1,0.3c0.3,0.1,0.5,0.1,0.4,0.1c-0.1,0-0.8-0.4-1-0.5
				C300.2,534.4,300,534.5,299.9,534.6z"/>
		</g>
	</g>
	<path class="st1" d="M285.4,548.3c-10.2-1.2-17.5-10.2-16.3-20c1.2-9.9,10.3-16.9,20.5-15.7c1.7,0.2,3.4,0.6,4.9,1.2
		c-2-1-4.2-1.7-6.6-2c-10.6-1.2-20.1,6.1-21.3,16.4s6.4,19.6,17,20.8c4,0.5,7.8-0.3,11.1-2C291.8,548.2,288.7,548.7,285.4,548.3z"/>
</g>
<g>
	<path class="st3" d="M348.6,596.7c-0.2-1.1-1-2-2-2.4c-1-0.4-2.2-0.3-3.1,0.4c-3.3,2.3-24.4,5.7-59.4,5.7c-35,0-56.1-3.4-59.4-5.7
		c-0.9-0.6-2.1-0.8-3.1-0.4c-1,0.4-1.8,1.3-2,2.4c-0.7,3.4-1,6.8-1,10.1c0,32.3,29.4,58.6,65.5,58.6s65.5-26.3,65.5-58.6
		C349.6,603.5,349.3,600.1,348.6,596.7z"/>
	<g>
		<polygon class="st6" points="223,614.7 221.8,614.9 222.2,617 223.4,616.7 		"/>
		<path class="st6" d="M222.6,611.2l-1.2,0.1c0,0.7,0.1,1.4,0.2,2l1.2-0.2C222.6,612.5,222.6,611.9,222.6,611.2z"/>
		<polygon class="st6" points="222.4,607.6 221.1,607.6 221.3,609.7 222.5,609.6 		"/>
		<polygon class="st6" points="225.9,625.1 224.8,625.5 225.5,627.4 226.7,626.9 		"/>
		<path class="st6" d="M224.7,621.7l-1.2,0.4c0.2,0.6,0.3,1.3,0.6,1.9l1.2-0.4C225,623,224.9,622.4,224.7,621.7z"/>
		<polygon class="st6" points="223.7,618.3 222.5,618.6 223.1,620.5 224.3,620.2 		"/>
		<polygon class="st6" points="230.9,634.6 229.9,635.3 231,637 232,636.3 		"/>
		<path class="st6" d="M229,631.6l-1.1,0.6c0.3,0.6,0.6,1.2,1,1.8l1-0.7C229.6,632.8,229.3,632.1,229,631.6z"/>
		<polygon class="st6" points="227.3,628.4 226.2,629 227.2,630.8 228.3,630.2 		"/>
		<polygon class="st6" points="237.7,643 236.8,643.8 238.3,645.2 239.1,644.4 		"/>
		<path class="st6" d="M235.2,640.3l-0.9,0.8c0.4,0.5,0.9,1.1,1.3,1.6l0.9-0.8C236.1,641.4,235.7,640.8,235.2,640.3z"/>
		<polygon class="st6" points="232.9,637.6 232,638.3 233.3,639.9 234.2,639.1 		"/>
		<polygon class="st6" points="245.9,649.9 245.2,650.9 246.9,652 247.6,651 		"/>
		<polygon class="st6" points="243,647.7 242.3,648.7 243.9,650 244.6,649 		"/>
		<path class="st6" d="M240.3,645.5l-0.8,0.9c0.5,0.5,1.1,0.9,1.6,1.3l0.8-0.9C241.3,646.3,240.8,645.9,240.3,645.5z"/>
		<polygon class="st6" points="255.2,655.3 254.7,656.4 256.6,657.2 257.1,656.1 		"/>
		<polygon class="st6" points="252,653.7 251.5,654.7 253.3,655.7 253.8,654.6 		"/>
		<path class="st6" d="M248.9,651.9l-0.6,1.1c0.6,0.4,1.2,0.7,1.8,1l0.6-1.1C250.1,652.6,249.5,652.3,248.9,651.9z"/>
		<path class="st6" d="M265.3,659.1l-0.3,1.2c0.6,0.2,1.3,0.3,2,0.5l0.3-1.2C266.6,659.4,266,659.3,265.3,659.1z"/>
		<polygon class="st6" points="261.9,658 261.5,659.1 263.5,659.8 263.8,658.6 		"/>
		<path class="st6" d="M258.6,656.7l-0.5,1.1c0.6,0.3,1.2,0.6,1.9,0.8l0.4-1.2C259.8,657.3,259.2,657,258.6,656.7z"/>
		<polygon class="st6" points="275.9,661.1 275.8,662.4 277.8,662.6 277.9,661.4 		"/>
		<polygon class="st6" points="272.4,660.7 272.1,661.9 274.2,662.2 274.3,660.9 		"/>
		<polygon class="st6" points="268.8,659.9 268.6,661.1 270.6,661.6 270.8,660.4 		"/>
		<polygon class="st6" points="286.7,661.6 286.7,662.8 288.8,662.7 288.7,661.5 		"/>
		<path class="st6" d="M283.1,661.6l0,1.2c0.7,0.1,1.4,0,2,0l0-1.2C284.4,661.7,283.8,661.7,283.1,661.6z"/>
		<polygon class="st6" points="279.5,661.5 279.4,662.7 281.5,662.8 281.5,661.6 		"/>
		<polygon class="st6" points="297.4,660.4 297.6,661.6 299.6,661.1 299.4,659.9 		"/>
		<polygon class="st6" points="293.9,660.9 294,662.2 296,661.9 295.8,660.7 		"/>
		<polygon class="st6" points="290.3,661.4 290.4,662.6 292.4,662.4 292.3,661.1 		"/>
		<path class="st6" d="M307.8,657.5l0.4,1.2c0.6-0.2,1.3-0.5,1.9-0.8l-0.5-1.1C309,657,308.4,657.3,307.8,657.5z"/>
		<polygon class="st6" points="304.4,658.6 304.7,659.8 306.7,659.1 306.3,658 		"/>
		<path class="st6" d="M300.9,659.6l0.3,1.2c0.7-0.2,1.3-0.3,2-0.5l-0.3-1.2C302.2,659.3,301.6,659.4,300.9,659.6z"/>
		<path class="st6" d="M317.5,652.9l0.6,1.1c0.6-0.3,1.2-0.6,1.8-1l-0.6-1.1C318.7,652.3,318.1,652.6,317.5,652.9z"/>
		<polygon class="st6" points="314.4,654.6 314.9,655.7 316.7,654.7 316.2,653.7 		"/>
		<polygon class="st6" points="311.1,656.1 311.6,657.2 313.5,656.4 313,655.3 		"/>
		<path class="st6" d="M326.4,646.7l0.8,0.9c0.5-0.4,1.1-0.8,1.6-1.3l-0.8-0.9C327.4,645.9,326.9,646.3,326.4,646.7z"/>
		<polygon class="st6" points="323.6,649 324.3,650 325.9,648.7 325.1,647.7 		"/>
		<polygon class="st6" points="320.6,651 321.3,652 323,650.9 322.3,649.9 		"/>
		<polygon class="st6" points="334,639.1 334.9,639.9 336.2,638.3 335.3,637.6 		"/>
		<path class="st6" d="M331.6,641.8l0.9,0.8c0.5-0.5,0.9-1,1.3-1.6l-0.9-0.8C332.5,640.8,332.1,641.3,331.6,641.8z"/>
		<polygon class="st6" points="329.1,644.3 329.9,645.2 331.4,643.8 330.5,642.9 		"/>
		<polygon class="st6" points="339.9,630.2 341,630.7 342,628.9 340.9,628.4 		"/>
		<path class="st6" d="M338.2,633.3l1,0.7c0.4-0.6,0.7-1.2,1-1.8l-1.1-0.6C338.8,632.1,338.6,632.7,338.2,633.3z"/>
		<polygon class="st6" points="336.2,636.2 337.2,637 338.3,635.3 337.3,634.6 		"/>
		<polygon class="st6" points="343.9,620.2 345.1,620.5 345.7,618.6 344.5,618.3 		"/>
		<path class="st6" d="M342.9,623.6l1.2,0.4c0.3-0.6,0.4-1.3,0.6-1.9l-1.2-0.4C343.3,622.3,343.2,623,342.9,623.6z"/>
		<polygon class="st6" points="341.5,626.9 342.7,627.4 343.4,625.5 342.3,625.1 		"/>
		<polygon class="st6" points="345.7,609.6 346.9,609.7 347.1,607.6 345.8,607.6 		"/>
		<path class="st6" d="M345.4,613.2l1.2,0.2c0.1-0.7,0.2-1.4,0.2-2l-1.2-0.1C345.6,611.8,345.6,612.5,345.4,613.2z"/>
		<polygon class="st6" points="344.8,616.7 346,616.9 346.4,614.9 345.1,614.7 		"/>
		<polygon class="st6" points="327.8,601.9 327.7,600.6 325.6,600.9 325.7,602.1 		"/>
		<polygon class="st6" points="331.7,601.4 331.5,600.1 329.4,600.4 329.6,601.6 		"/>
		<polygon class="st6" points="335.5,600.7 335.3,599.5 333.2,599.9 333.4,601.1 		"/>
		<polygon class="st6" points="316.2,603 316.1,601.7 314,601.9 314.1,603.1 		"/>
		<polygon class="st6" points="320.1,602.7 320,601.4 317.9,601.6 317.9,602.8 		"/>
		<polygon class="st6" points="324,602.3 323.8,601.1 321.7,601.3 321.8,602.5 		"/>
		<polygon class="st6" points="304.6,603.6 304.5,602.4 302.4,602.5 302.4,603.7 		"/>
		
			<rect x="306.3" y="602.3" transform="matrix(0.9987 -5.183699e-02 5.183699e-02 0.9987 -30.8384 16.7432)" class="st6" width="2.2" height="1.2"/>
		<polygon class="st6" points="312.3,603.2 312.3,602 310.1,602.1 310.2,603.4 		"/>
		
			<rect x="290.8" y="602.8" transform="matrix(0.9998 -1.737205e-02 1.737205e-02 0.9998 -10.4377 5.1612)" class="st6" width="2.2" height="1.2"/>
		
			<rect x="294.6" y="602.7" transform="matrix(0.9997 -2.530938e-02 2.530938e-02 0.9997 -15.1743 7.678)" class="st6" width="2.2" height="1.2"/>
		<polygon class="st6" points="300.7,603.8 300.6,602.5 298.5,602.6 298.5,603.8 		"/>
		
			<rect x="279.6" y="602.3" transform="matrix(5.452393e-03 -1 1 5.452393e-03 -324.7202 880.3326)" class="st6" width="1.2" height="2.2"/>
		<polygon class="st6" points="285.2,604 285.2,602.8 283,602.8 283,604 		"/>
		
			<rect x="286.9" y="602.8" transform="matrix(1 -9.561737e-03 9.561737e-03 1 -5.7565 2.7809)" class="st6" width="2.2" height="1.2"/>
		<polygon class="st6" points="269.6,603.8 269.7,602.6 267.5,602.5 267.5,603.8 		"/>
		
			<rect x="271.8" y="602.2" transform="matrix(2.083559e-02 -0.9998 0.9998 2.083559e-02 -336.3949 863.116)" class="st6" width="1.2" height="2.2"/>
		
			<rect x="275.7" y="602.3" transform="matrix(1.306041e-02 -0.9999 0.9999 1.306041e-02 -330.6168 871.7758)" class="st6" width="1.2" height="2.2"/>
		<polygon class="st6" points="258,603.4 258.1,602.1 255.9,602 255.8,603.2 		"/>
		
			<rect x="260.2" y="601.8" transform="matrix(4.643024e-02 -0.9989 0.9989 4.643024e-02 -353.5263 835.4233)" class="st6" width="1.2" height="2.2"/>
		<polygon class="st6" points="265.7,603.7 265.8,602.5 263.6,602.4 263.6,603.6 		"/>
		<polygon class="st6" points="246.4,602.5 246.5,601.3 244.3,601.1 244.2,602.3 		"/>
		<polygon class="st6" points="250.2,602.8 250.3,601.6 248.2,601.4 248.1,602.7 		"/>
		<polygon class="st6" points="254.1,603.1 254.2,601.9 252,601.7 251.9,603 		"/>
		<polygon class="st6" points="234.8,601.1 235,599.9 232.8,599.5 232.6,600.7 		"/>
		<polygon class="st6" points="238.6,601.6 238.8,600.4 236.7,600.1 236.5,601.4 		"/>
		<polygon class="st6" points="242.5,602.1 242.6,600.9 240.5,600.6 240.3,601.9 		"/>
		<polygon class="st6" points="346.8,605.5 345.6,605.5 345.5,604 345.4,602.4 346.6,602.3 346.7,603.9 		"/>
		<polygon class="st6" points="345.7,596.6 346,598.2 346.3,599.7 345.1,599.9 344.9,598.7 344.8,598.7 344.8,598.7 344.8,598.7 
			344.8,598.7 344.6,598.7 344.6,598.7 344.6,598.7 344.6,598.7 344.6,598.7 344.5,598.7 344.4,598.8 344.1,598.9 343.5,599.1 
			343.1,598 343.8,597.7 344,597.6 344.1,597.5 344.5,597.4 345.1,597 345.4,596.8 345.6,596.7 345.6,596.6 345.7,596.6 
			345.7,596.6 345.7,596.6 345.7,596.6 		"/>
		<polygon class="st6" points="340.7,598.7 341,599.9 340.6,600 340.2,600.1 339.5,600.3 337.9,600.7 337.6,599.5 339.2,599.1 
			339.9,598.9 340.3,598.8 		"/>
		<polygon class="st6" points="230.7,599.4 230.4,600.6 229.7,600.4 228.9,600.3 228.1,600.1 227.7,600 227.3,599.9 227.6,598.7 
			228,598.8 228.4,598.9 229.2,599.1 229.9,599.2 		"/>
		<polygon class="st6" points="222.6,596.5 222.9,596.8 223.1,596.9 223.1,596.9 223.2,597 223.9,597.3 224.2,597.5 224.2,597.5 
			224.3,597.6 224.4,597.6 224.5,597.7 225.3,597.9 224.8,599.1 224.2,598.9 223.9,598.7 223.7,598.7 223.6,598.6 223.6,598.6 
			223.6,598.7 223.6,598.7 223.6,598.7 223.4,598.7 223.4,598.7 223.4,598.7 223.4,598.7 223.4,598.7 223.4,598.7 223.4,598.9 
			223.3,599.2 223.2,599.8 222,599.6 222.3,598 222.4,597.3 222.5,596.9 222.5,596.7 222.5,596.6 222.5,596.6 222.5,596.6 
			222.5,596.6 222.5,596.6 		"/>
		<polygon class="st6" points="221.7,602.2 222.9,602.3 222.8,603.8 222.7,605.4 221.5,605.4 221.6,603.8 		"/>
	</g>
	<circle class="st2" cx="231.9" cy="611.4" r="6.4"/>
	<circle class="st2" cx="337" cy="611.4" r="6.4"/>
	<g>
		<path id="XMLID_58_" class="st0" d="M273.3,636.5c-2,2-4.3,3-7,3c-2.7,0-5-1-7-2.9c-1.9-1.9-2.9-4.2-2.9-7c0-2.7,1-5,2.9-7
			c1.9-1.9,4.2-2.9,7-2.9c2.7,0,5,1,7,2.9c1.9,1.9,2.9,4.2,2.9,7v8.4c0,0.4-0.1,0.7-0.4,1c-0.3,0.3-0.6,0.4-1,0.4
			c-0.4,0-0.7-0.1-1-0.4c-0.3-0.3-0.4-0.6-0.4-1V636.5z M266.2,622.5c-1.9,0-3.6,0.7-5,2.1c-1.4,1.4-2.1,3-2.1,5
			c0,1.9,0.7,3.6,2.1,5c1.4,1.4,3,2.1,5,2.1c1.9,0,3.6-0.7,5-2.1c1.4-1.4,2.1-3,2.1-5c0-1.9-0.7-3.6-2.1-5
			C269.9,623.2,268.2,622.5,266.2,622.5z"/>
		<path id="XMLID_55_" class="st0" d="M295.5,612.6c0-0.4,0.1-0.7,0.4-1c0.3-0.3,0.6-0.4,1-0.4c0.4,0,0.7,0.1,1,0.4
			c0.3,0.3,0.4,0.6,0.4,1v16.9c0,2.7-1,5-2.9,7c-1.9,1.9-4.2,2.9-7,2.9c-2.7,0-5-1-7-2.9c-1.9-1.9-2.9-4.2-2.9-7c0-2.7,1-5,2.9-7
			c1.9-1.9,4.2-2.9,7-2.9c2.7,0,5,1,7,2.9c0,0,0,0,0.1,0.1V612.6z M295.5,629.5c0-1.9-0.7-3.6-2.1-5c-1.4-1.4-3-2.1-5-2.1
			c-1.9,0-3.6,0.7-5,2.1c-1.4,1.4-2.1,3-2.1,5c0,1.9,0.7,3.6,2.1,5c1.4,1.4,3,2.1,5,2.1c1.9,0,3.6-0.7,5-2.1
			C294.8,633.1,295.5,631.5,295.5,629.5z"/>
		<path class="st0" d="M262,614.9L262,614.9C262,614.8,262,614.8,262,614.9C262,614.8,262,614.8,262,614.9L262,614.9
			c-0.2-0.3-0.4-0.5-0.6-0.7c-1.9-1.9-4.2-2.9-7-2.9c-2.7,0-5,1-7,2.9c-1.9,1.9-2.9,4.2-2.9,7v0.3h-3c-0.5,0-1,0.2-1.2,0.7
			c-0.4,0.6-0.2,1.5,0.5,1.8c0.2,0.1,0.5,0.2,0.8,0.2h2.9V638c0,0.4,0.1,0.7,0.4,1c0.3,0.3,0.6,0.4,1,0.4c0.4,0,0.7-0.1,1-0.4
			c0.3-0.3,0.4-0.6,0.4-1v-10c0,0,0,0,0,0v-3.9h6.3c0.5,0,1-0.2,1.3-0.7c0.4-0.6,0.2-1.5-0.5-1.8c-0.2-0.1-0.5-0.2-0.7-0.2h-6.3
			c0-0.1,0-0.2,0-0.3c0-0.2,0-0.4,0-0.6v0h0c0.1-1.7,0.8-3.2,2-4.4c1.4-1.4,3-2.1,5-2.1c1.9,0,3.6,0.7,5,2.1
			c0.2,0.2,0.3,0.4,0.5,0.5l0,0c0.2,0.2,0.5,0.4,0.9,0.4c0.4,0,0.7-0.1,1-0.3c0.3-0.3,0.5-0.6,0.5-1
			C262.3,615.4,262.2,615.1,262,614.9z"/>
		<g>
			<circle id="XMLID_54_" class="st0" cx="311.1" cy="643.4" r="2.2"/>
			<circle id="XMLID_53_" class="st0" cx="319.8" cy="643.4" r="2.2"/>
			<path class="st0" d="M316.1,639.5c-1.1,0-2.2-0.1-3.3-0.4c-3.1-0.8-5.8-2.8-7.5-5.6c-1.6-2.6-2.3-5.7-1.8-8.7l0-0.2l-0.6-0.2
				l-0.1,0c-0.2,0.1-0.5,0.2-0.7,0.2c-0.1,0-0.2,0-0.4,0c-0.9-0.2-1.5-1.1-1.3-2c0.2-0.8,0.9-1.4,1.7-1.4c0.1,0,0.2,0,0.4,0
				c0.5,0.1,0.9,0.4,1.2,0.9l0.1,0.1l1.5,0.4c0.5,0.1,0.8,0.5,0.8,0.9c0,0.1,0,0.3,0,0.4c-1.3,5.9,1.9,11.4,7.5,12.9
				c0.9,0.2,1.8,0.4,2.7,0.4c4.7,0,8.9-3.2,10.2-7.8l0,0l0,0l0,0c0.1-0.5,0.6-0.8,1.1-0.8c0.1,0,0.2,0,0.3,0
				c0.3,0.1,0.5,0.3,0.7,0.5c0.2,0.3,0.2,0.6,0.1,0.9c0,0,0,0.1,0,0.1l0,0C326.9,635.6,321.8,639.5,316.1,639.5L316.1,639.5z"/>
			<path class="st0" d="M325.3,626.6c0,5.1-4.1,9.2-9.2,9.2c-5.1,0-9.2-4.1-9.2-9.2s4.1-9.2,9.2-9.2
				C321.2,617.5,325.3,621.6,325.3,626.6z"/>
			<path class="st8" d="M325.1,624.8c0-0.1-0.1-0.2-0.1-0.3c0,0-0.1,0-0.1,0.1c0,0-0.2,0.2-0.3,0.2c0,0-0.1,0.1-0.1,0.1c0,0,0,0,0,0
				c0,0,0,0.1,0,0.2c0,0,0.1-0.1,0.2-0.1c0,0,0.1-0.1,0.2,0C324.9,624.9,325,624.9,325.1,624.8C325.1,624.8,325.1,624.8,325.1,624.8
				z"/>
			<path class="st9" d="M324.7,628c0.1,0.1,0.3,0,0.4-0.1C325,627.9,324.7,627.9,324.7,628z"/>
			<path class="st9" d="M325.1,628.2c0,0-0.2,0-0.2,0c0,0,0,0.1-0.1,0.1c0,0,0,0.1,0,0.1c0,0,0.1,0,0.2,0.1
				C325.1,628.3,325.2,628.2,325.1,628.2C325.2,628.1,325.1,628.1,325.1,628.2z"/>
			<g>
				<path class="st9" d="M309.6,626.4c0,0,0.1,0,0.2,0c0,0,0,0,0,0C309.8,626.3,309.6,626.4,309.6,626.4z"/>
				<path class="st9" d="M316.9,631.3c0.1-0.1,0.3-0.4,0.4-0.4c0.1-0.1,0.1-0.3,0.1-0.3c0,0,0.1-0.1,0.2-0.1c0,0,0.2-0.5,0.3-0.6
					c0.1-0.1,0.2-0.6,0.2-0.8c0-0.2,0.1-0.5,0.1-0.6c0-0.1,0.2-0.2,0.2-0.3c0,0,0.3-0.4,0.4-0.5c0.1-0.1,0.2-0.4,0.1-0.5
					c0-0.1-0.2-0.1-0.2-0.1c0,0-0.2,0.1-0.3,0.1c-0.1,0-0.2-0.3-0.2-0.3c-0.1-0.1-0.1-0.4-0.2-0.4c0-0.1-0.2-0.2-0.2-0.3
					c0,0,0-0.2-0.1-0.3c0,0,0.1,0,0.1,0.1c0,0.1,0.2,0.3,0.3,0.4c0.1,0.1,0.2,0.4,0.3,0.5c0,0.1,0.4,0,0.5,0
					c0.1-0.1,0.3-0.1,0.3-0.2c0,0,0.2-0.1,0.2-0.2c0.1,0,0.1-0.3,0.1-0.3c0,0,0-0.2-0.1-0.3c0-0.1-0.2-0.1-0.3-0.1
					c0,0-0.1-0.1-0.1-0.2c0-0.1-0.2-0.1-0.2-0.2c0,0,0-0.1,0.1-0.1c0,0,0.3,0.2,0.4,0.3c0.1,0.1,0.2,0.3,0.2,0.3c0,0,0.2,0,0.3,0
					c0,0,0.1,0,0.1,0c0,0,0,0,0.1,0c0.2,0,0.2,0,0.2,0c0.1,0.1,0.1,0.2,0.1,0.2c0,0,0.1,0.1,0.1,0.1c0,0,0.1,0.2,0.1,0.2
					c0,0,0.1,0.3,0.2,0.3c0,0.1,0.1,0.3,0.2,0.3c0,0,0,0.2,0,0.2c0,0,0.1,0.1,0.1,0.1c0.1,0,0.2-0.3,0.2-0.4c0-0.1,0.1-0.2,0.1-0.2
					c0,0,0-0.1,0-0.1c0,0,0.1,0,0.1-0.1c0,0,0-0.2,0.1-0.3c0,0,0.2-0.1,0.3-0.2c0.1,0,0.2,0.1,0.2,0.2c0,0.1,0.1,0.2,0,0.2
					c0,0,0.1,0.2,0.2,0.2c0.1,0,0.1,0.1,0.1,0.1c0,0,0.1,0.1,0.1,0.2c0,0,0,0.2,0,0.2c0,0,0,0.2,0,0.2c0,0,0.3,0.3,0.3,0.4
					c0.1,0.1,0.1-0.2,0.1-0.2c0-0.1-0.2-0.2-0.2-0.3c0,0,0-0.2,0-0.3c0-0.1,0.1,0,0.2,0.1c0.1,0,0.1,0.1,0.1,0.2
					c0,0,0.3-0.2,0.3-0.3c0-0.2,0.1-0.4,0.1-0.5c0-0.1,0-0.1-0.1-0.1c0,0,0-0.1,0.1-0.1c0.1,0,0.3-0.2,0.4-0.3
					c0.1-0.1,0.2-0.2,0.2-0.2c0,0,0.1-0.2,0.1-0.3c0-0.1-0.1-0.2-0.1-0.3c0,0-0.1-0.2-0.1-0.2c0,0,0-0.2,0-0.2c0,0,0.1-0.1,0.1-0.1
					c0,0,0.1-0.1,0.1-0.2c0,0,0.1,0.1,0.1,0.1c0,0,0.1,0.3,0.1,0.3c0.1,0,0.3-0.2,0.2-0.4c0-0.2,0.1-0.4,0.1-0.4
					c0,0,0.1-0.1,0.2-0.2c-0.5-1.4-1.3-2.6-2.3-3.6c0,0,0,0,0,0c-0.1,0-0.2-0.1-0.2-0.2c-0.1-0.1-0.2-0.2-0.3-0.3c0,0-0.1,0-0.1,0
					c-0.1,0-0.3-0.1-0.3-0.1c0,0-0.1,0-0.1,0.1c0,0.1-0.2,0.1-0.2,0.1c0,0-0.1,0-0.1,0c0,0-0.2,0.1-0.3,0.1c-0.1,0-0.2,0.1-0.3,0.1
					c0,0-0.1,0.1-0.1,0.1c0,0-0.1,0.1-0.2,0.1c0,0,0,0.2,0,0.2c0,0-0.1,0-0.1,0c-0.1,0-0.1,0.1-0.1,0.1c0,0-0.1,0-0.1-0.1
					c0,0-0.1-0.1-0.2,0c0,0-0.1,0-0.2,0c0,0-0.2,0.2-0.3,0.2c-0.1,0.1-0.4,0.1-0.4,0.1c-0.1,0-0.1,0.1-0.1,0.1c0,0-0.1,0-0.2,0
					c-0.1,0-0.4,0.1-0.4,0.2c-0.1,0-0.1,0-0.1,0c0,0-0.1-0.1-0.1-0.1c0,0-0.1,0.2-0.1,0.2c-0.1,0-0.1-0.2-0.3-0.2s-0.3-0.2-0.4-0.2
					c-0.1,0-0.2-0.1-0.2-0.2c0,0-0.2-0.1-0.3-0.1c-0.1,0-0.2,0.1-0.3,0.1c0,0-0.1,0-0.1,0c0,0-0.2,0.2-0.3,0.3
					c-0.1,0.1-0.2,0.3-0.2,0.4c0,0.1-0.1,0.1-0.1,0.1c0,0,0,0.1,0,0.1c0,0-0.2,0.1-0.2,0.2c0,0.1,0,0.3,0,0.4c0,0.1,0.1,0.2,0.1,0.2
					c0.1,0,0,0.1,0,0.2c0,0,0,0.1,0,0.1c0,0-0.2,0.1-0.2,0.1c0,0-0.1,0.1-0.1,0.2c0,0-0.2,0.1-0.2,0.1c0,0,0-0.1,0-0.1
					c0-0.1,0-0.1,0-0.2c0,0,0-0.3-0.1-0.3c0-0.1-0.1-0.2-0.2-0.2c0,0,0-0.1,0-0.1c0,0-0.1,0-0.2,0c0,0-0.1,0.3-0.1,0.4
					c0,0.1,0.1,0.2,0.1,0.2c0,0,0,0.1,0,0.1c0,0-0.1,0.2-0.1,0.2c0,0,0,0.1-0.1,0.1c0,0,0.2,0,0.3,0c0.1,0,0.2,0,0.2,0
					c0,0-0.2,0-0.2,0.1c0,0-0.2,0.1-0.2,0.2c0,0,0,0.1,0.1,0.1c0.1,0,0.1,0.2,0.1,0.2c0,0,0,0.1,0,0.2c0,0-0.3,0-0.3,0
					c-0.1,0-0.2,0.2-0.2,0.3c0,0.1,0,0.3,0,0.3c0,0.1,0.2,0.1,0.2,0.1c0,0,0.2,0,0.3,0c0,0,0.2-0.2,0.2-0.3c0-0.1,0.2-0.3,0.3-0.3
					c0-0.1,0.2-0.1,0.3-0.1c0.1,0,0,0.2,0,0.3c0,0.1,0.2,0.1,0.2,0c0-0.1,0-0.1,0-0.1c0,0,0.2,0.1,0.2,0.2c0,0.1,0,0.2,0,0.2
					c0,0,0,0.1,0,0.1c0,0,0.1-0.1,0.2-0.2c0,0,0.1-0.1,0.1-0.1c0,0,0-0.1,0.1-0.1c0,0-0.1-0.2-0.2-0.3c-0.1-0.1,0,0,0.1,0.1
					c0,0,0,0,0.1,0.1c0,0,0,0.1,0.1,0.1c0,0,0,0,0,0c0,0.1,0,0.2,0,0.2c0,0,0.1,0.1,0.1,0.1c0.1,0,0.1,0,0.1,0c0,0,0,0.1,0.1,0.1
					c0,0,0.1-0.1,0-0.1c-0.1,0,0-0.2,0-0.3c0-0.1,0-0.1,0.1-0.1s0,0.2,0,0.2c0,0,0,0.1,0,0.2c0,0,0,0,0.1,0c0.1,0.1,0.1,0.1,0.1,0.1
					c0.2,0,0.4,0,0.4,0c0,0,0.1,0,0.1,0c0-0.1,0,0,0,0c0,0-0.1,0.2-0.1,0.3c0,0.1-0.4,0-0.6,0c-0.2,0-0.4,0-0.4,0.1
					c0,0-0.3-0.1-0.4-0.2c-0.1-0.1-0.2-0.2-0.2-0.3c0,0,0-0.1,0-0.1c0,0-0.3,0-0.4,0c-0.1,0-0.5,0.1-0.6,0.1c-0.1,0-0.2,0-0.3,0
					c0,0-0.2,0.1-0.2,0.1c-0.1,0-0.1,0.2-0.2,0.4c0,0,0,0-0.1,0.1c0,0.1,0,0.1,0,0.1c-0.1,0.1-0.3,0.4-0.3,0.5
					c0,0.1-0.1,0.6-0.1,0.7c0,0.2,0.1,0.5,0.2,0.6c0,0.1,0.3,0.3,0.4,0.4c0.1,0,0.4,0.1,0.4,0.1c0.1,0,0.2-0.1,0.2-0.2
					c0,0,0,0,0.1,0c0.1,0,0.1,0,0.1,0c0,0.1,0.2,0.1,0.2,0.2c0,0,0.2,0,0.2,0c0,0,0.1,0.3,0.1,0.4c0,0.1,0.1,0.4,0.1,0.5
					c0,0.1,0.1,0.4,0.2,0.5c0,0.1-0.1,0.4-0.1,0.6c0,0.1,0.1,0.4,0.2,0.6c0,0.1,0.1,0.4,0.1,0.4c0,0.1,0.2,0.4,0.2,0.5
					C316.3,631.3,316.8,631.4,316.9,631.3z"/>
				<path class="st9" d="M310.2,626c0,0-0.1-0.1-0.1-0.1c0,0-0.1,0.1-0.1,0.1c0,0,0,0.1,0,0C310.1,626,310.2,626.1,310.2,626
					C310.3,626,310.3,626,310.2,626z"/>
				<path class="st9" d="M310,626.3c0,0,0.2,0.1,0.2,0.1c0,0,0.1,0,0.2,0c0.1,0,0-0.2-0.1-0.2c-0.1,0-0.2-0.1-0.2-0.1
					c0,0-0.1-0.1-0.2-0.1c0,0-0.3-0.1-0.4-0.1c-0.1,0-0.2,0.1-0.2,0.1c0,0,0.1,0,0.2,0c0,0,0.2,0,0.3,0.1c0,0,0.1,0.1,0.2,0.1
					C310,626.2,309.9,626.3,310,626.3z"/>
				<path class="st9" d="M310,625.7C310,625.7,309.9,625.7,310,625.7c-0.1,0-0.1,0-0.1,0.1C309.9,625.8,310,625.8,310,625.7z"/>
				<path class="st9" d="M310.5,626.4c0,0,0.1,0,0.2,0c0,0,0-0.1,0-0.1C310.6,626.3,310.5,626.4,310.5,626.4z"/>
				<path class="st9" d="M310,629.6c0.1,0.1,0.2,0.3,0.2,0.4c0,0.1,0,0.2,0,0.3c0,0,0,0.1,0,0.1c0,0-0.1,0.3,0,0.4
					c0,0.1-0.1,0.4-0.1,0.6c0,0.2,0.1,0.4,0.1,0.4c0,0,0,0.2,0,0.2c-0.1,0-0.1,0.2-0.1,0.2c0,0,0,0.1,0,0.2c0,0.1,0.1,0.4,0.1,0.5
					c0,0.1,0.1,0.3,0.2,0.4c0,0.1,0.1,0.2,0.1,0.2c0,0,0,0,0,0c0,0,0.1,0,0.1,0.1c0,0,0.2,0,0.3,0c0.1,0,0-0.1,0-0.1
					c0,0-0.1-0.2-0.1-0.2c0,0,0-0.2,0-0.3c0,0,0.1-0.1,0.2-0.2c0,0,0-0.2,0-0.2c0,0,0-0.2,0-0.3c0-0.1,0.2-0.2,0.2-0.3
					c0-0.1,0.2-0.2,0.3-0.2c0,0,0.1-0.3,0.1-0.3c0-0.1,0.1-0.1,0.1-0.1c0,0,0.1,0,0.1,0c0,0,0.1-0.1,0.1-0.1c0,0,0.1-0.3,0.1-0.3
					c0.1,0,0.1-0.2,0.1-0.2c0,0,0.1-0.2,0.1-0.2c0,0,0.2-0.1,0.3-0.1c0,0,0.1-0.3,0.1-0.5c0-0.1,0.1-0.3,0.1-0.3
					c0,0,0.1-0.1,0.1-0.1c0,0,0.1-0.2,0.1-0.2c0,0,0.1-0.2,0.1-0.2c0,0,0-0.1,0-0.2c0,0,0,0,0-0.1c0-0.1,0-0.1,0-0.1
					c0-0.1-0.1-0.2-0.2-0.2c0,0-0.2-0.1-0.2-0.1c-0.1,0-0.2,0-0.3,0c0,0-0.2-0.1-0.2-0.1c-0.1,0-0.2-0.1-0.3-0.1
					c0,0-0.1-0.3-0.2-0.3c-0.1-0.1-0.4-0.3-0.4-0.3c0-0.1-0.3-0.2-0.4-0.3c-0.1,0-0.2-0.1-0.2,0c0,0-0.1-0.1-0.2-0.2
					c-0.1,0-0.2-0.1-0.2,0c0,0-0.1,0-0.1,0c0,0-0.1,0-0.1,0c0,0-0.2,0.2-0.2,0.2c-0.1,0-0.1,0-0.2-0.1c0,0-0.2,0-0.2,0.1
					c0,0-0.1-0.2-0.1-0.3c0-0.1-0.1-0.3-0.2-0.3c-0.1,0-0.1-0.2-0.1-0.3c0-0.1-0.2-0.1-0.2-0.1c0,0-0.2,0.1-0.2,0.2
					c0,0.1-0.4-0.1-0.4-0.3c0-0.2,0.2-0.5,0.3-0.5c0,0,0.3,0,0.4,0c0.1,0,0.1,0,0.1,0c0,0,0.2,0,0.3,0c0.1,0,0.2,0.3,0.2,0.3
					c0.1,0,0.1-0.2,0.1-0.2c0,0,0-0.2,0-0.2c0,0,0.1-0.3,0.2-0.4c0.1-0.1,0.2-0.2,0.2-0.2c0,0,0.1-0.1,0.1-0.1c0,0,0-0.3,0-0.3
					c0-0.1,0.2-0.2,0.3-0.2c0.1,0,0.1-0.2,0.1-0.2c0,0,0.2-0.2,0.2-0.2c0.1,0,0.2,0.1,0.1,0.1c0,0,0.1-0.1,0.2-0.1
					c0.1,0,0-0.2,0-0.2c0,0,0-0.2,0-0.2c0,0,0.1-0.1,0.1-0.1c0,0,0.2,0,0.3,0c0.1-0.1,0,0.1,0,0.2c-0.1,0.1,0,0.2,0.1,0.1
					c0,0,0.1,0,0.1,0.1c0,0,0.1,0,0.1,0c0.1,0,0.1-0.1,0.1-0.1c0,0-0.1-0.1-0.1-0.2c0-0.1,0-0.4,0-0.4c0-0.1-0.1-0.2-0.1-0.1
					c0,0-0.1-0.2-0.1-0.2c0,0-0.1-0.1-0.1-0.2c0,0-0.2-0.2-0.2-0.3c0-0.1-0.1-0.1-0.1,0c0,0-0.1,0-0.2,0c0,0-0.1-0.2-0.1-0.2
					c0-0.1-0.2-0.1-0.2-0.1c0-0.1-0.2,0-0.2-0.1c0,0-0.1-0.1-0.2-0.1c0,0,0,0.5,0,0.6c0,0.1-0.1,0.2-0.2,0.2c0,0,0,0.1,0,0.1
					c0,0-0.1,0.1-0.1,0.2c0,0.1-0.1,0-0.1-0.1c0-0.1-0.1-0.2-0.1-0.2c0,0-0.1,0-0.1,0c0,0-0.2-0.1-0.3-0.1c-0.1,0-0.1-0.3-0.2-0.3
					c0,0,0,0,0-0.1c0,0,0.1-0.2,0.2-0.2c0-0.1,0.2-0.2,0.3-0.3c0.1,0,0.1-0.2,0.1-0.2c0,0,0.3-0.1,0.3-0.1c0.1,0,0.1-0.2,0.1-0.3
					c0-0.1,0-0.2-0.1-0.2c0,0,0.1,0,0.1,0c0,0,0.2,0,0.2,0c0.1,0,0.2,0.1,0.2,0.1c0,0,0,0,0,0.1c0,0.3,0,0.3,0,0.3
					c-0.2,0.1-0.3,0.2-0.2,0.2c0.1,0,0.4,0.1,0.5,0.2c0.1,0.1,0.1-0.1,0.2-0.2c0-0.1,0-0.2,0-0.2c0,0,0.1,0,0.1,0c0,0,0.1,0,0.1,0
					c0,0,0-0.2,0.1-0.2c0,0-0.1-0.1-0.1-0.1c0,0-0.2-0.1-0.2-0.1c0,0-0.1-0.1,0-0.1c0,0,0-0.2,0-0.2c0,0-0.2-0.1-0.2-0.1
					c-0.1,0-0.1-0.1-0.1-0.1c0,0-0.2,0-0.3,0c-0.1,0-0.1-0.1-0.2-0.1c-0.1,0-0.2-0.1-0.2-0.1c0,0-0.2,0.2-0.2,0.3
					c0,0.2,0.1,0.3,0.1,0.3c0,0,0,0.1,0,0.2c0,0-0.1,0-0.1-0.1c0,0-0.1-0.2-0.1-0.3c0,0-0.1-0.1-0.2-0.1c0,0-0.1,0.1-0.1,0.1
					c0,0.1,0,0.1,0,0.2c0,0.1-0.1,0.1-0.1,0.1c0,0,0,0-0.1,0c-0.2,0.2-0.4,0.5-0.5,0.7c0,0.1-0.1,0.1-0.1,0.2
					c-0.1,0.2-0.2,0.3-0.3,0.5c0,0.1-0.1,0.2-0.1,0.2c-0.1,0.2-0.2,0.4-0.3,0.6c-0.1,0.1-0.1,0.3-0.2,0.4c0,0.1-0.1,0.2-0.1,0.3
					c-0.1,0.2-0.1,0.3-0.2,0.5c0,0,0,0.1,0,0.1c-0.1,0.4-0.2,0.8-0.2,1.2c0,0.1,0.1,0.1,0.1,0.2c0,0.1,0.2,0.1,0.2,0.1
					c0,0,0-0.2,0-0.2c0,0,0-0.1,0,0c0,0,0.1,0.2,0.2,0.2c0,0.1,0.1,0.4,0.1,0.5c0,0.1,0.4,0.2,0.6,0.3c0.1,0,0.3,0.2,0.3,0.2
					c0,0,0.2,0.1,0.2,0.1c0,0,0.1,0.1,0.2,0.2c0,0,0.1,0.1,0.1,0.1c0,0,0.2,0.1,0.3,0.2c0.1,0.1,0.1,0,0.2,0c0,0,0.1,0.1,0.1,0.2
					c0,0.1,0,0.2,0,0.2c0,0-0.1,0.2-0.1,0.3c0,0-0.1,0.4-0.1,0.4c0,0.1,0.1,0.2,0.2,0.2c0,0,0,0.1,0,0.1c0,0,0,0.3,0.1,0.4
					c0.1,0,0.2,0.2,0.1,0.2C309.8,629.4,309.9,629.5,310,629.6z"/>
				<path class="st9" d="M310.2,619.9c0.1,0,0.3,0,0.3-0.1c0,0,0-0.1,0-0.1c0,0,0,0,0.1,0c0,0,0.1-0.2,0.2-0.3
					c0-0.1,0.3-0.1,0.4-0.2c0.1,0,0.2-0.2,0.2-0.2c0.1,0,0.1-0.1,0.1-0.2c0,0,0.2-0.1,0.2-0.2c0.1,0,0.1-0.1,0.1-0.1
					c0,0-0.2,0.1-0.4,0.2c-0.2,0.1-0.5,0.3-0.7,0.4c-0.2,0.2-0.4,0.3-0.6,0.5c-0.1,0.1-0.1,0.1-0.2,0.2
					C310,619.9,310.2,619.9,310.2,619.9z"/>
				<path class="st9" d="M309.7,621.4c0,0,0,0.2,0.1,0.2c0.1,0,0.2-0.2,0.2-0.2c0.1,0,0.1,0.1,0.1,0c0,0-0.2-0.1-0.3-0.1
					C309.9,621.3,309.8,621.3,309.7,621.4z"/>
				<path class="st9" d="M314.4,619.4c0,0,0.1-0.2,0-0.2c0,0,0.1-0.1,0.1-0.1c0,0,0.2-0.1,0.2-0.1c0,0,0.1-0.1,0-0.1
					c-0.1,0-0.2,0-0.2,0c0,0-0.2,0-0.3,0c-0.1,0,0-0.1,0.1-0.2c0.1,0,0-0.1-0.1-0.1c-0.1,0-0.3,0-0.4,0c-0.1,0-0.2,0-0.2,0
					c0,0-0.3,0.1-0.4,0.1c-0.1,0-0.4,0-0.5,0c-0.1,0-0.1,0.1-0.1,0.2c0,0-0.3,0-0.4,0c-0.1,0-0.6,0.1-0.7,0.2
					c-0.1,0.1-0.2,0.3-0.2,0.3c0,0-0.1,0.1-0.1,0.1c-0.1,0-0.2,0-0.3,0.1c0,0,0,0.1,0.1,0.1c0,0,0.1,0,0.1,0c0,0,0.2,0,0.2,0.1
					c0,0-0.1,0-0.2,0.1c-0.1,0-0.1,0.2,0,0.2c0.1,0,0.2,0,0.2,0c0,0,0.2,0,0.3,0c0.1,0,0.1,0.2,0.2,0.3c0,0,0,0.2,0,0.2
					c0,0,0.1,0.1,0.2,0.1c0,0,0,0.1,0,0.1c-0.1,0,0,0.2,0.1,0.2c0.1,0,0,0.1,0,0.2c0,0,0,0.1-0.1,0.2c0,0,0.2,0.4,0.1,0.5
					c0,0.2,0.1,0.3,0.1,0.3c0,0,0.2,0,0.2,0.1c0,0,0.1,0,0.1-0.1c0,0,0.1-0.1,0.1-0.2c0-0.1,0.1-0.4,0.2-0.5c0,0,0.2,0,0.2,0
					c0,0,0.1-0.1,0.2-0.1c0,0,0.3-0.1,0.3-0.2c0.1,0,0.2-0.2,0.2-0.3c0,0,0,0-0.1-0.1c-0.1,0,0-0.1,0-0.1c0,0,0.2,0,0.3,0.1
					c0.1,0,0.2-0.1,0.1-0.1c0,0,0,0,0,0c0,0,0-0.1,0-0.1c0,0,0.2-0.2,0.2-0.3c0-0.1,0.1-0.3,0.1-0.3
					C314.5,619.6,314.5,619.4,314.4,619.4C314.3,619.4,314.4,619.4,314.4,619.4z"/>
				<path class="st9" d="M309.7,625.7C309.7,625.7,309.7,625.8,309.7,625.7c-0.1,0.1,0,0.1,0,0.1
					C309.7,625.8,309.8,625.7,309.7,625.7z"/>
				<path class="st9" d="M321,627.2c0,0.1,0.2,0.2,0.2,0.2c0,0,0-0.2-0.1-0.2C321.1,627.1,321,627.2,321,627.2z"/>
				<path class="st9" d="M324.5,627.1c0,0,0.1-0.1,0.2-0.1c0.1,0,0.1-0.2,0.1-0.2c-0.1,0-0.1-0.2-0.2-0.2c0,0-0.1,0.1-0.1,0.1
					c0,0.1-0.1,0.1-0.1,0.1c0,0,0,0.1,0,0.1C324.3,627,324.4,627.1,324.5,627.1z"/>
				<path class="st9" d="M322.9,628.2c0-0.1-0.2-0.2-0.3-0.3c0,0,0,0,0-0.1c0-0.1,0-0.1,0-0.1c0-0.1-0.2-0.2-0.2-0.2
					c0,0-0.1,0.1-0.1,0c0,0,0.1,0.1,0.1,0.1c0.1,0.1,0.4,0.7,0.4,0.7C322.9,628.5,322.9,628.3,322.9,628.2z"/>
				<path class="st9" d="M325,629.1c-0.1,0-0.3,0.1-0.3,0.1c0,0-0.2,0.1-0.2,0.1c-0.1,0-0.2,0.2-0.2,0.2c0,0.1-0.2,0-0.2,0.1
					c0,0-0.2,0.1-0.2,0.2c0,0,0,0-0.1,0c0,0,0,0-0.1,0.1c-0.1,0.1-0.1,0.1-0.1,0.1c0,0.1-0.2,0.3-0.2,0.3c-0.1,0-0.1,0.3-0.1,0.4
					c0,0.1,0,0.2,0.1,0.3c0,0,0,0,0,0.1c0,0.2,0,0.2,0,0.2c0,0.1,0.1,0.2,0.1,0.3c0,0,0.3,0,0.3-0.1c0,0,0,0,0.1,0
					C324.4,630.6,324.7,629.9,325,629.1C325,629.1,325,629.1,325,629.1z"/>
				<path class="st9" d="M318.2,630.4c0,0.1,0.2,0.1,0.2,0.1c0,0,0.2-0.2,0.2-0.3c0-0.1,0-0.2,0-0.2c0,0,0-0.1,0-0.1
					c0,0,0-0.1,0.1-0.2c0-0.1-0.1-0.5-0.1-0.5c0-0.1-0.1,0-0.1,0.1c0,0.1-0.2,0.2-0.2,0.3c0,0.1-0.1,0.2-0.1,0.3c0,0,0,0.2,0,0.2
					C318.2,630.1,318.2,630.4,318.2,630.4z"/>
				<path class="st9" d="M324.2,627.9c-0.1,0-0.3,0.2-0.2,0.4c0,0.1,0.1,0.1,0.1,0.1c0,0,0.1,0,0.2,0c0,0,0,0,0-0.1
					c0-0.1,0-0.2,0-0.2C324.4,628.1,324.3,627.9,324.2,627.9z"/>
				<path class="st9" d="M324.3,626.4c0-0.1,0-0.1-0.1-0.1c-0.1,0-0.1,0.2,0,0.3C324.2,626.6,324.2,626.4,324.3,626.4z"/>
				<path class="st9" d="M323.9,627.9c0-0.1,0-0.3,0-0.3c0,0-0.1-0.2-0.2-0.2c-0.1,0-0.2,0.4-0.4,0.5c-0.1,0.1-0.2,0.3-0.1,0.4
					c0,0.1,0.3,0.1,0.4,0.1c0,0,0.1,0,0.1,0c0,0,0,0,0,0c0,0,0.1-0.1,0.1-0.2C323.9,628.1,323.9,628,323.9,627.9z"/>
				<path class="st9" d="M323.9,625.7c0,0,0,0.2,0,0.2c0,0,0.1,0,0.1,0C324.1,625.9,324,625.7,323.9,625.7z"/>
				<path class="st9" d="M323,628.7c0,0,0.4,0.1,0.5,0.1c0.1,0,0.2,0,0.2,0c0,0-0.4-0.2-0.5-0.2C323.1,628.6,323,628.6,323,628.7z"
					/>
			</g>
		</g>
	</g>
</g>
<radialGradient id="SVGID_1_" cx="386.9245" cy="690.1292" r="0" gradientUnits="userSpaceOnUse">
	<stop  offset="0" style="stop-color:#AE2226"/>
	<stop  offset="0.3165" style="stop-color:#AA2327"/>
	<stop  offset="0.6443" style="stop-color:#9D2529"/>
	<stop  offset="0.9762" style="stop-color:#89282C"/>
	<stop  offset="1" style="stop-color:#87282C"/>
</radialGradient>
<path class="st10" d="M386.9,690.1"/>
<radialGradient id="SVGID_2_" cx="179.8639" cy="690.1292" r="0" gradientUnits="userSpaceOnUse">
	<stop  offset="0" style="stop-color:#AE2226"/>
	<stop  offset="0.3165" style="stop-color:#AA2327"/>
	<stop  offset="0.6443" style="stop-color:#9D2529"/>
	<stop  offset="0.9762" style="stop-color:#89282C"/>
	<stop  offset="1" style="stop-color:#87282C"/>
</radialGradient>
<path class="st11" d="M179.9,690.1"/>
<path class="st1" d="M184.9,690.1c4.9,13,12.6,24.3,23.8,32.7c2.6,1.9,5.7,2.9,8.9,2.9c11.7,0,25.5,0.1,33.3,0.1c5,0,9.5-3,11.4-7.7
	c2.1-5.3,4.1-14.1,4.2-28.1c-0.1,0-0.1,0-0.2,0C223.2,697.9,185.4,690.2,184.9,690.1z"/>
<path class="st1" d="M383.5,690.1c-4.9,13-12.6,24.3-23.8,32.7c-2.6,1.9-5.7,2.9-8.9,2.9c-11.7,0-25.5,0.1-33.3,0.1
	c-5,0-9.5-3-11.4-7.7c-2.1-5.3-4.1-14.1-4.2-28.1c0.1,0,0.1,0,0.2,0C345.1,697.9,383,690.2,383.5,690.1z"/>
<g>
	<path class="st12" d="M199.2,322.4c0,0-14.5-3-21.4,9.2C185.3,327.3,188.5,324.6,199.2,322.4z"/>
	<path class="st12" d="M369.7,322.4c0,0,14.5-3,21.4,9.2C383.6,327.3,380.4,324.6,369.7,322.4z"/>
</g>
<g>
	<g>
		<path class="st0" d="M357,496.5c0,0,6.7,66.4-60.2,87.5c-11.4,5.7-17.4,12.6-13.2,28.8s12.5,28.4,59.7,4.7
			C390.4,594,404.8,540.7,357,496.5z"/>
		<g class="st1">
			<path d="M360,499.5c27.4,38.7,15.4,83.7-23,103.1c-41,20.6-50.4,12-54.6-1.6c-0.4,3.3-0.1,7.2,1.1,11.9
				c4.2,16.2,12.5,28.4,59.7,4.7C389.4,594.5,404.1,543,360,499.5z"/>
		</g>
	</g>
	<g>
		<g>
			<path class="st2" d="M283.8,606.5c0.7-3.2,1.7-6.4,3.3-9.4c0.4-0.7,0.8-1.5,1.4-2.2c0.5-0.7,1.2-1.3,2.1-1.7
				c0.4-0.2,1-0.3,1.5-0.2c0.5,0.1,1,0.3,1.3,0.6l0.5,0.4c0.1,0.1,0.3,0.2,0.5,0.3c0.2,0.1,0.3,0.2,0.5,0.2c0.2,0.1,0.3,0.1,0.5,0.2
				c1.5,0.4,3.1,0.3,4.7,0c1.6-0.2,3.2-0.7,4.8-1.1l4.8-1.4c0.8-0.2,1.6-0.4,2.4-0.5c0.8-0.1,1.7-0.2,2.5,0.2
				c-0.4-0.2-0.8-0.2-1.2-0.1c-0.4,0-0.8,0.1-1.2,0.2c-0.8,0.2-1.6,0.5-2.4,0.7l-4.7,1.6c-1.6,0.5-3.2,1-4.8,1.3
				c-1.7,0.3-3.4,0.4-5.1,0c-0.2-0.1-0.4-0.1-0.6-0.2c-0.2-0.1-0.4-0.2-0.6-0.3c-0.2-0.1-0.4-0.2-0.6-0.4l-0.5-0.4
				c-0.3-0.2-0.6-0.4-0.9-0.4c-0.3,0-0.6,0-1,0.1c-0.6,0.2-1.2,0.8-1.7,1.4c-0.5,0.6-1,1.3-1.4,2c-0.8,1.4-1.5,2.9-2.2,4.4
				C284.9,603.4,284.4,604.9,283.8,606.5z"/>
		</g>
	</g>
</g>
<g>
	<g>
		<path class="st0" d="M211.2,496.5c0,0-6.7,66.4,60.2,87.5c11.4,5.7,17.4,12.6,13.2,28.8c-4.2,16.2-12.5,28.4-59.7,4.7
			C177.8,594,163.4,540.7,211.2,496.5z"/>
		<g class="st1">
			<path d="M208.1,499.5c-27.4,38.7-15.4,83.7,23,103.1c41,20.6,50.4,12,54.6-1.6c0.4,3.3,0.1,7.2-1.1,11.9
				c-4.2,16.2-12.5,28.4-59.7,4.7C178.8,594.5,164.1,543,208.1,499.5z"/>
		</g>
	</g>
	<g>
		<g>
			<path class="st2" d="M284.4,606.5c-0.6-1.6-1.1-3.1-1.8-4.6c-0.6-1.5-1.3-3-2.2-4.4c-0.4-0.7-0.9-1.4-1.4-2
				c-0.5-0.6-1.1-1.2-1.7-1.4c-0.3-0.1-0.6-0.1-1-0.1c-0.3,0.1-0.6,0.2-0.9,0.4l-0.5,0.4c-0.2,0.1-0.4,0.3-0.6,0.4
				c-0.2,0.1-0.4,0.2-0.6,0.3c-0.2,0.1-0.4,0.2-0.6,0.2c-1.7,0.5-3.5,0.3-5.1,0c-1.7-0.3-3.3-0.8-4.8-1.3l-4.7-1.6
				c-0.8-0.3-1.6-0.5-2.4-0.7c-0.4-0.1-0.8-0.2-1.2-0.2c-0.4,0-0.8-0.1-1.2,0.1c0.7-0.4,1.7-0.3,2.5-0.2c0.8,0.1,1.6,0.3,2.4,0.5
				l4.8,1.4c1.6,0.4,3.2,0.9,4.8,1.1c1.6,0.3,3.2,0.4,4.7,0c0.2,0,0.4-0.1,0.5-0.2c0.2-0.1,0.3-0.1,0.5-0.2c0.2-0.1,0.3-0.2,0.5-0.3
				l0.5-0.4c0.4-0.3,0.8-0.5,1.3-0.6c0.5-0.1,1,0,1.5,0.2c0.9,0.4,1.5,1.1,2.1,1.7c0.5,0.7,1,1.4,1.4,2.2
				C282.6,600.1,283.6,603.3,284.4,606.5z"/>
		</g>
	</g>
</g>
<path class="st13" d="M291.9,457.8c0,0,19.2,7.5,30.8-9.1"/>
</svg>
