<?xml version="1.0" encoding="utf-8"?>
<!-- Generator: Adobe Illustrator 22.1.0, SVG Export Plug-In . SVG Version: 6.00 Build 0)  -->
<svg version="1.1" id="Layer_1" xmlns="http://www.w3.org/2000/svg" xmlns:xlink="http://www.w3.org/1999/xlink" x="0px" y="0px"
	 viewBox="0 0 600 600" style="enable-background:new 0 0 600 600;" xml:space="preserve">
<style type="text/css">
	.st0{fill:url(#SVGID_1_);}
	.st1{fill-rule:evenodd;clip-rule:evenodd;fill:#AE2226;}
	.st2{fill-rule:evenodd;clip-rule:evenodd;fill:#214080;}
	.st3{fill:#AE2226;}
	.st4{opacity:5.000000e-02;}
	.st5{fill:#214080;}
	.st6{fill:#FFF3EB;}
	.st7{clip-path:url(#SVGID_3_);}
	.st8{opacity:5.000000e-02;fill:#CE2029;}
	.st9{fill-rule:evenodd;clip-rule:evenodd;}
	.st10{fill:#F2E4D9;stroke:#CE2029;stroke-width:2.5805;stroke-linecap:round;stroke-linejoin:round;stroke-miterlimit:10;}
	.st11{fill:#FFFFFF;stroke:#000000;stroke-miterlimit:10;}
</style>
<g>
	<g>
		<radialGradient id="SVGID_1_" cx="209.6812" cy="357.8067" r="153.7753" gradientUnits="userSpaceOnUse">
			<stop  offset="0" style="stop-color:#AE2226"/>
			<stop  offset="0.3165" style="stop-color:#AA2327"/>
			<stop  offset="0.6443" style="stop-color:#9D2529"/>
			<stop  offset="0.9762" style="stop-color:#89282C"/>
			<stop  offset="1" style="stop-color:#87282C"/>
		</radialGradient>
		<path class="st0" d="M160.4,388.9c-2.1,17.4,13.8,71.1,23.9,109.1s97.4-3.9,125.1-30.8c27.7-26.8,65-80,61.1-102.5
			c-3.9-22.5-48.6-7.6-80.5-24.5c-31.9-17-51.7-2.1-51.7-2.1L160.4,388.9z"/>
		<g>
			<g>
				<path class="st1" d="M146.6,1.2C95.9-14.9,62.3,140.9,98.5,152.4C134.7,163.9,197.2,17.3,146.6,1.2z"/>
				<path class="st2" d="M139,25.8c-32.3-10.3-58.1,109.8-35,117.1C127,150.2,171.3,36,139,25.8z"/>
			</g>
			<g>
				<path class="st1" d="M265.5,48.6c11,12.8,11.6,30.4,7.9,35c-29.5,37.6-93.7,71.2-110.1,52c-17.2-20.1,31.4-82.8,74.4-104
					C246.7,27.2,254.5,35.8,265.5,48.6z"/>
				<path class="st2" d="M264.2,49c22,25.8-78.5,96.3-94.3,77.9C154.2,108.5,242.1,23.2,264.2,49z"/>
				<path class="st1" d="M275.7,81.4c-2.2,23.6-14.3,59.1-33.1,55.9c-37.9-6.4-40.8-82.6-6-105C255.7,20,277.8,57.8,275.7,81.4z"/>
				<path class="st1" d="M275.7,81.4c-2.2,23.6-14.3,59.1-33.1,55.9c-37.9-6.4-40.8-82.6-6-105C255.7,20,277.8,57.8,275.7,81.4z"/>
			</g>
		</g>
		<g>
			<g>
				<path class="st3" d="M165.2,388.7c-0.6-4.1-3.9-7.3-8-7.9c-20.7-2.7-81-8.9-96.6,8.4c-18.9,20.9-8.2,41.1,10.2,35.1
					c14.5-4.8,66.2-17.4,87.2-22.4c5-1.2,8.3-6.1,7.6-11.2L165.2,388.7z"/>
				<path class="st4" d="M60.6,389.3c15.7-17.4,76.6-11,97-8.4c3.9,0.5,7,3.6,7.6,7.5l0.1,0.9c-27.1-2.2-99.7-7.1-104.5,23.3
					c-0.9,5.8,0.4,10,2.8,12.8C50,424.8,44.2,407.3,60.6,389.3z"/>
			</g>
			<g>
				<path class="st5" d="M54.2,420.1c2.3,0.6,4.6,1.4,6.8,1.9c0.5,0.1,1.1,0.2,1.5,0.2c0.5,0,0.9,0,1.1-0.1c0.1-0.1,0,0,0.1-0.3
					l0.1-0.4c0-0.2,0.1-0.4,0.1-0.6c0.1-0.4,0.3-0.8,0.5-1.1c0.8-1.4,2-2.2,3-2.9c1.1-0.7,2.2-1.2,3.4-1.6c1.1-0.4,2.3-0.8,3.4-1.2
					c0.6-0.2,1.1-0.3,1.7-0.5c0.3-0.1,0.5-0.2,0.8-0.3c0.3-0.1,0.5-0.3,0.7-0.5c0,0.7-0.6,1.2-1,1.6c-0.5,0.4-1,0.8-1.4,1.2
					c-1,0.7-2,1.3-3,1.9c-1,0.6-2,1.2-2.8,1.9c-0.9,0.6-1.7,1.3-2,2c-0.1,0.2-0.2,0.3-0.2,0.5c0,0.1-0.1,0.2-0.1,0.2l0,0.1l-0.1,0.3
					c-0.1,0.4-0.3,1-0.6,1.4c-0.4,0.4-0.9,0.8-1.4,1c-1,0.3-1.7,0.2-2.4,0.1c-0.7-0.1-1.3-0.3-1.9-0.6
					C57.9,423.3,55.9,421.9,54.2,420.1z"/>
			</g>
		</g>
		<path class="st5" d="M164.3,387.6c0,0,12,11.1,44-5.1s62.1-47.1,60.3-60.5C266.9,308.7,164.3,387.6,164.3,387.6z"/>
		<g>
			<g>
				<g>
					<path class="st5" d="M197.2,397.4c2.8,8-1.6,16.7-9.8,19.5c-8.1,2.8-17-1.3-19.7-9.3c-2.8-8,1.6-16.7,9.8-19.5
						C185.6,385.3,194.4,389.5,197.2,397.4z"/>
				</g>
				<g>
					<path class="st6" d="M196,394.7c-0.1-0.2-0.2-0.3-0.3-0.5c0,0-0.1,0.1-0.1,0.1c-0.1,0.1-0.3,0.4-0.4,0.5c-0.1,0.1,0,0.2,0,0.3
						c0,0,0,0,0,0c-0.1,0,0,0.2,0.1,0.3c0.1,0,0.1-0.2,0.2-0.3c0.1-0.1,0.2-0.2,0.2-0.2C195.7,394.9,195.8,394.8,196,394.7
						C196,394.7,196,394.7,196,394.7z"/>
					<path class="st6" d="M171.9,405.8c0,0,0.2-0.1,0.3-0.1c0.1,0,0-0.1,0-0.1C172,405.7,171.8,405.8,171.9,405.8z"/>
					<path class="st6" d="M186.2,409.5c0.2-0.2,0.3-0.8,0.4-0.9c0.1-0.1,0-0.5,0-0.6c0-0.1,0.1-0.3,0.2-0.3c0.1,0,0-0.9,0.1-1.1
						c0.1-0.2,0-1.1-0.1-1.4c-0.1-0.3-0.2-0.9-0.2-1c0-0.1,0.1-0.5,0.2-0.5c0-0.1,0.3-0.8,0.3-1.1c0.1-0.3,0-0.8,0-0.9
						c-0.1-0.1-0.4-0.1-0.4,0c0,0.1-0.3,0.2-0.4,0.2c-0.1,0-0.4-0.3-0.6-0.4c-0.2,0-0.4-0.5-0.5-0.6c-0.1-0.1-0.4-0.2-0.5-0.3
						c-0.1,0-0.2-0.3-0.2-0.4c0-0.1,0.1,0,0.2,0.1c0.1,0.1,0.5,0.4,0.7,0.5c0.1,0.1,0.6,0.5,0.7,0.6c0.1,0.1,0.7-0.1,0.8-0.3
						c0.2-0.2,0.3-0.4,0.3-0.4c0-0.1,0.2-0.3,0.3-0.4c0.1-0.1,0-0.5,0.1-0.5c0-0.1-0.2-0.4-0.3-0.4c-0.1-0.1-0.4,0-0.5,0
						c0,0.1-0.3-0.1-0.3-0.2c-0.1-0.1-0.3-0.1-0.4-0.2c0-0.1,0-0.2,0-0.2c0,0,0.5,0.1,0.7,0.2c0.2,0.1,0.4,0.3,0.4,0.4
						c0,0,0.4-0.1,0.4-0.1c0.1-0.1,0.1-0.1,0.2,0c0,0,0,0,0.1-0.1c0.3-0.2,0.3-0.2,0.3-0.2c0.2,0.1,0.3,0.3,0.3,0.3
						c0,0,0.2,0.1,0.2,0.1c0.1,0,0.2,0.2,0.2,0.3c0,0,0.4,0.3,0.5,0.5c0.1,0.1,0.4,0.4,0.4,0.4c0.1,0.1,0.2,0.3,0.2,0.3
						c0,0.1,0.2,0.1,0.3,0.1c0.1,0,0.1-0.6,0-0.8c0-0.2,0.1-0.4,0.1-0.4c0,0,0-0.1,0-0.2c0,0,0.2-0.1,0.2-0.2c0-0.1-0.1-0.4,0-0.5
						c0.1-0.1,0.3-0.3,0.3-0.4c0.1-0.1,0.4,0.1,0.5,0.1c0.1,0.1,0.2,0.3,0.2,0.3c0,0,0.2,0.2,0.3,0.2c0.1,0,0.2,0.1,0.2,0.2
						c0,0.1,0.2,0.2,0.3,0.2c0.1,0.1,0.1,0.3,0.1,0.3c0,0.1,0.1,0.3,0.2,0.4c0,0.1,0.6,0.3,0.8,0.4c0.2,0.1,0.1-0.3,0-0.4
						c-0.1-0.1-0.5-0.3-0.5-0.3c-0.1-0.1-0.2-0.4-0.2-0.5c0-0.1,0.2,0,0.3,0c0.1,0,0.3,0.1,0.3,0.2c0,0,0.4-0.4,0.4-0.7
						c-0.1-0.3,0-0.7,0-0.8c0-0.1-0.1-0.2-0.2-0.2c0,0,0-0.3,0.1-0.3c0.1,0,0.4-0.6,0.4-0.7c0-0.2,0.2-0.4,0.2-0.4c0,0,0-0.4,0-0.6
						c0-0.2-0.2-0.4-0.3-0.4c0-0.1-0.2-0.2-0.3-0.2c-0.1,0-0.2-0.2-0.1-0.3c0,0,0.1-0.1,0.1-0.2c0,0,0.1-0.2,0.1-0.3
						c0-0.1,0.1,0.1,0.2,0.1c0.1,0,0.3,0.4,0.4,0.4c0.1,0,0.3-0.5,0.2-0.8c-0.1-0.3-0.1-0.7,0-0.7c0,0,0.1-0.2,0.2-0.4
						c-1.5-1.9-3.5-3.4-5.7-4.4c0,0,0,0,0,0c-0.2,0-0.4-0.1-0.4-0.2c-0.2-0.1-0.4-0.2-0.7-0.3c-0.1,0-0.1,0-0.1,0
						c-0.1,0-0.4,0-0.5,0c-0.1,0-0.2,0.1-0.2,0.2c0,0.1-0.3,0.2-0.3,0.3c0,0.1-0.2,0.1-0.2,0.1c0,0-0.3,0.2-0.4,0.3
						c-0.1,0.1-0.3,0.3-0.4,0.3c-0.1,0-0.1,0.2-0.1,0.3c0,0.1-0.1,0.2-0.2,0.3c0,0,0,0.3,0.1,0.3c0.1,0-0.1,0-0.2,0
						c-0.1,0-0.2,0.2-0.2,0.2c0,0.1-0.1,0-0.1-0.1c0-0.1-0.3-0.1-0.3,0c0,0.1-0.2,0-0.3,0c-0.1,0-0.3,0.4-0.3,0.5
						c-0.1,0.1-0.5,0.4-0.6,0.4c-0.1,0-0.1,0.3,0,0.3c0.1,0-0.2,0.1-0.4,0.1c-0.1,0.1-0.5,0.4-0.6,0.5c-0.1,0.1-0.2,0.1-0.2,0
						c0-0.1-0.2-0.1-0.3-0.1c-0.1,0,0,0.4-0.1,0.5c-0.1,0.1-0.3-0.2-0.5-0.2c-0.2,0-0.6-0.1-0.7-0.1c-0.1,0-0.4-0.1-0.4-0.2
						c-0.1,0-0.4,0-0.4,0c-0.1,0-0.3,0.3-0.4,0.4c-0.1,0.1-0.2,0.1-0.2,0.1c0,0-0.2,0.4-0.3,0.6c-0.1,0.1-0.2,0.6-0.2,0.7
						c0,0.1-0.1,0.2-0.2,0.2c0,0,0,0.1,0,0.2c0,0-0.3,0.3-0.3,0.5c0,0.2,0.2,0.5,0.3,0.6c0,0.1,0.3,0.3,0.4,0.3
						c0.1,0,0.1,0.2,0.1,0.3c0,0.1,0.1,0.1,0.1,0.2c0,0.1-0.2,0.2-0.3,0.3c-0.1,0.1-0.1,0.3-0.1,0.3c0,0.1-0.2,0.2-0.3,0.3
						c0-0.1,0-0.1,0-0.2c0-0.1-0.1-0.2-0.1-0.2c0,0-0.2-0.4-0.3-0.5c-0.1-0.1-0.3-0.2-0.3-0.2c0,0,0-0.1,0-0.2c0-0.1-0.2,0-0.3,0.1
						c0,0.1,0.1,0.5,0.1,0.6c0,0.1,0.2,0.3,0.2,0.2c0,0,0.1,0.2,0,0.2c-0.1,0,0,0.4,0,0.4c0.1,0.1,0,0.2,0,0.3c0,0,0.3-0.1,0.5-0.1
						c0.2-0.1,0.3,0,0.3,0c0,0-0.3,0.2-0.3,0.2c0,0.1-0.2,0.3-0.2,0.3c0,0.1,0.1,0.1,0.2,0.1c0.1,0,0.3,0.2,0.4,0.2
						c0.1,0,0.1,0.2,0.1,0.2c0,0-0.4,0.1-0.6,0.2c-0.1,0.1-0.2,0.5-0.2,0.6c0,0.1,0.2,0.4,0.2,0.5c0,0.1,0.4,0,0.5,0.1
						c0.1,0,0.4-0.1,0.4-0.1c0.1,0,0.2-0.4,0.1-0.5c0-0.2,0.2-0.5,0.2-0.7c0-0.1,0.4-0.2,0.4-0.3c0.1-0.1,0.1,0.2,0.2,0.4
						c0.1,0.2,0.4,0,0.3-0.1c-0.1-0.1,0-0.2,0-0.2c0,0.1,0.4,0.1,0.5,0.1c0.1,0.1,0.1,0.3,0.1,0.3c-0.1,0,0,0.2,0.1,0.2
						c0.1,0,0.1-0.3,0.2-0.4c0.1-0.1,0.1-0.2,0-0.2c0,0,0-0.2,0.1-0.1c0.1,0-0.3-0.3-0.5-0.3c-0.2-0.1-0.1-0.1,0.3,0.1
						c0,0,0,0,0.3,0.2c0,0,0.1,0.1,0.2,0.2c0.1,0.1,0.1,0.1,0.1,0.1c0.1,0.1,0.2,0.3,0.2,0.3c0,0.1,0.2,0.1,0.3,0.1
						c0.1,0,0.2,0,0.1,0c0,0,0.1,0.1,0.2,0.1c0.1,0,0-0.2,0-0.2c-0.1,0-0.2-0.3-0.2-0.4c-0.1-0.1,0-0.3,0-0.3s0.1,0.3,0.1,0.3
						c0,0.1,0.1,0.2,0.2,0.2c0,0,0,0,0.1,0c0.2,0.1,0.2,0.1,0.2,0.1c0.2-0.2,0.6-0.2,0.6-0.2c0,0.1,0.2,0,0.2-0.1c0-0.1,0,0,0,0.1
						c0,0.1-0.1,0.4-0.1,0.5c0,0.1-0.6,0.3-0.9,0.3c-0.3,0.1-0.6,0.3-0.6,0.4c0,0.1-0.5,0-0.7,0c-0.2,0-0.5-0.2-0.5-0.3
						c-0.1,0,0-0.1,0-0.2c0-0.1-0.5,0.1-0.6,0.2c-0.1,0.1-0.7,0.4-0.9,0.5c-0.1,0.1-0.4,0.1-0.5,0.1c-0.1,0-0.2,0.3-0.3,0.3
						c-0.1,0.1-0.1,0.4,0,0.7c0,0,0,0,0,0.3c0,0.2,0,0.2,0,0.2c-0.2,0.2-0.2,0.9-0.2,1c0,0.1,0.2,0.9,0.3,1.2
						c0.1,0.3,0.5,0.7,0.6,0.9c0.1,0.1,0.6,0.3,0.8,0.4c0.2,0,0.6-0.1,0.7-0.2c0.1,0,0.3-0.2,0.3-0.4c0,0,0,0,0.2-0.1
						c0.1,0,0.1,0,0.1,0c0,0.1,0.4,0.1,0.5,0.1c0.1,0,0.3-0.1,0.3-0.1c0.1,0,0.3,0.5,0.3,0.6c0,0.2,0.3,0.7,0.4,0.8
						c0.1,0.1,0.4,0.5,0.5,0.7c0.1,0.2,0.1,0.7,0.2,0.9c0,0.2,0.5,0.6,0.6,0.8c0.1,0.2,0.3,0.5,0.3,0.6c0,0.1,0.5,0.5,0.6,0.7
						C185.3,409.8,186.1,409.7,186.2,409.5z"/>
					<path class="st6" d="M172.6,404.8c-0.1,0-0.2-0.1-0.3-0.1c-0.1,0-0.1,0.1-0.1,0.2c0,0,0.1,0.1,0.1,0c0,0,0.1,0.1,0.2,0
						C172.7,404.9,172.6,404.8,172.6,404.8z"/>
					<path class="st6" d="M172.3,405.5c0,0,0.3,0,0.4,0c0.1,0,0.1-0.1,0.3-0.2c0.1,0-0.1-0.3-0.3-0.3c-0.2,0.1-0.3,0-0.4,0
						c0,0-0.3-0.1-0.3-0.1c-0.1,0-0.5,0.1-0.6,0.1c-0.1,0-0.2,0.2-0.3,0.3c0,0.1,0.3,0,0.3-0.1c0.1-0.1,0.4-0.1,0.5,0
						c0.1,0.1,0.3,0.1,0.3,0C172.3,405.3,172.3,405.5,172.3,405.5z"/>
					<path class="st6" d="M172.1,404.6c0,0-0.1,0-0.2,0c0,0,0,0.1,0,0.2C172,404.8,172.1,404.6,172.1,404.6z"/>
					<path class="st6" d="M173.2,405.3c0,0,0.2,0,0.2-0.1c0-0.1,0-0.1-0.1-0.1C173.3,405.1,173.2,405.3,173.2,405.3z"/>
					<path class="st6" d="M174.2,410.6c0.1,0.1,0.5,0.4,0.6,0.5c0.1,0.1,0.1,0.4,0.2,0.4c0,0.1,0.1,0.2,0.1,0.2c0,0,0.1,0.5,0.2,0.7
						c0.1,0.2,0,0.8,0.1,1c0.1,0.3,0.3,0.6,0.4,0.5c0,0,0.2,0.2,0.1,0.3c-0.1,0.1-0.1,0.3,0,0.3c0.1,0,0.1,0.2,0.1,0.3
						c0,0.1,0.3,0.6,0.4,0.7c0.1,0.1,0.4,0.4,0.5,0.5c0.1,0.1,0.2,0.3,0.2,0.3c0,0,0.1,0.1,0.1,0.1c0,0,0.2,0,0.2,0
						c0.1,0,0.4-0.1,0.5-0.2c0.1-0.1,0-0.1-0.1-0.1c-0.1,0-0.2-0.3-0.3-0.3c-0.1,0-0.2-0.3-0.2-0.4c0-0.1,0.2-0.3,0.2-0.3
						c0-0.1-0.1-0.3-0.2-0.4c-0.1,0-0.1-0.4-0.2-0.5c-0.1-0.1,0.2-0.4,0.2-0.5c0-0.1,0.3-0.4,0.3-0.5c0.1-0.1,0-0.5-0.1-0.6
						c-0.1-0.1,0.1-0.2,0.2-0.2c0.1,0,0.1-0.1,0.2-0.1c0,0,0.1-0.2,0.1-0.3c0-0.1,0-0.5,0.1-0.6c0.1-0.1,0.1-0.4,0-0.4
						c0-0.1,0-0.3,0.1-0.4c0-0.1,0.3-0.3,0.4-0.4c0.1,0,0-0.6-0.1-0.8c0-0.2,0-0.5,0-0.5c0-0.1,0.1-0.2,0.1-0.2c0,0,0-0.3,0-0.4
						c0-0.1,0.1-0.4,0.1-0.4c0-0.1,0-0.2,0-0.3c0,0,0,0,0-0.1c-0.1-0.2-0.1-0.2-0.1-0.2c-0.1-0.1-0.4-0.3-0.4-0.2
						c0,0.1-0.3-0.1-0.4-0.1c-0.1,0-0.4,0.1-0.5,0.1c-0.1,0-0.4-0.1-0.5-0.1c-0.1,0-0.4,0-0.5,0c-0.1,0-0.3-0.4-0.5-0.4
						c-0.3-0.1-0.7-0.2-0.8-0.3c-0.1-0.1-0.6-0.2-0.7-0.2c-0.1,0-0.3,0-0.4,0.1c0,0-0.3-0.1-0.4-0.2c-0.1,0-0.4,0-0.4,0.1
						c0,0.1-0.2,0.1-0.2,0.1c-0.1,0-0.2,0.1-0.2,0.1c-0.1,0-0.1,0.4-0.2,0.5c-0.1,0.1-0.2,0-0.3,0c-0.1,0-0.3,0.1-0.3,0.2
						c0,0.1-0.3-0.2-0.3-0.4c0-0.2-0.3-0.4-0.5-0.4c-0.1,0-0.3-0.3-0.3-0.4c0-0.1-0.3-0.1-0.4-0.1c-0.1,0-0.2,0.3-0.2,0.4
						c0,0.1-0.7,0.1-0.8-0.3c-0.1-0.4,0.1-0.9,0.2-1c0.1-0.1,0.5-0.2,0.6-0.2c0.1,0,0.2-0.1,0.2-0.1c0,0,0.4-0.1,0.5-0.1
						c0.1,0,0.4,0.3,0.5,0.4c0.1,0,0.1-0.3,0.1-0.4c0-0.1-0.1-0.2-0.2-0.3c0,0,0-0.6,0.1-0.7c0.1-0.1,0.2-0.5,0.2-0.5
						c0,0,0.1-0.1,0.1-0.2c0,0-0.1-0.4-0.1-0.5c0-0.1,0.3-0.4,0.4-0.5c0.1-0.1,0.1-0.3,0-0.4c-0.1,0,0.2-0.4,0.3-0.5
						c0.1-0.1,0.3,0,0.3,0c0,0,0.2-0.2,0.3-0.3c0.1-0.1-0.1-0.2-0.2-0.3c-0.1,0-0.1-0.2,0-0.3c0.1,0,0.1-0.2,0-0.3
						c0,0,0.3-0.1,0.4-0.2c0.1-0.1,0.1,0.2,0.1,0.4c0,0.2,0.2,0.2,0.2,0.2c0.1,0,0.2,0,0.2,0.1c0,0,0.1-0.1,0.2-0.1
						c0.1,0,0.1-0.2,0.1-0.2c0-0.1-0.3-0.1-0.3-0.2c-0.1-0.1-0.2-0.6-0.3-0.7c0-0.1-0.2-0.2-0.3-0.2c0,0-0.2-0.2-0.3-0.3
						c-0.1,0-0.2-0.2-0.2-0.2c0,0-0.3-0.2-0.4-0.3c-0.1-0.1-0.2,0-0.2,0c0,0.1-0.2,0.1-0.2,0.1c-0.1,0-0.2-0.2-0.3-0.3
						c0-0.1-0.4,0-0.4-0.1c-0.1-0.1-0.3,0-0.3,0c-0.1,0-0.3,0-0.3,0c0,0,0.2,0.7,0.3,1c0,0.2-0.1,0.4-0.1,0.5c-0.1,0,0,0.1,0.1,0.1
						c0,0,0,0.3,0,0.4c0,0.2-0.2,0.1-0.2-0.1c-0.1-0.1-0.3-0.3-0.3-0.2c0,0.1-0.2,0-0.2,0c0,0-0.4,0-0.5-0.1c-0.1,0-0.3-0.3-0.4-0.3
						c-0.1,0,0-0.1-0.1-0.1c0-0.1,0.1-0.3,0.2-0.4c0-0.1,0.2-0.5,0.3-0.6c0.1-0.1,0.1-0.3,0.1-0.3c0,0,0.4-0.3,0.5-0.4
						c0.1-0.1,0.1-0.4,0.1-0.5c0-0.1-0.2-0.2-0.2-0.2c-0.1,0,0.2-0.1,0.2-0.1c0.1,0,0.3-0.2,0.4-0.2c0.1,0,0.3,0.1,0.5,0.1
						c0,0,0,0,0.1,0.2c0.1,0.4,0.1,0.4,0.1,0.4c-0.3,0.3-0.3,0.5-0.2,0.5c0.1,0,0.7,0,0.9,0.1c0.2,0.1,0.1-0.2,0.2-0.3
						c0-0.1-0.1-0.4-0.1-0.4c-0.1,0,0.2-0.1,0.2-0.1c0.1,0,0.1-0.1,0.2-0.1c0,0,0-0.3,0-0.3c0-0.1-0.1-0.1-0.2-0.1
						c0-0.1-0.3-0.1-0.4-0.1c-0.1,0-0.2-0.2-0.1-0.2c0,0-0.1-0.2-0.2-0.3c-0.1-0.1-0.3,0-0.4,0c-0.1,0-0.2-0.1-0.3-0.1
						c-0.1,0-0.4,0.1-0.5,0.1c-0.1,0.1-0.3-0.1-0.4,0c-0.1,0.1-0.3,0-0.4,0c-0.1,0-0.3,0.4-0.2,0.7c0.1,0.2,0.3,0.4,0.3,0.4
						c0.1,0,0.1,0.2,0,0.3c0,0.1-0.2,0-0.2-0.1c0-0.1-0.2-0.3-0.3-0.3c-0.1-0.1-0.2-0.1-0.4-0.1c0,0.1-0.1,0.2-0.1,0.3
						c0.1,0.1,0.1,0.2,0.1,0.2c0,0.2-0.1,0.2-0.1,0.2c0,0-0.1,0-0.1,0c-0.2,0.5-0.3,0.9-0.5,1.4c0,0.1-0.1,0.2-0.1,0.3
						c-0.1,0.3-0.2,0.6-0.2,1c0,0.1-0.1,0.3-0.1,0.4c-0.1,0.4-0.1,0.8-0.1,1.2c0,0.3,0,0.5,0,0.8c0,0.2,0,0.3,0,0.5
						c0,0.3,0,0.6,0,0.9c0,0.1,0,0.2,0,0.2c0.1,0.7,0.1,1.4,0.3,2.1c0.1,0.1,0.2,0.1,0.3,0.2c0.1,0.1,0.3,0.1,0.4,0.1
						c0,0,0-0.3-0.1-0.3c-0.1-0.1,0-0.1,0-0.1c0,0.1,0.3,0.2,0.4,0.3c0.1,0.1,0.4,0.6,0.5,0.7c0.1,0.1,0.8,0.1,1.1,0.1
						c0.2,0,0.6,0.1,0.6,0.2c0.1,0.1,0.4,0,0.4,0c0.1,0,0.3,0.1,0.3,0.2c0.1,0,0.2,0.1,0.2,0.1c0,0,0.4,0,0.5,0.1
						c0.1,0.1,0.3,0,0.3-0.1c0-0.1,0.2,0.2,0.2,0.2c0.1,0.1,0.1,0.3,0.1,0.3c0,0,0.1,0.4,0,0.5c0,0.1,0,0.7,0.1,0.8
						c0.1,0.1,0.3,0.2,0.4,0.3c0.1,0,0.1,0.1,0,0.2c-0.1,0,0.1,0.5,0.3,0.5c0.2,0,0.4,0.2,0.4,0.3
						C173.7,410.4,174,410.6,174.2,410.6z"/>
					<path class="st6" d="M169.3,395.2c0.2-0.1,0.4-0.2,0.4-0.3c0,0,0-0.2-0.1-0.2c0,0,0.1,0,0.1,0c0.1,0,0.1-0.4,0.1-0.5
						c0-0.1,0.4-0.4,0.5-0.5c0.1-0.1,0.2-0.4,0.3-0.4c0.1-0.1,0.1-0.3,0.1-0.3c0,0,0.2-0.3,0.3-0.4c0.1-0.1,0.1-0.2,0.1-0.2
						c0,0-0.3,0.2-0.5,0.6c-0.3,0.3-0.6,0.7-0.8,1.1c-0.2,0.4-0.5,0.7-0.7,1.1c-0.1,0.1-0.1,0.2-0.2,0.4
						C168.9,395.4,169.2,395.2,169.3,395.2z"/>
					<path class="st6" d="M169.2,397.8c0,0.1,0.1,0.3,0.2,0.3c0.1,0,0.1-0.4,0.3-0.4c0.1,0,0.2,0,0.2,0c0,0-0.4-0.1-0.5-0.1
						C169.4,397.6,169.3,397.8,169.2,397.8z"/>
					<path class="st6" d="M175.7,392c0-0.1,0-0.3,0-0.3c0,0,0.1-0.2,0.2-0.2c0-0.1,0.2-0.2,0.3-0.3c0.1,0,0-0.3,0-0.2
						c-0.1,0-0.3,0.1-0.4,0c-0.1,0-0.4,0.1-0.5,0.1c-0.1,0.1-0.1-0.2,0-0.3c0.1-0.1-0.1-0.2-0.2-0.2c-0.1,0-0.5,0.1-0.6,0.2
						c-0.1,0-0.3,0-0.3,0c-0.1,0-0.4,0.3-0.6,0.3c-0.2,0.1-0.7,0.2-0.8,0.3c-0.1,0.1-0.1,0.3-0.1,0.4c0,0.1-0.4,0.2-0.6,0.3
						c-0.2,0.1-0.9,0.5-1.1,0.7c-0.2,0.2-0.2,0.5-0.2,0.5c0.1,0-0.1,0.2-0.2,0.3c-0.1,0.1-0.4,0.2-0.4,0.3c0,0.1,0.1,0.1,0.1,0.1
						c0,0,0.1-0.1,0.2-0.1c0.1,0,0.3,0,0.4,0c0.1,0-0.2,0.1-0.3,0.2c-0.1,0.1,0,0.3,0.1,0.3c0.1,0,0.4-0.1,0.4-0.1
						c0-0.1,0.3-0.1,0.5-0.1c0.1,0,0.3,0.2,0.4,0.3c0.1,0.1,0.2,0.3,0.2,0.4c0,0.1,0.3,0.1,0.3,0.1c0-0.1,0.1,0.1,0,0.1
						c-0.1,0,0.1,0.3,0.2,0.3c0.1,0,0.1,0.2,0.1,0.3c-0.1,0.1,0,0.2,0,0.3c0,0.1,0.4,0.5,0.5,0.8c0.1,0.3,0.3,0.4,0.4,0.4
						c0.1,0,0.3,0,0.4,0c0,0,0.1-0.1,0.2-0.1c0-0.1,0.1-0.2,0.1-0.4c0-0.1,0-0.7,0-0.8c0-0.1,0.3-0.1,0.3-0.2c0-0.1,0.2-0.2,0.2-0.3
						c0-0.1,0.4-0.3,0.4-0.4c0.1-0.1,0.1-0.5,0.2-0.6c0.1-0.1-0.1,0-0.2-0.1c-0.1,0-0.1-0.1-0.1-0.2c0,0,0.3-0.1,0.5-0.1
						c0.1,0,0.3-0.2,0.2-0.2c-0.1,0-0.1,0,0,0c0,0,0-0.2,0-0.2c-0.1,0,0.2-0.4,0.1-0.6c-0.1-0.2-0.1-0.5,0-0.5
						C176,392.4,175.9,392.1,175.7,392C175.6,392.2,175.7,392.1,175.7,392z"/>
					<path class="st6" d="M171.6,404.7c-0.1,0-0.1,0.1-0.1,0.1c0,0,0.1,0.1,0.1,0.1C171.7,404.9,171.7,404.7,171.6,404.7z"/>
					<path class="st6" d="M197.1,399.9c0.2,0.1,0.6-0.1,0.5-0.4C197.4,399.5,197,399.7,197.1,399.9z"/>
					<path class="st6" d="M190.7,400.8c0,0.1,0.4,0.2,0.4,0.2c0-0.1-0.2-0.3-0.2-0.3C190.8,400.6,190.7,400.6,190.7,400.8z"/>
					<path class="st6" d="M196.2,398.7c0,0,0.2-0.2,0.3-0.2c0.1-0.1,0.1-0.4,0-0.3c-0.1,0-0.3-0.2-0.3-0.2c-0.1,0-0.1,0.2-0.1,0.2
						c0,0.1-0.2,0.2-0.2,0.3c0,0.1,0,0.1,0,0.1C195.9,398.5,196.1,398.6,196.2,398.7z"/>
					<path class="st6" d="M194.2,401.2c-0.1-0.1-0.4-0.3-0.6-0.4c0,0,0,0-0.1-0.1c-0.1-0.1-0.1-0.1-0.1-0.1
						c-0.1-0.1-0.4-0.1-0.4-0.2c0,0,0,0.2-0.1,0.1c0,0,0.1,0,0.3,0.1c0.2,0.1,1,0.9,1.1,0.9C194.3,401.6,194.4,401.3,194.2,401.2z"
						/>
					<path class="st6" d="M198,401.5c-0.2,0.1-0.4,0.3-0.4,0.3c0,0.1-0.2,0.3-0.3,0.3c-0.1,0.1-0.2,0.4-0.2,0.5
						c0,0.1-0.2,0.2-0.3,0.2c-0.1,0.1-0.2,0.3-0.2,0.3c0,0.1,0,0.1-0.1,0c0,0,0,0-0.1,0.1c-0.1,0.2-0.1,0.2-0.1,0.2
						c0,0.2-0.1,0.6-0.2,0.7c-0.1,0.1,0,0.4,0.1,0.6c0.1,0.2,0.2,0.3,0.3,0.4c0,0,0,0,0.1,0.1c0.1,0.2,0.1,0.2,0.1,0.2
						c0,0.2,0.2,0.3,0.3,0.3c0.1,0,0.4-0.2,0.5-0.3c0,0,0.1-0.1,0.1-0.1C198,404.2,198.1,402.9,198,401.5
						C198,401.5,198,401.5,198,401.5z"/>
					<path class="st6" d="M197.8,399.9c0,0-0.2,0.1-0.3,0.1c0,0,0,0.1-0.1,0.1c0,0,0,0.1,0.1,0.1c0,0,0.2,0,0.4,0
						C197.9,400.1,197.9,400,197.8,399.9C197.8,399.9,197.8,399.9,197.8,399.9z"/>
					<path class="st6" d="M187.9,407.3c0.1,0.1,0.3,0.1,0.4,0.1c0.1,0,0.1-0.4,0.1-0.6c0-0.1-0.1-0.3-0.1-0.4c0,0,0-0.2,0-0.2
						c0,0,0-0.2,0-0.3c0-0.1-0.4-0.7-0.4-0.8c0-0.1-0.1,0.1-0.1,0.2c0,0.1-0.2,0.4-0.3,0.6c0,0.1,0,0.4,0,0.5c0,0,0.1,0.3,0.1,0.3
						C187.6,406.9,187.9,407.2,187.9,407.3z"/>
					<path class="st6" d="M196.2,400c-0.1,0-0.3,0.5-0.2,0.7c0.1,0.2,0.2,0.2,0.2,0.1c0-0.1,0.2,0,0.3,0c0.1,0,0-0.1,0-0.1
						c-0.1-0.1-0.1-0.3-0.1-0.4C196.5,400.2,196.4,400,196.2,400z"/>
					<path class="st6" d="M195.5,397.6c0-0.1-0.1-0.2-0.3-0.1c-0.2,0,0,0.4,0.1,0.5C195.4,397.9,195.4,397.7,195.5,397.6z"/>
					<path class="st6" d="M195.8,400.2c0-0.1-0.1-0.4-0.1-0.5c0-0.1-0.3-0.2-0.4-0.2c-0.1,0-0.2,0.7-0.4,0.9c-0.2,0.2-0.1,0.6,0,0.7
						c0.1,0.1,0.6,0,0.7,0c0.1,0,0.2-0.1,0.2-0.1c0,0,0-0.1,0-0.1c0,0,0.1-0.2,0.1-0.4C195.8,400.5,195.8,400.3,195.8,400.2z"/>
					<path class="st6" d="M194.5,396.7c0,0.1,0.1,0.3,0.1,0.3c0,0.1,0.1,0,0.1-0.1C194.8,396.9,194.6,396.6,194.5,396.7z"/>
					<path class="st6" d="M194.6,401.9c0,0.1,0.7-0.1,0.9-0.1c0.2,0,0.4,0,0.3-0.1c-0.1,0-0.7-0.1-0.9-0.1
						C194.7,401.7,194.6,401.8,194.6,401.9z"/>
				</g>
			</g>
			<path class="st4" d="M187.1,416.3c-8.1,1.8-16.1-3.1-17.9-11c-1.7-7.9,3.4-15.7,11.5-17.5c1.4-0.3,2.7-0.4,4.1-0.3
				c-1.8-0.2-3.7-0.2-5.6,0.2c-8.5,1.9-13.8,10-12,18.3c1.8,8.2,10.1,13.4,18.6,11.5c3.2-0.7,5.9-2.3,8-4.5
				C192,414.5,189.7,415.7,187.1,416.3z"/>
		</g>
		
			<ellipse transform="matrix(0.9185 -0.3953 0.3953 0.9185 -90.1129 82.1967)" class="st3" cx="154.4" cy="259.8" rx="159.2" ry="124.9"/>
		<g>
			
				<ellipse transform="matrix(0.9238 -0.3829 0.3829 0.9238 -92.4613 68.9387)" class="st6" cx="126.9" cy="266.7" rx="125.4" ry="110.9"/>
		</g>
		<path class="st4" d="M242.2,217.4c-16.1-37.2-52.8-60.1-94.3-63.3c34.5,6.1,64.2,26.8,78,58.7c23.1,53.3-7.2,117.6-67.6,143.4
			c-57.6,24.7-121.7,5.6-147.6-42.5c0.3,0.8,0.6,1.7,1,2.5c24.3,56.2,95.6,79.7,159.2,52.4C234.6,341.2,266.5,273.6,242.2,217.4z"/>
		<g>
			<defs>
				
					<ellipse id="SVGID_2_" transform="matrix(0.9238 -0.3829 0.3829 0.9238 -92.4613 68.9387)" cx="126.9" cy="266.7" rx="125.4" ry="110.9"/>
			</defs>
			<clipPath id="SVGID_3_">
				<use xlink:href="#SVGID_2_"  style="overflow:visible;"/>
			</clipPath>
			<g class="st7">
				
					<ellipse transform="matrix(0.9964 -8.509067e-02 8.509067e-02 0.9964 -24.8071 1.3223)" class="st8" cx="3.1" cy="291.7" rx="27.8" ry="10.3"/>
				
					<ellipse transform="matrix(0.9821 -0.1885 0.1885 0.9821 -49.0419 33.312)" class="st8" cx="150.7" cy="274.6" rx="27.8" ry="10.3"/>
			</g>
		</g>
		<path class="st9" d="M34.9,211.3c0,0-16.9,2.7-20.4,16.9C21.3,221.3,23.9,217.6,34.9,211.3z"/>
		<path class="st9" d="M131.5,198.5c0,0,16.7-4.3,25.3,9.5C147.9,203.4,144,200.5,131.5,198.5z"/>
		<g>
			<g>
				<path class="st3" d="M261.4,357.3c-2.9-3-3.4-7.6-1.2-11.2c10.7-17.9,43.4-69,66.6-70.5c28.2-1.8,37.3,19.1,21.2,29.8
					c-12.8,8.4-54.7,41.1-71.7,54.4c-4.1,3.2-9.9,2.8-13.5-1L261.4,357.3z"/>
				<path class="st4" d="M326.8,275.6c-23.4,1.5-56.2,53.2-66.8,70.8c-2,3.4-1.6,7.7,1.2,10.6l0.6,0.6
					c15.1-22.6,56.4-82.6,83.1-67.4c5.1,2.9,7.6,6.5,8.3,10.2C361.2,289.4,351.1,274,326.8,275.6z"/>
			</g>
			<g>
				<path class="st5" d="M355,289.8c0.3,2.4,0.1,4.9-0.5,7.3c-0.2,0.6-0.4,1.2-0.7,1.9c-0.3,0.6-0.7,1.3-1.6,1.8
					c-0.4,0.3-1,0.5-1.6,0.5c-0.6,0-1.1-0.2-1.5-0.4l-0.3-0.2l-0.1-0.1c-0.1,0-0.1-0.1-0.2-0.1c-0.1-0.1-0.3-0.1-0.5-0.1
					c-0.8-0.1-1.8,0.1-2.8,0.4c-1,0.3-2.1,0.7-3.2,1.1c-1.1,0.4-2.2,0.8-3.4,1.1c-0.6,0.2-1.2,0.3-1.8,0.4c-0.6,0.1-1.3,0.2-1.9-0.2
					c0.3,0,0.6-0.1,0.8-0.2c0.3-0.1,0.5-0.3,0.8-0.4c0.5-0.3,1-0.6,1.5-1c1-0.6,2-1.3,3-1.9c1-0.6,2.1-1.2,3.4-1.6
					c1.2-0.4,2.5-0.8,4.1-0.6c0.4,0.1,0.8,0.1,1.2,0.3c0.2,0.1,0.4,0.2,0.6,0.3l0.4,0.2c0.2,0.1,0.1,0.1,0.3,0.1
					c0.2,0,0.5-0.4,0.8-0.7c0.3-0.4,0.6-0.9,0.8-1.3C353.2,294.3,354,292,355,289.8z"/>
			</g>
		</g>
		
			<ellipse transform="matrix(0.9434 -0.3317 0.3317 0.9434 -104.6911 43.5017)" class="st10" cx="75.1" cy="328.5" rx="6.7" ry="19.7"/>
		<path d="M47.6,266.7c0,0-12.5-13-29.5-5c-1.5,0.1-2.1-1-2.1-1s-0.9,4.2,2.5,6C23.5,262.7,37.4,259.7,47.6,266.7z"/>
		<path d="M103.8,259.9c0,0,11.6-16.9,32.1-11c1.6-0.2,2.2-1.5,2.2-1.5s1.8,4.6-1.7,7.2C130,251,113.9,250.2,103.8,259.9z"/>
	</g>
	<g>
		<g>
			<path d="M139.3,523.9c11.4-0.4,22.8-1.1,34.1-2c5.7-0.5,11.3-1,16.9-1.7c5.6-0.7,11.2-1.4,16.8-2.3c11.2-1.8,22.3-4.1,33.2-7
				c5.4-1.5,10.8-3.2,16.2-5.1c5.3-1.9,10.6-4.1,15.7-6.5c-4.8,3.2-9.8,5.9-15,8.4c-5.2,2.4-10.6,4.5-16,6.3
				c-5.4,1.8-11,3.3-16.6,4.7c-5.6,1.3-11.2,2.4-16.9,3.3c-5.7,0.9-11.4,1.6-17.1,2.1c-5.7,0.5-11.4,0.9-17.1,1.1
				C162.1,525.4,150.6,525.2,139.3,523.9z"/>
		</g>
		<g>
			<path d="M193.6,511.7c9.8-2.5,19.5-5.2,29.2-8.1c4.8-1.5,9.6-3,14.4-4.6c4.8-1.6,9.5-3.3,14.2-5.1c9.4-3.5,18.6-7.5,27.6-12
				c4.5-2.3,8.9-4.6,13.2-7.2c4.3-2.6,8.5-5.4,12.6-8.4c-3.6,3.6-7.6,6.8-11.7,9.8c-4.1,3-8.5,5.7-12.9,8.2c-4.4,2.5-9,4.8-13.6,6.9
				c-4.6,2.1-9.3,4-14.1,5.9c-9.5,3.5-19.2,6.6-29.1,9.1C213.6,508.6,203.7,510.6,193.6,511.7z"/>
		</g>
		<g>
			<path d="M302,485.4c5.8-6.6,11.4-13.4,16.9-20.2c5.5-6.8,10.9-13.7,16.2-20.7c5.2-7,10.4-14.1,15.4-21.3
				c5-7.2,9.8-14.5,14.4-21.9c4.7-7.4,9-15,13.2-22.7c2.1-3.8,4-7.7,6-11.6l2.8-5.9c1-2,1.8-4,2.7-6c3.4-8,6.6-16.2,8.9-24.6
				c2.4-8.4,4.3-17,5.2-25.7c-0.1,8.8-1.4,17.6-3.3,26.2l-0.8,3.2c-0.3,1.1-0.5,2.2-0.8,3.2l-1.9,6.4c-1.4,4.2-2.8,8.4-4.5,12.5
				c-3.2,8.3-6.9,16.3-11,24.1c-4.1,7.8-8.5,15.5-13.1,23c-4.7,7.5-9.6,14.8-14.7,22c-5.2,7.1-10.5,14.2-16,21
				c-5.5,6.9-11.3,13.5-17.2,20.1C314.5,473,308.4,479.4,302,485.4z"/>
		</g>
		<path class="st11" d="M70.7,575.5c3.7-21.3,78.8-34.9,80.2-5C152.7,608.5,67,596.7,70.7,575.5z"/>
		<path class="st11" d="M156.5,575.5c-3-21.4,68.8-49.5,74.7-29.6C242,582.3,159.5,596.8,156.5,575.5z"/>
		<path class="st11" d="M240.4,550.1c-6.9-20.5,58.6-61.3,68-42.8C325.7,541.2,247.3,570.6,240.4,550.1z"/>
		<path class="st11" d="M319.2,504c-9.3-14,37.1-65,48.2-53.2C387.7,472.2,328.6,517.9,319.2,504z"/>
		<path class="st11" d="M373.1,445.6c-12.8-10.8,13.4-62.1,27-53.5C425.1,407.7,385.9,456.4,373.1,445.6z"/>
		<path class="st11" d="M403.4,381.5c-12.8-10.8,13.4-62.1,27-53.5C455.4,343.7,416.2,392.3,403.4,381.5z"/>
		<path class="st11" d="M335.1,546.1c-5.3-2.8,54.2-87,61.6-93.7s-12,44.9-12,44.9s27.3-36.8,30.5-37.1c3.2-0.3-6.5,20-6.5,20
			s71.2-98.5,76.2-97c5,1.5-27.4,60.7-24.8,60.4c2.7-0.3,73.9-65,80.2-60.1c6.3,4.9-26.8,42.2-26.8,42.2s75-47.6,85.6-38.5
			c10.6,9.1-73.1,75.3-73.1,75.3s11.4,1,10.2,5.4s-74.3,18.2-74.3,18.2s23.5,3.7,24.1,10.1S344.1,550.8,335.1,546.1z"/>
		<path class="st11" d="M433.8,269c-6.2-9.6-15.2-4.8-14.5-11.8c0.7-6.9,12.8-10.6,14.4-14.2c1.6-3.6,0.8-23.2,12.7-19.4
			c11.9,3.8,13.2,18.5,17.2,19.8c4,1.3,6.6,13.5,2,19.2c-4.6,5.7-6.2,21.2-16.3,21.4C439.2,284.4,438.1,275.8,433.8,269z"/>
		<path class="st11" d="M488,288.7c-7.3-14.3,9-17.8,9.9-22.4c0.9-4.5,1.7-26.1,14.3-26.5c12.6-0.3,6.9,13.8,15.6,14.9
			c8.8,1.1,21-11.2,23.5,3s1.5,31.6-6.7,37.5c-8.2,5.9-24.8,10.7-29,5.3c-4.2-5.4-6-15.3-11.5-13.7S492.3,297.1,488,288.7z"/>
		<path class="st11" d="M502.1,338.5c-2.5-2.9,3-5.9,5.5-9.4c2.5-3.5,8.7-9.4,9.6-4.6s2.6,9.6-5,11.6
			C504.5,338.1,503.7,340.3,502.1,338.5z"/>
		<path class="st11" d="M508.7,383.9c-3.3-4.3,14.6-27.7,20.6-22.3C535.3,367,512.7,389.1,508.7,383.9z"/>
		<path class="st11" d="M556.4,379.5c-1.2-1.7,5.5-11,7.7-8.9C566.4,372.8,557.9,381.6,556.4,379.5z"/>
		<path class="st11" d="M578.4,359.5c-1.2-1.7,5.5-11,7.7-8.9C588.4,352.8,579.9,361.5,578.4,359.5z"/>
		<path class="st11" d="M552.7,455.9c-0.4-2.1,9.5-7.8,10.7-4.9S553.2,458.4,552.7,455.9z"/>
	</g>
</g>
</svg>
