<svg xmlns="http://www.w3.org/2000/svg" width="149" height="243" viewBox="0 0 149 243">
    <defs>
        <radialGradient id="prefix__a" cx="51.776%" cy="10.316%" r="105.794%" fx="51.776%" fy="10.316%" gradientTransform="matrix(1 0 0 .8875 0 .012)">
            <stop offset="0%" stop-color="#B24347"/>
            <stop offset="36%" stop-color="#AE4447"/>
            <stop offset="72%" stop-color="#A14648"/>
            <stop offset="100%" stop-color="#934949"/>
        </radialGradient>
    </defs>
    <g fill="none" fill-rule="evenodd">
        <path fill="#B24347" fill-rule="nonzero" d="M137.157 71s17.656-6.904 9.852-13.968c-2.26-2.526-5.167.172-6.132 1.852-2.92-4.722-6.627-3.03-7.757 1.349-1.13 4.378 6.133 6.56 4.037 10.767z"/>
        <path fill="url(#prefix__a)" fill-rule="nonzero" d="M48.912 163.024s-27.305 60.313-2.5 78.99c.854.636 1.89.977 2.955.974H60.47c1.662.012 3.162-1 3.782-2.551.837-2.13 1.627-5.885 1.328-12.347 3.915 1.088 8.05 1.088 11.965 0 0 0-.514 7.521 1.364 12.359.605 1.541 2.086 2.553 3.733 2.551h11.152c1.023.003 2.018-.34 2.824-.975 5.205-4.14 21.813-18.05-2.5-79.025l-45.206.024z"/>
        <path fill="#F6F1EB" fill-rule="nonzero" d="M53.742 163.124S23.002 225 70.732 225c47.731 0 18.918-61.311 15.915-64.625-3.004-3.313-33.72-3.805-32.905 2.75z"/>
        <path fill="#231F20" fill-rule="nonzero" d="M56.335 163.039c-.432-3.434 8.062-4.91 16.532-5.03-9.262-.133-19.58 1.284-19.1 5.09 0 0-30.82 61.892 17.036 61.892 4.49.099 8.962-.617 13.197-2.113-3.543.953-7.201 1.41-10.87 1.357-47.268 0-16.795-61.196-16.795-61.196z" opacity=".05"/>
        <path fill="#246398" fill-rule="nonzero" d="M44 162.551S47.447 173 70.15 173c22.701 0 26.185-6.405 27.806-10.498 1.622-4.094-42.449-12.342-53.956.049z"/>
        <path fill="#B24347" d="M29.357.555C6.81 8.009 35.278 74.019 51.378 68.695c16.1-5.325.539-75.607-22.02-68.14z"/>
        <path fill="#246398" d="M33.712 11.296c-14.293 4.696 7.533 54.9 17.74 51.543 10.206-3.357-3.434-56.25-17.74-51.543z"/>
        <path fill="#B24347" d="M110.694 11.348c7.253 2.409 11.604 8.96 11.29 11.586-2.526 21.33-19.341 49.27-30.22 45.766-11.376-3.71-7.35-39.13 4.266-57.352 2.382-3.818 7.41-2.36 14.664 0z"/>
        <path fill="#246398" d="M110.3 11.296c14.262 4.696-7.525 54.9-17.747 51.543C82.331 59.482 96 6.589 110.3 11.296z"/>
        <path fill="#B24347" d="M122.033 21.57c4.613 9.725 8.218 26.283.344 29.504-15.81 6.456-34.465-22.38-26.46-39.267 4.412-9.263 21.49.097 26.116 9.762z"/>
        <path fill="#B24347" d="M122.033 21.57c4.613 9.725 8.218 26.283.344 29.504-15.81 6.456-34.465-22.38-26.46-39.267 4.412-9.263 21.49.097 26.116 9.762z"/>
        <ellipse cx="71.5" cy="114" fill="#B24347" fill-rule="nonzero" rx="71.5" ry="56"/>
        <ellipse cx="71" cy="121.5" fill="#F6F1EB" fill-rule="nonzero" rx="62" ry="47.5"/>
        <path fill="#231F20" fill-rule="nonzero" d="M71.006 74C36.812 74 9 95.261 9 121.5c0 15.704 9.916 29.549 25.24 38.198-13.533-8.082-22.211-20.585-22.211-34.658 0-24.294 25.708-43.985 57.415-43.985 31.706 0 57.426 19.69 57.426 43.985 0 24.088-25.24 43.646-56.645 43.96h.781C105.248 169 133 147.739 133 121.512 133 95.286 105.248 74 71.006 74z" opacity=".05"/>
        <ellipse cx="110.5" cy="143" fill="#CA464A" fill-rule="nonzero" opacity=".05" rx="10.5" ry="4"/>
        <ellipse cx="30.5" cy="143" fill="#CA464A" fill-rule="nonzero" opacity=".05" rx="10.5" ry="4"/>
        <path fill="#B24347" fill-rule="nonzero" d="M71.002 153c-4.012.032-7.76-2.073-9.93-5.577-.152-.283-.056-.64.214-.802.128-.084.284-.11.43-.07.146.04.27.141.342.28 2.025 3.218 5.53 5.092 9.229 4.935 3.865-.181 7.434-2.208 9.667-5.49.168-.276.519-.359.784-.186.261.183.34.546.178.827-2.423 3.633-6.353 5.869-10.606 6.033l-.308.05z"/>
        <path fill="#231F20" fill-rule="nonzero" d="M44.7 131.994c-3.356.087-6.243-2.235-6.696-5.387-.036-.299.19-.569.506-.605.313-.027.594.184.638.48.354 2.619 2.768 4.544 5.552 4.428 1.3.084 2.582-.335 3.55-1.16.97-.826 1.544-1.989 1.594-3.223.003-.146.069-.285.182-.384.114-.1.266-.15.42-.14.314.012.56.26.554.559-.075 1.511-.78 2.933-1.962 3.952-1.182 1.019-2.742 1.55-4.338 1.48zM97.7 131.994c-3.356.087-6.243-2.235-6.696-5.387-.036-.299.19-.569.506-.605.313-.027.594.184.638.48.354 2.619 2.768 4.544 5.552 4.428 1.3.084 2.582-.335 3.55-1.16.97-.826 1.544-1.989 1.594-3.223.003-.146.069-.285.182-.384.114-.1.266-.15.42-.14.314.012.56.26.554.559-.075 1.511-.78 2.933-1.962 3.952-1.182 1.019-2.742 1.55-4.338 1.48z"/>
        <path fill="#246398" fill-rule="nonzero" d="M77.998 177.354c.06 2.641-1.486 5.056-3.91 6.108-2.423 1.052-5.242.533-7.131-1.314-1.89-1.847-2.473-4.653-1.476-7.1.997-2.447 3.375-4.047 6.017-4.047 1.706-.023 3.35.634 4.57 1.826 1.22 1.193 1.914 2.822 1.93 4.527z"/>
        <path fill="#F6F1EB" fill-rule="nonzero" d="M78.53 176.539v-.19l-.18.12v.18c0 .02.07-.07.1-.08.03-.006.06-.006.09 0h.11l-.12-.03zM67.446 177.504h.1c.02 0 0 0 0 0-.033-.011-.068-.011-.1 0zM72.363 180.994c.101-.087.193-.183.273-.288 0 0 .087-.191.1-.227.012-.036.074-.084.099-.096.025-.012.112-.348.199-.42.096-.173.148-.366.149-.563.004-.146.025-.29.062-.431.037-.07.087-.13.149-.18l.273-.372c.06-.103.094-.218.1-.335 0 0-.137-.084-.162 0-.062.012-.125.012-.186 0 0 0-.125-.192-.174-.228-.05-.036-.112-.264-.137-.312l-.149-.167c-.012-.056-.012-.113 0-.168l.062.06c.056.106.122.206.199.3 0 .071.161.263.186.335.025.072.286 0 .373 0 .087 0 .186-.096.186-.12 0-.024.136-.072.174-.108.037-.036.074-.168.099-.192.016-.067.016-.136 0-.203-.05-.046-.118-.067-.186-.06 0 0-.087-.096-.112-.132-.025-.036-.124-.096-.137-.12-.012-.024 0-.072 0-.072.097.041.185.098.261.168 0 .06.112.18.124.192.06.024.127.024.187 0h.161c.047.047.08.105.1.167 0 0 0 .084.074.084s0 .108 0 .132l.124.24c.032.074.07.146.112.216.01.051.01.104 0 .155 0 0 .062.084.099.072.037-.012.112-.215.124-.3.013-.083.075-.143.1-.143.024 0 0 0 0-.072s.099 0 .099 0 0-.168.074-.192c.075-.024.15-.096.199-.108.05-.012.149.072.174.12.01.052.01.105 0 .156 0 0 .062.108.124.108s.074.072.074.096c0 .024.075.096.087.12.013.047.013.096 0 .143-.012.056-.012.113 0 .168.073.093.156.178.249.252.062 0 .099-.108.062-.156l-.174-.192c-.012-.067-.012-.136 0-.203h.137c.04.026.07.063.086.107 0 0 .236-.107.249-.24.019-.11.052-.22.1-.323v-.084s0-.096.098-.096c.1 0 .224-.167.261-.227.032-.052.074-.097.124-.132.032-.074.057-.15.075-.228.008-.068.008-.136 0-.204-.02-.046-.045-.09-.075-.131-.006-.044-.006-.089 0-.132h.075s.074-.084.074-.108c0-.024 0 0 .075.06.074.06 0 .18.1.204.098.023.198-.168.173-.288-.01-.107.021-.213.087-.3 0 0 .074-.072.124-.132-.346-.947-.92-1.802-1.676-2.492-.066-.006-.119-.057-.124-.12l-.224-.192h-.074c-.07-.006-.138-.026-.199-.06 0 0-.1 0-.1.06s-.136 0-.148.084c-.013.084-.075 0-.1 0h-.186l-.198.072s-.087 0-.1.084c-.031.034-.07.062-.112.084v.131h-.099-.1c-.012 0 0 0 0 0h-.223c-.025 0-.161.108-.21.156-.096.05-.204.07-.311.06 0 0-.075.096 0 .096h-.162c-.112.025-.221.066-.322.12h-.1c-.025 0-.062.132-.099.168-.037.036-.087-.12-.186-.144-.1-.024-.236-.108-.286-.12-.055-.033-.105-.074-.149-.12-.057-.012-.116-.012-.174 0-.073.017-.14.05-.198.096h-.1l-.21.18c-.071.082-.133.17-.187.263-.028.01-.059.01-.087 0 0 0-.161.096-.174.168-.012.096-.012.192 0 .288.01.066.046.126.1.168v.191c0 .072-.112.06-.15.072-.039.03-.072.067-.099.108 0 0-.111 0-.149.072v-.072-.108c.005-.08.005-.16 0-.24l-.111-.12v-.083c0-.084-.087 0-.112 0-.025 0 0 .192 0 .24-.019.042-.019.09 0 .131v.096s-.062.132 0 .168c.062.036 0 .084 0 .096.07.013.141.013.21 0 .041-.011.085-.011.125 0 0 0-.136 0-.161.06l-.124.096s0 .072.062.072.074.12.111.143c.038.024 0 .084 0 .108h-.248c-.074 0-.149.144-.161.192-.007.08-.007.16 0 .24 0 0 .149 0 .173.084h.187s.111-.132.136-.192c.025-.06.15-.18.186-.228.038-.048.174 0 .212-.06.037-.06 0 .108 0 .18s.161.06.149 0c-.013-.06 0-.108 0-.072 0 .036.149.072.173.108.025.036 0 .12 0 .12v.096c0 .012.075-.096.112-.12.037-.024.062-.084 0-.084s0-.072 0 0c-.034-.07-.08-.135-.136-.192-.063-.06 0 0 .099.06l.074.096v.096c.006.052.006.104 0 .156 0 0 0 .072.1.072.099 0 0 0 0 0s0 .06.062.06 0-.084 0-.084v-.18-.108.144c-.01.035-.01.072 0 .108H72.662s-.075.12-.088.168c-.012.047-.298 0-.41 0-.111 0-.297 0-.31.06-.012.06-.199-.084-.285-.108-.087-.024-.162-.168-.174-.18-.013-.012 0 0 0-.084s-.199 0-.261 0-.348 0-.41.072-.174 0-.21 0c-.038 0-.113.084-.15.096-.037.012-.087.144-.112.287v.096c-.099.102-.178.22-.235.348-.023.163-.023.328 0 .491.026.145.072.286.136.42.072.097.166.18.273.24.107.017.216.017.323 0 .076-.011.138-.062.162-.132h.136s.137.095.174.107h.149s.062.216 0 .288c.003.126.024.25.062.372 0 .071.112.263.124.335.013.072 0 .3 0 .372.021.134.068.264.137.383.008.096.008.192 0 .288 0 0 .136.263.161.36.025.095.422.347.51.299zM67.531 176.532s-.06-.05-.08-.06c-.02-.01 0 0 0 0h.07c.07 0 .02.06.01.06z"/>
        <path fill="#F6F1EB" fill-rule="nonzero" d="M67.592 177.559s.1 0 .12.05c.02.05.06 0 .1 0 .04 0 0-.12-.07-.12s-.11 0-.12-.06c-.04-.012-.078-.033-.11-.06h-.22c-.048.006-.09.031-.12.07h.11c.054-.024.116-.024.17 0 .035.016.075.016.11 0 0 0 .02.1.03.12zM67.498 176.468v.05c0 .05.01-.05 0-.05z"/>
        <path fill="#F6F1EB" fill-rule="nonzero" d="M67.453 177.504h.09c.01 0 0 0 0 0-.03-.01-.061-.01-.09 0z"/>
        <path fill="#F6F1EB" fill-rule="nonzero" d="M68.013 179.325c.066.092.121.19.166.291.007.06.007.122 0 .182v.11c-.009.092-.009.185 0 .278 0 .073-.09.315-.09.424-.002.09.025.18.078.254v.122c0 .012-.09.109 0 .12.09.013 0 .086 0 .122v.34c0 .06.102.217.115.266.013.048 0 .145 0 .157h.103c.072.012.145.012.218 0v-.072c0-.073 0-.122-.065-.134-.026-.058-.026-.123 0-.181 0 0 .103-.073.116-.097.02-.055.02-.115 0-.17v-.23c0-.073.14-.134.14-.194s.18-.121.219-.146c.025-.074.025-.155 0-.23 0 0 0-.06.09-.06h.09s0-.073.076-.085c.077-.012.077-.194.116-.218.043-.048.07-.107.077-.17.02-.05.046-.1.076-.145.066-.037.135-.07.206-.097.046-.104.072-.215.077-.327v-.219c0-.024 0 0 .064 0s0-.109 0-.133c.046-.042.085-.091.115-.145-.004-.045-.004-.09 0-.134v-.145c0-.06-.103-.158-.128-.133-.026.024-.116 0-.167-.073-.064-.01-.128-.01-.192 0 0 0-.141-.085-.192-.097h-.193s0-.182-.14-.23c-.034-.09-.055-.184-.065-.279 0 0-.205-.145-.27-.17-.048-.021-.104-.021-.153 0 0 0-.077-.096-.115-.12-.039-.025-.154-.061-.154 0 0 .06-.09 0-.103 0h-.102c-.026 0-.129.145-.167.169-.038.024-.09 0-.115 0-.055-.012-.112-.012-.167 0 0 0-.103-.133-.09-.206.008-.094-.042-.184-.128-.23-.077 0-.09-.158-.077-.206.013-.049-.128-.097-.154-.097-.06.017-.11.057-.14.109 0 0-.309 0-.283-.218.037-.138.112-.263.218-.364.093-.018.19-.018.282 0h.09c.068-.01.137-.01.205 0 0 0 .115.194.167.206.05.012 0-.109.077-.133.014-.043.014-.09 0-.133.017-.104.07-.198.153-.267.067-.042.12-.1.154-.17h.077c.077 0 0-.181 0-.218.066-.05.14-.09.218-.121 0 0 .077-.121 0-.145-.077-.025.116-.122.192-.134.077-.012.129 0 .103 0l.154-.072v-.134-.12c0-.013.077-.086.064-.098-.013-.012.141 0 .205 0s0 .11 0 .158v.109h.103c.038 0 0 0 0-.073s-.09-.097-.103-.133c-.007-.101-.007-.202 0-.303 0 0 0-.11-.09-.097-.09.012 0-.121-.09-.146-.014-.034-.014-.074 0-.109 0 0-.102-.133-.128-.181-.025-.049-.077 0-.077 0h-.115c-.038 0 0-.122 0-.17 0-.048-.154 0-.18-.085-.025-.085-.115 0-.128 0h-.115c-.009.137-.009.275 0 .412-.018.067-.065.124-.128.158-.033.049-.06.102-.077.157 0 0-.077 0-.09-.06-.013-.06-.077-.146-.09-.122-.012.025 0 0-.077 0-.076 0-.153-.072-.205-.096-.05-.025-.09-.182-.115-.194-.026-.012 0 0 0 0s.103-.11.141-.146c.057-.074.121-.143.192-.206 0 0 .077-.109.064-.12l.257-.086s.09-.157.102-.206c.013-.048 0-.109-.064-.12h.296l.179.096v.279c-.154.06-.205.157-.141.157.13.03.256.079.371.146.077 0 .103 0 .116-.097.02-.06.02-.123 0-.182h.192c.077 0 0-.097 0-.121v-.06c0-.061-.115-.074-.154-.086-.028-.031-.028-.077 0-.109v-.133c0-.036-.128 0-.18 0-.05 0-.076-.085-.102-.097-.067-.013-.137-.013-.205 0 0 0-.115-.097-.167 0-.05.097-.14 0-.166-.06-.026-.061-.18.133-.18.242 0 .109 0 .206.09.206s0 .097 0 .121c0 .024-.09 0 0 0s-.064-.133-.09-.182l-.269-.436-.103.11c.014.034.014.073 0 .108 0 0-.076.073-.09 0-.142.15-.275.308-.397.473-.025.043-.055.083-.09.12l-.217.34-.103.158-.23.448c-.038.1-.08.196-.129.29-.005.061-.005.122 0 .183-.05.113-.089.23-.115.351v.097c-.076.279-.131.562-.167.848l.077.11s.128.096.14.108c.014.012 0-.109 0-.145 0-.036 0 0 0 0 .038.06.081.117.13.17.04.106.075.216.102.327.134.081.281.143.436.182.09.025.17.076.23.145.06.005.12.005.18 0l.128.109c.007.024.007.049 0 .073 0 0 .167.072.205.12.039.025.09.025.128 0v.11c.013.048.013.098 0 .145.004.065.004.13 0 .194-.045.1-.07.207-.077.315.028.062.072.117.129.158v.315c0 .024.128.133.115.145-.013.012.039.17.09.218zM68.233 172.81h.16c.01-.026.01-.054 0-.08 0 0 .054-.13.081-.16.027-.03.152-.07.188-.09.04-.037.081-.07.125-.1 0 0 .063-.08.054-.09-.01-.01.09-.08.125-.1.036-.02.054-.06 0-.06l-.215.12c-.12.08-.236.166-.348.26-.11.084-.214.174-.314.27l-.089.09.233-.06z"/>
        <path fill="#F6F1EB" fill-rule="nonzero" d="M67.4 173.485v.1s.09-.13.13-.1c.04.03.08 0 .07 0l-.15-.07s-.03.05-.05.07zM70.731 172.55c.014-.042.014-.087 0-.128 0 0 .08 0 .094-.058l.175-.082v-.08h-.175c-.07-.019-.144-.019-.215 0v-.117-.081c-.093-.005-.188-.005-.282 0h-.147c-.108.01-.216.01-.323 0h-.39c-.054.024-.086.075-.08.128h-.309c-.198.019-.393.062-.578.127-.094 0-.174.163-.147.174.027.012 0 .07-.108.082-.107.011-.188 0-.228 0-.04 0 0 0 0 .07 0 .069 0 0 .08 0H68.126c-.053 0 0 .104 0 .115 0 .012.175 0 .188 0h.215c.068 0 .108.14.135.174.006.05.006.101 0 .151 0 0 .107.081.134.07.027-.012 0 0 0 0v.348c0 .035.12.244.107.348-.003.083.043.162.121.209h.256l.094-.116c.048-.098.088-.199.12-.302h.162c.049-.021.094-.049.134-.081l.269-.116s.12-.163.16-.186c.041-.023 0 0-.066 0 .071-.008.143-.008.215 0 0 0 .147 0 .107-.07-.04-.069 0 0 0 0v-.092c0-.023.148-.116.121-.21-.027-.092 0-.196.094-.196s0-.116 0-.128c0-.012.013.07.04.046zM67.496 176.5s.02 0 0 0zM77.395 178.546c.07 0 .21 0 .21-.06s-.21-.03-.21.06zM75.44 177.464s.1.12.11.1c.014-.042.014-.087 0-.13 0 0-.09-.01-.11.03zM77.486 177.607h.11c.04 0 .07-.1 0-.11-.07-.01-.06-.09-.09-.1-.03-.01-.06 0-.06.07s-.07 0-.08.07c-.01.07 0 0 0 0s.12.05.12.07zM76.667 178.545c-.043-.072-.101-.133-.17-.18-.031-.04-.068-.073-.11-.1h-.06l.09.06c.088.132.168.269.24.41 0 0 .03-.14.01-.19zM77.857 179.094c-.07 0-.16 0-.16.094s-.1.094-.13.126c-.048.058-.085.134-.11.22h-.12c-.03 0-.09.094-.09.14 0 .048 0 0 0 0-.03.126-.082.236-.15.315v.314c-.018.081-.018.17 0 .25v.205c-.005.089.017.176.06.235.066.01.133.01.2 0 .24-.623.429-1.293.56-1.993l-.06.094zM78.565 178.515h-.13s0 .05 0 0l.13.06v-.15.09zM73.398 179.815s.09.07.11.06c.048-.043.083-.099.1-.16.004-.044.004-.087 0-.13-.005-.023-.005-.048 0-.07v-.09c-.009-.102-.029-.203-.06-.3v.06c0 .06-.12.12-.15.15-.012.052-.012.107 0 .16.01.036.01.073 0 .11-.008.07-.008.14 0 .21z"/>
        <path fill="#F6F1EB" fill-rule="nonzero" d="M77.551 178.36s-.15.13-.13.21c.02.08 0 .08.06.06.06-.02.07 0 .09 0 .02 0 0 0 0 0v-.13s.02-.13-.02-.14zM77.543 177.498s0-.07-.06-.08c-.06-.01 0 .14 0 .16 0 .02.05-.05.06-.08z"/>
        <path fill="#F6F1EB" fill-rule="nonzero" d="M77.702 178.496v-.17c0-.02-.06-.09-.09-.1-.03-.01-.15.22-.22.26-.07.046-.105.128-.09.21 0 0 .18.05.21.07.03.02.06 0 .08 0 .02 0 0 0 0 0s.06-.07.07-.11c.018-.052.032-.106.04-.16zM77.501 176.435c-.015.042-.015.088 0 .13 0 0 .02-.13 0-.13zM76.283 178.47s.24.06.32.09c.08.03.13 0 .11 0l-.29-.13c-.05-.013-.105.002-.14.04z"/>
        <path fill="#231F20" fill-rule="nonzero" d="M71.951 183.703c-2.076-.265-3.861-1.693-4.684-3.745s-.559-4.418.694-6.205c1.254-1.787 3.304-2.725 5.38-2.46.545.074 1.079.22 1.589.437-.67-.357-1.394-.589-2.138-.686-2.16-.27-4.29.712-5.588 2.574-1.298 1.862-1.567 4.322-.706 6.454.86 2.131 2.722 3.61 4.881 3.88 1.243.158 2.501-.076 3.621-.673-.967.413-2.015.558-3.049.424z" opacity=".05"/>
        <path fill="#CA464A" fill-rule="nonzero" stroke="#CA464A" stroke-linecap="round" stroke-linejoin="round" stroke-width="1.25" d="M70.951 202.125c-10.366 0-18.972-.916-20.635-2.125-.21 1.062-.316 2.142-.316 3.225C50 213.595 59.395 222 71 222s21-8.404 21-18.775c-.006-1.083-.112-2.162-.316-3.225-1.76 1.21-10.354 2.125-20.733 2.125z" opacity=".2"/>
        <path fill="#F6F1EB" d="M50.625 206.19L50.285 206.25 50.385 206.81 50.715 206.74zM50.676 204.215h-.34c-.015.19-.015.38 0 .57h.34c-.016-.19-.016-.38 0-.57zM50.655 203.21L50.315 203.22 50.345 203.79 50.685 203.77zM51.55 209.175L51.23 209.305 51.45 209.825 51.77 209.695zM51.58 208.175l-.33.11c.046.183.103.363.17.54l.33-.12c-.072-.172-.128-.349-.17-.53zM51.595 207.185L51.255 207.265 51.415 207.815 51.745 207.715zM53.48 212.17L53.2 212.36 53.52 212.83 53.8 212.63zM52.515 211.17l-.3.17c.084.169.177.332.28.49l.29-.18c-.1-.154-.19-.315-.27-.48zM52.52 210.175L52.21 210.325 52.49 210.825 52.79 210.655zM55.42 215.18L55.18 215.42 55.58 215.82 55.82 215.57zM55.45 214.175l-.26.22c.13.15.24.3.37.43l.25-.23-.36-.42zM54.455 213.175L54.185 213.385 54.545 213.825 54.815 213.605zM58.37 217.205L58.17 217.485 58.64 217.795 58.83 217.515zM57.39 217.185L57.18 217.455 57.62 217.815 57.82 217.535zM56.4 216.19L56.17 216.45 56.61 216.81 56.83 216.54zM61.32 219.23L61.17 219.54 61.7 219.77 61.83 219.45zM60.335 219.21L60.175 219.52 60.675 219.79 60.825 219.48zM59.35 218.215l-.18.29c.156.105.32.199.49.28l.17-.29c-.165-.085-.325-.179-.48-.28zM65.275 220.27l-.09.33c.18.055.364.098.55.13l.08-.33c-.18-.05-.37-.07-.54-.13zM64.29 220.25L64.18 220.57 64.72 220.75 64.82 220.42zM63.31 220.235l-.13.32c.169.08.343.15.52.21l.12-.32c-.174-.06-.344-.13-.51-.21zM68.24 221.295L68.2 221.635 68.77 221.705 68.8 221.365zM67.255 221.29L67.195 221.63 67.765 221.71 67.805 221.37zM66.27 221.27L66.19 221.6 66.75 221.73 66.81 221.39zM72.21 221.335L72.22 221.685 72.79 221.655 72.77 221.315zM71.22 221.325v.35h.56v-.35c-.186.02-.374.02-.56 0zM70.23 221.315L70.21 221.655 70.78 221.685 70.79 221.335zM76.19 221.39L76.26 221.73 76.81 221.6 76.73 221.27zM74.195 221.37L74.245 221.71 74.805 221.63 74.755 221.29zM73.2 221.365L73.23 221.705 73.8 221.635 73.76 221.295zM79.18 220.445l.12.32c.18-.06.35-.14.52-.21l-.13-.32c-.13.07-.29.15-.51.21zM78.18 220.42L78.28 220.75 78.82 220.57 78.71 220.25zM77.185 220.405l.08.33c.186-.035.37-.082.55-.14l-.09-.33c-.177.057-.357.104-.54.14zM82.17 218.49l.17.3c.172-.08.336-.178.49-.29l-.18-.29c-.15.109-.311.202-.48.28zM81.17 219.48L81.33 219.79 81.83 219.51 81.66 219.21zM80.17 219.45L80.3 219.77 80.83 219.54 80.68 219.23zM85.17 216.545l.22.26c.15-.12.3-.23.44-.36l-.23-.25-.43.35zM84.175 217.54L84.385 217.81 84.825 217.46 84.605 217.19zM83.17 217.505L83.35 217.795 83.83 217.485 83.63 217.205zM88.185 213.605L88.445 213.825 88.815 213.385 88.545 213.175zM87.19 214.6l.25.23c.13-.14.25-.29.37-.43l-.26-.23c-.12.14-.23.29-.36.43zM86.18 215.57L86.42 215.82 86.82 215.43 86.58 215.18zM90.215 210.665L90.515 210.825 90.785 210.325 90.475 210.175zM89.21 211.65l.3.18c.11-.15.18-.33.28-.49l-.3-.17c-.084.165-.177.326-.28.48zM89.2 212.63L89.48 212.83 89.8 212.36 89.52 212.17zM91.255 207.725L91.585 207.815 91.745 207.265 91.415 207.185zM91.25 208.705l.32.12c.07-.18.13-.363.18-.55l-.33-.1c-.046.18-.103.357-.17.53zM90.235 209.69L90.545 209.83 90.765 209.3 90.445 209.17zM92.31 203.765L92.65 203.785 92.69 203.215 92.34 203.215zM92.3 204.735l.34.05c.035-.188.055-.379.06-.57h-.34c-.006.175-.026.349-.06.52zM91.28 206.735L91.62 206.805 91.72 206.245 91.38 206.195zM85.82 201.635L85.78 201.295 85.18 201.365 85.22 201.705zM86.82 201.63L86.77 201.29 86.18 201.37 86.22 201.71zM88.825 200.62L88.765 200.28 88.175 200.38 88.235 200.72zM81.815 201.655L81.785 201.305 81.185 201.345 81.215 201.695z"/>
        <path fill="#F6F1EB" fill-rule="nonzero" d="M82.963 201.459L82.963 201.459 82.963 201.459z" transform="rotate(-4.93 82.963 201.459)"/>
        <path fill="#F6F1EB" d="M84.815 201.64L84.785 201.3 84.185 201.35 84.225 201.7zM77.81 201.66L77.8 201.32 77.19 201.34 77.21 201.68z"/>
        <path fill="#F6F1EB" fill-rule="nonzero" d="M79.103 201.701L79.103 201.701 79.103 201.701z" transform="rotate(-2.97 79.103 201.701)"/>
        <path fill="#F6F1EB" d="M80.81 201.65L80.79 201.31 80.19 201.34 80.21 201.69z"/>
        <path fill="#F6F1EB" fill-rule="nonzero" d="M73.943 201.869L73.943 201.869 73.943 201.869z" transform="rotate(-1 73.943 201.87)"/>
        <path fill="#F6F1EB" fill-rule="nonzero" d="M75.211 201.847L75.211 201.847 75.211 201.847z" transform="rotate(-1.45 75.21 201.847)"/>
        <path fill="#F6F1EB" d="M76.805 201.66L76.795 201.32 76.195 201.34 76.205 201.68z"/>
        <path fill="#F6F1EB" fill-rule="nonzero" d="M70.036 201.869L70.036 201.869 70.036 201.869 70.036 201.869z" transform="rotate(-89.69 70.036 201.87)"/>
        <path fill="#F6F1EB" d="M71.8 201.675L71.8 201.325 71.2 201.325 71.2 201.675z"/>
        <path fill="#F6F1EB" fill-rule="nonzero" d="M72.634 201.884L72.634 201.884 72.634 201.884z" transform="rotate(-.55 72.634 201.884)"/>
        <path fill="#F6F1EB" d="M66.795 201.68L66.805 201.34 66.205 201.32 66.195 201.66z"/>
        <path fill="#F6F1EB" fill-rule="nonzero" d="M67.453 201.83L67.453 201.83 67.453 201.83 67.453 201.83z" transform="rotate(-88.81 67.453 201.83)"/>
        <path fill="#F6F1EB" fill-rule="nonzero" d="M68.742 201.872L68.742 201.872 68.742 201.872 68.742 201.872z" transform="rotate(-89.25 68.742 201.872)"/>
        <path fill="#F6F1EB" d="M62.79 201.69L62.81 201.34 62.21 201.31 62.19 201.65z"/>
        <path fill="#F6F1EB" fill-rule="nonzero" d="M63.561 201.7L63.561 201.7 63.561 201.7 63.561 201.7z" transform="rotate(-87.34 63.561 201.7)"/>
        <path fill="#F6F1EB" d="M64.795 201.68L64.805 201.34 64.205 201.32 64.195 201.66zM58.785 201.7L58.815 201.35 58.225 201.3 58.185 201.64z"/>
        <path fill="#F6F1EB" fill-rule="nonzero" d="M59.682 201.463L59.682 201.463 59.682 201.463 59.682 201.463z" transform="rotate(-85.47 59.682 201.463)"/>
        <path fill="#F6F1EB" d="M60.785 201.695L60.815 201.345 60.215 201.305 60.185 201.655zM54.775 200.72L54.825 200.38 54.245 200.28 54.175 200.62zM55.78 201.71L55.82 201.37 55.23 201.29 55.18 201.63zM57.78 201.705L57.82 201.365 57.22 201.295 57.18 201.635zM92.7 202.94L92.35 202.95 92.33 202.51 92.3 202.08 92.64 202.05 92.68 202.49zM91.79 200.04L91.88 200.47 91.95 200.91 91.61 200.96 91.55 200.62 91.54 200.62 91.53 200.62 91.53 200.62 91.53 200.62 91.48 200.61 91.48 200.61 91.48 200.61 91.48 200.61 91.48 200.62 91.45 200.63 91.43 200.64 91.35 200.67 91.17 200.74 91.05 200.42 91.25 200.34 91.3 200.32 91.35 200.3 91.44 200.25 91.62 200.14 91.71 200.08 91.76 200.05 91.77 200.04 91.77 200.04 91.77 200.04 91.77 200.04 91.78 200.04zM89.88 200.23L89.97 200.56 89.86 200.59 89.75 200.62 89.54 200.67 89.1 200.77 89.03 200.43 89.46 200.33 89.67 200.28 89.78 200.26zM52.97 200.43L52.9 200.77 52.69 200.72 52.47 200.67 52.25 200.62 52.14 200.6 52.03 200.57 52.12 200.23 52.23 200.26 52.33 200.29 52.55 200.34 52.76 200.39zM51.21 200.045L51.3 200.105 51.34 200.135 51.36 200.155 51.39 200.165 51.57 200.265 51.66 200.315 51.67 200.325 51.68 200.325 51.71 200.335 51.75 200.355 51.95 200.435 51.83 200.755 51.66 200.685 51.58 200.655 51.53 200.635 51.49 200.615 51.48 200.635 51.48 200.635 51.48 200.635 51.48 200.635 51.43 200.645 51.43 200.645 51.43 200.645 51.43 200.645 51.43 200.645 51.43 200.655 51.43 200.695 51.41 200.785 51.39 200.955 51.05 200.905 51.12 200.465 51.16 200.245 51.18 200.135 51.19 200.085 51.19 200.065 51.19 200.065 51.19 200.065 51.2 200.065 51.2 200.065zM50.36 202.05L50.7 202.09 50.67 202.52 50.65 202.95 50.3 202.94 50.32 202.5z"/>
        <circle cx="54" cy="205" r="2" fill="#F6F1EB" fill-rule="nonzero"/>
        <circle cx="89" cy="205" r="2" fill="#F6F1EB" fill-rule="nonzero"/>
        <path fill="#B24347" fill-rule="nonzero" d="M38 231.073c1.533 4.342 4.267 8.144 7.873 10.948.85.64 1.88.982 2.937.979h11.025c1.659.015 3.156-1.008 3.77-2.574 1.023-3.03 1.49-6.225 1.379-9.426-8.925 1.585-18.05 1.61-26.984.073zM104 231.073c-1.537 4.34-4.269 8.14-7.87 10.948-.85.637-1.88.98-2.936.979H82.163c-1.656.016-3.15-1.008-3.757-2.574-1.028-3.029-1.5-6.224-1.39-9.426h.07c8.903 1.578 18.004 1.603 26.914.073z"/>
        <path fill="#231F20" d="M43 108.103s-4.714-.947-7 2.897c2.106-1.406 4.487-2.392 7-2.897zM100 108.103s4.714-.947 7 2.897c-2.106-1.406-4.487-2.392-7-2.897z"/>
        <path fill="#B24347" fill-rule="nonzero" d="M96.087 166s2.234 22.249-20.197 29.348c-3.817 1.916-5.847 4.23-4.446 9.642 1.402 5.411 4.192 9.51 20.04 1.59 15.849-7.918 20.644-25.78 4.603-40.58z"/>
        <path fill="#231F20" fill-rule="nonzero" d="M97.084 167.102c9.144 13.013 5.136 28.193-7.68 34.693-13.668 6.949-16.8 4.056-18.228-.52-.121 1.352.009 2.715.384 4.019 1.392 5.46 4.164 9.55 19.908 1.598 15.396-7.796 20.328-25.155 5.616-39.79z" opacity=".05"/>
        <path fill="#246398" fill-rule="nonzero" d="M71 203c.073-1.122.344-2.222.8-3.248.128-.275.282-.537.459-.782.205-.293.48-.53.8-.688.426-.176.914-.113 1.282.166l.13.083.105.071c.084.039.17.07.26.095.975.118 1.965.03 2.905-.26.518-.12 1.047-.238 1.588-.333.55-.16 1.137-.135 1.671.072-.532.025-1.05.184-1.506.462-.494.213-.988.438-1.506.64-1.075.52-2.281.697-3.459.51-.171-.054-.337-.126-.494-.214l-.235-.166-.106-.083c-.118-.083-.13-.083-.235-.07-.106.011-.612.509-.894.912-.565.842-1.047 1.861-1.565 2.833z"/>
        <path fill="#B24347" fill-rule="nonzero" d="M46.907 166s-2.233 22.249 20.207 29.348c3.814 1.916 5.842 4.23 4.442 9.642-1.4 5.411-4.189 9.51-20.026 1.59-15.837-7.918-20.677-25.78-4.623-40.58z"/>
        <path fill="#231F20" fill-rule="nonzero" d="M45.984 167.102c-9.144 13.013-5.184 28.193 7.668 34.693 13.68 6.949 16.8 4.056 18.24-.52.121 1.352-.009 2.715-.384 4.019-1.392 5.46-4.164 9.55-19.908 1.598-15.396-7.796-20.328-25.155-5.616-39.79z" opacity=".05"/>
        <path fill="#246398" fill-rule="nonzero" d="M71 203c-.518-.974-1-1.96-1.565-2.828-.282-.404-.635-.855-.894-.915-.259-.06-.117 0-.235.072l-.118.083-.223.166c-.157.088-.323.16-.494.214-1.178.188-2.384.01-3.46-.511-.517-.202-1.011-.428-1.505-.642-.456-.278-.974-.437-1.506-.463.53-.207 1.113-.232 1.659-.071.553.095 1.082.214 1.6.332.94.29 1.93.38 2.906.262.085-.022.168-.054.247-.095l.117-.072.13-.083c.368-.28.856-.343 1.282-.166.32.158.595.395.8.69.178.243.328.506.447.783.464 1.023.739 2.122.812 3.244z"/>
    </g>
</svg>
