<svg xmlns="http://www.w3.org/2000/svg" width="28" height="28"><g fill="none" fill-rule="evenodd"><rect width="28" height="28" rx="14"/><path d="M19.972 6H7.14A2.14 2.14 0 0 0 5 8.136v4.534a2.589 2.589 0 0 0 2.589 2.584c.765 0 1.446-.34 1.92-.868a2.749 2.749 0 0 0 2.001.868c.815 0 1.54-.36 2.046-.923.505.562 1.23.923 2.045.923.79 0 1.497-.336 2-.868a2.575 2.575 0 0 0 1.921.868 2.59 2.59 0 0 0 2.59-2.584V8.136A2.14 2.14 0 0 0 19.972 6zM8.751 12.5v.17a1.162 1.162 0 0 1-2.325.001v-2.4H8.75v2.23zm4.092 0a1.334 1.334 0 0 1-2.666.001V10.27h2.666v2.23zm4.091 0a1.333 1.333 0 0 1-2.665.001V10.27h2.665v2.23zm3.751.171a1.162 1.162 0 0 1-2.325 0v-2.4h2.325v2.4zm0 4.139v3.02c0 .394-.32.713-.713.713H7.14a.714.714 0 0 1-.713-.712V16.81a4.018 4.018 0 0 1-1.426-.777v3.798a2.14 2.14 0 0 0 2.139 2.136h12.833a2.14 2.14 0 0 0 2.14-2.136v-3.798a4.015 4.015 0 0 1-1.427.777z" fill="#505F77" fill-rule="nonzero"/></g></svg>