<svg id="Layer_1" data-name="Layer 1" xmlns="http://www.w3.org/2000/svg" viewBox="0 0 740.79 261"><defs><style>.cls-1{fill:#fff;}</style></defs><path class="cls-1" d="M.27,2.4H116.56V19.7H18.77V85.53h88.9v17.3H18.77v67.76H.27Z"/><path class="cls-1" d="M217,2.4h20.9l76.16,168.19H293.4l-16.34-36.76H177.59l-16.33,36.76H140.59Zm52.37,114.13-42-93.95-41.81,94Z"/><path class="cls-1" d="M433.24,2.4c51.18,0,80.49,35.56,80.49,84.1s-29.55,84.09-80.49,84.09H366V2.4ZM384.47,153.29h47.81c40.84,0,62.47-28.11,62.47-66.79s-21.39-66.8-62.47-66.8H384.47Z"/><path class="cls-1" d="M564.67,86.5c0-49,38.2-86.5,88.18-86.5,49.49,0,87.94,37.48,87.94,86.5S702.34,173,652.85,173C603.11,173,564.67,135.51,564.67,86.5Zm19,0c0,38.92,30.28,68.71,69.2,68.71,38.68,0,68.95-29.55,68.95-68.71,0-38.93-30.27-68.72-68.95-68.72C613.93,17.78,583.65,47.57,583.65,86.5Z"/><path class="cls-1" d="M12.54,236.15A12.08,12.08,0,0,1,24,243.84L20.47,245a8.52,8.52,0,0,0-8.07-5.48c-5,0-8.7,3.89-8.7,9.08s3.7,9,8.7,9a8.62,8.62,0,0,0,8.07-5.43L24,253.31A12.07,12.07,0,0,1,12.54,261a12.43,12.43,0,1,1,0-24.85Z"/><path class="cls-1" d="M35,260.47V236.63h3.61v7.21a12.32,12.32,0,0,1,10.09-7.69v4.14c-5.19.62-10.09,5-10.09,10v10.14Z"/><path class="cls-1" d="M56.46,248.6a12.3,12.3,0,0,1,12.69-12.45,12.43,12.43,0,1,1,0,24.85A12.29,12.29,0,0,1,56.46,248.6Zm3.7,0a9,9,0,1,0,9-9.08A8.75,8.75,0,0,0,60.16,248.6Z"/><path class="cls-1" d="M95.29,253.45c0,2.93,3.17,4.28,7.26,4.28,3.7,0,5.91-1.11,5.91-3.36,0-3.13-4.18-3.56-7.74-4.18-4.13-.77-8.79-2.26-8.79-7.21,0-4.33,3.55-6.83,9.22-6.83,5.86,0,10.29,2.65,10.29,7.45h-3.7c0-2.74-2.94-4.23-6.64-4.23-3.36,0-5.47,1.21-5.47,3.46,0,3,3.89,3.51,7.83,4.23,3.75.72,8.7,1.88,8.7,7.07,0,4.46-3.66,6.87-9.76,6.87s-10.81-2.41-10.81-7.55Z"/><path class="cls-1" d="M125.47,253.45c0,2.93,3.17,4.28,7.25,4.28,3.7,0,5.91-1.11,5.91-3.36,0-3.13-4.18-3.56-7.73-4.18-4.13-.77-8.8-2.26-8.8-7.21,0-4.33,3.56-6.83,9.23-6.83,5.86,0,10.28,2.65,10.28,7.45h-3.7c0-2.74-2.93-4.23-6.63-4.23-3.36,0-5.48,1.21-5.48,3.46,0,3,3.9,3.51,7.84,4.23,3.74.72,8.69,1.88,8.69,7.07,0,4.46-3.65,6.87-9.75,6.87s-10.81-2.41-10.81-7.55Z"/><path class="cls-1" d="M172.51,226.83h3.61v13.31a10.91,10.91,0,0,1,8.79-4,12.43,12.43,0,0,1,0,24.85,10.91,10.91,0,0,1-8.79-4v3.46h-3.61Zm12.26,30.8c5.09,0,8.74-4,8.74-9.08a8.77,8.77,0,1,0-17.54,0A8.77,8.77,0,0,0,184.77,257.63Z"/><path class="cls-1" d="M206.87,248.6A12.66,12.66,0,1,1,219.56,261,12.3,12.3,0,0,1,206.87,248.6Zm3.7,0a9,9,0,1,0,9-9.08A8.75,8.75,0,0,0,210.57,248.6Z"/><path class="cls-1" d="M243.78,260.47V236.63h3.6v7.21a12.35,12.35,0,0,1,10.09-7.69v4.14c-5.19.62-10.09,5-10.09,10v10.14Z"/><path class="cls-1" d="M286.74,240.14V226.83h3.6v33.64h-3.6V257a11,11,0,0,1-8.8,4,12.43,12.43,0,0,1,.05-24.85A10.85,10.85,0,0,1,286.74,240.14Zm.14,8.46a8.76,8.76,0,0,0-8.84-9.08c-5.05,0-8.7,3.94-8.7,9s3.65,9.08,8.7,9.08A8.74,8.74,0,0,0,286.88,248.6Z"/><path class="cls-1" d="M314,236.15a11.57,11.57,0,0,1,11.82,11.44,11.92,11.92,0,0,1-.24,2.21h-20c.53,4.33,3.75,7.83,9.13,7.83a11.25,11.25,0,0,0,7.93-3.26l2.12,2.69A14,14,0,0,1,314.66,261c-8.27,0-12.83-6-12.83-12.5A12,12,0,0,1,314,236.15Zm-8.31,10.38H322a8,8,0,0,0-8-7.06A8.34,8.34,0,0,0,305.67,246.53Z"/><path class="cls-1" d="M337.1,260.47V236.63h3.6v7.21a12.35,12.35,0,0,1,10.09-7.69v4.14c-5.19.62-10.09,5-10.09,10v10.14Z"/><path class="cls-1" d="M390.63,236.15a11.57,11.57,0,0,1,11.82,11.44,12.84,12.84,0,0,1-.24,2.21h-20c.53,4.33,3.75,7.83,9.13,7.83a11.25,11.25,0,0,0,7.93-3.26l2.11,2.69A14,14,0,0,1,391.3,261c-8.26,0-12.83-6-12.83-12.5A12,12,0,0,1,390.63,236.15Zm-8.31,10.38h16.33a8,8,0,0,0-8-7.06A8.34,8.34,0,0,0,382.32,246.53Z"/><path class="cls-1" d="M427.1,248.12H413.22v-3.41H427.1Z"/><path class="cls-1" d="M450.79,236.15a12.1,12.1,0,0,1,11.49,7.69L458.72,245a8.51,8.51,0,0,0-8.07-5.48c-5,0-8.7,3.89-8.7,9.08s3.7,9,8.7,9a8.61,8.61,0,0,0,8.07-5.43l3.56,1.11A12.09,12.09,0,0,1,450.79,261a12.43,12.43,0,1,1,0-24.85Z"/><path class="cls-1" d="M471.55,248.6A12.67,12.67,0,1,1,484.24,261,12.3,12.3,0,0,1,471.55,248.6Zm3.7,0a9,9,0,1,0,9-9.08A8.75,8.75,0,0,0,475.25,248.6Z"/><path class="cls-1" d="M508.12,236.63h3.61v3.56a9.23,9.23,0,0,1,8-4c3.6,0,6.49,1.54,7.88,4.71a9.91,9.91,0,0,1,8.79-4.71c5.24,0,8.94,3.13,8.94,9.66v14.66h-3.6V246.2c0-4.62-2.65-6.68-5.91-6.68-4.42,0-7.26,3.75-7.26,8v12.93H525V246.2c0-4.62-2.64-6.68-6-6.68-4.42,0-7.3,3.75-7.3,8v12.93h-3.61Z"/><path class="cls-1" d="M557.67,236.63h3.6v3.56a9.23,9.23,0,0,1,8-4c3.61,0,6.49,1.54,7.88,4.71a9.91,9.91,0,0,1,8.8-4.71c5.23,0,8.93,3.13,8.93,9.66v14.66h-3.6V246.2c0-4.62-2.64-6.68-5.91-6.68-4.42,0-7.25,3.75-7.25,8v12.93h-3.61V246.2c0-4.62-2.64-6.68-6-6.68-4.42,0-7.3,3.75-7.3,8v12.93h-3.6Z"/><path class="cls-1" d="M618,236.15a11.57,11.57,0,0,1,11.82,11.44,11.92,11.92,0,0,1-.24,2.21h-20c.53,4.33,3.75,7.83,9.13,7.83a11.25,11.25,0,0,0,7.93-3.26l2.11,2.69A14,14,0,0,1,618.69,261c-8.26,0-12.83-6-12.83-12.5A12,12,0,0,1,618,236.15Zm-8.31,10.38h16.34a8,8,0,0,0-8-7.06A8.34,8.34,0,0,0,609.71,246.53Z"/><path class="cls-1" d="M641.14,260.47V236.63h3.6v7.21a12.35,12.35,0,0,1,10.09-7.69v4.14c-5.19.62-10.09,5-10.09,10v10.14Z"/><path class="cls-1" d="M675.16,236.15a12.08,12.08,0,0,1,11.48,7.69L683.09,245a8.53,8.53,0,0,0-8.08-5.48c-5,0-8.69,3.89-8.69,9.08s3.7,9,8.69,9a8.63,8.63,0,0,0,8.08-5.43l3.55,1.11A12.07,12.07,0,0,1,675.16,261a12.43,12.43,0,1,1,0-24.85Z"/><path class="cls-1" d="M708.07,236.15a11.58,11.58,0,0,1,11.83,11.44,12,12,0,0,1-.25,2.21h-20c.52,4.33,3.74,7.83,9.13,7.83a11.24,11.24,0,0,0,7.92-3.26l2.12,2.69A14,14,0,0,1,708.75,261c-8.27,0-12.83-6-12.83-12.5A12,12,0,0,1,708.07,236.15Zm-8.31,10.38H716.1a8,8,0,0,0-8-7.06A8.34,8.34,0,0,0,699.76,246.53Z"/></svg>